# This file uses meters as units for non-parametric coordinates.

v 0.556844 0.000000 0.191242
v 0.556844 0.943113 0.191242
v 0.000000 0.943113 0.191242
v 0.000000 0.000000 0.191242
v 0.000000 0.760561 0.191242
v 0.000000 0.187580 0.191242
v 0.339256 0.187580 0.191242
v 0.339256 0.399795 0.191242
v 0.187974 0.399795 0.191242
v 0.187974 0.570747 0.191242
v 0.339256 0.570747 0.191242
v 0.339256 0.760561 0.191242
v 0.000000 0.000000 0.000000
v 0.556844 0.000000 0.000000
v 0.000000 0.187580 0.000000
v 0.339256 0.187580 0.000000
v 0.339256 0.760561 0.000000
v 0.556844 0.943113 0.000000
v 0.000000 0.760561 0.000000
v 0.000000 0.943113 0.000000
v 0.339256 0.399795 0.000000
v 0.339256 0.570747 0.000000
v 0.187974 0.399795 0.000000
v 0.187974 0.570747 0.000000
vt 0.143326 0.525167
vt 0.143326 0.525167
vt 0.143326 0.525187
vt 0.143326 0.525187
vt 0.143326 0.525179
vt 0.143326 0.525187
vt 0.143326 0.525187
vt 0.143326 0.525179
vt 0.143326 0.525167
vt 0.143326 0.525187
vt 0.143326 0.525187
vt 0.143326 0.525167
vt 0.143326 0.525182
vt 0.143326 0.525182
vt 0.143326 0.525182
vt 0.143326 0.525182
vt 0.143326 0.525182
vt 0.143326 0.525182
vt 0.143326 0.525182
vt 0.143326 0.525182
vt 0.143326 0.525182
vt 0.143326 0.525182
vt 0.143326 0.525182
vt 0.143326 0.525182
vt 0.143326 0.525182
vt 0.143326 0.525167
vt 0.143326 0.525167
vt 0.143326 0.525182
vt 0.143326 0.525182
vt 0.143326 0.525182
vt 0.143326 0.525182
vt 0.143326 0.525182
vt 0.143326 0.525182
vt 0.143326 0.525182
vt 0.143326 0.525182
vt 0.143326 0.525182
vt 0.143326 0.525167
vt 0.143326 0.525167
vt 0.143326 0.525167
vt 0.143326 0.525167
vt 0.143326 0.525167
vt 0.143326 0.525167
vt 0.143326 0.525167
vt 0.143326 0.525167
vt 0.143326 0.525167
vt 0.143326 0.525167
vt 0.143326 0.525167
vt 0.143326 0.525167
vt 0.143326 0.525187
vt 0.143326 0.525187
vt 0.143326 0.525187
vt 0.143326 0.525187
vt 0.143326 0.525187
vt 0.143326 0.525187
vt 0.143326 0.525187
vt 0.143326 0.525187
vt 0.143326 0.525187
vt 0.143326 0.525187
vt 0.143326 0.525187
vt 0.143326 0.525187
vt 0.143326 0.525187
vt 0.143326 0.525187
vt 0.143326 0.525187
vt 0.143326 0.525187
vt 0.143326 0.525187
vt 0.143326 0.525187
vt 0.143326 0.525167
vt 0.143326 0.525167
vt 0.143326 0.525167
vt 0.143326 0.525167
vt 0.143326 0.525167
vt 0.143326 0.525167
vt 0.143326 0.525179
vt 0.143326 0.525179
vn 0.000000 0.000000 -1.000000
vn 0.000000 0.000000 -1.000000
vn 0.000000 0.000000 -1.000000
vn 0.000000 0.000000 -1.000000
vn 0.000000 0.000000 -1.000000
vn 0.000000 0.000000 -1.000000
vn 0.000000 0.000000 -1.000000
vn 0.000000 0.000000 -1.000000
vn 0.000000 0.000000 -1.000000
vn 0.000000 0.000000 -1.000000
vn 0.000000 0.000000 -1.000000
vn 0.000000 0.000000 -1.000000
vn 0.000000 0.000000 -1.000000
vn 0.000000 0.000000 -1.000000
vn 0.000000 0.000000 -1.000000
vn 0.000000 0.000000 -1.000000
vn 0.000000 0.000000 -1.000000
vn 0.000000 0.000000 -1.000000
vn 0.000000 0.000000 1.000000
vn 0.000000 0.000000 1.000000
vn 0.000000 0.000000 1.000000
vn 0.000000 0.000000 1.000000
vn 0.000000 0.000000 1.000000
vn 0.000000 0.000000 1.000000
vn 0.000000 0.000000 1.000000
vn 0.000000 0.000000 1.000000
vn -0.000000 0.000000 1.000000
vn -0.000000 0.000000 1.000000
vn -0.000000 0.000000 1.000000
vn -0.000000 0.000000 1.000000
vn -0.000000 0.000000 1.000000
vn -0.000000 0.000000 1.000000
vn 0.000000 0.000000 1.000000
vn 0.000000 0.000000 1.000000
vn 0.000000 0.000000 1.000000
vn 0.000000 0.000000 1.000000
vn 0.000000 -1.000000 0.000000
vn 0.000000 -1.000000 0.000000
vn 0.000000 -1.000000 0.000000
vn 0.000000 -1.000000 0.000000
vn -1.000000 0.000000 0.000000
vn -1.000000 0.000000 0.000000
vn -1.000000 0.000000 0.000000
vn -1.000000 0.000000 0.000000
vn 0.000000 1.000000 0.000000
vn 0.000000 1.000000 0.000000
vn 0.000000 1.000000 0.000000
vn 0.000000 1.000000 0.000000
vn 0.000000 -1.000000 0.000000
vn 0.000000 -1.000000 0.000000
vn 0.000000 -1.000000 0.000000
vn 0.000000 -1.000000 0.000000
vn -1.000000 0.000000 0.000000
vn -1.000000 0.000000 0.000000
vn -1.000000 0.000000 0.000000
vn -1.000000 0.000000 0.000000
vn 0.000000 1.000000 0.000000
vn 0.000000 1.000000 0.000000
vn 0.000000 1.000000 0.000000
vn 0.000000 1.000000 0.000000
vn -1.000000 0.000000 0.000000
vn -1.000000 0.000000 0.000000
vn -1.000000 0.000000 0.000000
vn -1.000000 0.000000 0.000000
vn -1.000000 0.000000 0.000000
vn -1.000000 0.000000 0.000000
vn -1.000000 0.000000 0.000000
vn -1.000000 0.000000 0.000000
vn 1.000000 0.000000 0.000000
vn 1.000000 0.000000 0.000000
vn 1.000000 0.000000 0.000000
vn 1.000000 0.000000 0.000000
vn 0.000000 -1.000000 0.000000
vn 0.000000 -1.000000 0.000000
vn 0.000000 -1.000000 0.000000
vn 0.000000 -1.000000 0.000000
vn -1.000000 0.000000 0.000000
vn -1.000000 0.000000 0.000000
vn -1.000000 0.000000 0.000000
vn -1.000000 0.000000 0.000000
vn 0.000000 1.000000 0.000000
vn 0.000000 1.000000 0.000000
vn 0.000000 1.000000 0.000000
vn 0.000000 1.000000 0.000000
s off
f 14/5/1 13/74/2 15/73/3 16/8/4
f 18/32/5 17/29/6 19/30/7 20/31/8
f 14/25/9 16/28/10 21/33/11 22/34/12 17/29/13 18/32/14
f 22/34/15 21/33/16 23/35/17 24/36/18
f 1/13/19 7/16/20 6/15/21 4/14/22
f 2/17/23 3/20/24 5/19/25 12/18/26
f 1/13/27 2/17/28 12/18/29 11/22/30 8/21/31 7/16/32
f 11/22/33 10/24/34 9/23/35 8/21/36
f 1/9/37 4/12/38 13/2/39 14/1/40
f 4/3/41 6/4/42 15/6/43 13/7/44
f 6/37/45 7/38/46 16/39/47 15/40/48
f 12/26/49 5/27/50 19/67/51 17/68/52
f 5/10/53 3/11/54 20/49/55 19/50/56
f 3/41/57 2/42/58 18/43/59 20/44/60
f 7/51/61 8/52/62 21/53/63 16/54/64
f 11/55/65 12/56/66 17/57/67 22/58/68
f 2/59/69 1/60/70 14/61/71 18/62/72
f 8/69/73 9/70/74 23/71/75 21/72/76
f 9/63/77 10/64/78 24/65/79 23/66/80
f 10/45/81 11/46/82 22/47/83 24/48/84
