# This file uses meters as units for non-parametric coordinates.

v 0.000000 0.000000 0.191242
v -0.100272 0.955462 0.191242
v 0.419866 0.955462 0.191242
v 0.224280 0.000000 0.191242
v 0.153476 0.755931 0.191242
v -0.100272 0.755931 0.191242
v 0.224280 0.000000 0.000000
v 0.000000 0.000000 0.000000
v 0.419866 0.955462 0.000000
v -0.100272 0.955462 0.000000
v 0.153476 0.755931 0.000000
v -0.100272 0.755931 0.000000
vt 0.144366 0.524293
vt 0.144366 0.524293
vt 0.144366 0.524310
vt 0.144366 0.524290
vt 0.144366 0.524310
vt 0.144366 0.524293
vt 0.144366 0.524290
vt 0.144366 0.524310
vt 0.144366 0.524293
vt 0.144366 0.524305
vt 0.144366 0.524305
vt 0.144366 0.524305
vt 0.144366 0.524305
vt 0.144366 0.524305
vt 0.144366 0.524305
vt 0.144366 0.524305
vt 0.144366 0.524305
vt 0.144366 0.524305
vt 0.144366 0.524305
vt 0.144366 0.524305
vt 0.144366 0.524305
vt 0.144366 0.524290
vt 0.144366 0.524290
vt 0.144366 0.524310
vt 0.144366 0.524310
vt 0.144366 0.524310
vt 0.144366 0.524310
vt 0.144366 0.524310
vt 0.144366 0.524310
vt 0.144366 0.524310
vt 0.144366 0.524310
vt 0.144366 0.524310
vt 0.144366 0.524293
vt 0.144366 0.524293
vt 0.144366 0.524293
vt 0.144366 0.524293
vn 0.000000 0.000000 -1.000000
vn 0.000000 0.000000 -1.000000
vn 0.000000 0.000000 -1.000000
vn 0.000000 0.000000 -1.000000
vn -0.000000 0.000000 1.000000
vn -0.000000 0.000000 1.000000
vn -0.000000 0.000000 1.000000
vn -0.000000 0.000000 1.000000
vn 0.000000 -1.000000 0.000000
vn 0.000000 -1.000000 0.000000
vn 0.000000 -1.000000 0.000000
vn 0.000000 -1.000000 0.000000
vn 0.979685 -0.200544 0.000000
vn 0.979685 -0.200544 0.000000
vn 0.979685 -0.200544 0.000000
vn 0.979685 -0.200544 0.000000
vn 0.000000 1.000000 0.000000
vn 0.000000 1.000000 0.000000
vn 0.000000 1.000000 0.000000
vn 0.000000 1.000000 0.000000
vn -0.980006 0.198969 0.000000
vn -0.980006 0.198969 0.000000
vn -0.980006 0.198969 0.000000
vn -0.980006 0.198969 0.000000
vn -1.000000 0.000000 0.000000
vn -1.000000 0.000000 0.000000
vn -1.000000 0.000000 0.000000
vn -1.000000 0.000000 0.000000
vn 0.000000 -1.000000 0.000000
vn 0.000000 -1.000000 0.000000
vn 0.000000 -1.000000 0.000000
vn 0.000000 -1.000000 0.000000
vn 0.000000 0.000000 1.000000
vn 0.000000 0.000000 1.000000
vn -0.000000 0.000000 1.000000
vn -0.000000 0.000000 1.000000
vn 0.000000 0.000000 -1.000000
vn 0.000000 0.000000 -1.000000
vn 0.000000 0.000000 -1.000000
vn 0.000000 0.000000 -1.000000
s off
f 10/20/1 9/18/2 11/19/3 12/21/4
f 5/14/5 1/10/6 4/11/7 3/12/8
f 1/1/9 8/9/10 7/6/11 4/2/12
f 4/3/13 7/24/14 9/8/15 3/5/16
f 3/4/17 9/23/18 10/22/19 2/7/20
f 5/25/21 11/28/22 8/27/23 1/26/24
f 2/29/25 10/32/26 12/31/27 6/30/28
f 6/33/29 12/36/30 11/35/31 5/34/32
f 2/13/33 6/15/34 5/14/35 3/12/36
f 9/18/37 7/17/38 8/16/39 11/19/40
