# This file uses meters as units for non-parametric coordinates.

v 0.000000 -0.000000 0.191242
v 0.000000 0.955462 0.191242
v 0.607836 0.955462 0.191242
v 0.607836 -0.000000 0.191242
v 0.370775 0.192415 0.191242
v 0.237061 0.192415 0.191242
v 0.370775 0.778413 0.191242
v 0.237061 0.778413 0.191242
v 0.607836 -0.000000 0.000000
v 0.000000 -0.000000 0.000000
v 0.370775 0.192415 0.000000
v 0.237061 0.192415 0.000000
v 0.607836 0.955462 0.000000
v 0.370775 0.778413 0.000000
v 0.000000 0.955462 0.000000
v 0.237061 0.778413 0.000000
vt 0.142479 0.525005
vt 0.142479 0.525005
vt 0.142479 0.525005
vt 0.142479 0.525005
vt 0.142479 0.525005
vt 0.142479 0.525005
vt 0.142479 0.525005
vt 0.142479 0.525005
vt 0.142479 0.525005
vt 0.142479 0.525005
vt 0.142479 0.525005
vt 0.142479 0.525005
vt 0.142479 0.525005
vt 0.142479 0.525005
vt 0.142479 0.525005
vt 0.142479 0.525005
vt 0.142479 0.525005
vt 0.142479 0.525005
vt 0.142479 0.525005
vt 0.142479 0.525005
vt 0.142479 0.525005
vt 0.142479 0.525005
vt 0.142479 0.525005
vt 0.142479 0.525005
vt 0.142479 0.525005
vt 0.142479 0.525005
vt 0.142479 0.525005
vt 0.142479 0.525005
vt 0.142479 0.525005
vt 0.142479 0.525005
vt 0.142479 0.525005
vt 0.142479 0.525005
vt 0.142479 0.525005
vt 0.142479 0.525005
vt 0.142479 0.525005
vt 0.142479 0.525005
vt 0.142479 0.525005
vt 0.142479 0.525005
vt 0.142479 0.525005
vt 0.142479 0.525005
vt 0.142479 0.525005
vt 0.142479 0.525005
vt 0.142479 0.525005
vt 0.142479 0.525005
vt 0.142479 0.525005
vt 0.142479 0.525005
vt 0.142479 0.525005
vt 0.142479 0.525005
vn 0.000000 0.000000 -1.000000
vn 0.000000 0.000000 -1.000000
vn 0.000000 0.000000 -1.000000
vn 0.000000 0.000000 -1.000000
vn 0.000000 0.000000 -1.000000
vn 0.000000 0.000000 -1.000000
vn 0.000000 0.000000 -1.000000
vn 0.000000 0.000000 -1.000000
vn 0.000000 0.000000 -1.000000
vn 0.000000 0.000000 -1.000000
vn 0.000000 0.000000 -1.000000
vn 0.000000 0.000000 -1.000000
vn 0.000000 0.000000 -1.000000
vn 0.000000 0.000000 -1.000000
vn 0.000000 0.000000 -1.000000
vn 0.000000 0.000000 -1.000000
vn 0.000000 -0.000000 1.000000
vn 0.000000 -0.000000 1.000000
vn 0.000000 -0.000000 1.000000
vn 0.000000 -0.000000 1.000000
vn 0.000000 0.000000 1.000000
vn 0.000000 0.000000 1.000000
vn 0.000000 0.000000 1.000000
vn 0.000000 0.000000 1.000000
vn 0.000000 0.000000 1.000000
vn 0.000000 0.000000 1.000000
vn 0.000000 0.000000 1.000000
vn 0.000000 0.000000 1.000000
vn 0.000000 0.000000 1.000000
vn 0.000000 0.000000 1.000000
vn 0.000000 0.000000 1.000000
vn 0.000000 0.000000 1.000000
vn 0.000000 -1.000000 0.000000
vn 0.000000 -1.000000 0.000000
vn 0.000000 -1.000000 0.000000
vn 0.000000 -1.000000 0.000000
vn 0.000000 1.000000 0.000000
vn 0.000000 1.000000 0.000000
vn 0.000000 1.000000 0.000000
vn 0.000000 1.000000 0.000000
vn 1.000000 0.000000 0.000000
vn 1.000000 0.000000 0.000000
vn 1.000000 0.000000 0.000000
vn 1.000000 0.000000 0.000000
vn -1.000000 0.000000 0.000000
vn -1.000000 0.000000 0.000000
vn -1.000000 0.000000 0.000000
vn -1.000000 0.000000 0.000000
vn 0.000000 1.000000 0.000000
vn 0.000000 1.000000 0.000000
vn 0.000000 1.000000 0.000000
vn 0.000000 1.000000 0.000000
vn 0.000000 -1.000000 0.000000
vn 0.000000 -1.000000 0.000000
vn 0.000000 -1.000000 0.000000
vn 0.000000 -1.000000 0.000000
vn -1.000000 0.000000 0.000000
vn -1.000000 0.000000 0.000000
vn -1.000000 0.000000 0.000000
vn -1.000000 0.000000 0.000000
vn 1.000000 0.000000 0.000000
vn 1.000000 0.000000 0.000000
vn 1.000000 0.000000 0.000000
vn 1.000000 0.000000 0.000000
s off
f 10/17/1 12/20/2 11/19/3 9/18/4
f 9/18/5 11/19/6 14/22/7 13/21/8
f 13/21/9 14/22/10 16/24/11 15/23/12
f 15/23/13 16/24/14 12/20/15 10/17/16
f 1/9/17 4/10/18 5/11/19 6/12/20
f 4/10/21 3/13/22 7/14/23 5/11/24
f 3/13/25 2/15/26 8/16/27 7/14/28
f 2/15/29 1/9/30 6/12/31 8/16/32
f 1/1/33 10/8/34 9/7/35 4/2/36
f 5/25/37 11/28/38 12/27/39 6/26/40
f 4/3/41 9/6/42 13/5/43 3/4/44
f 7/33/45 14/36/46 11/35/47 5/34/48
f 3/29/49 13/32/50 15/31/51 2/30/52
f 8/45/53 16/48/54 14/47/55 7/46/56
f 2/37/57 15/40/58 10/39/59 1/38/60
f 6/41/61 12/44/62 16/43/63 8/42/64
