# This file uses meters as units for non-parametric coordinates.

v 0.000000 0.000000 0.191242
v 0.000000 0.971261 0.191242
v 0.574622 0.971261 0.191242
v 0.574622 0.000000 0.191242
v 0.574622 0.790625 0.191242
v 0.574622 0.570745 0.191242
v 0.372391 0.183278 0.191242
v 0.223960 0.183278 0.191242
v 0.223960 0.790625 0.191242
v 0.372391 0.183278 0.000000
v 0.574622 0.000000 0.000000
v 0.574622 0.570745 0.000000
v 0.000000 0.000000 0.000000
v 0.223960 0.183278 0.000000
v 0.223960 0.790625 0.000000
v 0.000000 0.971261 0.000000
v 0.574622 0.971261 0.000000
v 0.574622 0.790625 0.000000
v 0.372391 0.399793 0.000000
v 0.372391 0.399793 0.191242
v 0.223960 0.570744 0.191242
v 0.223960 0.399793 0.191242
v 0.223960 0.399793 0.000000
v 0.223960 0.570744 0.000000
vt 0.142844 0.521153
vt 0.142844 0.521153
vt 0.142844 0.521153
vt 0.142844 0.521153
vt 0.142844 0.521153
vt 0.142844 0.521153
vt 0.142844 0.521153
vt 0.142844 0.521158
vt 0.142844 0.521153
vt 0.142844 0.521153
vt 0.142844 0.521153
vt 0.142844 0.521151
vt 0.142844 0.521151
vt 0.142844 0.521151
vt 0.142844 0.521151
vt 0.142844 0.521151
vt 0.142844 0.521151
vt 0.142844 0.521151
vt 0.142844 0.521151
vt 0.142844 0.521151
vt 0.142844 0.521151
vt 0.142844 0.521151
vt 0.142844 0.521151
vt 0.142844 0.521151
vt 0.142844 0.521151
vt 0.142844 0.521151
vt 0.142844 0.521151
vt 0.142844 0.521151
vt 0.142844 0.521151
vt 0.142844 0.521151
vt 0.142844 0.521151
vt 0.142844 0.521151
vt 0.142844 0.521151
vt 0.142844 0.521151
vt 0.142844 0.521151
vt 0.142844 0.521151
vt 0.142844 0.521151
vt 0.142844 0.521153
vt 0.142844 0.521158
vt 0.142844 0.521153
vt 0.142844 0.521153
vt 0.142844 0.521153
vt 0.142844 0.521153
vt 0.142844 0.521153
vt 0.142844 0.521153
vt 0.142844 0.521153
vt 0.142844 0.521153
vt 0.142844 0.521153
vt 0.142844 0.521153
vt 0.142844 0.521153
vt 0.142844 0.521153
vt 0.142844 0.521153
vt 0.142844 0.521153
vt 0.142844 0.521153
vt 0.142844 0.521151
vt 0.142844 0.521153
vt 0.142844 0.521153
vt 0.142844 0.521151
vt 0.142844 0.521146
vt 0.142844 0.521146
vt 0.142844 0.521146
vt 0.142844 0.521146
vt 0.142844 0.521146
vt 0.142844 0.521146
vt 0.142844 0.521146
vt 0.142844 0.521146
vt 0.142844 0.521158
vt 0.142844 0.521158
vt 0.142844 0.521161
vt 0.142844 0.521161
vt 0.142844 0.521161
vt 0.142844 0.521161
vt 0.142844 0.521151
vt 0.142844 0.521153
vt 0.142844 0.521153
vt 0.142844 0.521151
vt 0.142844 0.521151
vt 0.142844 0.521153
vt 0.142844 0.521153
vt 0.142844 0.521151
vn 0.000000 0.000000 -1.000000
vn 0.000000 0.000000 -1.000000
vn 0.000000 0.000000 -1.000000
vn 0.000000 0.000000 -1.000000
vn 0.000000 0.000000 -1.000000
vn 0.000000 0.000000 -1.000000
vn 0.000000 0.000000 -1.000000
vn 0.000000 0.000000 -1.000000
vn 0.000000 0.000000 -1.000000
vn 0.000000 0.000000 -1.000000
vn 0.000000 0.000000 -1.000000
vn 0.000000 0.000000 -1.000000
vn 0.000000 0.000000 -1.000000
vn 0.000000 0.000000 -1.000000
vn 0.000000 0.000000 -1.000000
vn 0.000000 0.000000 -1.000000
vn 0.000000 0.000000 -1.000000
vn 0.000000 0.000000 -1.000000
vn -0.000000 0.000000 1.000000
vn -0.000000 0.000000 1.000000
vn -0.000000 0.000000 1.000000
vn -0.000000 0.000000 1.000000
vn 0.000000 0.000000 1.000000
vn 0.000000 0.000000 1.000000
vn 0.000000 0.000000 1.000000
vn 0.000000 0.000000 1.000000
vn 0.000000 0.000000 1.000000
vn 0.000000 0.000000 1.000000
vn 0.000000 0.000000 1.000000
vn 0.000000 0.000000 1.000000
vn 0.000000 0.000000 1.000000
vn 0.000000 0.000000 1.000000
vn 0.000000 0.000000 1.000000
vn 0.000000 0.000000 1.000000
vn 0.000000 0.000000 1.000000
vn 0.000000 0.000000 1.000000
vn 1.000000 0.000000 0.000000
vn 1.000000 0.000000 0.000000
vn 1.000000 0.000000 0.000000
vn 1.000000 0.000000 0.000000
vn -1.000000 0.000000 0.000000
vn -1.000000 0.000000 0.000000
vn -1.000000 0.000000 0.000000
vn -1.000000 0.000000 0.000000
vn 0.000000 -1.000000 0.000000
vn 0.000000 -1.000000 0.000000
vn 0.000000 -1.000000 0.000000
vn 0.000000 -1.000000 0.000000
vn 0.000000 1.000000 0.000000
vn 0.000000 1.000000 0.000000
vn 0.000000 1.000000 0.000000
vn 0.000000 1.000000 0.000000
vn 1.000000 0.000000 0.000000
vn 1.000000 0.000000 0.000000
vn 1.000000 0.000000 0.000000
vn 1.000000 0.000000 0.000000
vn -1.000000 0.000000 0.000000
vn -1.000000 0.000000 0.000000
vn -1.000000 0.000000 0.000000
vn -1.000000 0.000000 0.000000
vn 0.000000 -1.000000 0.000000
vn 0.000000 -1.000000 0.000000
vn 0.000000 -1.000000 0.000000
vn 0.000000 -1.000000 0.000000
vn 0.000000 1.000000 0.000000
vn 0.000000 1.000000 0.000000
vn 0.000000 1.000000 0.000000
vn 0.000000 1.000000 0.000000
vn 1.000000 0.000000 0.000000
vn 1.000000 0.000000 0.000000
vn 1.000000 0.000000 0.000000
vn 1.000000 0.000000 0.000000
vn 0.000000 0.000000 1.000000
vn 0.000000 0.000000 1.000000
vn 0.000000 0.000000 1.000000
vn 0.000000 0.000000 1.000000
vn 0.000000 -1.000000 0.000000
vn 0.000000 -1.000000 0.000000
vn 0.000000 -1.000000 0.000000
vn 0.000000 -1.000000 0.000000
vn 0.000000 0.000000 -1.000000
vn 0.000000 0.000000 -1.000000
vn 0.000000 0.000000 -1.000000
vn 0.000000 0.000000 -1.000000
vn -0.000001 1.000000 0.000000
vn -0.000001 1.000000 0.000000
vn -0.000001 1.000000 0.000000
vn -0.000001 1.000000 0.000000
vn 1.000000 0.000000 0.000000
vn 1.000000 0.000000 0.000000
vn 1.000000 0.000000 0.000000
vn 1.000000 0.000000 0.000000
s off
f 10/23/1 19/55/2 12/22/3 11/21/4
f 13/24/5 14/25/6 10/23/7 11/21/8
f 13/24/9 16/27/10 15/26/11 24/73/12 23/77/13 14/25/14
f 17/28/15 18/29/16 15/26/17 16/27/18
f 7/12/19 4/13/20 6/14/21 20/58/22
f 1/15/23 4/13/24 7/12/25 8/16/26
f 1/15/27 8/16/28 22/80/29 21/76/30 9/17/31 2/18/32
f 3/19/33 2/18/34 9/17/35 5/20/36
f 4/3/37 11/7/38 12/6/39 6/4/40
f 19/56/41 10/38/42 7/9/43 20/57/44
f 1/1/45 13/10/46 11/5/47 4/2/48
f 7/30/49 10/33/50 14/32/51 8/31/52
f 24/74/53 15/42/54 9/41/55 21/75/56
f 2/44/57 16/47/58 13/46/59 1/45/60
f 15/52/61 18/54/62 5/53/63 9/11/64
f 3/34/65 17/37/66 16/36/67 2/35/68
f 5/48/69 18/51/70 17/50/71 3/49/72
f 6/59/73 21/62/74 22/61/75 20/60/76
f 20/69/77 22/72/78 23/71/79 19/70/80
f 19/63/81 23/66/82 24/65/83 12/64/84
f 12/8/85 24/68/86 21/67/87 6/39/88
f 8/40/89 14/43/90 23/78/91 22/79/92
