# This file uses meters as units for non-parametric coordinates.

v -42.797089 0.000000 6.180707
v 42.856094 0.000000 6.180707
v -42.797089 24.919291 6.180707
v 42.856094 24.919291 6.180707
v -42.797089 24.919291 -6.180707
v 42.856094 24.919291 -6.180707
v -42.797089 0.000000 -6.180707
v 42.856094 0.000000 -6.180707
v 42.855835 0.000000 8.246589
v 59.406784 0.000000 8.246589
v 42.855835 35.017998 8.246589
v 61.152390 33.092789 8.246589
v 42.855835 35.017998 -8.246588
v 61.152390 33.092789 -8.246588
v 42.855835 0.000000 -8.246588
v 59.406784 0.000000 -8.246588
v -59.347794 0.000000 8.246589
v -42.796829 0.000000 8.246589
v -61.152145 35.017998 8.246589
v -42.796829 36.398148 8.246589
v -61.152145 35.017998 -8.246588
v -42.796829 36.398148 -8.246588
v -59.347794 0.000000 -8.246588
v -42.796829 0.000000 -8.246588
v 42.856094 27.636169 0.000000
v -42.797089 27.636169 0.000000
v -56.902573 38.239685 4.428045
v -47.046402 38.980766 4.428045
v -47.046402 38.980766 -4.428045
v -56.902573 38.239685 -4.428045
v 47.763062 38.137318 4.315742
v 57.338455 37.129784 4.315742
v 57.338455 37.129784 -4.315750
v 47.763062 38.137318 -4.315750
vt 0.123072 0.105228
vt 0.123072 0.105228
vt 0.123072 0.105228
vt 0.123072 0.105228
vt 0.123072 0.105228
vt 0.123072 0.105228
vt 0.123072 0.105228
vt 0.123072 0.105228
vt 0.123072 0.105228
vt 0.123072 0.105228
vt 0.123072 0.105228
vt 0.123072 0.105228
vt 0.123072 0.105228
vt 0.123072 0.105228
vt 0.123072 0.105228
vt 0.123072 0.105228
vt 0.123072 0.105228
vt 0.123072 0.105228
vt 0.123072 0.105228
vt 0.123072 0.105228
vt 0.123072 0.105228
vt 0.123072 0.105228
vt 0.123072 0.105228
vt 0.123072 0.105228
vt 0.123072 0.105228
vt 0.123072 0.105228
vt 0.123072 0.105228
vt 0.123072 0.105228
vt 0.123072 0.105228
vt 0.123072 0.105228
vt 0.123072 0.105228
vt 0.123072 0.105228
vt 0.123072 0.105228
vt 0.123072 0.105228
vt 0.123072 0.105228
vt 0.123072 0.105228
vt 0.123072 0.105228
vt 0.123072 0.105228
vt 0.123072 0.105228
vt 0.123072 0.105228
vt 0.123072 0.105228
vt 0.123072 0.105228
vt 0.123072 0.105228
vt 0.123072 0.105228
vt 0.123072 0.105228
vt 0.123072 0.105228
vt 0.123072 0.105228
vt 0.123072 0.105228
vn 0.000000 0.000000 1.000000
vn 0.000000 0.000000 1.000000
vn 0.000000 0.000000 1.000000
vn 0.000000 0.000000 1.000000
vn 0.000000 0.915459 0.402412
vn 0.000000 0.915459 0.402412
vn 0.000000 0.915459 0.402412
vn 0.000000 0.915459 0.402412
vn 0.000000 0.000000 -1.000000
vn 0.000000 0.000000 -1.000000
vn 0.000000 0.000000 -1.000000
vn 0.000000 0.000000 -1.000000
vn 0.000000 -1.000000 0.000000
vn 0.000000 -1.000000 0.000000
vn 0.000000 -1.000000 0.000000
vn 0.000000 -1.000000 0.000000
vn 0.000000 0.000000 1.000000
vn 0.000000 0.000000 1.000000
vn 0.000000 0.000000 1.000000
vn 0.000000 0.000000 1.000000
vn 0.104643 0.994510 0.000000
vn 0.104643 0.994510 0.000000
vn 0.104643 0.994510 0.000000
vn 0.104643 0.994510 0.000000
vn 0.000000 0.000000 -1.000000
vn 0.000000 0.000000 -1.000000
vn 0.000000 0.000000 -1.000000
vn 0.000000 0.000000 -1.000000
vn 0.000000 -1.000000 0.000000
vn 0.000000 -1.000000 0.000000
vn 0.000000 -1.000000 0.000000
vn 0.000000 -1.000000 0.000000
vn 0.998612 -0.052676 0.000000
vn 0.998612 -0.052676 0.000000
vn 0.998612 -0.052676 0.000000
vn 0.998612 -0.052676 0.000000
vn -1.000000 0.000000 0.000000
vn -1.000000 0.000000 0.000000
vn -1.000000 0.000000 0.000000
vn -1.000000 0.000000 0.000000
vn 0.000000 0.000000 1.000000
vn 0.000000 0.000000 1.000000
vn 0.000000 0.000000 1.000000
vn 0.000000 0.000000 1.000000
vn -0.074978 0.997185 0.000000
vn -0.074978 0.997185 0.000000
vn -0.074978 0.997185 0.000000
vn -0.074978 0.997185 0.000000
vn 0.000000 0.000000 -1.000000
vn 0.000000 0.000000 -1.000000
vn 0.000000 0.000000 -1.000000
vn 0.000000 0.000000 -1.000000
vn 0.000000 -1.000000 0.000000
vn 0.000000 -1.000000 0.000000
vn 0.000000 -1.000000 0.000000
vn 0.000000 -1.000000 0.000000
vn 1.000000 0.000000 0.000000
vn 1.000000 0.000000 0.000000
vn 1.000000 0.000000 0.000000
vn 1.000000 0.000000 0.000000
vn -0.998675 -0.051458 0.000000
vn -0.998675 -0.051458 0.000000
vn -0.998675 -0.051458 0.000000
vn -0.998675 -0.051458 0.000000
vn 0.000000 0.915459 -0.402412
vn 0.000000 0.915459 -0.402412
vn 0.000000 0.915459 -0.402412
vn 0.000000 0.915459 -0.402412
vn -0.059756 0.794734 0.604010
vn -0.059756 0.794734 0.604010
vn -0.059756 0.794734 0.604010
vn -0.059756 0.794734 0.604010
vn 0.519348 0.854563 0.000000
vn 0.519348 0.854563 0.000000
vn 0.519348 0.854563 0.000000
vn 0.519348 0.854563 0.000000
vn -0.059756 0.794733 -0.604010
vn -0.059756 0.794733 -0.604010
vn -0.059756 0.794733 -0.604010
vn -0.059756 0.794733 -0.604010
vn -0.604134 0.796883 0.000000
vn -0.604134 0.796883 0.000000
vn -0.604134 0.796883 0.000000
vn -0.604134 0.796883 0.000000
vn 0.077018 0.731952 0.676989
vn 0.077018 0.731952 0.676989
vn 0.077018 0.731952 0.676989
vn 0.077018 0.731952 0.676989
vn 0.726904 0.686739 0.000000
vn 0.726904 0.686739 0.000000
vn 0.726904 0.686739 0.000000
vn 0.726904 0.686739 0.000000
vn 0.077017 0.731951 -0.676990
vn 0.077017 0.731951 -0.676990
vn 0.077017 0.731951 -0.676990
vn 0.077017 0.731951 -0.676990
vn -0.536451 0.843931 0.000000
vn -0.536451 0.843931 0.000000
vn -0.536451 0.843931 0.000000
vn -0.536451 0.843931 0.000000
s off
f 1/1/1 2/2/2 4/4/3 3/3/4
f 3/3/5 4/4/6 25/39/7 26/40/8
f 5/5/9 6/6/10 8/8/11 7/7/12
f 7/7/13 8/8/14 2/10/15 1/9/16
f 9/11/17 10/12/18 12/13/19 11/14/20
f 31/45/21 32/46/22 33/47/23 34/48/24
f 13/16/25 14/15/26 16/17/27 15/18/28
f 15/18/29 16/17/30 10/19/31 9/20/32
f 10/12/33 16/21/34 14/22/35 12/13/36
f 15/23/37 9/11/38 11/14/39 13/24/40
f 17/25/41 18/26/42 20/27/43 19/28/44
f 27/41/45 28/42/46 29/43/47 30/44/48
f 21/30/49 22/29/50 24/31/51 23/32/52
f 23/32/53 24/31/54 18/33/55 17/34/56
f 18/26/57 24/35/58 22/36/59 20/27/60
f 23/37/61 17/25/62 19/28/63 21/38/64
f 26/40/65 25/39/66 6/6/67 5/5/68
f 19/28/69 20/27/70 28/42/71 27/41/72
f 20/27/73 22/29/74 29/43/75 28/42/76
f 22/29/77 21/30/78 30/44/79 29/43/80
f 21/30/81 19/28/82 27/41/83 30/44/84
f 11/14/85 12/13/86 32/46/87 31/45/88
f 12/13/89 14/15/90 33/47/91 32/46/92
f 14/15/93 13/16/94 34/48/95 33/47/96
f 13/16/97 11/14/98 31/45/99 34/48/100
