# This file uses meters as units for non-parametric coordinates.

v -31.097717 0.000002 30.660828
v 31.098083 0.000002 30.660828
v -32.368530 50.092308 31.931671
v 32.369202 50.092308 31.931671
v -32.368530 50.092308 -32.805176
v 32.369202 50.092308 -32.805176
v -31.097717 0.000002 -31.534332
v 31.098083 0.000002 -31.534332
v -25.704529 50.092308 25.268036
v 27.551208 50.092308 26.706543
v 25.705139 50.092308 -26.141541
v -26.611389 50.092308 -28.870056
v -21.577026 44.598110 21.140411
v 21.577393 44.598110 21.140411
v 21.577393 44.598110 -22.013885
v -21.577026 44.598110 -22.013885
v 31.098083 37.089588 30.660828
v -31.097717 30.629328 30.660828
v -31.097717 37.089588 -31.534332
v 31.098083 30.629328 -31.534332
v 31.098083 20.665318 9.563232
v 33.785706 20.665318 9.563232
v 31.098083 36.990589 9.563232
v 33.785706 36.990589 9.563232
v 31.098083 36.990589 -11.573792
v 33.785706 36.990589 -11.573792
v 31.098083 20.665318 -11.573792
v 33.785706 20.665318 -11.573792
v 33.785706 23.932983 -8.306152
v 33.785706 23.932983 6.295563
v 33.785706 33.722919 -8.306152
v 33.785706 33.722919 6.295563
v 32.465027 23.932983 -8.306152
v 32.465027 23.932983 6.295563
v 32.465027 33.722919 -8.306152
v 32.465027 33.722919 6.295563
v -12.813660 0.000000 30.660828
v -12.813660 0.000000 34.222534
v -12.813660 32.804066 30.660828
v -12.813660 32.804066 34.222534
v 12.813538 32.804066 30.660828
v 12.813538 32.804066 34.222534
v 12.813538 0.000000 30.660828
v 12.813538 0.000000 34.222534
v 9.545837 0.000002 34.222534
v -9.545959 0.000002 34.222534
v 9.545837 31.044956 34.222534
v -9.545959 31.044956 34.222534
v -19.728149 32.804066 30.660828
v -19.728149 32.804066 34.222534
v -19.458801 37.642918 34.222534
v -19.458801 37.642918 30.660828
v 19.727783 32.804066 30.660828
v 19.727783 32.804066 34.222534
v 19.458435 37.642918 30.660828
v 19.458435 37.642918 34.222534
v 8.627747 0.000002 32.422424
v -8.627869 0.000002 32.422424
v 8.627747 29.631374 32.422424
v -8.627869 29.631374 32.422424
v -31.098206 20.665318 9.563232
v -33.785828 20.665318 9.563232
v -31.098206 36.990589 9.563232
v -33.785828 36.990589 9.563232
v -31.098206 36.990589 -11.573792
v -33.785828 36.990589 -11.573792
v -31.098206 20.665318 -11.573792
v -33.785828 20.665318 -11.573792
v -33.785828 23.932983 -8.306152
v -33.785828 23.932983 6.295563
v -33.785828 33.722919 -8.306152
v -33.785828 33.722919 6.295563
v -32.465149 23.932983 -8.306152
v -32.465149 23.932983 6.295563
v -32.465149 33.722919 -8.306152
v -32.465149 33.722919 6.295563
v 10.000061 20.665318 -31.534912
v 10.000061 20.665318 -34.222504
v 10.000061 36.990589 -31.534912
v 10.000061 36.990589 -34.222504
v -11.137207 36.990589 -31.534912
v -11.137207 36.990589 -34.222504
v -11.137207 20.665318 -31.534912
v -11.137207 20.665318 -34.222504
v -7.869507 23.932983 -34.222504
v 6.732361 23.932983 -34.222504
v -7.869507 33.722919 -34.222504
v 6.732361 33.722919 -34.222504
v -7.869507 23.932983 -32.901855
v 6.732361 23.932983 -32.901855
v -7.869507 33.722919 -32.901855
v 6.732361 33.722919 -32.901855
v 8.627747 0.000002 30.660828
v -8.627869 0.000002 30.660828
vt 0.123403 0.236037
vt 0.123403 0.236037
vt 0.123403 0.236037
vt 0.123403 0.236037
vt 0.123403 0.236037
vt 0.123403 0.236037
vt 0.123403 0.236037
vt 0.123403 0.236037
vt 0.123403 0.236037
vt 0.123403 0.236037
vt 0.123403 0.236037
vt 0.123403 0.236037
vt 0.123403 0.236037
vt 0.123403 0.236037
vt 0.123403 0.236037
vt 0.123403 0.236037
vt 0.123403 0.236037
vt 0.123403 0.236037
vt 0.123403 0.236037
vt 0.123403 0.236037
vt 0.123403 0.236037
vt 0.123403 0.236037
vt 0.447998 0.282864
vt 0.447998 0.282864
vt 0.447998 0.282864
vt 0.447998 0.282864
vt 0.123403 0.236037
vt 0.123403 0.236037
vt 0.123403 0.236037
vt 0.123403 0.236037
vt 0.123403 0.236037
vt 0.123403 0.236037
vt 0.027662 0.740352
vt 0.027662 0.740352
vt 0.027662 0.740352
vt 0.447998 0.282864
vt 0.027662 0.740352
vt 0.027662 0.740352
vt 0.027662 0.740352
vt 0.027662 0.740352
vt 0.142558 0.058911
vt 0.142558 0.058911
vt 0.142558 0.058911
vt 0.142558 0.058911
vt 0.027662 0.740352
vt 0.447998 0.282864
vt 0.027662 0.740352
vt 0.027662 0.740352
vt 0.027662 0.740352
vt 0.447998 0.282864
vt 0.027662 0.740352
vt 0.027662 0.740352
vt 0.008922 0.618056
vt 0.008922 0.618056
vt 0.008922 0.618056
vt 0.008922 0.618056
vt 0.008922 0.618056
vt 0.008922 0.618056
vt 0.008922 0.618056
vt 0.008922 0.618056
vt 0.142558 0.058911
vt 0.142558 0.058911
vt 0.142558 0.058911
vt 0.142558 0.058911
vt 0.008922 0.618056
vt 0.008922 0.618056
vt 0.008922 0.618056
vt 0.008922 0.618056
vt 0.008922 0.618056
vt 0.008922 0.618056
vt 0.008922 0.618056
vt 0.008922 0.618056
vt 0.008922 0.618056
vt 0.008922 0.618056
vt 0.008922 0.618056
vt 0.008922 0.618056
vt 0.008922 0.618056
vt 0.008922 0.618056
vt 0.008922 0.618056
vt 0.008922 0.618056
vt 0.027662 0.740352
vt 0.027662 0.740352
vt 0.027662 0.740352
vt 0.027662 0.740352
vt 0.027662 0.740352
vt 0.447998 0.282864
vt 0.027662 0.740352
vt 0.027662 0.740352
vt 0.142558 0.058911
vt 0.142558 0.058911
vt 0.142558 0.058911
vt 0.142558 0.058911
vt 0.447998 0.282864
vt 0.027662 0.740352
vt 0.027662 0.740352
vt 0.027662 0.740352
vt 0.447998 0.282864
vt 0.027662 0.740352
vt 0.027662 0.740352
vt 0.027662 0.740352
vt 0.027662 0.740352
vt 0.027662 0.740352
vt 0.027662 0.740352
vt 0.447998 0.282864
vt 0.027662 0.740352
vt 0.027662 0.740352
vt 0.027662 0.740352
vt 0.027662 0.740352
vt 0.142558 0.058911
vt 0.142558 0.058911
vt 0.142558 0.058911
vt 0.142558 0.058911
vt 0.027662 0.740352
vt 0.447998 0.282864
vt 0.027662 0.740352
vt 0.027662 0.740352
vt 0.027662 0.740352
vt 0.447998 0.282864
vt 0.027662 0.740352
vt 0.027662 0.740352
vt 0.008922 0.618056
vt 0.008922 0.618056
vt 0.027662 0.740352
vt 0.027662 0.740352
vt 0.027662 0.740352
vt 0.027662 0.740352
vt 0.027662 0.740352
vt 0.027662 0.740352
vt 0.447998 0.282864
vt 0.027662 0.740352
vt 0.027662 0.740352
vt 0.027662 0.740352
vt 0.027662 0.740352
vt 0.027662 0.740352
vt 0.027662 0.740352
vt 0.027662 0.740352
vt 0.027662 0.740352
vt 0.447998 0.282864
vt 0.027662 0.740352
vt 0.447998 0.282864
vt 0.027662 0.740352
vt 0.447998 0.282862
vt 0.027662 0.740352
vt 0.027662 0.740352
vt 0.027662 0.740352
vt 0.027662 0.740352
vt 0.027662 0.740352
vt 0.027662 0.740352
vt 0.027662 0.740352
vt 0.027662 0.740352
vt 0.027662 0.740352
vt 0.027662 0.740352
vt 0.447998 0.282862
vt 0.027662 0.740352
vt 0.447998 0.282862
vt 0.027662 0.740352
vt 0.027662 0.740352
vt 0.027662 0.740352
vt 0.027662 0.740352
vt 0.027662 0.740352
vt 0.027662 0.740352
vt 0.027662 0.740352
vt 0.027662 0.740352
vt 0.027662 0.740352
vt 0.027662 0.740352
vt 0.027662 0.740352
vt 0.447998 0.282862
vt 0.027662 0.740352
vt 0.027662 0.740352
vt 0.027662 0.740352
vt 0.447998 0.282864
vt 0.027662 0.740352
vt 0.027662 0.740352
vt 0.027662 0.740352
vt 0.447998 0.282864
vt 0.027662 0.740352
vt 0.027662 0.740352
vt 0.027662 0.740352
vt 0.027662 0.740352
vt 0.027662 0.740352
vt 0.027662 0.740352
vt 0.027662 0.740352
vt 0.027662 0.740352
vt 0.027662 0.740352
vt 0.027662 0.740352
vt 0.447998 0.282864
vt 0.027662 0.740352
vt 0.027662 0.740352
vt 0.027662 0.740352
vt 0.027662 0.740352
vt 0.027662 0.740352
vt 0.027662 0.740352
vt 0.447998 0.282864
vt 0.027662 0.740352
vt 0.027662 0.740352
vt 0.027662 0.740352
vt 0.027662 0.740352
vt 0.027662 0.740352
vt 0.027662 0.740352
vt 0.027662 0.740352
vt 0.027662 0.740352
vt 0.447998 0.282864
vt 0.027662 0.740352
vt 0.447998 0.282864
vt 0.027662 0.740352
vt 0.447998 0.282864
vt 0.027662 0.740352
vt 0.027662 0.740352
vt 0.027662 0.740352
vt 0.027662 0.740352
vt 0.027662 0.740352
vt 0.027662 0.740352
vt 0.027662 0.740352
vt 0.027662 0.740352
vt 0.027662 0.740352
vt 0.027662 0.740352
vt 0.447998 0.282864
vt 0.027662 0.740352
vt 0.447998 0.282862
vt 0.447998 0.282862
vt 0.447998 0.282862
vt 0.447998 0.282862
vt 0.447998 0.282864
vt 0.447998 0.282864
vt 0.447998 0.282864
vt 0.447998 0.282864
vt 0.447998 0.282862
vt 0.447998 0.282862
vt 0.447998 0.282862
vt 0.447998 0.282862
vn 0.000000 0.000000 1.000000
vn 0.000000 0.000000 1.000000
vn 0.000000 0.000000 1.000000
vn 0.000000 0.000000 1.000000
vn 0.000000 1.000000 0.000000
vn 0.000000 1.000000 0.000000
vn 0.000000 1.000000 0.000000
vn 0.000000 1.000000 0.000000
vn 0.000000 0.000000 -1.000000
vn 0.000000 0.000000 -1.000000
vn 0.000000 0.000000 -1.000000
vn 0.000000 0.000000 -1.000000
vn 0.000000 -1.000000 0.000000
vn 0.000000 -1.000000 0.000000
vn 0.000000 -1.000000 0.000000
vn 0.000000 -1.000000 0.000000
vn 1.000000 0.000000 0.000000
vn 1.000000 0.000000 0.000000
vn 1.000000 0.000000 0.000000
vn 1.000000 0.000000 0.000000
vn -1.000000 0.000000 0.000000
vn -1.000000 0.000000 0.000000
vn -1.000000 0.000000 0.000000
vn -1.000000 0.000000 0.000000
vn 0.000000 1.000000 0.000000
vn 0.000000 1.000000 0.000000
vn 0.000000 1.000000 0.000000
vn 0.000000 1.000000 0.000000
vn 0.000000 1.000000 0.000000
vn 0.000000 1.000000 0.000000
vn 0.000000 1.000000 0.000000
vn 0.000000 1.000000 0.000000
vn 0.000000 1.000000 0.000000
vn 0.000000 1.000000 0.000000
vn 0.000000 1.000000 0.000000
vn 0.000000 1.000000 0.000000
vn 0.000000 1.000000 0.000000
vn 0.000000 1.000000 0.000000
vn 0.000000 1.000000 0.000000
vn 0.000000 1.000000 0.000000
vn 0.011202 0.660449 -0.750787
vn 0.011202 0.660449 -0.750787
vn 0.011202 0.660449 -0.750787
vn 0.011202 0.660449 -0.750787
vn -0.737040 0.675701 0.014173
vn -0.737040 0.675701 0.014173
vn -0.737040 0.675701 0.014173
vn -0.737040 0.675701 0.014173
vn -0.020233 0.705979 0.707944
vn -0.020233 0.705979 0.707944
vn -0.020233 0.705979 0.707944
vn -0.020233 0.705979 0.707944
vn 0.768908 0.639319 -0.007167
vn 0.768908 0.639319 -0.007167
vn 0.768908 0.639319 -0.007167
vn 0.768908 0.639319 -0.007167
vn 0.003972 -0.078050 0.996942
vn 0.003972 -0.078050 0.996942
vn 0.003972 -0.078050 0.996942
vn 0.003972 -0.078050 0.996942
vn -0.996942 -0.078046 -0.003972
vn -0.996942 -0.078046 -0.003972
vn -0.996942 -0.078046 -0.003972
vn -0.996942 -0.078046 -0.003972
vn -0.003972 -0.078050 -0.996942
vn -0.003972 -0.078050 -0.996942
vn -0.003972 -0.078050 -0.996942
vn -0.003972 -0.078050 -0.996942
vn 0.996941 -0.078062 0.003973
vn 0.996941 -0.078062 0.003973
vn 0.996941 -0.078062 0.003973
vn 0.996941 -0.078062 0.003973
vn 0.000000 0.000000 1.000000
vn 0.000000 0.000000 1.000000
vn 0.000000 0.000000 1.000000
vn 0.000000 0.000000 1.000000
vn 0.000000 1.000000 0.000000
vn 0.000000 1.000000 0.000000
vn 0.000000 1.000000 0.000000
vn 0.000000 1.000000 0.000000
vn 0.000000 0.000000 -1.000000
vn 0.000000 0.000000 -1.000000
vn 0.000000 0.000000 -1.000000
vn 0.000000 0.000000 -1.000000
vn 0.000000 -1.000000 0.000000
vn 0.000000 -1.000000 0.000000
vn 0.000000 -1.000000 0.000000
vn 0.000000 -1.000000 0.000000
vn 1.000000 0.000000 0.000000
vn 1.000000 0.000000 0.000000
vn 1.000000 0.000000 0.000000
vn 1.000000 0.000000 0.000000
vn 1.000000 0.000000 0.000000
vn 1.000000 0.000000 0.000000
vn 1.000000 0.000000 0.000000
vn 1.000000 0.000000 0.000000
vn 1.000000 0.000000 0.000000
vn 1.000000 0.000000 0.000000
vn 1.000000 0.000000 0.000000
vn 1.000000 0.000000 0.000000
vn 1.000000 -0.000001 0.000000
vn 1.000000 -0.000001 0.000000
vn 1.000000 -0.000001 0.000000
vn 1.000000 -0.000001 0.000000
vn 1.000000 0.000000 0.000000
vn 1.000000 0.000000 0.000000
vn 1.000000 0.000000 0.000000
vn 1.000000 0.000000 0.000000
vn 0.000000 1.000000 0.000000
vn 0.000000 1.000000 0.000000
vn 0.000000 1.000000 0.000000
vn 0.000000 1.000000 0.000000
vn 0.000000 0.000000 1.000000
vn 0.000000 0.000000 1.000000
vn 0.000000 0.000000 1.000000
vn 0.000000 0.000000 1.000000
vn 0.000000 -1.000000 0.000000
vn 0.000000 -1.000000 0.000000
vn 0.000000 -1.000000 0.000000
vn 0.000000 -1.000000 0.000000
vn 0.000000 0.000000 -1.000000
vn 0.000000 0.000000 -1.000000
vn 0.000000 0.000000 -1.000000
vn 0.000000 0.000000 -1.000000
vn -1.000000 0.000000 0.000000
vn -1.000000 0.000000 0.000000
vn -1.000000 0.000000 0.000000
vn -1.000000 0.000000 0.000000
vn 1.000000 0.000000 0.000000
vn 1.000000 0.000000 0.000000
vn 1.000000 0.000000 0.000000
vn 1.000000 0.000000 0.000000
vn 0.000000 0.000000 1.000000
vn 0.000000 0.000000 1.000000
vn 0.000000 0.000000 1.000000
vn 0.000000 0.000000 1.000000
vn -0.000001 0.000000 1.000000
vn -0.000001 0.000000 1.000000
vn -0.000001 0.000000 1.000000
vn -0.000001 0.000000 1.000000
vn 0.000000 0.000000 1.000000
vn 0.000000 0.000000 1.000000
vn 0.000000 0.000000 1.000000
vn 0.000000 0.000000 1.000000
vn -0.000000 0.000000 1.000000
vn -0.000000 0.000000 1.000000
vn -0.000000 0.000000 1.000000
vn -0.000000 0.000000 1.000000
vn -0.998455 0.055572 0.000000
vn -0.998455 0.055572 0.000000
vn -0.998455 0.055572 0.000000
vn -0.998455 0.055572 0.000000
vn 0.998455 0.055572 0.000000
vn 0.998455 0.055572 0.000000
vn 0.998455 0.055572 0.000000
vn 0.998455 0.055572 0.000000
vn 0.000000 -1.000000 0.000000
vn 0.000000 -1.000000 0.000000
vn 0.000000 -1.000000 0.000000
vn 0.000000 -1.000000 0.000000
vn 0.000000 0.000000 1.000000
vn 0.000000 0.000000 1.000000
vn 0.000000 0.000000 1.000000
vn 0.000000 0.000000 1.000000
vn 0.000000 0.000000 1.000000
vn 0.000000 0.000000 1.000000
vn 0.000000 0.000000 1.000000
vn 0.000000 0.000000 1.000000
vn 0.000000 0.000000 1.000000
vn 0.000000 0.000000 1.000000
vn 0.000000 0.000000 1.000000
vn 0.000000 0.000000 1.000000
vn 0.000000 -1.000000 0.000000
vn 0.000000 -1.000000 0.000000
vn 0.000000 -1.000000 0.000000
vn 0.000000 -1.000000 0.000000
vn 0.000000 1.000000 0.000000
vn 0.000000 1.000000 0.000000
vn 0.000000 1.000000 0.000000
vn 0.000000 1.000000 0.000000
vn -0.890832 0.000000 0.454333
vn -0.890832 0.000000 0.454333
vn -0.890832 0.000000 0.454333
vn -0.890832 0.000000 0.454333
vn 0.000000 -0.786487 0.617607
vn 0.000000 -0.786487 0.617607
vn 0.000000 -0.786487 0.617607
vn 0.000000 -0.786487 0.617607
vn 0.890832 0.000000 0.454333
vn 0.890832 0.000000 0.454333
vn 0.890832 0.000000 0.454333
vn 0.890832 0.000000 0.454333
vn 0.000000 0.000000 1.000000
vn 0.000000 0.000000 1.000000
vn 0.000000 0.000000 1.000000
vn 0.000000 0.000000 1.000000
vn 0.000000 1.000000 0.000000
vn 0.000000 1.000000 0.000000
vn 0.000000 1.000000 0.000000
vn 0.000000 1.000000 0.000000
vn 0.000000 0.000000 -1.000000
vn 0.000000 0.000000 -1.000000
vn 0.000000 0.000000 -1.000000
vn 0.000000 0.000000 -1.000000
vn 0.000000 -1.000000 0.000000
vn 0.000000 -1.000000 0.000000
vn 0.000000 -1.000000 0.000000
vn 0.000000 -1.000000 0.000000
vn -1.000000 0.000000 0.000000
vn -1.000000 0.000000 0.000000
vn -1.000000 0.000000 0.000000
vn -1.000000 0.000000 0.000000
vn -1.000000 0.000000 0.000000
vn -1.000000 0.000000 0.000000
vn -1.000000 0.000000 0.000000
vn -1.000000 0.000000 0.000000
vn -1.000000 0.000000 0.000000
vn -1.000000 0.000000 0.000000
vn -1.000000 0.000000 0.000000
vn -1.000000 0.000000 0.000000
vn -1.000000 0.000000 0.000000
vn -1.000000 0.000000 0.000000
vn -1.000000 0.000000 0.000000
vn -1.000000 0.000000 0.000000
vn -1.000000 0.000000 0.000000
vn -1.000000 0.000000 0.000000
vn -1.000000 0.000000 0.000000
vn -1.000000 0.000000 0.000000
vn 0.000000 1.000000 0.000000
vn 0.000000 1.000000 0.000000
vn 0.000000 1.000000 0.000000
vn 0.000000 1.000000 0.000000
vn 0.000000 0.000000 1.000000
vn 0.000000 0.000000 1.000000
vn 0.000000 0.000000 1.000000
vn 0.000000 0.000000 1.000000
vn 0.000000 -1.000000 0.000000
vn 0.000000 -1.000000 0.000000
vn 0.000000 -1.000000 0.000000
vn 0.000000 -1.000000 0.000000
vn 0.000000 0.000000 -1.000000
vn 0.000000 0.000000 -1.000000
vn 0.000000 0.000000 -1.000000
vn 0.000000 0.000000 -1.000000
vn 1.000000 0.000000 0.000000
vn 1.000000 0.000000 0.000000
vn 1.000000 0.000000 0.000000
vn 1.000000 0.000000 0.000000
vn 0.000000 1.000000 0.000000
vn 0.000000 1.000000 0.000000
vn 0.000000 1.000000 0.000000
vn 0.000000 1.000000 0.000000
vn -1.000000 0.000000 0.000000
vn -1.000000 0.000000 0.000000
vn -1.000000 0.000000 0.000000
vn -1.000000 0.000000 0.000000
vn 0.000000 -1.000000 0.000000
vn 0.000000 -1.000000 0.000000
vn 0.000000 -1.000000 0.000000
vn 0.000000 -1.000000 0.000000
vn 0.000000 0.000000 -1.000000
vn 0.000000 0.000000 -1.000000
vn 0.000000 0.000000 -1.000000
vn 0.000000 0.000000 -1.000000
vn 0.000000 0.000000 -1.000000
vn 0.000000 0.000000 -1.000000
vn 0.000000 0.000000 -1.000000
vn 0.000000 0.000000 -1.000000
vn -0.000001 0.000000 -1.000000
vn -0.000001 0.000000 -1.000000
vn -0.000001 0.000000 -1.000000
vn -0.000001 0.000000 -1.000000
vn 0.000000 0.000000 -1.000000
vn 0.000000 0.000000 -1.000000
vn 0.000000 0.000000 -1.000000
vn 0.000000 0.000000 -1.000000
vn 0.000000 0.000000 -1.000000
vn 0.000000 0.000000 -1.000000
vn 0.000000 0.000000 -1.000000
vn 0.000000 0.000000 -1.000000
vn 0.000000 1.000000 0.000000
vn 0.000000 1.000000 0.000000
vn 0.000000 1.000000 0.000000
vn 0.000000 1.000000 0.000000
vn 1.000000 0.000000 0.000000
vn 1.000000 0.000000 0.000000
vn 1.000000 0.000000 0.000000
vn 1.000000 0.000000 0.000000
vn 0.000000 -1.000000 0.000000
vn 0.000000 -1.000000 0.000000
vn 0.000000 -1.000000 0.000000
vn 0.000000 -1.000000 0.000000
vn -1.000000 0.000000 0.000000
vn -1.000000 0.000000 0.000000
vn -1.000000 0.000000 0.000000
vn -1.000000 0.000000 0.000000
vn 0.000000 -1.000000 0.000000
vn 0.000000 -1.000000 0.000000
vn 0.000000 -1.000000 0.000000
vn 0.000000 -1.000000 0.000000
vn -0.000000 -1.000000 0.000000
vn -0.000000 -1.000000 0.000000
vn -0.000000 -1.000000 0.000000
vn -0.000000 -1.000000 0.000000
vn -0.000001 -1.000000 0.000000
vn -0.000001 -1.000000 0.000000
vn -0.000001 -1.000000 0.000000
vn 0.000000 -1.000000 0.000000
vn 0.000000 -1.000000 0.000000
vn 0.000000 -1.000000 0.000000
vn 0.000000 -1.000000 0.000000
vn 0.000001 -1.000000 0.000000
vn 0.000001 -1.000000 0.000000
vn 0.000001 -1.000000 0.000000
s off
f 1/1/1 2/2/2 17/27/3 18/28/4
f 13/23/5 14/24/6 15/25/7 16/26/8
f 19/30/9 20/31/10 8/8/11 7/7/12
f 7/7/13 8/8/14 2/10/15 1/9/16
f 2/2/17 8/11/18 20/32/19 17/27/20
f 7/13/21 1/1/22 18/28/23 19/29/24
f 3/36/25 4/46/26 10/50/27 9/86/28
f 4/46/29 6/93/30 11/97/31 10/50/32
f 6/93/33 5/104/34 12/114/35 11/97/36
f 5/104/37 3/36/38 9/86/39 12/114/40
f 9/15/41 10/16/42 14/20/43 13/19/44
f 10/16/45 11/17/46 15/21/47 14/20/48
f 11/17/49 12/18/50 16/22/51 15/21/52
f 12/18/53 9/15/54 13/19/55 16/22/56
f 18/28/57 17/27/58 4/4/59 3/3/60
f 19/29/61 18/28/62 3/3/63 5/14/64
f 5/5/65 6/6/66 20/31/67 19/30/68
f 17/27/69 20/32/70 6/12/71 4/4/72
f 21/33/73 22/210/74 24/203/75 23/218/76
f 23/118/77 24/129/78 26/138/79 25/140/80
f 25/38/81 26/207/82 28/212/83 27/215/84
f 27/40/85 28/213/86 22/209/87 21/216/88
f 34/41/89 33/42/90 35/43/91 36/44/92
f 22/34/93 28/214/94 29/201/95 30/197/96
f 28/39/97 26/208/98 31/195/99 29/200/100
f 26/37/101 24/205/102 32/191/103 31/194/104
f 24/35/105 22/211/106 30/198/107 32/190/108
f 30/142/109 29/153/110 33/155/111 34/167/112
f 29/45/113 31/196/114 35/189/115 33/49/116
f 31/47/117 32/192/118 36/188/119 35/51/120
f 32/48/121 30/199/122 34/187/123 36/52/124
f 37/53/125 38/54/126 40/55/127 39/56/128
f 41/57/129 42/58/130 44/59/131 43/60/132
f 58/61/133 57/62/134 59/63/135 60/64/136
f 44/59/137 42/58/138 47/65/139 45/66/140
f 42/58/141 40/55/142 48/67/143 47/65/144
f 40/55/145 38/54/146 46/68/147 48/67/148
f 49/69/149 50/70/150 51/71/151 52/72/152
f 54/73/153 53/74/154 55/75/155 56/76/156
f 39/56/157 40/55/158 50/70/159 49/69/160
f 51/71/161 50/70/162 56/76/163
f 50/70/164 40/55/165 56/76/166
f 54/73/167 56/76/168 42/58/169
f 40/55/170 42/58/171 56/76/172
f 42/58/173 41/57/174 53/74/175 54/73/176
f 51/171/177 56/175/178 55/186/179 52/193/180
f 45/66/181 47/65/182 59/77/183 57/78/184
f 47/65/185 48/67/186 60/79/187 59/77/188
f 48/67/189 46/68/190 58/80/191 60/79/192
f 61/184/193 63/84/194 64/172/195 62/177/196
f 63/202/197 65/204/198 66/206/199 64/217/200
f 65/185/201 67/88/202 68/181/203 66/174/204
f 67/183/205 61/81/206 62/178/207 68/180/208
f 74/89/209 76/92/210 75/91/211 73/90/212
f 62/179/213 70/166/214 69/168/215 68/87/216
f 68/182/217 69/169/218 71/162/219 66/85/220
f 66/176/221 71/163/222 72/158/223 64/83/224
f 64/173/225 72/159/226 70/165/227 62/82/228
f 70/219/229 74/220/230 73/221/231 69/222/232
f 69/170/233 73/161/234 75/99/235 71/95/236
f 71/164/237 75/157/238 76/100/239 72/96/240
f 72/160/241 76/156/242 74/98/243 70/94/244
f 77/101/245 78/146/246 80/139/247 79/154/248
f 79/223/249 80/224/250 82/225/251 81/226/252
f 81/106/253 82/143/254 84/148/255 83/151/256
f 83/108/257 84/149/258 78/145/259 77/152/260
f 90/109/261 89/110/262 91/111/263 92/112/264
f 78/102/265 84/150/266 85/137/267 86/133/268
f 84/107/269 82/144/270 87/131/271 85/136/272
f 82/105/273 80/141/274 88/127/275 87/130/276
f 80/103/277 78/147/278 86/134/279 88/126/280
f 86/227/281 85/228/282 89/229/283 90/230/284
f 85/113/285 87/132/286 91/125/287 89/117/288
f 87/115/289 88/128/290 92/124/291 91/119/292
f 88/116/293 86/135/294 90/123/295 92/120/296
f 57/78/297 58/80/298 94/121/299 93/122/300
f 57/78/301 93/122/302 43/60/303 44/59/304
f 57/78/305 44/59/306 45/66/307
f 94/121/308 58/80/309 38/54/310 37/53/311
f 58/80/312 46/68/313 38/54/314
