# This file uses meters as units for non-parametric coordinates.

v 21.243469 0.000000 -35.473083
v -21.243408 0.000000 -35.473083
v -35.473145 0.000000 -21.243408
v -35.473145 0.000000 21.243439
v -21.243408 0.000000 35.473236
v 21.243469 0.000000 35.473236
v 35.473145 0.000000 21.243439
v 35.473145 0.000000 -21.243408
v 21.243469 87.643684 -35.473083
v -21.243408 87.643684 -35.473083
v -35.473145 87.643684 -21.243408
v -35.473145 87.643684 21.243439
v -21.243408 87.643684 35.473236
v 21.243469 87.643684 35.473236
v 35.473145 87.643684 21.243439
v 35.473145 87.643684 -21.243408
v -0.000061 0.000000 0.000000
v -0.000061 87.643684 0.000000
v -21.243408 12.074296 35.473236
v -35.473145 12.074296 21.243439
v -35.473145 12.074296 -21.243408
v -21.243408 12.074296 -35.473083
v 21.243469 12.074296 -35.473083
v 35.473145 12.074296 -21.243408
v 35.473145 12.074296 21.243439
v 21.243469 12.074296 35.473236
v -21.243408 75.569534 35.473236
v -35.473145 75.569534 21.243439
v -35.473145 75.569534 -21.243408
v -21.243408 75.569534 -35.473083
v 21.243469 75.569534 -35.473083
v 35.473145 75.569534 -21.243408
v 35.473145 75.569534 21.243439
v 21.243469 75.569534 35.473236
v 20.434204 70.642342 33.519623
v -20.434326 70.642342 33.519623
v -33.519531 70.642342 20.434250
v -33.519531 70.642342 -20.434158
v -20.434326 70.642342 -33.519531
v 20.434204 70.642342 -33.519562
v 33.519470 70.642342 -20.434189
v 33.519470 70.642342 20.434250
v 20.434204 17.001453 33.519623
v -20.434326 17.001453 33.519623
v -33.519531 17.001453 20.434250
v -33.519531 17.001453 -20.434158
v -20.434326 17.001453 -33.519531
v 20.434204 17.001453 -33.519562
v 33.519470 17.001453 -20.434189
v 33.519470 17.001453 20.434250
vt 0.181580 0.198382
vt 0.181567 0.198249
vt 0.181567 0.196799
vt 0.181580 0.196933
vt 0.181564 0.198003
vt 0.181564 0.196554
vt 0.181567 0.197404
vt 0.181567 0.195955
vt 0.181572 0.197248
vt 0.181572 0.195799
vt 0.181584 0.197382
vt 0.181584 0.195933
vt 0.181587 0.197628
vt 0.181587 0.196178
vt 0.181585 0.198227
vt 0.181585 0.196777
vt 0.181576 0.197815
vt 0.181580 0.187862
vt 0.181567 0.187728
vt 0.447205 0.280235
vt 0.181564 0.187483
vt 0.181567 0.186884
vt 0.181572 0.186728
vt 0.181584 0.186862
vt 0.181587 0.187108
vt 0.181585 0.187707
vt 0.179669 0.648134
vt 0.179543 0.648206
vt 0.179529 0.647759
vt 0.179666 0.647680
vt 0.179513 0.648335
vt 0.179496 0.647899
vt 0.179597 0.648445
vt 0.179587 0.648018
vt 0.179745 0.648471
vt 0.179748 0.648046
vt 0.179871 0.648398
vt 0.179885 0.647967
vt 0.179901 0.648269
vt 0.179918 0.647827
vt 0.179817 0.648160
vt 0.179827 0.647708
vt 0.181567 0.188333
vt 0.181572 0.188178
vt 0.181564 0.188932
vt 0.181567 0.189178
vt 0.181580 0.189312
vt 0.181585 0.189156
vt 0.181587 0.188557
vt 0.181584 0.188311
vt 0.179666 0.653338
vt 0.179669 0.652914
vt 0.179817 0.652940
vt 0.179827 0.653367
vt 0.179529 0.653417
vt 0.179543 0.652987
vt 0.179496 0.653558
vt 0.179513 0.653116
vt 0.179587 0.653677
vt 0.179597 0.653225
vt 0.179748 0.653705
vt 0.179745 0.653251
vt 0.179885 0.653626
vt 0.179871 0.653178
vt 0.179918 0.653486
vt 0.179901 0.653049
vt 0.181568 0.193169
vt 0.181568 0.193167
vt 0.181566 0.193167
vt 0.181566 0.193169
vt 0.181570 0.193169
vt 0.181570 0.193167
vt 0.181571 0.193169
vt 0.181571 0.193167
vt 0.181573 0.193169
vt 0.181573 0.193167
vt 0.181575 0.193169
vt 0.181575 0.193167
vt 0.181562 0.193169
vt 0.181562 0.193167
vt 0.181560 0.193167
vt 0.181560 0.193169
vt 0.181564 0.193169
vt 0.181564 0.193167
vt 0.447144 0.280235
vt 0.447205 0.280235
vt 0.447144 0.280235
vt 0.447144 0.280235
vt 0.447144 0.280235
vt 0.447205 0.280235
vt 0.447205 0.280235
vt 0.447205 0.280235
vn 0.000000 0.000000 -1.000000
vn 0.000000 0.000000 -1.000000
vn 0.000000 0.000000 -1.000000
vn 0.000000 0.000000 -1.000000
vn -0.707108 0.000000 -0.707106
vn -0.707108 0.000000 -0.707106
vn -0.707108 0.000000 -0.707106
vn -0.707108 0.000000 -0.707106
vn -1.000000 0.000000 0.000000
vn -1.000000 0.000000 0.000000
vn -1.000000 0.000000 0.000000
vn -1.000000 0.000000 0.000000
vn -0.707108 0.000000 0.707106
vn -0.707108 0.000000 0.707106
vn -0.707108 0.000000 0.707106
vn -0.707108 0.000000 0.707106
vn 0.000000 0.000000 1.000000
vn 0.000000 0.000000 1.000000
vn 0.000000 0.000000 1.000000
vn 0.000000 0.000000 1.000000
vn 0.707108 0.000000 0.707106
vn 0.707108 0.000000 0.707106
vn 0.707108 0.000000 0.707106
vn 0.707108 0.000000 0.707106
vn 1.000000 0.000000 0.000000
vn 1.000000 0.000000 0.000000
vn 1.000000 0.000000 0.000000
vn 1.000000 0.000000 0.000000
vn 0.707108 0.000000 -0.707106
vn 0.707108 0.000000 -0.707106
vn 0.707108 0.000000 -0.707106
vn 0.707108 0.000000 -0.707106
vn 0.000000 -1.000000 0.000000
vn 0.000000 -1.000000 0.000000
vn 0.000000 -1.000000 0.000000
vn 0.000000 -1.000000 0.000000
vn 0.000000 -1.000000 0.000000
vn 0.000000 -1.000000 0.000000
vn 0.000000 -1.000000 -0.000000
vn 0.000000 -1.000000 0.000000
vn 0.000000 -1.000000 0.000000
vn 0.000000 -1.000000 -0.000000
vn 0.000000 -1.000000 -0.000000
vn 0.000000 -1.000000 0.000000
vn 0.000000 -1.000000 0.000000
vn 0.000000 -1.000000 -0.000000
vn 0.000000 -1.000000 0.000000
vn 0.000000 -1.000000 0.000000
vn 0.000000 -1.000000 0.000000
vn 0.000000 -1.000000 0.000000
vn 0.000000 -1.000000 0.000000
vn 0.000000 -1.000000 0.000000
vn 0.000000 -1.000000 0.000000
vn 0.000000 -1.000000 0.000000
vn 0.000000 -1.000000 0.000000
vn 0.000000 -1.000000 0.000000
vn 0.000000 1.000000 0.000000
vn 0.000000 1.000000 0.000000
vn 0.000000 1.000000 0.000000
vn 0.000000 1.000000 0.000000
vn 0.000000 1.000000 0.000000
vn 0.000000 1.000000 0.000000
vn 0.000000 1.000000 0.000000
vn 0.000000 1.000000 0.000000
vn 0.000000 1.000000 0.000000
vn 0.000000 1.000000 0.000000
vn 0.000000 1.000000 0.000000
vn 0.000000 1.000000 0.000000
vn 0.000000 1.000000 0.000000
vn 0.000000 1.000000 0.000000
vn 0.000000 1.000000 0.000000
vn 0.000000 1.000000 0.000000
vn 0.000000 1.000000 0.000000
vn 0.000000 1.000000 0.000000
vn 0.000000 1.000000 0.000000
vn 0.000000 1.000000 0.000000
vn 0.000000 1.000000 0.000000
vn 0.000000 1.000000 0.000000
vn 0.000000 1.000000 0.000000
vn 0.000000 1.000000 0.000000
vn -0.657327 0.368576 0.657323
vn -0.657327 0.368576 0.657323
vn -0.657327 0.368576 0.657323
vn -0.657327 0.368576 0.657323
vn -0.929596 0.368581 0.000000
vn -0.929596 0.368581 0.000000
vn -0.929596 0.368581 0.000000
vn -0.929596 0.368581 0.000000
vn -0.657327 0.368577 -0.657323
vn -0.657327 0.368577 -0.657323
vn -0.657327 0.368577 -0.657323
vn -0.657327 0.368577 -0.657323
vn 0.000000 0.368579 -0.929596
vn 0.000000 0.368579 -0.929596
vn 0.000000 0.368579 -0.929596
vn 0.000000 0.368579 -0.929596
vn 0.657327 0.368576 -0.657323
vn 0.657327 0.368576 -0.657323
vn 0.657327 0.368576 -0.657323
vn 0.657327 0.368576 -0.657323
vn 0.929596 0.368579 0.000000
vn 0.929596 0.368579 0.000000
vn 0.929596 0.368579 0.000000
vn 0.929596 0.368579 0.000000
vn 0.657327 0.368577 0.657323
vn 0.657327 0.368576 0.657323
vn 0.657327 0.368577 0.657323
vn 0.657327 0.368577 0.657323
vn 0.000000 0.368579 0.929596
vn 0.000000 0.368579 0.929596
vn 0.000000 0.368579 0.929596
vn 0.000000 0.368579 0.929596
vn -0.707108 0.000000 0.707106
vn -0.707108 0.000000 0.707106
vn -0.707108 0.000000 0.707106
vn -0.707108 0.000000 0.707106
vn -1.000000 0.000000 0.000000
vn -1.000000 0.000000 0.000000
vn -1.000000 0.000000 0.000000
vn -1.000000 0.000000 0.000000
vn -0.707108 0.000000 -0.707106
vn -0.707108 0.000000 -0.707106
vn -0.707108 0.000000 -0.707106
vn -0.707108 0.000000 -0.707106
vn 0.000000 0.000000 -1.000000
vn 0.000000 0.000000 -1.000000
vn 0.000000 0.000000 -1.000000
vn 0.000000 0.000000 -1.000000
vn 0.707108 0.000000 -0.707106
vn 0.707108 0.000000 -0.707106
vn 0.707108 0.000000 -0.707106
vn 0.707108 0.000000 -0.707106
vn 1.000000 0.000000 0.000000
vn 1.000000 0.000000 0.000000
vn 1.000000 0.000000 0.000000
vn 1.000000 0.000000 0.000000
vn 0.707108 0.000000 0.707106
vn 0.707108 0.000000 0.707106
vn 0.707108 0.000000 0.707106
vn 0.707108 0.000000 0.707106
vn 0.000000 0.000000 1.000000
vn 0.000000 0.000000 1.000000
vn 0.000000 0.000000 1.000000
vn 0.000000 0.000000 1.000000
vn 0.000000 -0.368579 0.929596
vn 0.000000 -0.368579 0.929596
vn 0.000000 -0.368579 0.929596
vn 0.000000 -0.368579 0.929596
vn -0.657327 -0.368576 0.657323
vn -0.657327 -0.368576 0.657323
vn -0.657327 -0.368576 0.657323
vn -0.657327 -0.368576 0.657323
vn -0.929596 -0.368581 0.000000
vn -0.929596 -0.368581 0.000000
vn -0.929596 -0.368581 0.000000
vn -0.929596 -0.368581 0.000000
vn -0.657327 -0.368577 -0.657323
vn -0.657327 -0.368577 -0.657323
vn -0.657327 -0.368577 -0.657323
vn -0.657327 -0.368577 -0.657323
vn 0.000000 -0.368579 -0.929596
vn 0.000000 -0.368579 -0.929596
vn 0.000000 -0.368579 -0.929596
vn 0.000000 -0.368579 -0.929596
vn 0.657327 -0.368576 -0.657323
vn 0.657327 -0.368576 -0.657323
vn 0.657327 -0.368576 -0.657323
vn 0.657327 -0.368576 -0.657323
vn 0.929596 -0.368579 0.000000
vn 0.929596 -0.368579 0.000000
vn 0.929596 -0.368579 0.000000
vn 0.929596 -0.368579 0.000000
vn 0.657327 -0.368577 0.657323
vn 0.657327 -0.368577 0.657323
vn 0.657327 -0.368577 0.657323
vn 0.657327 -0.368577 0.657323
vn 0.000000 0.000000 1.000000
vn 0.000000 0.000000 1.000000
vn 0.000000 0.000000 1.000000
vn 0.000000 0.000000 1.000000
vn -0.707110 0.000000 0.707104
vn -0.707110 0.000000 0.707104
vn -0.707110 0.000000 0.707104
vn -0.707110 0.000000 0.707104
vn -1.000000 0.000000 0.000000
vn -1.000000 0.000000 0.000000
vn -1.000000 0.000000 0.000000
vn -1.000000 0.000000 0.000000
vn -0.707110 0.000000 -0.707104
vn -0.707110 0.000000 -0.707104
vn -0.707110 0.000000 -0.707104
vn -0.707110 0.000000 -0.707104
vn -0.000000 0.000000 -1.000000
vn -0.000000 0.000000 -1.000000
vn -0.000000 0.000000 -1.000000
vn -0.000000 0.000000 -1.000000
vn 0.707110 0.000000 -0.707104
vn 0.707110 0.000000 -0.707104
vn 0.707110 0.000000 -0.707104
vn 0.707110 0.000000 -0.707104
vn 1.000000 0.000000 0.000000
vn 1.000000 0.000000 0.000000
vn 1.000000 0.000000 0.000000
vn 1.000000 0.000000 0.000000
vn 0.707110 0.000000 0.707104
vn 0.707110 0.000000 0.707104
vn 0.707110 0.000000 0.707104
vn 0.707110 0.000000 0.707104
s off
f 1/1/1 2/2/2 22/3/3 23/4/4
f 2/2/5 3/5/6 21/6/7 22/3/8
f 3/5/9 4/7/10 20/8/11 21/6/12
f 4/7/13 5/9/14 19/10/15 20/8/16
f 5/9/17 6/11/18 26/12/19 19/10/20
f 6/11/21 7/13/22 25/14/23 26/12/24
f 7/13/25 8/15/26 24/16/27 25/14/28
f 8/15/29 1/1/30 23/4/31 24/16/32
f 2/2/33 1/1/34 17/17/35
f 3/5/36 2/2/37 17/17/38
f 4/7/39 3/5/40 17/17/41
f 5/9/42 4/7/43 17/17/44
f 6/11/45 5/9/46 17/17/47
f 7/13/48 6/11/49 17/17/50
f 8/15/51 7/13/52 17/17/53
f 1/1/54 8/15/55 17/17/56
f 9/20/57 10/85/58 18/86/59
f 10/85/60 11/87/61 18/86/62
f 11/87/63 12/88/64 18/86/65
f 12/88/66 13/89/67 18/86/68
f 13/89/69 14/90/70 18/86/71
f 14/90/72 15/91/73 18/86/74
f 15/91/75 16/92/76 18/86/77
f 16/92/78 9/20/79 18/86/80
f 44/27/81 45/28/82 20/29/83 19/30/84
f 45/28/85 46/31/86 21/32/87 20/29/88
f 46/31/89 47/33/90 22/34/91 21/32/92
f 47/33/93 48/35/94 23/36/95 22/34/96
f 48/35/97 49/37/98 24/38/99 23/36/100
f 49/37/101 50/39/102 25/40/103 24/38/104
f 50/39/105 43/41/106 26/42/107 25/40/108
f 43/41/109 44/27/110 19/30/111 26/42/112
f 28/43/113 27/44/114 13/23/115 12/22/116
f 29/45/117 28/43/118 12/22/119 11/21/120
f 30/46/121 29/45/122 11/21/123 10/19/124
f 31/47/125 30/46/126 10/19/127 9/18/128
f 32/48/129 31/47/130 9/18/131 16/26/132
f 33/49/133 32/48/134 16/26/135 15/25/136
f 34/50/137 33/49/138 15/25/139 14/24/140
f 27/44/141 34/50/142 14/24/143 13/23/144
f 27/51/145 36/52/146 35/53/147 34/54/148
f 28/55/149 37/56/150 36/52/151 27/51/152
f 29/57/153 38/58/154 37/56/155 28/55/156
f 30/59/157 39/60/158 38/58/159 29/57/160
f 31/61/161 40/62/162 39/60/163 30/59/164
f 32/63/165 41/64/166 40/62/167 31/61/168
f 33/65/169 42/66/170 41/64/171 32/63/172
f 34/54/173 35/53/174 42/66/175 33/65/176
f 36/67/177 44/68/178 43/69/179 35/70/180
f 37/71/181 45/72/182 44/68/183 36/67/184
f 38/73/185 46/74/186 45/72/187 37/71/188
f 39/75/189 47/76/190 46/74/191 38/73/192
f 40/77/193 48/78/194 47/76/195 39/75/196
f 41/79/197 49/80/198 48/81/199 40/82/200
f 42/83/201 50/84/202 49/80/203 41/79/204
f 35/70/205 43/69/206 50/84/207 42/83/208
