# This file uses meters as units for non-parametric coordinates.

v -42.797180 0.000000 6.180695
v 42.856018 0.000000 6.180695
v -42.797180 24.919291 6.180695
v 42.856018 24.919291 6.180695
v -42.797180 24.919291 -6.180695
v 42.856018 24.919291 -6.180695
v -42.797180 0.000000 -6.180695
v 42.856018 0.000000 -6.180695
v 42.855774 0.000000 8.246582
v 59.406738 0.000000 8.246582
v 42.855774 35.017998 8.246582
v 61.152344 33.092789 8.246582
v 42.855774 35.017998 -8.246582
v 61.152344 33.092789 -8.246582
v 42.855774 0.000000 -8.246582
v 59.406738 0.000000 -8.246582
v -59.347839 0.000000 8.246582
v -42.796875 0.000000 8.246582
v -61.152222 35.017998 8.246582
v -42.796875 36.398148 8.246582
v -61.152222 35.017998 -8.246582
v -42.796875 36.398148 -8.246582
v -59.347839 0.000000 -8.246582
v -42.796875 0.000000 -8.246582
v 42.856018 27.636169 0.000000
v -42.797180 27.636169 0.000000
v -56.902649 38.239685 4.428040
v -47.046448 38.980766 4.428040
v -47.046448 38.980766 -4.428040
v -56.902649 38.239685 -4.428040
v 47.763000 38.137318 4.315735
v 57.338379 37.129784 4.315735
v 57.338379 37.129784 -4.315735
v 47.763000 38.137318 -4.315735
vt 0.123072 0.105228
vt 0.123072 0.105228
vt 0.123072 0.105228
vt 0.123072 0.105228
vt 0.123072 0.105228
vt 0.123072 0.105228
vt 0.123072 0.105228
vt 0.123072 0.105228
vt 0.123072 0.105228
vt 0.123072 0.105228
vt 0.123072 0.105228
vt 0.123072 0.105228
vt 0.123072 0.105228
vt 0.123072 0.105228
vt 0.123072 0.105228
vt 0.123072 0.105228
vt 0.123072 0.105228
vt 0.123072 0.105228
vt 0.123072 0.105228
vt 0.123072 0.105228
vt 0.123072 0.105228
vt 0.123072 0.105228
vt 0.123072 0.105228
vt 0.123072 0.105228
vt 0.123072 0.105228
vt 0.123072 0.105228
vt 0.123072 0.105228
vt 0.123072 0.105228
vt 0.123072 0.105228
vt 0.123072 0.105228
vt 0.123072 0.105228
vt 0.123072 0.105228
vt 0.123072 0.105228
vt 0.123072 0.105228
vt 0.123072 0.105228
vt 0.123072 0.105228
vt 0.123072 0.105228
vt 0.123072 0.105228
vt 0.443176 0.290888
vt 0.443176 0.290888
vt 0.443176 0.290888
vt 0.443176 0.290888
vt 0.443176 0.290890
vt 0.443176 0.290890
vt 0.443176 0.290890
vt 0.443176 0.290890
vt 0.443176 0.290890
vt 0.443176 0.290890
vt 0.443176 0.290890
vt 0.443176 0.290890
vt 0.443176 0.290888
vt 0.443176 0.290888
vt 0.443176 0.290890
vt 0.443176 0.290890
vt 0.443176 0.290890
vt 0.443176 0.290890
vt 0.443176 0.290890
vt 0.443176 0.290890
vt 0.443176 0.290890
vt 0.443176 0.290890
vn 0.000000 0.000000 1.000000
vn 0.000000 0.000000 1.000000
vn 0.000000 0.000000 1.000000
vn 0.000000 0.000000 1.000000
vn 0.000000 0.915459 0.402412
vn 0.000000 0.915459 0.402412
vn 0.000000 0.915459 0.402412
vn 0.000000 0.915459 0.402412
vn 0.000000 0.000000 -1.000000
vn 0.000000 0.000000 -1.000000
vn 0.000000 0.000000 -1.000000
vn 0.000000 0.000000 -1.000000
vn 0.000000 -1.000000 0.000000
vn 0.000000 -1.000000 0.000000
vn 0.000000 -1.000000 0.000000
vn 0.000000 -1.000000 0.000000
vn 0.000000 0.000000 1.000000
vn 0.000000 0.000000 1.000000
vn 0.000000 0.000000 1.000000
vn 0.000000 0.000000 1.000000
vn 0.104643 0.994510 0.000000
vn 0.104643 0.994510 0.000000
vn 0.104643 0.994510 0.000000
vn 0.104643 0.994510 0.000000
vn 0.000000 0.000000 -1.000000
vn 0.000000 0.000000 -1.000000
vn 0.000000 0.000000 -1.000000
vn 0.000000 0.000000 -1.000000
vn 0.000000 -1.000000 0.000000
vn 0.000000 -1.000000 0.000000
vn 0.000000 -1.000000 0.000000
vn 0.000000 -1.000000 0.000000
vn 0.998612 -0.052676 0.000000
vn 0.998612 -0.052676 0.000000
vn 0.998612 -0.052676 0.000000
vn 0.998612 -0.052676 0.000000
vn -1.000000 0.000000 0.000000
vn -1.000000 0.000000 0.000000
vn -1.000000 0.000000 0.000000
vn -1.000000 0.000000 0.000000
vn 0.000000 0.000000 1.000000
vn 0.000000 0.000000 1.000000
vn 0.000000 0.000000 1.000000
vn 0.000000 0.000000 1.000000
vn -0.074978 0.997185 0.000000
vn -0.074978 0.997185 0.000000
vn -0.074978 0.997185 0.000000
vn -0.074978 0.997185 0.000000
vn 0.000000 0.000000 -1.000000
vn 0.000000 0.000000 -1.000000
vn 0.000000 0.000000 -1.000000
vn 0.000000 0.000000 -1.000000
vn 0.000000 -1.000000 0.000000
vn 0.000000 -1.000000 0.000000
vn 0.000000 -1.000000 0.000000
vn 0.000000 -1.000000 0.000000
vn 1.000000 0.000000 0.000000
vn 1.000000 0.000000 0.000000
vn 1.000000 0.000000 0.000000
vn 1.000000 0.000000 0.000000
vn -0.998675 -0.051458 0.000000
vn -0.998675 -0.051458 0.000000
vn -0.998675 -0.051458 0.000000
vn -0.998675 -0.051458 0.000000
vn 0.000000 0.915459 -0.402412
vn 0.000000 0.915459 -0.402412
vn 0.000000 0.915459 -0.402412
vn 0.000000 0.915459 -0.402412
vn -0.059756 0.794734 0.604010
vn -0.059756 0.794734 0.604010
vn -0.059756 0.794734 0.604010
vn -0.059756 0.794734 0.604010
vn 0.519348 0.854563 0.000000
vn 0.519348 0.854563 0.000000
vn 0.519348 0.854563 0.000000
vn 0.519348 0.854563 0.000000
vn -0.059756 0.794733 -0.604010
vn -0.059756 0.794733 -0.604010
vn -0.059756 0.794733 -0.604010
vn -0.059756 0.794733 -0.604010
vn -0.604134 0.796883 0.000000
vn -0.604134 0.796883 0.000000
vn -0.604134 0.796883 0.000000
vn -0.604134 0.796883 0.000000
vn 0.077018 0.731952 0.676989
vn 0.077018 0.731952 0.676989
vn 0.077018 0.731952 0.676989
vn 0.077018 0.731952 0.676989
vn 0.726904 0.686739 0.000000
vn 0.726904 0.686739 0.000000
vn 0.726904 0.686739 0.000000
vn 0.726904 0.686739 0.000000
vn 0.077017 0.731951 -0.676990
vn 0.077017 0.731951 -0.676990
vn 0.077017 0.731951 -0.676990
vn 0.077017 0.731951 -0.676990
vn -0.536451 0.843931 0.000000
vn -0.536451 0.843931 0.000000
vn -0.536452 0.843931 0.000000
vn -0.536452 0.843931 0.000000
s off
f 1/1/1 2/2/2 4/4/3 3/3/4
f 3/39/5 4/40/6 25/41/7 26/42/8
f 5/5/9 6/6/10 8/8/11 7/7/12
f 7/7/13 8/8/14 2/10/15 1/9/16
f 9/11/17 10/12/18 12/13/19 11/14/20
f 31/43/21 32/44/22 33/45/23 34/46/24
f 13/16/25 14/15/26 16/17/27 15/18/28
f 15/18/29 16/17/30 10/19/31 9/20/32
f 10/12/33 16/21/34 14/22/35 12/13/36
f 15/23/37 9/11/38 11/14/39 13/24/40
f 17/25/41 18/26/42 20/27/43 19/28/44
f 27/47/45 28/48/46 29/49/47 30/50/48
f 21/30/49 22/29/50 24/31/51 23/32/52
f 23/32/53 24/31/54 18/33/55 17/34/56
f 18/26/57 24/35/58 22/36/59 20/27/60
f 23/37/61 17/25/62 19/28/63 21/38/64
f 26/42/65 25/41/66 6/51/67 5/52/68
f 19/53/69 20/54/70 28/48/71 27/47/72
f 20/54/73 22/55/74 29/49/75 28/48/76
f 22/55/77 21/56/78 30/50/79 29/49/80
f 21/56/81 19/53/82 27/47/83 30/50/84
f 11/57/85 12/58/86 32/44/87 31/43/88
f 12/58/89 14/59/90 33/45/91 32/44/92
f 14/59/93 13/60/94 34/46/95 33/45/96
f 13/60/97 11/57/98 31/43/99 34/46/100
