# This file uses meters as units for non-parametric coordinates.

v 75.971069 0.000000 -75.972351
v -0.000275 0.000000 -107.440857
v -75.972382 0.000000 -75.972351
v -107.441498 0.000000 -0.000214
v -75.972382 0.000000 75.971954
v -0.000275 0.000000 107.440857
v 75.971069 0.000000 75.971954
v 107.441162 0.000000 -0.000214
v 64.473053 65.157944 -64.473694
v -0.000275 65.157944 -91.179504
v -64.474243 65.157944 -64.473694
v -91.179810 65.157944 -0.000214
v -64.474243 65.157944 64.473358
v -0.000275 65.157944 91.178986
v 64.473053 65.157944 64.473358
v 91.178619 65.157944 -0.000214
v -0.000275 0.000000 -0.000214
v 55.954834 65.157944 -55.955444
v -0.000275 65.157944 -79.133118
v -55.955811 65.157944 -55.955444
v -79.133270 65.157944 -0.000214
v -55.955811 65.157944 55.955170
v -0.000275 65.157944 79.132477
v 55.954834 65.157944 55.955170
v 79.132431 65.157944 -0.000214
v 51.284241 57.311424 -51.284760
v -0.000275 57.311424 -72.527771
v -0.000275 57.311424 -0.000214
v -51.285339 57.311424 -51.284760
v -72.527985 57.311424 -0.000214
v -51.285339 57.311424 51.284515
v -0.000275 57.311424 72.527283
v 51.284241 57.311424 51.284515
v 72.526901 57.311424 -0.000214
v -0.000275 52.296524 91.267670
v -64.536804 52.296524 64.535980
v -91.268707 52.296524 -0.000214
v -64.536804 52.296524 -64.536316
v -0.000275 52.296524 -91.268127
v 64.535751 52.296524 -64.536316
v 91.267487 52.296524 -0.000214
v 64.535751 52.296524 64.535980
vt 0.161048 0.147034
vt 0.161048 0.147034
vt 0.161048 0.147034
vt 0.161048 0.147034
vt 0.161048 0.147034
vt 0.161048 0.147034
vt 0.161048 0.147034
vt 0.161048 0.147034
vt 0.161048 0.147034
vt 0.161048 0.147034
vt 0.161048 0.147034
vt 0.161048 0.147034
vt 0.161048 0.147034
vt 0.161048 0.147034
vt 0.161048 0.147034
vt 0.161048 0.147034
vt 0.161048 0.147034
vt 0.159158 0.612829
vt 0.159158 0.612829
vt 0.159158 0.612829
vt 0.159158 0.612829
vt 0.159158 0.612829
vt 0.159158 0.612829
vt 0.159158 0.612829
vt 0.159158 0.612829
vt 0.159158 0.612829
vt 0.452820 0.284466
vt 0.452820 0.284466
vt 0.452820 0.284466
vt 0.452820 0.284466
vt 0.452820 0.284466
vt 0.452820 0.284466
vt 0.452820 0.284466
vt 0.452820 0.284466
vt 0.161048 0.147034
vt 0.452835 0.284466
vt 0.159158 0.612829
vt 0.159158 0.612829
vt 0.159158 0.612829
vt 0.159158 0.612829
vt 0.159158 0.612829
vt 0.159158 0.612829
vt 0.159158 0.612829
vt 0.159158 0.612829
vt 0.452835 0.284470
vt 0.159158 0.612829
vt 0.159158 0.612829
vt 0.159158 0.612829
vt 0.159158 0.612829
vt 0.159158 0.612829
vt 0.159158 0.612829
vt 0.159158 0.612829
vt 0.161048 0.147034
vt 0.159158 0.612829
vt 0.159158 0.612829
vt 0.159158 0.612829
vt 0.159158 0.612829
vt 0.159158 0.612829
vt 0.159158 0.612829
vt 0.159158 0.612829
vt 0.159158 0.612829
vt 0.159158 0.612829
vt 0.161048 0.147034
vt 0.159158 0.612829
vt 0.159158 0.612829
vt 0.159158 0.612829
vt 0.161048 0.147034
vt 0.452820 0.284470
vt 0.159158 0.612829
vt 0.161048 0.147034
vt 0.161048 0.147034
vt 0.452820 0.284470
vt 0.159158 0.612829
vt 0.159158 0.612829
vt 0.161048 0.147034
vt 0.452820 0.284470
vt 0.159158 0.612829
vt 0.161048 0.147034
vt 0.452820 0.284470
vt 0.159158 0.612829
vt 0.159158 0.612829
vt 0.161048 0.147034
vt 0.452820 0.284470
vt 0.159158 0.612829
vt 0.159158 0.612829
vt 0.161048 0.147034
vt 0.452820 0.284470
vt 0.159158 0.612829
vt 0.452820 0.284470
vt 0.159158 0.612829
vt 0.452820 0.284470
vt 0.159158 0.612829
vt 0.159158 0.612829
vt 0.452820 0.284470
vt 0.159158 0.612829
vt 0.159158 0.612829
vt 0.159158 0.612829
vt 0.452820 0.284470
vt 0.452820 0.284470
vt 0.452835 0.284470
vt 0.159158 0.612829
vt 0.159158 0.612829
vt 0.452820 0.284470
vt 0.452835 0.284470
vt 0.452835 0.284470
vt 0.159158 0.612829
vt 0.159158 0.612829
vt 0.159158 0.612829
vt 0.159158 0.612829
vt 0.159158 0.612829
vt 0.159158 0.612829
vt 0.159158 0.612829
vt 0.159158 0.612829
vt 0.159158 0.612829
vt 0.159158 0.612829
vt 0.159158 0.612829
vn 0.367961 0.274718 -0.888333
vn 0.367961 0.274718 -0.888333
vn 0.367961 0.274718 -0.888333
vn 0.367961 0.274718 -0.888333
vn -0.367958 0.274719 -0.888334
vn -0.367958 0.274719 -0.888334
vn -0.367958 0.274719 -0.888334
vn -0.367958 0.274719 -0.888334
vn -0.888332 0.274716 -0.367963
vn -0.888332 0.274716 -0.367963
vn -0.888332 0.274716 -0.367963
vn -0.888332 0.274716 -0.367963
vn -0.888332 0.274716 0.367963
vn -0.888333 0.274716 0.367963
vn -0.888332 0.274716 0.367963
vn -0.888332 0.274716 0.367963
vn -0.367959 0.274721 0.888332
vn -0.367959 0.274721 0.888332
vn -0.367959 0.274721 0.888332
vn -0.367959 0.274721 0.888332
vn 0.367962 0.274720 0.888331
vn 0.367962 0.274720 0.888331
vn 0.367962 0.274720 0.888331
vn 0.367962 0.274720 0.888331
vn 0.888329 0.274721 0.367967
vn 0.888329 0.274721 0.367967
vn 0.888329 0.274721 0.367967
vn 0.888329 0.274721 0.367967
vn 0.888329 0.274721 -0.367967
vn 0.888329 0.274721 -0.367967
vn 0.888329 0.274721 -0.367967
vn 0.888329 0.274721 -0.367967
vn 0.000000 -1.000000 0.000000
vn 0.000000 -1.000000 0.000000
vn 0.000000 -1.000000 0.000000
vn 0.000000 -1.000000 0.000000
vn 0.000000 -1.000000 0.000000
vn 0.000000 -1.000000 0.000000
vn 0.000000 -1.000000 0.000000
vn 0.000000 -1.000000 0.000000
vn 0.000000 -1.000000 0.000000
vn 0.000000 -1.000000 0.000000
vn 0.000000 -1.000000 0.000000
vn 0.000000 -1.000000 0.000000
vn 0.000000 -1.000000 0.000000
vn 0.000000 -1.000000 0.000000
vn 0.000000 -1.000000 0.000000
vn 0.000000 -1.000000 0.000000
vn 0.000000 -1.000000 0.000000
vn 0.000000 -1.000000 0.000000
vn 0.000000 -1.000000 0.000000
vn 0.000000 -1.000000 0.000000
vn 0.000000 -1.000000 0.000000
vn 0.000000 -1.000000 0.000000
vn 0.000000 -1.000000 0.000000
vn 0.000000 -1.000000 0.000000
vn 0.000000 1.000000 0.000000
vn 0.000000 1.000000 0.000000
vn 0.000000 1.000000 0.000000
vn 0.000000 1.000000 0.000000
vn 0.000000 1.000000 0.000000
vn 0.000000 1.000000 0.000000
vn 0.000000 1.000000 0.000000
vn 0.000000 1.000000 0.000000
vn 0.000000 1.000000 0.000000
vn 0.000000 1.000000 0.000000
vn 0.000000 1.000000 0.000000
vn 0.000000 1.000000 0.000000
vn 0.000000 1.000000 0.000000
vn 0.000000 1.000000 0.000000
vn 0.000000 1.000000 0.000000
vn 0.000000 1.000000 0.000000
vn 0.000000 1.000000 0.000000
vn 0.000000 1.000000 0.000000
vn 0.000000 1.000000 0.000000
vn 0.000000 1.000000 0.000000
vn 0.000000 1.000000 0.000000
vn 0.000000 1.000000 0.000000
vn 0.000000 1.000000 0.000000
vn 0.000000 1.000000 0.000000
vn 0.000000 1.000000 -0.000000
vn 0.000000 1.000000 -0.000000
vn 0.000000 1.000000 -0.000000
vn 0.000000 1.000000 -0.000000
vn 0.000000 1.000000 0.000000
vn 0.000000 1.000000 0.000000
vn 0.000000 1.000000 0.000000
vn 0.000000 1.000000 0.000000
vn 0.000000 1.000000 0.000000
vn 0.000000 1.000000 0.000000
vn 0.000000 1.000000 0.000000
vn 0.000000 1.000000 0.000000
vn 0.000000 1.000000 -0.000000
vn 0.000000 1.000000 -0.000000
vn 0.000000 1.000000 -0.000000
vn 0.000000 1.000000 -0.000000
vn 0.000000 1.000000 0.000000
vn 0.000000 1.000000 0.000000
vn 0.000000 1.000000 0.000000
vn 0.000000 1.000000 0.000000
vn 0.000000 1.000000 0.000000
vn 0.000000 1.000000 0.000000
vn 0.000000 1.000000 0.000000
vn 0.000000 1.000000 0.000000
vn 0.000000 1.000000 0.000000
vn 0.000000 1.000000 0.000000
vn 0.000000 1.000000 0.000000
vn 0.000000 1.000000 0.000000
vn 0.000000 1.000000 -0.000000
vn 0.000000 1.000000 -0.000000
vn 0.000000 1.000000 -0.000000
vn 0.000000 1.000000 -0.000000
vn -0.302082 0.613918 0.729282
vn -0.302082 0.613918 0.729282
vn -0.302082 0.613918 0.729282
vn -0.302082 0.613918 0.729282
vn 0.302080 0.613916 0.729283
vn 0.302080 0.613916 0.729283
vn 0.302080 0.613916 0.729283
vn 0.302080 0.613916 0.729284
vn 0.729286 0.613913 0.302080
vn 0.729286 0.613913 0.302080
vn 0.729286 0.613913 0.302080
vn 0.729286 0.613913 0.302080
vn 0.729287 0.613913 -0.302079
vn 0.729287 0.613913 -0.302079
vn 0.729287 0.613913 -0.302079
vn 0.729287 0.613913 -0.302079
vn 0.302078 0.613914 -0.729286
vn 0.302078 0.613914 -0.729286
vn 0.302078 0.613914 -0.729286
vn 0.302078 0.613914 -0.729286
vn -0.302079 0.613915 -0.729285
vn -0.302079 0.613915 -0.729285
vn -0.302079 0.613915 -0.729285
vn -0.302079 0.613915 -0.729285
vn -0.729279 0.613923 -0.302077
vn -0.729279 0.613923 -0.302077
vn -0.729279 0.613923 -0.302077
vn -0.729279 0.613923 -0.302077
vn -0.729278 0.613924 0.302078
vn -0.729278 0.613924 0.302077
vn -0.729278 0.613924 0.302078
vn -0.729278 0.613924 0.302077
vn -0.382672 0.006365 0.923862
vn -0.382672 0.006365 0.923862
vn -0.382672 0.006365 0.923862
vn -0.382672 0.006365 0.923862
vn -0.923861 0.006371 0.382675
vn -0.923861 0.006371 0.382675
vn -0.923861 0.006371 0.382675
vn -0.923861 0.006371 0.382675
vn -0.923861 0.006371 -0.382675
vn -0.923861 0.006371 -0.382675
vn -0.923861 0.006371 -0.382675
vn -0.923861 0.006371 -0.382675
vn -0.382674 0.006360 -0.923862
vn -0.382674 0.006360 -0.923862
vn -0.382674 0.006360 -0.923862
vn -0.382674 0.006360 -0.923862
vn 0.382677 0.006362 -0.923860
vn 0.382677 0.006362 -0.923860
vn 0.382677 0.006362 -0.923860
vn 0.382677 0.006362 -0.923860
vn 0.923861 0.006376 -0.382674
vn 0.923861 0.006376 -0.382674
vn 0.923861 0.006376 -0.382674
vn 0.923861 0.006376 -0.382674
vn 0.923862 0.006376 0.382674
vn 0.923861 0.006376 0.382674
vn 0.923861 0.006376 0.382674
vn 0.923862 0.006376 0.382674
vn 0.382675 0.006367 0.923861
vn 0.382675 0.006367 0.923861
vn 0.382675 0.006367 0.923861
vn 0.382675 0.006367 0.923861
s off
f 1/9/1 2/10/2 39/75/3 40/70/4
f 2/10/5 3/11/6 38/78/7 39/75/8
f 3/11/9 4/12/10 37/82/11 38/78/12
f 4/12/13 5/13/14 36/86/15 37/82/16
f 5/13/17 6/14/18 35/53/19 36/86/20
f 6/14/21 7/15/22 42/63/23 35/53/24
f 7/15/25 8/16/26 41/67/27 42/63/28
f 8/16/29 1/17/30 40/71/31 41/67/32
f 2/2/33 1/1/34 17/35/35
f 3/3/36 2/2/37 17/35/38
f 4/4/39 3/3/40 17/35/41
f 5/5/42 4/4/43 17/35/44
f 6/6/45 5/5/46 17/35/47
f 7/7/48 6/6/49 17/35/50
f 8/8/51 7/7/52 17/35/53
f 1/1/54 8/8/55 17/35/56
f 26/27/57 27/28/58 28/29/59
f 27/28/60 29/30/61 28/29/62
f 29/30/63 30/31/64 28/29/65
f 30/31/66 31/32/67 28/29/68
f 31/32/69 32/33/70 28/29/71
f 32/33/72 33/34/73 28/29/74
f 33/34/75 34/36/76 28/29/77
f 34/36/78 26/27/79 28/29/80
f 9/45/81 10/68/82 19/72/83 18/76/84
f 10/68/85 11/79/86 20/83/87 19/72/88
f 11/79/89 12/87/90 21/89/91 20/83/92
f 12/87/93 13/91/94 22/94/95 21/89/96
f 13/91/97 14/98/98 23/99/99 22/94/100
f 14/98/101 15/100/102 24/103/103 23/99/104
f 15/100/105 16/104/106 25/105/107 24/103/108
f 16/104/109 9/45/110 18/76/111 25/105/112
f 18/37/113 19/109/114 27/113/115 26/95/116
f 19/38/117 20/110/118 29/115/119 27/46/120
f 20/39/121 21/114/122 30/112/123 29/47/124
f 21/40/125 22/116/126 31/107/127 30/48/128
f 22/41/129 23/111/130 32/102/131 31/49/132
f 23/42/133 24/106/134 33/97/135 32/50/136
f 24/43/137 25/101/138 34/93/139 33/51/140
f 25/44/141 18/108/142 26/96/143 34/52/144
f 36/85/145 35/64/146 14/23/147 13/90/148
f 37/81/149 36/54/150 13/22/151 12/88/152
f 38/77/153 37/55/154 12/21/155 11/84/156
f 39/74/157 38/56/158 11/20/159 10/80/160
f 40/59/161 39/57/162 10/19/163 9/18/164
f 41/66/165 40/58/166 9/26/167 16/73/168
f 42/62/169 41/60/170 16/25/171 15/69/172
f 35/65/173 42/61/174 15/24/175 14/92/176
