# This file uses meters as units for non-parametric coordinates.

v -12.506234 0.000000 54.351086
v -21.302546 0.000000 49.869133
v -28.283342 0.000000 56.849937
v -23.801394 0.000000 65.646240
v -14.050603 0.000000 64.101852
v -12.506234 56.822765 54.351086
v -21.302546 56.822765 49.869133
v -28.283342 56.822765 56.849937
v -23.801394 56.822765 65.646240
v -14.050603 56.822765 64.101852
v -19.988821 0.000000 58.163639
v -19.988821 60.372555 58.163639
v 22.480536 0.000000 50.743824
v 13.091403 0.000000 53.794537
v 13.091403 0.000000 63.666882
v 22.480536 0.000000 66.717613
v 28.283361 0.000000 58.730698
v 22.480536 56.822765 50.743824
v 13.091403 56.822765 53.794537
v 13.091403 56.822765 63.666882
v 22.480536 56.822765 66.717613
v 28.283361 56.822765 58.730698
v 19.885456 0.000000 58.730698
v 19.885456 60.372555 58.730698
v -19.421738 41.511299 58.730698
v 20.687403 41.511299 58.730698
v -19.421738 47.877399 58.730698
v 20.687403 47.877399 58.730698
v -19.421738 47.877399 -66.717598
v 20.687403 47.877399 -66.717598
v -19.421738 41.511299 -66.717598
v 20.687403 41.511299 -66.717598
v -19.421738 41.511299 -3.993450
v -19.421738 47.877399 -3.993450
v 20.687403 47.877399 -3.993450
v 20.687403 41.511299 -3.993450
v 20.687403 47.877399 -35.355522
v -19.421738 47.877399 -35.355522
v -19.421738 41.511299 -35.355522
v 20.687403 41.511299 -35.355522
v -19.421738 41.511299 27.368622
v -19.421738 47.877399 27.368622
v 20.687403 47.877399 27.368622
v 20.687403 41.511299 27.368622
v 20.687403 47.877399 -51.036556
v -19.421738 47.877399 -51.036556
v -19.421738 41.511299 -51.036556
v 20.687403 41.511299 -51.036556
v -19.421738 41.511299 -19.674484
v -19.421738 47.877399 -19.674484
v 20.687403 47.877399 -19.674484
v 20.687403 41.511299 -19.674484
v 20.687403 47.877399 11.687587
v -19.421738 47.877399 11.687587
v -19.421738 41.511299 11.687587
v 20.687403 41.511299 11.687587
v -19.421738 41.511299 43.049660
v -19.421738 47.877399 43.049660
v 20.687403 47.877399 43.049660
v 20.687403 41.511299 43.049660
v 25.179327 47.877399 -20.072826
v 25.179327 41.511299 -20.072826
v 25.179327 41.511299 -34.957161
v 25.179327 47.877399 -34.957161
v 25.179327 47.877399 26.970243
v 25.179327 41.511299 26.970243
v 25.179327 41.511299 12.085944
v 25.179327 47.877399 12.085944
v -23.913677 47.877399 -50.638199
v -23.913677 41.511299 -50.638199
v -23.913677 41.511299 -35.753895
v -23.913677 47.877399 -35.753895
v -23.913677 41.511299 27.766983
v -23.913677 47.877399 27.766983
v -23.913677 41.511299 42.651299
v -23.913677 47.877399 42.651299
v 25.179327 41.511299 -51.434929
v 25.179327 47.877399 -51.434929
v 25.179327 41.511299 -66.319252
v 25.179327 47.877399 -66.319252
v -23.913677 41.511299 -19.276127
v -23.913677 47.877399 -19.276127
v -23.913677 41.511299 -4.391805
v -23.913677 47.877399 -4.391805
vt 0.065152 0.135278
vt 0.065152 0.135278
vt 0.065152 0.135278
vt 0.065152 0.135278
vt 0.065152 0.135278
vt 0.065152 0.135278
vt 0.065152 0.135278
vt 0.065152 0.135278
vt 0.065152 0.135278
vt 0.065152 0.135278
vt 0.065152 0.135278
vt 0.065152 0.135278
vt 0.065152 0.135278
vt 0.065152 0.135278
vt 0.065152 0.135278
vt 0.065152 0.135278
vt 0.065152 0.135278
vt 0.065152 0.135278
vt 0.065153 0.233040
vt 0.065153 0.233040
vt 0.065153 0.233040
vt 0.065153 0.233040
vt 0.065153 0.233040
vt 0.065153 0.233040
vt 0.065152 0.135278
vt 0.065152 0.135278
vt 0.065152 0.135278
vt 0.065152 0.135278
vt 0.065152 0.135278
vt 0.065152 0.135278
vt 0.065152 0.135278
vt 0.065152 0.135278
vt 0.065152 0.135278
vt 0.065152 0.135278
vt 0.065152 0.135278
vt 0.065152 0.135278
vt 0.065152 0.135278
vt 0.065152 0.135278
vt 0.065152 0.135278
vt 0.065152 0.135278
vt 0.065152 0.135278
vt 0.065152 0.135278
vt 0.065153 0.233040
vt 0.065153 0.233040
vt 0.065153 0.233040
vt 0.065153 0.233040
vt 0.065153 0.233040
vt 0.065153 0.233040
vt 0.065153 0.233040
vt 0.065153 0.233040
vt 0.065153 0.233040
vt 0.065153 0.233040
vt 0.065153 0.233040
vt 0.065153 0.233040
vt 0.065153 0.233040
vt 0.065153 0.233040
vt 0.065153 0.233040
vt 0.065153 0.233040
vt 0.065153 0.233040
vt 0.065153 0.233040
vt 0.065153 0.233040
vt 0.065153 0.233040
vt 0.065153 0.233040
vt 0.065153 0.233040
vt 0.065153 0.233040
vt 0.065153 0.233040
vt 0.065153 0.150303
vt 0.065153 0.150303
vt 0.065153 0.150303
vt 0.065153 0.150303
vt 0.065153 0.195291
vt 0.065153 0.195291
vt 0.065153 0.195291
vt 0.065153 0.195291
vt 0.065153 0.196083
vt 0.065153 0.196083
vt 0.065153 0.196083
vt 0.065153 0.196083
vt 0.065153 0.195291
vt 0.065153 0.195291
vt 0.065153 0.195291
vt 0.065153 0.195291
vt 0.065153 0.195291
vt 0.065153 0.195291
vt 0.065153 0.195291
vt 0.065153 0.195291
vt 0.065153 0.195291
vt 0.065153 0.195291
vt 0.065153 0.195291
vt 0.065153 0.195291
vt 0.065153 0.165110
vt 0.065153 0.165110
vt 0.065153 0.165110
vt 0.065153 0.165110
vt 0.065153 0.165110
vt 0.065153 0.165110
vt 0.065153 0.165110
vt 0.065153 0.165110
vt 0.065153 0.165110
vt 0.065153 0.165110
vt 0.065153 0.165110
vt 0.065153 0.165110
vt 0.065153 0.165110
vt 0.065153 0.165110
vt 0.065153 0.165110
vt 0.065153 0.165110
vt 0.065153 0.149959
vt 0.065153 0.149959
vt 0.065153 0.149959
vt 0.065153 0.149959
vt 0.065153 0.149959
vt 0.065153 0.149959
vt 0.065153 0.149959
vt 0.065153 0.149959
vt 0.065153 0.149959
vt 0.065153 0.149959
vt 0.065153 0.149959
vt 0.065153 0.149959
vt 0.065153 0.149959
vt 0.065153 0.149959
vt 0.065153 0.149959
vt 0.065153 0.149959
vt 0.065153 0.191828
vt 0.065153 0.191828
vt 0.065153 0.191828
vt 0.065153 0.191828
vt 0.065153 0.191828
vt 0.065153 0.191828
vt 0.065153 0.191828
vt 0.065153 0.191828
vt 0.065153 0.191828
vt 0.065153 0.191828
vt 0.065153 0.191828
vt 0.065153 0.191828
vt 0.065153 0.191828
vt 0.065153 0.191828
vt 0.065153 0.191828
vt 0.065153 0.191828
vt 0.065153 0.196083
vt 0.065153 0.196083
vt 0.065153 0.196083
vt 0.065153 0.196083
vt 0.065153 0.196083
vt 0.065153 0.196083
vt 0.065153 0.196083
vt 0.065153 0.196083
vt 0.065153 0.196083
vt 0.065153 0.196083
vt 0.065153 0.196083
vt 0.065153 0.196083
vt 0.065153 0.165285
vt 0.065153 0.165285
vt 0.065153 0.165285
vt 0.065153 0.165285
vt 0.065153 0.165285
vt 0.065153 0.165285
vt 0.065153 0.165285
vt 0.065153 0.165285
vt 0.065153 0.165285
vt 0.065153 0.165285
vt 0.065153 0.165285
vt 0.065153 0.165285
vt 0.065153 0.165285
vt 0.065153 0.165285
vt 0.065153 0.165285
vt 0.065153 0.165285
vt 0.065153 0.192615
vt 0.065153 0.192615
vt 0.065153 0.192615
vt 0.065153 0.192615
vt 0.065153 0.192615
vt 0.065153 0.192615
vt 0.065153 0.192615
vt 0.065153 0.192615
vt 0.065153 0.192615
vt 0.065153 0.192615
vt 0.065153 0.192615
vt 0.065153 0.192615
vt 0.065153 0.192615
vt 0.065153 0.192615
vt 0.065153 0.192615
vt 0.065153 0.192615
vt 0.065153 0.150303
vt 0.065153 0.150303
vt 0.065153 0.150303
vt 0.065153 0.150303
vt 0.065153 0.150303
vt 0.065153 0.150303
vt 0.065153 0.150303
vt 0.065153 0.150303
vt 0.065153 0.150303
vt 0.065153 0.150303
vt 0.065153 0.195291
vt 0.065153 0.195291
vt 0.065153 0.195291
vt 0.065153 0.195291
vt 0.065153 0.195291
vt 0.065153 0.195291
vt 0.065153 0.195291
vt 0.065153 0.195291
vt 0.065153 0.195291
vt 0.065153 0.195291
vt 0.065153 0.195291
vt 0.065153 0.195291
vt 0.065153 0.195291
vt 0.065153 0.195291
vt 0.065153 0.195291
vt 0.065153 0.195291
vt 0.065153 0.165110
vt 0.065153 0.165110
vt 0.065153 0.165110
vt 0.065153 0.165110
vt 0.065153 0.165110
vt 0.065153 0.165110
vt 0.065153 0.165110
vt 0.065153 0.165110
vt 0.065153 0.165110
vt 0.065153 0.165110
vt 0.065153 0.165110
vt 0.065153 0.165110
vt 0.065153 0.165110
vt 0.065153 0.165110
vt 0.065153 0.165110
vt 0.065153 0.165110
vt 0.065153 0.149959
vt 0.065153 0.149959
vt 0.065153 0.149959
vt 0.065153 0.149959
vt 0.065153 0.149959
vt 0.065153 0.149959
vt 0.065153 0.149959
vt 0.065153 0.149959
vt 0.065153 0.149959
vt 0.065153 0.149959
vt 0.065153 0.149959
vt 0.065153 0.149959
vt 0.065153 0.149959
vt 0.065153 0.149959
vt 0.065153 0.149959
vt 0.065153 0.149959
vt 0.065153 0.191828
vt 0.065153 0.191828
vt 0.065153 0.191828
vt 0.065153 0.191828
vt 0.065153 0.191828
vt 0.065153 0.191828
vt 0.065153 0.191828
vt 0.065153 0.191828
vt 0.065153 0.191828
vt 0.065153 0.191828
vt 0.065153 0.191828
vt 0.065153 0.191828
vt 0.065153 0.191828
vt 0.065153 0.191828
vt 0.065153 0.191828
vt 0.065153 0.191828
vt 0.065153 0.196083
vt 0.065153 0.196083
vt 0.065153 0.196083
vt 0.065153 0.196083
vt 0.065153 0.165285
vt 0.065153 0.165285
vt 0.065153 0.165285
vt 0.065153 0.165285
vt 0.065153 0.165285
vt 0.065153 0.165285
vt 0.065153 0.165285
vt 0.065153 0.165285
vt 0.065153 0.165285
vt 0.065153 0.165285
vt 0.065153 0.165285
vt 0.065153 0.165285
vt 0.065153 0.165285
vt 0.065153 0.165285
vt 0.065153 0.165285
vt 0.065153 0.165285
vt 0.065153 0.196083
vt 0.065153 0.196083
vt 0.065153 0.196083
vt 0.065153 0.196083
vt 0.065153 0.196083
vt 0.065153 0.196083
vt 0.065153 0.196083
vt 0.065153 0.196083
vt 0.065153 0.196083
vt 0.065153 0.196083
vt 0.065153 0.196083
vt 0.065153 0.196083
vt 0.065153 0.196083
vt 0.065153 0.196083
vt 0.065153 0.196083
vt 0.065153 0.196083
vn 0.453991 0.000000 -0.891006
vn 0.453991 0.000000 -0.891006
vn 0.453991 0.000000 -0.891006
vn 0.453991 0.000000 -0.891006
vn -0.707107 0.000000 -0.707107
vn -0.707107 0.000000 -0.707107
vn -0.707107 0.000000 -0.707107
vn -0.707107 0.000000 -0.707107
vn -0.891006 0.000000 0.453991
vn -0.891006 0.000000 0.453991
vn -0.891006 0.000000 0.453991
vn -0.891006 0.000000 0.453991
vn 0.156435 0.000000 0.987688
vn 0.156435 0.000000 0.987688
vn 0.156435 0.000000 0.987688
vn 0.156435 0.000000 0.987688
vn 0.987688 0.000000 0.156435
vn 0.987688 0.000000 0.156435
vn 0.987688 0.000000 0.156435
vn 0.987688 0.000000 0.156435
vn 0.000000 -1.000000 0.000000
vn 0.000000 -1.000000 0.000000
vn 0.000000 -1.000000 0.000000
vn 0.000000 -1.000000 0.000000
vn 0.000000 -1.000000 0.000000
vn 0.000000 -1.000000 0.000000
vn 0.000000 -1.000000 0.000000
vn 0.000000 -1.000000 0.000000
vn 0.000000 -1.000000 0.000000
vn 0.000000 -1.000000 0.000000
vn 0.000000 -1.000000 0.000000
vn 0.000000 -1.000000 0.000000
vn 0.000000 -1.000000 0.000000
vn 0.000000 -1.000000 0.000000
vn 0.000000 -1.000000 0.000000
vn 0.210237 0.886314 -0.412612
vn 0.210237 0.886314 -0.412612
vn 0.210237 0.886314 -0.412612
vn -0.327451 0.886314 -0.327451
vn -0.327451 0.886314 -0.327451
vn -0.327451 0.886314 -0.327451
vn -0.412612 0.886314 0.210237
vn -0.412612 0.886314 0.210237
vn -0.412612 0.886314 0.210237
vn 0.072442 0.886314 0.457384
vn 0.072442 0.886314 0.457384
vn 0.072442 0.886314 0.457384
vn 0.457384 0.886314 0.072443
vn 0.457384 0.886314 0.072443
vn 0.457384 0.886314 0.072443
vn -0.309017 0.000000 -0.951056
vn -0.309017 0.000000 -0.951056
vn -0.309017 0.000000 -0.951056
vn -0.309017 0.000000 -0.951056
vn -1.000000 0.000000 -0.000000
vn -1.000000 0.000000 -0.000000
vn -1.000000 0.000000 -0.000000
vn -1.000000 0.000000 -0.000000
vn -0.309018 0.000000 0.951056
vn -0.309018 0.000000 0.951056
vn -0.309018 0.000000 0.951056
vn -0.309018 0.000000 0.951056
vn 0.809017 0.000000 0.587785
vn 0.809017 0.000000 0.587785
vn 0.809017 0.000000 0.587785
vn 0.809017 0.000000 0.587785
vn 0.809017 0.000000 -0.587785
vn 0.809017 0.000000 -0.587785
vn 0.809017 0.000000 -0.587785
vn 0.809017 0.000000 -0.587785
vn 0.000000 -1.000000 0.000000
vn 0.000000 -1.000000 0.000000
vn 0.000000 -1.000000 0.000000
vn 0.000000 -1.000000 0.000000
vn 0.000000 -1.000000 0.000000
vn 0.000000 -1.000000 0.000000
vn 0.000000 -1.000000 0.000000
vn 0.000000 -1.000000 0.000000
vn 0.000000 -1.000000 0.000000
vn 0.000000 -1.000000 0.000000
vn 0.000000 -1.000000 0.000000
vn 0.000000 -1.000000 0.000000
vn 0.000000 -1.000000 0.000000
vn 0.000000 -1.000000 0.000000
vn 0.000000 -1.000000 0.000000
vn -0.143102 0.886314 -0.440420
vn -0.143102 0.886314 -0.440420
vn -0.143102 0.886314 -0.440420
vn -0.463085 0.886314 0.000000
vn -0.463085 0.886314 0.000000
vn -0.463085 0.886314 0.000000
vn -0.143102 0.886314 0.440420
vn -0.143102 0.886314 0.440419
vn -0.143102 0.886314 0.440420
vn 0.374644 0.886314 0.272195
vn 0.374644 0.886314 0.272195
vn 0.374644 0.886314 0.272195
vn 0.374644 0.886314 -0.272195
vn 0.374644 0.886314 -0.272195
vn 0.374644 0.886314 -0.272195
vn 0.000000 0.000000 1.000000
vn 0.000000 0.000000 1.000000
vn 0.000000 0.000000 1.000000
vn 0.000000 0.000000 1.000000
vn 0.000000 1.000000 0.000000
vn 0.000000 1.000000 0.000000
vn 0.000000 1.000000 0.000000
vn 0.000000 1.000000 0.000000
vn 0.000000 0.000000 -1.000000
vn 0.000000 0.000000 -1.000000
vn 0.000000 0.000000 -1.000000
vn 0.000000 0.000000 -1.000000
vn 0.000000 -1.000000 0.000000
vn 0.000000 -1.000000 0.000000
vn 0.000000 -1.000000 0.000000
vn 0.000000 -1.000000 0.000000
vn 1.000000 0.000000 0.000000
vn 1.000000 0.000000 0.000000
vn 1.000000 0.000000 0.000000
vn 1.000000 0.000000 0.000000
vn -1.000000 0.000000 0.000000
vn -1.000000 0.000000 0.000000
vn -1.000000 0.000000 0.000000
vn -1.000000 0.000000 0.000000
vn -1.000000 0.000000 0.000000
vn -1.000000 0.000000 0.000000
vn -1.000000 0.000000 0.000000
vn -1.000000 0.000000 0.000000
vn 0.000000 1.000000 0.000000
vn 0.000000 1.000000 0.000000
vn 0.000000 1.000000 0.000000
vn 0.000000 1.000000 0.000000
vn 1.000000 0.000000 0.000000
vn 1.000000 0.000000 0.000000
vn 1.000000 0.000000 0.000000
vn 1.000000 0.000000 0.000000
vn 0.000000 -1.000000 0.000000
vn 0.000000 -1.000000 0.000000
vn 0.000000 -1.000000 0.000000
vn 0.000000 -1.000000 0.000000
vn 0.000000 1.000000 0.000000
vn 0.000000 1.000000 0.000000
vn 0.000000 1.000000 0.000000
vn 0.000000 1.000000 0.000000
vn -1.000000 0.000000 0.000000
vn -1.000000 0.000000 0.000000
vn -1.000000 0.000000 0.000000
vn -1.000000 0.000000 0.000000
vn 0.000000 -1.000000 0.000000
vn 0.000000 -1.000000 0.000000
vn 0.000000 -1.000000 0.000000
vn 0.000000 -1.000000 0.000000
vn 1.000000 0.000000 0.000000
vn 1.000000 0.000000 0.000000
vn 1.000000 0.000000 0.000000
vn 1.000000 0.000000 0.000000
vn -1.000000 0.000000 0.000000
vn -1.000000 0.000000 0.000000
vn -1.000000 0.000000 0.000000
vn -1.000000 0.000000 0.000000
vn 0.000000 1.000000 0.000000
vn 0.000000 1.000000 0.000000
vn 0.000000 1.000000 0.000000
vn 0.000000 1.000000 0.000000
vn 1.000000 0.000000 0.000000
vn 1.000000 0.000000 0.000000
vn 1.000000 0.000000 0.000000
vn 1.000000 0.000000 0.000000
vn 0.000000 -1.000000 0.000000
vn 0.000000 -1.000000 0.000000
vn 0.000000 -1.000000 0.000000
vn 0.000000 -1.000000 0.000000
vn 0.000000 1.000000 0.000000
vn 0.000000 1.000000 0.000000
vn 0.000000 1.000000 0.000000
vn 0.000000 1.000000 0.000000
vn -1.000000 0.000000 0.000000
vn -1.000000 0.000000 0.000000
vn -1.000000 0.000000 0.000000
vn -1.000000 0.000000 0.000000
vn 0.000000 -1.000000 0.000000
vn 0.000000 -1.000000 0.000000
vn 0.000000 -1.000000 0.000000
vn 0.000000 -1.000000 0.000000
vn 1.000000 0.000000 0.000000
vn 1.000000 0.000000 0.000000
vn 1.000000 0.000000 0.000000
vn 1.000000 0.000000 0.000000
vn -1.000000 0.000000 0.000000
vn -1.000000 0.000000 0.000000
vn -1.000000 0.000000 0.000000
vn -1.000000 0.000000 0.000000
vn 0.000000 1.000000 0.000000
vn 0.000000 1.000000 0.000000
vn 0.000000 1.000000 0.000000
vn 0.000000 1.000000 0.000000
vn 1.000000 0.000000 0.000000
vn 1.000000 0.000000 0.000000
vn 1.000000 0.000000 0.000000
vn 1.000000 0.000000 0.000000
vn 0.000000 -1.000000 0.000000
vn 0.000000 -1.000000 0.000000
vn 0.000000 -1.000000 0.000000
vn 0.000000 -1.000000 0.000000
vn 0.000000 1.000000 0.000000
vn 0.000000 1.000000 0.000000
vn 0.000000 1.000000 0.000000
vn 0.000000 1.000000 0.000000
vn -1.000000 0.000000 0.000000
vn -1.000000 0.000000 0.000000
vn -1.000000 0.000000 0.000000
vn -1.000000 0.000000 0.000000
vn 0.000000 -1.000000 0.000000
vn 0.000000 -1.000000 0.000000
vn 0.000000 -1.000000 0.000000
vn 0.000000 -1.000000 0.000000
vn 1.000000 0.000000 0.000000
vn 1.000000 0.000000 0.000000
vn 1.000000 0.000000 0.000000
vn 1.000000 0.000000 0.000000
vn -1.000000 0.000000 0.000000
vn -1.000000 0.000000 0.000000
vn -1.000000 0.000000 0.000000
vn -1.000000 0.000000 0.000000
vn 0.000000 1.000000 0.000000
vn 0.000000 1.000000 0.000000
vn 0.000000 1.000000 0.000000
vn 0.000000 1.000000 0.000000
vn 1.000000 0.000000 0.000000
vn 1.000000 0.000000 0.000000
vn 1.000000 0.000000 0.000000
vn 1.000000 0.000000 0.000000
vn 0.000000 -1.000000 0.000000
vn 0.000000 -1.000000 0.000000
vn 0.000000 -1.000000 0.000000
vn 0.000000 -1.000000 0.000000
vn 0.088338 0.000000 0.996091
vn 0.088338 0.000000 0.996091
vn 0.088338 0.000000 0.996091
vn 0.088338 0.000000 0.996091
vn 0.000000 -1.000000 0.000000
vn 0.000000 -1.000000 0.000000
vn 0.000000 -1.000000 0.000000
vn 0.000000 -1.000000 0.000000
vn 0.088337 0.000000 -0.996091
vn 0.088337 0.000000 -0.996091
vn 0.088337 0.000000 -0.996091
vn 0.088337 0.000000 -0.996091
vn 0.000000 1.000000 0.000000
vn 0.000000 1.000000 0.000000
vn 0.000000 1.000000 0.000000
vn 0.000000 1.000000 0.000000
vn 0.088340 0.000000 0.996090
vn 0.088340 0.000000 0.996090
vn 0.088340 0.000000 0.996090
vn 0.088340 0.000000 0.996090
vn 0.000000 -1.000000 0.000000
vn 0.000000 -1.000000 0.000000
vn 0.000000 -1.000000 0.000000
vn 0.000000 -1.000000 0.000000
vn 0.088337 0.000000 -0.996091
vn 0.088337 0.000000 -0.996091
vn 0.088337 0.000000 -0.996091
vn 0.088337 0.000000 -0.996091
vn 0.000000 1.000000 0.000000
vn 0.000000 1.000000 0.000000
vn 0.000000 1.000000 0.000000
vn 0.000000 1.000000 0.000000
vn -0.088337 0.000000 -0.996091
vn -0.088337 0.000000 -0.996091
vn -0.088337 0.000000 -0.996091
vn -0.088337 0.000000 -0.996091
vn 0.000000 -1.000000 0.000000
vn 0.000000 -1.000000 0.000000
vn 0.000000 -1.000000 0.000000
vn 0.000000 -1.000000 0.000000
vn -0.088337 0.000000 0.996091
vn -0.088337 0.000000 0.996091
vn -0.088337 0.000000 0.996091
vn -0.088337 0.000000 0.996091
vn 0.000000 1.000000 0.000000
vn 0.000000 1.000000 0.000000
vn 0.000000 1.000000 0.000000
vn 0.000000 1.000000 0.000000
vn -0.088338 0.000000 -0.996091
vn -0.088338 0.000000 -0.996091
vn -0.088338 0.000000 -0.996091
vn -0.088338 0.000000 -0.996091
vn 0.000000 -1.000000 0.000000
vn 0.000000 -1.000000 0.000000
vn 0.000000 -1.000000 0.000000
vn 0.000000 -1.000000 0.000000
vn -0.088338 0.000000 0.996091
vn -0.088338 0.000000 0.996091
vn -0.088338 0.000000 0.996091
vn -0.088338 0.000000 0.996091
vn 0.000000 1.000000 0.000000
vn 0.000000 1.000000 0.000000
vn 0.000000 1.000000 0.000000
vn 0.000000 1.000000 0.000000
vn 0.088338 0.000000 0.996091
vn 0.088338 0.000000 0.996091
vn 0.088338 0.000000 0.996091
vn 0.088338 0.000000 0.996091
vn 0.000000 -1.000000 0.000000
vn 0.000000 -1.000000 0.000000
vn 0.000000 -1.000000 0.000000
vn 0.000000 -1.000000 0.000000
vn 0.088335 0.000000 -0.996091
vn 0.088335 0.000000 -0.996091
vn 0.088335 0.000000 -0.996091
vn 0.088335 0.000000 -0.996091
vn 0.000000 1.000000 0.000000
vn 0.000000 1.000000 0.000000
vn 0.000000 1.000000 0.000000
vn 0.000000 1.000000 0.000000
vn -0.088336 0.000000 -0.996091
vn -0.088336 0.000000 -0.996091
vn -0.088336 0.000000 -0.996091
vn -0.088336 0.000000 -0.996091
vn 0.000000 -1.000000 0.000000
vn 0.000000 -1.000000 0.000000
vn 0.000000 -1.000000 0.000000
vn 0.000000 -1.000000 0.000000
vn -0.088335 0.000000 0.996091
vn -0.088335 0.000000 0.996091
vn -0.088335 0.000000 0.996091
vn -0.088335 0.000000 0.996091
vn 0.000000 1.000000 0.000000
vn 0.000000 1.000000 0.000000
vn 0.000000 1.000000 0.000000
vn 0.000000 1.000000 0.000000
s off
f 1/1/1 2/2/2 7/3/3 6/4/4
f 2/2/5 3/5/6 8/6/7 7/3/8
f 3/5/9 4/7/10 9/8/11 8/6/12
f 4/7/13 5/9/14 10/10/15 9/8/16
f 5/9/17 1/11/18 6/12/19 10/10/20
f 2/13/21 1/14/22 11/15/23
f 3/16/24 2/13/25 11/15/26
f 4/17/27 3/16/28 11/15/29
f 5/18/30 4/17/31 11/15/32
f 1/14/33 5/18/34 11/15/35
f 6/19/36 7/65/37 12/61/38
f 7/20/39 8/64/40 12/60/41
f 8/22/42 9/63/43 12/59/44
f 9/23/45 10/58/46 12/21/47
f 10/24/48 6/66/49 12/62/50
f 13/25/51 14/26/52 19/27/53 18/28/54
f 14/26/55 15/29/56 20/30/57 19/27/58
f 15/29/59 16/31/60 21/32/61 20/30/62
f 16/31/63 17/33/64 22/34/65 21/32/66
f 17/33/67 13/35/68 18/36/69 22/34/70
f 14/37/71 13/38/72 23/39/73
f 15/40/74 14/37/75 23/39/76
f 16/41/77 15/40/78 23/39/79
f 17/42/80 16/41/81 23/39/82
f 13/38/83 17/42/84 23/39/85
f 18/43/86 19/56/87 24/52/88
f 19/44/89 20/55/90 24/51/91
f 20/46/92 21/54/93 24/50/94
f 21/47/95 22/49/96 24/45/97
f 22/48/98 18/57/99 24/53/100
f 25/67/101 26/68/102 28/69/103 27/70/104
f 50/71/105 51/72/106 37/73/107 38/74/108
f 29/75/109 30/283/110 32/77/111 31/292/112
f 39/79/113 40/80/114 52/81/115 49/82/116
f 61/83/117 62/84/118 63/85/119 64/86/120
f 38/87/121 39/88/122 49/89/123 50/90/124
f 54/91/125 55/92/126 41/93/127 42/94/128
f 42/95/129 43/96/130 53/97/131 54/98/132
f 65/99/133 66/100/134 67/101/135 68/102/136
f 55/103/137 56/104/138 44/105/139 41/106/140
f 38/107/141 37/108/142 45/109/143 46/110/144
f 69/111/145 70/112/146 71/113/147 72/114/148
f 47/115/149 48/116/150 40/117/151 39/118/152
f 37/119/153 40/120/154 48/121/155 45/122/156
f 74/123/157 73/124/158 75/125/159 76/126/160
f 58/127/161 59/128/162 43/129/163 42/130/164
f 59/131/165 60/132/166 44/133/167 43/134/168
f 41/135/169 44/136/170 60/137/171 57/138/172
f 46/139/173 45/140/174 30/76/175 29/291/176
f 31/141/177 47/142/178 46/143/179 29/144/180
f 31/78/181 32/287/182 48/145/183 47/146/184
f 78/147/185 77/286/186 79/282/187 80/280/188
f 82/151/189 81/152/190 83/153/191 84/154/192
f 34/155/193 35/156/194 51/157/195 50/158/196
f 35/159/197 36/160/198 52/161/199 51/162/200
f 49/163/201 52/164/202 36/165/203 33/166/204
f 54/167/205 53/168/206 35/169/207 34/170/208
f 34/171/209 33/172/210 55/173/211 54/174/212
f 33/175/213 36/176/214 56/177/215 55/178/216
f 53/179/217 56/180/218 36/181/219 35/182/220
f 58/183/221 57/184/222 25/67/223 27/70/224
f 27/70/225 28/69/226 59/185/227 58/186/228
f 26/68/229 60/187/230 59/188/231 28/69/232
f 57/189/233 60/190/234 26/191/235 25/192/236
f 51/193/237 52/194/238 62/195/239 61/196/240
f 52/197/241 40/198/242 63/199/243 62/200/244
f 40/201/245 37/202/246 64/203/247 63/204/248
f 37/205/249 51/206/250 61/207/251 64/208/252
f 43/209/253 44/210/254 66/211/255 65/212/256
f 44/213/257 56/214/258 67/215/259 66/216/260
f 56/217/261 53/218/262 68/219/263 67/220/264
f 53/221/265 43/222/266 65/223/267 68/224/268
f 46/225/269 47/226/270 70/227/271 69/228/272
f 47/229/273 39/230/274 71/231/275 70/232/276
f 39/233/277 38/234/278 72/235/279 71/236/280
f 38/237/281 46/238/282 69/239/283 72/240/284
f 42/241/285 41/242/286 73/243/287 74/244/288
f 41/245/289 57/246/290 75/247/291 73/248/292
f 57/249/293 58/250/294 76/251/295 75/252/296
f 58/253/297 42/254/298 74/255/299 76/256/300
f 45/257/301 48/290/302 77/285/303 78/277/304
f 48/258/305 32/288/306 79/281/307 77/148/308
f 32/259/309 30/284/310 80/279/311 79/149/312
f 30/260/313 45/289/314 78/278/315 80/150/316
f 50/261/317 49/262/318 81/263/319 82/264/320
f 49/265/321 33/266/322 83/267/323 81/268/324
f 33/269/325 34/270/326 84/271/327 83/272/328
f 34/273/329 50/274/330 82/275/331 84/276/332
