# This file uses meters as units for non-parametric coordinates.

v -21.834396 8.666843 30.796585
v -23.379257 32.379936 32.919250
v -23.379257 32.379936 -37.804413
v -21.834396 8.666843 -35.253754
v -26.644257 5.510042 -39.043640
v -26.644257 5.510042 37.111694
v -25.852646 -4.641931 -37.860413
v -25.852646 -4.641931 36.032318
v -30.087326 32.379936 40.043961
v -30.087326 32.379936 -41.355743
v -30.723938 39.810509 40.874161
v -30.723938 39.810509 -42.247864
v -1.855034 58.017654 42.943787
v -1.855034 58.017654 -44.472809
v -16.327133 -4.641931 36.032318
v -16.827072 5.510042 37.111694
v -16.984024 8.666843 30.796585
v -18.185692 32.379936 32.919250
v -25.410858 38.918575 40.774048
v -0.000008 54.088295 42.492889
v -18.185692 32.379936 40.043961
v -10.546600 -4.641931 36.032318
v -10.869545 5.510042 37.111694
v -11.747154 32.379932 40.043961
v -10.546600 -4.641931 29.300629
v -11.747154 32.379936 32.545990
v -16.327133 -4.641931 40.407013
v -16.820007 5.367671 41.603210
v -10.546600 -4.641931 40.407013
v -10.864975 5.367671 41.603210
v 21.834381 8.666843 30.796585
v 23.379242 32.379936 32.919250
v 23.379242 32.379936 -37.804413
v 21.834381 8.666843 -35.253754
v 26.644241 5.510042 -39.043640
v 26.644241 5.510042 37.111694
v 25.852631 -4.641931 -37.860413
v 25.852631 -4.641931 36.032318
v 30.087303 32.379936 40.043961
v 30.087303 32.379936 -41.355743
v 30.723930 39.810497 40.874161
v 30.723930 39.810497 -42.247864
v 1.855019 58.017654 42.943787
v 1.855019 58.017654 -44.472809
v 16.327225 -4.641931 36.032318
v 16.827171 5.510042 37.111694
v 16.984131 8.666843 30.796585
v 18.185814 32.379936 32.919250
v 25.410843 38.918575 40.774048
v 18.185814 32.379936 40.043961
v 10.546356 -4.641931 36.032318
v 10.869278 5.510042 37.111694
v 11.746872 32.379932 40.043961
v 10.546356 -4.641931 29.300629
v 11.746872 32.379936 32.545990
v 16.327225 -4.641931 40.407013
v 16.820114 5.367671 41.603210
v 10.546356 -4.641931 40.407013
v 10.864731 5.367671 41.603210
vt 0.214979 0.572103
vt 0.218663 0.212074
vt 0.218663 0.212074
vt 0.454430 0.282864
vt 0.454430 0.282864
vt 0.214979 0.572103
vt 0.214979 0.572103
vt 0.218663 0.201532
vt 0.218663 0.201532
vt 0.218663 0.201532
vt 0.218663 0.201532
vt 0.218663 0.212074
vt 0.218663 0.212074
vt 0.218663 0.212074
vt 0.218663 0.212074
vt 0.218663 0.212074
vt 0.454430 0.282864
vt 0.218663 0.201532
vt 0.218663 0.201532
vt 0.214979 0.572103
vt 0.454430 0.282864
vt 0.214979 0.572103
vt 0.216204 0.569328
vt 0.216204 0.569328
vt 0.218663 0.212074
vt 0.218663 0.212074
vt 0.214979 0.572103
vt 0.214979 0.572103
vt 0.214979 0.572103
vt 0.214979 0.572103
vt 0.214979 0.572103
vt 0.217846 0.190701
vt 0.217846 0.190701
vt 0.217846 0.190701
vt 0.217846 0.190701
vt 0.218663 0.212074
vt 0.217846 0.190701
vt 0.217846 0.190701
vt 0.217846 0.190701
vt 0.217846 0.201243
vt 0.217846 0.190701
vt 0.217846 0.190701
vt 0.142875 0.060343
vt 0.217839 0.201243
vt 0.217839 0.201243
vt 0.217839 0.201243
vt 0.218663 0.201532
vt 0.217839 0.201243
vt 0.218663 0.212074
vt 0.142875 0.060343
vt 0.217846 0.190701
vt 0.217846 0.190701
vt 0.217846 0.190701
vt 0.217846 0.190701
vt 0.214979 0.572103
vt 0.214979 0.572103
vt 0.214979 0.572103
vt 0.214979 0.572103
vt 0.218663 0.212074
vt 0.454430 0.282863
vt 0.214979 0.572103
vt 0.214979 0.572103
vt 0.218663 0.201532
vt 0.218663 0.201532
vt 0.218663 0.201532
vt 0.214979 0.572103
vt 0.214979 0.572103
vt 0.214979 0.572103
vt 0.214979 0.572103
vt 0.454430 0.282864
vt 0.218663 0.201532
vt 0.454430 0.282864
vt 0.454430 0.282863
vt 0.218663 0.201532
vt 0.218663 0.201532
vt 0.218663 0.201532
vt 0.218663 0.212074
vt 0.218663 0.212074
vt 0.218663 0.212074
vt 0.218663 0.212074
vt 0.218663 0.212074
vt 0.218663 0.212074
vt 0.216204 0.569328
vt 0.218663 0.212074
vt 0.218663 0.212074
vt 0.218663 0.212074
vt 0.217846 0.190701
vt 0.217846 0.190701
vt 0.217846 0.190701
vt 0.217846 0.190701
vt 0.218663 0.212074
vt 0.217846 0.190701
vt 0.217846 0.190701
vt 0.217846 0.190701
vt 0.217846 0.190701
vt 0.217846 0.190701
vt 0.217846 0.190701
vt 0.217846 0.190701
vt 0.217846 0.190701
vt 0.217846 0.201243
vt 0.217839 0.201243
vt 0.217839 0.201243
vt 0.217839 0.201243
vt 0.217839 0.201243
vt 0.217846 0.190701
vt 0.142875 0.060343
vt 0.142875 0.060343
vt 0.217839 0.190701
vt 0.217846 0.201243
vt 0.218663 0.212074
vt 0.218663 0.212074
vt 0.218663 0.212074
vt 0.218663 0.212074
vt 0.218663 0.212074
vt 0.218663 0.212074
vt 0.218663 0.212074
vt 0.217846 0.190701
vt 0.218663 0.212074
vt 0.217846 0.190701
vt 0.217846 0.201243
vt 0.218663 0.212074
vt 0.218663 0.212074
vt 0.454430 0.282864
vt 0.454430 0.282864
vt 0.218663 0.212074
vt 0.454430 0.282863
vt 0.218663 0.212074
vt 0.218663 0.212074
vt 0.218663 0.212074
vt 0.454430 0.282863
vt 0.454437 0.282864
vt 0.218663 0.212074
vt 0.218663 0.212074
vt 0.218663 0.212074
vt 0.454437 0.282864
vt 0.218663 0.212074
vt 0.454430 0.282863
vt 0.454422 0.282863
vt 0.454430 0.282863
vt 0.218663 0.212074
vt 0.218663 0.212074
vt 0.218663 0.212074
vt 0.218663 0.212074
vt 0.218663 0.212074
vt 0.218663 0.212074
vt 0.218663 0.212074
vt 0.218663 0.212074
vt 0.218663 0.212074
vt 0.218663 0.212074
vt 0.218663 0.212074
vt 0.218663 0.212074
vt 0.218663 0.212074
vt 0.218663 0.212074
vt 0.454430 0.282864
vt 0.218663 0.212074
vt 0.218663 0.212074
vt 0.218663 0.212074
vt 0.454430 0.282863
vt 0.454430 0.282863
vt 0.454430 0.282864
vt 0.454430 0.282864
vt 0.454430 0.282864
vt 0.454430 0.282863
vt 0.454430 0.282863
vt 0.454430 0.282863
vn 0.000000 -0.089158 0.996018
vn 0.000000 -0.089158 0.996018
vn 0.000000 -0.089158 0.996018
vn 0.000000 -0.089158 0.996018
vn 0.000000 1.000000 0.000000
vn 0.000000 1.000000 0.000000
vn 0.000000 1.000000 0.000000
vn 0.000000 1.000000 0.000000
vn 0.000000 -0.106947 -0.994265
vn 0.000000 -0.106947 -0.994265
vn 0.000000 -0.106947 -0.994265
vn 0.000000 -0.106947 -0.994265
vn 0.000000 -1.000000 0.000000
vn 0.000000 -1.000000 0.000000
vn 0.000000 -1.000000 0.000000
vn -0.997885 -0.065010 0.000000
vn -0.997885 -0.065010 0.000000
vn -0.997885 -0.065010 0.000000
vn -0.997885 -0.065010 0.000000
vn -0.000000 0.768366 -0.640011
vn -0.000000 0.768366 -0.640011
vn -0.000000 0.768366 -0.640011
vn -0.000000 0.768366 -0.640011
vn 0.000000 0.894470 0.447129
vn 0.000000 0.894470 0.447129
vn 0.000000 0.894470 0.447129
vn 0.000000 0.894470 0.447129
vn -0.548697 0.836021 0.000000
vn -0.548697 0.836021 0.000000
vn -0.548697 0.836021 0.000000
vn -0.548697 0.836021 0.000000
vn -0.000000 -0.115768 -0.993276
vn -0.000000 -0.115768 -0.993276
vn -0.000000 -0.115768 -0.993276
vn -0.000000 -0.115768 -0.993276
vn 0.000000 -0.105725 0.994395
vn 0.000000 -0.105725 0.994395
vn 0.000000 -0.105725 0.994395
vn 0.000000 -0.105725 0.994395
vn -0.996974 -0.077740 0.000000
vn -0.996974 -0.077740 0.000000
vn -0.996974 -0.077740 0.000000
vn -0.996974 -0.077740 0.000000
vn 0.000000 -1.000000 0.000000
vn 0.000000 -1.000000 0.000000
vn 0.000000 -1.000000 0.000000
vn 0.000000 -1.000000 0.000000
vn 0.000000 -1.000000 0.000000
vn 0.000000 -1.000000 0.000000
vn 0.000000 -1.000000 0.000000
vn 0.000000 -1.000000 0.000000
vn 0.000000 -0.119206 -0.992870
vn 0.000000 -0.119206 -0.992870
vn 0.000000 -0.119206 -0.992870
vn 0.000000 -0.119206 -0.992870
vn -0.996350 -0.085363 0.000000
vn -0.996350 -0.085363 0.000000
vn -0.996350 -0.085363 0.000000
vn -0.996350 -0.085363 0.000000
vn 0.000000 -0.112587 0.993642
vn 0.000000 -0.112587 0.993642
vn 0.000000 -0.112587 0.993642
vn -0.000000 -0.121300 -0.992616
vn -0.000000 -0.121300 -0.992616
vn -0.000000 -0.121300 -0.992616
vn -0.000000 -0.121300 -0.992616
vn -0.533451 0.845831 0.000000
vn -0.533451 0.845831 0.000000
vn -0.533451 0.845831 0.000000
vn -0.533451 0.845831 0.000000
vn 0.000249 -0.113181 0.993574
vn 0.000249 -0.113181 0.993574
vn 0.000249 -0.113181 0.993574
vn 0.000249 -0.113181 0.993574
vn -0.998723 -0.050530 -0.000206
vn -0.998723 -0.050530 -0.000206
vn -0.998723 -0.050530 -0.000206
vn -0.998723 -0.050530 -0.000206
vn 0.000013 -0.110979 0.993823
vn 0.000016 -0.110981 0.993823
vn 0.000029 -0.110990 0.993822
vn 0.000029 -0.110990 0.993822
vn 0.000000 -0.118660 0.992935
vn 0.000000 -0.118660 0.992935
vn 0.000000 -0.118660 0.992935
vn 0.000000 -0.118660 0.992935
vn -0.000000 -0.108484 0.994098
vn -0.000000 -0.108484 0.994098
vn -0.000000 -0.108484 0.994098
vn -0.000000 -0.108484 0.994098
vn 0.999494 0.031795 0.000000
vn 0.999494 0.031795 0.000000
vn 0.999494 0.031795 0.000000
vn 0.999470 0.032558 -0.000506
vn 0.999470 0.032558 -0.000506
vn 0.999470 0.032558 -0.000506
vn 0.999470 0.032558 -0.000506
vn 0.000000 -1.000000 -0.000000
vn 0.000000 -1.000000 -0.000000
vn 0.000000 -1.000000 -0.000000
vn 0.000000 -1.000000 -0.000000
vn 0.000000 -1.000000 0.000000
vn 0.000000 -1.000000 0.000000
vn 0.000000 -1.000000 0.000000
vn 0.000000 -1.000000 0.000000
vn 0.000000 -1.000000 0.000000
vn 0.000000 -1.000000 0.000000
vn 0.000000 -1.000000 0.000000
vn 0.000000 -1.000000 0.000000
vn 0.000000 -1.000000 0.000000
vn 0.000000 -1.000000 0.000000
vn 0.000000 -1.000000 0.000000
vn 0.000000 -1.000000 0.000000
vn 0.000000 -1.000000 0.000000
vn 0.000000 -1.000000 0.000000
vn 0.000000 -1.000000 0.000000
vn 0.000000 -0.087326 0.996180
vn 0.000000 -0.087326 0.996180
vn 0.000000 -0.087326 0.996180
vn 0.000000 -0.087326 0.996180
vn -0.998790 -0.049184 0.000006
vn -0.998790 -0.049184 0.000006
vn -0.998790 -0.049184 0.000006
vn -0.998790 -0.049184 0.000006
vn 0.000000 -1.000000 0.000000
vn 0.000000 -1.000000 0.000000
vn 0.000000 -1.000000 0.000000
vn 0.000000 -1.000000 0.000000
vn 0.999495 0.031793 -0.000005
vn 0.999494 0.031793 -0.000005
vn 0.999494 0.031793 -0.000005
vn 0.999494 0.031793 -0.000005
vn 0.000000 0.999498 0.031682
vn 0.000000 0.999498 0.031682
vn 0.000000 0.999498 0.031682
vn 0.000000 0.999498 0.031682
vn 0.000000 -0.089158 0.996018
vn 0.000000 -0.089158 0.996018
vn 0.000000 -0.089158 0.996018
vn 0.000000 -0.089158 0.996018
vn 0.000000 -1.000000 0.000000
vn 0.000000 -1.000000 0.000000
vn 0.000000 -1.000000 0.000000
vn 0.997885 -0.065010 0.000000
vn 0.997885 -0.065010 0.000000
vn 0.997885 -0.065010 0.000000
vn 0.997885 -0.065010 0.000000
vn 0.000000 0.894470 0.447129
vn 0.000000 0.894470 0.447129
vn 0.000000 0.894470 0.447129
vn 0.000000 0.894470 0.447129
vn 0.548697 0.836022 0.000000
vn 0.548697 0.836021 0.000000
vn 0.548697 0.836021 0.000000
vn 0.548697 0.836022 0.000000
vn -0.000000 -0.105725 0.994395
vn -0.000000 -0.105725 0.994395
vn -0.000000 -0.105725 0.994395
vn -0.000000 -0.105725 0.994395
vn 0.996974 -0.077739 0.000000
vn 0.996974 -0.077739 0.000000
vn 0.996974 -0.077739 0.000000
vn 0.996974 -0.077739 0.000000
vn 0.000000 -1.000000 0.000000
vn 0.000000 -1.000000 0.000000
vn 0.000000 -1.000000 0.000000
vn 0.000000 -1.000000 0.000000
vn 0.996350 -0.085364 0.000000
vn 0.996350 -0.085364 0.000000
vn 0.996350 -0.085364 0.000000
vn 0.996350 -0.085364 0.000000
vn 0.533452 0.845831 0.000000
vn 0.533452 0.845831 0.000000
vn 0.533452 0.845831 0.000000
vn 0.533452 0.845831 0.000000
vn 0.000000 -0.114003 0.993481
vn 0.000000 -0.114003 0.993481
vn 0.000000 -0.114003 0.993481
vn -0.000249 -0.113181 0.993574
vn -0.000249 -0.113181 0.993574
vn -0.000249 -0.113181 0.993574
vn -0.000249 -0.113181 0.993574
vn 0.998722 -0.050531 -0.000205
vn 0.998722 -0.050531 -0.000205
vn 0.998723 -0.050531 -0.000205
vn 0.998723 -0.050531 -0.000205
vn -0.000013 -0.110979 0.993823
vn -0.000029 -0.110990 0.993822
vn -0.000029 -0.110990 0.993822
vn -0.000016 -0.110981 0.993823
vn 0.000000 -0.118660 0.992935
vn 0.000000 -0.118660 0.992935
vn 0.000000 -0.118660 0.992935
vn 0.000000 -0.118660 0.992935
vn 0.000000 -0.108484 0.994098
vn 0.000000 -0.108484 0.994098
vn 0.000000 -0.108484 0.994098
vn 0.000000 -0.108484 0.994098
vn -0.999494 0.031793 0.000000
vn -0.999495 0.031793 0.000000
vn -0.999495 0.031793 0.000000
vn -0.999470 0.032557 -0.000508
vn -0.999470 0.032557 -0.000508
vn -0.999470 0.032557 -0.000508
vn -0.999470 0.032557 -0.000508
vn 0.000000 -0.110969 0.993824
vn -0.000016 -0.110981 0.993823
vn 0.000016 -0.110981 0.993823
vn -0.000000 -0.110969 0.993824
vn 0.000016 -0.110981 0.993823
vn 0.000013 -0.110979 0.993823
vn -0.000000 -0.110969 0.993824
vn 0.000000 -1.000000 0.000000
vn 0.000000 -1.000000 0.000000
vn 0.000000 -1.000000 0.000000
vn 0.000000 -1.000000 0.000000
vn 0.000000 -1.000000 -0.000000
vn 0.000000 -1.000000 -0.000000
vn 0.000000 -1.000000 -0.000000
vn 0.000000 -1.000000 -0.000000
vn 0.000000 -1.000000 0.000000
vn 0.000000 -1.000000 0.000000
vn 0.000000 -1.000000 0.000000
vn 0.998790 -0.049184 0.000005
vn 0.998790 -0.049184 0.000005
vn 0.998790 -0.049184 0.000005
vn 0.998790 -0.049184 0.000005
vn 0.000000 -1.000000 0.000000
vn 0.000000 -1.000000 0.000000
vn 0.000000 -1.000000 0.000000
vn 0.000000 -1.000000 0.000000
vn -0.999494 0.031792 -0.000003
vn -0.999495 0.031792 -0.000003
vn -0.999495 0.031792 -0.000003
vn -0.999494 0.031792 -0.000003
vn 0.000000 0.999498 0.031682
vn 0.000000 0.999498 0.031682
vn 0.000000 0.999498 0.031682
vn 0.000000 0.999498 0.031682
vn 0.000000 -0.110969 0.993824
vn -0.000013 -0.110979 0.993823
vn -0.000016 -0.110981 0.993823
s off
f 1/28/1 17/20/2 18/22/3 2/30/4
f 14/4/5 13/5/6 43/17/7 44/21/8
f 4/27/9 3/29/10 33/61/11 34/62/12
f 8/11/13 25/47/14 15/18/15
f 4/6/16 1/1/17 2/31/18 3/7/19
f 5/60/20 4/70/21 34/72/22 35/73/23
f 17/123/24 1/124/25 6/126/26 16/130/27
f 1/124/28 4/70/29 5/60/30 6/126/31
f 7/10/32 5/8/33 35/71/34 37/76/35
f 16/19/36 6/9/37 8/11/38 15/18/39
f 6/9/40 5/8/41 7/10/42 8/11/43
f 3/3/44 10/149/45 40/142/46 33/77/47
f 3/151/48 2/2/49 9/156/50 10/148/51
f 10/13/52 12/141/53 42/133/54 40/78/55
f 10/147/56 9/157/57 11/153/58 12/140/59
f 20/24/60 19/23/61 49/83/62
f 12/15/63 14/132/64 44/129/65 42/81/66
f 12/131/67 11/135/68 13/5/69 14/4/70
f 13/136/71 11/155/72 19/115/73 20/25/74
f 18/32/75 17/33/76 16/34/77 21/35/78
f 21/36/79 19/114/80 11/14/81 9/12/82
f 28/51/83 27/52/84 29/53/85 30/54/86
f 21/35/87 16/34/88 23/39/89 24/117/90
f 23/39/91 22/38/92 25/41/93
f 24/117/94 23/39/95 25/41/96 26/42/97
f 2/44/98 18/45/99 21/46/100 9/48/101
f 8/11/102 7/10/103 25/47/104
f 38/63/105 54/108/106 37/76/107
f 7/10/108 37/76/109 25/47/110
f 54/108/111 25/47/112 37/76/113
f 15/37/114 25/41/115 22/38/116
f 26/43/117 25/50/118 54/107/119 55/106/120
f 16/34/121 15/37/122 27/52/123 28/51/124
f 15/37/125 22/38/126 29/53/127 27/52/128
f 22/38/129 23/39/130 30/54/131 29/53/132
f 23/137/133 16/130/134 28/138/135 30/139/136
f 31/55/137 32/58/138 48/57/139 47/56/140
f 38/63/141 45/65/142 54/64/143
f 34/66/144 33/69/145 32/68/146 31/67/147
f 47/154/148 46/158/149 36/159/150 31/160/151
f 31/160/152 36/159/153 35/73/154 34/72/155
f 46/75/156 45/65/157 38/63/158 36/74/159
f 36/74/160 38/63/161 37/76/162 35/71/163
f 33/150/164 40/143/165 39/145/166 32/79/167
f 40/144/168 42/134/169 41/127/170 39/80/171
f 42/161/172 44/21/173 43/17/174 41/162/175
f 20/85/176 43/59/177 13/16/178
f 43/125/179 20/122/180 49/111/181 41/82/182
f 48/87/183 50/90/184 46/89/185 47/88/186
f 50/121/187 39/146/188 41/128/189 49/112/190
f 57/92/191 59/95/192 58/94/193 56/93/194
f 50/90/195 53/97/196 52/96/197 46/89/198
f 52/96/199 54/99/200 51/98/201
f 53/97/202 55/119/203 54/99/204 52/96/205
f 53/110/206 49/86/207 19/116/208 24/49/209
f 19/26/210 21/152/211 24/118/212
f 32/101/213 39/104/214 50/103/215 48/102/216
f 26/120/217 55/100/218 53/109/219 24/40/220
f 45/105/221 51/98/222 54/99/223
f 46/89/224 57/92/225 56/93/226 45/105/227
f 45/105/228 56/93/229 58/94/230 51/98/231
f 51/98/232 58/94/233 59/95/234 52/96/235
f 52/163/236 59/164/237 57/165/238 46/158/239
f 53/84/240 50/91/241 49/113/242
