# This file uses meters as units for non-parametric coordinates.

v 28.206299 0.049631 -50.326782
v -28.206482 0.049631 -50.326843
v -56.413025 0.049631 -1.471863
v -28.206482 0.049631 47.383118
v 28.206299 0.049631 47.383118
v 56.412903 0.049631 -1.471863
v 28.206299 54.396057 -50.326782
v -28.206482 54.396057 -50.326843
v -56.413025 54.396057 -1.471863
v -28.206482 54.396057 47.383118
v 28.206299 54.396057 47.383118
v 56.412903 54.396057 -1.471863
v -0.000183 83.577477 -1.471924
v -24.553711 49.652225 41.056519
v -49.107544 49.652225 -1.471863
v -24.553711 49.652225 -44.000244
v 24.553650 49.652225 -44.000244
v 49.107422 49.652225 -1.471924
v 24.553650 49.652225 41.056519
v -0.000183 49.652225 41.056519
v -14.103210 0.049631 50.326721
v 14.103149 0.049631 50.326721
v -10.237671 0.049631 33.395752
v 10.237305 0.049631 33.395752
v -2.862854 78.642654 3.486572
v 2.862793 78.642654 3.486572
v 5.725464 78.642654 -1.471924
v 2.862793 78.642654 -6.430298
v -2.862854 78.642654 -6.430298
v -5.725525 78.642654 -1.471863
vt 0.088272 0.901357
vt 0.087433 0.901405
vt 0.087478 0.901913
vt 0.088209 0.901872
vt 0.086944 0.900991
vt 0.087053 0.901553
vt 0.087295 0.900530
vt 0.087359 0.901152
vt 0.087724 0.901131
vt 0.087501 0.900492
vt 0.087582 0.900640
vt 0.088134 0.900482
vt 0.088623 0.900896
vt 0.088514 0.901470
vt 0.088089 0.901110
vt 0.087920 0.900468
vt 0.087887 0.900623
vt 0.455994 0.282738
vt 0.455994 0.282738
vt 0.008892 0.198531
vt 0.455994 0.282738
vt 0.455994 0.282738
vt 0.455994 0.282738
vt 0.455994 0.282738
vt 0.087295 0.901153
vt 0.086944 0.901614
vt 0.087433 0.902027
vt 0.088272 0.901980
vt 0.088623 0.901518
vt 0.088134 0.901105
vt 0.008897 0.942811
vt 0.008911 0.942853
vt 0.008910 0.945418
vt 0.008898 0.945382
vt 0.008918 0.942186
vt 0.008912 0.941477
vt 0.008911 0.944221
vt 0.008917 0.944838
vt 0.008899 0.941436
vt 0.008891 0.942103
vt 0.008893 0.944766
vt 0.008899 0.944185
vt 0.008912 0.944389
vt 0.008918 0.945098
vt 0.008911 0.945764
vt 0.008897 0.945723
vt 0.008891 0.945014
vt 0.008899 0.944348
vt 0.455994 0.282738
vt 0.455994 0.282738
vt 0.455994 0.282738
vt 0.455994 0.282738
vt 0.455994 0.282738
vt 0.455994 0.282738
vt 0.008889 0.198535
vt 0.008891 0.190855
vt 0.008888 0.198750
vt 0.008889 0.198961
vt 0.008892 0.198956
vt 0.008894 0.198741
vt 0.142473 0.014436
vt 0.142154 0.025997
vt 0.142869 0.026089
vt 0.087143 0.899708
vt 0.089120 0.899724
vt 0.090090 0.901033
vt 0.089084 0.902326
vt 0.088589 0.902401
vt 0.088460 0.901949
vt 0.087742 0.901943
vt 0.087601 0.902393
vt 0.087108 0.902311
vt 0.086137 0.901002
vn 0.000000 0.126521 -0.991964
vn 0.000000 0.126521 -0.991964
vn 0.000000 0.126521 -0.991964
vn 0.000000 0.126521 -0.991964
vn -0.859065 0.126522 -0.495983
vn -0.859065 0.126522 -0.495983
vn -0.859065 0.126522 -0.495983
vn -0.859065 0.126522 -0.495983
vn -0.859065 0.126522 0.495983
vn -0.859065 0.126522 0.495983
vn -0.859065 0.126522 0.495983
vn -0.859065 0.126522 0.495983
vn 0.948936 -0.229311 0.216651
vn 0.948936 -0.229311 0.216651
vn 0.948936 -0.229311 0.216651
vn 0.859065 0.126522 0.495983
vn 0.859065 0.126522 0.495983
vn 0.859065 0.126522 0.495983
vn 0.859065 0.126522 0.495983
vn 0.859065 0.126522 -0.495983
vn 0.859065 0.126522 -0.495983
vn 0.859065 0.126522 -0.495983
vn 0.859065 0.126522 -0.495983
vn -0.000000 0.708796 -0.705414
vn -0.000000 0.708796 -0.705414
vn -0.000000 0.708796 -0.705414
vn -0.610916 0.708789 -0.352703
vn -0.610916 0.708789 -0.352703
vn -0.610916 0.708789 -0.352703
vn -0.610917 0.708789 0.352703
vn -0.610917 0.708789 0.352703
vn -0.610917 0.708789 0.352703
vn 0.000000 0.708796 0.705414
vn 0.000000 0.708796 0.705414
vn 0.000000 0.708796 0.705414
vn 0.610902 0.708805 0.352695
vn 0.610902 0.708805 0.352695
vn 0.610902 0.708805 0.352695
vn 0.610902 0.708805 -0.352695
vn 0.610902 0.708805 -0.352695
vn 0.610902 0.708805 -0.352695
vn -0.519529 -0.800075 0.299951
vn -0.519529 -0.800075 0.299951
vn -0.519529 -0.800075 0.299951
vn -0.519529 -0.800075 0.299951
vn -0.519528 -0.800075 -0.299951
vn -0.519528 -0.800075 -0.299951
vn -0.519528 -0.800075 -0.299951
vn -0.519528 -0.800075 -0.299951
vn 0.000000 -0.800071 -0.599905
vn 0.000000 -0.800071 -0.599905
vn 0.000000 -0.800071 -0.599905
vn 0.000000 -0.800071 -0.599905
vn 0.519528 -0.800075 -0.299951
vn 0.519528 -0.800075 -0.299951
vn 0.519528 -0.800075 -0.299951
vn 0.519528 -0.800075 -0.299951
vn 0.519528 -0.800075 0.299951
vn 0.519528 -0.800075 0.299950
vn 0.519528 -0.800075 0.299950
vn 0.519528 -0.800075 0.299950
vn -0.000000 -0.800071 0.599905
vn -0.000000 -0.800072 0.599905
vn -0.000000 -0.800072 0.599905
vn -0.000000 -0.800071 0.599905
vn -0.000000 -0.800072 0.599905
vn -0.074850 0.167934 0.982953
vn -0.074850 0.167934 0.982953
vn -0.074850 0.167934 0.982953
vn -0.074850 0.167934 0.982953
vn 0.074848 0.167934 0.982953
vn 0.074848 0.167934 0.982953
vn 0.074848 0.167934 0.982953
vn 0.074848 0.167934 0.982953
vn 0.000000 -0.152633 0.988283
vn 0.000000 -0.152633 0.988283
vn 0.000000 -0.152633 0.988283
vn -0.948932 -0.229313 0.216665
vn -0.948932 -0.229313 0.216665
vn -0.948932 -0.229313 0.216665
vn -0.000000 0.875343 0.483503
vn -0.000000 0.875343 0.483503
vn -0.000000 0.875343 0.483503
vn -0.000000 0.875343 0.483503
vn 0.418726 0.875343 0.241752
vn 0.418726 0.875343 0.241752
vn 0.418726 0.875343 0.241752
vn 0.418726 0.875343 0.241752
vn 0.418726 0.875343 -0.241752
vn 0.418726 0.875343 -0.241752
vn 0.418726 0.875343 -0.241752
vn 0.418726 0.875343 -0.241752
vn 0.000000 0.875343 -0.483503
vn 0.000000 0.875343 -0.483503
vn 0.000000 0.875343 -0.483503
vn 0.000000 0.875343 -0.483503
vn -0.418726 0.875343 -0.241752
vn -0.418726 0.875343 -0.241752
vn -0.418726 0.875343 -0.241752
vn -0.418726 0.875343 -0.241752
vn -0.418726 0.875343 0.241752
vn -0.418726 0.875343 0.241752
vn -0.418726 0.875343 0.241752
vn -0.418726 0.875343 0.241752
vn -0.000000 -1.000000 -0.000000
vn -0.000000 -1.000000 -0.000000
vn -0.000000 -1.000000 -0.000000
vn -0.000000 -1.000000 -0.000000
vn -0.000000 -1.000000 -0.000000
vn -0.000000 -1.000000 -0.000000
vn -0.000000 -1.000000 -0.000000
vn -0.000000 -1.000000 -0.000000
vn -0.000000 -1.000000 -0.000000
vn -0.000000 -1.000000 -0.000000
s off
f 1/31/1 2/32/2 16/33/3 17/34/4
f 2/2/5 3/5/6 15/6/7 16/3/8
f 3/35/9 4/36/10 14/37/11 15/38/12
f 20/9/13 21/10/14 23/11/15
f 5/39/16 6/40/17 18/41/18 19/42/19
f 6/13/20 1/1/21 17/4/22 18/14/23
f 28/20/24 29/55/25 13/56/26
f 29/55/27 30/57/28 13/56/29
f 30/57/30 25/58/31 13/56/32
f 25/58/33 26/59/34 13/56/35
f 26/59/36 27/60/37 13/56/38
f 27/60/39 28/20/40 13/56/41
f 15/38/42 14/37/43 10/43/44 9/44/45
f 16/3/46 15/6/47 9/26/48 8/27/49
f 17/34/50 16/33/51 8/45/52 7/46/53
f 18/14/54 17/4/55 7/28/56 12/29/57
f 19/42/58 18/41/59 12/47/60 11/48/61
f 14/8/62 20/9/63 19/15/64 11/30/65 10/25/66
f 4/7/67 21/10/68 20/9/69 14/8/70
f 20/9/71 22/16/72 5/12/73 19/15/74
f 20/61/75 23/62/76 24/63/77
f 20/9/78 24/17/79 22/16/80
f 10/18/81 11/19/82 26/21/83 25/22/84
f 11/19/85 12/23/86 27/24/87 26/21/88
f 12/23/89 7/49/90 28/50/91 27/24/92
f 7/49/93 8/51/94 29/52/95 28/50/96
f 8/51/97 9/53/98 30/54/99 29/52/100
f 9/53/101 10/18/102 25/22/103 30/54/104
f 2/64/105 1/65/106 6/66/107 5/67/108 22/68/109 24/69/110 23/70/111 21/71/112 4/72/113 3/73/114
