# This file uses meters as units for non-parametric coordinates.

v -0.000031 0.000000 -51.382080
v -56.413116 0.000000 -51.382080
v -84.619415 0.000000 -2.527039
v -56.413116 0.000000 46.327942
v -0.000031 54.346340 -51.382080
v -56.413116 54.346340 -51.382080
v -84.619415 54.346340 -2.527039
v -56.413116 54.346340 46.327942
v -0.000031 54.346340 46.327942
v 22.480713 78.592934 -2.527039
v -28.206543 83.527756 -2.527039
v -52.760406 49.602573 40.001282
v -77.314209 49.602573 -2.527100
v -52.760406 49.602573 -45.055359
v -0.000031 49.602573 -45.055359
v -0.000031 49.602573 40.001343
v -31.069244 78.592934 2.431396
v -25.343903 78.592934 2.431396
v -22.481262 78.592934 -2.527039
v -25.343903 78.592934 -7.485474
v -31.069244 78.592934 -7.485474
v -33.931885 78.592934 -2.527039
v 25.343628 78.592934 2.431396
v 25.343628 78.592934 -7.485474
v 56.412842 0.000000 -51.382080
v 56.412842 0.000000 46.327942
v 84.618988 0.000000 -2.527039
v 56.412842 54.346340 -51.382080
v 56.412842 54.346340 46.327942
v 84.618988 54.346340 -2.527039
v 28.206268 83.527756 -2.527039
v 52.760162 49.602573 -45.055481
v 77.313843 49.602573 -2.527039
v 52.760162 49.602573 40.001343
v 31.069153 78.592934 2.431396
v 33.931885 78.592934 -2.527039
v 31.069153 78.592934 -7.485474
v -0.807831 76.076889 -2.527039
v 14.103027 -0.000067 51.382019
v -14.103271 -0.000067 51.382019
v -10.237549 -0.000067 32.340637
v 10.237549 -0.000067 32.340637
v -28.854553 -0.000067 47.799744
v 28.854279 -0.000067 47.799744
vt 0.087433 0.901405
vt 0.087478 0.901913
vt 0.086944 0.900991
vt 0.087053 0.901553
vt 0.087295 0.900530
vt 0.087359 0.901152
vt 0.088089 0.901110
vt 0.450958 0.285244
vt 0.450958 0.285244
vt 0.008892 0.198531
vt 0.450958 0.285240
vt 0.450958 0.285240
vt 0.450958 0.285240
vt 0.450958 0.285240
vt 0.087295 0.901153
vt 0.086944 0.901614
vt 0.087433 0.902027
vt 0.450958 0.285240
vt 0.450958 0.285244
vt 0.088134 0.901105
vt 0.008897 0.942811
vt 0.008911 0.942853
vt 0.008910 0.945418
vt 0.008898 0.945382
vt 0.008918 0.942186
vt 0.008912 0.941477
vt 0.008911 0.944221
vt 0.008917 0.944838
vt 0.008912 0.944389
vt 0.008918 0.945098
vt 0.008911 0.945764
vt 0.008897 0.945723
vt 0.450958 0.285244
vt 0.450958 0.285240
vt 0.450958 0.285244
vt 0.450958 0.285240
vt 0.450958 0.285244
vt 0.450958 0.285240
vt 0.450958 0.285240
vt 0.450958 0.285244
vt 0.008889 0.198535
vt 0.008891 0.190855
vt 0.008888 0.198750
vt 0.008889 0.198961
vt 0.008892 0.198956
vt 0.008894 0.198741
vt 0.450958 0.285240
vt 0.450958 0.285244
vt 0.088980 0.909097
vt 0.085777 0.909139
vt 0.085966 0.911705
vt 0.088754 0.911669
vt 0.088689 0.907722
vt 0.090436 0.908389
vt 0.090021 0.911052
vt 0.088500 0.910471
vt 0.008897 0.945483
vt 0.008898 0.946113
vt 0.008898 0.946524
vt 0.008897 0.945976
vt 0.008898 0.946633
vt 0.008892 0.198531
vt 0.008889 0.198535
vt 0.008891 0.190855
vt 0.008888 0.198750
vt 0.008889 0.198961
vt 0.008892 0.198956
vt 0.008894 0.198741
vt 0.085777 0.912051
vt 0.088980 0.912009
vt 0.008897 0.946003
vt 0.008903 0.945688
vt 0.090436 0.911301
vt 0.088689 0.910634
vt 0.008899 0.945553
vt 0.008899 0.945517
vt 0.008903 0.945661
vt 0.008901 0.945051
vt 0.008899 0.944997
vt 0.450958 0.285240
vt 0.450958 0.285240
vt 0.450958 0.285240
vt 0.088563 0.901809
vt 0.088278 0.902175
vt 0.088553 0.902546
vt 0.088826 0.902559
vt 0.088972 0.902587
vt 0.089012 0.902444
vt 0.089215 0.902446
vt 0.087715 0.900506
vt 0.087925 0.900494
vt 0.087505 0.900518
vt 0.087505 0.900518
vt 0.008902 0.945275
vt 0.008902 0.945047
vt 0.089122 0.901814
vt 0.089681 0.901818
vt 0.089956 0.902189
vt 0.089671 0.902555
vt 0.089398 0.902564
vt 0.089251 0.902589
vn 0.000000 0.126521 -0.991964
vn 0.000000 0.126521 -0.991964
vn 0.000000 0.126521 -0.991964
vn 0.000000 0.126521 -0.991964
vn -0.859067 0.126520 -0.495981
vn -0.859066 0.126520 -0.495981
vn -0.859067 0.126520 -0.495981
vn -0.859066 0.126520 -0.495981
vn -0.859067 0.126520 0.495981
vn -0.859067 0.126520 0.495981
vn -0.859067 0.126520 0.495981
vn -0.859067 0.126520 0.495981
vn 0.000000 0.708796 -0.705414
vn 0.000000 0.708796 -0.705414
vn 0.000000 0.708796 -0.705414
vn -0.610917 0.708789 -0.352702
vn -0.610917 0.708789 -0.352702
vn -0.610917 0.708789 -0.352702
vn -0.610917 0.708788 0.352703
vn -0.610917 0.708789 0.352703
vn -0.610917 0.708789 0.352703
vn 0.000000 0.708796 0.705414
vn 0.000000 0.708796 0.705414
vn 0.000000 0.708796 0.705414
vn 0.610916 0.708789 0.352703
vn 0.610916 0.708789 0.352703
vn 0.610916 0.708789 0.352703
vn 0.610917 0.708789 -0.352703
vn 0.610917 0.708789 -0.352703
vn 0.610917 0.708789 -0.352703
vn -0.519535 -0.800070 0.299953
vn -0.519535 -0.800070 0.299953
vn -0.519535 -0.800070 0.299953
vn -0.519535 -0.800070 0.299953
vn -0.519535 -0.800070 -0.299953
vn -0.519535 -0.800070 -0.299953
vn -0.519535 -0.800070 -0.299953
vn -0.519535 -0.800070 -0.299953
vn 0.000000 -0.800072 -0.599904
vn 0.000000 -0.800072 -0.599904
vn 0.000000 -0.800072 -0.599904
vn 0.000000 -0.800072 -0.599904
vn -0.000000 -0.800072 0.599904
vn -0.000000 -0.800072 0.599904
vn -0.000000 -0.800072 0.599904
vn -0.000000 -0.800072 0.599904
vn -0.018123 0.146755 0.989007
vn -0.018123 0.146755 0.989007
vn -0.018123 0.146755 0.989007
vn -0.018123 0.146755 0.989007
vn 0.000000 0.875342 0.483504
vn 0.000000 0.875342 0.483504
vn 0.000000 0.875342 0.483504
vn 0.000000 0.875342 0.483504
vn 0.115064 0.991134 0.066429
vn 0.115064 0.991134 0.066429
vn 0.115064 0.991134 0.066429
vn 0.115064 0.991134 -0.066429
vn 0.115064 0.991134 -0.066429
vn 0.115064 0.991134 -0.066429
vn 0.000000 0.875342 -0.483504
vn 0.000000 0.875342 -0.483504
vn 0.000000 0.875342 -0.483504
vn 0.000000 0.875342 -0.483504
vn -0.418727 0.875343 -0.241750
vn -0.418727 0.875343 -0.241750
vn -0.418727 0.875343 -0.241750
vn -0.418727 0.875343 -0.241750
vn -0.418727 0.875343 0.241750
vn -0.418727 0.875343 0.241750
vn -0.418727 0.875343 0.241750
vn -0.418727 0.875343 0.241750
vn 0.172808 0.901003 -0.397907
vn 0.172808 0.901004 -0.397907
vn 0.172808 0.901004 -0.397907
vn 0.000000 0.126521 -0.991964
vn 0.000000 0.126521 -0.991964
vn 0.000000 0.126521 -0.991964
vn 0.000000 0.126521 -0.991964
vn 0.859067 0.126520 0.495981
vn 0.859067 0.126520 0.495981
vn 0.859067 0.126520 0.495981
vn 0.859067 0.126520 0.495981
vn 0.859067 0.126520 -0.495981
vn 0.859067 0.126520 -0.495981
vn 0.859067 0.126520 -0.495981
vn 0.859067 0.126520 -0.495981
vn 0.000000 0.708796 -0.705414
vn 0.000000 0.708796 -0.705414
vn 0.000000 0.708796 -0.705414
vn -0.610894 0.708797 -0.352725
vn -0.610894 0.708797 -0.352725
vn -0.610894 0.708797 -0.352725
vn -0.610895 0.708796 0.352726
vn -0.610895 0.708796 0.352726
vn -0.610895 0.708796 0.352726
vn 0.000000 0.708796 0.705414
vn 0.000000 0.708796 0.705414
vn 0.000000 0.708796 0.705414
vn 0.610902 0.708805 0.352695
vn 0.610902 0.708805 0.352695
vn 0.610902 0.708805 0.352695
vn 0.610902 0.708805 -0.352695
vn 0.610902 0.708805 -0.352695
vn 0.610902 0.708805 -0.352695
vn 0.000000 -0.800072 -0.599904
vn 0.000000 -0.800072 -0.599904
vn 0.000000 -0.800072 -0.599904
vn 0.000000 -0.800072 -0.599904
vn 0.519535 -0.800069 -0.299953
vn 0.519535 -0.800069 -0.299953
vn 0.519535 -0.800070 -0.299953
vn 0.519535 -0.800069 -0.299953
vn 0.519535 -0.800070 0.299953
vn 0.519535 -0.800070 0.299953
vn 0.519535 -0.800070 0.299953
vn 0.519535 -0.800070 0.299953
vn 0.000000 -0.800072 0.599904
vn 0.000000 -0.800072 0.599904
vn 0.000000 -0.800072 0.599904
vn 0.000000 -0.800072 0.599904
vn 0.018123 0.146755 0.989007
vn 0.018123 0.146755 0.989007
vn 0.018123 0.146755 0.989007
vn 0.018123 0.146755 0.989007
vn -0.000000 0.875342 0.483504
vn -0.000000 0.875342 0.483504
vn -0.000000 0.875342 0.483504
vn -0.000000 0.875342 0.483504
vn 0.418728 0.875342 0.241751
vn 0.418728 0.875342 0.241751
vn 0.418728 0.875342 0.241751
vn 0.418728 0.875342 0.241751
vn 0.418728 0.875342 -0.241751
vn 0.418728 0.875342 -0.241751
vn 0.418728 0.875342 -0.241751
vn 0.418728 0.875342 -0.241751
vn 0.000000 0.875342 -0.483504
vn 0.000000 0.875342 -0.483504
vn 0.000000 0.875342 -0.483504
vn 0.000000 0.875342 -0.483504
vn 0.172808 0.901004 0.397907
vn 0.172808 0.901004 0.397907
vn 0.172808 0.901003 0.397907
vn -0.163088 0.900455 0.403216
vn -0.163088 0.900455 0.403217
vn -0.163088 0.900455 0.403217
vn -0.107211 0.992308 0.061900
vn -0.107211 0.992307 0.061901
vn -0.107211 0.992308 0.061900
vn -0.107211 0.992308 -0.061900
vn -0.107211 0.992308 -0.061900
vn -0.107211 0.992307 -0.061900
vn -0.163088 0.900455 -0.403217
vn -0.163088 0.900455 -0.403217
vn -0.163088 0.900455 -0.403217
vn 0.954444 -0.226914 0.193770
vn 0.954444 -0.226914 0.193770
vn 0.954444 -0.226914 0.193770
vn -0.954447 -0.226913 0.193757
vn -0.954447 -0.226913 0.193757
vn -0.954447 -0.226913 0.193757
vn 0.000000 -0.152633 0.988283
vn 0.000000 -0.152633 0.988283
vn 0.000000 -0.152633 0.988283
vn -0.226645 0.278572 0.933290
vn -0.226645 0.278572 0.933290
vn -0.226645 0.278572 0.933290
vn 0.226645 0.278571 0.933290
vn 0.226645 0.278571 0.933290
vn 0.226645 0.278571 0.933290
vn 0.000000 -1.000000 -0.000000
vn 0.000000 -1.000000 -0.000000
vn 0.000000 -1.000000 -0.000000
vn 0.000000 -1.000000 -0.000000
vn 0.000000 -1.000000 -0.000000
vn 0.000000 -1.000000 -0.000000
vn 0.000000 -1.000000 -0.000000
vn 0.000000 -1.000000 -0.000000
vn 0.000000 -1.000000 -0.000000
vn 0.000000 -1.000000 -0.000000
vn 0.000000 -1.000000 -0.000000
vn 0.000000 -1.000000 -0.000000
vn 0.000000 -1.000000 -0.000000
s off
f 1/21/1 2/22/2 14/23/3 15/24/4
f 2/1/5 3/3/6 13/4/7 14/2/8
f 3/25/9 4/26/10 12/27/11 13/28/12
f 20/10/13 21/41/14 11/42/15
f 21/41/16 22/43/17 11/42/18
f 22/43/19 17/44/20 11/42/21
f 17/44/22 18/45/23 11/42/24
f 18/45/25 19/46/26 11/42/27
f 19/46/28 20/10/29 11/42/30
f 13/28/31 12/27/32 8/29/33 7/30/34
f 14/2/35 13/4/36 7/16/37 6/17/38
f 15/24/39 14/23/40 6/31/41 5/32/42
f 12/6/43 16/7/44 9/20/45 8/15/46
f 4/5/47 43/93/48 16/7/49 12/6/50
f 8/8/51 9/9/52 18/11/53 17/12/54
f 19/13/55 18/11/56 38/14/57
f 19/13/58 38/14/59 20/18/60
f 5/19/61 6/33/62 21/34/63 20/18/64
f 6/33/65 7/35/66 22/36/67 21/34/68
f 7/35/69 8/8/70 17/12/71 22/36/72
f 20/18/73 38/14/74 5/19/75
f 25/49/76 1/50/77 15/51/78 32/52/79
f 26/53/80 27/54/81 33/55/82 34/56/83
f 27/57/84 25/58/85 32/59/86 33/60/87
f 37/62/88 24/63/89 31/64/90
f 24/63/91 10/65/92 31/64/93
f 10/65/94 23/66/95 31/64/96
f 23/66/97 35/67/98 31/64/99
f 35/67/100 36/68/101 31/64/102
f 36/68/103 37/62/104 31/64/105
f 32/52/106 15/51/107 5/69/108 28/70/109
f 33/60/110 32/59/111 28/61/112 30/71/113
f 34/56/114 33/55/115 30/73/116 29/74/117
f 16/72/118 34/75/119 29/76/120 9/77/121
f 16/72/122 44/78/123 26/79/124 34/75/125
f 9/9/126 29/37/127 35/38/128 23/39/129
f 29/37/130 30/40/131 36/47/132 35/38/133
f 30/40/134 28/48/135 37/80/136 36/47/137
f 28/48/138 5/19/139 24/81/140 37/80/141
f 9/9/142 38/14/143 18/11/144
f 9/9/145 23/39/146 38/14/147
f 38/14/148 23/39/149 10/82/150
f 38/14/151 10/82/152 24/81/153
f 5/19/154 38/14/155 24/81/156
f 16/7/157 40/90/158 41/91/159
f 16/72/160 42/94/161 39/95/162
f 16/7/163 41/91/164 42/92/165
f 16/7/166 43/93/167 40/90/168
f 16/72/169 39/95/170 44/78/171
f 1/96/172 25/97/173 27/98/174 26/99/175 44/100/176 39/101/177 42/89/178 41/88/179 40/87/180 43/86/181 4/85/182 3/84/183 2/83/184
