# This file uses meters as units for non-parametric coordinates.

v -76.759857 87.643814 -22.649048
v 76.759735 87.643814 -22.649048
v -76.759857 87.643814 22.649048
v 76.759735 87.643814 22.649048
v -76.759857 0.000001 22.679413
v 76.759735 0.000001 22.679413
v -76.759857 12.074296 22.679413
v 76.759735 12.074296 22.679413
v -76.759857 75.569534 22.679413
v 76.759735 75.569534 22.679413
v 76.759735 70.642342 20.725815
v -76.759857 70.642342 20.725815
v 76.759735 17.001453 20.725815
v -76.759857 17.001453 20.725815
v 10.793793 37.948036 20.725815
v 10.793793 45.491093 20.725815
v -10.794128 45.491093 20.725815
v -10.794128 37.948036 20.725815
v 21.570679 65.269409 20.725815
v 21.570679 57.726353 20.725815
v 43.158478 65.269409 20.725815
v 43.158478 57.726353 20.725815
v -41.597290 38.600285 20.725815
v -41.597290 31.057262 20.725815
v -63.185120 38.600285 20.725815
v -63.185120 31.057262 20.725815
v -76.759857 0.000001 -22.679413
v 76.759735 0.000001 -22.679413
v -76.759857 12.074296 -22.679413
v 76.759735 12.074296 -22.679413
v -76.759857 75.569534 -22.679413
v 76.759735 75.569534 -22.679413
v 76.759735 70.642342 -20.725845
v -76.759857 70.642342 -20.725845
v 76.759735 17.001453 -20.725845
v -76.759857 17.001453 -20.725845
v -10.838531 26.722813 -20.725845
v -10.838531 34.265869 -20.725845
v -32.426605 34.265869 -20.725845
v -32.426605 26.722813 -20.725845
v 37.787994 48.289364 -20.725845
v 37.787994 40.746372 -20.725845
v 59.376007 48.289364 -20.725845
v 59.376007 40.746372 -20.725845
v -45.716980 64.701721 -20.725845
v -45.716980 57.158726 -20.725845
v -67.304871 64.701721 -20.725845
v -67.304871 57.158726 -20.725845
vt 0.181584 0.197382
vt 0.181584 0.195933
vt 0.181572 0.195799
vt 0.181572 0.197248
vt 0.179827 0.648985
vt 0.179817 0.649437
vt 0.179669 0.649411
vt 0.179666 0.648957
vt 0.181572 0.188178
vt 0.181584 0.188311
vt 0.181584 0.186862
vt 0.181572 0.186728
vt 0.179817 0.654217
vt 0.179827 0.654644
vt 0.179666 0.654616
vt 0.179669 0.654191
vt 0.181511 0.145903
vt 0.181511 0.151138
vt 0.181566 0.151137
vt 0.181566 0.145902
vt 0.181566 0.193167
vt 0.181566 0.193169
vt 0.181566 0.193169
vt 0.181566 0.193167
vt 0.181566 0.193169
vt 0.181568 0.193169
vt 0.181568 0.193169
vt 0.181566 0.193169
vt 0.181568 0.193167
vt 0.181568 0.193167
vt 0.181566 0.193167
vt 0.181566 0.193167
vt 0.181566 0.148202
vt 0.181566 0.149558
vt 0.181572 0.149531
vt 0.181572 0.148175
vt 0.181568 0.193167
vt 0.181601 0.147267
vt 0.181601 0.145911
vt 0.181595 0.145938
vt 0.181595 0.147294
vt 0.181568 0.193169
vt 0.181568 0.193167
vt 0.181568 0.193169
vt 0.181584 0.197382
vt 0.181584 0.195933
vt 0.181572 0.195799
vt 0.181572 0.197248
vt 0.179827 0.648985
vt 0.179817 0.649437
vt 0.179669 0.649411
vt 0.179666 0.648957
vt 0.181572 0.188178
vt 0.181584 0.188311
vt 0.181584 0.186862
vt 0.181572 0.186728
vt 0.179817 0.654217
vt 0.179827 0.654644
vt 0.179666 0.654616
vt 0.179669 0.654191
vt 0.181511 0.145903
vt 0.181511 0.151138
vt 0.181566 0.151137
vt 0.181566 0.145902
vt 0.181566 0.193167
vt 0.181566 0.193169
vt 0.181566 0.193169
vt 0.181566 0.193167
vt 0.181566 0.193169
vt 0.181568 0.193169
vt 0.181568 0.193169
vt 0.181566 0.193169
vt 0.181568 0.193167
vt 0.181568 0.193167
vt 0.181566 0.193167
vt 0.181566 0.193167
vt 0.181566 0.148202
vt 0.181566 0.149558
vt 0.181572 0.149531
vt 0.181572 0.148175
vt 0.181568 0.193167
vt 0.181601 0.147267
vt 0.181601 0.145911
vt 0.181595 0.145938
vt 0.181595 0.147294
vt 0.181568 0.193169
vt 0.181568 0.193167
vt 0.181568 0.193169
vt 0.181623 0.147079
vt 0.181594 0.147315
vt 0.181652 0.148708
vt 0.181679 0.148486
vt 0.181679 0.148434
vt 0.181653 0.148644
vt 0.181652 0.148850
vt 0.181679 0.148628
vt 0.181653 0.148012
vt 0.181679 0.147803
vt 0.181679 0.147738
vt 0.181652 0.147961
vt 0.181652 0.147802
vt 0.181680 0.147566
vt 0.181622 0.147251
vt 0.181595 0.147473
vt 0.181621 0.147947
vt 0.181596 0.148157
vt 0.181596 0.147525
vt 0.181621 0.147315
vt 0.181595 0.148363
vt 0.181595 0.148221
vt 0.181622 0.147999
vt 0.181622 0.148141
vt 0.460999 0.283989
vt 0.460999 0.283989
vt 0.460999 0.283989
vt 0.460999 0.283989
vn 0.000000 0.000000 1.000000
vn 0.000000 0.000000 1.000000
vn 0.000000 0.000000 1.000000
vn 0.000000 0.000000 1.000000
vn 0.000000 -1.000000 0.000000
vn 0.000000 -1.000000 0.000000
vn 0.000000 -1.000000 0.000000
vn 0.000000 -1.000000 0.000000
vn 0.000000 0.368579 0.929597
vn 0.000000 0.368579 0.929597
vn 0.000000 0.368579 0.929597
vn 0.000000 0.368579 0.929597
vn 0.000000 0.002514 0.999997
vn 0.000000 0.002514 0.999997
vn 0.000000 0.002514 0.999997
vn 0.000000 0.002514 0.999997
vn 0.000000 -0.368579 0.929597
vn 0.000000 -0.368579 0.929597
vn 0.000000 -0.368579 0.929597
vn 0.000000 -0.368579 0.929597
vn 0.000000 0.000000 1.000000
vn 0.000000 0.000000 1.000000
vn 0.000000 0.000000 1.000000
vn 0.000000 0.000000 1.000000
vn -0.000000 0.000000 1.000000
vn -0.000000 0.000000 1.000000
vn -0.000000 0.000000 1.000000
vn -0.000000 0.000000 1.000000
vn 0.000000 0.000000 1.000000
vn 0.000000 0.000000 1.000000
vn 0.000000 0.000000 1.000000
vn 0.000000 0.000000 1.000000
vn 0.000000 0.000000 1.000000
vn 0.000000 0.000000 1.000000
vn 0.000000 0.000000 1.000000
vn 0.000000 0.000000 1.000000
vn 0.000000 0.000000 1.000000
vn 0.000000 0.000000 1.000000
vn 0.000000 0.000000 1.000000
vn 0.000000 0.000000 1.000000
vn 0.000000 0.000000 1.000000
vn 0.000000 0.000000 1.000000
vn 0.000000 0.000000 1.000000
vn 0.000000 0.000000 1.000000
vn 0.000000 0.000000 1.000000
vn 0.000000 0.000000 1.000000
vn 0.000000 0.000000 1.000000
vn 0.000000 0.000000 1.000000
vn 0.000000 0.000000 1.000000
vn 0.000000 0.000000 1.000000
vn 0.000000 0.000000 1.000000
vn 0.000000 0.000000 1.000000
vn 0.000000 0.000000 1.000000
vn 0.000000 0.000000 1.000000
vn 0.000000 0.000000 1.000000
vn 0.000000 0.000000 1.000000
vn 0.000000 0.000000 1.000000
vn 0.000000 0.000000 1.000000
vn 0.000000 0.000000 1.000000
vn 0.000000 0.000000 1.000000
vn 0.000000 0.000000 1.000000
vn 0.000000 0.000000 1.000000
vn 0.000000 0.000000 1.000000
vn 0.000000 0.000000 1.000000
vn 0.000000 -0.000000 1.000000
vn 0.000000 -0.000000 1.000000
vn 0.000000 -0.000000 1.000000
vn 0.000000 -0.000000 1.000000
vn 0.000000 -0.000000 1.000000
vn 0.000000 -0.000000 1.000000
vn 0.000000 0.000000 -1.000000
vn 0.000000 0.000000 -1.000000
vn 0.000000 0.000000 -1.000000
vn 0.000000 0.000000 -1.000000
vn 0.000000 0.368579 -0.929597
vn 0.000000 0.368579 -0.929597
vn 0.000000 0.368579 -0.929597
vn 0.000000 0.368579 -0.929597
vn 0.000000 0.002514 -0.999997
vn 0.000000 0.002514 -0.999997
vn 0.000000 0.002514 -0.999997
vn 0.000000 0.002514 -0.999997
vn 0.000000 -0.368579 -0.929597
vn 0.000000 -0.368579 -0.929597
vn 0.000000 -0.368579 -0.929597
vn 0.000000 -0.368579 -0.929597
vn 0.000000 0.000000 -1.000000
vn 0.000000 0.000000 -1.000000
vn 0.000000 0.000000 -1.000000
vn 0.000000 0.000000 -1.000000
vn -0.000000 0.000000 -1.000000
vn -0.000000 0.000000 -1.000000
vn -0.000000 0.000000 -1.000000
vn -0.000000 0.000000 -1.000000
vn -0.000000 0.000000 -1.000000
vn -0.000000 0.000000 -1.000000
vn -0.000000 0.000000 -1.000000
vn -0.000000 0.000000 -1.000000
vn -0.000000 0.000000 -1.000000
vn -0.000000 0.000000 -1.000000
vn -0.000000 0.000000 -1.000000
vn -0.000000 0.000000 -1.000000
vn 0.000000 0.000000 -1.000000
vn 0.000000 0.000000 -1.000000
vn 0.000000 0.000000 -1.000000
vn 0.000000 0.000000 -1.000000
vn 0.000000 0.000000 -1.000000
vn 0.000000 0.000000 -1.000000
vn 0.000000 0.000000 -1.000000
vn 0.000000 0.000000 -1.000000
vn 0.000000 0.000000 -1.000000
vn 0.000000 0.000000 -1.000000
vn 0.000000 0.000000 -1.000000
vn 0.000000 0.000000 -1.000000
vn 0.000000 0.000000 -1.000000
vn 0.000000 0.000000 -1.000000
vn 0.000000 0.000000 -1.000000
vn 0.000000 0.000000 -1.000000
vn 0.000000 0.000000 -1.000000
vn 0.000000 0.000000 -1.000000
vn 0.000000 0.000000 -1.000000
vn 0.000000 0.000000 -1.000000
vn 0.000000 0.000000 -1.000000
vn 0.000000 0.000000 -1.000000
vn 0.000000 0.000000 -1.000000
vn 0.000000 0.000000 -1.000000
vn -0.000000 0.000000 -1.000000
vn -0.000000 0.000000 -1.000000
vn -0.000000 0.000000 -1.000000
vn -0.000000 0.000000 -1.000000
vn 0.000000 0.000000 -1.000000
vn 0.000000 0.000000 -1.000000
vn 0.000000 0.000000 -1.000000
vn 0.000000 0.000000 -1.000000
vn 0.000000 0.000000 -1.000000
vn 0.000000 0.000000 -1.000000
vn -1.000000 -0.000000 0.000000
vn -1.000000 -0.000000 0.000000
vn -1.000000 -0.000000 0.000000
vn -1.000000 -0.000000 0.000000
vn -1.000000 0.000000 0.000000
vn -1.000000 0.000000 0.000000
vn -1.000000 0.000000 0.000000
vn -1.000000 0.000000 0.000000
vn -1.000000 0.000000 0.000000
vn -1.000000 0.000000 0.000000
vn -1.000000 0.000000 0.000000
vn -1.000000 0.000000 0.000000
vn -1.000000 0.000000 0.000000
vn -1.000000 0.000000 0.000000
vn -1.000000 0.000000 0.000000
vn -1.000000 0.000000 0.000000
vn -1.000000 0.000000 0.000000
vn -1.000000 0.000000 0.000000
vn -1.000000 0.000000 0.000000
vn -1.000000 0.000000 0.000000
vn 0.000000 1.000000 0.000000
vn 0.000000 1.000000 0.000000
vn 0.000000 1.000000 0.000000
vn 0.000000 1.000000 0.000000
vn 1.000000 0.000000 0.000000
vn 1.000000 0.000000 0.000000
vn 1.000000 0.000000 0.000000
vn 1.000000 0.000000 0.000000
vn 1.000000 0.000000 0.000000
vn 1.000000 0.000000 0.000000
vn 1.000000 0.000000 0.000000
vn 1.000000 0.000000 0.000000
vn 1.000000 -0.000002 0.000000
vn 1.000000 -0.000002 0.000000
vn 1.000000 -0.000002 0.000000
vn 1.000000 -0.000002 0.000000
vn 1.000000 0.000000 0.000000
vn 1.000000 0.000000 0.000000
vn 1.000000 0.000000 0.000000
vn 1.000000 0.000000 0.000000
vn 1.000000 0.000002 0.000000
vn 1.000000 0.000002 0.000000
vn 1.000000 0.000002 0.000000
vn 1.000000 0.000002 0.000000
s off
f 6/1/1 8/2/2 7/3/3 5/4/4
f 28/45/5 6/1/6 5/4/7 27/48/8
f 8/5/9 13/6/10 14/7/11 7/8/12
f 9/9/13 10/10/14 4/11/15 3/12/16
f 11/13/17 10/14/18 9/15/19 12/16/20
f 15/17/21 16/18/22 17/19/23 18/20/24
f 13/21/25 11/22/26 21/23/27 22/24/28
f 19/25/29 23/26/30 17/27/31 16/28/32
f 23/26/33 24/29/34 18/30/35 17/27/36
f 15/31/37 13/21/38 22/24/39 20/32/40
f 20/32/41 19/25/42 16/28/43 15/31/44
f 22/33/45 21/34/46 19/35/47 20/36/48
f 14/37/49 13/21/50 15/31/51 18/30/52
f 25/38/53 26/39/54 24/40/55 23/41/56
f 12/42/57 14/37/58 26/43/59 25/44/60
f 14/37/61 18/30/62 24/29/63 26/43/64
f 11/22/65 12/42/66 25/44/67 23/26/68 19/25/69 21/23/70
f 28/45/71 27/48/72 29/47/73 30/46/74
f 30/49/75 29/52/76 36/51/77 35/50/78
f 31/53/79 1/56/80 2/55/81 32/54/82
f 33/57/83 34/60/84 31/59/85 32/58/86
f 37/61/87 40/64/88 39/63/89 38/62/90
f 35/65/91 44/68/92 43/67/93 33/66/94
f 41/69/95 38/72/96 39/71/97 45/70/98
f 45/70/99 39/71/100 40/74/101 46/73/102
f 37/75/103 42/76/104 44/68/105 35/65/106
f 42/76/107 37/75/108 38/72/109 41/69/110
f 44/77/111 42/80/112 41/79/113 43/78/114
f 36/81/115 40/74/116 37/75/117 35/65/118
f 47/82/119 45/85/120 46/84/121 48/83/122
f 34/86/123 47/88/124 48/87/125 36/81/126
f 36/81/127 48/87/128 46/73/129 40/74/130
f 33/66/131 43/67/132 41/69/133 45/70/134 47/88/135 34/86/136
f 29/91/137 7/92/138 14/93/139 36/94/140
f 27/95/141 5/96/142 7/92/143 29/91/144
f 34/97/145 12/98/146 9/99/147 31/100/148
f 36/94/149 14/93/150 12/98/151 34/97/152
f 31/100/153 9/99/154 3/102/155 1/101/156
f 2/113/157 1/114/158 3/115/159 4/116/160
f 10/103/161 32/104/162 2/90/163 4/89/164
f 13/105/165 35/106/166 33/107/167 11/108/168
f 11/108/169 33/107/170 32/104/171 10/103/172
f 28/109/173 30/110/174 8/111/175 6/112/176
f 8/111/177 30/110/178 35/106/179 13/105/180
