# This file uses meters as units for non-parametric coordinates.

v 11.416016 80.800781 -19.772858
v -11.415222 80.800781 -19.772858
v -22.831726 80.800781 0.000000
v -11.415222 80.800781 19.772736
v 11.416016 80.800781 19.772736
v 22.832214 80.800781 0.000000
v 11.416016 114.466217 -19.772858
v -11.415222 114.466217 -19.772858
v -22.831726 114.466217 0.000000
v -11.415222 114.466217 19.772736
v 11.416016 114.466217 19.772736
v 22.832214 114.466217 0.000000
v 0.000244 80.800781 0.000000
v 13.165283 116.623779 -22.802612
v -13.164673 116.623779 -22.802612
v 0.000244 134.554886 0.000000
v -26.329956 116.623779 0.000000
v -13.164673 116.623779 22.802612
v 13.165283 116.623779 22.802612
v 26.330444 116.623779 0.000000
v 11.416016 109.658394 19.772736
v -11.415222 109.658394 19.772736
v -22.831726 109.658394 0.000000
v -11.415222 109.658394 -19.772858
v 11.416016 109.658394 -19.772858
v 22.832214 109.658394 0.000000
v 11.416016 104.369881 19.772736
v -11.415222 105.831566 19.772736
v -22.831726 104.369881 0.000000
v -11.415222 105.831566 -19.772858
v 11.416016 104.369881 -19.772858
v 22.832214 105.831566 0.000000
v 11.416016 90.128159 19.772736
v -11.415222 91.231178 19.772736
v -22.831726 90.128159 0.000000
v -11.415222 91.231178 -19.772858
v 11.416016 90.128159 -19.772858
v 22.832214 91.231178 0.000000
v 11.416016 86.801163 19.772736
v -11.415222 86.801163 19.772736
v -22.831726 86.801163 0.000000
v -11.415222 86.801163 -19.772858
v 11.416016 86.801163 -19.772858
v 22.832214 86.801163 0.000000
v 27.240723 0.000000 31.749207
v 31.671631 0.000000 31.749207
v 18.340454 73.270523 22.077179
v 22.771301 73.270523 22.077179
v 18.340454 73.270523 17.646393
v 22.771301 73.270523 17.646393
v 27.240723 0.000000 27.318451
v 31.671631 0.000000 27.318451
v -25.740662 73.270523 23.958832
v 25.740662 73.270523 23.958832
v -25.740662 80.800781 23.958832
v 25.740662 80.800781 23.958832
v -25.740662 80.800781 -23.958832
v 25.740662 80.800781 -23.958832
v -25.740662 73.270523 -23.958832
v 25.740662 73.270523 -23.958832
v -31.749084 0.000000 27.240509
v -31.749084 0.000000 31.671387
v -22.077148 73.270523 18.340302
v -22.077148 73.270523 22.771088
v -17.646301 73.270523 18.340302
v -17.646301 73.270523 22.771088
v -27.318298 0.000000 27.240509
v -27.318298 0.000000 31.671387
v -27.240479 0.000000 -31.749359
v -31.671387 0.000000 -31.749359
v -18.340149 73.270523 -22.077301
v -22.771057 73.270523 -22.077301
v -18.340149 73.270523 -17.646393
v -22.771057 73.270523 -17.646393
v -27.240479 0.000000 -27.318573
v -31.671387 0.000000 -27.318573
v 31.749329 0.000000 -27.240631
v 31.749329 0.000000 -31.671387
v 22.077454 73.270523 -18.340302
v 22.077454 73.270523 -22.771088
v 17.646545 73.270523 -18.340302
v 17.646545 73.270523 -22.771088
v 27.318604 0.000000 -27.240631
v 27.318604 0.000000 -31.671387
v -29.902649 33.546055 29.365417
v 29.902893 33.546055 29.365417
v -29.902649 41.076309 29.365417
v 29.902893 41.076309 29.365417
v -29.902649 41.076309 -29.365662
v 29.902893 41.076309 -29.365662
v -29.902649 33.546055 -29.365662
v 29.902893 33.546055 -29.365662
v -25.669739 33.546055 24.899414
v 25.669739 33.546055 24.899414
v 25.669739 41.076309 24.899414
v -25.669739 41.076309 24.899414
v -25.669739 41.076309 -24.899536
v 25.669739 41.076309 -24.899536
v 25.669739 33.546055 -24.899536
v -25.669739 33.546055 -24.899536
vt 0.029410 0.284302
vt 0.029410 0.284302
vt 0.029410 0.284302
vt 0.029410 0.284302
vt 0.029410 0.284302
vt 0.029410 0.284302
vt 0.029410 0.284302
vt 0.029410 0.284302
vt 0.029410 0.284302
vt 0.029410 0.284302
vt 0.029410 0.284302
vt 0.029410 0.284302
vt 0.029410 0.284302
vt 0.029410 0.284302
vt 0.029410 0.284302
vt 0.029410 0.284302
vt 0.029410 0.284302
vt 0.029410 0.284302
vt 0.029410 0.284302
vt 0.029410 0.284302
vt 0.448486 0.287750
vt 0.027884 0.741510
vt 0.448486 0.287750
vt 0.027884 0.741510
vt 0.027884 0.741510
vt 0.027884 0.741510
vt 0.029410 0.284302
vt 0.027884 0.741510
vt 0.027884 0.741510
vt 0.027884 0.741510
vt 0.027884 0.741510
vt 0.027884 0.741510
vt 0.027884 0.741510
vt 0.027884 0.741510
vt 0.448486 0.287750
vt 0.448486 0.287750
vt 0.448486 0.287750
vt 0.448486 0.287750
vt 0.448486 0.287750
vt 0.448486 0.287750
vt 0.448486 0.287750
vt 0.448486 0.287750
vt 0.448486 0.287750
vt 0.448486 0.287746
vt 0.448486 0.287746
vt 0.029410 0.284302
vt 0.029410 0.284302
vt 0.029410 0.284302
vt 0.029410 0.284302
vt 0.029410 0.284302
vt 0.029410 0.284302
vt 0.029410 0.284302
vt 0.029410 0.284302
vt 0.029410 0.284302
vt 0.029410 0.284302
vt 0.029410 0.284302
vt 0.029410 0.284302
vt 0.029410 0.284302
vt 0.029410 0.284302
vt 0.029410 0.284302
vt 0.029410 0.284302
vt 0.029410 0.284302
vt 0.029410 0.284302
vt 0.029410 0.284302
vt 0.029410 0.284302
vt 0.029410 0.284302
vt 0.029410 0.284302
vt 0.029410 0.284302
vt 0.029410 0.284302
vt 0.029410 0.284302
vt 0.029410 0.284302
vt 0.029410 0.284302
vt 0.029410 0.284302
vt 0.027785 0.613229
vt 0.027785 0.613229
vt 0.027785 0.613229
vt 0.027785 0.613229
vt 0.027785 0.613229
vt 0.027785 0.613229
vt 0.027785 0.613229
vt 0.027785 0.613229
vt 0.027785 0.613229
vt 0.027785 0.613229
vt 0.027785 0.613229
vt 0.027785 0.613229
vt 0.027785 0.613229
vt 0.027785 0.613229
vt 0.027785 0.613229
vt 0.027785 0.613229
vt 0.027785 0.613229
vt 0.027785 0.613229
vt 0.027785 0.613229
vt 0.027785 0.613229
vt 0.027785 0.613229
vt 0.027785 0.613229
vt 0.027785 0.613229
vt 0.027785 0.613229
vt 0.029211 0.238378
vt 0.029211 0.238378
vt 0.029211 0.238378
vt 0.029211 0.238378
vt 0.029211 0.238378
vt 0.029211 0.238378
vt 0.029211 0.238378
vt 0.029211 0.238378
vt 0.029211 0.238378
vt 0.029211 0.238378
vt 0.029211 0.238378
vt 0.029211 0.238378
vt 0.029211 0.238378
vt 0.029211 0.238378
vt 0.027884 0.653199
vt 0.027884 0.653199
vt 0.027884 0.653199
vt 0.448486 0.287746
vt 0.448486 0.287746
vt 0.027884 0.653199
vt 0.027884 0.653199
vt 0.027884 0.653199
vt 0.027884 0.653199
vt 0.027884 0.653199
vt 0.027884 0.653199
vt 0.027884 0.653199
vt 0.027884 0.653199
vt 0.027884 0.653199
vt 0.029211 0.238378
vt 0.029211 0.238378
vt 0.029211 0.238378
vt 0.029211 0.238378
vt 0.029211 0.238378
vt 0.029211 0.238378
vt 0.029211 0.238378
vt 0.029211 0.238378
vt 0.029211 0.238378
vt 0.029211 0.238378
vt 0.029211 0.238378
vt 0.029211 0.238378
vt 0.029211 0.238378
vt 0.029211 0.238378
vt 0.029211 0.238378
vt 0.029211 0.238378
vt 0.029211 0.238378
vt 0.029211 0.238378
vt 0.029211 0.238378
vt 0.029211 0.238378
vt 0.029211 0.238378
vt 0.029211 0.238378
vt 0.029211 0.238378
vt 0.029211 0.238378
vt 0.029211 0.238378
vt 0.029211 0.238378
vt 0.029211 0.238378
vt 0.029211 0.238378
vt 0.029211 0.238378
vt 0.029211 0.238378
vt 0.029211 0.238378
vt 0.029211 0.238378
vt 0.029211 0.238378
vt 0.029211 0.238378
vt 0.029211 0.238378
vt 0.029211 0.238378
vt 0.029211 0.238378
vt 0.029211 0.238378
vt 0.029211 0.238378
vt 0.029211 0.238378
vt 0.029211 0.238378
vt 0.029211 0.238378
vt 0.029329 0.188185
vt 0.029329 0.188185
vt 0.029329 0.188185
vt 0.029329 0.188185
vt 0.029329 0.188185
vt 0.029329 0.188185
vt 0.029329 0.188185
vt 0.029329 0.188185
vt 0.029329 0.188185
vt 0.029329 0.188185
vt 0.029329 0.188185
vt 0.029329 0.188185
vt 0.029329 0.188185
vt 0.029329 0.188185
vt 0.029329 0.188185
vt 0.029329 0.188185
vt 0.029329 0.188185
vt 0.029329 0.188185
vt 0.029329 0.188185
vt 0.029329 0.188185
vt 0.029329 0.188185
vt 0.029329 0.188185
vt 0.029329 0.188185
vt 0.029329 0.188185
vt 0.029329 0.188185
vt 0.029329 0.188185
vt 0.448486 0.287746
vt 0.448486 0.287746
vt 0.448486 0.287746
vt 0.448486 0.287746
vt 0.029329 0.188185
vt 0.029329 0.188185
vt 0.029329 0.188185
vt 0.027785 0.613229
vt 0.029329 0.188185
vt 0.027785 0.613229
vt 0.027884 0.741510
vt 0.027785 0.613229
vt 0.027884 0.741510
vt 0.027884 0.741510
vt 0.027884 0.741510
vt 0.027785 0.613229
vt 0.027884 0.741510
vt 0.027884 0.741510
vt 0.027785 0.613229
vt 0.027884 0.741510
vt 0.027884 0.741510
vt 0.027785 0.613229
vt 0.027884 0.741510
vt 0.027884 0.741510
vt 0.027785 0.613229
vt 0.027884 0.741510
vt 0.027884 0.741510
vt 0.027884 0.741510
vt 0.027884 0.653199
vt 0.027884 0.653199
vt 0.027884 0.653199
vt 0.027884 0.653199
vt 0.027884 0.653199
vt 0.027785 0.613229
vt 0.027884 0.653199
vt 0.027785 0.613229
vt 0.027884 0.653199
vt 0.027884 0.653199
vt 0.027785 0.613229
vt 0.027785 0.613229
vt 0.027785 0.613229
vt 0.027785 0.613229
vt 0.027785 0.613229
vt 0.027785 0.613229
vt 0.027785 0.613229
vt 0.027785 0.613229
vt 0.027785 0.613229
vt 0.027785 0.613229
vt 0.027785 0.613229
vt 0.027785 0.613229
vt 0.027785 0.613229
vt 0.027785 0.613229
vt 0.027785 0.613229
vn 0.000000 0.000000 -1.000000
vn 0.000000 0.000000 -1.000000
vn 0.000000 0.000000 -1.000000
vn 0.000000 0.000000 -1.000000
vn -0.866013 0.000000 -0.500021
vn -0.866013 0.000000 -0.500021
vn -0.866013 0.000000 -0.500021
vn -0.866013 0.000000 -0.500021
vn -0.866012 0.000000 0.500023
vn -0.866012 0.000000 0.500023
vn -0.866012 0.000000 0.500024
vn -0.866012 0.000000 0.500024
vn 0.000000 0.000000 1.000000
vn 0.000000 0.000000 1.000000
vn 0.000000 0.000000 1.000000
vn 0.000000 0.000000 1.000000
vn 0.866017 0.000000 0.500015
vn 0.866017 0.000000 0.500015
vn 0.866017 0.000000 0.500015
vn 0.866017 0.000000 0.500015
vn 0.866018 0.000000 -0.500013
vn 0.866018 0.000000 -0.500013
vn 0.866018 0.000000 -0.500013
vn 0.866018 0.000000 -0.500013
vn 0.000000 -1.000000 0.000000
vn 0.000000 -1.000000 0.000000
vn 0.000000 -1.000000 0.000000
vn 0.000000 -1.000000 0.000001
vn 0.000000 -1.000000 0.000001
vn 0.000000 -1.000000 0.000001
vn 0.000000 -1.000000 -0.000000
vn 0.000000 -1.000000 -0.000000
vn 0.000000 -1.000000 -0.000000
vn 0.000000 -1.000000 0.000000
vn 0.000000 -1.000000 0.000000
vn 0.000000 -1.000000 0.000000
vn 0.000000 -1.000000 0.000000
vn 0.000000 -1.000000 0.000000
vn 0.000000 -1.000000 0.000000
vn 0.000000 -1.000000 0.000000
vn 0.000000 -1.000000 0.000000
vn 0.000000 -1.000000 0.000000
vn 0.000000 0.786071 -0.618136
vn 0.000000 0.786071 -0.618136
vn 0.000000 0.786071 -0.618136
vn -0.535321 0.786070 -0.309072
vn -0.535321 0.786070 -0.309072
vn -0.535321 0.786070 -0.309072
vn -0.535321 0.786070 0.309072
vn -0.535321 0.786070 0.309072
vn -0.535321 0.786070 0.309072
vn 0.000000 0.786071 0.618136
vn 0.000000 0.786071 0.618136
vn 0.000000 0.786071 0.618136
vn 0.535322 0.786071 0.309069
vn 0.535322 0.786071 0.309069
vn 0.535322 0.786071 0.309069
vn 0.535322 0.786071 -0.309070
vn 0.535322 0.786071 -0.309070
vn 0.535322 0.786071 -0.309070
vn 0.000000 -0.814565 -0.580073
vn 0.000000 -0.814565 -0.580073
vn 0.000000 -0.814565 -0.580073
vn 0.000000 -0.814565 -0.580073
vn -0.502356 -0.814563 -0.290046
vn -0.502356 -0.814563 -0.290046
vn -0.502356 -0.814563 -0.290046
vn -0.502356 -0.814563 -0.290046
vn -0.502352 -0.814566 0.290044
vn -0.502352 -0.814566 0.290044
vn -0.502352 -0.814566 0.290044
vn -0.502352 -0.814566 0.290044
vn 0.000000 -0.814577 0.580056
vn 0.000000 -0.814577 0.580056
vn 0.000000 -0.814577 0.580056
vn 0.000000 -0.814577 0.580055
vn 0.502360 -0.814560 0.290045
vn 0.502360 -0.814560 0.290045
vn 0.502360 -0.814560 0.290045
vn 0.502360 -0.814560 0.290045
vn 0.502364 -0.814558 -0.290045
vn 0.502364 -0.814557 -0.290045
vn 0.502364 -0.814558 -0.290045
vn 0.502364 -0.814558 -0.290045
vn 0.000000 0.000000 1.000000
vn 0.000000 0.000000 1.000000
vn 0.000000 0.000000 1.000000
vn 0.000000 0.000000 1.000000
vn -0.866012 0.000000 0.500023
vn -0.866012 0.000000 0.500023
vn -0.866012 0.000000 0.500023
vn -0.866012 0.000000 0.500023
vn -0.866013 0.000000 -0.500021
vn -0.866013 0.000000 -0.500021
vn -0.866014 0.000000 -0.500020
vn -0.866014 0.000000 -0.500020
vn 0.000000 0.000000 -1.000000
vn 0.000000 0.000000 -1.000000
vn 0.000000 0.000000 -1.000000
vn 0.000000 0.000000 -1.000000
vn 0.866018 0.000000 -0.500012
vn 0.866018 0.000000 -0.500012
vn 0.866018 0.000000 -0.500012
vn 0.866018 0.000000 -0.500012
vn 0.866017 0.000000 0.500015
vn 0.866017 0.000000 0.500015
vn 0.866017 0.000000 0.500015
vn 0.866017 0.000000 0.500015
vn 0.000000 0.000000 1.000000
vn 0.000000 0.000000 1.000000
vn 0.000000 0.000000 1.000000
vn 0.000000 0.000000 1.000000
vn -0.866012 0.000000 0.500023
vn -0.866012 0.000000 0.500023
vn -0.866012 0.000000 0.500023
vn -0.866012 0.000000 0.500023
vn -0.866013 0.000000 -0.500021
vn -0.866013 0.000000 -0.500021
vn -0.866013 0.000000 -0.500021
vn -0.866013 0.000000 -0.500021
vn 0.000000 0.000000 -1.000000
vn 0.000000 0.000000 -1.000000
vn 0.000000 0.000000 -1.000000
vn 0.000000 0.000000 -1.000000
vn 0.866018 0.000000 -0.500013
vn 0.866018 0.000000 -0.500013
vn 0.866018 0.000000 -0.500012
vn 0.866018 0.000000 -0.500012
vn 0.866017 0.000000 0.500015
vn 0.866017 0.000000 0.500015
vn 0.866017 0.000000 0.500015
vn 0.866017 0.000000 0.500015
vn 0.000000 0.000000 1.000000
vn 0.000000 0.000000 1.000000
vn 0.000000 0.000000 1.000000
vn 0.000000 0.000000 1.000000
vn -0.866012 0.000000 0.500023
vn -0.866012 0.000000 0.500023
vn -0.866012 0.000000 0.500023
vn -0.866012 0.000000 0.500023
vn -0.866013 0.000000 -0.500021
vn -0.866013 0.000000 -0.500021
vn -0.866013 0.000000 -0.500021
vn -0.866013 0.000000 -0.500021
vn 0.000000 0.000000 -1.000000
vn 0.000000 0.000000 -1.000000
vn 0.000000 0.000000 -1.000000
vn 0.000000 0.000000 -1.000000
vn 0.866018 0.000000 -0.500013
vn 0.866018 0.000000 -0.500013
vn 0.866018 0.000000 -0.500013
vn 0.866018 0.000000 -0.500013
vn 0.866017 0.000000 0.500015
vn 0.866017 0.000000 0.500015
vn 0.866017 0.000000 0.500015
vn 0.866017 0.000000 0.500015
vn 0.000000 0.000000 1.000000
vn 0.000000 0.000000 1.000000
vn 0.000000 0.000000 1.000000
vn 0.000000 0.000000 1.000000
vn -0.866012 0.000000 0.500024
vn -0.866012 0.000000 0.500024
vn -0.866012 0.000000 0.500023
vn -0.866012 0.000000 0.500023
vn -0.866013 0.000000 -0.500021
vn -0.866013 0.000000 -0.500021
vn -0.866013 0.000000 -0.500021
vn -0.866013 0.000000 -0.500021
vn 0.000000 0.000000 -1.000000
vn 0.000000 0.000000 -1.000000
vn 0.000000 0.000000 -1.000000
vn 0.000000 0.000000 -1.000000
vn 0.866018 0.000000 -0.500013
vn 0.866018 0.000000 -0.500013
vn 0.866018 0.000000 -0.500013
vn 0.866018 0.000000 -0.500013
vn 0.866017 0.000000 0.500015
vn 0.866017 0.000000 0.500015
vn 0.866017 0.000000 0.500015
vn 0.866017 0.000000 0.500015
vn 0.000000 0.130869 0.991400
vn 0.000000 0.130869 0.991400
vn 0.000000 0.130869 0.991400
vn 0.000000 0.130869 0.991400
vn 0.000000 1.000000 0.000000
vn 0.000000 1.000000 0.000000
vn 0.000000 1.000000 0.000000
vn 0.000000 1.000000 0.000000
vn 0.000000 -0.130869 -0.991400
vn 0.000000 -0.130869 -0.991400
vn 0.000000 -0.130869 -0.991400
vn 0.000000 -0.130869 -0.991400
vn 0.000000 -1.000000 0.000000
vn 0.000000 -1.000000 0.000000
vn 0.000000 -1.000000 0.000000
vn 0.000000 -1.000000 0.000000
vn 0.992703 0.120586 0.000000
vn 0.992703 0.120586 0.000000
vn 0.992703 0.120586 0.000000
vn 0.992703 0.120586 0.000000
vn -0.992703 -0.120586 0.000000
vn -0.992703 -0.120586 0.000000
vn -0.992703 -0.120586 0.000000
vn -0.992703 -0.120586 0.000000
vn 0.000000 0.000000 1.000000
vn 0.000000 0.000000 1.000000
vn 0.000000 0.000000 1.000000
vn 0.000000 0.000000 1.000000
vn 0.000000 1.000000 0.000000
vn 0.000000 1.000000 0.000000
vn 0.000000 1.000000 0.000000
vn 0.000000 1.000000 0.000000
vn 0.000000 0.000000 -1.000000
vn 0.000000 0.000000 -1.000000
vn 0.000000 0.000000 -1.000000
vn 0.000000 0.000000 -1.000000
vn 0.000000 -1.000000 0.000000
vn 0.000000 -1.000000 0.000000
vn 0.000000 -1.000000 0.000000
vn 0.000000 -1.000000 0.000000
vn 1.000000 0.000000 0.000000
vn 1.000000 0.000000 0.000000
vn 1.000000 0.000000 0.000000
vn 1.000000 0.000000 0.000000
vn -1.000000 0.000000 0.000000
vn -1.000000 0.000000 0.000000
vn -1.000000 0.000000 0.000000
vn -1.000000 0.000000 0.000000
vn -0.991400 0.130868 0.000000
vn -0.991400 0.130868 0.000000
vn -0.991400 0.130868 0.000000
vn -0.991400 0.130868 0.000000
vn 0.000000 1.000000 0.000000
vn 0.000000 1.000000 0.000000
vn 0.000000 1.000000 0.000000
vn 0.000000 1.000000 0.000000
vn 0.991400 -0.130869 0.000000
vn 0.991400 -0.130869 0.000000
vn 0.991400 -0.130869 0.000000
vn 0.991400 -0.130869 0.000000
vn 0.000000 -1.000000 0.000000
vn 0.000000 -1.000000 0.000000
vn 0.000000 -1.000000 0.000000
vn 0.000000 -1.000000 0.000000
vn 0.000000 0.120586 0.992703
vn 0.000000 0.120586 0.992703
vn 0.000000 0.120586 0.992703
vn 0.000000 0.120586 0.992703
vn 0.000000 -0.120584 -0.992703
vn 0.000000 -0.120584 -0.992703
vn 0.000000 -0.120584 -0.992703
vn 0.000000 -0.120584 -0.992703
vn 0.000000 0.130869 -0.991400
vn 0.000000 0.130869 -0.991400
vn 0.000000 0.130869 -0.991400
vn 0.000000 0.130869 -0.991400
vn 0.000000 1.000000 0.000000
vn 0.000000 1.000000 0.000000
vn 0.000000 1.000000 0.000000
vn 0.000000 1.000000 0.000000
vn 0.000000 -0.130871 0.991399
vn 0.000000 -0.130871 0.991399
vn 0.000000 -0.130871 0.991399
vn 0.000000 -0.130871 0.991399
vn 0.000000 -1.000000 0.000000
vn 0.000000 -1.000000 0.000000
vn 0.000000 -1.000000 0.000000
vn 0.000000 -1.000000 0.000000
vn -0.992703 0.120586 0.000000
vn -0.992703 0.120586 0.000000
vn -0.992703 0.120586 0.000000
vn -0.992703 0.120586 0.000000
vn 0.992703 -0.120586 0.000000
vn 0.992703 -0.120586 0.000000
vn 0.992703 -0.120586 0.000000
vn 0.992703 -0.120586 0.000000
vn 0.991400 0.130868 0.000000
vn 0.991400 0.130868 0.000000
vn 0.991400 0.130868 0.000000
vn 0.991400 0.130868 0.000000
vn 0.000000 1.000000 0.000000
vn 0.000000 1.000000 0.000000
vn 0.000000 1.000000 0.000000
vn 0.000000 1.000000 0.000000
vn -0.991400 -0.130869 0.000000
vn -0.991400 -0.130869 0.000000
vn -0.991400 -0.130869 0.000000
vn -0.991400 -0.130869 0.000000
vn 0.000000 -1.000000 0.000000
vn 0.000000 -1.000000 0.000000
vn 0.000000 -1.000000 0.000000
vn 0.000000 -1.000000 0.000000
vn 0.000000 0.120586 -0.992703
vn 0.000000 0.120586 -0.992703
vn 0.000000 0.120586 -0.992703
vn 0.000000 0.120586 -0.992703
vn 0.000000 -0.120586 0.992703
vn 0.000000 -0.120586 0.992703
vn 0.000000 -0.120586 0.992703
vn 0.000000 -0.120586 0.992703
vn 0.000000 0.000000 -1.000000
vn 0.000000 0.000000 -1.000000
vn 0.000000 0.000000 -1.000000
vn 0.000000 0.000000 -1.000000
vn 0.000000 0.000000 1.000000
vn 0.000000 0.000000 1.000000
vn 0.000000 0.000000 1.000000
vn 0.000000 0.000000 1.000000
vn -1.000000 0.000000 0.000000
vn -1.000000 0.000000 0.000000
vn -1.000000 0.000000 0.000000
vn -1.000000 0.000000 0.000000
vn 1.000000 0.000000 0.000000
vn 1.000000 0.000000 0.000000
vn 1.000000 0.000000 0.000000
vn 1.000000 0.000000 0.000000
vn 0.000000 0.000000 1.000000
vn 0.000000 0.000000 1.000000
vn 0.000000 0.000000 1.000000
vn 0.000000 0.000000 1.000000
vn 0.000000 0.000000 -1.000000
vn 0.000000 0.000000 -1.000000
vn 0.000000 0.000000 -1.000000
vn 0.000000 0.000000 -1.000000
vn 1.000000 0.000000 0.000000
vn 1.000000 0.000000 0.000000
vn 1.000000 0.000000 0.000000
vn 1.000000 0.000000 0.000000
vn -1.000000 0.000000 0.000000
vn -1.000000 0.000000 0.000000
vn -1.000000 0.000000 0.000000
vn -1.000000 0.000000 0.000000
vn 0.000000 -1.000000 0.000000
vn 0.000000 -1.000000 0.000000
vn 0.000000 -1.000000 0.000000
vn 0.000000 -1.000000 0.000000
vn 0.000000 1.000000 0.000000
vn 0.000000 1.000000 0.000000
vn 0.000000 1.000000 0.000000
vn 0.000000 1.000000 0.000000
vn 0.000000 1.000000 0.000000
vn 0.000000 1.000000 0.000000
vn 0.000000 1.000000 0.000000
vn 0.000000 1.000000 0.000000
vn 0.000000 -1.000000 0.000000
vn 0.000000 -1.000000 0.000000
vn 0.000000 -1.000000 0.000000
vn 0.000000 -1.000000 0.000000
vn 0.000000 -1.000000 0.000000
vn 0.000000 -1.000000 0.000000
vn 0.000000 -1.000000 0.000000
vn 0.000000 -1.000000 0.000000
vn 0.000000 1.000000 0.000000
vn 0.000000 1.000000 0.000000
vn 0.000000 1.000000 0.000000
vn 0.000000 1.000000 0.000000
vn 0.000000 -1.000000 0.000000
vn 0.000000 -1.000000 0.000000
vn 0.000000 -1.000000 0.000000
vn 0.000000 -1.000000 0.000000
vn 0.000000 1.000000 0.000000
vn 0.000000 1.000000 0.000000
vn 0.000000 1.000000 0.000000
vn 0.000000 1.000000 0.000000
s off
f 1/7/1 2/8/2 42/70/3 43/72/4
f 2/8/5 3/9/6 41/69/7 42/70/8
f 3/9/9 4/10/10 40/68/11 41/69/12
f 4/10/13 5/11/14 39/67/15 40/68/16
f 5/11/17 6/12/18 44/73/19 39/67/20
f 6/12/21 1/13/22 43/71/23 44/73/24
f 2/2/25 1/1/26 13/27/27
f 3/3/28 2/2/29 13/27/30
f 4/4/31 3/3/32 13/27/33
f 5/5/34 4/4/35 13/27/36
f 6/6/37 5/5/38 13/27/39
f 1/1/40 6/6/41 13/27/42
f 14/21/43 15/23/44 16/35/45
f 15/23/46 17/36/47 16/35/48
f 17/36/49 18/37/50 16/35/51
f 18/37/52 19/38/53 16/35/54
f 19/38/55 20/39/56 16/35/57
f 20/39/58 14/21/59 16/35/60
f 7/221/61 8/30/62 15/217/63 14/206/64
f 8/220/65 9/31/66 17/214/67 15/22/68
f 9/219/69 10/32/70 18/211/71 17/24/72
f 10/216/73 11/33/74 19/208/75 18/25/76
f 11/213/77 12/34/78 20/204/79 19/26/80
f 12/210/81 7/29/82 14/207/83 20/28/84
f 22/47/85 21/46/86 11/18/87 10/17/88
f 23/48/89 22/47/90 10/17/91 9/16/92
f 24/49/93 23/48/94 9/16/95 8/15/96
f 25/51/97 24/49/98 8/15/99 7/14/100
f 26/52/101 25/50/102 7/20/103 12/19/104
f 21/46/105 26/52/106 12/19/107 11/18/108
f 28/209/109 27/75/110 21/76/111 22/203/112
f 29/215/113 28/74/114 22/77/115 23/205/116
f 30/227/117 29/78/118 23/79/119 24/212/120
f 31/246/121 30/80/122 24/81/123 25/218/124
f 32/244/125 31/82/126 25/83/127 26/229/128
f 27/245/129 32/84/130 26/85/131 21/201/132
f 34/61/133 33/60/134 27/53/135 28/54/136
f 35/62/137 34/61/138 28/54/139 29/55/140
f 36/63/141 35/62/142 29/55/143 30/56/144
f 37/65/145 36/63/146 30/56/147 31/58/148
f 38/66/149 37/64/150 31/57/151 32/59/152
f 33/60/153 38/66/154 32/59/155 27/53/156
f 40/240/157 39/87/158 33/88/159 34/242/160
f 41/238/161 40/86/162 34/89/163 35/241/164
f 42/236/165 41/90/166 35/91/167 36/239/168
f 43/234/169 42/92/170 36/93/171 37/237/172
f 44/232/173 43/94/174 37/95/175 38/235/176
f 39/233/177 44/96/178 38/97/179 33/243/180
f 45/98/181 46/99/182 48/100/183 47/101/184
f 47/101/185 48/100/186 50/102/187 49/103/188
f 49/103/189 50/102/190 52/104/191 51/105/192
f 51/105/193 52/104/194 46/106/195 45/107/196
f 46/99/197 52/108/198 50/109/199 48/100/200
f 51/110/201 45/98/202 47/101/203 49/111/204
f 53/225/205 54/113/206 56/228/207 55/230/208
f 55/40/209 56/41/210 58/42/211 57/43/212
f 57/117/213 58/226/214 60/118/215 59/224/216
f 59/119/217 60/222/218 54/120/219 53/121/220
f 54/223/221 60/122/222 58/123/223 56/114/224
f 59/124/225 53/112/226 55/231/227 57/125/228
f 61/126/229 62/127/230 64/128/231 63/129/232
f 63/129/233 64/128/234 66/130/235 65/131/236
f 65/131/237 66/130/238 68/132/239 67/133/240
f 67/133/241 68/132/242 62/134/243 61/135/244
f 62/127/245 68/136/246 66/137/247 64/128/248
f 67/138/249 61/126/250 63/129/251 65/139/252
f 69/140/253 70/141/254 72/142/255 71/143/256
f 71/143/257 72/142/258 74/144/259 73/145/260
f 73/145/261 74/144/262 76/146/263 75/147/264
f 75/147/265 76/146/266 70/148/267 69/149/268
f 70/141/269 76/150/270 74/151/271 72/142/272
f 75/152/273 69/140/274 71/143/275 73/153/276
f 77/154/277 78/155/278 80/156/279 79/157/280
f 79/157/281 80/156/282 82/158/283 81/159/284
f 81/159/285 82/158/286 84/160/287 83/161/288
f 83/161/289 84/160/290 78/162/291 77/163/292
f 78/155/293 84/164/294 82/165/295 80/156/296
f 83/166/297 77/154/298 79/157/299 81/167/300
f 93/168/301 96/169/302 95/170/303 94/171/304
f 97/172/305 100/173/306 99/174/307 98/175/308
f 94/171/309 95/170/310 98/176/311 99/177/312
f 100/178/313 97/179/314 96/169/315 93/168/316
f 85/180/317 86/181/318 88/182/319 87/183/320
f 89/184/321 90/185/322 92/186/323 91/187/324
f 86/181/325 92/188/326 90/189/327 88/182/328
f 91/190/329 85/180/330 87/183/331 89/191/332
f 85/192/333 93/168/334 94/171/335 86/193/336
f 88/44/337 95/45/338 96/115/339 87/116/340
f 89/194/341 97/195/342 98/196/343 90/197/344
f 92/198/345 99/174/346 100/173/347 91/199/348
f 86/193/349 94/171/350 99/177/351 92/200/352
f 90/197/353 98/196/354 95/45/355 88/44/356
f 91/202/357 100/178/358 93/168/359 85/192/360
f 87/116/361 96/115/362 97/195/363 89/194/364
