# This file uses meters as units for non-parametric coordinates.

v -17.791870 0.000000 48.115509
v 21.031128 0.000000 36.397949
v -22.228027 53.644012 53.269165
v 25.108276 53.644012 41.402008
v -46.005615 55.597481 -33.472198
v 39.442749 55.597481 -49.791290
v -41.281006 0.000000 -27.443512
v 34.751709 0.000000 -43.788361
v 60.205811 53.644012 -19.025299
v -60.205566 55.597481 7.131866
v -52.494995 0.000000 8.580811
v 52.707153 0.000000 -17.354767
v 53.279663 55.597481 15.900085
v -49.527466 55.597481 37.089264
v -42.225952 0.000000 34.658569
v 46.568970 0.000000 13.330933
v -9.279663 55.597481 43.690918
v 24.712891 57.580498 24.230042
v 32.398315 57.580498 -19.677399
v -4.392212 53.644012 -53.269073
v -3.211304 0.000000 -48.577545
v -9.916382 0.000000 39.287415
v -31.644165 57.380020 -4.728027
v -34.822754 57.129501 34.797424
v -9.937500 31.103149 39.267242
v -18.246582 39.474869 48.592346
v -42.252319 35.963413 34.670044
v -53.035889 39.474869 8.454285
v -41.892212 30.422747 -28.273834
v -4.030640 28.506168 -49.078033
v 35.261230 39.474869 -44.498199
v 53.476196 35.963413 -17.612091
v 46.538940 28.544228 13.330933
v 21.130615 27.476299 36.516907
v -10.123413 24.322269 38.587463
v -16.942505 30.968813 47.424652
v -40.372681 29.182533 34.352661
v -50.279419 30.968813 9.493805
v -40.431641 23.511568 -25.950836
v -5.580566 21.725288 -47.727203
v 33.807739 30.968813 -42.295685
v 50.439941 29.182533 -15.912994
v 44.104614 21.633051 12.725098
v 19.807373 18.225777 34.829926
v -12.631958 55.725464 37.382721
v -6.983398 56.256081 17.875458
v -11.886719 56.611839 -4.247498
v -22.734009 55.265961 -17.171906
vt 0.648751 0.404876
vt 0.648751 0.404876
vt 0.648751 0.404876
vt 0.657133 0.364366
vt 0.453735 0.283607
vt 0.453735 0.283607
vt 0.657133 0.364366
vt 0.657133 0.364366
vt 0.648751 0.404876
vt 0.648751 0.404876
vt 0.648751 0.404876
vt 0.648751 0.404876
vt 0.453735 0.283607
vt 0.657133 0.364366
vt 0.657133 0.364366
vt 0.453735 0.283607
vt 0.648751 0.404876
vt 0.657133 0.364366
vt 0.453735 0.283607
vt 0.648751 0.404876
vt 0.657133 0.364366
vt 0.453735 0.283607
vt 0.657133 0.364366
vt 0.648751 0.404876
vt 0.453735 0.283607
vt 0.453735 0.283607
vt 0.453735 0.283607
vt 0.453735 0.283607
vt 0.648751 0.404876
vt 0.657133 0.364366
vt 0.453735 0.283607
vt 0.453735 0.283607
vt 0.657133 0.364367
vt 0.657133 0.364366
vt 0.648751 0.404876
vt 0.648751 0.404876
vt 0.648751 0.404876
vt 0.648751 0.404876
vt 0.648751 0.404877
vt 0.648751 0.404876
vt 0.648751 0.404876
vt 0.648751 0.404876
vt 0.648751 0.404876
vt 0.648751 0.404876
vt 0.648751 0.404877
vt 0.648751 0.404876
vt 0.648751 0.404876
vt 0.657133 0.364366
vt 0.648751 0.404876
vt 0.657133 0.364366
vt 0.657133 0.364367
vt 0.648751 0.404876
vt 0.453735 0.283607
vt 0.453735 0.283607
vt 0.453735 0.283607
vt 0.453735 0.283607
vt 0.453735 0.283607
vt 0.453735 0.283607
vt 0.657133 0.364366
vt 0.657133 0.364366
vt 0.657133 0.364367
vt 0.657133 0.364367
vt 0.657133 0.364366
vt 0.657133 0.364366
vt 0.657133 0.364366
vt 0.657133 0.364366
vt 0.657133 0.364367
vt 0.657133 0.364367
vt 0.657133 0.364366
vt 0.648751 0.404876
vt 0.657133 0.364367
vt 0.648751 0.404877
vt 0.648751 0.404876
vt 0.657133 0.364366
vt 0.648751 0.404876
vt 0.657133 0.364366
vt 0.648751 0.404876
vt 0.657133 0.364366
vt 0.648751 0.404876
vt 0.657133 0.364366
vt 0.648751 0.404876
vt 0.657133 0.364366
vt 0.657133 0.364366
vt 0.648751 0.404876
vt 0.648751 0.404876
vt 0.657133 0.364366
vt 0.657133 0.364366
vt 0.648751 0.404876
vt 0.648751 0.404876
vt 0.657133 0.364366
vt 0.657133 0.364367
vt 0.648751 0.404877
vt 0.648751 0.404876
vt 0.657133 0.364366
vt 0.657133 0.364366
vt 0.657133 0.364366
vt 0.648751 0.404876
vt 0.657133 0.364366
vn 0.770082 0.007099 0.637905
vn 0.770082 0.007099 0.637905
vn 0.770082 0.007099 0.637905
vn 0.770082 0.007099 0.637905
vn 0.051752 0.994069 0.095653
vn 0.051752 0.994069 0.095653
vn 0.051752 0.994069 0.095653
vn 0.051752 0.994069 0.095653
vn -0.506463 0.027624 -0.861819
vn -0.506463 0.027624 -0.861819
vn -0.506463 0.027624 -0.861819
vn -0.506463 0.027624 -0.861819
vn 0.664268 0.101851 0.740523
vn 0.664268 0.101851 0.740523
vn 0.664268 0.101851 0.740523
vn 0.664268 0.101851 0.740523
vn -0.485489 0.036287 0.873490
vn -0.485489 0.036287 0.873489
vn -0.485489 0.036287 0.873490
vn -0.485489 0.036287 0.873489
vn -0.955191 0.066474 -0.288428
vn -0.955191 0.066474 -0.288428
vn -0.955191 0.066474 -0.288428
vn -0.955191 0.066474 -0.288428
vn 0.835558 0.071184 -0.544771
vn 0.835558 0.071184 -0.544771
vn 0.835558 0.071184 -0.544771
vn 0.835558 0.071184 -0.544771
vn 0.037496 0.999258 0.008778
vn 0.037496 0.999258 0.008778
vn 0.037496 0.999258 0.008778
vn 0.037496 0.999258 0.008778
vn -0.927394 0.059002 0.369404
vn -0.927394 0.059002 0.369404
vn -0.927394 0.059002 0.369404
vn -0.927394 0.059002 0.369404
vn 0.972603 0.087014 0.215575
vn 0.972603 0.087014 0.215575
vn 0.972603 0.087014 0.215575
vn 0.972603 0.087014 0.215575
vn 0.130885 0.966984 0.218656
vn 0.130885 0.966984 0.218656
vn 0.130885 0.966984 0.218656
vn 0.103697 0.994594 -0.005426
vn 0.103697 0.994594 -0.005426
vn 0.103697 0.994594 -0.005426
vn 0.103697 0.994594 -0.005426
vn -0.038487 0.996469 -0.074621
vn -0.038487 0.996469 -0.074621
vn -0.038487 0.996469 -0.074621
vn 0.124720 0.051901 -0.990834
vn 0.124720 0.051901 -0.990834
vn 0.124720 0.051901 -0.990834
vn 0.124720 0.051901 -0.990834
vn 0.113974 0.056702 0.991864
vn 0.113974 0.056702 0.991864
vn 0.113974 0.056702 0.991864
vn 0.113974 0.056702 0.991864
vn 0.069989 0.972677 0.221363
vn 0.069989 0.972677 0.221363
vn 0.069989 0.972677 0.221363
vn -0.096812 0.992725 0.071590
vn -0.096812 0.992725 0.071590
vn -0.096812 0.992725 0.071590
vn 0.041833 0.989527 -0.138153
vn 0.041833 0.989527 -0.138153
vn 0.041833 0.989527 -0.138153
vn 0.140833 0.989509 -0.032216
vn 0.140833 0.989509 -0.032216
vn 0.140833 0.989509 -0.032216
vn -0.072796 0.997022 -0.025458
vn -0.072796 0.997022 -0.025458
vn -0.072796 0.997022 -0.025458
vn -0.072660 0.997291 0.011438
vn -0.072660 0.997291 0.011438
vn -0.072660 0.997291 0.011438
vn -0.072660 0.997291 0.011438
vn -0.065662 0.971428 0.228072
vn -0.065662 0.971428 0.228072
vn -0.065662 0.971428 0.228072
vn 0.087897 0.990544 -0.105344
vn 0.087897 0.990544 -0.105344
vn 0.087897 0.990544 -0.105344
vn 0.638227 -0.123977 0.759800
vn 0.638227 -0.123977 0.759800
vn 0.638227 -0.123977 0.759800
vn 0.638227 -0.123977 0.759800
vn -0.470511 -0.328592 0.818930
vn -0.470511 -0.328592 0.818930
vn -0.470511 -0.328592 0.818930
vn -0.470511 -0.328592 0.818930
vn -0.877407 -0.364036 0.312467
vn -0.877407 -0.364036 0.312467
vn -0.877407 -0.364036 0.312467
vn -0.877407 -0.364036 0.312467
vn -0.918196 -0.292965 -0.266621
vn -0.918196 -0.292965 -0.266621
vn -0.918196 -0.292965 -0.266621
vn -0.918196 -0.292965 -0.266621
vn -0.453325 -0.202320 -0.868080
vn -0.453325 -0.202320 -0.868080
vn -0.453325 -0.202320 -0.868080
vn -0.453325 -0.202320 -0.868080
vn 0.129710 -0.233515 -0.963663
vn 0.129710 -0.233515 -0.963663
vn 0.129710 -0.233515 -0.963663
vn 0.129710 -0.233515 -0.963663
vn 0.759062 -0.353473 -0.546701
vn 0.759062 -0.353473 -0.546701
vn 0.759062 -0.353473 -0.546701
vn 0.759062 -0.353473 -0.546701
vn 0.941623 -0.288047 0.174284
vn 0.941623 -0.288047 0.174284
vn 0.941623 -0.288047 0.174284
vn 0.941623 -0.288047 0.174284
vn 0.661165 -0.233037 0.713130
vn 0.661165 -0.233037 0.713130
vn 0.661165 -0.233037 0.713130
vn 0.661165 -0.233037 0.713130
vn 0.059679 -0.185675 0.980797
vn 0.059679 -0.185675 0.980797
vn 0.059679 -0.185674 0.980797
vn 0.059679 -0.185674 0.980797
vn 0.758650 -0.023191 0.651086
vn 0.758650 -0.023191 0.651086
vn 0.758650 -0.023191 0.651086
vn 0.758650 -0.023191 0.651086
vn -0.470911 -0.181933 0.863217
vn -0.470911 -0.181933 0.863217
vn -0.470911 -0.181933 0.863217
vn -0.470911 -0.181933 0.863217
vn -0.904426 -0.258247 0.339593
vn -0.904426 -0.258247 0.339593
vn -0.904426 -0.258247 0.339593
vn -0.904426 -0.258247 0.339593
vn -0.932388 -0.299256 -0.202730
vn -0.932388 -0.299256 -0.202730
vn -0.932388 -0.299256 -0.202730
vn -0.932388 -0.299256 -0.202730
vn -0.501174 -0.221213 -0.836594
vn -0.501174 -0.221213 -0.836594
vn -0.501174 -0.221213 -0.836594
vn -0.501174 -0.221213 -0.836594
vn 0.186691 -0.257081 -0.948186
vn 0.186691 -0.257081 -0.948186
vn 0.186691 -0.257081 -0.948186
vn 0.186691 -0.257081 -0.948186
vn 0.763590 -0.360916 -0.535416
vn 0.763590 -0.360916 -0.535416
vn 0.763590 -0.360916 -0.535416
vn 0.763590 -0.360916 -0.535416
vn 0.925545 -0.360563 0.115595
vn 0.925544 -0.360563 0.115595
vn 0.925544 -0.360563 0.115595
vn 0.925545 -0.360563 0.115595
vn 0.663810 -0.254121 0.703405
vn 0.663810 -0.254121 0.703405
vn 0.663810 -0.254121 0.703405
vn 0.663810 -0.254121 0.703405
vn 0.080691 -0.153003 0.984926
vn 0.080691 -0.153003 0.984926
vn 0.080691 -0.153003 0.984926
vn 0.080691 -0.153003 0.984926
vn -0.035772 0.998588 0.039270
vn -0.035772 0.998588 0.039270
vn -0.035772 0.998588 0.039270
vn -0.044597 0.998903 0.014258
vn -0.044597 0.998903 0.014258
vn -0.044597 0.998903 0.014258
vn -0.029672 0.999551 0.004135
vn -0.029672 0.999551 0.004135
vn -0.029672 0.999551 0.004135
vn -0.029672 0.999551 0.004135
vn -0.044898 0.996728 -0.067207
vn -0.044898 0.996728 -0.067207
vn -0.044898 0.996728 -0.067207
vn -0.044898 0.996728 -0.067207
vn 0.033686 0.999047 -0.027773
vn 0.033686 0.999047 -0.027773
vn 0.033686 0.999047 -0.027773
s off
f 1/1/1 22/2/2 35/3/3 36/73/4
f 3/5/5 45/6/6 46/13/7 24/16/8
f 39/79/9 40/81/10 21/9/11 7/10/12
f 2/11/13 16/12/14 43/93/15 44/97/16
f 15/17/17 1/1/18 36/73/19 37/75/20
f 7/10/21 11/20/22 38/77/23 39/79/24
f 42/89/25 12/24/26 8/29/27 41/85/28
f 23/19/29 24/16/30 46/13/31 47/22/32
f 11/20/33 15/17/34 37/75/35 38/77/36
f 43/93/37 16/12/38 12/24/39 42/89/40
f 18/25/41 4/26/42 13/27/43
f 19/28/44 18/25/45 13/27/46 9/31/47
f 20/32/48 19/28/49 6/53/50
f 21/9/51 40/81/52 41/85/53 8/29/54
f 44/97/55 35/3/56 22/2/57 2/11/58
f 17/54/59 4/26/60 18/25/61
f 3/5/62 17/54/63 45/6/64
f 47/22/65 48/55/66 23/19/67
f 6/53/68 19/28/69 9/31/70
f 10/56/71 23/19/72 5/57/73
f 14/58/74 24/16/75 23/19/76 10/56/77
f 3/5/78 24/16/79 14/58/80
f 5/57/81 23/19/82 48/55/83
f 26/72/84 25/70/85 17/35/86 3/36/87
f 27/37/88 26/72/89 3/36/90 14/38/91
f 28/39/92 27/37/93 14/38/94 10/40/95
f 29/41/96 28/39/97 10/40/98 5/42/99
f 5/42/100 20/43/101 30/44/102 29/41/103
f 31/45/104 30/44/105 20/43/106 6/46/107
f 9/47/108 32/84/109 31/45/110 6/46/111
f 13/49/112 33/88/113 32/84/114 9/47/115
f 34/92/116 33/88/117 13/49/118 4/52/119
f 17/35/120 25/70/121 34/92/122 4/52/123
f 36/74/124 35/96/125 25/34/126 26/71/127
f 37/76/128 36/4/129 26/33/130 27/60/131
f 38/78/132 37/18/133 27/59/134 28/62/135
f 39/80/136 38/21/137 28/61/138 29/64/139
f 29/63/140 30/66/141 40/82/142 39/7/143
f 41/86/144 40/8/145 30/65/146 31/68/147
f 32/83/148 42/90/149 41/30/150 31/67/151
f 33/87/152 43/94/153 42/23/154 32/48/155
f 44/98/156 43/14/157 33/50/158 34/91/159
f 34/51/160 25/69/161 35/95/162 44/15/163
f 45/6/164 17/54/165 18/25/166
f 46/13/167 45/6/168 18/25/169
f 47/22/170 46/13/171 18/25/172 19/28/173
f 20/32/174 48/55/175 47/22/176 19/28/177
f 5/57/178 48/55/179 20/32/180
