# This file uses meters as units for non-parametric coordinates.

v -7.388245 -25.651394 4.988770
v 2.589294 -25.651394 4.988770
v -7.388245 16.984743 4.988770
v 2.589294 16.984743 4.988770
v -7.388245 16.984743 -4.988770
v 2.589294 16.984743 -4.988770
v -7.388245 -25.651394 -4.988770
v 2.589294 -25.651394 -4.988770
v -24.308167 16.984743 21.908691
v 19.509216 16.984743 21.908691
v -24.308167 67.913826 21.908691
v 19.509216 67.913826 21.908691
v -24.308167 67.913826 -21.908691
v 19.509216 67.913826 -21.908691
v -24.308167 16.984743 -21.908691
v 19.509216 16.984743 -21.908691
v 19.509338 18.848486 16.932861
v 43.627625 18.848486 16.932861
v 19.509338 45.691292 16.932861
v 43.627625 45.691292 16.932861
v 19.509338 45.691292 -16.932861
v 43.627625 45.691292 -16.932861
v 19.509338 18.848486 -16.932861
v 43.627625 18.848486 -16.932861
v -24.308044 21.728374 -14.436157
v -43.627625 21.728374 -14.436157
v -24.308044 42.811401 -14.436157
v -43.627625 42.811401 -14.436157
v -24.308044 42.811401 14.436279
v -43.627625 42.811401 14.436279
v -24.308044 21.728374 14.436279
v -43.627625 21.728374 14.436279
vt 0.027073 0.152420
vt 0.027073 0.152420
vt 0.027073 0.152420
vt 0.027073 0.152420
vt 0.027073 0.152420
vt 0.027073 0.152420
vt 0.027073 0.152420
vt 0.027073 0.152420
vt 0.027073 0.152420
vt 0.027073 0.152420
vt 0.027073 0.152420
vt 0.027073 0.152420
vt 0.027073 0.152420
vt 0.027073 0.152420
vt 0.254316 0.154926
vt 0.254316 0.154926
vt 0.254316 0.154926
vt 0.254316 0.154926
vt 0.254316 0.154926
vt 0.254316 0.154926
vt 0.254316 0.154926
vt 0.254316 0.154926
vt 0.254316 0.154926
vt 0.254316 0.154926
vt 0.254316 0.154926
vt 0.254316 0.154926
vt 0.254316 0.154926
vt 0.254316 0.154926
vt 0.254316 0.154926
vt 0.254316 0.154926
vt 0.254316 0.154926
vt 0.254316 0.154926
vt 0.254316 0.154926
vt 0.254316 0.154926
vt 0.254316 0.154926
vt 0.254316 0.154926
vt 0.254316 0.154926
vt 0.254316 0.154926
vt 0.254316 0.154926
vt 0.254316 0.154926
vt 0.254316 0.154926
vt 0.254316 0.154926
vt 0.254316 0.154926
vt 0.254316 0.154926
vt 0.254316 0.154926
vt 0.254316 0.154926
vt 0.254316 0.154926
vt 0.254316 0.154926
vt 0.254316 0.154926
vt 0.254316 0.154926
vt 0.254316 0.154926
vt 0.254316 0.154926
vn 0.000000 0.000000 1.000000
vn 0.000000 0.000000 1.000000
vn 0.000000 0.000000 1.000000
vn 0.000000 0.000000 1.000000
vn 0.000000 0.000000 -1.000000
vn 0.000000 0.000000 -1.000000
vn 0.000000 0.000000 -1.000000
vn 0.000000 0.000000 -1.000000
vn 0.000000 -1.000000 0.000000
vn 0.000000 -1.000000 0.000000
vn 0.000000 -1.000000 0.000000
vn 0.000000 -1.000000 0.000000
vn 1.000000 0.000000 0.000000
vn 1.000000 0.000000 0.000000
vn 1.000000 0.000000 0.000000
vn 1.000000 0.000000 0.000000
vn -1.000000 0.000000 0.000000
vn -1.000000 0.000000 0.000000
vn -1.000000 0.000000 0.000000
vn -1.000000 0.000000 0.000000
vn 0.000000 0.000000 1.000000
vn 0.000000 0.000000 1.000000
vn 0.000000 0.000000 1.000000
vn 0.000000 0.000000 1.000000
vn 0.000000 1.000000 0.000000
vn 0.000000 1.000000 0.000000
vn 0.000000 1.000000 0.000000
vn 0.000000 1.000000 0.000000
vn 0.000000 0.000000 -1.000000
vn 0.000000 0.000000 -1.000000
vn 0.000000 0.000000 -1.000000
vn 0.000000 0.000000 -1.000000
vn 0.000000 -1.000000 0.000000
vn 0.000000 -1.000000 0.000000
vn 0.000000 -1.000000 0.000000
vn 0.000000 -1.000000 0.000000
vn 1.000000 0.000000 0.000000
vn 1.000000 0.000000 0.000000
vn 1.000000 0.000000 0.000000
vn 1.000000 0.000000 0.000000
vn -1.000000 0.000000 0.000000
vn -1.000000 0.000000 0.000000
vn -1.000000 0.000000 0.000000
vn -1.000000 0.000000 0.000000
vn 0.000000 0.000000 1.000000
vn 0.000000 0.000000 1.000000
vn 0.000000 0.000000 1.000000
vn 0.000000 0.000000 1.000000
vn 0.000000 1.000000 0.000000
vn 0.000000 1.000000 0.000000
vn 0.000000 1.000000 0.000000
vn 0.000000 1.000000 0.000000
vn 0.000000 0.000000 -1.000000
vn 0.000000 0.000000 -1.000000
vn 0.000000 0.000000 -1.000000
vn 0.000000 0.000000 -1.000000
vn 0.000000 -1.000000 0.000000
vn 0.000000 -1.000000 0.000000
vn 0.000000 -1.000000 0.000000
vn 0.000000 -1.000000 0.000000
vn 1.000000 0.000000 0.000000
vn 1.000000 0.000000 0.000000
vn 1.000000 0.000000 0.000000
vn 1.000000 0.000000 0.000000
vn 0.000000 0.000000 -1.000000
vn 0.000000 0.000000 -1.000000
vn 0.000000 0.000000 -1.000000
vn 0.000000 0.000000 -1.000000
vn 0.000000 1.000000 0.000000
vn 0.000000 1.000000 0.000000
vn 0.000000 1.000000 0.000000
vn 0.000000 1.000000 0.000000
vn 0.000000 0.000000 1.000000
vn 0.000000 0.000000 1.000000
vn 0.000000 0.000000 1.000000
vn 0.000000 0.000000 1.000000
vn 0.000000 -1.000000 0.000000
vn 0.000000 -1.000000 0.000000
vn 0.000000 -1.000000 0.000000
vn 0.000000 -1.000000 0.000000
vn -1.000000 0.000000 0.000000
vn -1.000000 0.000000 0.000000
vn -1.000000 0.000000 0.000000
vn -1.000000 0.000000 0.000000
s off
f 1/1/1 2/2/2 4/4/3 3/3/4
f 5/5/5 6/6/6 8/8/7 7/7/8
f 7/7/9 8/8/10 2/10/11 1/9/12
f 2/2/13 8/11/14 6/12/15 4/4/16
f 7/13/17 1/1/18 3/3/19 5/14/20
f 9/15/21 10/16/22 12/17/23 11/18/24
f 11/18/25 12/17/26 14/19/27 13/20/28
f 13/20/29 14/19/30 16/21/31 15/22/32
f 15/22/33 16/21/34 10/23/35 9/24/36
f 10/16/37 16/25/38 14/26/39 12/17/40
f 15/27/41 9/15/42 11/18/43 13/28/44
f 17/29/45 18/30/46 20/31/47 19/32/48
f 19/32/49 20/31/50 22/33/51 21/34/52
f 21/34/53 22/33/54 24/35/55 23/36/56
f 23/36/57 24/35/58 18/37/59 17/38/60
f 18/30/61 24/39/62 22/40/63 20/31/64
f 25/41/65 26/42/66 28/43/67 27/44/68
f 27/44/69 28/43/70 30/45/71 29/46/72
f 29/46/73 30/45/74 32/47/75 31/48/76
f 31/48/77 32/47/78 26/49/79 25/50/80
f 26/42/81 32/51/82 30/52/83 28/43/84
