# This file uses meters as units for non-parametric coordinates.

v 4.914164 -22.220028 17.846226
v 11.581889 -23.500656 26.367955
v 18.198832 -22.428291 17.778355
v 5.470072 11.720376 22.511753
v 12.137797 10.439746 31.033482
v 18.754985 11.512111 22.443760
v 30.037944 18.479225 9.082798
v -5.687154 21.360905 9.584751
v -5.584127 16.572189 44.409214
v 30.179057 16.011532 44.226231
v 12.764750 74.125603 36.804600
v 19.986674 -22.710899 -26.576504
v 27.420024 -22.766832 -18.610195
v 33.197856 -23.373547 -27.827968
v 21.583842 11.493093 -27.826626
v 29.017192 11.437157 -19.860317
v 34.795024 10.830446 -29.078090
v 44.860575 15.074411 -44.409145
v 9.405375 19.197319 -41.125454
v 12.774760 20.318235 -6.153042
v 48.339091 18.534372 -9.522182
v 35.526225 67.923515 -24.290981
v -26.643941 -20.734762 -12.550991
v -20.518209 -20.762808 -1.450039
v -11.472799 -18.965513 -10.151211
v -30.989889 13.161705 -10.067104
v -24.863912 13.133657 1.033848
v -15.818746 14.930956 -7.667446
v -1.259664 23.131992 -21.480800
v -42.397603 20.687138 -27.770962
v -48.339010 16.972267 12.529698
v -7.498433 21.735134 18.989659
v -31.623678 81.388252 0.172276
vt 0.025925 0.150270
vt 0.025925 0.150270
vt 0.025925 0.150270
vt 0.025925 0.150270
vt 0.025925 0.150270
vt 0.025925 0.150270
vt 0.025925 0.150270
vt 0.025925 0.150270
vt 0.256870 0.164021
vt 0.256870 0.164021
vt 0.256870 0.164021
vt 0.256870 0.164021
vt 0.256870 0.164021
vt 0.256870 0.164021
vt 0.256870 0.164021
vt 0.256870 0.164020
vt 0.025925 0.150270
vt 0.025925 0.150270
vt 0.025925 0.150270
vt 0.025925 0.150270
vt 0.025925 0.150270
vt 0.025925 0.150270
vt 0.025925 0.150270
vt 0.025925 0.150270
vt 0.256870 0.164021
vt 0.256870 0.164021
vt 0.256870 0.164021
vt 0.256870 0.164021
vt 0.256870 0.164021
vt 0.256870 0.164021
vt 0.256870 0.164021
vt 0.256870 0.164020
vt 0.025925 0.150270
vt 0.025925 0.150270
vt 0.025925 0.150270
vt 0.025925 0.150270
vt 0.025925 0.150270
vt 0.025925 0.150270
vt 0.025925 0.150270
vt 0.025925 0.150270
vt 0.256870 0.164021
vt 0.256870 0.164021
vt 0.256870 0.164021
vt 0.256870 0.164021
vt 0.256870 0.164021
vt 0.256870 0.164021
vt 0.256870 0.164021
vt 0.256870 0.164020
vn -0.002933 0.136228 -0.990673
vn -0.002933 0.136228 -0.990673
vn -0.002933 0.136228 -0.990673
vn -0.002933 0.136228 -0.990673
vn -0.790725 -0.070636 0.608083
vn -0.790725 -0.070636 0.608083
vn -0.790725 -0.070636 0.608083
vn -0.790725 -0.070636 0.608083
vn 0.794302 -0.095484 0.599973
vn 0.794302 -0.095484 0.599973
vn 0.794302 -0.095484 0.599973
vn 0.794302 -0.095484 0.599973
vn -0.059402 -0.843800 -0.533360
vn -0.059402 -0.843800 -0.533360
vn -0.059402 -0.843800 -0.533360
vn -0.059402 -0.843800 -0.533360
vn -0.479361 -0.876314 -0.047823
vn -0.479361 -0.876314 -0.047823
vn -0.479361 -0.876314 -0.047823
vn -0.479361 -0.876314 -0.047823
vn -0.012282 -0.915012 0.403239
vn -0.012282 -0.915012 0.403239
vn -0.012282 -0.915012 0.403239
vn 0.393028 -0.919383 -0.016222
vn 0.393028 -0.919383 -0.016222
vn 0.393028 -0.919383 -0.016222
vn 0.393028 -0.919384 -0.016222
vn 0.019485 0.401116 -0.915820
vn 0.019485 0.401116 -0.915820
vn 0.019485 0.401116 -0.915820
vn -0.950403 0.307729 0.045130
vn -0.950403 0.307729 0.045130
vn -0.950403 0.307729 0.045130
vn 0.007330 0.144613 0.989461
vn 0.007330 0.144613 0.989461
vn 0.007330 0.144613 0.989461
vn 0.968288 0.249466 0.013629
vn 0.968288 0.249466 0.013629
vn 0.968288 0.249466 0.013629
vn -0.095848 -0.031887 -0.994885
vn -0.095848 -0.031887 -0.994885
vn -0.095848 -0.031887 -0.994885
vn -0.095848 -0.031887 -0.994885
vn -0.729666 0.058973 0.681257
vn -0.729666 0.058973 0.681257
vn -0.729666 0.058973 0.681257
vn -0.729666 0.058973 0.681257
vn 0.846546 -0.020088 0.531936
vn 0.846546 -0.020088 0.531936
vn 0.846546 -0.020088 0.531936
vn 0.846546 -0.020088 0.531936
vn -0.125228 -0.918845 -0.374223
vn -0.125228 -0.918845 -0.374223
vn -0.125228 -0.918845 -0.374223
vn -0.125228 -0.918845 -0.374223
vn -0.497027 -0.855321 0.146256
vn -0.497027 -0.855321 0.146256
vn -0.497027 -0.855321 0.146256
vn -0.497027 -0.855321 0.146256
vn 0.010534 -0.833456 0.552485
vn 0.010534 -0.833456 0.552485
vn 0.010534 -0.833456 0.552485
vn 0.373465 -0.921744 0.104458
vn 0.373465 -0.921744 0.104458
vn 0.373465 -0.921744 0.104458
vn 0.373465 -0.921744 0.104458
vn -0.061692 0.240901 -0.968587
vn -0.061692 0.240901 -0.968587
vn -0.061692 0.240901 -0.968587
vn -0.936110 0.342673 0.079203
vn -0.936110 0.342673 0.079203
vn -0.936110 0.342673 0.079203
vn 0.105031 0.308236 0.945494
vn 0.105031 0.308236 0.945494
vn 0.105031 0.308236 0.945494
vn 0.969331 0.215563 -0.118029
vn 0.969331 0.215563 -0.118029
vn 0.969331 0.215563 -0.118029
vn 0.145247 0.090816 -0.985219
vn 0.145247 0.090816 -0.985219
vn 0.145247 0.090816 -0.985219
vn 0.145247 0.090816 -0.985219
vn -0.866304 -0.146073 0.477682
vn -0.866304 -0.146073 0.477682
vn -0.866304 -0.146073 0.477682
vn -0.866304 -0.146073 0.477682
vn 0.689186 0.035329 0.723723
vn 0.689186 0.035329 0.723723
vn 0.689186 0.035329 0.723723
vn 0.689186 0.035329 0.723723
vn 0.133396 -0.892059 -0.431783
vn 0.133396 -0.892059 -0.431783
vn 0.133396 -0.892059 -0.431783
vn 0.133396 -0.892059 -0.431783
vn -0.298029 -0.952113 -0.068261
vn -0.298029 -0.952113 -0.068261
vn -0.298029 -0.952113 -0.068261
vn -0.298029 -0.952113 -0.068261
vn 0.044222 -0.916972 0.396493
vn 0.044222 -0.916972 0.396493
vn 0.044222 -0.916972 0.396493
vn 0.455540 -0.886241 0.084023
vn 0.455540 -0.886241 0.084023
vn 0.455540 -0.886241 0.084023
vn 0.455540 -0.886241 0.084023
vn 0.115455 0.398383 -0.909924
vn 0.115455 0.398383 -0.909924
vn 0.115455 0.398383 -0.909924
vn -0.966191 0.227414 -0.121479
vn -0.966191 0.227414 -0.121479
vn -0.966191 0.227414 -0.121479
vn -0.178140 0.229776 0.956802
vn -0.178140 0.229776 0.956802
vn -0.178140 0.229776 0.956802
vn 0.898502 0.411550 0.152710
vn 0.898502 0.411550 0.152710
vn 0.898502 0.411550 0.152710
s off
f 3/1/1 1/2/2 4/3/3 6/4/4
f 1/2/5 2/5/6 5/6/7 4/3/8
f 2/5/9 3/7/10 6/8/11 5/6/12
f 6/9/13 4/10/14 8/11/15 7/12/16
f 8/11/17 4/10/18 5/13/19 9/14/20
f 5/13/21 10/15/22 9/14/23
f 10/15/24 5/13/25 6/9/26 7/12/27
f 8/11/28 11/16/29 7/12/30
f 11/16/31 8/11/32 9/14/33
f 10/15/34 11/16/35 9/14/36
f 11/16/37 10/15/38 7/12/39
f 14/17/40 12/18/41 15/19/42 17/20/43
f 12/18/44 13/21/45 16/22/46 15/19/47
f 13/21/48 14/23/49 17/24/50 16/22/51
f 17/25/52 15/26/53 19/27/54 18/28/55
f 19/27/56 15/26/57 16/29/58 20/30/59
f 16/29/60 21/31/61 20/30/62
f 21/31/63 16/29/64 17/25/65 18/28/66
f 19/27/67 22/32/68 18/28/69
f 22/32/70 19/27/71 20/30/72
f 21/31/73 22/32/74 20/30/75
f 22/32/76 21/31/77 18/28/78
f 25/33/79 23/34/80 26/35/81 28/36/82
f 23/34/83 24/37/84 27/38/85 26/35/86
f 24/37/87 25/39/88 28/40/89 27/38/90
f 28/41/91 26/42/92 30/43/93 29/44/94
f 30/43/95 26/42/96 27/45/97 31/46/98
f 27/45/99 32/47/100 31/46/101
f 32/47/102 27/45/103 28/41/104 29/44/105
f 30/43/106 33/48/107 29/44/108
f 33/48/109 30/43/110 31/46/111
f 32/47/112 33/48/113 31/46/114
f 33/48/115 32/47/116 29/44/117
