# This file uses meters as units for non-parametric coordinates.

v 19.087524 -0.102642 5.477783
v 11.857910 -0.102642 -15.425659
v -6.502319 -0.102642 -19.538757
v -19.087036 -0.102642 -6.037048
v -15.372314 -0.102642 15.130981
v 7.850708 -0.102642 19.538757
v 14.277344 11.783174 4.247131
v 8.387207 11.668403 -11.875244
v -5.163086 11.783174 -14.757629
v -14.276733 11.668403 -4.806396
v -11.901611 11.783174 11.580566
v 6.511230 11.668403 14.757690
v -0.929077 -4.235371 0.356689
v -0.929077 12.020422 0.356689
vt 0.897095 0.285697
vt 0.897095 0.285697
vt 0.897095 0.285697
vt 0.897095 0.285697
vt 0.897095 0.285697
vt 0.897095 0.285697
vt 0.897095 0.285697
vt 0.897095 0.285697
vt 0.897095 0.285697
vt 0.897095 0.285697
vt 0.897095 0.285697
vt 0.897095 0.285697
vt 0.897095 0.285697
vt 0.897095 0.285697
vt 0.897095 0.285697
vt 0.897095 0.285697
vt 0.897095 0.285697
vt 0.897095 0.285697
vt 0.897095 0.285697
vt 0.897095 0.285697
vt 0.897095 0.285697
vt 0.446777 0.288210
vt 0.446777 0.288210
vt 0.446777 0.288210
vt 0.446777 0.288210
vt 0.446777 0.288210
vt 0.446777 0.288210
vt 0.446777 0.288210
vn 0.885768 0.340940 -0.314920
vn 0.885768 0.340940 -0.314920
vn 0.885768 0.340940 -0.314920
vn 0.885768 0.340940 -0.314920
vn 0.202435 0.341484 -0.917828
vn 0.202435 0.341484 -0.917828
vn 0.202435 0.341484 -0.917828
vn 0.202435 0.341484 -0.917828
vn -0.690725 0.341527 -0.637384
vn -0.690725 0.341527 -0.637384
vn -0.690725 0.341527 -0.637384
vn -0.690725 0.341527 -0.637384
vn -0.928568 0.339707 0.149536
vn -0.928568 0.339707 0.149536
vn -0.928568 0.339707 0.149536
vn -0.928568 0.339707 0.149536
vn -0.167578 0.340883 0.925049
vn -0.167578 0.340883 0.925049
vn -0.167578 0.340883 0.925049
vn -0.167578 0.340883 0.925049
vn 0.743236 0.339681 0.576383
vn 0.743236 0.339681 0.576383
vn 0.743236 0.339681 0.576383
vn 0.743236 0.339681 0.576383
vn 0.220270 -0.972459 -0.076182
vn 0.220270 -0.972460 -0.076182
vn 0.220270 -0.972460 -0.076182
vn 0.048417 -0.975164 -0.216126
vn 0.048417 -0.975164 -0.216126
vn 0.048417 -0.975164 -0.216126
vn -0.166841 -0.973643 -0.155511
vn -0.166841 -0.973643 -0.155511
vn -0.166841 -0.973643 -0.155511
vn -0.235549 -0.970983 0.041335
vn -0.235549 -0.970983 0.041335
vn -0.235549 -0.970983 0.041335
vn -0.043544 -0.972353 0.229422
vn -0.043544 -0.972353 0.229422
vn -0.043544 -0.972353 0.229422
vn 0.167434 -0.976761 0.133805
vn 0.167434 -0.976761 0.133805
vn 0.167434 -0.976761 0.133805
vn 0.019214 0.999716 -0.014137
vn 0.019214 0.999715 -0.014137
vn 0.019214 0.999716 -0.014137
vn 0.012554 0.999737 -0.019210
vn 0.012554 0.999737 -0.019210
vn 0.012554 0.999737 -0.019210
vn -0.022761 0.999698 -0.009316
vn -0.022761 0.999698 -0.009316
vn -0.022761 0.999698 -0.009316
vn -0.025061 0.999680 -0.003369
vn -0.025061 0.999680 -0.003369
vn -0.025061 0.999680 -0.003369
vn 0.002212 0.999726 0.023295
vn 0.002212 0.999726 0.023295
vn 0.002212 0.999726 0.023295
vn 0.010769 0.999764 0.018875
vn 0.010769 0.999764 0.018875
vn 0.010769 0.999764 0.018875
s off
f 1/1/1 2/2/2 8/3/3 7/4/4
f 2/2/5 3/5/6 9/6/7 8/3/8
f 3/5/9 4/7/10 10/8/11 9/6/12
f 4/7/13 5/9/14 11/10/15 10/8/16
f 5/9/17 6/11/18 12/12/19 11/10/20
f 6/11/21 1/13/22 7/14/23 12/12/24
f 2/15/25 1/16/26 13/17/27
f 3/18/28 2/15/29 13/17/30
f 4/19/31 3/18/32 13/17/33
f 5/20/34 4/19/35 13/17/36
f 6/21/37 5/20/38 13/17/39
f 1/16/40 6/21/41 13/17/42
f 7/22/43 8/23/44 14/24/45
f 8/23/46 9/25/47 14/24/48
f 9/25/49 10/26/50 14/24/51
f 10/26/52 11/27/53 14/24/54
f 11/27/55 12/28/56 14/24/57
f 12/28/58 7/22/59 14/24/60
