# This file uses meters as units for non-parametric coordinates.

v 3.203369 -25.651392 -5.548615
v -3.203369 -25.651392 -5.548615
v -6.406982 -25.651392 0.000000
v -3.203369 -25.651392 5.548615
v 3.203369 -25.651392 5.548615
v 6.406982 -25.651392 0.000000
v 2.256592 30.738319 -3.908295
v -2.256592 30.738319 -3.908295
v -4.512939 30.738319 0.000000
v -2.256592 30.738319 3.908295
v 2.256592 30.738319 3.908295
v 4.512939 30.738319 0.000000
v 0.000000 -25.651392 0.000000
v -18.285400 40.012341 15.438080
v -5.050537 33.603428 19.061676
v -8.384766 45.264980 4.854462
v -19.258057 38.220810 -0.534454
v -26.864502 27.896093 9.203339
v -18.446289 24.851189 20.859406
v 0.496826 31.868404 5.816010
v -8.870361 34.412724 -7.031250
v -22.266113 25.660482 -5.233643
v -21.177734 17.706978 8.724731
v -4.863525 17.835640 15.802643
v -8.082031 19.752159 -0.418732
v 5.467285 71.088516 2.397278
v 26.061768 55.885773 2.480194
v 7.154297 62.150387 -22.018677
v -13.720703 61.477829 -10.303375
v -11.741211 56.651405 17.900330
v 11.586426 55.757259 26.393524
v 18.730225 38.998585 -13.608307
v -7.154297 38.998585 -22.018677
v -25.469482 42.777187 0.472015
v -7.949951 42.648682 24.385315
v 19.895020 33.383759 15.850433
v 0.000000 24.689987 0.000000
v 6.077148 21.522339 11.090332
v 14.722900 23.500669 7.043457
v 3.880859 26.474560 2.776459
v 0.286377 18.196844 3.162506
v 4.844971 11.357489 9.477875
v 13.527100 14.346593 11.756775
v 12.394531 22.926865 -1.953888
v 3.083252 19.181566 -4.545990
v 1.887451 10.027486 0.167206
v 10.459473 8.115256 5.672333
v 19.222900 15.025850 3.123352
v 11.162354 12.762015 -3.566498
vt 0.008887 0.102230
vt 0.008887 0.102230
vt 0.008887 0.102230
vt 0.008887 0.102230
vt 0.008887 0.102230
vt 0.008887 0.102230
vt 0.008887 0.102230
vt 0.008887 0.102230
vt 0.008887 0.102230
vt 0.008887 0.102230
vt 0.008887 0.102230
vt 0.008887 0.102230
vt 0.008887 0.102230
vt 0.259160 0.156773
vt 0.259160 0.156773
vt 0.259160 0.156773
vt 0.259160 0.156773
vt 0.447021 0.288208
vt 0.259159 0.156773
vt 0.259160 0.156773
vt 0.259160 0.156773
vt 0.447021 0.288208
vt 0.259159 0.156773
vt 0.259159 0.156773
vt 0.259159 0.156773
vt 0.259160 0.156773
vt 0.259160 0.156773
vt 0.259159 0.156773
vt 0.259160 0.156773
vt 0.259160 0.156773
vt 0.259160 0.156773
vt 0.259160 0.156773
vt 0.259159 0.156773
vt 0.259159 0.156773
vt 0.259159 0.156773
vt 0.259159 0.156773
vt 0.259159 0.156773
vt 0.259160 0.156773
vt 0.259159 0.156773
vt 0.259159 0.156773
vt 0.259160 0.156773
vt 0.259159 0.156773
vt 0.259159 0.156773
vt 0.447021 0.288208
vt 0.447021 0.288208
vt 0.447021 0.288208
vt 0.447021 0.288208
vt 0.447021 0.288208
vt 0.447021 0.288208
vt 0.259160 0.156773
vt 0.259159 0.156773
vt 0.259160 0.156773
vt 0.259160 0.156773
vt 0.259159 0.156773
vt 0.259159 0.156773
vt 0.259160 0.156773
vt 0.259160 0.156773
vt 0.259160 0.156773
vt 0.259160 0.156773
vt 0.259160 0.156773
vt 0.259160 0.156773
vt 0.259160 0.156773
vt 0.259160 0.156773
vt 0.259160 0.156773
vt 0.259159 0.156773
vt 0.259160 0.156773
vt 0.259160 0.156773
vt 0.259160 0.156773
vt 0.259160 0.156773
vt 0.259160 0.156773
vt 0.259160 0.156773
vt 0.259160 0.156773
vt 0.259160 0.156773
vt 0.447021 0.288208
vt 0.447021 0.288208
vt 0.259160 0.156773
vt 0.259159 0.156773
vt 0.259160 0.156773
vt 0.259160 0.156773
vt 0.259160 0.156773
vt 0.259160 0.156773
vt 0.259160 0.156773
vt 0.259160 0.156773
vt 0.259160 0.156773
vt 0.259160 0.156773
vt 0.259160 0.156773
vt 0.259160 0.156773
vt 0.259160 0.156773
vt 0.259159 0.156773
vt 0.259160 0.156773
vt 0.259159 0.156773
vt 0.259160 0.156773
vt 0.259160 0.156773
vt 0.259160 0.156773
vt 0.259160 0.156773
vt 0.259160 0.156773
vt 0.259160 0.156773
vt 0.259159 0.156773
vt 0.259159 0.156773
vt 0.259159 0.156773
vt 0.259159 0.156773
vt 0.259160 0.156773
vt 0.259159 0.156773
vt 0.447021 0.288208
vt 0.447021 0.288208
vt 0.447021 0.288208
vt 0.447021 0.288208
vt 0.447021 0.288208
vn 0.000000 0.029077 -0.999577
vn 0.000000 0.029077 -0.999577
vn 0.000000 0.029077 -0.999577
vn 0.000000 0.029077 -0.999577
vn -0.865653 0.029073 -0.499801
vn -0.865652 0.029073 -0.499801
vn -0.865653 0.029073 -0.499801
vn -0.865653 0.029073 -0.499801
vn -0.865652 0.029073 0.499801
vn -0.865653 0.029073 0.499801
vn -0.865653 0.029073 0.499801
vn -0.865653 0.029073 0.499801
vn 0.000000 0.029077 0.999577
vn 0.000000 0.029077 0.999577
vn 0.000000 0.029077 0.999577
vn 0.000000 0.029077 0.999577
vn 0.865653 0.029073 0.499801
vn 0.865652 0.029073 0.499801
vn 0.865653 0.029073 0.499801
vn 0.865653 0.029073 0.499801
vn 0.865652 0.029073 -0.499801
vn 0.865653 0.029073 -0.499801
vn 0.865653 0.029073 -0.499801
vn 0.865653 0.029073 -0.499801
vn 0.000000 -1.000000 0.000000
vn 0.000000 -1.000000 0.000000
vn 0.000000 -1.000000 0.000000
vn 0.000000 -1.000000 0.000000
vn 0.000000 -1.000000 0.000000
vn 0.000000 -1.000000 0.000000
vn 0.000000 -1.000000 0.000000
vn 0.000000 -1.000000 0.000000
vn 0.000000 -1.000000 0.000000
vn 0.000000 -1.000000 0.000000
vn 0.000000 -1.000000 0.000000
vn 0.000000 -1.000000 0.000000
vn 0.000000 -1.000000 0.000000
vn 0.000000 -1.000000 0.000000
vn 0.000000 -1.000000 0.000000
vn 0.000000 -1.000000 0.000000
vn 0.000000 -1.000000 0.000000
vn 0.000000 -1.000000 0.000000
vn 0.196735 0.858392 0.473771
vn 0.196735 0.858392 0.473771
vn 0.196735 0.858392 0.473771
vn -0.218433 0.971156 -0.095622
vn -0.218433 0.971156 -0.095622
vn -0.218433 0.971156 -0.095622
vn -0.812130 0.583258 -0.015950
vn -0.812130 0.583258 -0.015950
vn -0.812130 0.583258 -0.015950
vn -0.763887 0.230761 0.602683
vn -0.763887 0.230761 0.602683
vn -0.763887 0.230761 0.602683
vn -0.140374 0.400803 0.905347
vn -0.140374 0.400803 0.905347
vn -0.140374 0.400803 0.905347
vn 0.833658 -0.102289 0.542726
vn 0.833658 -0.102289 0.542726
vn 0.833658 -0.102289 0.542726
vn 0.755599 0.468064 -0.458243
vn 0.755599 0.468064 -0.458243
vn 0.755599 0.468064 -0.458243
vn -0.253266 0.192931 -0.947963
vn -0.253266 0.192930 -0.947963
vn -0.253266 0.192931 -0.947963
vn -0.798720 -0.547465 -0.249659
vn -0.798720 -0.547465 -0.249659
vn -0.798720 -0.547465 -0.249659
vn -0.126964 -0.729920 0.671638
vn -0.126964 -0.729920 0.671638
vn -0.126964 -0.729920 0.671638
vn 0.798720 0.547464 0.249659
vn 0.798720 0.547464 0.249659
vn 0.798720 0.547464 0.249659
vn 0.126963 0.729920 -0.671638
vn 0.126964 0.729920 -0.671638
vn 0.126964 0.729920 -0.671638
vn -0.833658 0.102289 -0.542726
vn -0.833658 0.102289 -0.542726
vn -0.833658 0.102289 -0.542726
vn -0.755599 -0.468064 0.458243
vn -0.755599 -0.468064 0.458243
vn -0.755599 -0.468064 0.458243
vn 0.253266 -0.192931 0.947963
vn 0.253266 -0.192931 0.947963
vn 0.253266 -0.192931 0.947963
vn 0.763887 -0.230761 -0.602683
vn 0.763887 -0.230761 -0.602683
vn 0.763887 -0.230761 -0.602683
vn 0.140374 -0.400803 -0.905347
vn 0.140374 -0.400803 -0.905347
vn 0.140374 -0.400803 -0.905347
vn -0.196735 -0.858392 -0.473771
vn -0.196735 -0.858392 -0.473770
vn -0.196735 -0.858392 -0.473770
vn 0.218433 -0.971156 0.095622
vn 0.218433 -0.971156 0.095622
vn 0.218433 -0.971156 0.095622
vn 0.812130 -0.583258 0.015950
vn 0.812130 -0.583258 0.015950
vn 0.812130 -0.583258 0.015950
vn 0.491124 0.794654 -0.356822
vn 0.491124 0.794654 -0.356822
vn 0.491123 0.794654 -0.356822
vn -0.187593 0.794655 -0.577350
vn -0.187593 0.794655 -0.577350
vn -0.187593 0.794655 -0.577350
vn -0.607062 0.794654 0.000000
vn -0.607062 0.794654 0.000000
vn -0.607062 0.794655 0.000000
vn -0.187592 0.794654 0.577350
vn -0.187592 0.794654 0.577350
vn -0.187592 0.794654 0.577350
vn 0.491123 0.794654 0.356822
vn 0.491123 0.794654 0.356822
vn 0.491123 0.794654 0.356822
vn 0.982247 -0.187592 0.000000
vn 0.982247 -0.187592 0.000000
vn 0.982247 -0.187592 0.000000
vn 0.303531 -0.187593 -0.934172
vn 0.303531 -0.187593 -0.934172
vn 0.303531 -0.187593 -0.934172
vn -0.794655 -0.187593 -0.577350
vn -0.794655 -0.187592 -0.577350
vn -0.794655 -0.187593 -0.577350
vn -0.794654 -0.187593 0.577350
vn -0.794654 -0.187593 0.577350
vn -0.794654 -0.187593 0.577350
vn 0.303531 -0.187592 0.934172
vn 0.303531 -0.187592 0.934172
vn 0.303531 -0.187592 0.934172
vn 0.794654 0.187592 -0.577350
vn 0.794655 0.187592 -0.577350
vn 0.794654 0.187592 -0.577350
vn -0.303531 0.187592 -0.934172
vn -0.303531 0.187592 -0.934172
vn -0.303531 0.187592 -0.934172
vn -0.982247 0.187592 0.000000
vn -0.982247 0.187592 0.000000
vn -0.982247 0.187592 0.000000
vn -0.303531 0.187592 0.934172
vn -0.303531 0.187592 0.934172
vn -0.303531 0.187592 0.934172
vn 0.794654 0.187592 0.577350
vn 0.794654 0.187592 0.577350
vn 0.794654 0.187592 0.577350
vn 0.187592 -0.794654 -0.577350
vn 0.187592 -0.794654 -0.577350
vn 0.187592 -0.794655 -0.577350
vn -0.491124 -0.794654 -0.356822
vn -0.491124 -0.794654 -0.356822
vn -0.491124 -0.794654 -0.356822
vn -0.491123 -0.794654 0.356822
vn -0.491123 -0.794654 0.356822
vn -0.491123 -0.794654 0.356822
vn 0.187593 -0.794655 0.577350
vn 0.187593 -0.794655 0.577350
vn 0.187593 -0.794655 0.577350
vn 0.607062 -0.794654 -0.000000
vn 0.607062 -0.794655 -0.000000
vn 0.607062 -0.794654 -0.000000
vn -0.085054 0.892712 0.442528
vn -0.085054 0.892712 0.442528
vn -0.085054 0.892712 0.442528
vn -0.726106 0.634854 0.264065
vn -0.726106 0.634854 0.264065
vn -0.726106 0.634854 0.264065
vn -0.808435 0.004610 0.588568
vn -0.808435 0.004610 0.588568
vn -0.808435 0.004610 0.588568
vn -0.218264 -0.127045 0.967585
vn -0.218264 -0.127045 0.967585
vn -0.218264 -0.127045 0.967585
vn 0.228810 0.421833 0.877327
vn 0.228810 0.421833 0.877327
vn 0.228810 0.421833 0.877327
vn 0.863345 0.497502 -0.084428
vn 0.863345 0.497502 -0.084428
vn 0.863345 0.497502 -0.084428
vn -0.091571 0.710523 -0.697690
vn -0.091571 0.710523 -0.697690
vn -0.091571 0.710523 -0.697690
vn -0.814952 -0.177580 -0.551651
vn -0.814952 -0.177580 -0.551651
vn -0.814952 -0.177580 -0.551651
vn -0.307110 -0.939478 0.151869
vn -0.307110 -0.939478 0.151869
vn -0.307110 -0.939478 0.151869
vn 0.730134 -0.522255 0.440629
vn 0.730134 -0.522255 0.440629
vn 0.730134 -0.522255 0.440629
vn 0.307110 0.939478 -0.151869
vn 0.307110 0.939478 -0.151869
vn 0.307110 0.939478 -0.151869
vn -0.730134 0.522255 -0.440629
vn -0.730134 0.522255 -0.440629
vn -0.730134 0.522255 -0.440629
vn -0.863345 -0.497502 0.084428
vn -0.863345 -0.497502 0.084428
vn -0.863345 -0.497502 0.084428
vn 0.091571 -0.710523 0.697690
vn 0.091571 -0.710523 0.697690
vn 0.091571 -0.710523 0.697690
vn 0.814952 0.177579 0.551651
vn 0.814952 0.177579 0.551651
vn 0.814952 0.177579 0.551651
vn 0.218264 0.127045 -0.967585
vn 0.218264 0.127045 -0.967585
vn 0.218264 0.127045 -0.967585
vn -0.228810 -0.421833 -0.877327
vn -0.228810 -0.421833 -0.877327
vn -0.228810 -0.421833 -0.877327
vn 0.085054 -0.892712 -0.442528
vn 0.085054 -0.892712 -0.442528
vn 0.085054 -0.892712 -0.442528
vn 0.726106 -0.634854 -0.264065
vn 0.726106 -0.634854 -0.264065
vn 0.726106 -0.634854 -0.264065
vn 0.808435 -0.004610 -0.588568
vn 0.808435 -0.004610 -0.588568
vn 0.808435 -0.004610 -0.588568
s off
f 1/1/1 2/2/2 8/3/3 7/4/4
f 2/2/5 3/5/6 9/6/7 8/3/8
f 3/5/9 4/7/10 10/8/11 9/6/12
f 4/7/13 5/9/14 11/10/15 10/8/16
f 5/9/17 6/11/18 12/12/19 11/10/20
f 6/11/21 1/1/22 7/4/23 12/12/24
f 2/2/25 1/1/26 13/13/27
f 3/5/28 2/2/29 13/13/30
f 4/7/31 3/5/32 13/13/33
f 5/9/34 4/7/35 13/13/36
f 6/11/37 5/9/38 13/13/39
f 1/1/40 6/11/41 13/13/42
f 14/14/43 15/15/44 16/16/45
f 14/14/46 16/16/47 17/17/48
f 14/18/49 17/22/50 18/44/51
f 14/18/52 18/44/53 19/45/54
f 14/18/55 19/45/56 15/46/57
f 15/25/58 24/26/59 20/27/60
f 16/28/61 20/27/62 21/29/63
f 17/30/64 21/31/65 22/32/66
f 18/20/67 22/33/68 23/34/69
f 19/35/70 23/36/71 24/37/72
f 20/27/73 16/28/74 15/25/75
f 21/38/76 17/17/77 16/16/78
f 22/33/79 18/20/80 17/19/81
f 23/34/82 19/21/83 18/20/84
f 24/39/85 15/24/86 19/23/87
f 25/40/88 21/29/89 20/27/90
f 25/41/91 22/32/92 21/31/93
f 25/42/94 23/36/95 22/43/96
f 25/42/97 24/37/98 23/36/99
f 25/40/100 20/27/101 24/26/102
f 26/47/103 27/48/104 28/49/105
f 26/47/106 28/49/107 29/74/108
f 26/47/109 29/74/110 30/75/111
f 26/47/112 30/75/113 31/104/114
f 26/47/115 31/104/116 27/48/117
f 27/50/118 36/51/119 32/52/120
f 28/53/121 32/54/122 33/55/123
f 29/56/124 33/57/125 34/58/126
f 30/59/127 34/58/128 35/60/129
f 31/61/130 35/62/131 36/63/132
f 32/52/133 28/64/134 27/50/135
f 33/55/136 29/65/137 28/53/138
f 34/58/139 30/59/140 29/56/141
f 35/62/142 31/61/143 30/66/144
f 36/51/145 27/50/146 31/67/147
f 37/68/148 33/69/149 32/70/150
f 37/68/151 34/71/152 33/69/153
f 37/68/154 35/72/155 34/71/156
f 37/68/157 36/73/158 35/72/159
f 37/68/160 32/70/161 36/73/162
f 38/105/163 39/106/164 40/107/165
f 38/77/166 40/78/167 41/79/168
f 38/77/169 41/79/170 42/80/171
f 38/81/172 42/82/173 43/83/174
f 38/81/175 43/83/176 39/84/177
f 39/85/178 48/86/179 44/87/180
f 40/76/181 44/88/182 45/89/183
f 41/79/184 45/90/185 46/91/186
f 42/92/187 46/93/188 47/94/189
f 43/95/190 47/94/191 48/96/192
f 44/108/193 40/107/194 39/106/195
f 45/90/196 41/79/197 40/78/198
f 46/91/199 42/80/200 41/79/201
f 47/94/202 43/95/203 42/92/204
f 48/86/205 39/85/206 43/97/207
f 49/98/208 45/99/209 44/100/210
f 49/98/211 46/101/212 45/99/213
f 49/102/214 47/94/215 46/93/216
f 49/102/217 48/96/218 47/94/219
f 49/98/220 44/100/221 48/103/222
