# This file uses meters as units for non-parametric coordinates.

v 2.209598 20.254166 -59.693645
v -32.658588 21.498821 -1.071276
v -17.475842 21.617826 -24.106056
v -23.455187 20.445223 15.088722
v 21.225643 20.790497 -48.312366
v 24.240099 22.426701 -4.289394
v 18.808294 20.540083 -37.238232
v -17.952791 -4.986839 -23.376808
v -31.605648 -24.025055 -1.442396
v 11.619925 -19.966423 -13.532917
v -22.548193 -25.945545 12.665473
v 17.907188 -6.005611 -36.320183
v 1.223681 0.694639 -58.637669
v 20.435902 0.331398 -47.497356
v 23.969078 -18.554840 -4.033010
v -16.504997 -23.889465 -20.457180
v 15.280195 -17.768944 -29.946865
v 6.024426 19.711901 55.239708
v 31.603777 20.887030 25.583673
v 10.460283 22.694742 35.851276
v 30.677935 20.574478 0.327206
v -15.579020 21.285519 59.693645
v -27.284410 18.161415 36.924438
v 11.332889 -17.996902 34.704258
v 31.322149 -36.413445 23.696571
v 11.467564 -36.845810 -13.417511
v 29.342340 -36.759853 -0.065956
v -26.200630 -18.954803 35.864277
v 7.064096 -11.755566 53.470238
v -14.531177 -12.762562 58.431355
v -14.038388 -30.507294 3.597214
v 10.968409 -36.802002 31.293465
v -21.990580 -30.670475 29.780884
v -11.730517 -24.542286 2.023008
v 39.007195 -18.392036 22.809671
v 37.347355 -19.133724 -1.422571
v 31.384922 -23.641293 24.117203
v 29.657854 -23.215496 0.026922
v -32.105457 -2.415836 -1.266233
v -22.962696 -4.744690 13.772912
v -26.567390 -3.496607 36.268532
v -33.441994 0.536194 37.070816
v -29.845762 1.127115 14.842997
v -39.007202 2.960079 -0.571507
v -28.771935 28.740314 -0.913050
v -20.681795 27.814161 13.292200
v 21.622726 27.914658 -3.602585
v -15.425722 28.844925 -21.161495
v 16.469410 27.897547 -32.705173
v 18.670092 27.318785 -42.485996
v 1.878524 27.646214 -52.444332
v 27.717119 28.202526 22.517660
v 26.903273 27.927782 0.316267
v 9.134470 27.845112 31.815857
v -23.899483 27.081303 32.441265
v -13.802785 26.300779 52.917892
v 5.231903 27.169544 48.586437
v -4.075875 16.140926 -49.951260
v -28.233744 17.498789 7.712915
v -20.581169 28.487671 -0.659143
v -15.120842 27.862581 8.928486
v 13.431962 27.930407 -2.474405
v -11.573348 28.558277 -14.325539
v 9.953800 27.918858 -22.116756
v -17.292589 27.367950 21.852846
v 5.003201 27.883471 21.430740
v -16.737259 36.845814 -0.374371
v -12.243438 36.117428 8.246052
v 11.731079 36.178478 -2.240129
v -8.993322 36.743565 -11.464539
v 8.600779 36.168098 -19.917984
v -15.920609 35.672264 19.654072
v 2.310028 36.392292 18.018902
v -11.120775 33.188934 -13.522457
v -19.558449 33.413624 -0.627439
v -14.431924 32.787254 8.387886
v 4.468903 33.023308 20.087635
vt 0.932613 0.335690
vt 0.932613 0.335690
vt 0.932613 0.335690
vt 0.932613 0.335690
vt 0.932613 0.335690
vt 0.932613 0.335690
vt 0.932613 0.335690
vt 0.896837 0.323204
vt 0.896965 0.323422
vt 0.895962 0.323731
vt 0.896247 0.323152
vt 0.895513 0.323378
vt 0.895298 0.323293
vt 0.895390 0.323009
vt 0.932613 0.335690
vt 0.932613 0.335690
vt 0.932613 0.335690
vt 0.932613 0.335690
vt 0.932613 0.335690
vt 0.932613 0.335690
vt 0.932613 0.335690
vt 0.932613 0.335690
vt 0.932613 0.335690
vt 0.932613 0.335690
vt 0.932613 0.335690
vt 0.932613 0.335690
vt 0.932613 0.335690
vt 0.932613 0.335690
vt 0.932613 0.335690
vt 0.932613 0.335690
vt 0.932613 0.335690
vt 0.932613 0.335690
vt 0.932613 0.335690
vt 0.932613 0.335690
vt 0.896341 0.324070
vt 0.895947 0.323831
vt 0.896816 0.323947
vt 0.897368 0.323565
vt 0.897578 0.323871
vt 0.897187 0.324060
vt 0.896898 0.323019
vt 0.896986 0.323080
vt 0.932613 0.335690
vt 0.932613 0.335690
vt 0.932613 0.335690
vt 0.932613 0.335690
vt 0.932613 0.335690
vt 0.932613 0.335690
vt 0.932613 0.335690
vt 0.932613 0.335690
vt 0.932613 0.335690
vt 0.932613 0.335690
vt 0.932613 0.335690
vt 0.932613 0.335690
vt 0.932613 0.335690
vt 0.932613 0.335690
vt 0.932613 0.335690
vt 0.932613 0.335690
vt 0.932613 0.335690
vt 0.932613 0.335690
vt 0.932613 0.335690
vt 0.932613 0.335690
vt 0.932613 0.335690
vt 0.932613 0.335690
vt 0.932613 0.335690
vt 0.932613 0.335690
vt 0.932613 0.335690
vt 0.897043 0.323266
vt 0.896227 0.322960
vt 0.895392 0.323217
vt 0.895149 0.323137
vt 0.895252 0.322796
vt 0.895907 0.323648
vt 0.896333 0.324004
vt 0.895886 0.323732
vt 0.896868 0.323903
vt 0.897506 0.323400
vt 0.897731 0.323823
vt 0.897296 0.323992
vt 0.895534 0.322744
vt 0.932613 0.335690
vt 0.932613 0.335690
vt 0.896837 0.323204
vt 0.896965 0.323422
vt 0.896247 0.323152
vt 0.895962 0.323731
vt 0.895513 0.323378
vt 0.897368 0.323565
vt 0.896816 0.323947
vt 0.896837 0.323204
vt 0.896965 0.323422
vt 0.896247 0.323152
vt 0.895962 0.323731
vt 0.895513 0.323378
vt 0.897368 0.323565
vt 0.896816 0.323947
vt 0.896247 0.323152
vt 0.896837 0.323204
vt 0.896965 0.323422
vt 0.896816 0.323947
vt 0.932541 0.332927
vt 0.932420 0.333251
vt 0.932386 0.333396
vt 0.932494 0.333104
vt 0.931834 0.333119
vt 0.931848 0.333209
vt 0.931602 0.332883
vt 0.931630 0.332993
vt 0.931765 0.332714
vt 0.931784 0.332833
vt 0.931721 0.332487
vt 0.931757 0.332708
vt 0.932338 0.332522
vt 0.932321 0.332658
vn -0.089189 -0.992963 -0.077910
vn -0.089189 -0.992963 -0.077910
vn -0.089189 -0.992963 -0.077910
vn -0.032854 -0.963749 -0.264781
vn -0.032854 -0.963749 -0.264781
vn -0.032854 -0.963749 -0.264781
vn -0.032854 -0.963749 -0.264781
vn 0.167507 -0.981376 -0.094032
vn 0.167507 -0.981376 -0.094032
vn 0.167507 -0.981376 -0.094032
vn 0.167507 -0.981376 -0.094032
vn 0.025777 0.999020 0.035986
vn 0.025777 0.999020 0.035986
vn 0.025777 0.999020 0.035986
vn 0.025777 0.999020 0.035986
vn 0.025143 0.999193 -0.031308
vn 0.025143 0.999194 -0.031308
vn 0.025143 0.999193 -0.031308
vn 0.025143 0.999193 -0.031308
vn 0.029869 0.999537 -0.005876
vn 0.029869 0.999537 -0.005876
vn 0.029869 0.999537 -0.005876
vn -0.438905 -0.464044 -0.769432
vn -0.438905 -0.464044 -0.769432
vn -0.438905 -0.464044 -0.769432
vn -0.592364 -0.765431 0.251436
vn -0.592364 -0.765431 0.251436
vn -0.592364 -0.765431 0.251436
vn -0.592364 -0.765431 0.251436
vn -0.887483 0.003279 -0.460828
vn -0.887483 0.003279 -0.460828
vn -0.887483 0.003279 -0.460828
vn 0.506808 -0.062685 -0.859777
vn 0.506808 -0.062685 -0.859777
vn 0.506808 -0.062685 -0.859777
vn 0.506808 -0.062685 -0.859777
vn 0.977498 -0.027451 0.209153
vn 0.977498 -0.027451 0.209153
vn 0.977498 -0.027451 0.209153
vn 0.977498 -0.027451 0.209153
vn 0.984063 -0.020154 -0.176673
vn 0.984063 -0.020154 -0.176673
vn 0.984063 -0.020154 -0.176673
vn 0.984063 -0.020154 -0.176673
vn -0.773192 -0.154231 -0.615132
vn -0.773191 -0.154231 -0.615132
vn -0.773191 -0.154231 -0.615132
vn -0.284997 -0.267933 -0.920320
vn -0.284997 -0.267933 -0.920320
vn -0.284997 -0.267933 -0.920320
vn -0.284997 -0.267933 -0.920320
vn 0.880283 -0.362456 -0.306150
vn 0.880283 -0.362455 -0.306150
vn 0.880283 -0.362456 -0.306150
vn 0.152622 -0.986397 -0.061060
vn 0.152621 -0.986397 -0.061060
vn 0.152621 -0.986397 -0.061060
vn 0.011591 -0.999918 0.005448
vn 0.011591 -0.999918 0.005448
vn 0.011591 -0.999918 0.005448
vn 0.011591 -0.999918 0.005448
vn 0.060596 -0.958793 0.277569
vn 0.060596 -0.958793 0.277569
vn 0.060596 -0.958793 0.277569
vn 0.060596 -0.958793 0.277569
vn -0.215446 -0.976133 -0.027327
vn -0.215446 -0.976133 -0.027327
vn -0.215446 -0.976133 -0.027327
vn -0.215446 -0.976133 -0.027327
vn -0.017109 0.999829 -0.007027
vn -0.017109 0.999829 -0.007027
vn -0.017109 0.999829 -0.007027
vn -0.017109 0.999829 -0.007027
vn -0.027166 0.998681 0.043559
vn -0.027166 0.998681 0.043559
vn -0.027166 0.998681 0.043559
vn -0.027166 0.998681 0.043559
vn -0.018617 0.999827 -0.000396
vn -0.018617 0.999827 -0.000396
vn -0.018617 0.999827 -0.000396
vn -0.018617 0.999827 -0.000396
vn 0.413303 -0.001875 0.910591
vn 0.413303 -0.001875 0.910591
vn 0.413303 -0.001875 0.910591
vn 0.413303 -0.001875 0.910591
vn 0.603189 -0.003049 -0.797593
vn 0.603189 -0.003049 -0.797593
vn 0.603189 -0.003049 -0.797593
vn 0.603188 -0.003049 -0.797593
vn 0.982450 0.178196 -0.055127
vn 0.982450 0.178196 -0.055127
vn 0.982450 0.178196 -0.055127
vn 0.982450 0.178196 -0.055127
vn 0.975122 0.016908 0.221023
vn 0.975122 0.016908 0.221023
vn 0.975122 0.016908 0.221023
vn 0.975122 0.016908 0.221023
vn 0.212310 -0.038421 0.976447
vn 0.212310 -0.038421 0.976447
vn 0.212310 -0.038421 0.976447
vn 0.212310 -0.038421 0.976447
vn -0.262880 -0.598651 0.756644
vn -0.262880 -0.598651 0.756644
vn -0.262880 -0.598651 0.756644
vn -0.704361 0.086586 -0.704541
vn -0.704361 0.086586 -0.704541
vn -0.704361 0.086586 -0.704541
vn -0.554741 -0.001795 -0.832021
vn -0.554741 -0.001795 -0.832021
vn -0.554741 -0.001795 -0.832021
vn -0.554741 -0.001795 -0.832021
vn 0.347266 -0.173870 0.921507
vn 0.347266 -0.173870 0.921507
vn 0.347266 -0.173870 0.921507
vn -0.026787 -0.300003 0.953562
vn -0.026787 -0.300003 0.953562
vn -0.026787 -0.300003 0.953562
vn -0.026787 -0.300003 0.953562
vn -0.833824 -0.538495 -0.121493
vn -0.833824 -0.538495 -0.121493
vn -0.833824 -0.538495 -0.121493
vn -0.833824 -0.538495 -0.121493
vn -0.589674 -0.803351 -0.083139
vn -0.589674 -0.803351 -0.083139
vn -0.589674 -0.803351 -0.083139
vn -0.589674 -0.803351 -0.083139
vn 0.347138 0.044864 -0.936740
vn 0.347138 0.044864 -0.936740
vn 0.347138 0.044864 -0.936740
vn 0.347138 0.044864 -0.936740
vn 0.083286 -0.995436 -0.046596
vn 0.083286 -0.995436 -0.046596
vn 0.083286 -0.995436 -0.046596
vn 0.370201 -0.320360 0.871964
vn 0.370201 -0.320360 0.871964
vn 0.370201 -0.320360 0.871964
vn 0.516123 -0.855969 -0.030579
vn 0.516123 -0.855969 -0.030579
vn 0.516123 -0.855969 -0.030579
vn 0.516123 -0.855969 -0.030579
vn 0.136895 -0.550370 -0.823622
vn 0.136895 -0.550370 -0.823622
vn 0.136895 -0.550370 -0.823622
vn 0.459721 -0.031488 0.887505
vn 0.459721 -0.031488 0.887505
vn 0.459721 -0.031488 0.887505
vn 0.996929 -0.012823 -0.077248
vn 0.996929 -0.012823 -0.077248
vn 0.996929 -0.012823 -0.077248
vn 0.996929 -0.012823 -0.077248
vn 0.576632 -0.007830 -0.816966
vn 0.576632 -0.007830 -0.816966
vn 0.576632 -0.007830 -0.816966
vn -0.842568 -0.006577 -0.538551
vn -0.842568 -0.006577 -0.538551
vn -0.842568 -0.006577 -0.538551
vn -0.842567 -0.006577 -0.538551
vn -0.849942 -0.033917 0.525783
vn -0.849942 -0.033917 0.525783
vn -0.849942 -0.033917 0.525783
vn -0.849942 -0.033917 0.525783
vn -0.987922 -0.014693 -0.154251
vn -0.987922 -0.014693 -0.154251
vn -0.987922 -0.014693 -0.154251
vn -0.987922 -0.014693 -0.154251
vn -0.885107 -0.040897 0.463587
vn -0.885107 -0.040897 0.463587
vn -0.885107 -0.040897 0.463587
vn -0.885107 -0.040897 0.463587
vn -0.863361 0.304964 0.402001
vn -0.863361 0.304964 0.402001
vn -0.863361 0.304964 0.402001
vn -0.937800 0.318902 -0.137230
vn -0.937800 0.318902 -0.137230
vn -0.937800 0.318902 -0.137230
vn -0.937800 0.318902 -0.137230
vn -0.853173 0.276611 0.442246
vn -0.853173 0.276611 0.442246
vn -0.853173 0.276611 0.442246
vn -0.806430 0.261870 -0.530183
vn -0.806430 0.261870 -0.530183
vn -0.806430 0.261870 -0.530183
vn -0.799798 0.361671 0.479079
vn -0.799798 0.361671 0.479079
vn -0.799798 0.361671 0.479079
vn -0.799798 0.361671 0.479079
vn -0.799798 0.361671 0.479079
vn -0.759329 0.418435 -0.498329
vn -0.759329 0.418435 -0.498329
vn -0.759329 0.418435 -0.498329
vn -0.759329 0.418435 -0.498329
vn 0.960636 0.182043 0.209853
vn 0.960636 0.182043 0.209853
vn 0.960636 0.182043 0.209853
vn 0.960636 0.182043 0.209853
vn 0.374886 0.674830 -0.635661
vn 0.374886 0.674830 -0.635661
vn 0.374886 0.674830 -0.635661
vn 0.374886 0.674830 -0.635661
vn -0.791633 0.409368 -0.453581
vn -0.791633 0.409368 -0.453581
vn -0.791633 0.409368 -0.453581
vn -0.791633 0.409368 -0.453581
vn 0.895662 0.412814 -0.165453
vn 0.895662 0.412814 -0.165453
vn 0.895662 0.412814 -0.165453
vn 0.895662 0.412814 -0.165453
vn 0.889006 0.456296 -0.038235
vn 0.889006 0.456296 -0.038235
vn 0.889006 0.456296 -0.038235
vn 0.889006 0.456296 -0.038235
vn 0.588863 0.331907 -0.736939
vn 0.588863 0.331907 -0.736939
vn 0.588863 0.331907 -0.736939
vn 0.588863 0.331907 -0.736939
vn 0.378960 0.572603 0.726991
vn 0.378960 0.572603 0.726991
vn 0.378960 0.572603 0.726991
vn 0.378960 0.572603 0.726991
vn -0.751602 0.559996 0.348567
vn -0.751602 0.559996 0.348567
vn -0.751602 0.559996 0.348567
vn -0.751602 0.559996 0.348567
vn 0.159044 0.717547 0.678109
vn 0.159044 0.717547 0.678109
vn 0.159044 0.717547 0.678109
vn 0.159044 0.717547 0.678109
vn 0.901138 0.358310 0.244059
vn 0.901138 0.358310 0.244059
vn 0.901138 0.358310 0.244059
vn 0.901138 0.358310 0.244059
vn -0.942822 0.302542 -0.139840
vn -0.942822 0.302542 -0.139840
vn -0.942822 0.302542 -0.139840
vn -0.942822 0.302542 -0.139840
vn -0.868387 -0.019282 -0.495513
vn -0.868387 -0.019282 -0.495513
vn -0.868387 -0.019282 -0.495513
vn -0.868387 -0.019282 -0.495513
vn -0.859254 0.171682 -0.481879
vn -0.859254 0.171682 -0.481879
vn -0.859254 0.171682 -0.481879
vn -0.796572 0.287129 0.532005
vn -0.796572 0.287129 0.532005
vn -0.796572 0.287129 0.532005
vn -0.803089 0.302621 0.513292
vn -0.803089 0.302621 0.513292
vn -0.803089 0.302621 0.513292
vn 0.029295 0.998398 0.048410
vn 0.029295 0.998398 0.048410
vn 0.029295 0.998398 0.048410
vn 0.029295 0.998398 0.048410
vn 0.030047 0.999237 0.024967
vn 0.030047 0.999237 0.024967
vn 0.030047 0.999237 0.024967
vn 0.030047 0.999237 0.024967
vn 0.001798 0.999998 -0.000906
vn 0.001798 0.999998 -0.000906
vn 0.001798 0.999998 -0.000906
vn 0.001798 0.999998 -0.000906
vn 0.037242 0.999088 0.020906
vn 0.037242 0.999088 0.020906
vn 0.037242 0.999088 0.020906
vn 0.037242 0.999088 0.020906
vn 0.024534 0.998802 0.042348
vn 0.024534 0.998802 0.042348
vn 0.024534 0.998802 0.042348
vn 0.024534 0.998802 0.042348
vn -0.022872 0.999657 0.012791
vn -0.022872 0.999657 0.012791
vn -0.022872 0.999657 0.012791
vn -0.022872 0.999657 0.012791
vn 0.002305 0.999994 0.002776
vn 0.002305 0.999994 0.002776
vn 0.002305 0.999994 0.002776
vn 0.002305 0.999994 0.002776
vn -0.726197 0.530793 0.436917
vn -0.726197 0.530793 0.436917
vn -0.726197 0.530793 0.436917
vn -0.726197 0.530793 0.436917
vn -0.652611 0.610615 -0.448607
vn -0.652611 0.610615 -0.448607
vn -0.652611 0.610616 -0.448607
vn -0.652611 0.610615 -0.448607
vn 0.964026 0.203649 -0.170824
vn 0.964026 0.203649 -0.170824
vn 0.964026 0.203649 -0.170824
vn 0.964026 0.203649 -0.170824
vn -0.326079 0.612194 -0.720341
vn -0.326079 0.612194 -0.720341
vn -0.326079 0.612194 -0.720341
vn -0.815489 0.525591 -0.242348
vn -0.815489 0.525591 -0.242348
vn -0.815489 0.525591 -0.242348
vn 0.053317 0.547117 0.835356
vn 0.053317 0.547117 0.835356
vn 0.053317 0.547117 0.835356
vn 0.697675 0.642138 0.317662
vn 0.697675 0.642138 0.317662
vn 0.697675 0.642138 0.317662
vn -0.328898 0.192485 -0.924541
vn -0.328897 0.192485 -0.924541
vn -0.328897 0.192485 -0.924541
vn -0.328897 0.192485 -0.924541
vn -0.822584 0.174268 -0.541283
vn -0.822584 0.174268 -0.541283
vn -0.822584 0.174268 -0.541283
vn -0.822584 0.174268 -0.541283
vn -0.850878 0.173467 0.495900
vn -0.850878 0.173467 0.495900
vn -0.850878 0.173467 0.495900
vn -0.850878 0.173467 0.495900
vn -0.979845 0.119499 -0.160075
vn -0.979845 0.119499 -0.160075
vn -0.979845 0.119499 -0.160075
vn -0.979845 0.119499 -0.160075
vn 0.012436 0.254014 0.967121
vn 0.012436 0.254014 0.967121
vn 0.012436 0.254014 0.967121
vn 0.012436 0.254014 0.967121
vn 0.927245 0.181916 0.327296
vn 0.927245 0.181916 0.327296
vn 0.927245 0.181916 0.327296
vn 0.927245 0.181916 0.327296
s off
f 9/15/1 16/23/2 11/18/3
f 12/21/4 8/16/5 13/19/6 14/20/7
f 10/17/8 16/23/9 17/24/10 15/22/11
f 67/90/12 68/91/13 69/10/14 70/92/15
f 49/12/16 50/13/17 51/14/18 48/11/19
f 69/93/20 71/94/21 70/92/22
f 44/67/23 3/3/24 39/60/25
f 43/66/26 44/67/27 39/60/28 40/62/29
f 3/3/30 58/82/31 8/16/32
f 1/1/33 5/5/34 14/20/35 13/19/36
f 5/5/37 7/7/38 12/21/39 14/20/40
f 7/7/41 6/6/42 15/22/43 12/21/44
f 9/15/45 8/16/46 16/23/47
f 8/16/48 12/21/49 17/24/50 16/23/51
f 12/21/52 15/22/53 17/24/54
f 34/55/55 16/23/56 10/17/57
f 25/25/58 32/26/59 26/27/60 27/28/61
f 28/29/62 24/30/63 29/31/64 30/32/65
f 26/27/66 32/26/67 33/33/68 31/34/69
f 52/35/70 53/36/71 47/10/72 54/37/73
f 55/38/74 56/39/75 57/40/76 54/37/77
f 69/93/78 68/91/79 72/95/80 73/96/81
f 19/43/82 20/44/83 24/30/84 35/56/85
f 10/45/86 15/46/87 27/28/88 26/27/89
f 21/47/90 19/43/91 35/56/92 36/57/93
f 20/44/94 18/48/95 29/31/96 24/30/97
f 18/48/98 22/49/99 30/32/100 29/31/101
f 22/49/102 42/64/103 41/63/104
f 11/51/105 34/52/106 31/34/107
f 34/52/108 10/45/109 26/27/110 31/34/111
f 25/25/112 24/30/113 32/26/114
f 24/30/115 28/29/116 33/33/117 32/26/118
f 28/29/119 11/51/120 31/34/121 33/33/122
f 42/64/123 43/65/124 40/61/125 41/63/126
f 21/47/127 36/57/128 15/46/129 6/54/130
f 11/18/131 16/23/132 34/55/133
f 35/56/134 24/30/135 37/58/136
f 36/57/137 35/56/138 37/58/139 38/59/140
f 15/46/141 36/57/142 38/59/143
f 37/58/144 24/30/145 25/25/146
f 38/59/147 37/58/148 25/25/149 27/28/150
f 15/46/151 38/59/152 27/28/153
f 39/60/154 3/3/155 8/16/156 9/15/157
f 40/62/158 39/60/159 9/15/160 11/18/161
f 41/63/162 40/61/163 11/51/164 28/29/165
f 22/49/166 41/63/167 28/29/168 30/32/169
f 22/49/170 23/50/171 42/64/172
f 23/50/173 4/53/174 43/65/175 42/64/176
f 4/4/177 59/81/178 43/66/179
f 2/2/180 3/3/181 44/67/182
f 2/41/183 59/42/184 4/68/185 46/9/186 45/8/187
f 3/69/188 2/41/189 45/8/190 48/11/191
f 7/70/192 5/71/193 50/13/194 49/12/195
f 5/71/196 1/72/197 51/14/198 50/13/199
f 1/72/200 3/69/201 48/11/202 51/14/203
f 6/73/204 7/70/205 49/12/206 47/10/207
f 19/74/208 21/75/209 53/36/210 52/35/211
f 21/75/212 6/73/213 47/10/214 53/36/215
f 20/76/216 19/74/217 52/35/218 54/37/219
f 23/77/220 22/78/221 56/39/222 55/38/223
f 22/78/224 18/79/225 57/40/226 56/39/227
f 18/79/228 20/76/229 54/37/230 57/40/231
f 4/68/232 23/77/233 55/38/234 46/9/235
f 8/16/236 58/82/237 1/1/238 13/19/239
f 1/72/240 58/80/241 3/69/242
f 44/67/243 59/81/244 2/2/245
f 43/66/246 59/81/247 44/67/248
f 45/8/249 46/9/250 61/84/251 60/83/252
f 48/11/253 45/8/254 60/83/255 63/85/256
f 47/10/257 49/12/258 64/87/259 62/86/260
f 49/12/261 48/11/262 63/85/263 64/87/264
f 46/9/265 55/38/266 65/88/267 61/84/268
f 55/38/269 54/37/270 66/89/271 65/88/272
f 54/37/273 47/10/274 62/86/275 66/89/276
f 75/98/277 76/99/278 68/91/279 67/90/280
f 74/97/281 75/98/282 67/90/283 70/92/284
f 62/101/285 64/102/286 71/103/287 69/104/288
f 71/94/289 74/97/290 70/92/291
f 76/99/292 72/95/293 68/91/294
f 72/95/295 77/100/296 73/96/297
f 77/100/298 69/93/299 73/96/300
f 64/102/301 63/105/302 74/106/303 71/103/304
f 63/105/305 60/107/306 75/108/307 74/106/308
f 60/107/309 61/109/310 76/110/311 75/108/312
f 61/109/313 65/111/314 72/112/315 76/110/316
f 65/111/317 66/113/318 77/114/319 72/112/320
f 66/113/321 62/101/322 69/104/323 77/114/324
