# This file uses meters as units for non-parametric coordinates.

v -21.926880 -9.538446 19.966349
v 3.693649 -9.538446 19.966349
v -14.429733 12.543158 13.687563
v -1.976776 12.543158 13.687563
v -14.429733 12.543158 1.234577
v -1.976776 12.543158 1.234577
v -21.926880 -9.538446 -5.654430
v 3.693649 -9.538446 -5.654430
v -12.331131 33.707188 8.968295
v -7.953903 33.707188 8.968295
v -7.953903 33.707188 4.591109
v -12.331131 33.707188 4.591109
v -10.123184 38.552643 6.788476
v 4.372147 -8.936256 -11.493086
v -7.392624 -8.936256 6.061829
v 4.771164 10.531872 -3.573735
v -0.587967 10.531872 5.520249
v 13.864647 10.531872 1.785273
v 8.506271 10.531872 10.879225
v 21.927132 -8.936256 0.271971
v 10.162094 -8.936256 17.826887
v 7.298019 25.763166 -1.371861
v 3.898621 25.662371 3.052775
v 8.315018 25.216486 6.435824
v 11.714172 25.317308 2.011156
v 8.033752 30.964989 3.291370
v 4.232529 -9.997731 2.795181
v 11.053970 -9.997731 -14.917312
v 1.887772 9.567480 -4.060077
v 5.203506 9.567480 -12.668958
v -6.721237 9.567480 -7.375764
v -3.405258 9.567480 -15.984708
v -13.480637 -9.997731 -4.026784
v -6.658676 -9.997731 -21.739086
v -0.473526 30.263639 -6.903687
v 0.691727 30.263639 -9.929716
v -2.334335 30.263639 -11.095175
v -3.499863 30.263639 -8.069211
v -1.571915 33.905594 -9.078086
vt 0.896223 0.283530
vt 0.896223 0.283530
vt 0.896223 0.283530
vt 0.896223 0.283530
vt 0.896223 0.283530
vt 0.896223 0.283530
vt 0.896223 0.283530
vt 0.896223 0.283530
vt 0.896223 0.283530
vt 0.896223 0.283530
vt 0.896223 0.283530
vt 0.896223 0.283530
vt 0.896223 0.283530
vt 0.896223 0.283530
vt 0.896223 0.283530
vt 0.896223 0.283530
vt 0.896223 0.283530
vt 0.896223 0.283530
vt 0.896223 0.283530
vt 0.896223 0.283530
vt 0.896223 0.283530
vt 0.896223 0.283530
vt 0.896223 0.283530
vt 0.896223 0.283530
vt 0.896223 0.283530
vt 0.896223 0.283530
vt 0.896223 0.283530
vt 0.896223 0.283530
vt 0.896223 0.283530
vt 0.896223 0.283530
vt 0.896223 0.283530
vt 0.896223 0.283530
vt 0.896223 0.283530
vt 0.896223 0.283530
vt 0.896223 0.283530
vt 0.896223 0.283530
vt 0.896223 0.283530
vt 0.896223 0.283530
vt 0.896223 0.283530
vt 0.896223 0.283530
vt 0.896223 0.283530
vt 0.896223 0.283530
vt 0.896223 0.283530
vt 0.896223 0.283530
vt 0.896223 0.283530
vt 0.896223 0.283530
vt 0.896223 0.283530
vt 0.896223 0.283530
vt 0.896223 0.283530
vt 0.896223 0.283530
vt 0.896223 0.283530
vt 0.896223 0.283530
vt 0.896223 0.283530
vt 0.896223 0.283530
vt 0.896223 0.283530
vt 0.896223 0.283530
vt 0.896223 0.283530
vn 0.000000 0.273503 0.961871
vn 0.000000 0.273503 0.961871
vn 0.000000 0.273503 0.961871
vn 0.000000 0.273503 0.961871
vn 0.000000 0.297822 -0.954621
vn 0.000000 0.297822 -0.954621
vn 0.000000 0.297822 -0.954621
vn 0.000000 0.297822 -0.954621
vn 0.000000 -1.000000 0.000000
vn 0.000000 -1.000000 0.000000
vn 0.000000 -1.000000 0.000000
vn 0.000000 -1.000000 0.000000
vn 0.968574 0.248724 0.000000
vn 0.968574 0.248724 0.000000
vn 0.968574 0.248724 0.000000
vn 0.968574 0.248724 0.000000
vn -0.946911 0.321495 0.000000
vn -0.946911 0.321495 0.000000
vn -0.946911 0.321495 0.000000
vn -0.946911 0.321495 0.000000
vn 0.000000 0.217640 0.976029
vn 0.000000 0.217640 0.976029
vn 0.000000 0.217640 0.976029
vn 0.000000 0.217640 0.976029
vn 0.962357 0.271788 0.000000
vn 0.962357 0.271788 0.000000
vn 0.962357 0.271788 0.000000
vn 0.962357 0.271788 0.000000
vn 0.000000 0.156638 -0.987656
vn 0.000000 0.156638 -0.987656
vn 0.000000 0.156638 -0.987656
vn 0.000000 0.156638 -0.987656
vn -0.995120 0.098675 0.000000
vn -0.995120 0.098675 0.000000
vn -0.995120 0.098675 0.000000
vn -0.995120 0.098675 0.000000
vn 0.000000 0.410265 0.911966
vn 0.000000 0.410265 0.911966
vn 0.000000 0.410265 0.911966
vn 0.912707 0.408614 0.000000
vn 0.912707 0.408614 0.000000
vn 0.912707 0.408614 0.000000
vn 0.000000 0.413006 -0.910728
vn 0.000000 0.413006 -0.910728
vn 0.000000 0.413006 -0.910728
vn -0.909979 0.414654 0.000000
vn -0.909979 0.414654 0.000000
vn -0.909979 0.414654 0.000000
vn -0.814596 0.249893 -0.523438
vn -0.814596 0.249893 -0.523438
vn -0.814596 0.249893 -0.523438
vn -0.814596 0.249893 -0.523438
vn 0.808984 0.274470 0.519818
vn 0.808984 0.274470 0.519818
vn 0.808984 0.274470 0.519818
vn 0.808984 0.274470 0.519818
vn 0.000000 -1.000000 0.000000
vn 0.000000 -1.000000 0.000000
vn 0.000000 -1.000000 0.000000
vn 0.000000 -1.000000 0.000000
vn -0.526454 0.227203 0.819283
vn -0.526454 0.227203 0.819284
vn -0.526454 0.227203 0.819283
vn -0.526454 0.227203 0.819283
vn 0.516327 0.296281 -0.803508
vn 0.516327 0.296281 -0.803508
vn 0.516327 0.296281 -0.803508
vn 0.516327 0.296281 -0.803508
vn -0.825246 0.185963 -0.533279
vn -0.825246 0.185963 -0.533279
vn -0.825246 0.185963 -0.533279
vn -0.825246 0.185963 -0.533279
vn -0.517941 0.263271 0.813896
vn -0.517941 0.263271 0.813896
vn -0.517941 0.263271 0.813896
vn -0.517941 0.263271 0.813896
vn 0.830159 0.143082 0.538854
vn 0.830159 0.143082 0.538854
vn 0.830159 0.143082 0.538854
vn 0.830159 0.143082 0.538854
vn 0.543681 0.060886 -0.837081
vn 0.543681 0.060886 -0.837081
vn 0.543681 0.060886 -0.837081
vn 0.543681 0.060886 -0.837081
vn -0.670549 0.545535 -0.502748
vn -0.670549 0.545535 -0.502748
vn -0.670549 0.545535 -0.502748
vn -0.536546 0.384616 0.751125
vn -0.536546 0.384616 0.751125
vn -0.536546 0.384616 0.751125
vn 0.738693 0.350933 0.575481
vn 0.738693 0.350934 0.575481
vn 0.738693 0.350934 0.575481
vn 0.554810 0.510473 -0.656966
vn 0.554810 0.510473 -0.656966
vn 0.554810 0.510473 -0.656966
vn 0.907878 0.231305 0.349652
vn 0.907878 0.231305 0.349652
vn 0.907878 0.231305 0.349652
vn 0.907878 0.231305 0.349652
vn -0.902954 0.252429 -0.347783
vn -0.902954 0.252429 -0.347783
vn -0.902954 0.252429 -0.347783
vn -0.902954 0.252429 -0.347784
vn 0.000000 -1.000000 0.000000
vn 0.000000 -1.000000 0.000000
vn 0.000000 -1.000000 0.000000
vn 0.000000 -1.000000 0.000000
vn 0.351401 0.209919 -0.912388
vn 0.351401 0.209919 -0.912388
vn 0.351401 0.209919 -0.912388
vn 0.351401 0.209919 -0.912388
vn -0.345740 0.273105 0.897707
vn -0.345740 0.273105 0.897707
vn -0.345740 0.273105 0.897707
vn -0.345740 0.273105 0.897707
vn 0.922052 0.153999 0.355112
vn 0.922052 0.153999 0.355113
vn 0.922052 0.153999 0.355112
vn 0.922052 0.153999 0.355113
vn 0.352311 0.197875 -0.914725
vn 0.352311 0.197875 -0.914726
vn 0.352311 0.197875 -0.914726
vn 0.352311 0.197875 -0.914725
vn -0.924999 0.132039 -0.356289
vn -0.924999 0.132039 -0.356289
vn -0.924999 0.132039 -0.356289
vn -0.924999 0.132039 -0.356289
vn -0.358045 0.086880 0.929654
vn -0.358045 0.086880 0.929654
vn -0.358045 0.086880 0.929654
vn -0.358045 0.086880 0.929654
vn 0.836015 0.444342 0.321930
vn 0.836015 0.444342 0.321930
vn 0.836015 0.444342 0.321930
vn 0.328775 0.403965 -0.853650
vn 0.328775 0.403965 -0.853650
vn 0.328775 0.403965 -0.853650
vn -0.868085 0.366916 -0.334366
vn -0.868085 0.366916 -0.334366
vn -0.868085 0.366916 -0.334366
vn -0.327892 0.409423 0.851387
vn -0.327892 0.409423 0.851387
vn -0.327892 0.409423 0.851387
s off
f 1/1/1 2/2/2 4/4/3 3/3/4
f 5/5/5 6/6/6 8/8/7 7/7/8
f 7/7/9 8/8/10 2/10/11 1/9/12
f 2/2/13 8/11/14 6/12/15 4/4/16
f 7/13/17 1/1/18 3/3/19 5/14/20
f 3/3/21 4/4/22 10/16/23 9/15/24
f 4/4/25 6/6/26 11/17/27 10/16/28
f 6/6/29 5/5/30 12/18/31 11/17/32
f 5/5/33 3/3/34 9/15/35 12/18/36
f 9/15/37 10/16/38 13/19/39
f 10/16/40 11/17/41 13/19/42
f 11/17/43 12/18/44 13/19/45
f 12/18/46 9/15/47 13/19/48
f 14/20/49 15/21/50 17/22/51 16/23/52
f 18/24/53 19/25/54 21/26/55 20/27/56
f 20/27/57 21/26/58 15/28/59 14/29/60
f 15/21/61 21/30/62 19/31/63 17/22/64
f 20/32/65 14/20/66 16/23/67 18/33/68
f 16/23/69 17/22/70 23/34/71 22/35/72
f 17/22/73 19/25/74 24/36/75 23/34/76
f 19/25/77 18/24/78 25/37/79 24/36/80
f 18/24/81 16/23/82 22/35/83 25/37/84
f 22/35/85 23/34/86 26/38/87
f 23/34/88 24/36/89 26/38/90
f 24/36/91 25/37/92 26/38/93
f 25/37/94 22/35/95 26/38/96
f 27/39/97 28/40/98 30/41/99 29/42/100
f 31/43/101 32/44/102 34/45/103 33/46/104
f 33/46/105 34/45/106 28/47/107 27/48/108
f 28/40/109 34/49/110 32/50/111 30/41/112
f 33/51/113 27/39/114 29/42/115 31/52/116
f 29/42/117 30/41/118 36/53/119 35/54/120
f 30/41/121 32/44/122 37/55/123 36/53/124
f 32/44/125 31/43/126 38/56/127 37/55/128
f 31/43/129 29/42/130 35/54/131 38/56/132
f 35/54/133 36/53/134 39/57/135
f 36/53/136 37/55/137 39/57/138
f 37/55/139 38/56/140 39/57/141
f 38/56/142 35/54/143 39/57/144
