# This file uses meters as units for non-parametric coordinates.

v 65.542130 0.000040 0.030327
v -77.945671 0.000040 -14.075742
v 73.453590 0.000040 21.904385
v -78.561798 0.000040 -0.042586
v -70.202141 0.000040 21.224453
v -82.398064 0.000000 56.306957
v -72.107109 0.000040 74.194031
v -31.317129 0.000040 99.443405
v -5.235898 0.000040 92.135437
v 39.818439 0.000040 111.292519
v 73.837082 0.000040 82.049660
v 65.953911 0.000040 51.938232
v 65.542130 35.750153 0.030327
v -77.945671 29.963945 -14.075742
v -78.561798 29.963945 -0.042586
v -70.202141 29.963945 21.224453
v -82.398064 19.035559 56.306995
v -72.107109 19.035559 74.194031
v -31.317129 19.035559 99.443405
v -5.235898 19.035559 92.135437
v 39.818439 24.579084 111.292519
v 73.837082 24.579084 82.049660
v 65.953911 35.750153 51.938232
v 73.453590 35.750153 21.904385
v 44.135159 31.971638 7.255836
v -52.379173 29.542788 26.137705
v -51.278667 26.504639 37.687420
v 34.337940 27.282423 69.790123
v -82.788437 0.000040 -15.412654
v -20.700310 0.000040 63.471874
v -52.792950 0.000040 27.738195
v -32.600327 0.000040 32.614948
v 15.545176 0.000040 63.014568
v -82.788437 0.000040 -38.673431
v 42.497204 0.000040 47.882015
v 47.512077 0.000040 9.173852
v 74.942337 0.000040 -2.474411
v 82.788437 0.000040 -43.434158
v 41.657719 0.000040 -84.490501
v 15.096684 0.000040 -77.953644
v -20.755949 0.000040 -111.292519
v -62.692505 0.000040 -95.363396
v -65.520905 0.000040 -64.365952
v -82.788437 61.457397 -15.412654
v -52.792950 61.457397 27.738195
v -32.600327 53.737129 32.614948
v -20.700310 53.737129 63.471874
v 15.545176 53.737129 63.014568
v 42.497204 53.737129 47.882015
v 47.512077 53.737129 9.173852
v 74.942368 39.155918 -2.474411
v 82.788437 39.155918 -43.434158
v 41.657719 33.107498 -84.490501
v 15.096684 39.155918 -77.953644
v -20.755949 46.552368 -111.292519
v -62.692505 46.552368 -95.363396
v -65.520905 61.457397 -64.365952
v -82.788437 61.457397 -38.673431
v -31.062553 59.851086 13.984188
v -8.938571 53.175236 20.281992
v 35.178375 0.000040 51.991291
v 39.875584 53.737129 -11.091692
v -29.717985 51.877312 -70.400383
v -1.675274 51.877312 -56.930641
v -48.376587 59.851086 -45.244488
vt 0.896484 0.287531
vt 0.896484 0.287531
vt 0.896484 0.287531
vt 0.896484 0.287531
vt 0.896484 0.287531
vt 0.896484 0.287531
vt 0.896484 0.287531
vt 0.896484 0.287531
vt 0.896484 0.287531
vt 0.896484 0.287531
vt 0.896484 0.287531
vt 0.896484 0.287531
vt 0.896484 0.287531
vt 0.896484 0.287531
vt 0.896484 0.287531
vt 0.896484 0.287531
vt 0.896484 0.287531
vt 0.896484 0.287531
vt 0.896484 0.287531
vt 0.896484 0.287531
vt 0.896484 0.287531
vt 0.896484 0.287531
vt 0.896484 0.287531
vt 0.896484 0.287531
vt 0.896484 0.287531
vt 0.896484 0.287531
vt 0.896484 0.287531
vt 0.896484 0.287531
vt 0.896484 0.287531
vt 0.896484 0.287531
vt 0.896484 0.287531
vt 0.896484 0.287531
vt 0.896484 0.287531
vt 0.896484 0.287531
vt 0.896484 0.287531
vt 0.896484 0.287531
vt 0.896484 0.287531
vt 0.896484 0.287531
vt 0.896484 0.287531
vt 0.896484 0.287531
vt 0.896484 0.287531
vt 0.896484 0.287531
vt 0.896484 0.287531
vt 0.896484 0.287531
vt 0.896484 0.287531
vt 0.896484 0.287531
vt 0.896484 0.287531
vt 0.896484 0.287531
vt 0.896484 0.287531
vt 0.896484 0.287531
vt 0.896484 0.287531
vt 0.896484 0.287531
vt 0.896484 0.287531
vt 0.896484 0.287531
vt 0.896484 0.287531
vt 0.896484 0.287531
vt 0.896484 0.287531
vt 0.896484 0.287531
vt 0.896484 0.287531
vt 0.896484 0.287531
vt 0.896484 0.287531
vt 0.896484 0.287531
vt 0.896484 0.287531
vt 0.896484 0.287531
vt 0.896484 0.287531
vt 0.896484 0.287531
vt 0.896484 0.287531
vt 0.896484 0.287531
vt 0.896484 0.287531
vt 0.896484 0.287531
vt 0.896484 0.287531
vt 0.896484 0.287531
vt 0.896484 0.287531
vt 0.896484 0.287531
vt 0.896484 0.287531
vt 0.896484 0.287531
vt 0.896484 0.287531
vt 0.896484 0.287531
vt 0.896484 0.287531
vt 0.896484 0.287531
vt 0.896484 0.287531
vn -0.024830 0.994594 0.100827
vn -0.024830 0.994594 0.100827
vn -0.024830 0.994594 0.100827
vn -0.024830 0.994594 0.100827
vn -0.999038 0.000000 -0.043863
vn -0.999038 0.000000 -0.043863
vn -0.999038 0.000000 -0.043863
vn -0.999038 0.000000 -0.043863
vn -0.930681 0.000000 0.365832
vn -0.930681 0.000000 0.365832
vn -0.930681 0.000000 0.365832
vn -0.930681 0.000000 0.365832
vn -0.944553 0.000000 -0.328360
vn -0.944553 0.000000 -0.328360
vn -0.944553 0.000000 -0.328360
vn -0.944553 0.000000 -0.328360
vn -0.866783 -0.000001 0.498686
vn -0.866783 -0.000001 0.498686
vn -0.866783 -0.000001 0.498686
vn -0.866783 -0.000001 0.498686
vn -0.526331 0.000000 0.850280
vn -0.526331 0.000000 0.850280
vn -0.526331 0.000000 0.850280
vn -0.526331 0.000000 0.850280
vn 0.269809 0.000000 0.962914
vn 0.269809 0.000000 0.962914
vn 0.269809 0.000000 0.962914
vn 0.269809 0.000000 0.962914
vn -0.391296 0.000000 0.920265
vn -0.391296 0.000000 0.920265
vn -0.391296 0.000000 0.920265
vn -0.391296 0.000000 0.920265
vn 0.651870 0.000000 0.758330
vn 0.651870 0.000000 0.758330
vn 0.651870 0.000000 0.758330
vn 0.651870 0.000000 0.758330
vn 0.967397 0.000000 -0.253265
vn 0.967397 0.000000 -0.253265
vn 0.967397 0.000000 -0.253265
vn 0.967397 0.000000 -0.253265
vn 0.970209 0.000000 0.242269
vn 0.970209 0.000000 0.242269
vn 0.970209 0.000000 0.242269
vn 0.970209 0.000000 0.242269
vn 0.940382 0.000000 -0.340120
vn 0.940382 0.000000 -0.340120
vn 0.940382 0.000000 -0.340120
vn 0.940382 0.000000 -0.340120
vn 0.020600 0.999778 -0.004519
vn 0.020600 0.999778 -0.004519
vn 0.020600 0.999778 -0.004519
vn 0.020600 0.999778 -0.004519
vn -0.064935 0.958923 0.276135
vn -0.064935 0.958923 0.276135
vn -0.064935 0.958923 0.276135
vn 0.008661 0.982009 0.188637
vn 0.008661 0.982009 0.188637
vn 0.008661 0.982009 0.188637
vn 0.008661 0.982009 0.188637
vn -0.173371 0.984856 0.001375
vn -0.173371 0.984856 0.001375
vn -0.173371 0.984856 0.001375
vn -0.035201 0.990730 0.131202
vn -0.035201 0.990731 0.131202
vn -0.035201 0.990730 0.131202
vn -0.035201 0.990731 0.131202
vn -0.086367 0.974580 0.206726
vn -0.086367 0.974580 0.206726
vn -0.086367 0.974580 0.206726
vn -0.157137 0.983926 0.084840
vn -0.157137 0.983926 0.084840
vn -0.157137 0.983926 0.084840
vn -0.239987 0.970140 0.035149
vn -0.239987 0.970140 0.035149
vn -0.239987 0.970140 0.035149
vn -0.048437 0.964820 0.258411
vn -0.048437 0.964820 0.258411
vn -0.048437 0.964820 0.258411
vn 0.000000 1.000000 0.000000
vn 0.000000 1.000000 0.000000
vn 0.000000 1.000000 0.000000
vn -0.174879 0.979436 0.100613
vn -0.174879 0.979436 0.100613
vn -0.174879 0.979436 0.100613
vn 0.150560 0.987404 -0.048633
vn 0.150560 0.987404 -0.048633
vn 0.150560 0.987404 -0.048633
vn 0.150560 0.987404 -0.048633
vn 0.000000 -1.000000 0.000000
vn 0.000000 -1.000000 0.000000
vn 0.000000 -1.000000 0.000000
vn 0.000000 -1.000000 0.000000
vn 0.000000 -1.000000 0.000000
vn 0.000000 -1.000000 0.000000
vn 0.000000 -1.000000 0.000000
vn 0.000000 -1.000000 0.000000
vn 0.000000 -1.000000 0.000000
vn 0.000000 -1.000000 0.000000
vn 0.000000 -1.000000 0.000000
vn 0.000000 -1.000000 0.000000
vn 0.000000 -1.000000 0.000000
vn 0.000000 -1.000000 0.000000
vn 0.000000 -1.000000 0.000000
vn 0.000000 -1.000000 0.000000
vn -0.821106 0.000000 0.570776
vn -0.821106 0.000000 0.570776
vn -0.821106 0.000000 0.570776
vn -0.821106 0.000000 0.570776
vn -0.234762 0.000000 0.972053
vn -0.234762 0.000000 0.972053
vn -0.234762 0.000000 0.972053
vn -0.234762 0.000000 0.972053
vn -0.933021 0.000000 0.359821
vn -0.933021 0.000000 0.359821
vn -0.933021 0.000000 0.359821
vn -0.933021 0.000000 0.359821
vn 0.012616 0.000000 0.999920
vn 0.012616 0.000000 0.999920
vn 0.012616 0.000000 0.999920
vn 0.012616 0.000000 0.999920
vn 0.489574 0.000000 0.871962
vn 0.489574 0.000000 0.871962
vn 0.489574 0.000000 0.871962
vn 0.489574 0.000000 0.871962
vn 0.991712 0.000000 0.128482
vn 0.991712 0.000000 0.128482
vn 0.991712 0.000000 0.128482
vn 0.991712 0.000000 0.128482
vn 0.390868 -0.000000 0.920447
vn 0.390868 -0.000000 0.920447
vn 0.390868 -0.000000 0.920447
vn 0.390868 -0.000000 0.920447
vn 0.982143 -0.000000 0.188135
vn 0.982143 -0.000000 0.188135
vn 0.982143 -0.000000 0.188135
vn 0.982143 -0.000000 0.188135
vn 0.706467 0.000000 -0.707746
vn 0.706467 0.000000 -0.707746
vn 0.706467 0.000000 -0.707746
vn 0.706467 0.000000 -0.707746
vn -0.238976 0.000000 -0.971025
vn -0.238976 0.000000 -0.971025
vn -0.238976 0.000000 -0.971025
vn -0.238976 0.000000 -0.971025
vn 0.680968 0.000000 -0.732313
vn 0.680968 0.000000 -0.732313
vn 0.680968 0.000000 -0.732313
vn 0.680968 0.000000 -0.732313
vn -0.355086 0.000000 -0.934834
vn -0.355086 0.000000 -0.934834
vn -0.355086 0.000000 -0.934834
vn -0.355086 0.000000 -0.934834
vn -0.995863 0.000000 -0.090869
vn -0.995863 0.000000 -0.090869
vn -0.995863 0.000000 -0.090869
vn -0.995863 0.000000 -0.090869
vn -0.829969 0.000000 -0.557809
vn -0.829969 0.000000 -0.557809
vn -0.829969 0.000000 -0.557809
vn -0.829969 0.000000 -0.557809
vn -1.000000 0.000000 0.000000
vn -1.000000 0.000000 0.000000
vn -1.000000 0.000000 0.000000
vn -1.000000 0.000000 0.000000
vn -0.008284 0.999954 -0.004919
vn -0.008284 0.999954 -0.004919
vn -0.008284 0.999954 -0.004919
vn -0.008284 0.999954 -0.004919
vn 0.411549 0.898096 -0.155081
vn 0.411549 0.898096 -0.155081
vn 0.411549 0.898096 -0.155081
vn 0.044182 0.963538 -0.263897
vn 0.044182 0.963539 -0.263897
vn 0.044182 0.963539 -0.263897
vn 0.044182 0.963538 -0.263897
vn 0.042069 0.998926 -0.019440
vn 0.042069 0.998926 -0.019440
vn 0.042069 0.998926 -0.019440
vn 0.042069 0.998926 -0.019440
vn 0.188956 0.928303 0.320233
vn 0.188956 0.928303 0.320233
vn 0.188956 0.928303 0.320233
vn 0.000000 1.000000 0.000000
vn 0.000000 1.000000 0.000000
vn 0.000000 1.000000 0.000000
vn 0.489573 0.000000 0.871963
vn 0.489573 0.000000 0.871962
vn 0.489573 0.000000 0.871963
vn 0.145502 0.947322 -0.285325
vn 0.145502 0.947322 -0.285325
vn 0.145502 0.947322 -0.285325
vn 0.261826 0.962718 -0.067982
vn 0.261826 0.962718 -0.067982
vn 0.261826 0.962718 -0.067982
vn 0.292008 0.952599 -0.085361
vn 0.292008 0.952599 -0.085361
vn 0.292008 0.952599 -0.085361
vn -0.009266 0.999951 0.003492
vn -0.009266 0.999951 0.003492
vn -0.009266 0.999951 0.003492
vn 0.000000 1.000000 0.000000
vn 0.000000 1.000000 0.000000
vn 0.000000 1.000000 0.000000
vn 0.269838 0.908082 0.320273
vn 0.269838 0.908082 0.320273
vn 0.269838 0.908082 0.320273
vn 0.368162 0.927083 0.070524
vn 0.368162 0.927083 0.070524
vn 0.368163 0.927083 0.070524
vn 0.013005 0.999703 -0.020596
vn 0.013005 0.999703 -0.020596
vn 0.013005 0.999703 -0.020596
vn 0.189045 0.899645 -0.393573
vn 0.189045 0.899646 -0.393573
vn 0.189045 0.899646 -0.393573
vn 0.185974 0.943387 -0.274655
vn 0.185974 0.943387 -0.274655
vn 0.185974 0.943387 -0.274655
vn 0.185974 0.943387 -0.274655
vn 0.235703 0.963033 -0.130432
vn 0.235703 0.963033 -0.130432
vn 0.235703 0.963033 -0.130432
vn 0.067070 0.997468 0.023658
vn 0.067070 0.997468 0.023658
vn 0.067070 0.997468 0.023658
vn -0.023740 0.999537 -0.019035
vn -0.023740 0.999537 -0.019035
vn -0.023740 0.999537 -0.019035
s off
f 28/28/1 25/25/2 26/26/3 27/27/4
f 14/14/5 2/2/6 4/4/7 15/15/8
f 4/4/9 5/5/10 16/16/11 15/15/12
f 5/5/13 6/6/14 17/17/15 16/16/16
f 6/6/17 7/7/18 18/18/19 17/17/20
f 7/7/21 8/8/22 19/19/23 18/18/24
f 8/8/25 9/9/26 20/20/27 19/19/28
f 9/9/29 10/10/30 21/21/31 20/20/32
f 10/10/33 11/11/34 22/22/35 21/21/36
f 11/11/37 12/12/38 23/23/39 22/22/40
f 12/12/41 3/3/42 24/24/43 23/23/44
f 3/3/45 1/1/46 13/13/47 24/24/48
f 16/16/49 26/26/50 14/14/51 15/15/52
f 17/17/53 27/27/54 16/16/55
f 23/23/56 28/28/57 21/21/58 22/22/59
f 13/13/60 25/25/61 23/23/62
f 20/20/63 27/27/64 18/18/65 19/19/66
f 28/28/67 27/27/68 20/20/69
f 21/21/70 28/28/71 20/20/72
f 23/23/73 25/25/74 28/28/75
f 27/27/76 26/26/77 16/16/78
f 13/13/79 23/23/80 24/24/81
f 18/18/82 27/27/83 17/17/84
f 59/30/85 60/31/86 64/80/87 63/29/88
f 29/33/89 34/34/90 43/35/91 42/36/92 41/37/93 40/38/94 39/39/95 38/40/96 37/41/97 36/42/98 35/43/99 61/44/100 33/45/101 30/46/102 32/47/103 31/48/104
f 29/49/105 31/50/106 45/51/107 44/52/108
f 31/50/109 32/53/110 46/54/111 45/51/112
f 32/53/113 30/55/114 47/56/115 46/54/116
f 30/55/117 33/57/118 48/58/119 47/56/120
f 48/58/121 61/59/122 35/60/123 49/61/124
f 35/60/125 36/62/126 50/63/127 49/61/128
f 36/62/129 37/64/130 51/65/131 50/63/132
f 37/64/133 38/66/134 52/67/135 51/65/136
f 38/66/137 39/68/138 53/69/139 52/67/140
f 39/68/141 40/70/142 54/71/143 53/69/144
f 40/70/145 41/72/146 55/73/147 54/71/148
f 41/72/149 42/74/150 56/75/151 55/73/152
f 42/74/153 43/76/154 57/77/155 56/75/156
f 43/76/157 34/78/158 58/79/159 57/77/160
f 34/78/161 29/49/162 44/52/163 58/79/164
f 50/63/165 60/31/166 48/58/167 49/61/168
f 51/65/169 62/32/170 50/63/171
f 57/77/172 63/29/173 55/73/174 56/75/175
f 59/30/176 65/81/177 44/52/178 45/51/179
f 60/31/180 59/30/181 46/54/182
f 48/58/183 46/54/184 47/56/185
f 33/57/186 61/59/187 48/58/188
f 54/71/189 52/67/190 53/69/191
f 55/73/192 63/29/193 54/71/194
f 63/29/195 65/81/196 59/30/197
f 62/32/198 60/31/199 50/63/200
f 44/52/201 57/77/202 58/79/203
f 59/30/204 45/51/205 46/54/206
f 52/67/207 62/32/208 51/65/209
f 48/58/210 60/31/211 46/54/212
f 63/29/213 64/80/214 54/71/215
f 54/71/216 64/80/217 62/32/218 52/67/219
f 57/77/220 65/81/221 63/29/222
f 44/52/223 65/81/224 57/77/225
f 64/80/226 60/31/227 62/32/228
