# This file uses meters as units for non-parametric coordinates.

v 22.325195 -7.136263 -39.850235
v -13.858887 -7.136263 -37.681961
v -26.741943 -7.136263 -4.319702
v -12.722656 -7.136263 15.303291
v 22.325195 -7.136263 18.799080
v 36.311157 -7.136263 -1.179504
v 20.404663 9.443153 -36.566422
v -12.379883 9.406536 -34.031921
v -22.975098 9.443153 -4.319702
v -11.051758 9.406536 11.428894
v 20.404663 7.998110 15.515198
v 32.544067 9.406536 -2.087593
v 5.394653 -7.136263 -10.525574
v 5.399170 9.382690 -10.525574
v 2.951172 -5.322040 6.446587
v -18.348022 -5.322040 -3.842606
v -36.310669 -5.322040 11.055756
v -34.575806 -5.322040 26.696960
v -15.727661 -5.322040 39.850174
v -1.399170 -5.322040 32.925667
v 0.811646 6.250756 7.705177
v -18.667969 6.226519 -1.292679
v -34.165283 6.250756 12.255539
v -32.390259 6.226519 25.022507
v -15.775391 5.294232 37.368195
v -3.255371 6.226519 31.208672
v -16.030762 -5.322040 17.756271
v -16.028198 6.210734 17.757668
vt 0.896141 0.286199
vt 0.896141 0.286199
vt 0.896141 0.286199
vt 0.896141 0.286199
vt 0.896141 0.286199
vt 0.896141 0.286199
vt 0.896141 0.286199
vt 0.896141 0.286199
vt 0.896141 0.286199
vt 0.896141 0.286199
vt 0.896141 0.286199
vt 0.896141 0.286199
vt 0.896141 0.286199
vt 0.896141 0.286199
vt 0.896141 0.286199
vt 0.896141 0.286199
vt 0.896141 0.286199
vt 0.896141 0.286199
vt 0.896141 0.286199
vt 0.896141 0.286199
vt 0.449097 0.281309
vt 0.449097 0.281309
vt 0.449097 0.281309
vt 0.449097 0.281309
vt 0.449097 0.281309
vt 0.449097 0.281309
vt 0.896141 0.286199
vt 0.449097 0.281309
vt 0.896141 0.286199
vt 0.896141 0.286199
vt 0.896141 0.286199
vt 0.896141 0.286199
vt 0.896141 0.286199
vt 0.896141 0.286199
vt 0.896141 0.286199
vt 0.896141 0.286199
vt 0.896141 0.286199
vt 0.896141 0.286199
vt 0.896141 0.286199
vt 0.896141 0.286199
vt 0.896141 0.286199
vt 0.896141 0.286199
vt 0.896141 0.286199
vt 0.896141 0.286199
vt 0.896141 0.286199
vt 0.896141 0.286199
vt 0.896141 0.286199
vt 0.896141 0.286199
vt 0.896141 0.286199
vt 0.449097 0.281308
vt 0.449097 0.281308
vt 0.449097 0.281308
vt 0.449097 0.281308
vt 0.449097 0.281308
vt 0.449097 0.281308
vt 0.449097 0.281308
vn -0.066712 0.203591 -0.976781
vn -0.066712 0.203591 -0.976780
vn -0.066712 0.203591 -0.976781
vn -0.066712 0.203591 -0.976781
vn -0.921197 0.183700 -0.343003
vn -0.921197 0.183700 -0.343003
vn -0.921197 0.183700 -0.343003
vn -0.921197 0.183700 -0.343003
vn -0.790374 0.197588 0.579886
vn -0.790374 0.197588 0.579886
vn -0.790374 0.197588 0.579886
vn -0.790374 0.197588 0.579886
vn -0.105974 0.218382 0.970092
vn -0.105974 0.218382 0.970092
vn -0.105974 0.218382 0.970092
vn -0.105974 0.218382 0.970092
vn 0.797565 0.217656 0.562598
vn 0.797565 0.217656 0.562598
vn 0.797565 0.217656 0.562598
vn 0.797565 0.217656 0.562598
vn 0.925916 0.182710 -0.330599
vn 0.925916 0.182710 -0.330599
vn 0.925916 0.182710 -0.330599
vn 0.925916 0.182710 -0.330599
vn 0.000000 -1.000000 0.000000
vn 0.000000 -1.000000 0.000000
vn 0.000000 -1.000000 0.000000
vn 0.000000 -1.000000 0.000000
vn 0.000000 -1.000000 0.000000
vn 0.000000 -1.000000 0.000000
vn 0.000000 -1.000000 -0.000000
vn 0.000000 -1.000000 -0.000000
vn 0.000000 -1.000000 -0.000000
vn 0.000000 -1.000000 0.000000
vn 0.000000 -1.000000 0.000000
vn 0.000000 -1.000000 0.000000
vn 0.000000 -1.000000 0.000000
vn 0.000000 -1.000000 0.000000
vn 0.000000 -1.000000 0.000000
vn 0.000000 -1.000000 0.000000
vn 0.000000 -1.000000 0.000000
vn 0.000000 -1.000000 0.000000
vn -0.000981 0.999998 0.001756
vn -0.000981 0.999998 0.001756
vn -0.000981 0.999998 0.001756
vn 0.002019 0.999998 -0.000512
vn 0.002019 0.999998 -0.000512
vn 0.002019 0.999998 -0.000512
vn 0.002264 0.999997 0.000611
vn 0.002264 0.999997 0.000611
vn 0.002264 0.999997 0.000611
vn 0.040879 0.998727 0.029547
vn 0.040879 0.998727 0.029547
vn 0.040879 0.998727 0.029547
vn -0.021154 0.997646 0.065234
vn -0.021154 0.997646 0.065234
vn -0.021154 0.997646 0.065234
vn -0.001357 0.999998 0.001540
vn -0.001357 0.999998 0.001540
vn -0.001357 0.999998 0.001540
vn 0.419609 0.190810 -0.887423
vn 0.419608 0.190810 -0.887423
vn 0.419609 0.190810 -0.887423
vn 0.419609 0.190810 -0.887423
vn -0.637986 0.172094 -0.750571
vn -0.637986 0.172094 -0.750571
vn -0.637986 0.172094 -0.750571
vn -0.637986 0.172094 -0.750571
vn -0.975273 0.185160 0.120660
vn -0.975273 0.185160 0.120660
vn -0.975273 0.185160 0.120660
vn -0.975273 0.185160 0.120660
vn -0.567927 0.204292 0.797322
vn -0.567927 0.204292 0.797323
vn -0.567927 0.204292 0.797323
vn -0.567927 0.204292 0.797323
vn 0.423177 0.203607 0.882873
vn 0.423177 0.203607 0.882873
vn 0.423177 0.203607 0.882873
vn 0.423177 0.203607 0.882873
vn 0.971552 0.171147 0.163696
vn 0.971552 0.171147 0.163696
vn 0.971552 0.171147 0.163696
vn 0.971552 0.171147 0.163696
vn 0.000000 -1.000000 -0.000000
vn 0.000000 -1.000000 -0.000000
vn 0.000000 -1.000000 -0.000000
vn 0.000000 -1.000000 0.000000
vn 0.000000 -1.000000 0.000000
vn 0.000000 -1.000000 0.000000
vn 0.000000 -1.000000 -0.000000
vn 0.000000 -1.000000 -0.000000
vn 0.000000 -1.000000 -0.000000
vn 0.000000 -1.000000 -0.000000
vn 0.000000 -1.000000 -0.000000
vn 0.000000 -1.000000 -0.000000
vn 0.000000 -1.000000 0.000000
vn 0.000000 -1.000000 0.000000
vn 0.000000 -1.000000 0.000000
vn 0.000000 -1.000000 0.000000
vn 0.000000 -1.000000 0.000000
vn 0.000000 -1.000000 0.000000
vn -0.001738 0.999998 0.001069
vn -0.001738 0.999998 0.001069
vn -0.001738 0.999998 0.001069
vn 0.002041 0.999998 0.000546
vn 0.002041 0.999998 0.000546
vn 0.002041 0.999998 0.000546
vn 0.001703 0.999997 0.001662
vn 0.001703 0.999997 0.001662
vn 0.001703 0.999997 0.001662
vn 0.021564 0.998690 0.046396
vn 0.021564 0.998690 0.046396
vn 0.021564 0.998690 0.046396
vn -0.051023 0.997578 0.047280
vn -0.051023 0.997578 0.047280
vn -0.051023 0.997578 0.047280
vn -0.001964 0.999998 0.000691
vn -0.001964 0.999998 0.000691
vn -0.001964 0.999998 0.000691
s off
f 1/7/1 2/8/2 8/15/3 7/14/4
f 2/8/5 3/9/6 9/16/7 8/15/8
f 3/9/9 4/10/10 10/17/11 9/16/12
f 4/10/13 5/11/14 11/18/15 10/17/16
f 5/11/17 6/12/18 12/19/19 11/18/20
f 6/12/21 1/13/22 7/20/23 12/19/24
f 2/2/25 1/1/26 13/27/27
f 3/3/28 2/2/29 13/27/30
f 4/4/31 3/3/32 13/27/33
f 5/5/34 4/4/35 13/27/36
f 6/6/37 5/5/38 13/27/39
f 1/1/40 6/6/41 13/27/42
f 7/21/43 8/22/44 14/23/45
f 8/22/46 9/24/47 14/23/48
f 9/24/49 10/25/50 14/23/51
f 10/25/52 11/26/53 14/23/54
f 11/26/55 12/28/56 14/23/57
f 12/28/58 7/21/59 14/23/60
f 15/29/61 16/30/62 22/31/63 21/32/64
f 16/30/65 17/33/66 23/34/67 22/31/68
f 17/33/69 18/35/70 24/36/71 23/34/72
f 18/35/73 19/37/74 25/38/75 24/36/76
f 19/37/77 20/39/78 26/40/79 25/38/80
f 20/39/81 15/41/82 21/42/83 26/40/84
f 16/43/85 15/44/86 27/45/87
f 17/46/88 16/43/89 27/45/90
f 18/47/91 17/46/92 27/45/93
f 19/48/94 18/47/95 27/45/96
f 20/49/97 19/48/98 27/45/99
f 15/44/100 20/49/101 27/45/102
f 21/50/103 22/51/104 28/52/105
f 22/51/106 23/53/107 28/52/108
f 23/53/109 24/54/110 28/52/111
f 24/54/112 25/55/113 28/52/114
f 25/55/115 26/56/116 28/52/117
f 26/56/118 21/50/119 28/52/120
