# This file uses meters as units for non-parametric coordinates.

v 2.798601 -25.651390 -4.847255
v -2.798599 -25.651390 -4.847256
v -5.597200 -25.651390 0.000031
v -2.798600 -25.651390 4.847318
v 2.798599 -25.651390 4.847319
v 5.597200 -25.651390 0.000031
v 2.798601 16.460274 -4.847255
v -2.798599 16.460274 -4.847256
v -5.597200 16.460274 0.000031
v -2.798600 16.460274 4.847318
v 2.798599 16.460274 4.847319
v 5.597200 16.460274 0.000031
v 0.000000 -25.651390 0.000031
v 13.745336 22.802771 -23.807425
v -13.745067 25.625385 -23.807428
v -27.490404 22.802771 0.000028
v -13.745080 25.625385 23.807489
v 13.745330 25.625385 23.807491
v 27.490404 22.802771 0.000032
v 8.147784 43.383781 -14.112222
v -8.147772 41.457554 -14.112229
v -16.295551 43.383781 0.000029
v -8.147779 41.457554 14.112288
v 8.147776 43.383781 14.112293
v 16.295551 41.457554 0.000032
v 10.056454 49.634876 -17.418161
v -10.056438 47.644733 -17.418169
v -20.112631 49.634876 0.000029
v -10.056451 47.644733 17.418230
v 10.056442 49.634876 17.418234
v 20.112631 47.644733 0.000032
v 0.689547 86.090172 0.000032
vt 0.008885 0.105856
vt 0.008885 0.105856
vt 0.008885 0.105856
vt 0.008885 0.105856
vt 0.008885 0.105856
vt 0.008885 0.105856
vt 0.008885 0.105856
vt 0.008885 0.105856
vt 0.008885 0.105856
vt 0.008885 0.105856
vt 0.008885 0.105856
vt 0.008885 0.105856
vt 0.008885 0.105856
vt 0.008885 0.105856
vt 0.008885 0.105856
vt 0.008885 0.105856
vt 0.008885 0.105856
vt 0.008885 0.105856
vt 0.008885 0.105856
vt 0.008885 0.105856
vt 0.258857 0.154843
vt 0.258857 0.154843
vt 0.258857 0.154843
vt 0.258857 0.154843
vt 0.258857 0.154843
vt 0.258857 0.154843
vt 0.008885 0.105856
vt 0.258857 0.154843
vt 0.258857 0.154843
vt 0.258857 0.154843
vt 0.258857 0.154843
vt 0.258857 0.154843
vt 0.258857 0.154843
vt 0.258857 0.154843
vt 0.258857 0.154843
vt 0.258857 0.154843
vt 0.258857 0.154843
vt 0.258857 0.154843
vt 0.258857 0.154843
vt 0.258857 0.154843
vt 0.258857 0.154843
vt 0.258857 0.154843
vt 0.258857 0.154843
vt 0.258857 0.154843
vt 0.258857 0.154843
vt 0.258857 0.154843
vt 0.258857 0.154843
vt 0.258857 0.154843
vt 0.258857 0.154843
vt 0.258857 0.154843
vt 0.258857 0.154843
vt 0.258857 0.154843
vt 0.258857 0.154843
vt 0.258857 0.154843
vt 0.258857 0.154843
vt 0.258857 0.154843
vt 0.258857 0.154843
vt 0.258857 0.154843
vt 0.258857 0.154843
vt 0.258857 0.154843
vt 0.258857 0.154843
vt 0.258857 0.154843
vt 0.258857 0.154843
vt 0.258857 0.154843
vt 0.258857 0.154843
vt 0.258857 0.154843
vt 0.258857 0.154843
vt 0.258857 0.154843
vt 0.258857 0.154843
vt 0.258857 0.154843
vn 0.000000 0.000000 -1.000000
vn 0.000000 0.000000 -1.000000
vn 0.000000 0.000000 -1.000000
vn 0.000000 0.000000 -1.000000
vn -0.866024 0.000000 -0.500003
vn -0.866024 0.000000 -0.500003
vn -0.866024 0.000000 -0.500003
vn -0.866024 0.000000 -0.500003
vn -0.866024 0.000000 0.500002
vn -0.866024 0.000000 0.500002
vn -0.866024 0.000000 0.500002
vn -0.866024 0.000000 0.500002
vn -0.000000 0.000000 1.000000
vn -0.000000 0.000000 1.000000
vn -0.000000 0.000000 1.000000
vn -0.000000 0.000000 1.000000
vn 0.866024 0.000000 0.500002
vn 0.866024 0.000000 0.500002
vn 0.866024 0.000000 0.500002
vn 0.866024 0.000000 0.500002
vn 0.866024 0.000000 -0.500002
vn 0.866024 0.000000 -0.500002
vn 0.866024 0.000000 -0.500002
vn 0.866024 0.000000 -0.500002
vn 0.000000 -1.000000 0.000000
vn 0.000000 -1.000000 0.000000
vn 0.000000 -1.000000 0.000000
vn 0.000000 -1.000000 0.000000
vn 0.000000 -1.000000 0.000000
vn 0.000000 -1.000000 0.000000
vn 0.000000 -1.000000 0.000000
vn 0.000000 -1.000000 0.000000
vn 0.000000 -1.000000 0.000000
vn 0.000000 -1.000000 0.000000
vn 0.000000 -1.000000 0.000000
vn 0.000000 -1.000000 0.000000
vn 0.000000 -1.000000 0.000000
vn 0.000000 -1.000000 0.000000
vn 0.000000 -1.000000 0.000000
vn 0.000000 -1.000000 0.000000
vn 0.000000 -1.000000 0.000000
vn 0.000000 -1.000000 0.000000
vn -0.078715 -0.922720 -0.377349
vn -0.078715 -0.922720 -0.377349
vn -0.078715 -0.922720 -0.377349
vn -0.078715 -0.922720 -0.377349
vn -0.287437 -0.922719 -0.256845
vn -0.287437 -0.922719 -0.256845
vn -0.287437 -0.922719 -0.256845
vn -0.287437 -0.922719 -0.256845
vn -0.287437 -0.922719 0.256845
vn -0.287437 -0.922719 0.256845
vn -0.287437 -0.922719 0.256845
vn -0.287437 -0.922719 0.256845
vn -0.000000 -0.900330 0.435208
vn -0.000000 -0.900330 0.435208
vn -0.000000 -0.900330 0.435208
vn -0.000000 -0.900330 0.435208
vn 0.287437 -0.922720 0.256842
vn 0.287437 -0.922720 0.256842
vn 0.287437 -0.922720 0.256842
vn 0.287437 -0.922720 0.256842
vn 0.274737 -0.948346 -0.158618
vn 0.274737 -0.948346 -0.158618
vn 0.274737 -0.948346 -0.158618
vn 0.274737 -0.948346 -0.158618
vn 0.009622 0.470001 -0.882614
vn 0.009622 0.470001 -0.882613
vn 0.009622 0.470001 -0.882613
vn 0.009622 0.470001 -0.882614
vn -0.769178 0.469994 -0.432978
vn -0.769178 0.469994 -0.432978
vn -0.769178 0.469994 -0.432978
vn -0.769178 0.469994 -0.432978
vn -0.769179 0.469994 0.432978
vn -0.769179 0.469994 0.432978
vn -0.769179 0.469994 0.432978
vn -0.769179 0.469994 0.432978
vn -0.021988 0.499819 0.865851
vn -0.021988 0.499819 0.865851
vn -0.021988 0.499819 0.865851
vn -0.021988 0.499819 0.865851
vn 0.788867 0.469410 0.396664
vn 0.788867 0.469410 0.396664
vn 0.788867 0.469410 0.396664
vn 0.788867 0.469410 0.396664
vn 0.785987 0.442963 -0.431286
vn 0.785987 0.442963 -0.431286
vn 0.785987 0.442963 -0.431286
vn 0.785987 0.442963 -0.431286
vn 0.050426 -0.468782 -0.881873
vn 0.050426 -0.468782 -0.881873
vn 0.050426 -0.468782 -0.881873
vn 0.050426 -0.468782 -0.881873
vn -0.788946 -0.468767 -0.397269
vn -0.788946 -0.468767 -0.397269
vn -0.788946 -0.468767 -0.397269
vn -0.788946 -0.468767 -0.397269
vn -0.788946 -0.468767 0.397268
vn -0.788946 -0.468767 0.397268
vn -0.788946 -0.468767 0.397268
vn -0.788946 -0.468767 0.397268
vn 0.050426 -0.468783 0.881873
vn 0.050426 -0.468782 0.881873
vn 0.050426 -0.468783 0.881873
vn 0.050426 -0.468782 0.881873
vn 0.738521 -0.468768 0.484607
vn 0.738521 -0.468768 0.484607
vn 0.738521 -0.468768 0.484607
vn 0.738521 -0.468768 0.484607
vn 0.738521 -0.468768 -0.484607
vn 0.738521 -0.468768 -0.484607
vn 0.738521 -0.468768 -0.484607
vn 0.738521 -0.468768 -0.484607
vn -0.041754 0.421983 -0.905642
vn -0.041754 0.421983 -0.905642
vn -0.041754 0.421983 -0.905642
vn -0.758434 0.432779 -0.487321
vn -0.758434 0.432779 -0.487321
vn -0.758434 0.432778 -0.487321
vn -0.758434 0.432779 0.487320
vn -0.758434 0.432779 0.487320
vn -0.758434 0.432779 0.487320
vn -0.041755 0.421983 0.905641
vn -0.041755 0.421983 0.905641
vn -0.041755 0.421983 0.905642
vn 0.809713 0.409077 0.420739
vn 0.809713 0.409077 0.420739
vn 0.809713 0.409077 0.420739
vn 0.809713 0.409077 -0.420738
vn 0.809713 0.409077 -0.420738
vn 0.809713 0.409077 -0.420738
s off
f 1/7/1 2/8/2 8/15/3 7/14/4
f 2/8/5 3/9/6 9/16/7 8/15/8
f 3/9/9 4/10/10 10/17/11 9/16/12
f 4/10/13 5/11/14 11/18/15 10/17/16
f 5/11/17 6/12/18 12/19/19 11/18/20
f 6/12/21 1/13/22 7/20/23 12/19/24
f 2/2/25 1/1/26 13/27/27
f 3/3/28 2/2/29 13/27/30
f 4/4/31 3/3/32 13/27/33
f 5/5/34 4/4/35 13/27/36
f 6/6/37 5/5/38 13/27/39
f 1/1/40 6/6/41 13/27/42
f 7/21/43 8/22/44 15/23/45 14/24/46
f 8/22/47 9/25/48 16/26/49 15/23/50
f 9/25/51 10/28/52 17/29/53 16/26/54
f 10/28/55 11/30/56 18/31/57 17/29/58
f 11/30/59 12/32/60 19/33/61 18/31/62
f 12/32/63 7/21/64 14/24/65 19/33/66
f 14/24/67 15/23/68 21/67/69 20/69/70
f 15/23/71 16/26/72 22/65/73 21/67/74
f 16/26/75 17/29/76 23/61/77 22/65/78
f 17/29/79 18/31/80 24/57/81 23/61/82
f 18/31/83 19/33/84 25/53/85 24/57/86
f 19/33/87 14/24/88 20/69/89 25/53/90
f 20/35/91 21/68/92 27/64/93 26/49/94
f 21/34/95 22/66/96 28/60/97 27/63/98
f 22/36/99 23/62/100 29/56/101 28/59/102
f 23/37/103 24/58/104 30/52/105 29/55/106
f 24/38/107 25/54/108 31/48/109 30/51/110
f 25/39/111 20/70/112 26/50/113 31/47/114
f 26/41/115 27/40/116 32/46/117
f 27/40/118 28/42/119 32/46/120
f 28/42/121 29/43/122 32/46/123
f 29/43/124 30/44/125 32/46/126
f 30/44/127 31/45/128 32/46/129
f 31/45/130 26/41/131 32/46/132
