# This file uses meters as units for non-parametric coordinates.

v 4.345703 0.000000 -7.527031
v -4.345703 0.000000 -7.527031
v -8.691406 0.000000 0.000000
v -4.345703 0.000000 7.527031
v 3.184250 0.000000 8.303833
v 8.673599 0.000000 -0.298820
v 3.355148 7.935618 -5.352913
v -3.200531 8.834225 -5.543518
v -6.581879 8.235035 0.125504
v -3.200531 8.844067 5.543518
v 2.488708 8.582186 6.141792
v 6.712601 8.675604 -0.111771
v 0.000000 0.000000 0.000000
v 2.391312 8.645032 -4.141869
v -2.391312 8.834225 -4.141869
v -4.782608 8.834225 0.000000
v -2.391312 8.844067 4.141869
v 2.505753 8.997320 4.042816
v 4.897049 8.997320 -0.099182
v 2.080276 7.527865 -3.603233
v -1.764679 7.527865 -3.287254
v -4.160812 7.527865 0.000000
v -1.642105 7.527865 3.110374
v 1.861832 7.527865 2.922951
v 4.160812 7.527865 0.000000
v 0.000000 8.749365 0.000000
v 2.611801 4.692509 7.312141
v -3.772995 3.495826 6.535210
v -7.546494 4.692509 0.000000
v -3.772995 3.495826 -6.535210
v 3.772995 4.692509 -6.535210
v 7.528427 3.495826 -0.298820
v -12.238815 0.551747 -4.033791
v -12.696579 0.551747 -1.390839
v -11.551407 2.867934 -1.390839
v -11.666107 2.867934 -3.042091
v -1.976013 0.551759 11.647163
v 2.120712 0.551759 12.832642
v 1.548004 2.867946 11.840950
v -1.403549 2.867946 10.655464
v 12.239838 0.551718 -1.744209
v 11.418655 0.551718 -4.224144
v 10.846207 2.867905 -3.232323
v 11.094925 2.867905 -1.744209
vt 0.008904 0.109724
vt 0.008904 0.109724
vt 0.008904 0.109724
vt 0.008904 0.109724
vt 0.008904 0.109724
vt 0.008904 0.109724
vt 0.008904 0.109724
vt 0.008904 0.109724
vt 0.008904 0.109724
vt 0.008904 0.109724
vt 0.008904 0.109724
vt 0.008904 0.109724
vt 0.008904 0.109724
vt 0.008904 0.109724
vt 0.008904 0.109724
vt 0.008904 0.109724
vt 0.008904 0.109724
vt 0.008904 0.109724
vt 0.008904 0.109724
vt 0.008904 0.109724
vt 0.008904 0.109724
vt 0.008904 0.109724
vt 0.008904 0.109724
vt 0.008904 0.109724
vt 0.008904 0.109724
vt 0.008904 0.109724
vt 0.008904 0.109724
vt 0.008904 0.109724
vt 0.008904 0.109724
vt 0.008904 0.109724
vt 0.008904 0.109724
vt 0.008904 0.109724
vt 0.008904 0.109724
vt 0.008904 0.109724
vt 0.008904 0.109724
vt 0.008904 0.109724
vt 0.008904 0.109724
vt 0.008904 0.109724
vt 0.008904 0.109724
vt 0.008904 0.109724
vt 0.008904 0.109724
vt 0.008904 0.109724
vt 0.008904 0.109724
vt 0.008904 0.109724
vt 0.008904 0.109724
vt 0.008904 0.109724
vt 0.008904 0.109724
vt 0.008904 0.109724
vt 0.008904 0.109724
vt 0.008904 0.109724
vt 0.008904 0.109724
vt 0.008904 0.109724
vt 0.008904 0.109724
vt 0.008904 0.109724
vt 0.008904 0.109724
vt 0.008904 0.109724
vt 0.008904 0.109724
vt 0.008904 0.109724
vt 0.008904 0.109724
vt 0.008904 0.109724
vt 0.008904 0.109724
vt 0.008904 0.109724
vt 0.008904 0.109724
vt 0.008904 0.109724
vt 0.008904 0.109724
vt 0.008904 0.109724
vt 0.008904 0.109724
vt 0.008904 0.109724
vt 0.008904 0.109724
vt 0.383166 0.195381
vt 0.383166 0.195381
vt 0.383166 0.195381
vt 0.383166 0.195381
vt 0.383166 0.195381
vt 0.383166 0.195381
vt 0.383166 0.195381
vt 0.008904 0.109724
vt 0.008904 0.109724
vt 0.008904 0.109724
vt 0.008904 0.109724
vt 0.008904 0.109724
vt 0.008904 0.109724
vt 0.008904 0.109724
vt 0.008904 0.109724
vt 0.008904 0.109724
vt 0.008904 0.109724
vt 0.008904 0.109724
vt 0.008904 0.109724
vt 0.008904 0.109724
vt 0.008904 0.109724
vt 0.008904 0.109724
vt 0.008904 0.109724
vt 0.008904 0.109724
vt 0.008904 0.109724
vt 0.008904 0.109724
vn -0.017349 0.235407 -0.971742
vn -0.017349 0.235407 -0.971742
vn -0.007522 0.239329 -0.970909
vn -0.005047 0.240312 -0.970683
vn -0.929726 0.360683 -0.074276
vn -0.929726 0.360683 -0.074276
vn -0.929726 0.360683 -0.074276
vn -0.929726 0.360683 -0.074276
vn -0.832876 0.235381 0.500913
vn -0.832876 0.235381 0.500913
vn -0.834825 0.219421 0.504897
vn -0.835252 0.215646 0.505817
vn -0.295435 0.376016 0.878254
vn -0.295435 0.376016 0.878254
vn -0.295435 0.376016 0.878254
vn -0.295435 0.376016 0.878254
vn 0.825754 0.235296 0.512607
vn 0.825754 0.235296 0.512607
vn 0.828898 0.199054 0.522787
vn 0.829334 0.192563 0.524523
vn 0.892190 0.382267 -0.240560
vn 0.892190 0.382267 -0.240560
vn 0.892190 0.382267 -0.240560
vn 0.892190 0.382267 -0.240560
vn -0.020640 -0.999739 -0.009749
vn 0.019462 -0.999757 -0.010322
vn 0.000000 -1.000000 0.000000
vn -0.042028 -0.998919 -0.019851
vn -0.020640 -0.999739 -0.009749
vn 0.000000 -1.000000 0.000000
vn -0.005587 -0.999436 0.033104
vn -0.042028 -0.998919 -0.019851
vn 0.000000 -1.000000 0.000000
vn -0.007615 -0.998953 0.045117
vn -0.005587 -0.999436 0.033104
vn 0.000000 -1.000000 0.000000
vn 0.041986 -0.998870 -0.022269
vn -0.007615 -0.998953 0.045117
vn 0.000000 -1.000000 0.000000
vn 0.019462 -0.999757 -0.010322
vn 0.041986 -0.998870 -0.022269
vn 0.000000 -1.000000 0.000000
vn 0.096587 0.961976 -0.255485
vn 0.096587 0.961976 -0.255485
vn 0.096587 0.961976 -0.255485
vn 0.096587 0.961976 -0.255485
vn -0.197277 0.978730 -0.056301
vn -0.197277 0.978730 -0.056301
vn -0.197277 0.978730 -0.056301
vn -0.197277 0.978730 -0.056301
vn -0.193680 0.979603 0.053535
vn -0.193680 0.979603 0.053535
vn -0.193680 0.979603 0.053535
vn -0.193680 0.979603 0.053535
vn 0.004585 0.992904 0.118829
vn 0.004585 0.992904 0.118829
vn 0.004585 0.992904 0.118829
vn 0.004585 0.992904 0.118829
vn 0.221359 0.963662 0.149521
vn 0.221359 0.963662 0.149521
vn 0.221359 0.963662 0.149521
vn 0.221359 0.963662 0.149521
vn 0.234099 0.937321 -0.258124
vn 0.234099 0.937321 -0.258124
vn 0.234099 0.937321 -0.258124
vn 0.234099 0.937321 -0.258124
vn 0.042645 0.502111 0.863751
vn 0.042645 0.502111 0.863751
vn 0.042645 0.502111 0.863751
vn 0.042645 0.502111 0.863751
vn 0.727497 0.500964 0.468809
vn 0.727497 0.500964 0.468809
vn 0.727497 0.500964 0.468809
vn 0.727497 0.500964 0.468809
vn 0.692858 0.546998 -0.469830
vn 0.692858 0.546998 -0.469830
vn 0.692858 0.546998 -0.469830
vn 0.692858 0.546998 -0.469830
vn -0.038119 0.609888 -0.791570
vn -0.038119 0.609888 -0.791570
vn -0.038119 0.609888 -0.791570
vn -0.038119 0.609888 -0.791570
vn -0.719631 0.503872 -0.477749
vn -0.719631 0.503872 -0.477749
vn -0.719631 0.503872 -0.477749
vn -0.719631 0.503872 -0.477749
vn -0.783508 0.428249 0.450242
vn -0.783508 0.428249 0.450242
vn -0.783508 0.428249 0.450242
vn -0.783508 0.428249 0.450242
vn -0.027543 0.941759 -0.335159
vn -0.027543 0.941759 -0.335159
vn -0.027543 0.941759 -0.335159
vn -0.275929 0.939899 -0.201128
vn -0.275929 0.939899 -0.201128
vn -0.275929 0.939899 -0.201128
vn -0.274631 0.935479 0.222389
vn -0.274631 0.935479 0.222389
vn -0.274631 0.935479 0.222389
vn 0.020038 0.926964 0.374614
vn 0.020038 0.926964 0.374614
vn 0.020038 0.926964 0.374614
vn 0.275016 0.936791 0.216307
vn 0.275016 0.936791 0.216307
vn 0.275016 0.936791 0.216307
vn 0.278031 0.947062 -0.160537
vn 0.278031 0.947062 -0.160537
vn 0.278031 0.947062 -0.160537
vn -0.127787 0.231903 0.964309
vn -0.127787 0.231903 0.964309
vn -0.127787 0.231903 0.964309
vn -0.127787 0.231903 0.964309
vn -0.835252 0.215646 0.505817
vn -0.834825 0.219421 0.504897
vn -0.837397 0.194539 0.510805
vn -0.837397 0.194539 0.510805
vn -0.839245 0.208431 -0.502220
vn -0.839245 0.208431 -0.502220
vn -0.839245 0.208431 -0.502220
vn -0.839245 0.208431 -0.502220
vn -0.005047 0.240312 -0.970683
vn -0.007522 0.239329 -0.970909
vn 0.007915 0.245435 -0.969381
vn 0.007915 0.245435 -0.969381
vn 0.835550 0.205235 -0.509643
vn 0.835550 0.205235 -0.509642
vn 0.835550 0.205235 -0.509642
vn 0.835550 0.205235 -0.509643
vn 0.829334 0.192563 0.524523
vn 0.828898 0.199054 0.522787
vn 0.831392 0.144252 0.536636
vn 0.831392 0.144252 0.536636
vn -0.020640 -0.999739 -0.009749
vn -0.042028 -0.998919 -0.019851
vn -0.100561 -0.993797 -0.047497
vn -0.100561 -0.993797 -0.047497
vn -0.341791 0.111680 0.933116
vn -0.341791 0.111680 0.933116
vn -0.341791 0.111680 0.933116
vn -0.341791 0.111680 0.933116
vn -0.236873 0.940568 -0.243357
vn -0.236873 0.940568 -0.243357
vn -0.236873 0.940568 -0.243357
vn -0.236873 0.940568 -0.243357
vn -0.378267 0.364890 -0.850747
vn -0.378267 0.364890 -0.850746
vn -0.378267 0.364890 -0.850746
vn -0.378267 0.364890 -0.850747
vn -0.005587 -0.999436 0.033104
vn -0.007615 -0.998953 0.045117
vn -0.021905 -0.991300 0.129788
vn -0.021905 -0.991300 0.129788
vn 0.940973 0.225245 0.252656
vn 0.940973 0.225245 0.252656
vn 0.940973 0.225245 0.252656
vn 0.940973 0.225245 0.252656
vn -0.181992 0.938453 0.293572
vn -0.181992 0.938453 0.293572
vn -0.181992 0.938453 0.293572
vn -0.181992 0.938453 0.293572
vn -0.819059 0.323162 0.474035
vn -0.819059 0.323162 0.474035
vn -0.819059 0.323162 0.474035
vn -0.819059 0.323162 0.474035
vn 0.041986 -0.998870 -0.022269
vn 0.019462 -0.999757 -0.010322
vn 0.113353 -0.991734 -0.060121
vn 0.113353 -0.991734 -0.060121
vn 0.425014 0.310129 -0.850402
vn 0.425014 0.310129 -0.850402
vn 0.425014 0.310129 -0.850402
vn 0.425014 0.310129 -0.850402
vn 0.218152 0.975175 0.037991
vn 0.218152 0.975175 0.037991
vn 0.218152 0.975175 0.037991
vn 0.218152 0.975175 0.037991
vn 0.372879 0.146924 0.916174
vn 0.372879 0.146924 0.916174
vn 0.372879 0.146924 0.916174
vn 0.372879 0.146924 0.916174
s off
f 1/7/1 2/8/2 30/80/3 31/82/4
f 33/84/5 34/85/6 35/86/7 36/87/8
f 3/9/9 4/10/10 28/78/11 29/79/12
f 37/88/13 38/89/14 39/90/15 40/91/16
f 5/11/17 6/12/18 32/83/19 27/77/20
f 41/92/21 42/93/22 43/94/23 44/95/24
f 2/2/25 1/1/26 13/21/27
f 3/3/28 2/2/29 13/21/30
f 4/4/31 3/3/32 13/21/33
f 5/5/34 4/4/35 13/21/36
f 6/6/37 5/5/38 13/21/39
f 1/1/40 6/6/41 13/21/42
f 7/22/43 8/23/44 15/24/45 14/25/46
f 8/26/47 9/27/48 16/28/49 15/29/50
f 9/30/51 10/31/52 17/32/53 16/33/54
f 10/34/55 11/35/56 18/36/57 17/37/58
f 11/38/59 12/39/60 19/40/61 18/41/62
f 12/42/63 7/43/64 14/44/65 19/45/66
f 14/46/67 15/47/68 21/48/69 20/49/70
f 15/50/71 16/51/72 22/52/73 21/53/74
f 16/54/75 17/55/76 23/56/77 22/57/78
f 17/58/79 18/59/80 24/60/81 23/61/82
f 18/62/83 19/63/84 25/64/85 24/65/86
f 19/66/87 14/67/88 20/68/89 25/69/90
f 20/70/91 21/71/92 26/72/93
f 21/71/94 22/73/95 26/72/96
f 22/73/97 23/74/98 26/72/99
f 23/74/100 24/75/101 26/72/102
f 24/75/103 25/76/104 26/72/105
f 25/76/106 20/70/107 26/72/108
f 28/78/109 27/77/110 11/18/111 10/17/112
f 29/79/113 28/78/114 10/17/115 9/16/116
f 30/80/117 29/79/118 9/16/119 8/15/120
f 31/82/121 30/80/122 8/15/123 7/14/124
f 32/83/125 31/81/126 7/20/127 12/19/128
f 27/77/129 32/83/130 12/19/131 11/18/132
f 2/8/133 3/9/134 34/85/135 33/84/136
f 3/9/137 29/79/138 35/86/139 34/85/140
f 29/79/141 30/80/142 36/87/143 35/86/144
f 30/80/145 2/8/146 33/84/147 36/87/148
f 4/10/149 5/11/150 38/89/151 37/88/152
f 5/11/153 27/77/154 39/90/155 38/89/156
f 27/77/157 28/78/158 40/91/159 39/90/160
f 28/78/161 4/10/162 37/88/163 40/91/164
f 6/12/165 1/13/166 42/93/167 41/92/168
f 1/13/169 31/81/170 43/94/171 42/93/172
f 31/81/173 32/83/174 44/95/175 43/94/176
f 32/83/177 6/12/178 41/92/179 44/95/180
