# This file uses meters as units for non-parametric coordinates.

v 3.414917 -9.147957 -5.914814
v -3.414917 -9.147957 -5.914814
v -6.829834 -9.147957 0.000000
v -3.414917 -9.147957 5.914818
v 3.414917 -9.147957 5.914818
v 6.829834 -9.147957 0.000000
v 3.356171 9.147957 -5.812962
v -3.356171 9.147957 -5.812962
v -6.712082 9.147957 0.000000
v -3.356171 9.147957 5.812965
v 3.356171 9.147957 5.812965
v 6.712082 9.147957 0.000000
v 4.249573 0.000000 7.360329
v -4.249313 0.000000 7.360329
v -8.498886 0.000000 0.000000
v -4.249313 0.000000 -7.360332
v 4.249573 0.000000 -7.360332
v 8.498886 0.000000 0.000000
v 3.883865 6.567984 6.726837
v -3.883865 6.567984 6.726837
v -7.767487 6.567984 0.000000
v -3.883865 6.567984 -6.726837
v 3.883865 6.567984 -6.726837
v 7.767487 6.567984 0.000000
v 4.100296 4.465461 7.048164
v -4.116821 4.382332 7.130562
v -8.233643 4.382332 0.000000
v -4.116821 4.382332 -7.130558
v 4.116821 4.382332 -7.130558
v 8.217117 4.465461 -0.082397
v 4.138443 -4.131646 7.167686
v -4.138443 -4.131646 7.167686
v -8.276627 -4.131646 0.000000
v -4.138443 -4.131646 -7.167690
v 4.138443 -4.131646 -7.167690
v 8.276627 -4.131646 0.000000
v 3.881577 -6.596434 6.723274
v -3.881577 -6.596434 6.723274
v -7.763412 -6.596434 0.000000
v -3.881577 -6.596434 -6.723278
v 3.881577 -6.596434 -6.723278
v 7.763412 -6.596434 0.000000
v 2.510071 -9.147957 -4.347355
v -2.510071 -9.147957 -4.347355
v 0.000000 -7.715202 0.000000
v -5.019882 -9.147957 0.000000
v -2.510071 -9.147957 4.347359
v 2.510071 -9.147957 4.347359
v 5.020142 -9.147957 0.000000
v 2.466843 9.147957 -4.272587
v -2.466843 9.147957 -4.272587
v 0.000000 7.715202 0.000000
v -4.933426 9.147957 0.000000
v -2.466843 9.147957 4.272591
v 2.466843 9.147957 4.272591
v 4.933670 9.147957 0.000000
vt 0.029814 0.239274
vt 0.029814 0.239274
vt 0.029814 0.239274
vt 0.029814 0.239274
vt 0.029814 0.239274
vt 0.029814 0.239274
vt 0.029814 0.239274
vt 0.029814 0.239274
vt 0.029814 0.239274
vt 0.029814 0.239274
vt 0.029814 0.239274
vt 0.029814 0.239274
vt 0.029814 0.239274
vt 0.029814 0.239274
vt 0.029814 0.239274
vt 0.029814 0.239274
vt 0.029814 0.239274
vt 0.029814 0.239274
vt 0.029814 0.239274
vt 0.029814 0.239274
vt 0.029814 0.239274
vt 0.029814 0.239274
vt 0.029814 0.239274
vt 0.029814 0.239274
vt 0.029814 0.239274
vt 0.029814 0.239274
vt 0.029112 0.198536
vt 0.029112 0.198536
vt 0.029814 0.239274
vt 0.029814 0.239274
vt 0.029814 0.239274
vt 0.029814 0.239274
vt 0.029814 0.239274
vt 0.029814 0.239274
vt 0.029814 0.239274
vt 0.029814 0.239274
vt 0.029814 0.239274
vt 0.029814 0.239274
vt 0.029814 0.239274
vt 0.029814 0.239274
vt 0.029814 0.239274
vt 0.029814 0.239274
vt 0.029814 0.239274
vt 0.029814 0.239274
vt 0.029814 0.239274
vt 0.029814 0.239274
vt 0.029814 0.239274
vt 0.029814 0.239274
vt 0.029814 0.239274
vt 0.029814 0.239274
vt 0.029814 0.239274
vt 0.029814 0.239274
vt 0.029814 0.239274
vt 0.029814 0.239274
vt 0.029814 0.239274
vt 0.029814 0.239274
vt 0.029814 0.239274
vt 0.029814 0.239274
vt 0.029814 0.239274
vt 0.029814 0.239274
vt 0.029814 0.239274
vt 0.029814 0.239274
vt 0.029814 0.239274
vt 0.143369 0.152724
vt 0.143369 0.152724
vt 0.143369 0.152724
vt 0.143369 0.152724
vt 0.143369 0.152724
vt 0.143369 0.152724
vt 0.143369 0.152724
vt 0.143369 0.152724
vt 0.143369 0.152724
vt 0.143369 0.152724
vt 0.143369 0.152724
vt 0.143369 0.152724
vt 0.143369 0.152724
vt 0.143369 0.152724
vt 0.143369 0.152724
vt 0.143369 0.152724
vt 0.143369 0.152724
vt 0.143369 0.152724
vt 0.143369 0.152724
vt 0.143369 0.152724
vt 0.143369 0.152724
vt 0.143369 0.152724
vt 0.143369 0.152724
vt 0.143369 0.152724
vt 0.029814 0.239274
vt 0.029814 0.239274
vt 0.029814 0.239274
vt 0.029814 0.239274
vt 0.029814 0.239274
vt 0.029814 0.239274
vt 0.029814 0.239274
vt 0.029814 0.239274
vt 0.029814 0.239274
vt 0.029814 0.239274
vt 0.029814 0.239274
vt 0.029814 0.239274
vt 0.029112 0.198536
vt 0.029112 0.198536
vt 0.029112 0.198536
vt 0.029112 0.198536
vt 0.029112 0.198536
vt 0.029112 0.198536
vt 0.029112 0.198536
vt 0.029112 0.198536
vt 0.029112 0.198536
vt 0.029112 0.198536
vt 0.029112 0.198536
vt 0.029112 0.198536
vn 0.000000 -0.302055 -0.953290
vn 0.000000 -0.302055 -0.953290
vn 0.000000 -0.302055 -0.953291
vn 0.000000 -0.302055 -0.953291
vn -0.825572 -0.302046 -0.476654
vn -0.825572 -0.302046 -0.476654
vn -0.825572 -0.302046 -0.476654
vn -0.825572 -0.302046 -0.476654
vn -0.825572 -0.302045 0.476654
vn -0.825572 -0.302045 0.476654
vn -0.825572 -0.302045 0.476654
vn -0.825572 -0.302045 0.476654
vn 0.000000 -0.302053 0.953291
vn 0.000000 -0.302053 0.953291
vn 0.000000 -0.302053 0.953291
vn 0.000000 -0.302053 0.953291
vn 0.825572 -0.302045 0.476654
vn 0.825572 -0.302045 0.476654
vn 0.825572 -0.302046 0.476654
vn 0.825572 -0.302045 0.476654
vn 0.825572 -0.302046 -0.476654
vn 0.825572 -0.302046 -0.476654
vn 0.825572 -0.302046 -0.476654
vn 0.825572 -0.302046 -0.476654
vn 0.000000 -0.949750 0.313008
vn 0.000000 -0.949750 0.313008
vn 0.000000 -0.949750 0.313008
vn 0.271074 -0.949751 0.156496
vn 0.271074 -0.949751 0.156496
vn 0.271074 -0.949751 0.156496
vn 0.271074 -0.949751 -0.156496
vn 0.271074 -0.949751 -0.156496
vn 0.271074 -0.949751 -0.156496
vn 0.000000 -0.949750 -0.313008
vn 0.000000 -0.949750 -0.313008
vn 0.000000 -0.949750 -0.313008
vn -0.271061 -0.949754 -0.156505
vn -0.271061 -0.949754 -0.156505
vn -0.271061 -0.949754 -0.156505
vn -0.271061 -0.949754 0.156505
vn -0.271061 -0.949754 0.156505
vn -0.271061 -0.949754 0.156505
vn 0.000000 0.948112 0.317937
vn 0.000000 0.948112 0.317937
vn 0.000000 0.948112 0.317937
vn 0.275348 0.948111 0.158960
vn 0.275348 0.948111 0.158960
vn 0.275348 0.948111 0.158960
vn 0.275348 0.948111 -0.158960
vn 0.275348 0.948111 -0.158960
vn 0.275348 0.948111 -0.158960
vn 0.000000 0.948112 -0.317936
vn 0.000000 0.948112 -0.317936
vn 0.000000 0.948112 -0.317936
vn -0.275336 0.948114 -0.158968
vn -0.275336 0.948114 -0.158968
vn -0.275336 0.948114 -0.158968
vn -0.275336 0.948114 0.158968
vn -0.275336 0.948114 0.158968
vn -0.275336 0.948114 0.158968
vn 0.004616 0.061144 0.998118
vn 0.004616 0.061144 0.998118
vn 0.004616 0.061144 0.998118
vn 0.004616 0.061144 0.998118
vn -0.864837 0.052336 0.499318
vn -0.864837 0.052336 0.499318
vn -0.864837 0.052336 0.499318
vn -0.864837 0.052336 0.499318
vn -0.864837 0.052336 -0.499318
vn -0.864837 0.052336 -0.499318
vn -0.864837 0.052336 -0.499318
vn -0.864837 0.052336 -0.499318
vn 0.000000 0.052360 -0.998628
vn 0.000000 0.052360 -0.998628
vn 0.000000 0.052360 -0.998628
vn 0.000000 0.052360 -0.998628
vn 0.864068 0.048827 -0.501002
vn 0.864068 0.048827 -0.501002
vn 0.864068 0.048827 -0.501002
vn 0.864068 0.048827 -0.501002
vn 0.864268 0.063758 0.498975
vn 0.864268 0.063758 0.498974
vn 0.864268 0.063758 0.498974
vn 0.864268 0.063758 0.498974
vn 0.000000 0.333890 0.942612
vn 0.000000 0.333890 0.942612
vn 0.000000 0.333890 0.942612
vn 0.000000 0.333890 0.942612
vn -0.816326 0.333922 0.471285
vn -0.816325 0.333922 0.471285
vn -0.816326 0.333922 0.471285
vn -0.816325 0.333922 0.471285
vn -0.816325 0.333922 -0.471285
vn -0.816325 0.333922 -0.471285
vn -0.816325 0.333922 -0.471285
vn -0.816325 0.333922 -0.471285
vn 0.000000 0.333891 -0.942612
vn 0.000000 0.333891 -0.942612
vn 0.000000 0.333891 -0.942612
vn 0.000000 0.333891 -0.942612
vn 0.816325 0.333922 -0.471285
vn 0.816325 0.333922 -0.471285
vn 0.816325 0.333922 -0.471285
vn 0.816325 0.333922 -0.471285
vn 0.816325 0.333922 0.471285
vn 0.816326 0.333922 0.471285
vn 0.816325 0.333922 0.471285
vn 0.816326 0.333922 0.471285
vn 0.004216 0.166698 0.985999
vn 0.004216 0.166698 0.985999
vn 0.004216 0.166698 0.985999
vn 0.004216 0.166698 0.985999
vn -0.851627 0.181613 0.491679
vn -0.851627 0.181613 0.491679
vn -0.851627 0.181613 0.491679
vn -0.851627 0.181613 0.491679
vn -0.851627 0.181613 -0.491679
vn -0.851627 0.181613 -0.491679
vn -0.851627 0.181613 -0.491679
vn -0.851627 0.181613 -0.491679
vn 0.000000 0.181641 -0.983365
vn 0.000000 0.181641 -0.983365
vn 0.000000 0.181641 -0.983365
vn 0.000000 0.181641 -0.983365
vn 0.848755 0.191001 -0.493086
vn 0.848755 0.191001 -0.493086
vn 0.848755 0.191001 -0.493086
vn 0.848755 0.191001 -0.493086
vn 0.854395 0.163360 0.493277
vn 0.854395 0.163360 0.493277
vn 0.854395 0.163360 0.493277
vn 0.854395 0.163360 0.493277
vn 0.000000 -0.046575 0.998915
vn 0.000000 -0.046575 0.998915
vn 0.000000 -0.046575 0.998915
vn 0.000000 -0.046575 0.998915
vn -0.865088 -0.046519 0.499459
vn -0.865088 -0.046519 0.499459
vn -0.865088 -0.046519 0.499459
vn -0.865088 -0.046519 0.499459
vn -0.865088 -0.046519 -0.499459
vn -0.865088 -0.046519 -0.499459
vn -0.865088 -0.046519 -0.499459
vn -0.865088 -0.046519 -0.499459
vn 0.000000 -0.046575 -0.998915
vn 0.000000 -0.046575 -0.998915
vn 0.000000 -0.046575 -0.998915
vn 0.000000 -0.046575 -0.998915
vn 0.865094 -0.046547 -0.499446
vn 0.865094 -0.046547 -0.499446
vn 0.865093 -0.046547 -0.499446
vn 0.865093 -0.046547 -0.499446
vn 0.865093 -0.046546 0.499447
vn 0.865093 -0.046546 0.499447
vn 0.865093 -0.046546 0.499447
vn 0.865093 -0.046546 0.499447
vn 0.000000 -0.177443 0.984131
vn 0.000000 -0.177443 0.984131
vn 0.000000 -0.177443 0.984131
vn 0.000000 -0.177443 0.984131
vn -0.852272 -0.177499 0.492064
vn -0.852272 -0.177499 0.492064
vn -0.852272 -0.177499 0.492064
vn -0.852272 -0.177499 0.492064
vn -0.852272 -0.177500 -0.492063
vn -0.852272 -0.177500 -0.492064
vn -0.852272 -0.177500 -0.492064
vn -0.852272 -0.177500 -0.492064
vn 0.000000 -0.177443 -0.984131
vn 0.000000 -0.177443 -0.984131
vn 0.000000 -0.177443 -0.984131
vn 0.000000 -0.177443 -0.984131
vn 0.852272 -0.177500 -0.492063
vn 0.852272 -0.177500 -0.492063
vn 0.852272 -0.177500 -0.492064
vn 0.852272 -0.177500 -0.492064
vn 0.852272 -0.177499 0.492064
vn 0.852272 -0.177499 0.492064
vn 0.852272 -0.177499 0.492064
vn 0.852272 -0.177499 0.492064
vn 0.000000 -1.000000 0.000000
vn 0.000000 -1.000000 0.000000
vn 0.000000 -1.000000 0.000000
vn 0.000000 -1.000000 0.000000
vn 0.000000 -1.000000 -0.000000
vn 0.000000 -1.000000 -0.000000
vn 0.000000 -1.000000 -0.000000
vn 0.000000 -1.000000 -0.000000
vn 0.000000 -1.000000 0.000000
vn 0.000000 -1.000000 0.000000
vn 0.000000 -1.000000 0.000000
vn 0.000000 -1.000000 0.000000
vn 0.000000 -1.000000 -0.000000
vn 0.000000 -1.000000 -0.000000
vn 0.000000 -1.000000 -0.000000
vn 0.000000 -1.000000 -0.000000
vn 0.000000 -1.000000 0.000000
vn 0.000000 -1.000000 0.000000
vn 0.000000 -1.000000 0.000000
vn 0.000000 -1.000000 0.000000
vn 0.000000 -1.000000 0.000000
vn 0.000000 -1.000000 0.000000
vn 0.000000 -1.000000 0.000000
vn 0.000000 -1.000000 0.000000
vn 0.000000 1.000000 0.000000
vn 0.000000 1.000000 0.000000
vn 0.000000 1.000000 0.000000
vn 0.000000 1.000000 0.000000
vn 0.000000 1.000000 0.000000
vn 0.000000 1.000000 0.000000
vn 0.000000 1.000000 0.000000
vn 0.000000 1.000000 0.000000
vn 0.000000 1.000000 0.000000
vn 0.000000 1.000000 0.000000
vn 0.000000 1.000000 0.000000
vn 0.000000 1.000000 0.000000
vn 0.000000 1.000000 -0.000000
vn 0.000000 1.000000 -0.000000
vn 0.000000 1.000000 -0.000000
vn 0.000000 1.000000 -0.000000
vn 0.000000 1.000000 0.000000
vn 0.000000 1.000000 0.000000
vn 0.000000 1.000000 0.000000
vn 0.000000 1.000000 0.000000
vn 0.000000 1.000000 0.000000
vn 0.000000 1.000000 0.000000
vn 0.000000 1.000000 0.000000
vn 0.000000 1.000000 0.000000
s off
f 1/7/1 2/8/2 40/60/3 41/62/4
f 2/8/5 3/9/6 39/59/7 40/60/8
f 3/9/9 4/10/10 38/58/11 39/59/12
f 4/10/13 5/11/14 37/57/15 38/58/16
f 5/11/17 6/12/18 42/63/19 37/57/20
f 6/12/21 1/13/22 41/61/23 42/63/24
f 44/27/25 43/28/26 45/100/27
f 46/101/28 44/27/29 45/100/30
f 47/102/31 46/101/32 45/100/33
f 48/103/34 47/102/35 45/100/36
f 49/104/37 48/103/38 45/100/39
f 43/28/40 49/104/41 45/100/42
f 50/105/43 51/106/44 52/107/45
f 51/106/46 53/108/47 52/107/48
f 53/108/49 54/109/50 52/107/51
f 54/109/52 55/110/53 52/107/54
f 55/110/55 56/111/56 52/107/57
f 56/111/58 50/105/59 52/107/60
f 14/30/61 13/29/62 25/43/63 26/44/64
f 15/31/65 14/30/66 26/44/67 27/45/68
f 16/32/69 15/31/70 27/45/71 28/46/72
f 17/34/73 16/32/74 28/46/75 29/48/76
f 18/35/77 17/33/78 29/47/79 30/49/80
f 13/29/81 18/35/82 30/49/83 25/43/84
f 20/37/85 19/36/86 11/18/87 10/17/88
f 21/38/89 20/37/90 10/17/91 9/16/92
f 22/39/93 21/38/94 9/16/95 8/15/96
f 23/41/97 22/39/98 8/15/99 7/14/100
f 24/42/101 23/40/102 7/20/103 12/19/104
f 19/36/105 24/42/106 12/19/107 11/18/108
f 26/64/109 25/65/110 19/66/111 20/67/112
f 27/68/113 26/64/114 20/67/115 21/69/116
f 28/70/117 27/68/118 21/69/119 22/71/120
f 29/72/121 28/70/122 22/71/123 23/73/124
f 30/74/125 29/72/126 23/73/127 24/75/128
f 19/66/129 25/65/130 30/74/131 24/75/132
f 32/51/133 31/50/134 13/29/135 14/30/136
f 33/52/137 32/51/138 14/30/139 15/31/140
f 34/53/141 33/52/142 15/31/143 16/32/144
f 35/55/145 34/53/146 16/32/147 17/34/148
f 36/56/149 35/54/150 17/33/151 18/35/152
f 31/50/153 36/56/154 18/35/155 13/29/156
f 38/76/157 37/77/158 31/78/159 32/79/160
f 39/80/161 38/76/162 32/79/163 33/81/164
f 40/82/165 39/80/166 33/81/167 34/83/168
f 41/84/169 40/82/170 34/83/171 35/85/172
f 42/86/173 41/84/174 35/85/175 36/87/176
f 31/78/177 37/77/178 42/86/179 36/87/180
f 2/2/181 1/1/182 43/89/183 44/88/184
f 3/3/185 2/2/186 44/88/187 46/90/188
f 4/4/189 3/3/190 46/90/191 47/91/192
f 5/5/193 4/4/194 47/91/195 48/92/196
f 6/6/197 5/5/198 48/92/199 49/93/200
f 1/1/201 6/6/202 49/93/203 43/89/204
f 7/25/205 8/24/206 51/95/207 50/94/208
f 8/24/209 9/23/210 53/96/211 51/95/212
f 9/23/213 10/22/214 54/97/215 53/96/216
f 10/22/217 11/21/218 55/98/219 54/97/220
f 11/21/221 12/26/222 56/99/223 55/98/224
f 12/26/225 7/25/226 50/94/227 56/99/228
