# This file uses meters as units for non-parametric coordinates.

v -17.468765 -6.461813 17.468683
v 17.468773 -6.461813 17.468683
v -13.269547 40.187870 13.269567
v 13.269554 40.187870 13.269567
v -13.269547 40.187870 -13.269567
v 13.269554 40.187870 -13.269567
v -17.468765 -6.461813 -17.468683
v 17.468773 -6.461813 -17.468683
v -2.380112 -7.222411 7.145563
v 32.557426 -7.222411 7.145563
v 1.819107 25.165106 2.946456
v 28.358208 25.165106 2.946456
v 1.819107 25.165106 -23.592695
v 28.358208 25.165106 -23.592695
v -2.380112 -7.222411 -27.791801
v 32.557426 -7.222411 -27.791801
v -13.344315 -7.948178 26.984240
v 11.261497 -7.948178 26.984240
v -10.386917 28.978058 22.785124
v 8.304085 28.978058 22.785124
v -10.386917 28.978058 -3.754012
v 8.304085 28.978058 -3.754012
v -13.344315 -7.948178 -7.953127
v 11.261497 -7.948178 -7.953127
v -3.695938 -5.771223 35.092243
v 14.783226 -5.771223 35.092243
v -1.474762 12.176157 30.893162
v 12.562309 12.176157 30.893162
v -1.474762 12.176157 4.354016
v 12.562309 12.176157 4.354016
v -3.695938 -5.771223 0.154909
v 14.783226 -5.771223 0.154909
v -26.561478 -5.256658 11.491625
v 8.376060 -5.256658 11.491625
v -22.362259 17.381330 7.292509
v 4.177094 17.381330 7.292509
v -22.362259 17.381330 -19.246624
v 4.177094 17.381330 -19.246624
v -26.561478 -5.256658 -23.445709
v 8.376060 -5.256658 -23.445709
vt 0.896223 0.283530
vt 0.896223 0.283530
vt 0.896223 0.283530
vt 0.896223 0.283530
vt 0.896223 0.283530
vt 0.896223 0.283530
vt 0.896223 0.283530
vt 0.896223 0.283530
vt 0.896223 0.283530
vt 0.896223 0.283530
vt 0.896223 0.283530
vt 0.896223 0.283530
vt 0.896223 0.283530
vt 0.896223 0.283530
vt 0.896223 0.283530
vt 0.896223 0.283530
vt 0.896223 0.283530
vt 0.896223 0.283530
vt 0.896223 0.283530
vt 0.896223 0.283530
vt 0.896223 0.283530
vt 0.896223 0.283530
vt 0.896223 0.283530
vt 0.896223 0.283530
vt 0.896223 0.283530
vt 0.896223 0.283530
vt 0.896223 0.283530
vt 0.896223 0.283530
vt 0.896223 0.283530
vt 0.896223 0.283530
vt 0.896223 0.283530
vt 0.896223 0.283530
vt 0.896223 0.283530
vt 0.896223 0.283530
vt 0.896223 0.283530
vt 0.896223 0.283530
vt 0.896223 0.283530
vt 0.896223 0.283530
vt 0.896223 0.283530
vt 0.896223 0.283530
vt 0.896223 0.283530
vt 0.896223 0.283530
vt 0.896223 0.283530
vt 0.896223 0.283530
vt 0.896223 0.283530
vt 0.896223 0.283530
vt 0.896223 0.283530
vt 0.896223 0.283530
vt 0.896223 0.283530
vt 0.896223 0.283530
vt 0.896223 0.283530
vt 0.896223 0.283530
vt 0.896223 0.283530
vt 0.896223 0.283530
vt 0.896223 0.283530
vt 0.896223 0.283530
vt 0.896223 0.283530
vt 0.896223 0.283530
vt 0.896223 0.283530
vt 0.896223 0.283530
vt 0.896223 0.283530
vt 0.896223 0.283530
vt 0.896223 0.283530
vt 0.896223 0.283530
vt 0.896223 0.283530
vt 0.896223 0.283530
vt 0.896223 0.283530
vt 0.896223 0.283530
vt 0.896223 0.283530
vt 0.896223 0.283530
vn 0.000000 0.089651 0.995973
vn 0.000000 0.089651 0.995973
vn 0.000000 0.089651 0.995973
vn 0.000000 0.089651 0.995973
vn 0.000000 1.000000 0.000000
vn 0.000000 1.000000 0.000000
vn 0.000000 1.000000 0.000000
vn 0.000000 1.000000 0.000000
vn 0.000000 0.089651 -0.995973
vn 0.000000 0.089651 -0.995973
vn 0.000000 0.089651 -0.995973
vn 0.000000 0.089651 -0.995973
vn 0.000000 -1.000000 0.000000
vn 0.000000 -1.000000 0.000000
vn 0.000000 -1.000000 0.000000
vn 0.000000 -1.000000 0.000000
vn 0.995973 0.089654 0.000000
vn 0.995973 0.089654 0.000000
vn 0.995973 0.089654 0.000000
vn 0.995973 0.089654 0.000000
vn -0.995973 0.089654 0.000000
vn -0.995973 0.089654 0.000000
vn -0.995973 0.089654 0.000000
vn -0.995973 0.089654 0.000000
vn 0.000000 0.128576 0.991700
vn 0.000000 0.128576 0.991700
vn 0.000000 0.128576 0.991700
vn 0.000000 0.128576 0.991700
vn 0.000000 1.000000 0.000000
vn 0.000000 1.000000 0.000000
vn 0.000000 1.000000 0.000000
vn 0.000000 1.000000 0.000000
vn 0.000000 0.128576 -0.991700
vn 0.000000 0.128576 -0.991700
vn 0.000000 0.128576 -0.991700
vn 0.000000 0.128576 -0.991700
vn 0.000000 -1.000000 0.000000
vn 0.000000 -1.000000 0.000000
vn 0.000000 -1.000000 0.000000
vn 0.000000 -1.000000 0.000000
vn 0.991699 0.128579 0.000000
vn 0.991699 0.128579 0.000000
vn 0.991699 0.128579 0.000000
vn 0.991699 0.128579 0.000000
vn -0.991699 0.128579 0.000000
vn -0.991699 0.128579 0.000000
vn -0.991699 0.128579 0.000000
vn -0.991699 0.128579 0.000000
vn 0.000000 0.112988 0.993596
vn 0.000000 0.112988 0.993596
vn 0.000000 0.112988 0.993596
vn 0.000000 0.112988 0.993596
vn 0.000000 1.000000 0.000000
vn 0.000000 1.000000 0.000000
vn 0.000000 1.000000 0.000000
vn 0.000000 1.000000 0.000000
vn 0.000000 0.112988 -0.993596
vn 0.000000 0.112988 -0.993596
vn 0.000000 0.112988 -0.993596
vn 0.000000 0.112988 -0.993596
vn 0.000000 -1.000000 0.000000
vn 0.000000 -1.000000 0.000000
vn 0.000000 -1.000000 0.000000
vn 0.000000 -1.000000 0.000000
vn 0.996808 0.079834 0.000000
vn 0.996808 0.079834 0.000000
vn 0.996808 0.079834 0.000000
vn 0.996808 0.079834 0.000000
vn -0.996808 0.079834 0.000000
vn -0.996808 0.079834 0.000000
vn -0.996808 0.079834 0.000000
vn -0.996808 0.079834 0.000000
vn 0.000000 0.227814 0.973705
vn 0.000000 0.227814 0.973705
vn 0.000000 0.227814 0.973705
vn 0.000000 0.227814 0.973705
vn 0.000000 1.000000 0.000000
vn 0.000000 1.000000 0.000000
vn 0.000000 1.000000 0.000000
vn 0.000000 1.000000 0.000000
vn 0.000000 0.227815 -0.973704
vn 0.000000 0.227815 -0.973704
vn 0.000000 0.227815 -0.973704
vn 0.000000 0.227815 -0.973704
vn 0.000000 -1.000000 0.000000
vn 0.000000 -1.000000 0.000000
vn 0.000000 -1.000000 0.000000
vn 0.000000 -1.000000 0.000000
vn 0.992430 0.122809 0.000000
vn 0.992430 0.122809 0.000000
vn 0.992430 0.122809 0.000000
vn 0.992430 0.122809 0.000000
vn -0.992429 0.122823 0.000000
vn -0.992429 0.122823 0.000000
vn -0.992429 0.122823 0.000000
vn -0.992429 0.122823 0.000000
vn 0.000000 0.182379 0.983228
vn 0.000000 0.182379 0.983228
vn 0.000000 0.182379 0.983228
vn 0.000000 0.182379 0.983228
vn 0.000000 1.000000 0.000000
vn 0.000000 1.000000 0.000000
vn 0.000000 1.000000 0.000000
vn 0.000000 1.000000 0.000000
vn 0.000000 0.182378 -0.983229
vn 0.000000 0.182378 -0.983229
vn 0.000000 0.182378 -0.983229
vn 0.000000 0.182378 -0.983229
vn 0.000000 -1.000000 0.000000
vn 0.000000 -1.000000 0.000000
vn 0.000000 -1.000000 0.000000
vn 0.000000 -1.000000 0.000000
vn 0.983230 0.182373 0.000000
vn 0.983230 0.182373 0.000000
vn 0.983230 0.182373 0.000000
vn 0.983230 0.182373 0.000000
vn -0.983228 0.182383 0.000000
vn -0.983228 0.182383 0.000000
vn -0.983228 0.182383 0.000000
vn -0.983228 0.182383 0.000000
s off
f 1/1/1 2/2/2 4/4/3 3/3/4
f 3/3/5 4/4/6 6/6/7 5/5/8
f 5/5/9 6/6/10 8/8/11 7/7/12
f 7/7/13 8/8/14 2/10/15 1/9/16
f 2/2/17 8/11/18 6/12/19 4/4/20
f 7/13/21 1/1/22 3/3/23 5/14/24
f 9/15/25 10/16/26 12/17/27 11/18/28
f 11/18/29 12/17/30 14/19/31 13/20/32
f 13/20/33 14/19/34 16/21/35 15/22/36
f 15/22/37 16/21/38 10/23/39 9/24/40
f 10/16/41 16/25/42 14/26/43 12/17/44
f 15/27/45 9/15/46 11/18/47 13/28/48
f 17/29/49 18/30/50 20/31/51 19/32/52
f 19/32/53 20/31/54 22/33/55 21/34/56
f 21/34/57 22/33/58 24/35/59 23/36/60
f 23/36/61 24/35/62 18/37/63 17/38/64
f 18/30/65 24/39/66 22/40/67 20/31/68
f 23/41/69 17/29/70 19/32/71 21/42/72
f 25/43/73 26/44/74 28/45/75 27/46/76
f 27/46/77 28/45/78 30/47/79 29/48/80
f 29/48/81 30/47/82 32/49/83 31/50/84
f 31/50/85 32/49/86 26/51/87 25/52/88
f 26/44/89 32/53/90 30/54/91 28/45/92
f 31/55/93 25/43/94 27/46/95 29/56/96
f 33/57/97 34/58/98 36/59/99 35/60/100
f 35/60/101 36/59/102 38/61/103 37/62/104
f 37/62/105 38/61/106 40/63/107 39/64/108
f 39/64/109 40/63/110 34/65/111 33/66/112
f 34/58/113 40/67/114 38/68/115 36/59/116
f 39/69/117 33/57/118 35/60/119 37/70/120
