# This file uses meters as units for non-parametric coordinates.

v -14.591309 36.876358 14.495850
v -1.356689 30.467447 18.119415
v -4.690674 42.128998 3.912231
v -15.564331 35.084827 -1.476807
v -23.170654 24.760111 8.260986
v -14.752319 21.715206 19.917053
v 4.191162 28.732422 4.873779
v -5.176392 31.276741 -7.973602
v -18.572388 22.524502 -6.175873
v -17.483643 14.570995 7.782501
v -1.169678 14.699656 14.860413
v -4.388062 16.616177 -1.360962
v 3.203491 -25.651392 -5.548615
v -3.203247 -25.651392 -5.548615
v -6.406738 -25.651392 0.000000
v -3.203247 -25.651392 5.548615
v 3.203491 -25.651392 5.548615
v 6.406982 -25.651392 0.000000
v 2.256592 31.059029 -3.908295
v -2.256348 31.059029 -3.908295
v -4.512939 31.059029 0.000000
v -2.256348 31.059029 3.908295
v 2.256592 31.059029 3.908295
v 4.513184 31.059029 0.000000
v 0.000122 -25.651392 0.000000
v 5.467285 71.088516 2.397278
v 26.061890 55.885773 2.480194
v 7.154419 62.150387 -22.018677
v -13.720581 61.477829 -10.303375
v -11.740967 56.651405 17.900330
v 7.784912 53.456596 26.827606
v 18.730225 38.998585 -13.608307
v -7.154175 38.998585 -22.018677
v -25.469360 42.777187 0.472015
v -7.949707 42.648682 24.385315
v 19.895020 33.383759 15.850433
v 0.000122 24.689987 0.000000
vt 0.259159 0.156773
vt 0.259160 0.156773
vt 0.259159 0.156773
vt 0.259159 0.156773
vt 0.444702 0.286495
vt 0.259160 0.156773
vt 0.259160 0.156773
vt 0.259160 0.156773
vt 0.444702 0.286495
vt 0.259160 0.156773
vt 0.259160 0.156773
vt 0.259159 0.156773
vt 0.259159 0.156773
vt 0.259159 0.156773
vt 0.259159 0.156773
vt 0.259159 0.156773
vt 0.259159 0.156773
vt 0.259159 0.156773
vt 0.259159 0.156773
vt 0.259160 0.156773
vt 0.259160 0.156773
vt 0.259160 0.156773
vt 0.259160 0.156773
vt 0.259160 0.156773
vt 0.259159 0.156773
vt 0.259160 0.156773
vt 0.259159 0.156773
vt 0.259160 0.156773
vt 0.259160 0.156773
vt 0.259160 0.156773
vt 0.008887 0.102230
vt 0.008887 0.102230
vt 0.008887 0.102230
vt 0.008887 0.102230
vt 0.008887 0.102230
vt 0.008887 0.102230
vt 0.008887 0.102230
vt 0.008887 0.102230
vt 0.008887 0.102230
vt 0.008887 0.102230
vt 0.008887 0.102230
vt 0.008887 0.102230
vt 0.008887 0.102230
vt 0.444702 0.286495
vt 0.444702 0.286495
vt 0.444702 0.286495
vt 0.444702 0.286499
vt 0.444702 0.286495
vt 0.444702 0.286495
vt 0.259159 0.156773
vt 0.259160 0.156773
vt 0.259159 0.156773
vt 0.259160 0.156773
vt 0.259160 0.156773
vt 0.259160 0.156773
vt 0.259160 0.156773
vt 0.259160 0.156773
vt 0.259160 0.156773
vt 0.259160 0.156773
vt 0.259160 0.156773
vt 0.259160 0.156773
vt 0.259160 0.156773
vt 0.259160 0.156773
vt 0.259159 0.156773
vt 0.259160 0.156773
vt 0.259160 0.156773
vt 0.259159 0.156773
vt 0.259160 0.156773
vt 0.259159 0.156773
vt 0.259159 0.156773
vt 0.259160 0.156773
vt 0.259159 0.156773
vt 0.259159 0.156773
vt 0.444702 0.286495
vt 0.444702 0.286495
vt 0.444702 0.286495
vn 0.196735 0.858392 0.473771
vn 0.196735 0.858392 0.473771
vn 0.196735 0.858392 0.473771
vn -0.218433 0.971156 -0.095622
vn -0.218433 0.971156 -0.095622
vn -0.218433 0.971156 -0.095622
vn -0.812130 0.583258 -0.015950
vn -0.812130 0.583258 -0.015950
vn -0.812130 0.583258 -0.015950
vn -0.763887 0.230761 0.602683
vn -0.763887 0.230761 0.602683
vn -0.763887 0.230761 0.602683
vn -0.140374 0.400803 0.905347
vn -0.140374 0.400803 0.905347
vn -0.140374 0.400803 0.905347
vn 0.833658 -0.102289 0.542726
vn 0.833658 -0.102289 0.542726
vn 0.833658 -0.102289 0.542726
vn 0.755599 0.468064 -0.458243
vn 0.755599 0.468064 -0.458243
vn 0.755599 0.468064 -0.458243
vn -0.253266 0.192931 -0.947963
vn -0.253266 0.192930 -0.947963
vn -0.253266 0.192931 -0.947963
vn -0.798720 -0.547465 -0.249659
vn -0.798720 -0.547465 -0.249659
vn -0.798720 -0.547465 -0.249659
vn -0.126964 -0.729920 0.671638
vn -0.126964 -0.729920 0.671638
vn -0.126964 -0.729920 0.671638
vn 0.798720 0.547464 0.249659
vn 0.798720 0.547464 0.249659
vn 0.798720 0.547464 0.249659
vn 0.126963 0.729920 -0.671638
vn 0.126964 0.729920 -0.671638
vn 0.126964 0.729920 -0.671638
vn -0.833658 0.102289 -0.542726
vn -0.833658 0.102289 -0.542726
vn -0.833658 0.102289 -0.542726
vn -0.755599 -0.468064 0.458243
vn -0.755599 -0.468064 0.458243
vn -0.755599 -0.468064 0.458243
vn 0.253266 -0.192931 0.947963
vn 0.253266 -0.192931 0.947963
vn 0.253266 -0.192931 0.947963
vn 0.763887 -0.230761 -0.602683
vn 0.763887 -0.230761 -0.602683
vn 0.763887 -0.230761 -0.602683
vn 0.140374 -0.400803 -0.905347
vn 0.140374 -0.400803 -0.905347
vn 0.140374 -0.400803 -0.905347
vn -0.196735 -0.858392 -0.473771
vn -0.196735 -0.858392 -0.473770
vn -0.196735 -0.858392 -0.473770
vn 0.218433 -0.971156 0.095622
vn 0.218433 -0.971156 0.095622
vn 0.218433 -0.971156 0.095622
vn 0.812130 -0.583258 0.015950
vn 0.812130 -0.583258 0.015950
vn 0.812130 -0.583258 0.015950
vn 0.000000 0.028912 -0.999582
vn 0.000000 0.028912 -0.999582
vn 0.000000 0.028912 -0.999582
vn 0.000000 0.028912 -0.999582
vn -0.865657 0.028909 -0.499803
vn -0.865657 0.028909 -0.499803
vn -0.865657 0.028909 -0.499803
vn -0.865657 0.028909 -0.499803
vn -0.865657 0.028909 0.499803
vn -0.865657 0.028909 0.499803
vn -0.865657 0.028909 0.499803
vn -0.865657 0.028909 0.499803
vn 0.000000 0.028912 0.999582
vn 0.000000 0.028912 0.999582
vn 0.000000 0.028912 0.999582
vn 0.000000 0.028912 0.999582
vn 0.865657 0.028909 0.499803
vn 0.865657 0.028909 0.499803
vn 0.865657 0.028909 0.499803
vn 0.865657 0.028909 0.499803
vn 0.865657 0.028909 -0.499803
vn 0.865657 0.028909 -0.499803
vn 0.865657 0.028909 -0.499803
vn 0.865657 0.028909 -0.499803
vn 0.000000 -1.000000 0.000000
vn 0.000000 -1.000000 0.000000
vn 0.000000 -1.000000 0.000000
vn 0.000000 -1.000000 0.000000
vn 0.000000 -1.000000 0.000000
vn 0.000000 -1.000000 0.000000
vn 0.000000 -1.000000 0.000000
vn 0.000000 -1.000000 0.000000
vn 0.000000 -1.000000 0.000000
vn 0.000000 -1.000000 0.000000
vn 0.000000 -1.000000 0.000000
vn 0.000000 -1.000000 0.000000
vn 0.000000 -1.000000 0.000000
vn 0.000000 -1.000000 0.000000
vn 0.000000 -1.000000 0.000000
vn 0.000000 -1.000000 0.000000
vn 0.000000 -1.000000 0.000000
vn 0.000000 -1.000000 0.000000
vn 0.491124 0.794654 -0.356822
vn 0.491124 0.794654 -0.356822
vn 0.491123 0.794654 -0.356822
vn -0.187593 0.794655 -0.577350
vn -0.187593 0.794655 -0.577350
vn -0.187593 0.794655 -0.577350
vn -0.607062 0.794654 0.000000
vn -0.607062 0.794654 0.000000
vn -0.607062 0.794655 0.000000
vn -0.187592 0.794654 0.577350
vn -0.187592 0.794654 0.577350
vn -0.187592 0.794654 0.577350
vn 0.491123 0.794654 0.356822
vn 0.491123 0.794654 0.356822
vn 0.491123 0.794654 0.356822
vn 0.982247 -0.187592 0.000000
vn 0.982247 -0.187592 0.000000
vn 0.982247 -0.187592 0.000000
vn 0.303531 -0.187593 -0.934172
vn 0.303531 -0.187593 -0.934172
vn 0.303531 -0.187593 -0.934172
vn -0.794655 -0.187593 -0.577350
vn -0.794655 -0.187592 -0.577350
vn -0.794655 -0.187593 -0.577350
vn -0.794654 -0.187593 0.577350
vn -0.794654 -0.187593 0.577350
vn -0.794654 -0.187593 0.577350
vn 0.303531 -0.187592 0.934172
vn 0.303531 -0.187592 0.934172
vn 0.303531 -0.187592 0.934172
vn 0.794654 0.187592 -0.577350
vn 0.794655 0.187592 -0.577350
vn 0.794654 0.187592 -0.577350
vn -0.303531 0.187592 -0.934172
vn -0.303531 0.187592 -0.934172
vn -0.303531 0.187592 -0.934172
vn -0.982247 0.187592 0.000000
vn -0.982247 0.187592 0.000000
vn -0.982247 0.187592 0.000000
vn -0.303531 0.187592 0.934172
vn -0.303531 0.187592 0.934172
vn -0.303531 0.187592 0.934172
vn 0.794654 0.187592 0.577350
vn 0.794654 0.187592 0.577350
vn 0.794654 0.187592 0.577350
vn 0.187592 -0.794654 -0.577350
vn 0.187592 -0.794654 -0.577350
vn 0.187592 -0.794655 -0.577350
vn -0.491124 -0.794654 -0.356822
vn -0.491124 -0.794654 -0.356822
vn -0.491124 -0.794654 -0.356822
vn -0.491123 -0.794654 0.356822
vn -0.491123 -0.794654 0.356822
vn -0.491123 -0.794654 0.356822
vn 0.187593 -0.794655 0.577350
vn 0.187593 -0.794655 0.577350
vn 0.187593 -0.794655 0.577350
vn 0.607062 -0.794654 -0.000000
vn 0.607062 -0.794655 -0.000000
vn 0.607062 -0.794654 -0.000000
s off
f 1/1/1 2/2/2 3/3/3
f 1/1/4 3/3/5 4/4/6
f 1/5/7 4/9/8 5/44/9
f 1/5/10 5/44/11 6/45/12
f 1/5/13 6/45/14 2/46/15
f 2/12/16 11/13/17 7/14/18
f 3/15/19 7/14/20 8/16/21
f 4/17/22 8/18/23 9/19/24
f 5/7/25 9/20/26 10/21/27
f 6/22/28 10/23/29 11/24/30
f 7/14/31 3/15/32 2/12/33
f 8/25/34 4/4/35 3/3/36
f 9/20/37 5/7/38 4/6/39
f 10/21/40 6/8/41 5/7/42
f 11/26/43 2/11/44 6/10/45
f 12/27/46 8/16/47 7/14/48
f 12/28/49 9/19/50 8/18/51
f 12/29/52 10/23/53 9/30/54
f 12/29/55 11/24/56 10/23/57
f 12/27/58 7/14/59 11/13/60
f 13/31/61 14/32/62 20/33/63 19/34/64
f 14/32/65 15/35/66 21/36/67 20/33/68
f 15/35/69 16/37/70 22/38/71 21/36/72
f 16/37/73 17/39/74 23/40/75 22/38/76
f 17/39/77 18/41/78 24/42/79 23/40/80
f 18/41/81 13/31/82 19/34/83 24/42/84
f 14/32/85 13/31/86 25/43/87
f 15/35/88 14/32/89 25/43/90
f 16/37/91 15/35/92 25/43/93
f 17/39/94 16/37/95 25/43/96
f 18/41/97 17/39/98 25/43/99
f 13/31/100 18/41/101 25/43/102
f 26/47/103 27/48/104 28/49/105
f 26/47/106 28/49/107 29/74/108
f 26/47/109 29/74/110 30/75/111
f 26/47/112 30/75/113 31/76/114
f 26/47/115 31/76/116 27/48/117
f 27/50/118 36/51/119 32/52/120
f 28/53/121 32/54/122 33/55/123
f 29/56/124 33/57/125 34/58/126
f 30/59/127 34/58/128 35/60/129
f 31/61/130 35/62/131 36/63/132
f 32/52/133 28/64/134 27/50/135
f 33/55/136 29/65/137 28/53/138
f 34/58/139 30/59/140 29/56/141
f 35/62/142 31/61/143 30/66/144
f 36/51/145 27/50/146 31/67/147
f 37/68/148 33/69/149 32/70/150
f 37/68/151 34/71/152 33/69/153
f 37/68/154 35/72/155 34/71/156
f 37/68/157 36/73/158 35/72/159
f 37/68/160 32/70/161 36/73/162
