# This file uses meters as units for non-parametric coordinates.

v 1.038696 0.000000 -4.626465
v -4.400146 0.000000 -2.859314
v -4.400146 0.000000 2.859314
v 1.038696 0.000000 4.626465
v 4.399902 0.000000 0.000000
v 2.493774 39.907833 -11.107544
v -10.563843 39.907833 -6.864807
v -10.563843 39.907833 6.864807
v 2.493652 39.907833 11.107544
v 10.563721 39.907833 0.000000
v -0.464478 0.000000 0.000000
v -1.115356 59.216145 0.000000
vt 0.241351 0.902553
vt 0.241351 0.902553
vt 0.241351 0.902553
vt 0.241351 0.902553
vt 0.241351 0.902553
vt 0.241351 0.902553
vt 0.241351 0.902553
vt 0.241351 0.902553
vt 0.241351 0.902553
vt 0.241351 0.902553
vt 0.241351 0.902553
vt 0.241351 0.902553
vt 0.241351 0.902553
vt 0.241351 0.902553
vt 0.241351 0.902553
vt 0.241351 0.902553
vt 0.241351 0.902553
vt 0.459717 0.283989
vt 0.459717 0.283989
vt 0.459717 0.283989
vt 0.459717 0.283989
vt 0.459717 0.283989
vt 0.241351 0.902553
vt 0.459717 0.283989
vn -0.305900 -0.141739 -0.941454
vn -0.305900 -0.141739 -0.941454
vn -0.305900 -0.141739 -0.941454
vn -0.305900 -0.141739 -0.941454
vn -0.988282 -0.152640 -0.000000
vn -0.988282 -0.152640 -0.000000
vn -0.988282 -0.152640 -0.000000
vn -0.988282 -0.152640 -0.000000
vn -0.305897 -0.141739 0.941455
vn -0.305897 -0.141739 0.941455
vn -0.305897 -0.141739 0.941455
vn -0.305897 -0.141739 0.941455
vn 0.802776 -0.123990 0.583247
vn 0.802776 -0.123990 0.583247
vn 0.802776 -0.123990 0.583247
vn 0.802776 -0.123990 0.583247
vn 0.802776 -0.123990 -0.583247
vn 0.802776 -0.123990 -0.583247
vn 0.802776 -0.123990 -0.583247
vn 0.802776 -0.123990 -0.583247
vn 0.000000 -1.000000 0.000000
vn 0.000000 -1.000000 0.000000
vn 0.000000 -1.000000 0.000000
vn 0.000000 -1.000000 0.000000
vn 0.000000 -1.000000 0.000000
vn 0.000000 -1.000000 0.000000
vn 0.000000 -1.000000 0.000000
vn 0.000000 -1.000000 0.000000
vn 0.000000 -1.000000 0.000000
vn 0.000000 -1.000000 0.000000
vn 0.000000 -1.000000 0.000000
vn 0.000000 -1.000000 0.000000
vn 0.000000 -1.000000 0.000000
vn 0.000000 -1.000000 0.000000
vn 0.000000 -1.000000 0.000000
vn -0.277569 0.439548 -0.854256
vn -0.277569 0.439548 -0.854256
vn -0.277569 0.439548 -0.854256
vn -0.898220 0.439546 -0.000000
vn -0.898220 0.439546 -0.000000
vn -0.898220 0.439546 -0.000000
vn -0.277567 0.439548 0.854257
vn -0.277567 0.439548 0.854257
vn -0.277567 0.439548 0.854257
vn 0.726676 0.439547 0.527959
vn 0.726676 0.439547 0.527959
vn 0.726676 0.439547 0.527959
vn 0.726676 0.439547 -0.527959
vn 0.726676 0.439547 -0.527959
vn 0.726676 0.439547 -0.527959
s off
f 1/6/1 2/7/2 7/13/3 6/12/4
f 2/7/5 3/8/6 8/14/7 7/13/8
f 3/8/9 4/9/10 9/15/11 8/14/12
f 4/9/13 5/10/14 10/16/15 9/15/16
f 5/10/17 1/11/18 6/17/19 10/16/20
f 2/2/21 1/1/22 11/23/23
f 3/3/24 2/2/25 11/23/26
f 4/4/27 3/3/28 11/23/29
f 5/5/30 4/4/31 11/23/32
f 1/1/33 5/5/34 11/23/35
f 6/18/36 7/19/37 12/20/38
f 7/19/39 8/21/40 12/20/41
f 8/21/42 9/22/43 12/20/44
f 9/22/45 10/24/46 12/20/47
f 10/24/48 6/18/49 12/20/50
