# This file uses meters as units for non-parametric coordinates.

v 1.293945 -28.718330 -2.240920
v -1.293694 -28.718330 -2.240920
v -2.587639 -28.718330 0.000000
v -1.293694 -28.718330 2.240952
v 1.293945 -28.718330 2.240952
v 2.587639 -28.718330 0.000000
v 0.911461 39.616318 -1.578474
v -0.911201 39.616318 -1.578474
v -1.822662 39.616318 0.000000
v -0.911201 39.616318 1.578474
v 0.911461 39.616318 1.578474
v 1.822914 39.616318 0.000000
v 0.000000 -28.718330 0.000000
v 4.716240 45.883186 -10.542567
v -8.084358 44.879513 -13.075741
v -14.898048 42.577217 0.909432
v -8.084358 44.745266 13.140313
v 5.127205 42.358040 13.213490
v 12.694679 42.358040 0.105476
v 2.348709 55.412594 -4.929519
v -5.477013 52.273590 -5.677605
v -6.245552 55.412594 0.032274
v -4.802956 53.223736 5.875476
v 2.348709 55.412594 4.994090
v 6.002678 53.843781 -1.235898
v -0.516258 61.107647 0.032274
v 4.535545 20.279026 -3.956072
v 3.433098 20.279026 -2.046379
v 1.227699 20.279026 -2.046379
v 0.125252 20.279026 -3.956072
v 1.227699 20.279026 -5.865765
v 3.433098 20.279026 -5.865765
vt 0.123094 0.108677
vt 0.123094 0.108677
vt 0.123094 0.108677
vt 0.123094 0.108677
vt 0.123094 0.108677
vt 0.123094 0.108677
vt 0.123094 0.108677
vt 0.123094 0.108677
vt 0.123094 0.108677
vt 0.123094 0.108677
vt 0.123094 0.108677
vt 0.123094 0.108677
vt 0.123094 0.108677
vt 0.257802 0.854643
vt 0.257802 0.854643
vt 0.257802 0.854643
vt 0.257802 0.854643
vt 0.257802 0.854643
vt 0.257802 0.854643
vt 0.257802 0.854643
vt 0.257802 0.854643
vt 0.065200 0.102704
vt 0.065200 0.102704
vt 0.257802 0.854643
vt 0.257802 0.854643
vt 0.065200 0.102704
vt 0.257802 0.854643
vt 0.065200 0.102704
vt 0.257802 0.854643
vt 0.065200 0.102704
vt 0.257802 0.854643
vt 0.065200 0.102704
vt 0.065200 0.102704
vt 0.065200 0.102704
vt 0.065200 0.102704
vt 0.065200 0.102704
vt 0.065200 0.102704
vt 0.065200 0.102704
vt 0.123094 0.108677
vt 0.123094 0.108677
vt 0.123094 0.108677
vt 0.123094 0.108677
vt 0.123094 0.108677
vt 0.123094 0.108677
vn 0.000000 -0.073779 -0.997275
vn 0.000000 -0.073779 -0.997275
vn 0.000000 0.001569 -0.999999
vn 0.000000 -0.003385 -0.999994
vn -0.865997 0.007577 -0.499991
vn -0.865997 0.007577 -0.499991
vn -0.865983 0.009544 -0.499982
vn -0.865985 0.009292 -0.499983
vn -0.862666 0.087976 0.498064
vn -0.862666 0.087976 0.498064
vn -0.865893 0.017368 0.499927
vn -0.865816 0.021935 0.499882
vn 0.000000 0.087168 0.996194
vn 0.000000 0.087168 0.996194
vn 0.000000 0.021882 0.999761
vn 0.000000 0.017224 0.999852
vn 0.866031 0.005937 0.499954
vn 0.866031 0.005937 0.499954
vn 0.866007 0.008977 0.499952
vn 0.866003 0.009424 0.499951
vn 0.863632 -0.074589 -0.498573
vn 0.863632 -0.074589 -0.498573
vn 0.866035 -0.003430 -0.499972
vn 0.866039 0.001422 -0.499975
vn 0.000000 -1.000000 0.000000
vn 0.000000 -1.000000 0.000000
vn 0.000000 -1.000000 0.000000
vn 0.000000 -1.000000 0.000000
vn 0.000000 -1.000000 0.000000
vn 0.000000 -1.000000 0.000000
vn 0.000000 -1.000000 0.000000
vn 0.000000 -1.000000 0.000000
vn 0.000000 -1.000000 0.000000
vn 0.000000 -1.000000 0.000000
vn 0.000000 -1.000000 0.000000
vn 0.000000 -1.000000 0.000000
vn 0.000000 -1.000000 0.000000
vn 0.000000 -1.000000 0.000000
vn 0.000000 -1.000000 0.000000
vn 0.000000 -1.000000 0.000000
vn 0.000000 -1.000000 0.000000
vn 0.000000 -1.000000 0.000000
vn 0.145710 -0.851452 -0.503783
vn 0.145710 -0.851452 -0.503783
vn 0.145710 -0.851452 -0.503783
vn 0.145710 -0.851452 -0.503783
vn -0.243947 -0.934475 -0.259320
vn -0.243947 -0.934475 -0.259320
vn -0.243947 -0.934475 -0.259320
vn -0.243947 -0.934475 -0.259320
vn -0.211801 -0.940382 0.266123
vn -0.211801 -0.940382 0.266123
vn -0.211801 -0.940382 0.266123
vn -0.211801 -0.940382 0.266123
vn -0.151009 -0.941814 0.300304
vn -0.151009 -0.941814 0.300304
vn -0.151009 -0.941814 0.300304
vn -0.151009 -0.941814 0.300304
vn 0.240883 -0.960539 0.139069
vn 0.240883 -0.960539 0.139069
vn 0.240883 -0.960539 0.139069
vn 0.240883 -0.960539 0.139069
vn 0.262659 -0.859364 -0.438752
vn 0.262659 -0.859364 -0.438752
vn 0.262659 -0.859364 -0.438752
vn 0.262659 -0.859364 -0.438752
vn 0.003711 0.609471 -0.792800
vn 0.003711 0.609471 -0.792800
vn 0.003711 0.609471 -0.792800
vn 0.003711 0.609471 -0.792800
vn -0.778980 0.537618 -0.322733
vn -0.778980 0.537618 -0.322733
vn -0.778980 0.537618 -0.322733
vn -0.778980 0.537618 -0.322733
vn -0.756085 0.555523 0.346021
vn -0.756085 0.555523 0.346021
vn -0.756085 0.555523 0.346021
vn -0.756085 0.555523 0.346021
vn 0.037894 0.582816 0.811720
vn 0.037894 0.582816 0.811720
vn 0.037894 0.582817 0.811720
vn 0.037894 0.582816 0.811720
vn 0.782033 0.463933 0.416161
vn 0.782033 0.463933 0.416161
vn 0.782033 0.463933 0.416161
vn 0.782033 0.463933 0.416161
vn 0.770248 0.428130 -0.472676
vn 0.770248 0.428130 -0.472676
vn 0.770248 0.428130 -0.472676
vn 0.770248 0.428130 -0.472676
vn -0.165472 0.599209 -0.783305
vn -0.165472 0.599209 -0.783305
vn -0.165472 0.599209 -0.783305
vn -0.634371 0.638185 -0.436227
vn -0.634371 0.638185 -0.436227
vn -0.634371 0.638185 -0.436227
vn -0.645348 0.649228 0.402527
vn -0.645348 0.649228 0.402527
vn -0.645348 0.649228 0.402527
vn -0.096185 0.625910 0.773942
vn -0.096185 0.625910 0.773942
vn -0.096185 0.625910 0.773942
vn 0.738459 0.614110 0.278473
vn 0.738459 0.614110 0.278473
vn 0.738459 0.614110 0.278473
vn 0.657517 0.655072 -0.372226
vn 0.657517 0.655072 -0.372226
vn 0.657517 0.655072 -0.372226
vn 0.866003 0.009424 0.499951
vn 0.866007 0.008977 0.499952
vn 0.865865 0.019196 0.499909
vn 0.865865 0.019196 0.499909
vn 0.000000 0.017224 0.999852
vn 0.000000 0.021882 0.999761
vn 0.000000 -0.184245 0.982880
vn 0.000000 -0.184245 0.982880
vn -0.865816 0.021935 0.499882
vn -0.865893 0.017368 0.499927
vn -0.850877 -0.186209 0.491258
vn -0.850877 -0.186209 0.491258
vn -0.865985 0.009292 -0.499983
vn -0.865983 0.009544 -0.499982
vn -0.865926 0.015058 -0.499946
vn -0.865926 0.015058 -0.499946
vn 0.000000 -0.003385 -0.999994
vn 0.000000 0.001569 -0.999999
vn 0.000000 0.216455 -0.976293
vn 0.000000 0.216455 -0.976293
vn 0.866039 0.001422 -0.499975
vn 0.866035 -0.003430 -0.499972
vn 0.845122 0.218381 -0.487933
vn 0.845122 0.218381 -0.487933
s off
f 1/1/1 2/2/2 31/43/3 32/44/4
f 2/2/5 3/5/6 30/42/7 31/43/8
f 3/5/9 4/7/10 29/41/11 30/42/12
f 4/7/13 5/9/14 28/40/15 29/41/16
f 5/9/17 6/11/18 27/39/19 28/40/20
f 6/11/21 1/1/22 32/44/23 27/39/24
f 2/2/25 1/1/26 13/13/27
f 3/5/28 2/2/29 13/13/30
f 4/7/31 3/5/32 13/13/33
f 5/9/34 4/7/35 13/13/36
f 6/11/37 5/9/38 13/13/39
f 1/1/40 6/11/41 13/13/42
f 7/22/43 8/23/44 15/26/45 14/28/46
f 8/23/47 9/30/48 16/32/49 15/26/50
f 9/30/51 10/33/52 17/34/53 16/32/54
f 10/33/55 11/35/56 18/36/57 17/34/58
f 11/35/59 12/37/60 19/38/61 18/36/62
f 12/37/63 7/22/64 14/28/65 19/38/66
f 14/25/67 15/24/68 21/20/69 20/19/70
f 15/24/71 16/27/72 22/18/73 21/20/74
f 16/27/75 17/29/76 23/17/77 22/18/78
f 17/29/79 18/31/80 24/16/81 23/17/82
f 18/31/83 19/21/84 25/15/85 24/16/86
f 19/21/87 14/25/88 20/19/89 25/15/90
f 20/19/91 21/20/92 26/14/93
f 21/20/94 22/18/95 26/14/96
f 22/18/97 23/17/98 26/14/99
f 23/17/100 24/16/101 26/14/102
f 24/16/103 25/15/104 26/14/105
f 25/15/106 20/19/107 26/14/108
f 28/40/109 27/39/110 12/12/111 11/10/112
f 29/41/113 28/40/114 11/10/115 10/8/116
f 30/42/117 29/41/118 10/8/119 9/6/120
f 31/43/121 30/42/122 9/6/123 8/3/124
f 32/44/125 31/43/126 8/3/127 7/4/128
f 27/39/129 32/44/130 7/4/131 12/12/132
