# This file uses meters as units for non-parametric coordinates.

v -7.039484 23.260553 30.578026
v 15.159512 17.945621 30.578026
v -10.612392 74.296654 34.930599
v 18.732676 74.296654 34.930599
v -18.163332 77.812225 -32.738918
v 18.732676 77.812225 -34.930584
v -14.590041 17.945621 -28.386402
v 15.159512 17.945621 -30.577946
v 38.286114 74.296654 -8.952856
v -30.331198 77.812225 -12.290080
v -24.539471 17.945621 -11.461370
v 32.493813 23.260553 -8.124145
v 36.852299 77.812225 16.318296
v -31.294790 77.812225 18.292299
v -25.502810 23.758249 16.187279
v 31.609758 17.945621 14.155387
v 4.499084 77.812225 31.788294
v 17.020767 81.380989 14.893396
v 17.020767 81.380989 -8.651264
v 3.967406 74.296654 -31.105518
v 5.751413 23.260553 -27.259024
v 3.938323 17.945621 27.827312
v -12.590901 81.020187 -7.138292
v -14.140034 80.569344 15.437706
v 3.967951 44.254032 28.037237
v -7.228565 47.673447 30.808664
v -25.809765 44.254032 16.298811
v -24.846682 47.673447 -11.505182
v -14.779122 47.673447 -28.617050
v 4.773452 44.254032 -27.701385
v 15.348784 47.673447 -30.808720
v 32.801025 44.254032 -8.167959
v 31.887278 47.673447 14.270027
v 15.348784 47.673447 30.808664
v 4.221437 36.571766 29.825790
v -8.841991 36.114582 32.774109
v -28.425121 36.571766 17.249401
v -27.462038 36.114582 -11.879460
v -16.392548 39.991177 -30.582420
v 3.967852 36.571766 -29.438425
v 16.962463 36.114582 -32.774090
v 35.416382 36.571766 -8.542235
v 34.254360 36.114582 15.246685
v 16.962463 39.991177 32.774109
v -48.192181 0.000000 24.079506
v -1.813986 0.000000 24.079506
v 6.412472 0.000000 45.310993
v -22.811031 0.000000 49.789963
v -22.811031 0.000000 -49.790001
v -2.335898 0.000000 -44.001789
v -9.365052 0.000000 -7.289171
v -48.192181 0.000000 -9.480842
v 30.931377 0.000000 -49.790001
v 56.311897 0.000000 -9.480842
v 50.028515 0.000000 24.742405
v 30.931377 0.000000 49.789963
v 0.744332 78.042549 24.335758
v 0.726315 78.997490 16.943859
v -4.413376 79.637733 -6.607288
v -3.343522 77.215607 -20.567036
vt 0.918201 0.323636
vt 0.918201 0.323636
vt 0.918201 0.323636
vt 0.918201 0.323636
vt 0.918201 0.323636
vt 0.918201 0.323636
vt 0.918201 0.323636
vt 0.918201 0.323636
vt 0.896333 0.322860
vt 0.896333 0.322860
vt 0.918201 0.323636
vt 0.918201 0.323636
vt 0.918201 0.323636
vt 0.918201 0.323636
vt 0.918201 0.323636
vt 0.918201 0.323636
vt 0.918201 0.323636
vt 0.918201 0.323636
vt 0.918201 0.323636
vt 0.896333 0.322860
vt 0.896333 0.322860
vt 0.918201 0.323636
vt 0.918201 0.323636
vt 0.918201 0.323636
vt 0.918201 0.323636
vt 0.918201 0.323636
vt 0.918201 0.323636
vt 0.896333 0.322860
vt 0.896333 0.322860
vt 0.918201 0.323636
vt 0.918201 0.323636
vt 0.918201 0.323636
vt 0.918201 0.323636
vt 0.918201 0.323636
vt 0.918201 0.323636
vt 0.896333 0.322860
vt 0.896333 0.322860
vt 0.918201 0.323636
vt 0.896333 0.322860
vt 0.918201 0.323636
vt 0.918201 0.323636
vt 0.919369 0.322468
vt 0.919369 0.322468
vt 0.918201 0.323636
vt 0.918201 0.323636
vt 0.918201 0.323636
vt 0.918201 0.323636
vt 0.918201 0.323636
vt 0.918201 0.323636
vt 0.918201 0.323636
vt 0.919369 0.322468
vt 0.919369 0.322468
vt 0.919369 0.322468
vt 0.918201 0.323636
vt 0.919369 0.322468
vt 0.919369 0.322468
vt 0.919369 0.322468
vt 0.919369 0.322468
vt 0.919369 0.322468
vt 0.919369 0.322468
vt 0.919369 0.322468
vt 0.919369 0.322468
vt 0.919369 0.322468
vt 0.919369 0.322468
vt 0.919369 0.322468
vt 0.896333 0.322860
vt 0.896333 0.322860
vt 0.896333 0.322860
vt 0.896333 0.322860
vt 0.896333 0.322860
vt 0.896333 0.322860
vt 0.896333 0.322860
vt 0.896333 0.322860
vt 0.896333 0.322860
vt 0.896333 0.322860
vt 0.896333 0.322860
vt 0.896333 0.322860
vt 0.896333 0.322860
vt 0.919369 0.322468
vt 0.918201 0.323636
vt 0.919369 0.322468
vt 0.919369 0.322468
vt 0.919369 0.322468
vt 0.918201 0.323636
vt 0.918201 0.323636
vt 0.919369 0.322468
vt 0.919369 0.322468
vt 0.918201 0.323636
vt 0.918201 0.323636
vt 0.919369 0.322468
vt 0.918201 0.323636
vt 0.918201 0.323636
vt 0.918201 0.323636
vt 0.919369 0.322468
vt 0.919369 0.322468
vt 0.918201 0.323636
vt 0.918201 0.323636
vt 0.918201 0.323636
vt 0.919369 0.322468
vt 0.918201 0.323636
vt 0.919369 0.322468
vt 0.918201 0.323636
vt 0.919369 0.322468
vt 0.918201 0.323636
vt 0.918201 0.323636
vt 0.919369 0.322468
vt 0.918201 0.323636
vt 0.919369 0.322468
vt 0.919369 0.322468
vt 0.919369 0.322468
vt 0.919369 0.322468
vt 0.919369 0.322468
vt 0.919369 0.322468
vt 0.919369 0.322468
vt 0.919369 0.322468
vt 0.919369 0.322468
vt 0.919369 0.322468
vt 0.919369 0.322468
vt 0.918201 0.323636
vt 0.918201 0.323636
vt 0.918201 0.323636
vt 0.918201 0.323636
vn 0.206090 -0.119462 0.971214
vn 0.206090 -0.119462 0.971214
vn 0.206090 -0.119462 0.971214
vn 0.206090 -0.119462 0.971214
vn 0.009488 0.965981 0.258440
vn 0.009488 0.965981 0.258440
vn 0.009488 0.965981 0.258440
vn 0.009488 0.965981 0.258440
vn 0.060748 -0.116516 -0.991329
vn 0.060748 -0.116516 -0.991329
vn 0.060748 -0.116516 -0.991329
vn 0.060748 -0.116516 -0.991329
vn 0.000000 -1.000000 0.000000
vn 0.000000 -1.000000 0.000000
vn 0.000000 -1.000000 0.000000
vn 0.000000 -1.000000 0.000000
vn 0.695093 -0.134604 0.706206
vn 0.695093 -0.134604 0.706206
vn 0.695093 -0.134604 0.706206
vn 0.695093 -0.134604 0.706206
vn -0.607672 -0.209115 0.766163
vn -0.607673 -0.209115 0.766163
vn -0.607672 -0.209115 0.766163
vn -0.607672 -0.209115 0.766163
vn -0.847237 -0.132979 -0.514301
vn -0.847237 -0.132979 -0.514301
vn -0.847237 -0.132979 -0.514301
vn -0.847237 -0.132979 -0.514301
vn 0.000000 -1.000000 0.000000
vn 0.000000 -1.000000 0.000000
vn 0.000000 -1.000000 0.000000
vn 0.000000 -1.000000 0.000000
vn 0.792307 -0.167651 -0.586637
vn 0.792307 -0.167651 -0.586637
vn 0.792307 -0.167651 -0.586637
vn 0.792307 -0.167651 -0.586637
vn 0.125963 0.991941 0.013658
vn 0.125963 0.991941 0.013658
vn 0.125963 0.991941 0.013658
vn 0.125963 0.991941 0.013658
vn -0.982634 -0.185107 -0.012899
vn -0.982634 -0.185107 -0.012899
vn -0.982634 -0.185107 -0.012899
vn -0.982634 -0.185107 -0.012899
vn 0.000000 -1.000000 0.000000
vn 0.000000 -1.000000 0.000000
vn 0.000000 -1.000000 0.000000
vn 0.000000 -1.000000 0.000000
vn 0.984405 -0.174556 0.021850
vn 0.984405 -0.174556 0.021850
vn 0.984405 -0.174556 0.021850
vn 0.984405 -0.174556 0.021850
vn 0.145646 0.936599 0.318699
vn 0.145646 0.936599 0.318699
vn 0.145646 0.936599 0.318699
vn 0.252032 0.965721 -0.062146
vn 0.252032 0.965721 -0.062146
vn 0.252032 0.965721 -0.062146
vn 0.252032 0.965721 -0.062146
vn -0.264918 0.953049 -0.146682
vn -0.264918 0.953049 -0.146682
vn -0.264918 0.953049 -0.146682
vn -0.313072 -0.130560 -0.940713
vn -0.313072 -0.130560 -0.940712
vn -0.313072 -0.130560 -0.940713
vn -0.313072 -0.130560 -0.940713
vn 0.000000 -1.000000 0.000000
vn 0.000000 -1.000000 0.000000
vn 0.000000 -1.000000 0.000000
vn 0.000000 -1.000000 0.000000
vn 0.000000 -1.000000 0.000000
vn 0.000000 -1.000000 0.000000
vn 0.000000 -1.000000 0.000000
vn 0.000000 -1.000000 0.000000
vn 0.000000 -1.000000 0.000000
vn 0.000000 -1.000000 0.000000
vn 0.000000 -1.000000 0.000000
vn 0.000000 -1.000000 0.000000
vn -0.218421 -0.089020 0.971786
vn -0.218421 -0.089020 0.971786
vn -0.218421 -0.089020 0.971786
vn -0.218421 -0.089020 0.971786
vn 0.160951 0.934757 0.316740
vn 0.160951 0.934757 0.316740
vn 0.160951 0.934757 0.316740
vn -0.198893 0.971331 0.130225
vn -0.198893 0.971331 0.130225
vn -0.198893 0.971331 0.130225
vn 0.174465 0.972334 -0.155337
vn 0.174465 0.972334 -0.155337
vn 0.174465 0.972333 -0.155337
vn 0.312846 0.943670 -0.107772
vn 0.312846 0.943670 -0.107772
vn 0.312846 0.943670 -0.107772
vn -0.151763 0.984283 -0.090304
vn -0.151763 0.984283 -0.090304
vn -0.151763 0.984283 -0.090304
vn -0.168524 0.985697 0.000394
vn -0.168524 0.985697 0.000394
vn -0.168524 0.985697 0.000394
vn -0.168524 0.985697 0.000394
vn -0.098009 0.942036 0.320877
vn -0.098009 0.942036 0.320877
vn -0.098009 0.942036 0.320877
vn 0.169575 0.972641 -0.158791
vn 0.169576 0.972641 -0.158791
vn 0.169575 0.972641 -0.158791
vn 0.218230 -0.116412 0.968929
vn 0.218230 -0.116412 0.968929
vn 0.218230 -0.116412 0.968929
vn 0.218230 -0.116412 0.968929
vn -0.612833 -0.168758 0.771982
vn -0.612833 -0.168758 0.771982
vn -0.612833 -0.168758 0.771982
vn -0.612833 -0.168758 0.771982
vn -0.984742 -0.168783 -0.042380
vn -0.984742 -0.168783 -0.042380
vn -0.984742 -0.168783 -0.042380
vn -0.984742 -0.168783 -0.042380
vn -0.848617 -0.165753 -0.502370
vn -0.848617 -0.165753 -0.502370
vn -0.848617 -0.165753 -0.502370
vn -0.848617 -0.165753 -0.502370
vn 0.040485 -0.121211 -0.991801
vn 0.040485 -0.121211 -0.991801
vn 0.040485 -0.121211 -0.991801
vn 0.040485 -0.121211 -0.991801
vn -0.233931 -0.110773 -0.965922
vn -0.233931 -0.110773 -0.965922
vn -0.233931 -0.110773 -0.965922
vn -0.233931 -0.110773 -0.965922
vn 0.773554 -0.163911 -0.612167
vn 0.773554 -0.163911 -0.612167
vn 0.773554 -0.163911 -0.612166
vn 0.773554 -0.163911 -0.612167
vn 0.982341 -0.172117 0.073356
vn 0.982341 -0.172117 0.073356
vn 0.982341 -0.172117 0.073356
vn 0.982341 -0.172117 0.073356
vn 0.709514 -0.178465 0.681718
vn 0.709514 -0.178465 0.681718
vn 0.709514 -0.178465 0.681718
vn 0.709514 -0.178465 0.681718
vn -0.223939 -0.112084 0.968136
vn -0.223939 -0.112084 0.968136
vn -0.223939 -0.112085 0.968136
vn -0.223939 -0.112084 0.968136
vn 0.245668 0.168868 0.954532
vn 0.245668 0.168868 0.954532
vn 0.245668 0.168868 0.954532
vn 0.245668 0.168868 0.954532
vn -0.610908 0.248200 0.751790
vn -0.610908 0.248200 0.751790
vn -0.610908 0.248200 0.751790
vn -0.610908 0.248200 0.751790
vn -0.964948 0.261752 -0.019027
vn -0.964948 0.261752 -0.019027
vn -0.964948 0.261752 -0.019027
vn -0.964948 0.261752 -0.019027
vn -0.846572 0.243604 -0.473259
vn -0.846572 0.243604 -0.473258
vn -0.846572 0.243604 -0.473259
vn -0.846572 0.243604 -0.473258
vn 0.087872 0.220263 -0.971475
vn 0.087872 0.220263 -0.971475
vn 0.087872 0.220263 -0.971475
vn 0.087872 0.220263 -0.971475
vn -0.279673 0.170076 -0.944911
vn -0.279673 0.170076 -0.944911
vn -0.279673 0.170076 -0.944911
vn -0.279673 0.170076 -0.944911
vn 0.777658 0.241503 -0.580452
vn 0.777658 0.241503 -0.580452
vn 0.777658 0.241503 -0.580452
vn 0.777658 0.241503 -0.580452
vn 0.967500 0.251388 0.027336
vn 0.967500 0.251388 0.027336
vn 0.967500 0.251388 0.027336
vn 0.967500 0.251388 0.027336
vn 0.701438 0.247328 0.668441
vn 0.701438 0.247328 0.668441
vn 0.701438 0.247328 0.668441
vn 0.701438 0.247328 0.668441
vn -0.278487 0.195888 0.940251
vn -0.278487 0.195888 0.940252
vn -0.278487 0.195888 0.940251
vn -0.278487 0.195888 0.940252
vn 0.217679 0.608988 0.762725
vn 0.217679 0.608988 0.762725
vn 0.217679 0.608988 0.762725
vn 0.217679 0.608988 0.762725
vn -0.478743 0.698338 0.532099
vn -0.478743 0.698338 0.532099
vn -0.478743 0.698338 0.532099
vn -0.478743 0.698338 0.532099
vn 0.038181 0.670662 -0.740780
vn 0.038181 0.670662 -0.740780
vn 0.038181 0.670662 -0.740780
vn 0.038181 0.670662 -0.740780
vn -0.589804 0.720814 -0.364085
vn -0.589805 0.720814 -0.364085
vn -0.589804 0.720814 -0.364085
vn -0.589805 0.720814 -0.364085
vn -0.676160 0.732377 -0.080191
vn -0.676160 0.732377 -0.080191
vn -0.676160 0.732377 -0.080191
vn -0.676160 0.732377 -0.080191
vn -0.081325 0.646631 -0.758455
vn -0.081325 0.646631 -0.758456
vn -0.081325 0.646631 -0.758456
vn -0.081325 0.646631 -0.758456
vn 0.536303 0.728243 -0.426663
vn 0.536303 0.728243 -0.426663
vn 0.536303 0.728243 -0.426663
vn 0.536303 0.728243 -0.426663
vn 0.672671 0.723862 0.153419
vn 0.672671 0.723862 0.153419
vn 0.672671 0.723862 0.153419
vn 0.672671 0.723862 0.153419
vn 0.471162 0.784153 0.403870
vn 0.471162 0.784153 0.403870
vn 0.471162 0.784153 0.403870
vn 0.471162 0.784153 0.403870
vn -0.147276 0.669506 0.728060
vn -0.147276 0.669506 0.728060
vn -0.147276 0.669506 0.728060
vn -0.147276 0.669506 0.728060
vn -0.142597 0.984483 0.102270
vn -0.142597 0.984483 0.102270
vn -0.142597 0.984483 0.102270
vn -0.127846 0.983580 0.127379
vn -0.127846 0.983580 0.127379
vn -0.127846 0.983580 0.127379
vn -0.106007 0.994049 0.025082
vn -0.106007 0.994049 0.025082
vn -0.106007 0.994049 0.025082
vn -0.106007 0.994049 0.025082
vn -0.062244 0.970511 -0.232883
vn -0.062244 0.970511 -0.232884
vn -0.062244 0.970511 -0.232883
vn -0.062244 0.970511 -0.232884
vn 0.166117 0.973925 -0.154517
vn 0.166117 0.973925 -0.154517
vn 0.166117 0.973925 -0.154517
s off
f 1/1/1 22/38/2 35/54/3 36/104/4
f 3/3/5 57/119/6 58/120/7 24/41/8
f 39/98/9 40/96/10 21/35/11 7/7/12
f 45/9/13 46/10/14 47/20/15 48/21/16
f 2/2/17 16/30/18 43/84/19 44/80/20
f 15/27/21 1/1/22 36/104/23 37/102/24
f 7/13/25 11/19/26 38/100/27 39/97/28
f 49/28/29 50/29/30 51/36/31 52/37/32
f 42/88/33 12/22/34 8/11/35 41/92/36
f 23/40/37 24/41/38 58/120/39 59/121/40
f 11/19/41 15/27/42 37/102/43 38/100/44
f 52/37/45 51/36/46 46/10/47 45/9/48
f 43/84/49 16/30/50 12/22/51 42/88/52
f 18/32/53 4/4/54 13/23/55
f 19/33/56 18/32/57 13/23/58 9/15/59
f 20/34/60 19/33/61 6/6/62
f 21/35/63 40/96/64 41/91/65 8/8/66
f 51/36/67 50/29/68 53/39/69 54/66/70
f 46/10/71 51/36/72 54/66/73 55/67/74
f 47/20/75 46/10/76 55/67/77 56/68/78
f 44/80/79 35/54/80 22/38/81 2/2/82
f 17/31/83 4/4/84 18/32/85
f 3/3/86 17/31/87 57/119/88
f 59/121/89 60/122/90 23/40/91
f 6/6/92 19/33/93 9/15/94
f 10/18/95 23/40/96 5/5/97
f 14/26/98 24/41/99 23/40/100 10/18/101
f 3/3/102 24/41/103 14/26/104
f 5/5/105 23/40/106 60/122/107
f 26/105/108 25/107/109 17/31/110 3/3/111
f 27/44/112 26/105/113 3/3/114 14/25/115
f 28/45/116 27/44/117 14/25/118 10/17/119
f 29/46/120 28/45/121 10/17/122 5/14/123
f 5/5/124 20/34/125 30/48/126 29/47/127
f 31/49/128 30/48/129 20/34/130 6/6/131
f 9/16/132 32/93/133 31/50/134 6/12/135
f 13/24/136 33/89/137 32/93/138 9/16/139
f 34/85/140 33/89/141 13/24/142 4/4/143
f 17/31/144 25/107/145 34/85/146 4/4/147
f 36/103/148 35/81/149 25/42/150 26/106/151
f 37/101/152 36/55/153 26/43/154 27/117/155
f 38/99/156 37/56/157 27/118/158 28/115/159
f 39/58/160 38/57/161 28/116/162 29/113/163
f 29/114/164 30/111/165 40/95/166 39/59/167
f 41/61/168 40/60/169 30/112/170 31/109/171
f 32/94/172 42/87/173 41/62/174 31/110/175
f 33/90/176 43/83/177 42/63/178 32/51/179
f 44/79/180 43/64/181 33/52/182 34/86/183
f 34/53/184 25/108/185 35/82/186 44/65/187
f 22/69/188 1/70/189 48/21/190 47/20/191
f 1/70/192 15/71/193 45/9/194 48/21/195
f 7/72/196 21/73/197 50/29/198 49/28/199
f 11/74/200 7/72/201 49/28/202 52/37/203
f 15/71/204 11/74/205 52/37/206 45/9/207
f 21/73/208 8/75/209 53/39/210 50/29/211
f 8/75/212 12/76/213 54/66/214 53/39/215
f 12/76/216 16/77/217 55/67/218 54/66/219
f 16/77/220 2/78/221 56/68/222 55/67/223
f 2/78/224 22/69/225 47/20/226 56/68/227
f 57/119/228 17/31/229 18/32/230
f 58/120/231 57/119/232 18/32/233
f 59/121/234 58/120/235 18/32/236 19/33/237
f 20/34/238 60/122/239 59/121/240 19/33/241
f 5/5/242 60/122/243 20/34/244
