# This file uses meters as units for non-parametric coordinates.

v 1.798340 -28.718330 -3.114624
v -1.798218 -28.718330 -3.114624
v -3.596558 -28.718330 -0.000031
v -1.798218 -28.718330 3.114594
v 1.798340 -28.718330 3.114594
v 3.596558 -28.718330 -0.000031
v 1.266724 39.616318 -2.193878
v -1.266602 39.616318 -2.193878
v -2.533325 39.616318 -0.000031
v -1.266602 39.616318 2.193848
v 1.266724 39.616318 2.193848
v 2.533203 39.616318 -0.000031
v -0.000122 -28.718330 -0.000031
v 14.242188 36.590130 -24.667664
v -14.242310 46.458492 -24.667664
v -27.065186 43.073853 1.650665
v -14.242310 36.590130 24.667633
v 10.619995 42.751621 24.805389
v 24.861694 42.751621 0.137726
v 5.391479 61.943451 -9.337494
v -9.335449 57.328701 -10.745361
v -10.781860 61.943451 -0.000031
v -8.067505 58.725555 10.996124
v 5.391479 61.943451 9.337463
v 12.267700 59.637108 -2.386597
v -0.000122 70.315887 -0.000031
v 0.888184 25.134472 -0.620544
v -2.176636 25.134472 -0.620544
v -3.709106 25.134472 -3.274811
v -2.176636 25.134472 -5.929047
v 0.888184 25.134472 -5.929047
v 2.420532 25.134472 -3.274811
vt 0.123094 0.108677
vt 0.123094 0.108677
vt 0.123094 0.108677
vt 0.123094 0.108677
vt 0.123094 0.108677
vt 0.123094 0.108677
vt 0.123094 0.108677
vt 0.123094 0.108677
vt 0.123094 0.108677
vt 0.123094 0.108677
vt 0.123094 0.108677
vt 0.123094 0.108677
vt 0.123094 0.108677
vt 0.449707 0.282738
vt 0.449707 0.282738
vt 0.449707 0.282738
vt 0.449707 0.282738
vt 0.449707 0.282738
vt 0.449707 0.282738
vt 0.449707 0.282738
vt 0.449707 0.282738
vt 0.065200 0.102704
vt 0.065200 0.102704
vt 0.449707 0.282738
vt 0.449707 0.282738
vt 0.065200 0.102704
vt 0.449707 0.282738
vt 0.065200 0.102704
vt 0.449707 0.282738
vt 0.065200 0.102704
vt 0.449707 0.282738
vt 0.065200 0.102704
vt 0.065200 0.102704
vt 0.065200 0.102704
vt 0.065200 0.102704
vt 0.065200 0.102704
vt 0.065200 0.102704
vt 0.065200 0.102704
vt 0.123094 0.108677
vt 0.123094 0.108677
vt 0.123094 0.108677
vt 0.123094 0.108677
vt 0.123094 0.108677
vt 0.123094 0.108677
vn 0.000000 -0.052190 -0.998637
vn 0.000000 -0.052190 -0.998637
vn 0.000000 0.003302 -0.999995
vn 0.000000 0.005163 -0.999987
vn -0.865570 -0.032200 -0.499752
vn -0.865570 -0.032200 -0.499752
vn -0.865979 0.009501 -0.499990
vn -0.866010 0.004400 -0.500008
vn -0.865666 0.028582 0.499805
vn -0.865666 0.028582 0.499805
vn -0.865927 0.014577 0.499958
vn -0.865898 0.016728 0.499941
vn 0.000000 0.069192 0.997603
vn 0.000000 0.069192 0.997603
vn 0.000000 0.020526 0.999789
vn 0.000000 0.022138 0.999755
vn 0.864986 0.049255 0.499373
vn 0.864986 0.049255 0.499373
vn 0.865854 0.020619 0.499872
vn 0.865919 0.016568 0.499909
vn 0.865979 -0.011492 -0.499949
vn 0.865979 -0.011492 -0.499949
vn 0.866009 0.008109 -0.499963
vn 0.865979 0.011639 -0.499946
vn 0.000000 -1.000000 -0.000000
vn 0.000000 -1.000000 0.000000
vn 0.000000 -1.000000 -0.000000
vn 0.000000 -1.000000 0.000000
vn 0.000000 -1.000000 -0.000000
vn 0.000000 -1.000000 -0.000000
vn 0.000000 -1.000000 0.000000
vn 0.000000 -1.000000 0.000000
vn 0.000000 -1.000000 -0.000000
vn 0.000000 -1.000000 -0.000000
vn 0.000000 -1.000000 0.000000
vn 0.000000 -1.000000 -0.000000
vn 0.000000 -1.000000 -0.000000
vn 0.000000 -1.000000 -0.000000
vn 0.000000 -1.000000 -0.000000
vn 0.000000 -1.000000 0.000000
vn 0.000000 -1.000000 -0.000000
vn 0.000000 -1.000000 -0.000000
vn -0.302190 -0.949831 -0.080638
vn -0.302190 -0.949831 -0.080638
vn -0.302190 -0.949831 -0.080638
vn -0.302190 -0.949831 -0.080638
vn -0.158570 -0.968242 -0.193297
vn -0.158570 -0.968242 -0.193297
vn -0.158570 -0.968242 -0.193297
vn -0.158570 -0.968242 -0.193297
vn -0.126943 -0.975455 -0.179923
vn -0.126943 -0.975455 -0.179923
vn -0.126943 -0.975455 -0.179923
vn -0.126943 -0.975456 -0.179923
vn 0.219287 -0.975456 0.019980
vn 0.219287 -0.975456 0.019980
vn 0.219287 -0.975456 0.019980
vn 0.219287 -0.975456 0.019980
vn 0.138129 -0.987199 0.079747
vn 0.138129 -0.987199 0.079747
vn 0.138129 -0.987199 0.079747
vn 0.138129 -0.987199 0.079747
vn 0.112848 -0.978332 0.173585
vn 0.112848 -0.978332 0.173585
vn 0.112848 -0.978332 0.173585
vn 0.112848 -0.978332 0.173585
vn 0.101839 0.631694 -0.768500
vn 0.101839 0.631694 -0.768500
vn 0.101839 0.631694 -0.768500
vn 0.101839 0.631694 -0.768500
vn -0.715713 0.632317 -0.296531
vn -0.715713 0.632317 -0.296531
vn -0.715713 0.632317 -0.296531
vn -0.715713 0.632317 -0.296531
vn -0.687231 0.552592 0.471545
vn -0.687231 0.552592 0.471545
vn -0.687231 0.552592 0.471545
vn -0.687231 0.552592 0.471545
vn -0.108417 0.574511 0.811284
vn -0.108417 0.574511 0.811284
vn -0.108417 0.574511 0.811284
vn -0.108417 0.574511 0.811284
vn 0.733255 0.556839 0.390214
vn 0.733255 0.556839 0.390214
vn 0.733255 0.556839 0.390214
vn 0.733255 0.556839 0.390214
vn 0.726396 0.508852 -0.461972
vn 0.726396 0.508852 -0.461972
vn 0.726396 0.508852 -0.461972
vn 0.726396 0.508852 -0.461972
vn -0.149245 0.691811 -0.706487
vn -0.149245 0.691811 -0.706487
vn -0.149245 0.691811 -0.706487
vn -0.565124 0.727747 -0.388613
vn -0.565124 0.727747 -0.388613
vn -0.565124 0.727747 -0.388613
vn -0.572848 0.737694 0.357286
vn -0.572848 0.737694 0.357286
vn -0.572848 0.737694 0.357286
vn -0.086023 0.716575 0.692185
vn -0.086023 0.716575 0.692185
vn -0.086023 0.716575 0.692185
vn 0.662932 0.705710 0.249989
vn 0.662932 0.705710 0.249989
vn 0.662932 0.705710 0.249989
vn 0.582528 0.742908 -0.329770
vn 0.582528 0.742908 -0.329770
vn 0.582528 0.742908 -0.329770
vn 0.000000 0.022138 0.999755
vn 0.000000 0.020526 0.999789
vn 0.000000 -0.190771 0.981635
vn 0.000000 -0.190771 0.981635
vn -0.865898 0.016728 0.499941
vn -0.865927 0.014577 0.499958
vn -0.865223 -0.042715 0.499564
vn -0.865223 -0.042715 0.499564
vn -0.866010 0.004400 -0.500008
vn -0.865979 0.009501 -0.499990
vn -0.851808 0.180377 -0.491820
vn -0.851808 0.180377 -0.491820
vn 0.000000 0.005163 -0.999987
vn 0.000000 0.003302 -0.999995
vn 0.000000 0.249748 -0.968311
vn 0.000000 0.249748 -0.968311
vn 0.865979 0.011639 -0.499946
vn 0.866009 0.008109 -0.499963
vn 0.861189 0.105722 -0.497169
vn 0.861189 0.105722 -0.497169
vn 0.865919 0.016568 0.499909
vn 0.865854 0.020619 0.499872
vn 0.859895 -0.118948 0.496420
vn 0.859895 -0.118948 0.496420
s off
f 1/1/1 2/2/2 30/42/3 31/43/4
f 2/2/5 3/5/6 29/41/7 30/42/8
f 3/5/9 4/7/10 28/40/11 29/41/12
f 4/7/13 5/9/14 27/39/15 28/40/16
f 5/9/17 6/11/18 32/44/19 27/39/20
f 6/11/21 1/1/22 31/43/23 32/44/24
f 2/2/25 1/1/26 13/13/27
f 3/5/28 2/2/29 13/13/30
f 4/7/31 3/5/32 13/13/33
f 5/9/34 4/7/35 13/13/36
f 6/11/37 5/9/38 13/13/39
f 1/1/40 6/11/41 13/13/42
f 7/22/43 8/23/44 15/26/45 14/28/46
f 8/23/47 9/30/48 16/32/49 15/26/50
f 9/30/51 10/33/52 17/34/53 16/32/54
f 10/33/55 11/35/56 18/36/57 17/34/58
f 11/35/59 12/37/60 19/38/61 18/36/62
f 12/37/63 7/22/64 14/28/65 19/38/66
f 14/14/67 15/15/68 21/16/69 20/17/70
f 15/15/71 16/18/72 22/19/73 21/16/74
f 16/18/75 17/20/76 23/21/77 22/19/78
f 17/20/79 18/24/80 24/25/81 23/21/82
f 18/24/83 19/27/84 25/29/85 24/25/86
f 19/27/87 14/14/88 20/17/89 25/29/90
f 20/17/91 21/16/92 26/31/93
f 21/16/94 22/19/95 26/31/96
f 22/19/97 23/21/98 26/31/99
f 23/21/100 24/25/101 26/31/102
f 24/25/103 25/29/104 26/31/105
f 25/29/106 20/17/107 26/31/108
f 28/40/109 27/39/110 11/10/111 10/8/112
f 29/41/113 28/40/114 10/8/115 9/6/116
f 30/42/117 29/41/118 9/6/119 8/3/120
f 31/43/121 30/42/122 8/3/123 7/4/124
f 32/44/125 31/43/126 7/4/127 12/12/128
f 27/39/129 32/44/130 12/12/131 11/10/132
