# This file uses meters as units for non-parametric coordinates.

v 7.533295 2.935635 -13.048032
v -7.533295 2.935635 -13.048033
v -15.066589 2.935635 -0.000000
v -7.533295 2.935635 13.048032
v 7.533264 2.935635 13.048033
v 15.066559 2.935635 0.000000
v 7.533295 6.172708 -13.048032
v -7.533295 6.172708 -13.048033
v -15.066589 6.172708 -0.000000
v -7.533295 6.172708 13.048032
v 7.533264 6.172708 13.048033
v 15.066559 6.172708 0.000000
v 5.325414 0.000000 2.567244
v 5.325414 3.237073 2.567244
vt 0.273714 0.154405
vt 0.273714 0.154405
vt 0.273714 0.154405
vt 0.273714 0.154405
vt 0.273714 0.154405
vt 0.273714 0.154405
vt 0.273714 0.154405
vt 0.273714 0.154405
vt 0.273714 0.154405
vt 0.273714 0.154405
vt 0.273714 0.154405
vt 0.273714 0.154405
vt 0.273714 0.154405
vt 0.273714 0.154405
vt 0.273714 0.154405
vt 0.273714 0.154405
vt 0.273714 0.154405
vt 0.273714 0.154405
vt 0.273714 0.154405
vt 0.273714 0.154405
vt 0.273714 0.154405
vt 0.273714 0.154405
vt 0.273714 0.154405
vt 0.273714 0.154405
vt 0.273714 0.154405
vt 0.273714 0.154405
vt 0.273714 0.154405
vt 0.273714 0.154405
vt 0.273714 0.154405
vt 0.273714 0.154405
vt 0.273714 0.154405
vt 0.273714 0.154405
vt 0.273714 0.154405
vt 0.273714 0.154405
vt 0.273714 0.154405
vt 0.273714 0.154405
vn 0.000000 0.000000 -1.000000
vn 0.000000 0.000000 -1.000000
vn 0.000000 0.000000 -1.000000
vn 0.000000 0.000000 -1.000000
vn -0.866025 0.000000 -0.500000
vn -0.866025 0.000000 -0.500000
vn -0.866025 0.000000 -0.500000
vn -0.866025 0.000000 -0.500000
vn -0.866025 0.000000 0.500000
vn -0.866025 0.000000 0.500000
vn -0.866025 0.000000 0.500000
vn -0.866025 0.000000 0.500000
vn -0.000000 0.000000 1.000000
vn -0.000000 0.000000 1.000000
vn -0.000000 0.000000 1.000000
vn -0.000000 0.000000 1.000000
vn 0.866026 0.000000 -0.499999
vn 0.866026 0.000000 -0.499999
vn 0.866026 0.000000 -0.499999
vn 0.866026 0.000000 -0.499999
vn 0.000000 -0.982784 -0.184761
vn 0.000000 -0.982783 -0.184761
vn 0.000000 -0.982784 -0.184761
vn -0.132622 -0.988205 -0.076570
vn -0.132622 -0.988205 -0.076570
vn -0.132622 -0.988205 -0.076570
vn -0.152808 -0.984310 0.088224
vn -0.152808 -0.984310 0.088224
vn -0.152808 -0.984310 0.088224
vn 0.000000 -0.962940 0.269716
vn 0.000000 -0.962940 0.269716
vn 0.000000 -0.962940 0.269716
vn 0.250394 -0.957290 -0.144564
vn 0.250394 -0.957290 -0.144564
vn 0.250394 -0.957290 -0.144564
vn -0.000000 0.982783 0.184761
vn -0.000000 0.982784 0.184761
vn -0.000000 0.982784 0.184761
vn 0.132622 0.988205 0.076570
vn 0.132622 0.988205 0.076570
vn 0.132622 0.988205 0.076570
vn 0.152808 0.984310 -0.088224
vn 0.152808 0.984310 -0.088224
vn 0.152808 0.984310 -0.088224
vn 0.000000 0.962940 -0.269716
vn 0.000000 0.962940 -0.269716
vn 0.000000 0.962940 -0.269716
vn -0.250394 0.957290 0.144564
vn -0.250394 0.957290 0.144564
vn -0.250394 0.957290 0.144564
vn 0.254845 0.000000 0.966982
vn 0.254845 0.000000 0.966982
vn 0.254845 0.000000 0.966982
vn 0.254845 0.000000 0.966982
vn 0.978524 0.000000 -0.206133
vn 0.978524 0.000000 -0.206133
vn 0.978524 0.000000 -0.206133
vn 0.978524 0.000000 -0.206133
s off
f 1/7/1 2/8/2 8/15/3 7/14/4
f 2/8/5 3/9/6 9/16/7 8/15/8
f 3/9/9 4/10/10 10/17/11 9/16/12
f 4/10/13 5/11/14 11/18/15 10/17/16
f 6/12/17 1/13/18 7/20/19 12/19/20
f 2/2/21 1/1/22 13/27/23
f 3/3/24 2/2/25 13/27/26
f 4/4/27 3/3/28 13/27/29
f 5/5/30 4/4/31 13/27/32
f 1/1/33 6/6/34 13/27/35
f 7/25/36 8/24/37 14/28/38
f 8/24/39 9/23/40 14/28/41
f 9/23/42 10/22/43 14/28/44
f 10/22/45 11/21/46 14/28/47
f 12/26/48 7/25/49 14/28/50
f 13/29/51 6/30/52 12/31/53 14/32/54
f 5/33/55 13/34/56 14/35/57 11/36/58
