# This file uses meters as units for non-parametric coordinates.

v 4.186401 9.218009 -5.763367
v -1.101318 10.216205 -2.995392
v -0.338867 9.189729 2.919159
v 5.420044 7.557136 3.806580
v 8.216675 7.574612 -1.559509
v 15.404419 50.511574 -7.059402
v 2.709473 52.908127 -0.413849
v 4.540161 50.443684 13.786285
v 18.366211 46.524025 15.916870
v 25.080811 46.565979 3.033539
v 18.350830 68.976860 7.790497
v 16.832520 5.432877 -9.249176
v -1.660156 5.432877 -16.224670
v -14.975586 5.432877 -5.959778
v -12.889160 5.432877 10.400604
v 3.777100 5.432877 19.942261
v 20.073486 5.432877 6.504639
v 13.238647 11.804273 -6.647339
v -1.203857 11.774515 -11.811478
v -10.925537 11.804273 -4.148438
v -9.295288 11.774515 7.798737
v 3.320679 10.630002 15.529083
v 16.023193 11.774515 4.693298
v 1.877930 5.432877 1.577789
v 1.877930 11.865818 1.577789
v 30.432129 -4.749997 8.152374
v 19.831299 -4.749997 -22.680603
v -7.222168 -4.749997 -28.793030
v -25.809448 -4.749997 -8.924377
v -20.390869 -4.749997 22.289154
v 13.830078 -4.749997 28.849152
v 23.344727 7.172287 6.325317
v 14.705444 7.138789 -17.456299
v -5.260742 7.172287 -21.741714
v -18.722168 7.138789 -7.097321
v -15.264771 5.850410 17.064880
v 11.868774 7.138789 21.797791
v 0.939697 -11.284760 0.549500
v 0.939697 7.241569 0.549500
v 1.653809 11.323397 -3.897064
v -2.244629 9.692789 -5.227600
v -4.656128 8.795218 -1.620911
v -2.247681 9.871094 1.938690
v 1.652222 11.433596 0.531921
v -6.487915 41.304874 -8.047028
v -15.847900 37.389977 -11.241486
v -21.637329 35.235012 -2.582214
v -15.855103 37.818066 5.963959
v -6.492432 41.569443 2.586517
v -18.933838 52.501846 -3.010712
v 3.846924 8.787628 1.365448
v 0.591553 8.138567 0.286804
v -0.903564 5.994352 2.599457
v 1.427612 5.318213 5.107330
v 4.363647 7.044553 4.344696
v -1.729614 30.431709 11.858673
v -9.545044 28.873392 9.269043
v -13.134766 23.725386 14.821320
v -7.537720 22.102060 20.842499
v -0.489136 26.246794 19.011475
v -10.366699 35.573769 21.273438
vt 0.241351 0.902553
vt 0.241351 0.902553
vt 0.241351 0.902553
vt 0.241351 0.902553
vt 0.241351 0.902553
vt 0.241351 0.902553
vt 0.241351 0.902553
vt 0.241351 0.902553
vt 0.241351 0.902553
vt 0.241351 0.902553
vt 0.241351 0.902553
vt 0.241351 0.902553
vt 0.241351 0.902553
vt 0.450928 0.290253
vt 0.450928 0.290253
vt 0.241351 0.902553
vt 0.241351 0.902553
vt 0.241351 0.902553
vt 0.181760 0.110309
vt 0.181760 0.110309
vt 0.181760 0.110309
vt 0.181760 0.110309
vt 0.181760 0.110309
vt 0.181760 0.110309
vt 0.181760 0.110309
vt 0.181760 0.110309
vt 0.181760 0.110309
vt 0.181760 0.110309
vt 0.181760 0.110309
vt 0.181760 0.110309
vt 0.181760 0.110309
vt 0.181760 0.110309
vt 0.181760 0.110309
vt 0.181760 0.110309
vt 0.181760 0.110309
vt 0.181760 0.110309
vt 0.181760 0.110309
vt 0.181760 0.110309
vt 0.181760 0.110309
vt 0.450928 0.290253
vt 0.450928 0.290253
vt 0.450928 0.290253
vt 0.450928 0.290254
vt 0.450928 0.290253
vt 0.450928 0.290254
vt 0.450928 0.290254
vt 0.181760 0.110309
vt 0.181760 0.110309
vt 0.181760 0.110309
vt 0.181760 0.110309
vt 0.181760 0.110309
vt 0.181760 0.110309
vt 0.181760 0.110309
vt 0.181760 0.110309
vt 0.181760 0.110309
vt 0.181760 0.110309
vt 0.181760 0.110309
vt 0.181760 0.110309
vt 0.181760 0.110309
vt 0.181760 0.110309
vt 0.181760 0.110309
vt 0.181760 0.110309
vt 0.181760 0.110309
vt 0.181760 0.110309
vt 0.181760 0.110309
vt 0.181760 0.110309
vt 0.181760 0.110309
vt 0.450928 0.290253
vt 0.450928 0.290254
vt 0.450928 0.290253
vt 0.450928 0.290253
vt 0.450928 0.290253
vt 0.450928 0.290253
vt 0.450928 0.290253
vt 0.241351 0.902553
vt 0.241351 0.902553
vt 0.241351 0.902553
vt 0.241351 0.902553
vt 0.241351 0.902553
vt 0.241351 0.902553
vt 0.241351 0.902553
vt 0.241351 0.902553
vt 0.241351 0.902553
vt 0.241351 0.902553
vt 0.241351 0.902553
vt 0.241351 0.902553
vt 0.450928 0.290253
vt 0.241351 0.902553
vt 0.241351 0.902553
vt 0.241351 0.902553
vt 0.241351 0.902553
vt 0.450928 0.290253
vt 0.241351 0.902553
vt 0.241351 0.902553
vt 0.241351 0.902553
vt 0.241351 0.902553
vt 0.241351 0.902553
vt 0.241351 0.902553
vt 0.241351 0.902553
vt 0.241351 0.902553
vt 0.241351 0.902553
vt 0.241351 0.902553
vt 0.241351 0.902553
vt 0.241351 0.902553
vt 0.450928 0.290253
vt 0.241351 0.902553
vt 0.241351 0.902553
vt 0.241351 0.902553
vt 0.241351 0.902553
vt 0.241351 0.902553
vt 0.450928 0.290253
vt 0.450928 0.290253
vt 0.450928 0.290253
vt 0.450928 0.290253
vt 0.450928 0.290253
vt 0.450928 0.290253
vt 0.450928 0.290253
vt 0.450928 0.290253
vt 0.450928 0.290253
vn -0.447789 0.093740 -0.889212
vn -0.447789 0.093740 -0.889212
vn -0.447789 0.093740 -0.889212
vn -0.447789 0.093740 -0.889212
vn -0.986805 0.079558 0.141023
vn -0.986805 0.079558 0.141023
vn -0.986805 0.079558 0.141023
vn -0.986805 0.079558 0.141023
vn -0.210549 -0.225660 0.951182
vn -0.210549 -0.225660 0.951182
vn -0.210549 -0.225660 0.951182
vn -0.210549 -0.225660 0.951182
vn 0.812790 -0.401285 0.422306
vn 0.812790 -0.401285 0.422306
vn 0.812790 -0.401285 0.422306
vn 0.812790 -0.401285 0.422306
vn 0.665813 -0.203409 -0.717856
vn 0.665813 -0.203409 -0.717856
vn 0.665813 -0.203409 -0.717856
vn 0.665813 -0.203409 -0.717856
vn -0.263640 0.629717 -0.730719
vn -0.263640 0.629717 -0.730719
vn -0.263640 0.629717 -0.730719
vn -0.751661 0.626665 0.205662
vn -0.751661 0.626665 0.205662
vn -0.751661 0.626665 0.205662
vn -0.048373 0.339899 0.939217
vn -0.048373 0.339899 0.939217
vn -0.048373 0.339899 0.939217
vn 0.874303 0.165717 0.456215
vn 0.874303 0.165717 0.456215
vn 0.874303 0.165717 0.456215
vn 0.741259 0.344835 -0.575868
vn 0.741259 0.344835 -0.575868
vn 0.741259 0.344835 -0.575868
vn 0.295748 0.516434 -0.803635
vn 0.295748 0.516434 -0.803635
vn 0.295748 0.516434 -0.803635
vn 0.295748 0.516434 -0.803635
vn -0.525262 0.517084 -0.675814
vn -0.525262 0.517084 -0.675814
vn -0.525262 0.517084 -0.675814
vn -0.525262 0.517084 -0.675814
vn -0.848537 0.517156 0.111956
vn -0.848537 0.517156 0.111956
vn -0.848537 0.517156 0.111957
vn -0.848537 0.517156 0.111956
vn -0.407249 0.552751 0.727059
vn -0.407249 0.552751 0.727059
vn -0.407249 0.552751 0.727059
vn -0.407249 0.552751 0.727059
vn 0.521475 0.553824 0.649110
vn 0.521475 0.553824 0.649110
vn 0.521475 0.553824 0.649109
vn 0.521475 0.553824 0.649110
vn 0.836986 0.514798 -0.185573
vn 0.836986 0.514798 -0.185573
vn 0.836986 0.514798 -0.185573
vn 0.836986 0.514798 -0.185573
vn 0.000000 -1.000000 0.000000
vn 0.000000 -1.000000 0.000000
vn 0.000000 -1.000000 0.000000
vn 0.000000 -1.000000 0.000000
vn 0.000000 -1.000000 0.000000
vn 0.000000 -1.000000 0.000000
vn 0.000000 -1.000000 -0.000000
vn 0.000000 -1.000000 -0.000000
vn 0.000000 -1.000000 -0.000000
vn 0.000000 -1.000000 0.000000
vn 0.000000 -1.000000 0.000000
vn 0.000000 -1.000000 0.000000
vn 0.000000 -1.000000 -0.000000
vn 0.000000 -1.000000 -0.000000
vn 0.000000 -1.000000 -0.000000
vn 0.000000 -1.000000 0.000000
vn 0.000000 -1.000000 0.000000
vn 0.000000 -1.000000 0.000000
vn 0.000412 0.999976 -0.006914
vn 0.000412 0.999976 -0.006914
vn 0.000412 0.999976 -0.006914
vn -0.001959 0.999978 -0.006368
vn -0.001959 0.999978 -0.006368
vn -0.001959 0.999978 -0.006368
vn -0.006306 0.999975 0.003351
vn -0.006306 0.999975 0.003351
vn -0.006306 0.999974 0.003351
vn 0.038740 0.995696 0.084193
vn 0.038740 0.995696 0.084193
vn 0.038740 0.995696 0.084193
vn -0.013305 0.995890 0.089592
vn -0.013305 0.995890 0.089592
vn -0.013305 0.995890 0.089592
vn 0.006213 0.999980 0.001098
vn 0.006213 0.999980 0.001098
vn 0.006213 0.999980 0.001098
vn 0.832873 0.469109 -0.293699
vn 0.832873 0.469109 -0.293699
vn 0.832873 0.469109 -0.293699
vn 0.832873 0.469109 -0.293699
vn 0.190937 0.469730 -0.861915
vn 0.190937 0.469730 -0.861915
vn 0.190937 0.469730 -0.861915
vn 0.190937 0.469730 -0.861915
vn -0.647108 0.469802 -0.600448
vn -0.647108 0.469802 -0.600448
vn -0.647108 0.469802 -0.600448
vn -0.647108 0.469802 -0.600448
vn -0.859325 0.489207 0.149121
vn -0.859325 0.489207 0.149121
vn -0.859325 0.489207 0.149121
vn -0.859325 0.489207 0.149121
vn -0.167707 0.490409 0.855204
vn -0.167707 0.490409 0.855204
vn -0.167707 0.490409 0.855204
vn -0.167707 0.490409 0.855204
vn 0.698072 0.467505 0.542342
vn 0.698072 0.467504 0.542342
vn 0.698072 0.467505 0.542342
vn 0.698072 0.467504 0.542342
vn 0.235465 -0.968505 -0.080956
vn 0.235465 -0.968505 -0.080956
vn 0.235465 -0.968505 -0.080956
vn 0.052166 -0.971581 -0.230887
vn 0.052166 -0.971581 -0.230887
vn 0.052166 -0.971581 -0.230887
vn -0.177966 -0.969850 -0.166489
vn -0.177966 -0.969850 -0.166489
vn -0.177966 -0.969850 -0.166489
vn -0.251667 -0.966827 0.043689
vn -0.251667 -0.966827 0.043689
vn -0.251667 -0.966827 0.043689
vn -0.046966 -0.968383 0.245006
vn -0.046966 -0.968383 0.245006
vn -0.046966 -0.968383 0.245006
vn 0.178722 -0.973399 0.143363
vn 0.178722 -0.973399 0.143363
vn 0.178722 -0.973399 0.143363
vn 0.003812 0.999989 -0.002793
vn 0.003812 0.999989 -0.002793
vn 0.003812 0.999989 -0.002793
vn 0.002494 0.999990 -0.003802
vn 0.002494 0.999990 -0.003802
vn 0.002494 0.999990 -0.003802
vn -0.004506 0.999988 -0.001855
vn -0.004506 0.999988 -0.001855
vn -0.004506 0.999988 -0.001855
vn -0.027440 0.997989 0.057141
vn -0.027440 0.997989 0.057141
vn -0.027440 0.997989 0.057141
vn -0.052988 0.998080 0.032082
vn -0.052988 0.998080 0.032082
vn -0.052988 0.998080 0.032082
vn 0.002127 0.999991 0.003743
vn 0.002127 0.999991 0.003743
vn 0.002127 0.999991 0.003743
vn 0.337193 -0.038633 -0.940643
vn 0.337193 -0.038633 -0.940643
vn 0.337193 -0.038633 -0.940643
vn 0.337193 -0.038633 -0.940643
vn -0.681779 -0.458606 -0.569964
vn -0.681779 -0.458606 -0.569964
vn -0.681779 -0.458606 -0.569964
vn -0.681779 -0.458606 -0.569964
vn -0.687612 -0.420097 0.592206
vn -0.687612 -0.420097 0.592206
vn -0.687612 -0.420097 0.592206
vn -0.687612 -0.420097 0.592206
vn 0.330359 0.024957 0.943526
vn 0.330359 0.024957 0.943525
vn 0.330359 0.024957 0.943526
vn 0.330359 0.024957 0.943525
vn 0.965243 0.261282 -0.006110
vn 0.965243 0.261282 -0.006110
vn 0.965243 0.261282 -0.006110
vn 0.965243 0.261282 -0.006110
vn 0.090613 0.490552 -0.866688
vn 0.090613 0.490552 -0.866688
vn 0.090613 0.490552 -0.866688
vn -0.838826 0.118149 -0.531424
vn -0.838827 0.118149 -0.531424
vn -0.838827 0.118149 -0.531424
vn -0.839269 0.144413 0.524187
vn -0.839269 0.144413 0.524187
vn -0.839269 0.144413 0.524187
vn 0.089907 0.533046 0.841296
vn 0.089907 0.533046 0.841296
vn 0.089907 0.533047 0.841296
vn 0.664605 0.746970 -0.018299
vn 0.664605 0.746970 -0.018299
vn 0.664605 0.746970 -0.018299
vn 0.192547 0.467805 -0.862603
vn 0.192547 0.467805 -0.862603
vn 0.192547 0.467805 -0.862603
vn 0.192547 0.467805 -0.862603
vn -0.781380 -0.116399 -0.613105
vn -0.781380 -0.116399 -0.613105
vn -0.781380 -0.116399 -0.613105
vn -0.781380 -0.116399 -0.613104
vn -0.614046 -0.688981 0.385036
vn -0.614046 -0.688981 0.385036
vn -0.614046 -0.688981 0.385036
vn -0.614046 -0.688981 0.385036
vn 0.466497 -0.459430 0.755846
vn 0.466497 -0.459430 0.755846
vn 0.466497 -0.459430 0.755846
vn 0.466497 -0.459430 0.755846
vn 0.966203 0.257218 -0.017075
vn 0.966203 0.257218 -0.017075
vn 0.966203 0.257217 -0.017075
vn 0.966203 0.257217 -0.017075
vn -0.012327 0.872764 -0.487986
vn -0.012327 0.872764 -0.487986
vn -0.012327 0.872764 -0.487986
vn -0.900541 0.350485 -0.257268
vn -0.900541 0.350485 -0.257268
vn -0.900541 0.350485 -0.257268
vn -0.744210 -0.176882 0.644099
vn -0.744210 -0.176882 0.644099
vn -0.744210 -0.176882 0.644100
vn 0.240632 0.019490 0.970421
vn 0.240632 0.019490 0.970421
vn 0.240632 0.019490 0.970421
vn 0.692961 0.668197 0.270773
vn 0.692961 0.668197 0.270773
vn 0.692961 0.668197 0.270773
s off
f 1/1/1 2/2/2 7/8/3 6/7/4
f 2/2/5 3/3/6 8/9/7 7/8/8
f 3/3/9 4/4/10 9/10/11 8/9/12
f 4/4/13 5/5/14 10/11/15 9/10/16
f 5/5/17 1/6/18 6/12/19 10/11/20
f 6/14/21 7/15/22 11/40/23
f 7/15/24 8/41/25 11/40/26
f 8/41/27 9/42/28 11/40/29
f 9/13/30 10/17/31 11/18/32
f 10/17/33 6/16/34 11/18/35
f 12/19/36 13/20/37 19/21/38 18/22/39
f 13/20/40 14/23/41 20/24/42 19/21/43
f 14/23/44 15/25/45 21/26/46 20/24/47
f 15/25/48 16/27/49 22/28/50 21/26/51
f 16/27/52 17/29/53 23/30/54 22/28/55
f 17/29/56 12/31/57 18/32/58 23/30/59
f 13/33/60 12/34/61 24/35/62
f 14/36/63 13/33/64 24/35/65
f 15/37/66 14/36/67 24/35/68
f 16/38/69 15/37/70 24/35/71
f 17/39/72 16/38/73 24/35/74
f 12/34/75 17/39/76 24/35/77
f 18/43/78 19/44/79 25/45/80
f 19/44/81 20/46/82 25/45/83
f 20/46/84 21/68/85 25/45/86
f 21/68/87 22/69/88 25/45/89
f 22/69/90 23/70/91 25/45/92
f 23/70/93 18/43/94 25/45/95
f 26/47/96 27/48/97 33/49/98 32/50/99
f 27/48/100 28/51/101 34/52/102 33/49/103
f 28/51/104 29/53/105 35/54/106 34/52/107
f 29/53/108 30/55/109 36/56/110 35/54/111
f 30/55/112 31/57/113 37/58/114 36/56/115
f 31/57/116 26/59/117 32/60/118 37/58/119
f 27/61/120 26/62/121 38/63/122
f 28/64/123 27/61/124 38/63/125
f 29/65/126 28/64/127 38/63/128
f 30/66/129 29/65/130 38/63/131
f 31/67/132 30/66/133 38/63/134
f 26/62/135 31/67/136 38/63/137
f 32/71/138 33/72/139 39/73/140
f 33/72/141 34/74/142 39/73/143
f 34/74/144 35/87/145 39/73/146
f 35/87/147 36/92/148 39/73/149
f 36/92/150 37/105/151 39/73/152
f 37/105/153 32/71/154 39/73/155
f 40/75/156 41/76/157 46/77/158 45/78/159
f 41/76/160 42/79/161 47/80/162 46/77/163
f 42/79/164 43/81/165 48/82/166 47/80/167
f 43/81/168 44/83/169 49/84/170 48/82/171
f 44/83/172 40/85/173 45/86/174 49/84/175
f 45/111/176 46/112/177 50/113/178
f 46/88/179 47/90/180 50/89/181
f 47/90/182 48/91/183 50/89/184
f 48/114/185 49/115/186 50/113/187
f 49/115/188 45/111/189 50/113/190
f 51/93/191 52/94/192 57/95/193 56/96/194
f 52/94/195 53/97/196 58/98/197 57/95/198
f 53/97/199 54/99/200 59/100/201 58/98/202
f 54/99/203 55/101/204 60/102/205 59/100/206
f 55/101/207 51/103/208 56/104/209 60/102/210
f 56/116/211 57/117/212 61/118/213
f 57/106/214 58/108/215 61/107/216
f 58/108/217 59/109/218 61/107/219
f 59/109/220 60/110/221 61/107/222
f 60/119/223 56/116/224 61/118/225
