# This file uses meters as units for non-parametric coordinates.

v -20.818840 0.000000 23.012096
v 24.561058 0.000000 30.678558
v -25.255074 55.451462 28.165623
v 28.638077 55.451462 35.682484
v -25.543343 57.404922 -35.682423
v 27.107872 57.404922 -35.656864
v -20.818840 0.000000 -29.653801
v 22.416939 0.000000 -29.653801
v 48.653664 55.451462 -17.150116
v -49.616875 57.404922 -12.661362
v -41.906227 0.000000 -11.212414
v 41.154991 0.000000 -15.479660
v 49.616875 57.404922 16.714348
v -44.020714 57.404922 13.049885
v -36.719002 0.000000 10.619225
v 42.906189 0.000000 14.145344
v 4.826988 57.404922 25.046791
v 28.242744 59.387943 18.510502
v 26.291405 59.387943 -11.901855
v 8.272423 55.451462 -27.075447
v 9.453331 0.000000 -22.384010
v 4.190315 0.000000 20.643299
v -28.114311 59.187469 -10.447311
v -29.315819 58.936951 10.758080
v 4.169083 37.770859 20.623268
v -21.273552 41.282310 23.488804
v -36.745445 37.770859 10.630547
v -42.447151 32.214073 -11.339062
v -21.430077 30.619196 -30.484138
v 8.634056 37.770859 -22.884621
v 22.926460 41.282310 -30.363716
v 41.923904 37.770859 -15.736897
v 42.876183 29.658415 14.145214
v 24.660622 31.253288 30.797390
v 3.983307 30.989981 19.943367
v -19.969429 32.776260 22.321255
v -34.865822 30.989981 10.313286
v -39.690651 23.708015 -10.299427
v -19.969429 23.708015 -28.161110
v 7.084145 30.989981 -21.533585
v 21.472931 32.776260 -28.161110
v 38.887787 30.989981 -14.037830
v 40.441895 22.747236 13.539505
v 23.337303 22.002766 29.110531
v 1.474762 57.532909 18.738873
v -3.453575 58.063526 12.155914
v -8.356857 58.419285 -9.966915
v -19.204079 57.073402 -22.891487
vt 0.648751 0.404876
vt 0.648751 0.404876
vt 0.648751 0.404876
vt 0.657133 0.364366
vt 0.657459 0.409161
vt 0.657459 0.409161
vt 0.657133 0.364366
vt 0.657133 0.364366
vt 0.648751 0.404876
vt 0.648751 0.404876
vt 0.648751 0.404876
vt 0.648751 0.404876
vt 0.657459 0.409161
vt 0.657133 0.364366
vt 0.657133 0.364366
vt 0.657459 0.409161
vt 0.648751 0.404876
vt 0.657133 0.364366
vt 0.657459 0.409161
vt 0.648751 0.404876
vt 0.657133 0.364366
vt 0.657459 0.409161
vt 0.657133 0.364366
vt 0.648751 0.404876
vt 0.657459 0.409161
vt 0.657459 0.409161
vt 0.657459 0.409161
vt 0.657459 0.409161
vt 0.648751 0.404876
vt 0.657133 0.364366
vt 0.657459 0.409161
vt 0.657459 0.409161
vt 0.657133 0.364367
vt 0.657133 0.364366
vt 0.648751 0.404876
vt 0.648751 0.404876
vt 0.648751 0.404876
vt 0.648751 0.404876
vt 0.648751 0.404877
vt 0.648751 0.404876
vt 0.648751 0.404876
vt 0.648751 0.404876
vt 0.648751 0.404876
vt 0.648751 0.404876
vt 0.648751 0.404877
vt 0.648751 0.404876
vt 0.648751 0.404876
vt 0.657133 0.364366
vt 0.648751 0.404876
vt 0.657133 0.364366
vt 0.657133 0.364367
vt 0.648751 0.404876
vt 0.657459 0.409161
vt 0.657459 0.409161
vt 0.657459 0.409161
vt 0.657459 0.409161
vt 0.657459 0.409161
vt 0.657459 0.409161
vt 0.657459 0.409161
vt 0.657459 0.409161
vt 0.657459 0.409161
vt 0.657459 0.409161
vt 0.657459 0.409161
vt 0.657459 0.409161
vt 0.657459 0.409161
vt 0.657459 0.409161
vt 0.657459 0.409161
vt 0.657459 0.409161
vt 0.657459 0.409161
vt 0.657459 0.409161
vt 0.657459 0.409161
vt 0.657459 0.409161
vt 0.657459 0.409161
vt 0.657459 0.409161
vt 0.657459 0.409161
vt 0.657459 0.409161
vt 0.657459 0.409161
vt 0.657459 0.409161
vt 0.657459 0.409161
vt 0.657459 0.409161
vt 0.657459 0.409161
vt 0.657459 0.409161
vt 0.657459 0.409161
vt 0.657459 0.409161
vt 0.657459 0.409161
vt 0.657459 0.409161
vt 0.657459 0.409161
vt 0.657459 0.409161
vt 0.657459 0.409161
vt 0.657459 0.409161
vt 0.657459 0.409161
vt 0.657459 0.409161
vt 0.657459 0.409161
vt 0.657459 0.409161
vt 0.657459 0.409161
vt 0.657459 0.409161
vt 0.657459 0.409161
vt 0.657459 0.409161
vt 0.657459 0.409161
vt 0.657459 0.409161
vt 0.657133 0.364366
vt 0.648751 0.404876
vt 0.657133 0.364366
vt 0.657133 0.364366
vt 0.657133 0.364366
vt 0.648751 0.404876
vt 0.648751 0.404877
vt 0.657133 0.364367
vt 0.657133 0.364366
vt 0.648751 0.404876
vt 0.648751 0.404876
vt 0.657133 0.364366
vt 0.657133 0.364366
vt 0.648751 0.404876
vt 0.648751 0.404876
vt 0.657133 0.364366
vt 0.657133 0.364366
vt 0.648751 0.404876
vt 0.657133 0.364366
vt 0.648751 0.404876
vt 0.657133 0.364366
vt 0.648751 0.404876
vt 0.657133 0.364366
vt 0.648751 0.404876
vt 0.657133 0.364366
vt 0.648751 0.404876
vt 0.648751 0.404877
vt 0.657133 0.364367
vt 0.648751 0.404876
vt 0.657133 0.364366
vt 0.657133 0.364367
vt 0.657133 0.364367
vt 0.657133 0.364366
vt 0.657133 0.364366
vt 0.657133 0.364366
vt 0.657133 0.364366
vt 0.657133 0.364367
vt 0.657133 0.364367
vt 0.657133 0.364366
vt 0.657133 0.364366
vn 0.097222 0.020723 0.995047
vn 0.097222 0.020723 0.995047
vn 0.097222 0.020723 0.995047
vn 0.097222 0.020723 0.995047
vn 0.002414 0.986420 0.164226
vn 0.002414 0.986420 0.164226
vn 0.002414 0.986420 0.164226
vn 0.002414 0.986420 0.164226
vn 0.229565 0.048021 -0.972108
vn 0.229565 0.048021 -0.972108
vn 0.229565 0.048021 -0.972108
vn 0.229565 0.048021 -0.972108
vn 0.667437 0.090910 0.739096
vn 0.667437 0.090910 0.739096
vn 0.667437 0.090910 0.739096
vn 0.667437 0.090910 0.739096
vn -0.621931 0.038585 0.782121
vn -0.621931 0.038585 0.782121
vn -0.621931 0.038585 0.782121
vn -0.621931 0.038585 0.782121
vn -0.662495 0.080608 -0.744717
vn -0.662495 0.080608 -0.744717
vn -0.662495 0.080608 -0.744717
vn -0.662495 0.080608 -0.744717
vn 0.617024 0.067156 -0.784074
vn 0.617024 0.067156 -0.784074
vn 0.617024 0.067156 -0.784074
vn 0.617024 0.067156 -0.784074
vn 0.035509 0.999309 0.010949
vn 0.035509 0.999309 0.010949
vn 0.035509 0.999309 0.010949
vn 0.035509 0.999309 0.010949
vn -0.973518 0.070001 0.217630
vn -0.973518 0.070001 0.217630
vn -0.973518 0.070001 0.217630
vn -0.973518 0.070001 0.217630
vn 0.995086 0.088313 -0.044773
vn 0.995086 0.088313 -0.044773
vn 0.995086 0.088313 -0.044773
vn 0.995086 0.088313 -0.044773
vn 0.108415 0.969512 0.219754
vn 0.108415 0.969512 0.219754
vn 0.108415 0.969513 0.219754
vn 0.128349 0.991078 -0.035940
vn 0.128349 0.991078 -0.035940
vn 0.128349 0.991078 -0.035940
vn 0.128349 0.991078 -0.035940
vn -0.141986 0.986021 -0.087191
vn -0.141986 0.986021 -0.087191
vn -0.141986 0.986021 -0.087191
vn -0.453428 0.009190 -0.891246
vn -0.453428 0.009190 -0.891246
vn -0.453428 0.009190 -0.891246
vn -0.453428 0.009190 -0.891246
vn -0.430090 0.027008 0.902382
vn -0.430090 0.027008 0.902382
vn -0.430090 0.027008 0.902382
vn -0.430090 0.027008 0.902382
vn -0.020039 0.974421 0.223836
vn -0.020039 0.974421 0.223836
vn -0.020039 0.974421 0.223836
vn -0.059368 0.996893 0.051777
vn -0.059368 0.996893 0.051777
vn -0.059368 0.996893 0.051777
vn 0.041833 0.989527 -0.138152
vn 0.041833 0.989527 -0.138152
vn 0.041833 0.989527 -0.138152
vn 0.155326 0.984867 -0.076876
vn 0.155326 0.984868 -0.076876
vn 0.155326 0.984867 -0.076876
vn -0.074406 0.994188 -0.077808
vn -0.074406 0.994188 -0.077808
vn -0.074406 0.994188 -0.077808
vn -0.091125 0.995743 0.013853
vn -0.091125 0.995743 0.013853
vn -0.091125 0.995743 0.013853
vn -0.091125 0.995743 0.013853
vn -0.068659 0.975019 0.211244
vn -0.068659 0.975019 0.211244
vn -0.068659 0.975019 0.211244
vn 0.159306 0.985784 -0.053403
vn 0.159306 0.985784 -0.053403
vn 0.159306 0.985784 -0.053403
vn 0.096827 -0.249850 0.963431
vn 0.096827 -0.249850 0.963431
vn 0.096827 -0.249850 0.963431
vn 0.096827 -0.249850 0.963431
vn -0.583536 -0.348323 0.733592
vn -0.583536 -0.348323 0.733592
vn -0.583536 -0.348323 0.733592
vn -0.583536 -0.348323 0.733592
vn -0.919011 -0.302346 0.252993
vn -0.919011 -0.302346 0.252993
vn -0.919011 -0.302346 0.252993
vn -0.919011 -0.302346 0.252993
vn -0.668508 -0.233692 -0.706034
vn -0.668508 -0.233692 -0.706034
vn -0.668508 -0.233692 -0.706034
vn -0.668508 -0.233692 -0.706034
vn 0.255475 -0.175060 -0.950835
vn 0.255475 -0.175060 -0.950835
vn 0.255475 -0.175060 -0.950835
vn 0.255475 -0.175060 -0.950835
vn -0.399259 -0.205567 -0.893496
vn -0.399259 -0.205567 -0.893496
vn -0.399259 -0.205567 -0.893496
vn -0.399259 -0.205566 -0.893496
vn 0.569395 -0.332913 -0.751638
vn 0.569395 -0.332913 -0.751638
vn 0.569395 -0.332913 -0.751638
vn 0.569395 -0.332913 -0.751638
vn 0.957617 -0.282534 -0.056072
vn 0.957617 -0.282534 -0.056072
vn 0.957617 -0.282534 -0.056072
vn 0.957617 -0.282534 -0.056072
vn 0.654422 -0.238023 0.717689
vn 0.654422 -0.238023 0.717689
vn 0.654422 -0.238023 0.717689
vn 0.654422 -0.238023 0.717689
vn -0.442883 -0.141194 0.885392
vn -0.442883 -0.141194 0.885392
vn -0.442883 -0.141194 0.885392
vn -0.442883 -0.141194 0.885392
vn 0.092920 -0.112757 0.989268
vn 0.092920 -0.112757 0.989268
vn 0.092920 -0.112757 0.989268
vn 0.092920 -0.112757 0.989268
vn -0.599581 -0.200137 0.774886
vn -0.599581 -0.200137 0.774886
vn -0.599581 -0.200137 0.774886
vn -0.599581 -0.200137 0.774886
vn -0.915111 -0.263091 0.305542
vn -0.915111 -0.263091 0.305542
vn -0.915111 -0.263091 0.305542
vn -0.915111 -0.263091 0.305542
vn -0.642431 -0.326904 -0.693121
vn -0.642431 -0.326904 -0.693121
vn -0.642431 -0.326904 -0.693121
vn -0.642431 -0.326904 -0.693121
vn 0.292965 -0.249577 -0.922975
vn 0.292965 -0.249577 -0.922975
vn 0.292965 -0.249577 -0.922975
vn 0.292965 -0.249577 -0.922975
vn -0.418842 -0.126734 -0.899172
vn -0.418842 -0.126734 -0.899172
vn -0.418842 -0.126734 -0.899172
vn -0.418842 -0.126734 -0.899172
vn 0.547211 -0.354259 -0.758327
vn 0.547211 -0.354259 -0.758328
vn 0.547211 -0.354259 -0.758328
vn 0.547211 -0.354259 -0.758328
vn 0.914402 -0.377088 -0.147220
vn 0.914402 -0.377088 -0.147220
vn 0.914402 -0.377088 -0.147220
vn 0.914402 -0.377088 -0.147220
vn 0.648782 -0.252664 0.717804
vn 0.648782 -0.252664 0.717804
vn 0.648782 -0.252664 0.717804
vn 0.648782 -0.252664 0.717804
vn -0.462161 -0.086787 0.882539
vn -0.462161 -0.086787 0.882539
vn -0.462161 -0.086787 0.882539
vn -0.462161 -0.086787 0.882539
vn -0.068543 0.996039 0.056636
vn -0.068543 0.996039 0.056636
vn -0.068543 0.996039 0.056636
vn -0.067440 0.989189 0.130222
vn -0.067440 0.989189 0.130222
vn -0.067440 0.989189 0.130222
vn -0.035297 0.999312 0.011373
vn -0.035297 0.999312 0.011373
vn -0.035297 0.999312 0.011373
vn -0.035297 0.999312 0.011373
vn -0.007150 0.984067 -0.177656
vn -0.007150 0.984067 -0.177656
vn -0.007150 0.984067 -0.177656
vn -0.007150 0.984067 -0.177656
vn 0.058457 0.998285 -0.003098
vn 0.058457 0.998285 -0.003098
vn 0.058457 0.998285 -0.003098
s off
f 1/1/1 22/2/2 35/3/3 36/126/4
f 3/65/5 45/83/6 46/87/7 24/32/8
f 39/120/9 40/118/10 21/9/11 7/10/12
f 2/11/13 16/12/14 43/106/15 44/102/16
f 15/17/17 1/1/18 36/126/19 37/124/20
f 7/10/21 11/20/22 38/122/23 39/120/24
f 42/110/25 12/24/26 8/29/27 41/114/28
f 23/80/29 24/74/30 46/86/31 47/90/32
f 11/20/33 15/17/34 37/124/35 38/122/36
f 43/106/37 16/12/38 12/24/39 42/110/40
f 18/71/41 4/55/42 13/19/43
f 19/61/44 18/72/45 13/54/46 9/13/47
f 20/68/48 19/58/49 6/6/50
f 21/9/51 40/118/52 41/114/53 8/29/54
f 44/102/55 35/3/56 22/2/57 2/11/58
f 17/82/59 4/56/60 18/70/61
f 3/64/62 17/81/63 45/84/64
f 47/89/65 48/95/66 23/31/67
f 6/57/68 19/27/69 9/53/70
f 10/62/71 23/78/72 5/93/73
f 14/63/74 24/75/75 23/79/76 10/16/77
f 3/66/78 24/76/79 14/22/80
f 5/5/81 23/77/82 48/94/83
f 26/127/84 25/129/85 17/35/86 3/36/87
f 27/37/88 26/127/89 3/36/90 14/38/91
f 28/39/92 27/37/93 14/38/94 10/40/95
f 29/41/96 28/39/97 10/40/98 5/42/99
f 5/42/100 20/43/101 30/44/102 29/41/103
f 31/45/104 30/44/105 20/43/106 6/46/107
f 9/47/108 32/115/109 31/45/110 6/46/111
f 13/49/112 33/111/113 32/115/114 9/47/115
f 34/107/116 33/111/117 13/49/118 4/52/119
f 17/35/120 25/129/121 34/107/122 4/52/123
f 36/125/124 35/103/125 25/34/126 26/128/127
f 37/123/128 36/4/129 26/33/130 27/139/131
f 38/121/132 37/18/133 27/140/134 28/137/135
f 39/119/136 38/21/137 28/138/138 29/135/139
f 29/136/140 30/133/141 40/117/142 39/7/143
f 41/113/144 40/8/145 30/134/146 31/131/147
f 32/116/148 42/109/149 41/30/150 31/132/151
f 33/112/152 43/105/153 42/23/154 32/48/155
f 44/101/156 43/14/157 33/50/158 34/108/159
f 34/51/160 25/130/161 35/104/162 44/15/163
f 45/85/164 17/25/165 18/69/166
f 46/88/167 45/97/168 18/26/169
f 47/91/170 46/98/171 18/73/172 19/60/173
f 20/67/174 48/96/175 47/99/176 19/59/177
f 5/92/178 48/100/179 20/28/180
