# This file uses meters as units for non-parametric coordinates.

v -25.102783 23.260553 30.578064
v 25.102783 17.945620 30.578064
v -28.675903 74.296654 34.930634
v 28.675903 74.296654 34.930634
v -28.675903 77.812225 -34.930573
v 28.675903 77.812225 -34.930573
v -25.102783 17.945620 -30.578033
v 25.102783 17.945620 -30.578033
v 48.229004 74.296654 -8.952789
v -48.394653 77.812225 -12.290070
v -42.602783 17.945620 -11.461334
v 42.436768 23.260553 -8.124054
v 42.073608 77.812225 17.358368
v -49.357910 77.812225 18.292328
v -43.566040 23.758249 16.187317
v 36.831177 17.945620 15.195374
v 4.498779 77.812225 31.788391
v 26.963989 81.380989 14.893463
v 26.963989 81.380989 -8.651154
v -1.071655 74.296654 -27.291779
v 0.712036 23.260553 -23.445343
v 3.937988 17.945620 27.827362
v -30.654419 81.020187 -7.138214
v -32.203125 80.569344 15.437805
v 3.968018 44.254032 28.037292
v -25.291748 50.518898 30.808746
v -43.872925 44.254032 16.298920
v -42.909790 50.518898 -11.505280
v -25.291748 47.673443 -30.808624
v -0.265503 44.254032 -23.887726
v 25.291992 50.518898 -30.808624
v 42.743896 44.254032 -8.167999
v 37.108887 47.673443 15.310028
v 25.291992 50.518898 30.808746
v 4.221069 36.571766 29.825836
v -26.905273 39.991177 32.774170
v -46.488281 36.571766 17.249420
v -45.525269 39.991177 -11.879425
v -26.905273 39.991177 -32.774078
v -1.071167 36.571766 -25.624664
v 26.905273 39.991177 -32.774078
v 45.359253 36.571766 -8.542267
v 39.475952 39.991177 16.286682
v 26.905273 38.566067 32.774170
v -66.255371 0.000000 24.079529
v -19.877319 0.000000 24.079529
v 6.412231 0.000000 45.311035
v -40.874268 0.000000 49.790039
v -40.874268 0.000000 -49.789825
v -20.399170 0.000000 -44.001740
v -19.877319 0.000000 -9.480743
v -66.255371 0.000000 -9.480743
v 40.874512 0.000000 -49.789825
v 66.255249 0.000000 -9.480743
v 59.971558 0.000000 24.742432
v 40.874512 0.000000 49.790039
v 0.744141 78.042549 24.335815
v -4.549927 78.997482 16.943848
v -9.689575 79.637733 -6.607269
v -21.406616 77.215607 -20.566925
vt 0.918201 0.323636
vt 0.918201 0.323636
vt 0.918201 0.323636
vt 0.918201 0.323636
vt 0.918201 0.323636
vt 0.918201 0.323636
vt 0.918201 0.323636
vt 0.918201 0.323636
vt 0.896333 0.322860
vt 0.896333 0.322860
vt 0.918201 0.323636
vt 0.918201 0.323636
vt 0.918201 0.323636
vt 0.918201 0.323636
vt 0.450928 0.282738
vt 0.918201 0.323636
vt 0.918201 0.323636
vt 0.450928 0.282738
vt 0.918201 0.323636
vt 0.896333 0.322860
vt 0.896333 0.322860
vt 0.918201 0.323636
vt 0.450928 0.282738
vt 0.918201 0.323636
vt 0.918201 0.323636
vt 0.450928 0.282738
vt 0.918201 0.323636
vt 0.896333 0.322860
vt 0.896333 0.322860
vt 0.918201 0.323636
vt 0.918201 0.323636
vt 0.450928 0.282738
vt 0.450928 0.282738
vt 0.918201 0.323636
vt 0.918201 0.323636
vt 0.896333 0.322860
vt 0.896333 0.322860
vt 0.918201 0.323636
vt 0.896333 0.322860
vt 0.450928 0.282738
vt 0.450928 0.282738
vt 0.450928 0.282738
vt 0.450928 0.282738
vt 0.918201 0.323636
vt 0.918201 0.323636
vt 0.918201 0.323636
vt 0.918201 0.323636
vt 0.918201 0.323636
vt 0.918201 0.323636
vt 0.918201 0.323636
vt 0.450928 0.282738
vt 0.450928 0.282738
vt 0.450928 0.282738
vt 0.918201 0.323636
vt 0.450928 0.282738
vt 0.450928 0.282738
vt 0.450928 0.282738
vt 0.450928 0.282738
vt 0.450928 0.282738
vt 0.450928 0.282738
vt 0.450928 0.282738
vt 0.450928 0.282738
vt 0.450928 0.282738
vt 0.450928 0.282738
vt 0.450928 0.282738
vt 0.896333 0.322860
vt 0.896333 0.322860
vt 0.896333 0.322860
vt 0.450928 0.282738
vt 0.450928 0.282738
vt 0.450928 0.282738
vt 0.450928 0.282738
vt 0.450928 0.282738
vt 0.450928 0.282738
vt 0.450928 0.282738
vt 0.450928 0.282738
vt 0.450928 0.282738
vt 0.450928 0.282738
vt 0.450928 0.282738
vt 0.918201 0.323636
vt 0.450928 0.282738
vt 0.450928 0.282738
vt 0.450928 0.282738
vt 0.918201 0.323636
vt 0.918201 0.323636
vt 0.450928 0.282738
vt 0.450928 0.282738
vt 0.918201 0.323636
vt 0.918201 0.323636
vt 0.450928 0.282739
vt 0.918201 0.323636
vt 0.918201 0.323636
vt 0.918201 0.323636
vt 0.450928 0.282739
vt 0.450928 0.282738
vt 0.918201 0.323636
vt 0.918201 0.323636
vt 0.918201 0.323636
vt 0.450928 0.282739
vt 0.918201 0.323636
vt 0.450928 0.282738
vt 0.918201 0.323636
vt 0.450928 0.282738
vt 0.918201 0.323636
vt 0.918201 0.323636
vt 0.450928 0.282739
vt 0.918201 0.323636
vt 0.450928 0.282739
vt 0.450928 0.282738
vt 0.450928 0.282739
vt 0.450928 0.282738
vt 0.450928 0.282739
vt 0.450928 0.282738
vt 0.450928 0.282739
vt 0.450928 0.282738
vt 0.450928 0.282739
vt 0.450928 0.282738
vt 0.450928 0.282739
vn 0.077240 -0.114184 0.990453
vn 0.077240 -0.114184 0.990453
vn 0.077240 -0.114184 0.990453
vn 0.077240 -0.114184 0.990453
vn 0.004333 0.966058 0.258290
vn 0.004333 0.966058 0.258290
vn 0.004333 0.966058 0.258290
vn 0.004333 0.966058 0.258290
vn 0.268519 -0.091436 -0.958925
vn 0.268519 -0.091436 -0.958925
vn 0.268519 -0.091436 -0.958925
vn 0.268519 -0.091436 -0.958925
vn 0.000000 -1.000000 0.000000
vn 0.000000 -1.000000 0.000000
vn 0.000000 -1.000000 0.000000
vn 0.000000 -1.000000 0.000000
vn 0.791392 -0.128541 0.597642
vn 0.791392 -0.128541 0.597642
vn 0.791392 -0.128541 0.597642
vn 0.791392 -0.128541 0.597642
vn -0.599136 -0.181808 0.779732
vn -0.599136 -0.181808 0.779732
vn -0.599136 -0.181808 0.779732
vn -0.599136 -0.181808 0.779732
vn -0.737055 -0.118437 -0.665374
vn -0.737055 -0.118437 -0.665374
vn -0.737055 -0.118437 -0.665374
vn -0.737055 -0.118437 -0.665374
vn 0.000000 -1.000000 0.000000
vn 0.000000 -1.000000 0.000000
vn 0.000000 -1.000000 0.000000
vn 0.000000 -1.000000 0.000000
vn 0.787649 -0.149457 -0.597722
vn 0.787649 -0.149457 -0.597722
vn 0.787649 -0.149457 -0.597722
vn 0.787649 -0.149457 -0.597722
vn 0.059852 0.998027 0.018948
vn 0.059852 0.998028 0.018948
vn 0.059852 0.998027 0.018948
vn 0.059852 0.998027 0.018948
vn -0.985967 -0.164825 -0.026503
vn -0.985967 -0.164825 -0.026503
vn -0.985967 -0.164825 -0.026503
vn -0.985967 -0.164825 -0.026503
vn 0.000000 -1.000000 0.000000
vn 0.000000 -1.000000 0.000000
vn 0.000000 -1.000000 0.000000
vn 0.000000 -1.000000 0.000000
vn 0.962187 -0.155765 0.223459
vn 0.962187 -0.155765 0.223459
vn 0.962187 -0.155765 0.223459
vn 0.962187 -0.155765 0.223459
vn 0.169033 0.933690 0.315674
vn 0.169033 0.933690 0.315674
vn 0.169033 0.933690 0.315674
vn 0.282707 0.958649 -0.032695
vn 0.282707 0.958649 -0.032695
vn 0.282707 0.958649 -0.032695
vn 0.282707 0.958649 -0.032695
vn -0.152229 0.977985 -0.142728
vn -0.152229 0.977985 -0.142728
vn -0.152229 0.977985 -0.142728
vn -0.265255 -0.118273 -0.956897
vn -0.265255 -0.118273 -0.956897
vn -0.265255 -0.118273 -0.956897
vn -0.265255 -0.118273 -0.956897
vn 0.000000 -1.000000 0.000000
vn 0.000000 -1.000000 0.000000
vn 0.000000 -1.000000 0.000000
vn 0.000000 -1.000000 0.000000
vn 0.000000 -1.000000 0.000000
vn 0.000000 -1.000000 0.000000
vn 0.000000 -1.000000 0.000000
vn 0.000000 -1.000000 0.000000
vn 0.000000 -1.000000 0.000000
vn 0.000000 -1.000000 0.000000
vn 0.000000 -1.000000 0.000000
vn 0.000000 -1.000000 0.000000
vn -0.123826 -0.098946 0.987358
vn -0.123826 -0.098946 0.987358
vn -0.123826 -0.098946 0.987359
vn -0.123826 -0.098946 0.987358
vn 0.094650 0.941088 0.324645
vn 0.094650 0.941088 0.324645
vn 0.094650 0.941088 0.324645
vn -0.097567 0.992024 0.079812
vn -0.097567 0.992024 0.079812
vn -0.097567 0.992024 0.079812
vn 0.069806 0.971359 -0.227132
vn 0.069806 0.971359 -0.227132
vn 0.069806 0.971359 -0.227132
vn 0.312851 0.943668 -0.107772
vn 0.312851 0.943668 -0.107772
vn 0.312851 0.943668 -0.107772
vn -0.141753 0.982173 -0.123460
vn -0.141753 0.982173 -0.123460
vn -0.141753 0.982173 -0.123460
vn -0.168525 0.985697 0.000396
vn -0.168525 0.985697 0.000396
vn -0.168525 0.985697 0.000396
vn -0.168525 0.985697 0.000396
vn -0.098011 0.942036 0.320876
vn -0.098011 0.942036 0.320876
vn -0.098011 0.942036 0.320876
vn 0.261254 0.960846 -0.092309
vn 0.261254 0.960846 -0.092309
vn 0.261254 0.960846 -0.092309
vn 0.087753 -0.131225 0.987461
vn 0.087753 -0.131225 0.987461
vn 0.087753 -0.131225 0.987461
vn 0.087753 -0.131225 0.987461
vn -0.604149 -0.176338 0.777116
vn -0.604149 -0.176338 0.777116
vn -0.604149 -0.176338 0.777116
vn -0.604149 -0.176338 0.777116
vn -0.983016 -0.176190 -0.051339
vn -0.983016 -0.176190 -0.051339
vn -0.983016 -0.176190 -0.051339
vn -0.983016 -0.176190 -0.051339
vn -0.741766 -0.169975 -0.648761
vn -0.741766 -0.169975 -0.648761
vn -0.741766 -0.169975 -0.648761
vn -0.741766 -0.169975 -0.648761
vn 0.252617 -0.102725 -0.962098
vn 0.252617 -0.102725 -0.962098
vn 0.252617 -0.102725 -0.962098
vn 0.252617 -0.102725 -0.962098
vn -0.233590 -0.116212 -0.965365
vn -0.233590 -0.116212 -0.965365
vn -0.233590 -0.116212 -0.965365
vn -0.233590 -0.116212 -0.965365
vn 0.766993 -0.171554 -0.618296
vn 0.766993 -0.171554 -0.618296
vn 0.766993 -0.171554 -0.618296
vn 0.766993 -0.171554 -0.618296
vn 0.953200 -0.170749 0.249508
vn 0.953200 -0.170749 0.249508
vn 0.953200 -0.170749 0.249508
vn 0.953200 -0.170749 0.249508
vn 0.782729 -0.189058 0.592953
vn 0.782729 -0.189058 0.592953
vn 0.782729 -0.189058 0.592953
vn 0.782729 -0.189058 0.592953
vn -0.120292 -0.126984 0.984584
vn -0.120292 -0.126984 0.984584
vn -0.120292 -0.126984 0.984584
vn -0.120292 -0.126984 0.984584
vn 0.122953 0.191552 0.973751
vn 0.122953 0.191552 0.973751
vn 0.122953 0.191552 0.973751
vn 0.122953 0.191552 0.973751
vn -0.636978 0.263908 0.724301
vn -0.636978 0.263908 0.724301
vn -0.636978 0.263908 0.724301
vn -0.636978 0.263908 0.724301
vn -0.960910 0.276482 0.014517
vn -0.960909 0.276482 0.014517
vn -0.960910 0.276482 0.014517
vn -0.960910 0.276482 0.014517
vn -0.710398 0.249534 -0.658078
vn -0.710398 0.249534 -0.658078
vn -0.710398 0.249534 -0.658078
vn -0.710398 0.249534 -0.658078
vn 0.284829 0.181937 -0.941154
vn 0.284829 0.181937 -0.941154
vn 0.284829 0.181937 -0.941154
vn 0.284829 0.181937 -0.941154
vn -0.280288 0.179296 -0.943023
vn -0.280288 0.179296 -0.943023
vn -0.280288 0.179296 -0.943023
vn -0.280288 0.179296 -0.943023
vn 0.792298 0.255192 -0.554203
vn 0.792298 0.255192 -0.554203
vn 0.792298 0.255192 -0.554203
vn 0.792298 0.255192 -0.554203
vn 0.933827 0.309837 0.178799
vn 0.933827 0.309837 0.178799
vn 0.933827 0.309837 0.178799
vn 0.933827 0.309837 0.178799
vn 0.776305 0.244437 0.581034
vn 0.776305 0.244437 0.581034
vn 0.776306 0.244437 0.581034
vn 0.776305 0.244437 0.581034
vn -0.158459 0.170862 0.972470
vn -0.158459 0.170862 0.972470
vn -0.158459 0.170862 0.972470
vn -0.158459 0.170862 0.972470
vn 0.116512 0.639289 0.760089
vn 0.116512 0.639289 0.760089
vn 0.116512 0.639289 0.760089
vn 0.116512 0.639289 0.760089
vn -0.478744 0.698337 0.532098
vn -0.478745 0.698337 0.532098
vn -0.478744 0.698337 0.532098
vn -0.478744 0.698337 0.532098
vn 0.145135 0.616756 -0.773659
vn 0.145135 0.616756 -0.773659
vn 0.145135 0.616756 -0.773659
vn 0.145135 0.616756 -0.773659
vn -0.526438 0.760631 -0.379873
vn -0.526438 0.760631 -0.379873
vn -0.526438 0.760631 -0.379873
vn -0.526438 0.760631 -0.379873
vn -0.676162 0.732376 -0.080189
vn -0.676162 0.732376 -0.080189
vn -0.676162 0.732376 -0.080189
vn -0.676162 0.732376 -0.080189
vn -0.064410 0.697308 -0.713871
vn -0.064410 0.697308 -0.713871
vn -0.064410 0.697308 -0.713871
vn -0.064410 0.697308 -0.713871
vn 0.536303 0.728244 -0.426662
vn 0.536303 0.728244 -0.426662
vn 0.536303 0.728244 -0.426662
vn 0.536303 0.728244 -0.426662
vn 0.626524 0.753556 0.199051
vn 0.626524 0.753556 0.199051
vn 0.626524 0.753556 0.199051
vn 0.626524 0.753556 0.199051
vn 0.473797 0.803132 0.361241
vn 0.473797 0.803132 0.361241
vn 0.473797 0.803132 0.361241
vn 0.473797 0.803132 0.361241
vn -0.093517 0.688125 0.719540
vn -0.093517 0.688125 0.719540
vn -0.093517 0.688125 0.719540
vn -0.093517 0.688125 0.719540
vn -0.097566 0.992023 0.079815
vn -0.097566 0.992023 0.079815
vn -0.097566 0.992023 0.079815
vn -0.063145 0.983033 0.172216
vn -0.063145 0.983033 0.172216
vn -0.063145 0.983033 0.172216
vn -0.059217 0.998044 0.020031
vn -0.059217 0.998044 0.020031
vn -0.059217 0.998044 0.020031
vn -0.059217 0.998044 0.020031
vn -0.019716 0.966034 -0.257660
vn -0.019716 0.966035 -0.257660
vn -0.019716 0.966034 -0.257660
vn -0.019716 0.966035 -0.257660
vn 0.133478 0.990700 -0.026401
vn 0.133478 0.990700 -0.026401
vn 0.133478 0.990700 -0.026401
s off
f 1/1/1 22/38/2 35/54/3 36/104/4
f 3/15/5 57/18/6 58/23/7 24/26/8
f 39/98/9 40/96/10 21/35/11 7/7/12
f 45/9/13 46/10/14 47/20/15 48/21/16
f 2/2/17 16/30/18 43/84/19 44/80/20
f 15/27/21 1/1/22 36/104/23 37/102/24
f 7/13/25 11/19/26 38/100/27 39/97/28
f 49/28/29 50/29/30 51/36/31 52/37/32
f 42/88/33 12/22/34 8/11/35 41/92/36
f 23/32/37 24/26/38 58/23/39 59/33/40
f 11/19/41 15/27/42 37/102/43 38/100/44
f 52/37/45 51/36/46 46/10/47 45/9/48
f 43/84/49 16/30/50 12/22/51 42/88/52
f 18/40/53 4/41/54 13/42/55
f 19/43/56 18/40/57 13/42/58 9/51/59
f 20/52/60 19/43/61 6/53/62
f 21/35/63 40/96/64 41/91/65 8/8/66
f 51/36/67 50/29/68 53/39/69 54/66/70
f 46/10/71 51/36/72 54/66/73 55/67/74
f 47/20/75 46/10/76 55/67/77 56/68/78
f 44/80/79 35/54/80 22/38/81 2/2/82
f 17/55/83 4/41/84 18/40/85
f 3/15/86 17/55/87 57/18/88
f 59/33/89 60/56/90 23/32/91
f 6/53/92 19/43/93 9/51/94
f 10/57/95 23/32/96 5/58/97
f 14/59/98 24/26/99 23/32/100 10/57/101
f 3/15/102 24/26/103 14/59/104
f 5/58/105 23/32/106 60/56/107
f 26/105/108 25/107/109 17/31/110 3/3/111
f 27/44/112 26/105/113 3/3/114 14/25/115
f 28/45/116 27/44/117 14/25/118 10/17/119
f 29/46/120 28/45/121 10/17/122 5/14/123
f 5/5/124 20/34/125 30/48/126 29/47/127
f 31/49/128 30/48/129 20/34/130 6/6/131
f 9/16/132 32/93/133 31/50/134 6/12/135
f 13/24/136 33/89/137 32/93/138 9/16/139
f 34/85/140 33/89/141 13/24/142 4/4/143
f 17/31/144 25/107/145 34/85/146 4/4/147
f 36/60/148 35/61/149 25/62/150 26/63/151
f 37/64/152 36/60/153 26/63/154 27/65/155
f 38/69/156 37/64/157 27/65/158 28/70/159
f 39/71/160 38/69/161 28/70/162 29/72/163
f 29/72/164 30/73/165 40/74/166 39/71/167
f 41/75/168 40/74/169 30/73/170 31/76/171
f 32/77/172 42/78/173 41/75/174 31/76/175
f 33/79/176 43/81/177 42/78/178 32/77/179
f 44/82/180 43/81/181 33/79/182 34/83/183
f 34/83/184 25/62/185 35/61/186 44/82/187
f 22/86/188 1/87/189 48/90/190 47/94/191
f 1/87/192 15/95/193 45/99/194 48/90/195
f 7/101/196 21/103/197 50/106/198 49/108/199
f 11/109/200 7/101/201 49/108/202 52/110/203
f 15/95/204 11/109/205 52/110/206 45/99/207
f 21/103/208 8/111/209 53/112/210 50/106/211
f 8/111/212 12/113/213 54/114/214 53/112/215
f 12/113/216 16/115/217 55/116/218 54/114/219
f 16/115/220 2/117/221 56/118/222 55/116/223
f 2/117/224 22/86/225 47/94/226 56/118/227
f 57/18/228 17/55/229 18/40/230
f 58/23/231 57/18/232 18/40/233
f 59/33/234 58/23/235 18/40/236 19/43/237
f 20/52/238 60/56/239 59/33/240 19/43/241
f 5/58/242 60/56/243 20/52/244
