# This file uses meters as units for non-parametric coordinates.

v 1.293945 -28.718330 -2.240906
v -1.293701 -28.718330 -2.240906
v -2.587646 -28.718330 0.000000
v -1.293701 -28.718330 2.240967
v 1.293945 -28.718330 2.240967
v 2.587646 -28.718330 0.000000
v 0.911499 39.616318 -1.578461
v -0.911255 39.616318 -1.578461
v -1.822632 39.616318 0.000000
v -0.911255 39.616318 1.578461
v 0.911499 39.616318 1.578461
v 1.822876 39.616318 0.000000
v 0.000000 -28.718330 0.000000
v 4.716187 45.883186 -10.542572
v -8.084351 44.879513 -13.075745
v -14.898071 42.577217 0.909424
v -8.084351 44.745266 13.140320
v 5.127197 42.358040 13.213501
v 12.694702 42.358040 0.105469
v 2.348755 55.412594 -4.929504
v -5.477051 52.273590 -5.677612
v -6.245605 55.412594 0.032288
v -4.802979 53.223736 5.875488
v 2.348755 55.412594 4.994080
v 6.002686 53.843781 -1.235901
v -0.516235 61.107647 0.032288
v 4.535522 20.279026 -3.956085
v 3.433105 20.279026 -2.046387
v 1.227661 20.279026 -2.046387
v 0.125244 20.279026 -3.956085
v 1.227661 20.279026 -5.865753
v 3.433105 20.279026 -5.865753
vt 0.123094 0.108677
vt 0.123094 0.108677
vt 0.123094 0.108677
vt 0.123094 0.108677
vt 0.123094 0.108677
vt 0.123094 0.108677
vt 0.123094 0.108677
vt 0.123094 0.108677
vt 0.123094 0.108677
vt 0.123094 0.108677
vt 0.123094 0.108677
vt 0.123094 0.108677
vt 0.123094 0.108677
vt 0.448364 0.283989
vt 0.448364 0.283989
vt 0.448364 0.283989
vt 0.448364 0.283989
vt 0.448364 0.283989
vt 0.448364 0.283989
vt 0.448364 0.283989
vt 0.448364 0.283989
vt 0.065200 0.102704
vt 0.065200 0.102704
vt 0.448364 0.283989
vt 0.448364 0.283989
vt 0.065200 0.102704
vt 0.448364 0.283989
vt 0.065200 0.102704
vt 0.448364 0.283989
vt 0.065200 0.102704
vt 0.448364 0.283989
vt 0.065200 0.102704
vt 0.065200 0.102704
vt 0.065200 0.102704
vt 0.065200 0.102704
vt 0.065200 0.102704
vt 0.065200 0.102704
vt 0.065200 0.102704
vt 0.123094 0.108677
vt 0.123094 0.108677
vt 0.123094 0.108677
vt 0.123094 0.108677
vt 0.123094 0.108677
vt 0.123094 0.108677
vn 0.000000 -0.073779 -0.997275
vn 0.000000 -0.073779 -0.997275
vn 0.000000 0.001569 -0.999999
vn 0.000000 -0.003385 -0.999994
vn -0.865997 0.007577 -0.499991
vn -0.865997 0.007577 -0.499991
vn -0.865983 0.009544 -0.499982
vn -0.865985 0.009292 -0.499983
vn -0.862666 0.087976 0.498064
vn -0.862666 0.087976 0.498064
vn -0.865893 0.017368 0.499927
vn -0.865816 0.021935 0.499882
vn 0.000000 0.087168 0.996194
vn 0.000000 0.087168 0.996194
vn 0.000000 0.021882 0.999761
vn 0.000000 0.017224 0.999852
vn 0.866031 0.005937 0.499954
vn 0.866031 0.005937 0.499954
vn 0.866007 0.008977 0.499952
vn 0.866003 0.009424 0.499951
vn 0.863632 -0.074589 -0.498573
vn 0.863632 -0.074589 -0.498573
vn 0.866035 -0.003430 -0.499972
vn 0.866039 0.001422 -0.499975
vn 0.000000 -1.000000 0.000000
vn 0.000000 -1.000000 0.000000
vn 0.000000 -1.000000 0.000000
vn 0.000000 -1.000000 0.000000
vn 0.000000 -1.000000 0.000000
vn 0.000000 -1.000000 0.000000
vn 0.000000 -1.000000 0.000000
vn 0.000000 -1.000000 0.000000
vn 0.000000 -1.000000 0.000000
vn 0.000000 -1.000000 0.000000
vn 0.000000 -1.000000 0.000000
vn 0.000000 -1.000000 0.000000
vn 0.000000 -1.000000 0.000000
vn 0.000000 -1.000000 0.000000
vn 0.000000 -1.000000 0.000000
vn 0.000000 -1.000000 0.000000
vn 0.000000 -1.000000 0.000000
vn 0.000000 -1.000000 0.000000
vn 0.145710 -0.851452 -0.503783
vn 0.145710 -0.851452 -0.503783
vn 0.145710 -0.851452 -0.503783
vn 0.145710 -0.851452 -0.503783
vn -0.243947 -0.934475 -0.259320
vn -0.243947 -0.934475 -0.259320
vn -0.243947 -0.934475 -0.259320
vn -0.243947 -0.934475 -0.259320
vn -0.211801 -0.940382 0.266123
vn -0.211801 -0.940382 0.266123
vn -0.211801 -0.940382 0.266123
vn -0.211801 -0.940382 0.266123
vn -0.151009 -0.941814 0.300304
vn -0.151009 -0.941814 0.300304
vn -0.151009 -0.941814 0.300304
vn -0.151009 -0.941814 0.300304
vn 0.240883 -0.960539 0.139069
vn 0.240883 -0.960539 0.139069
vn 0.240883 -0.960539 0.139069
vn 0.240883 -0.960539 0.139069
vn 0.262659 -0.859364 -0.438752
vn 0.262659 -0.859364 -0.438752
vn 0.262659 -0.859364 -0.438752
vn 0.262659 -0.859364 -0.438752
vn 0.003711 0.609471 -0.792800
vn 0.003711 0.609471 -0.792800
vn 0.003711 0.609471 -0.792800
vn 0.003711 0.609471 -0.792800
vn -0.778980 0.537618 -0.322733
vn -0.778980 0.537618 -0.322733
vn -0.778980 0.537618 -0.322733
vn -0.778980 0.537618 -0.322733
vn -0.756085 0.555523 0.346021
vn -0.756085 0.555523 0.346021
vn -0.756085 0.555523 0.346021
vn -0.756085 0.555523 0.346021
vn 0.037894 0.582816 0.811720
vn 0.037894 0.582816 0.811720
vn 0.037894 0.582816 0.811720
vn 0.037894 0.582816 0.811720
vn 0.782033 0.463933 0.416161
vn 0.782033 0.463933 0.416161
vn 0.782033 0.463933 0.416161
vn 0.782033 0.463933 0.416161
vn 0.770248 0.428130 -0.472676
vn 0.770248 0.428130 -0.472676
vn 0.770248 0.428130 -0.472676
vn 0.770248 0.428130 -0.472676
vn -0.165472 0.599209 -0.783305
vn -0.165472 0.599209 -0.783305
vn -0.165472 0.599209 -0.783305
vn -0.634371 0.638185 -0.436227
vn -0.634371 0.638185 -0.436227
vn -0.634371 0.638185 -0.436227
vn -0.645348 0.649228 0.402527
vn -0.645348 0.649228 0.402527
vn -0.645348 0.649228 0.402527
vn -0.096185 0.625910 0.773942
vn -0.096185 0.625909 0.773942
vn -0.096185 0.625910 0.773942
vn 0.738459 0.614110 0.278473
vn 0.738459 0.614110 0.278473
vn 0.738459 0.614110 0.278473
vn 0.657517 0.655072 -0.372226
vn 0.657517 0.655072 -0.372226
vn 0.657517 0.655072 -0.372226
vn 0.866003 0.009424 0.499951
vn 0.866007 0.008977 0.499952
vn 0.865865 0.019196 0.499909
vn 0.865865 0.019196 0.499909
vn 0.000000 0.017224 0.999852
vn 0.000000 0.021882 0.999761
vn 0.000000 -0.184245 0.982880
vn 0.000000 -0.184245 0.982880
vn -0.865816 0.021935 0.499882
vn -0.865893 0.017368 0.499927
vn -0.850877 -0.186209 0.491258
vn -0.850877 -0.186209 0.491258
vn -0.865985 0.009292 -0.499983
vn -0.865983 0.009544 -0.499982
vn -0.865926 0.015058 -0.499946
vn -0.865926 0.015058 -0.499946
vn 0.000000 -0.003385 -0.999994
vn 0.000000 0.001569 -0.999999
vn 0.000000 0.216455 -0.976293
vn 0.000000 0.216455 -0.976293
vn 0.866039 0.001422 -0.499975
vn 0.866035 -0.003430 -0.499972
vn 0.845122 0.218381 -0.487933
vn 0.845122 0.218381 -0.487933
s off
f 1/1/1 2/2/2 31/43/3 32/44/4
f 2/2/5 3/5/6 30/42/7 31/43/8
f 3/5/9 4/7/10 29/41/11 30/42/12
f 4/7/13 5/9/14 28/40/15 29/41/16
f 5/9/17 6/11/18 27/39/19 28/40/20
f 6/11/21 1/1/22 32/44/23 27/39/24
f 2/2/25 1/1/26 13/13/27
f 3/5/28 2/2/29 13/13/30
f 4/7/31 3/5/32 13/13/33
f 5/9/34 4/7/35 13/13/36
f 6/11/37 5/9/38 13/13/39
f 1/1/40 6/11/41 13/13/42
f 7/22/43 8/23/44 15/26/45 14/28/46
f 8/23/47 9/30/48 16/32/49 15/26/50
f 9/30/51 10/33/52 17/34/53 16/32/54
f 10/33/55 11/35/56 18/36/57 17/34/58
f 11/35/59 12/37/60 19/38/61 18/36/62
f 12/37/63 7/22/64 14/28/65 19/38/66
f 14/14/67 15/15/68 21/16/69 20/17/70
f 15/15/71 16/18/72 22/19/73 21/16/74
f 16/18/75 17/20/76 23/21/77 22/19/78
f 17/20/79 18/24/80 24/25/81 23/21/82
f 18/24/83 19/27/84 25/29/85 24/25/86
f 19/27/87 14/14/88 20/17/89 25/29/90
f 20/17/91 21/16/92 26/31/93
f 21/16/94 22/19/95 26/31/96
f 22/19/97 23/21/98 26/31/99
f 23/21/100 24/25/101 26/31/102
f 24/25/103 25/29/104 26/31/105
f 25/29/106 20/17/107 26/31/108
f 28/40/109 27/39/110 12/12/111 11/10/112
f 29/41/113 28/40/114 11/10/115 10/8/116
f 30/42/117 29/41/118 10/8/119 9/6/120
f 31/43/121 30/42/122 9/6/123 8/3/124
f 32/44/125 31/43/126 8/3/127 7/4/128
f 27/39/129 32/44/130 7/4/131 12/12/132
