# This file uses meters as units for non-parametric coordinates.

v 3.200195 -25.651394 -5.542145
v -3.199707 -25.651394 -5.542145
v -6.399414 -25.651394 0.000061
v -3.199707 -25.651394 5.542267
v 3.200195 -25.651394 5.542267
v 6.400146 -25.651394 0.000061
v 3.200195 18.820246 -5.542145
v -3.199707 18.820246 -5.542145
v -6.399414 18.820246 0.000061
v -3.199707 18.820246 5.542267
v 3.200195 18.820246 5.542267
v 6.400146 18.820246 0.000061
v 0.000244 -25.651394 0.000061
v 10.750000 21.531221 -18.618896
v -10.749512 24.758526 -18.618896
v -21.499268 21.531221 0.000061
v -10.749512 24.758526 18.619019
v 10.750000 24.758526 18.619019
v 21.499756 21.531221 0.000061
v 6.372314 56.481087 -11.036652
v -6.371582 54.278690 -11.036652
v -12.743896 56.481087 0.000061
v -6.371582 54.278690 11.036774
v 6.372314 56.481087 11.036774
v 12.744385 54.278690 0.000061
v 7.864990 63.628426 -13.622131
v -7.864502 61.352947 -13.622131
v -15.729004 63.628426 0.000061
v -7.864502 61.352947 13.622253
v 7.864990 63.628426 13.622253
v 15.729736 61.352947 0.000061
v 0.539551 105.310455 0.000061
v -19.829590 28.196056 0.000061
v -9.914795 30.387932 17.173126
v 9.915283 30.807922 17.173126
v 19.830078 27.776066 0.000061
v 9.915283 28.196056 -17.172974
v -9.914551 30.387932 -17.173004
vt 0.008885 0.105856
vt 0.008885 0.105856
vt 0.008885 0.105856
vt 0.008885 0.105856
vt 0.008885 0.105856
vt 0.008885 0.105856
vt 0.008885 0.105856
vt 0.008885 0.105856
vt 0.008885 0.105856
vt 0.008885 0.105856
vt 0.008885 0.105856
vt 0.008885 0.105856
vt 0.008885 0.105856
vt 0.008885 0.105856
vt 0.008885 0.105856
vt 0.008885 0.105856
vt 0.008885 0.105856
vt 0.008885 0.105856
vt 0.008885 0.105856
vt 0.008885 0.105856
vt 0.258857 0.154843
vt 0.258857 0.154843
vt 0.258857 0.154843
vt 0.258857 0.154843
vt 0.258857 0.154843
vt 0.258857 0.154843
vt 0.008885 0.105856
vt 0.258857 0.154843
vt 0.258857 0.154843
vt 0.258857 0.154843
vt 0.258857 0.154843
vt 0.258857 0.154843
vt 0.258857 0.154843
vt 0.258857 0.154843
vt 0.258857 0.154843
vt 0.258857 0.154843
vt 0.258857 0.154843
vt 0.258857 0.154843
vt 0.258857 0.154843
vt 0.447266 0.282810
vt 0.447266 0.282810
vt 0.447266 0.282810
vt 0.447266 0.282810
vt 0.447266 0.282810
vt 0.447266 0.282810
vt 0.447266 0.282810
vt 0.258857 0.154843
vt 0.258857 0.154843
vt 0.258857 0.154843
vt 0.258857 0.154843
vt 0.258857 0.154843
vt 0.258857 0.154843
vt 0.447266 0.282810
vt 0.258857 0.154843
vt 0.258857 0.154843
vt 0.258857 0.154843
vt 0.447266 0.282810
vt 0.258857 0.154843
vt 0.258857 0.154843
vt 0.258857 0.154843
vt 0.447266 0.282810
vt 0.258857 0.154843
vt 0.258857 0.154843
vt 0.258857 0.154843
vt 0.447266 0.282810
vt 0.258857 0.154843
vt 0.447266 0.282810
vt 0.258857 0.154843
vt 0.447266 0.282810
vt 0.258857 0.154843
vt 0.258857 0.154843
vt 0.258857 0.154843
vt 0.258857 0.154843
vt 0.258857 0.154843
vt 0.258857 0.154843
vt 0.258857 0.154843
vt 0.447266 0.282810
vt 0.447266 0.282814
vt 0.447266 0.282810
vt 0.447266 0.282810
vt 0.447266 0.282810
vt 0.447266 0.282810
vn 0.000000 0.000000 -1.000000
vn 0.000000 0.000000 -1.000000
vn 0.000000 0.000000 -1.000000
vn 0.000000 0.000000 -1.000000
vn -0.866035 0.000000 -0.499984
vn -0.866035 0.000000 -0.499984
vn -0.866035 0.000000 -0.499984
vn -0.866035 0.000000 -0.499984
vn -0.866035 0.000000 0.499984
vn -0.866035 0.000000 0.499984
vn -0.866035 0.000000 0.499984
vn -0.866035 0.000000 0.499984
vn -0.000000 0.000000 1.000000
vn -0.000000 0.000000 1.000000
vn -0.000000 0.000000 1.000000
vn -0.000000 0.000000 1.000000
vn 0.866018 0.000000 0.500014
vn 0.866018 0.000000 0.500014
vn 0.866018 0.000000 0.500014
vn 0.866018 0.000000 0.500014
vn 0.866018 0.000000 -0.500013
vn 0.866018 0.000000 -0.500013
vn 0.866018 0.000000 -0.500013
vn 0.866018 0.000000 -0.500013
vn 0.000000 -1.000000 -0.000000
vn 0.000000 -1.000000 -0.000000
vn 0.000000 -1.000000 -0.000000
vn 0.000000 -1.000000 -0.000000
vn 0.000000 -1.000000 -0.000000
vn 0.000000 -1.000000 -0.000000
vn 0.000000 -1.000000 -0.000000
vn 0.000000 -1.000000 -0.000000
vn 0.000000 -1.000000 -0.000000
vn 0.000000 -1.000000 0.000000
vn 0.000000 -1.000000 -0.000000
vn 0.000000 -1.000000 -0.000000
vn 0.000000 -1.000000 0.000000
vn 0.000000 -1.000000 0.000000
vn 0.000000 -1.000000 -0.000000
vn 0.000000 -1.000000 -0.000000
vn 0.000000 -1.000000 0.000000
vn 0.000000 -1.000000 -0.000000
vn -0.109170 -0.943753 -0.312110
vn -0.109170 -0.943753 -0.312110
vn -0.109170 -0.943753 -0.312110
vn -0.109170 -0.943753 -0.312110
vn -0.215707 -0.943753 -0.250599
vn -0.215707 -0.943753 -0.250599
vn -0.215707 -0.943753 -0.250599
vn -0.215707 -0.943753 -0.250599
vn -0.215707 -0.943753 0.250599
vn -0.215707 -0.943753 0.250599
vn -0.215707 -0.943753 0.250599
vn -0.215707 -0.943753 0.250599
vn -0.000000 -0.910516 0.413474
vn -0.000000 -0.910516 0.413474
vn -0.000000 -0.910516 0.413474
vn -0.000000 -0.910516 0.413474
vn 0.215708 -0.943753 0.250602
vn 0.215708 -0.943753 0.250602
vn 0.215708 -0.943753 0.250602
vn 0.215708 -0.943753 0.250602
vn 0.175799 -0.979180 -0.101499
vn 0.175799 -0.979180 -0.101499
vn 0.175799 -0.979180 -0.101499
vn 0.175799 -0.979180 -0.101499
vn 0.008544 0.228960 -0.973398
vn 0.007101 0.228963 -0.973409
vn 0.006853 0.228963 -0.973411
vn 0.006853 0.228963 -0.973411
vn -0.846541 0.228969 -0.480563
vn -0.847253 0.228967 -0.479307
vn -0.846421 0.228970 -0.480775
vn -0.846421 0.228970 -0.480775
vn -0.847256 0.228966 0.479303
vn -0.846544 0.228969 0.480558
vn -0.846421 0.228970 0.480774
vn -0.846421 0.228970 0.480774
vn -0.014798 0.240328 0.970579
vn -0.015009 0.240327 0.970576
vn -0.015457 0.240325 0.970569
vn -0.015457 0.240325 0.970569
vn 0.860608 0.228821 0.454968
vn 0.860536 0.228822 0.455103
vn 0.860604 0.228821 0.454974
vn 0.860604 0.228821 0.454974
vn 0.851760 0.218570 -0.476165
vn 0.851850 0.218569 -0.476003
vn 0.852028 0.218569 -0.475685
vn 0.852028 0.218569 -0.475685
vn 0.053662 -0.341218 -0.938451
vn 0.053662 -0.341218 -0.938451
vn 0.053662 -0.341218 -0.938451
vn 0.053662 -0.341218 -0.938451
vn -0.839556 -0.341215 -0.422750
vn -0.839556 -0.341215 -0.422750
vn -0.839556 -0.341214 -0.422750
vn -0.839556 -0.341214 -0.422750
vn -0.839556 -0.341215 0.422750
vn -0.839557 -0.341215 0.422750
vn -0.839557 -0.341215 0.422750
vn -0.839556 -0.341215 0.422750
vn 0.053661 -0.341218 0.938451
vn 0.053661 -0.341218 0.938451
vn 0.053661 -0.341218 0.938451
vn 0.053661 -0.341218 0.938451
vn 0.785896 -0.341215 0.515694
vn 0.785896 -0.341215 0.515694
vn 0.785896 -0.341215 0.515694
vn 0.785896 -0.341215 0.515694
vn 0.785896 -0.341215 -0.515694
vn 0.785896 -0.341215 -0.515694
vn 0.785896 -0.341215 -0.515694
vn 0.785896 -0.341215 -0.515694
vn -0.043885 0.303367 -0.951863
vn -0.043885 0.303367 -0.951863
vn -0.043885 0.303367 -0.951863
vn -0.799316 0.311974 -0.513583
vn -0.799316 0.311974 -0.513583
vn -0.799316 0.311974 -0.513583
vn -0.799316 0.311974 0.513582
vn -0.799316 0.311974 0.513582
vn -0.799316 0.311974 0.513582
vn -0.043886 0.303367 0.951863
vn -0.043886 0.303367 0.951863
vn -0.043886 0.303367 0.951863
vn 0.848364 0.293167 0.440832
vn 0.848364 0.293167 0.440832
vn 0.848364 0.293167 0.440832
vn 0.848364 0.293167 -0.440831
vn 0.848364 0.293167 -0.440831
vn 0.848364 0.293167 -0.440831
vn -0.846421 0.228970 0.480774
vn -0.846421 0.228970 0.480774
vn -0.846544 0.228969 0.480558
vn -0.847256 0.228966 0.479303
vn -0.015457 0.240325 0.970569
vn -0.015457 0.240325 0.970569
vn -0.015009 0.240327 0.970576
vn -0.014798 0.240328 0.970579
vn 0.860604 0.228821 0.454974
vn 0.860604 0.228821 0.454974
vn 0.860536 0.228822 0.455103
vn 0.860608 0.228821 0.454968
vn 0.852028 0.218569 -0.475685
vn 0.852028 0.218569 -0.475685
vn 0.851850 0.218569 -0.476003
vn 0.851760 0.218570 -0.476165
vn 0.006853 0.228963 -0.973411
vn 0.006853 0.228963 -0.973411
vn 0.007101 0.228963 -0.973409
vn 0.008544 0.228960 -0.973398
vn -0.846421 0.228970 -0.480775
vn -0.846421 0.228970 -0.480775
vn -0.847253 0.228967 -0.479307
vn -0.846541 0.228969 -0.480563
s off
f 1/7/1 2/8/2 8/15/3 7/14/4
f 2/8/5 3/9/6 9/16/7 8/15/8
f 3/9/9 4/10/10 10/17/11 9/16/12
f 4/10/13 5/11/14 11/18/15 10/17/16
f 5/11/17 6/12/18 12/19/19 11/18/20
f 6/12/21 1/13/22 7/20/23 12/19/24
f 2/2/25 1/1/26 13/27/27
f 3/3/28 2/2/29 13/27/30
f 4/4/31 3/3/32 13/27/33
f 5/5/34 4/4/35 13/27/36
f 6/6/37 5/5/38 13/27/39
f 1/1/40 6/6/41 13/27/42
f 7/21/43 8/22/44 15/23/45 14/24/46
f 8/22/47 9/25/48 16/26/49 15/23/50
f 9/25/51 10/28/52 17/29/53 16/26/54
f 10/28/55 11/30/56 18/31/57 17/29/58
f 11/30/59 12/32/60 19/33/61 18/31/62
f 12/32/63 7/21/64 14/24/65 19/33/66
f 37/40/67 38/41/68 21/42/69 20/43/70
f 38/41/71 33/44/72 22/45/73 21/42/74
f 33/44/75 34/46/76 23/53/77 22/45/78
f 34/46/79 35/57/80 24/61/81 23/53/82
f 35/57/83 36/65/84 25/67/85 24/61/86
f 36/65/87 37/40/88 20/43/89 25/67/90
f 20/35/91 21/68/92 27/64/93 26/49/94
f 21/34/95 22/66/96 28/60/97 27/63/98
f 22/36/99 23/62/100 29/56/101 28/59/102
f 23/37/103 24/58/104 30/52/105 29/55/106
f 24/38/107 25/54/108 31/48/109 30/51/110
f 25/39/111 20/70/112 26/50/113 31/47/114
f 26/69/115 27/77/116 32/78/117
f 27/77/118 28/79/119 32/78/120
f 28/79/121 29/80/122 32/78/123
f 29/80/124 30/81/125 32/78/126
f 30/81/127 31/82/128 32/78/129
f 31/82/130 26/69/131 32/78/132
f 16/26/133 17/29/134 34/72/135 33/71/136
f 17/29/137 18/31/138 35/73/139 34/72/140
f 18/31/141 19/33/142 36/74/143 35/73/144
f 19/33/145 14/24/146 37/75/147 36/74/148
f 14/24/149 15/23/150 38/76/151 37/75/152
f 15/23/153 16/26/154 33/71/155 38/76/156
