# This file uses meters as units for non-parametric coordinates.

v -72.246680 35.398190 -7.705250
v -69.812048 18.743711 -49.011406
v -63.206061 1.992596 42.505413
v -43.347815 -34.523232 -42.580166
v -40.809912 -46.757500 21.608135
v 18.280298 69.767860 9.526409
v -1.852240 41.989491 -76.725277
v -2.881567 20.978010 76.725262
v 3.367761 -65.116028 44.906948
v 5.501337 -43.344593 -67.473728
v 73.774194 41.412289 -0.435467
v 66.892511 20.730259 -52.055321
v 60.827905 -1.252095 46.288250
v 46.073633 -43.055603 36.526867
v 60.685693 -42.854645 -40.431278
v 119.269678 39.157803 -2.849926
v 141.123407 -16.771111 -7.462719
v 105.265863 10.599010 -53.608467
v 106.977411 -2.906130 45.691006
v 99.714349 -53.592934 34.858578
v 111.342310 -49.506077 -44.651062
v -114.547827 6.064349 -67.852428
v -118.995276 29.626295 -3.489078
v -102.864111 -10.788675 59.767758
v -80.962195 -69.767853 31.975033
v -84.032629 -54.966507 -45.681663
v -141.123450 -40.292210 -1.562153
vt 0.710996 0.488632
vt 0.710996 0.488632
vt 0.710996 0.488632
vt 0.710996 0.488632
vt 0.710996 0.488632
vt 0.710996 0.488632
vt 0.710996 0.488632
vt 0.710996 0.488632
vt 0.710996 0.488632
vt 0.710996 0.488632
vt 0.710996 0.488632
vt 0.710996 0.488632
vt 0.710996 0.488632
vt 0.710996 0.488632
vt 0.710996 0.488632
vt 0.710996 0.488632
vt 0.710996 0.488632
vt 0.710996 0.488632
vt 0.710996 0.488632
vt 0.710996 0.488632
vt 0.710996 0.488632
vt 0.710996 0.488632
vt 0.710996 0.488632
vt 0.710996 0.488632
vt 0.710996 0.488632
vt 0.710996 0.488632
vt 0.710996 0.488632
vt 0.710996 0.488632
vt 0.710996 0.488632
vt 0.710996 0.488632
vt 0.710996 0.488632
vt 0.710996 0.488632
vt 0.710996 0.488632
vt 0.710996 0.488632
vt 0.710996 0.488632
vt 0.710996 0.488632
vt 0.710996 0.488632
vt 0.710996 0.488632
vt 0.710996 0.488632
vt 0.710996 0.488632
vt 0.710996 0.488632
vt 0.710996 0.488632
vt 0.710996 0.488632
vt 0.710996 0.488632
vt 0.710996 0.488632
vt 0.710996 0.488632
vt 0.710996 0.488632
vt 0.710996 0.488632
vt 0.710996 0.488632
vt 0.710996 0.488632
vt 0.710996 0.488632
vt 0.710996 0.488632
vt 0.710996 0.488632
vt 0.710996 0.488632
vt 0.710996 0.488632
vt 0.710996 0.488632
vt 0.710996 0.488632
vt 0.710996 0.488632
vt 0.710996 0.488632
vt 0.710996 0.488632
vt 0.710996 0.488632
vt 0.710996 0.488632
vt 0.710996 0.488632
vt 0.710996 0.488632
vt 0.710996 0.488632
vn 0.828094 0.359076 -0.430494
vn 0.828094 0.359076 -0.430494
vn 0.828094 0.359076 -0.430494
vn 0.837927 0.289239 0.462838
vn 0.837927 0.289239 0.462838
vn 0.837927 0.289239 0.462838
vn 0.699763 -0.711341 0.065774
vn 0.699762 -0.711341 0.065774
vn 0.699762 -0.711341 0.065774
vn 0.785910 -0.012678 -0.618211
vn 0.785910 -0.012678 -0.618211
vn 0.785910 -0.012678 -0.618211
vn 0.788952 -0.234434 0.567975
vn 0.788952 -0.234434 0.567975
vn 0.788952 -0.234434 0.567975
vn -0.344850 0.900255 -0.265744
vn -0.344850 0.900255 -0.265744
vn -0.344850 0.900255 -0.265744
vn -0.344850 0.900255 -0.265744
vn -0.434071 0.758444 0.486154
vn -0.434071 0.758444 0.486154
vn -0.434071 0.758444 0.486154
vn -0.434071 0.758444 0.486154
vn -0.278672 -0.943174 -0.181009
vn -0.278672 -0.943174 -0.181009
vn -0.278672 -0.943174 -0.181009
vn -0.278672 -0.943174 -0.181009
vn -0.382547 -0.195516 -0.903012
vn -0.382547 -0.195516 -0.903012
vn -0.382547 -0.195516 -0.903012
vn -0.382547 -0.195516 -0.903012
vn -0.438681 -0.406505 0.801444
vn -0.438681 -0.406505 0.801444
vn -0.438681 -0.406505 0.801444
vn -0.438681 -0.406505 0.801444
vn 0.381894 0.845958 -0.372172
vn 0.381894 0.845958 -0.372173
vn 0.381894 0.845958 -0.372173
vn 0.381894 0.845958 -0.372172
vn 0.474195 0.611804 0.633115
vn 0.474195 0.611804 0.633115
vn 0.474195 0.611804 0.633115
vn 0.474195 0.611804 0.633115
vn 0.239985 -0.966508 -0.090936
vn 0.239985 -0.966508 -0.090936
vn 0.239985 -0.966508 -0.090936
vn 0.239985 -0.966508 -0.090936
vn 0.363857 -0.126559 -0.922817
vn 0.363857 -0.126559 -0.922817
vn 0.363857 -0.126559 -0.922817
vn 0.363857 -0.126559 -0.922817
vn 0.325154 -0.311860 0.892759
vn 0.325154 -0.311860 0.892759
vn 0.325154 -0.311860 0.892759
vn 0.325154 -0.311860 0.892759
vn 0.109727 0.886813 -0.448914
vn 0.109727 0.886813 -0.448914
vn 0.109727 0.886813 -0.448914
vn 0.109727 0.886813 -0.448914
vn 0.053587 0.739055 0.671511
vn 0.053587 0.739054 0.671511
vn 0.053587 0.739055 0.671511
vn 0.053587 0.739054 0.671511
vn -0.165375 -0.984712 -0.054719
vn -0.165375 -0.984712 -0.054719
vn -0.165375 -0.984712 -0.054719
vn -0.165375 -0.984712 -0.054719
vn -0.094463 -0.163308 -0.982042
vn -0.094463 -0.163308 -0.982042
vn -0.094463 -0.163308 -0.982042
vn -0.094463 -0.163308 -0.982042
vn -0.004269 -0.216367 0.976303
vn -0.004269 -0.216367 0.976303
vn -0.004269 -0.216367 0.976303
vn -0.004269 -0.216367 0.976303
vn -0.128801 0.923999 -0.360051
vn -0.128801 0.923999 -0.360051
vn -0.128801 0.923999 -0.360051
vn -0.128801 0.923999 -0.360051
vn -0.041852 0.833215 0.551363
vn -0.041852 0.833215 0.551363
vn -0.041852 0.833215 0.551363
vn -0.041852 0.833215 0.551363
vn 0.452478 -0.872545 -0.184197
vn 0.452478 -0.872545 -0.184197
vn 0.452478 -0.872545 -0.184197
vn 0.452478 -0.872545 -0.184197
vn 0.282978 -0.097695 -0.954138
vn 0.282978 -0.097695 -0.954138
vn 0.282978 -0.097695 -0.954138
vn 0.282978 -0.097695 -0.954138
vn 0.409114 -0.230777 0.882818
vn 0.409114 -0.230777 0.882818
vn 0.409114 -0.230777 0.882818
vn 0.409114 -0.230777 0.882818
vn -0.940503 0.292910 -0.172215
vn -0.940503 0.292910 -0.172215
vn -0.940503 0.292910 -0.172215
vn -0.868728 0.286083 0.404313
vn -0.868728 0.286082 0.404313
vn -0.868728 0.286082 0.404313
vn -0.360479 -0.918791 -0.160868
vn -0.360479 -0.918791 -0.160868
vn -0.360479 -0.918791 -0.160868
vn -0.601777 -0.520836 -0.605470
vn -0.601777 -0.520836 -0.605470
vn -0.601777 -0.520836 -0.605470
vn -0.595803 -0.512600 0.618271
vn -0.595803 -0.512600 0.618271
vn -0.595803 -0.512600 0.618271
s off
f 16/25/1 17/2/2 18/24/3
f 16/25/4 19/26/5 17/2/6
f 17/5/7 20/27/8 21/28/9
f 21/28/10 18/29/11 17/5/12
f 20/27/13 17/5/14 19/30/15
f 2/3/16 1/1/17 6/11/18 7/10/19
f 1/1/20 3/4/21 8/12/22 6/11/23
f 5/6/24 4/7/25 10/14/26 9/13/27
f 4/7/28 2/8/29 7/15/30 10/14/31
f 3/9/32 5/6/33 9/13/34 8/16/35
f 7/10/36 6/11/37 11/18/38 12/17/39
f 6/11/40 8/12/41 13/19/42 11/18/43
f 9/13/44 10/14/45 15/21/46 14/20/47
f 10/14/48 7/15/49 12/22/50 15/21/51
f 8/16/52 9/13/53 14/20/54 13/23/55
f 12/17/56 11/18/57 16/25/58 18/24/59
f 11/18/60 13/19/61 19/26/62 16/25/63
f 14/20/64 15/21/65 21/28/66 20/27/67
f 15/21/68 12/22/69 18/29/70 21/28/71
f 13/23/72 14/20/73 20/27/74 19/30/75
f 1/31/76 2/32/77 22/33/78 23/34/79
f 3/35/80 1/36/81 23/37/82 24/38/83
f 4/39/84 5/40/85 25/41/86 26/42/87
f 2/43/88 4/44/89 26/45/90 22/46/91
f 5/47/92 3/48/93 24/49/94 25/50/95
f 23/51/96 22/52/97 27/53/98
f 24/54/99 23/55/100 27/56/101
f 26/57/102 25/58/103 27/59/104
f 22/60/105 26/61/106 27/62/107
f 25/63/108 24/64/109 27/65/110
