# This file uses meters as units for non-parametric coordinates.

v 32.960258 74.296654 -7.532406
v -25.033829 77.812225 -10.352993
v -24.539688 13.455446 -11.461353
v 32.493591 18.770380 -8.124098
v 31.748451 77.812225 13.826306
v -25.847885 77.812225 15.494664
v -25.503036 19.268076 16.187286
v 31.609344 13.455446 14.155356
v 4.404190 77.812225 26.901245
v 14.987442 81.380989 12.622006
v 14.987442 81.380989 -7.277426
v 3.603363 71.555931 -26.377644
v 5.751038 18.770380 -27.258936
v 3.938034 13.455446 27.827326
v -10.040024 81.020187 -5.998770
v -11.349228 80.569344 13.082059
v 3.797409 44.254032 17.987251
v -15.232346 44.254032 10.485808
v -14.616898 47.673443 -7.282543
v 4.311874 44.254032 -17.632803
v 22.222900 44.254032 -5.149874
v 21.639252 47.673443 9.189255
v 3.959152 33.664440 19.130262
v -16.903687 33.664440 11.093235
v -16.288254 33.207256 -7.521725
v 3.797150 33.664440 -18.742786
v 23.894501 33.664440 -5.389023
v 23.151901 33.207256 9.813373
v -48.192337 0.000000 24.079514
v -1.814270 0.000000 24.079514
v 6.412247 0.000000 45.311005
v -2.336121 0.000000 -44.001770
v -9.365082 0.000000 -7.289156
v -48.192337 0.000000 -9.480795
v 56.311798 0.000000 -9.480795
v 50.028488 0.000000 24.742413
v 1.215622 78.997482 14.354960
v -3.128311 79.637733 -5.550003
v 4.392746 69.262901 27.594662
v -25.753281 66.341393 16.341370
v -25.666306 69.782074 -10.697809
v 3.669998 62.700336 -27.150696
v 33.623505 65.955360 -7.770443
v 32.438911 71.321259 13.731830
vt 0.896333 0.322860
vt 0.896333 0.322860
vt 0.918201 0.323636
vt 0.918201 0.323636
vt 0.918201 0.323636
vt 0.918201 0.323636
vt 0.918201 0.323636
vt 0.896333 0.322860
vt 0.918201 0.323636
vt 0.918201 0.323636
vt 0.918201 0.323636
vt 0.918201 0.323636
vt 0.918201 0.323636
vt 0.918201 0.323636
vt 0.896333 0.322860
vt 0.918201 0.323636
vt 0.918201 0.323636
vt 0.918201 0.323636
vt 0.918201 0.323636
vt 0.918201 0.323636
vt 0.918201 0.323636
vt 0.896333 0.322860
vt 0.896333 0.322860
vt 0.918201 0.323636
vt 0.918201 0.323636
vt 0.918201 0.323636
vt 0.919369 0.322468
vt 0.918201 0.323636
vt 0.918201 0.323636
vt 0.918201 0.323636
vt 0.919369 0.322468
vt 0.919369 0.322468
vt 0.918201 0.323636
vt 0.919369 0.322468
vt 0.919369 0.322468
vt 0.919369 0.322468
vt 0.919369 0.322468
vt 0.919369 0.322468
vt 0.896333 0.322860
vt 0.896333 0.322860
vt 0.896333 0.322860
vt 0.896333 0.322860
vt 0.896333 0.322860
vt 0.896333 0.322860
vt 0.896333 0.322860
vt 0.896333 0.322860
vt 0.919369 0.322468
vt 0.919369 0.322468
vt 0.919369 0.322468
vt 0.918201 0.323636
vt 0.919369 0.322468
vt 0.918201 0.323636
vt 0.918201 0.323636
vt 0.919369 0.322468
vt 0.918201 0.323636
vt 0.919369 0.322468
vt 0.919369 0.322468
vt 0.918201 0.323636
vt 0.919369 0.322468
vt 0.918201 0.323636
vt 0.919369 0.322468
vt 0.918201 0.323636
vt 0.918201 0.323636
vt 0.919369 0.322468
vt 0.919369 0.322468
vt 0.919369 0.322468
vt 0.919369 0.322468
vt 0.919369 0.322468
vt 0.919369 0.322468
vt 0.919369 0.322468
vt 0.918201 0.323636
vt 0.918201 0.323636
vt 0.918201 0.323636
vt 0.918201 0.323636
vt 0.918201 0.323636
vt 0.918201 0.323636
vt 0.918201 0.323636
vt 0.918201 0.323636
vn -0.032837 0.972299 0.231421
vn -0.032837 0.972299 0.231421
vn -0.032837 0.972299 0.231421
vn -0.032837 0.972299 0.231421
vn 0.000000 -1.000000 0.000000
vn 0.000000 -1.000000 0.000000
vn 0.000000 -1.000000 0.000000
vn -0.289259 0.415697 0.862279
vn -0.289259 0.415697 0.862279
vn -0.289259 0.415697 0.862279
vn -0.289259 0.415697 0.862279
vn -0.471368 0.372998 -0.799178
vn -0.471368 0.372998 -0.799178
vn -0.471368 0.372998 -0.799178
vn -0.471368 0.372998 -0.799178
vn 0.000000 -1.000000 0.000000
vn 0.000000 -1.000000 0.000000
vn 0.000000 -1.000000 0.000000
vn 0.148559 0.988772 0.016109
vn 0.148559 0.988772 0.016109
vn 0.148559 0.988772 0.016109
vn 0.148559 0.988772 0.016109
vn -0.894331 0.438278 -0.089917
vn -0.894331 0.438278 -0.089917
vn -0.894331 0.438278 -0.089917
vn -0.894331 0.438278 -0.089917
vn 0.000000 -1.000000 0.000000
vn 0.000000 -1.000000 0.000000
vn 0.000000 -1.000000 0.000000
vn 0.000000 -1.000000 0.000000
vn 0.890058 0.443142 0.106875
vn 0.890058 0.443142 0.106875
vn 0.890058 0.443142 0.106875
vn 0.890058 0.443142 0.106875
vn 0.170106 0.918970 0.355751
vn 0.170106 0.918970 0.355751
vn 0.170106 0.918970 0.355751
vn 0.294264 0.952966 -0.072558
vn 0.294264 0.952966 -0.072558
vn 0.294264 0.952966 -0.072558
vn 0.294264 0.952966 -0.072558
vn 0.294291 0.767126 -0.570009
vn 0.294291 0.767126 -0.570009
vn 0.294291 0.767127 -0.570009
vn 0.507250 0.455928 -0.731319
vn 0.507250 0.455928 -0.731319
vn 0.507250 0.455928 -0.731319
vn 0.507250 0.455928 -0.731319
vn 0.000000 -1.000000 0.000000
vn 0.000000 -1.000000 0.000000
vn 0.000000 -1.000000 0.000000
vn 0.000000 -1.000000 0.000000
vn 0.000000 -1.000000 0.000000
vn 0.000000 -1.000000 0.000000
vn 0.000000 -1.000000 0.000000
vn 0.000000 -1.000000 0.000000
vn 0.000000 -1.000000 0.000000
vn 0.000000 -1.000000 0.000000
vn 0.413682 0.360167 0.836150
vn 0.413682 0.360167 0.836150
vn 0.413682 0.360167 0.836150
vn 0.413682 0.360167 0.836150
vn 0.205785 0.932918 -0.295493
vn 0.205785 0.932918 -0.295493
vn 0.205785 0.932918 -0.295493
vn -0.198273 0.980147 0.000465
vn -0.198273 0.980147 0.000465
vn -0.198273 0.980147 0.000465
vn -0.198273 0.980147 0.000465
vn -0.058912 0.889741 -0.452649
vn -0.058912 0.889741 -0.452649
vn -0.058912 0.889741 -0.452649
vn -0.314592 -0.355302 0.880223
vn -0.314592 -0.355302 0.880223
vn -0.314592 -0.355302 0.880223
vn -0.314592 -0.355302 0.880223
vn -0.897508 -0.433597 -0.080454
vn -0.897508 -0.433597 -0.080454
vn -0.897508 -0.433597 -0.080454
vn -0.897508 -0.433597 -0.080454
vn -0.510386 -0.391335 -0.765744
vn -0.510386 -0.391335 -0.765744
vn -0.510386 -0.391335 -0.765744
vn -0.510386 -0.391335 -0.765744
vn 0.531687 -0.372459 -0.760646
vn 0.531687 -0.372459 -0.760646
vn 0.531687 -0.372459 -0.760646
vn 0.531687 -0.372459 -0.760646
vn 0.885240 -0.439781 0.151471
vn 0.885240 -0.439781 0.151471
vn 0.885240 -0.439781 0.151471
vn 0.885240 -0.439781 0.151471
vn 0.448395 -0.344827 0.824643
vn 0.448395 -0.344827 0.824643
vn 0.448395 -0.344827 0.824643
vn 0.448395 -0.344827 0.824643
vn -0.361041 0.102343 0.926917
vn -0.361041 0.102343 0.926917
vn -0.361041 0.102343 0.926917
vn -0.361041 0.102343 0.926917
vn -0.991004 0.131875 -0.022790
vn -0.991004 0.131875 -0.022790
vn -0.991004 0.131875 -0.022790
vn -0.991004 0.131875 -0.022790
vn -0.476800 0.088690 -0.874526
vn -0.476800 0.088690 -0.874526
vn -0.476800 0.088690 -0.874526
vn -0.476800 0.088690 -0.874526
vn 0.560232 0.083101 -0.824157
vn 0.560232 0.083101 -0.824157
vn 0.560232 0.083101 -0.824157
vn 0.560232 0.083101 -0.824157
vn 0.991457 0.126490 0.031827
vn 0.991457 0.126490 0.031827
vn 0.991457 0.126490 0.031827
vn 0.991457 0.126490 0.031827
vn 0.431563 0.092129 0.897366
vn 0.431563 0.092129 0.897366
vn 0.431563 0.092129 0.897366
vn 0.431563 0.092129 0.897366
vn -0.225712 0.680229 0.697383
vn -0.225712 0.680229 0.697382
vn -0.225712 0.680229 0.697382
vn -0.225712 0.680229 0.697382
vn -0.431566 0.690804 -0.580121
vn -0.431566 0.690804 -0.580121
vn -0.431566 0.690804 -0.580121
vn -0.431566 0.690804 -0.580121
vn -0.586815 0.805173 -0.085698
vn -0.586816 0.805173 -0.085698
vn -0.586815 0.805173 -0.085698
vn -0.586815 0.805173 -0.085698
vn 0.449918 0.533749 -0.716021
vn 0.449918 0.533749 -0.716021
vn 0.449918 0.533749 -0.716021
vn 0.449918 0.533749 -0.716021
vn 0.579055 0.801584 0.148856
vn 0.579054 0.801585 0.148856
vn 0.579055 0.801585 0.148856
vn 0.579055 0.801585 0.148856
vn 0.267016 0.787185 0.555916
vn 0.267016 0.787185 0.555917
vn 0.267016 0.787185 0.555917
vn 0.267016 0.787185 0.555916
vn -0.152980 0.979453 0.131410
vn -0.152980 0.979453 0.131410
vn -0.152980 0.979453 0.131410
vn -0.125129 0.991699 0.029606
vn -0.125129 0.991699 0.029606
vn -0.125129 0.991699 0.029606
vn -0.125129 0.991699 0.029606
vn -0.125180 0.910627 -0.393812
vn -0.125180 0.910627 -0.393812
vn -0.125180 0.910627 -0.393812
vn -0.353377 0.070294 0.932836
vn -0.353377 0.070294 0.932836
vn -0.353377 0.070294 0.932836
vn -0.353377 0.070294 0.932836
vn -0.999514 0.027176 -0.015261
vn -0.999514 0.027176 -0.015261
vn -0.999514 0.027176 -0.015261
vn -0.999514 0.027176 -0.015261
vn -0.474399 0.073969 -0.877197
vn -0.474399 0.073969 -0.877197
vn -0.474399 0.073969 -0.877197
vn -0.474399 0.073969 -0.877197
vn 0.535153 0.072199 -0.841664
vn 0.535153 0.072199 -0.841664
vn 0.535153 0.072199 -0.841664
vn 0.535153 0.072199 -0.841664
vn 0.995254 0.090006 0.036995
vn 0.995254 0.090006 0.036995
vn 0.995254 0.090006 0.036995
vn 0.995254 0.090006 0.036995
vn 0.435010 0.055428 0.898718
vn 0.435010 0.055428 0.898718
vn 0.435010 0.055428 0.898718
vn 0.435010 0.055428 0.898718
s off
f 6/13/1 9/17/2 37/71/3 16/26/4
f 29/1/5 30/2/6 31/8/7
f 23/33/8 24/62/9 7/14/10 14/24/11
f 3/7/12 25/60/13 26/58/14 13/21/15
f 32/15/16 33/22/17 34/23/18
f 15/25/19 16/26/20 37/71/21 38/72/22
f 3/7/23 7/14/24 24/62/25 25/60/26
f 34/23/27 33/22/28 30/2/29 29/1/30
f 28/50/31 8/16/32 4/9/33 27/52/34
f 5/10/35 10/18/36 9/17/37
f 11/19/38 10/18/39 5/10/40 1/3/41
f 1/3/42 12/20/43 11/19/44
f 13/21/45 26/58/46 27/52/47 4/9/48
f 33/22/49 32/15/50 35/39/51
f 30/2/52 33/22/53 35/39/54 36/40/55
f 31/8/56 30/2/57 36/40/58
f 28/50/59 23/33/60 14/24/61 8/16/62
f 38/72/63 12/20/64 15/25/65
f 6/13/66 16/26/67 15/25/68 2/6/69
f 12/20/70 2/6/71 15/25/72
f 40/74/73 18/28/74 17/63/75 39/73/76
f 19/29/77 18/28/78 40/74/79 41/75/80
f 19/29/81 41/75/82 42/76/83 20/30/84
f 20/30/85 42/76/86 43/77/87 21/55/88
f 44/78/89 22/53/90 21/55/91 43/77/92
f 44/78/93 39/73/94 17/63/95 22/53/96
f 17/27/97 18/69/98 24/61/99 23/47/100
f 25/59/101 24/34/102 18/70/103 19/67/104
f 25/35/105 19/68/106 20/65/107 26/57/108
f 26/36/109 20/66/110 21/56/111 27/51/112
f 22/54/113 28/49/114 27/37/115 21/31/116
f 22/32/117 17/64/118 23/48/119 28/38/120
f 31/8/121 14/41/122 7/42/123 29/1/124
f 32/15/125 34/23/126 3/44/127 13/43/128
f 7/42/129 3/44/130 34/23/131 29/1/132
f 32/15/133 13/43/134 4/45/135 35/39/136
f 4/45/137 8/46/138 36/40/139 35/39/140
f 36/40/141 8/46/142 14/41/143 31/8/144
f 10/18/145 37/71/146 9/17/147
f 38/72/148 37/71/149 10/18/150 11/19/151
f 12/20/152 38/72/153 11/19/154
f 6/12/155 40/74/156 39/73/157 9/17/158
f 41/75/159 40/74/160 6/12/161 2/5/162
f 42/76/163 41/75/164 2/5/165 12/20/166
f 43/77/167 42/76/168 12/20/169 1/4/170
f 5/11/171 44/78/172 43/77/173 1/4/174
f 5/11/175 9/17/176 39/73/177 44/78/178
