# This file uses meters as units for non-parametric coordinates.

v 2.480291 -5.753147 -25.535007
v -12.167711 -5.753147 -23.757462
v -24.944752 -5.753147 -2.167943
v -10.925035 -5.753147 17.455015
v 10.958831 -5.753147 25.535042
v 24.944672 -5.753147 5.556475
v 0.559487 9.443152 -22.251200
v -10.688652 9.406537 -20.107319
v -21.177408 9.443152 -2.167943
v -9.254221 9.406537 13.580628
v 8.381138 7.998110 20.943174
v 20.520435 9.406537 3.340391
v -5.971781 -5.753147 -3.789568
v -5.967458 9.382691 -3.789568
vt 0.896141 0.286199
vt 0.896141 0.286199
vt 0.896141 0.286199
vt 0.896141 0.286199
vt 0.896141 0.286199
vt 0.896141 0.286199
vt 0.896141 0.286199
vt 0.896141 0.286199
vt 0.896141 0.286199
vt 0.896141 0.286199
vt 0.896141 0.286199
vt 0.896141 0.286199
vt 0.896141 0.286199
vt 0.896141 0.286199
vt 0.896141 0.286199
vt 0.896141 0.286199
vt 0.896141 0.286199
vt 0.896141 0.286199
vt 0.896141 0.286199
vt 0.896141 0.286199
vt 0.896141 0.286199
vt 0.896141 0.286199
vt 0.896141 0.286199
vt 0.896141 0.286199
vt 0.896141 0.286199
vt 0.896141 0.286199
vt 0.896141 0.286199
vt 0.896141 0.286199
vn -0.146414 0.218260 -0.964845
vn -0.146414 0.218260 -0.964845
vn -0.146414 0.218260 -0.964845
vn -0.146414 0.218260 -0.964845
vn -0.843336 0.205462 -0.496558
vn -0.843336 0.205462 -0.496558
vn -0.843336 0.205462 -0.496558
vn -0.843336 0.205462 -0.496558
vn -0.787435 0.214806 0.577759
vn -0.787435 0.214806 0.577759
vn -0.787435 0.214806 0.577759
vn -0.787435 0.214806 0.577759
vn -0.344169 0.253908 0.903924
vn -0.344169 0.253908 0.903924
vn -0.344169 0.253908 0.903924
vn -0.344169 0.253908 0.903924
vn 0.773242 0.316643 0.549395
vn 0.773242 0.316643 0.549395
vn 0.773242 0.316643 0.549395
vn 0.773242 0.316643 0.549395
vn 0.786802 0.185167 -0.588775
vn 0.786802 0.185167 -0.588775
vn 0.786802 0.185167 -0.588775
vn 0.786802 0.185167 -0.588775
vn 0.000000 -1.000000 0.000000
vn 0.000000 -1.000000 0.000000
vn 0.000000 -1.000000 0.000000
vn 0.000000 -1.000000 0.000000
vn 0.000000 -1.000000 0.000000
vn 0.000000 -1.000000 0.000000
vn 0.000000 -1.000000 0.000000
vn 0.000000 -1.000000 0.000000
vn 0.000000 -1.000000 0.000000
vn 0.000000 -1.000000 0.000000
vn 0.000000 -1.000000 0.000000
vn 0.000000 -1.000000 0.000000
vn 0.000000 -1.000000 0.000000
vn 0.000000 -1.000000 0.000000
vn 0.000000 -1.000000 0.000000
vn 0.000000 -1.000000 0.000000
vn 0.000000 -1.000000 0.000000
vn 0.000000 -1.000000 0.000000
vn -0.002821 0.999993 0.002278
vn -0.002821 0.999994 0.002278
vn -0.002821 0.999993 0.002278
vn 0.004007 0.999992 0.000302
vn 0.004007 0.999992 0.000302
vn 0.004007 0.999992 0.000302
vn 0.003908 0.999992 -0.000634
vn 0.003908 0.999992 -0.000634
vn 0.003908 0.999992 -0.000634
vn 0.074336 0.997153 0.012697
vn 0.074336 0.997152 0.012697
vn 0.074336 0.997153 0.012697
vn -0.018879 0.997588 0.066799
vn -0.018879 0.997588 0.066799
vn -0.018879 0.997588 0.066799
vn -0.001627 0.999995 0.002700
vn -0.001627 0.999995 0.002700
vn -0.001627 0.999995 0.002700
s off
f 1/7/1 2/8/2 8/15/3 7/14/4
f 2/8/5 3/9/6 9/16/7 8/15/8
f 3/9/9 4/10/10 10/17/11 9/16/12
f 4/10/13 5/11/14 11/18/15 10/17/16
f 5/11/17 6/12/18 12/19/19 11/18/20
f 6/12/21 1/13/22 7/20/23 12/19/24
f 2/2/25 1/1/26 13/27/27
f 3/3/28 2/2/29 13/27/30
f 4/4/31 3/3/32 13/27/33
f 5/5/34 4/4/35 13/27/36
f 6/6/37 5/5/38 13/27/39
f 1/1/40 6/6/41 13/27/42
f 7/25/43 8/24/44 14/28/45
f 8/24/46 9/23/47 14/28/48
f 9/23/49 10/22/50 14/28/51
f 10/22/52 11/21/53 14/28/54
f 11/21/55 12/26/56 14/28/57
f 12/26/58 7/25/59 14/28/60
