# This file uses meters as units for non-parametric coordinates.

v 7.430317 32.533872 77.149733
v 56.413022 35.011678 19.444415
v 119.248844 0.731569 -129.158286
v -148.298320 0.281210 -140.007538
v -10.668529 8.565721 137.275325
v -94.347486 6.278049 126.434999
v 78.013724 11.193076 108.378238
v 119.856996 10.017056 -32.436231
v 181.494882 5.550856 0.553424
v -125.937714 8.251066 60.815094
v 68.228854 3.644939 144.190913
v 115.827024 0.277312 171.974550
v 169.265306 0.744572 96.777339
v -94.744278 1.483988 170.319141
v -169.227944 3.153415 40.678493
v 105.195258 12.356808 60.492998
v -62.181153 15.215137 103.819151
v 44.127721 35.943213 49.696884
v -29.485946 35.966168 38.244302
v 1.693578 42.110968 16.837540
v 20.511600 42.566649 25.512380
v -169.265306 2.911947 -34.150006
v -115.108981 10.063171 -46.559986
v -8.316737 32.469727 -35.520198
v 51.074246 34.230025 -6.774173
v -83.470570 7.334576 -98.809627
v 75.948738 14.209095 -65.717291
v 108.528011 3.757745 -97.104249
v -30.416320 4.101557 -129.672064
v 65.728590 0.000000 -171.974550
v 116.248928 12.614491 10.407455
vt 0.896729 0.335350
vt 0.896729 0.335350
vt 0.896729 0.335350
vt 0.896729 0.335350
vt 0.896729 0.335350
vt 0.896729 0.335350
vt 0.896729 0.335350
vt 0.896729 0.335350
vt 0.896729 0.335350
vt 0.896729 0.335350
vt 0.896729 0.335350
vt 0.896729 0.335350
vt 0.896729 0.335350
vt 0.896729 0.335350
vt 0.896729 0.335350
vt 0.896729 0.335350
vt 0.896729 0.335350
vt 0.896729 0.335350
vt 0.896729 0.335350
vt 0.896729 0.335350
vt 0.896729 0.335350
vt 0.896729 0.335350
vt 0.896729 0.335350
vt 0.896729 0.335350
vt 0.896729 0.335350
vt 0.896729 0.335350
vt 0.896729 0.335350
vt 0.896729 0.335350
vt 0.896729 0.335350
vt 0.896729 0.335350
vt 0.896729 0.335350
vn 0.004812 0.993674 0.112198
vn 0.004812 0.993674 0.112198
vn 0.004812 0.993674 0.112198
vn 0.034067 0.955949 0.291551
vn 0.034067 0.955949 0.291551
vn 0.034067 0.955949 0.291551
vn 0.047353 0.998083 0.039853
vn 0.047353 0.998083 0.039853
vn 0.047353 0.998083 0.039853
vn -0.041164 0.993283 0.108138
vn -0.041164 0.993283 0.108138
vn -0.041164 0.993283 0.108138
vn -0.063374 0.955676 0.287518
vn -0.063374 0.955676 0.287518
vn -0.063374 0.955676 0.287518
vn 0.041809 0.975280 0.216980
vn 0.041809 0.975280 0.216980
vn 0.041809 0.975280 0.216980
vn 0.101526 0.913225 0.394604
vn 0.101526 0.913225 0.394604
vn 0.101526 0.913225 0.394604
vn 0.140576 0.960336 0.240816
vn 0.140576 0.960336 0.240816
vn 0.140576 0.960336 0.240816
vn 0.125163 0.987573 0.095048
vn 0.125163 0.987573 0.095048
vn 0.125163 0.987573 0.095048
vn 0.140935 0.987732 0.067248
vn 0.140935 0.987732 0.067248
vn 0.140935 0.987732 0.067248
vn -0.162010 0.981110 0.105715
vn -0.162010 0.981110 0.105715
vn -0.162010 0.981110 0.105715
vn -0.187006 0.975082 0.119345
vn -0.187006 0.975082 0.119345
vn -0.187006 0.975082 0.119345
vn -0.101450 0.934249 0.341886
vn -0.101450 0.934249 0.341886
vn -0.101450 0.934249 0.341886
vn 0.145962 0.938898 0.311714
vn 0.145962 0.938898 0.311714
vn 0.145962 0.938898 0.311714
vn 0.320972 0.924710 0.204669
vn 0.320972 0.924710 0.204669
vn 0.320972 0.924710 0.204669
vn -0.166353 0.979962 0.109549
vn -0.166353 0.979962 0.109549
vn -0.166353 0.979962 0.109549
vn -0.151621 0.961616 0.228704
vn -0.151621 0.961616 0.228704
vn -0.151621 0.961616 0.228704
vn -0.230572 0.954877 0.187207
vn -0.230572 0.954877 0.187207
vn -0.230572 0.954877 0.187207
vn -0.086628 0.981833 0.168818
vn -0.086628 0.981833 0.168818
vn -0.086628 0.981833 0.168818
vn -0.092217 0.984630 0.148321
vn -0.092217 0.984630 0.148321
vn -0.092217 0.984630 0.148321
vn 0.063190 0.976563 0.205747
vn 0.063190 0.976563 0.205747
vn 0.063190 0.976563 0.205747
vn 0.214841 0.974971 0.057224
vn 0.214841 0.974971 0.057224
vn 0.214841 0.974971 0.057224
vn 0.341165 0.933569 0.109798
vn 0.341165 0.933569 0.109798
vn 0.341165 0.933569 0.109798
vn 0.266501 0.961723 0.063764
vn 0.112038 0.993256 0.029836
vn 0.209095 0.976556 0.051171
vn 0.201485 0.978575 -0.042359
vn 0.242285 0.969446 -0.038369
vn 0.099746 0.993662 -0.051842
vn -0.115502 0.993302 -0.003148
vn -0.115502 0.993302 -0.003148
vn -0.115502 0.993302 -0.003148
vn -0.130097 0.991495 0.003613
vn -0.130097 0.991495 0.003613
vn -0.130097 0.991495 0.003613
vn -0.278724 0.960298 -0.011903
vn -0.278724 0.960298 -0.011903
vn -0.278724 0.960298 -0.011903
vn -0.233165 0.970520 -0.061024
vn -0.233165 0.970520 -0.061024
vn -0.233165 0.970520 -0.061024
vn 0.194301 0.978531 -0.068738
vn 0.194301 0.978531 -0.068738
vn 0.194301 0.978531 -0.068738
vn 0.064645 0.979327 -0.191676
vn 0.064645 0.979327 -0.191676
vn 0.064645 0.979327 -0.191676
vn 0.064189 0.979180 -0.192580
vn 0.064189 0.979180 -0.192580
vn 0.064189 0.979180 -0.192580
vn 0.300818 0.949467 -0.089561
vn 0.300818 0.949467 -0.089561
vn 0.300818 0.949467 -0.089561
vn -0.179745 0.970691 -0.159531
vn -0.179745 0.970691 -0.159531
vn -0.179745 0.970691 -0.159531
vn -0.207054 0.968441 -0.138744
vn -0.207054 0.968441 -0.138744
vn -0.207054 0.968441 -0.138744
vn 0.106793 0.954311 -0.279079
vn 0.106793 0.954311 -0.279079
vn 0.106793 0.954311 -0.279079
vn 0.094956 0.946780 -0.307555
vn 0.094956 0.946780 -0.307555
vn 0.094956 0.946780 -0.307555
vn 0.252334 0.943670 -0.214045
vn 0.252334 0.943670 -0.214045
vn 0.252334 0.943670 -0.214045
vn 0.134886 0.983708 -0.118845
vn 0.134886 0.983708 -0.118845
vn 0.134886 0.983708 -0.118845
vn -0.054325 0.994912 -0.084852
vn -0.054325 0.994912 -0.084852
vn -0.054325 0.994912 -0.084852
vn -0.142613 0.988369 -0.052810
vn -0.142613 0.988369 -0.052810
vn -0.142613 0.988369 -0.052810
vn 0.189543 0.973567 -0.127438
vn 0.189543 0.973567 -0.127438
vn 0.189543 0.973567 -0.127438
vn 0.069960 0.995052 -0.070542
vn 0.069960 0.995052 -0.070542
vn 0.069960 0.995052 -0.070542
vn -0.019984 0.990219 -0.138085
vn -0.019984 0.990219 -0.138085
vn -0.019984 0.990219 -0.138085
vn -0.096478 0.959045 -0.266317
vn -0.096478 0.959045 -0.266317
vn -0.096478 0.959045 -0.266317
vn 0.022750 0.980961 -0.192870
vn 0.022750 0.980961 -0.192870
vn 0.022750 0.980961 -0.192870
vn 0.321098 0.946875 0.018002
vn 0.321098 0.946875 0.018002
vn 0.321098 0.946875 0.018002
vn -0.019732 0.989838 -0.140820
vn -0.019732 0.989838 -0.140820
vn -0.019732 0.989838 -0.140820
vn 0.022644 0.998714 -0.045369
vn 0.022644 0.998714 -0.045369
vn 0.022644 0.998714 -0.045369
vn 0.346759 0.937547 -0.027637
vn 0.242285 0.969446 -0.038369
vn 0.201485 0.978575 -0.042359
vn 0.266501 0.961723 0.063764
vn 0.209095 0.976556 0.051171
vn 0.360454 0.928957 0.084330
s off
f 14/1/1 12/2/2 11/3/3
f 14/1/4 11/3/5 5/4/6
f 11/3/7 12/2/8 13/5/9
f 14/1/10 5/4/11 6/6/12
f 6/6/13 5/4/14 17/7/15
f 11/3/16 7/8/17 5/4/18
f 5/4/19 7/8/20 1/9/21
f 11/3/22 13/5/23 7/8/24
f 7/8/25 13/5/26 16/10/27
f 13/5/28 9/11/29 16/10/30
f 15/12/31 14/1/32 6/6/33
f 6/6/34 17/7/35 10/13/36
f 5/4/37 1/9/38 17/7/39
f 1/9/40 7/8/41 18/14/42
f 18/14/43 7/8/44 16/10/45
f 6/6/46 10/13/47 15/12/48
f 17/7/49 1/9/50 19/15/51
f 17/7/52 19/15/53 10/13/54
f 1/9/55 21/16/56 19/15/57
f 19/15/58 21/16/59 20/17/60
f 1/9/61 18/14/62 21/16/63
f 21/16/64 18/14/65 2/18/66
f 18/14/67 16/10/68 2/18/69
f 16/10/70 9/11/71 31/31/72
f 8/19/73 31/31/74 9/11/75
f 15/12/76 10/13/77 22/20/78
f 10/13/79 23/21/80 22/20/81
f 10/13/82 19/15/83 23/21/84
f 19/15/85 20/17/86 23/21/87
f 21/16/88 2/18/89 25/22/90
f 20/17/91 21/16/92 25/22/93
f 20/17/94 25/22/95 24/23/96
f 2/18/97 8/19/98 25/22/99
f 20/17/100 26/24/101 23/21/102
f 20/17/103 24/23/104 26/24/105
f 24/23/106 25/22/107 27/25/108
f 24/23/109 27/25/110 29/26/111
f 25/22/112 8/19/113 27/25/114
f 8/19/115 9/11/116 28/27/117
f 23/21/118 26/24/119 4/28/120
f 22/20/121 23/21/122 4/28/123
f 27/25/124 8/19/125 28/27/126
f 28/27/127 9/11/128 3/29/129
f 26/24/130 29/26/131 4/28/132
f 26/24/133 24/23/134 29/26/135
f 29/26/136 27/25/137 3/29/138
f 27/25/139 28/27/140 3/29/141
f 29/26/142 30/30/143 4/28/144
f 29/26/145 3/29/146 30/30/147
f 2/18/148 31/31/149 8/19/150
f 16/10/151 31/31/152 2/18/153
