# This file uses meters as units for non-parametric coordinates.

v -20.818848 0.000000 23.012085
v 24.561035 0.000000 30.678558
v -25.255127 55.451462 28.165619
v 28.638062 55.451462 35.682495
v -25.543335 57.404922 -35.682434
v 27.107910 57.404922 -35.656860
v -20.818848 0.000000 -29.653809
v 22.416992 0.000000 -29.653809
v 48.653687 55.451462 -17.150116
v -49.616821 57.404922 -12.661346
v -41.906250 0.000000 -11.212402
v 41.155029 0.000000 -15.479645
v 49.616821 57.404922 16.714355
v -44.020752 57.404922 13.049896
v -36.718994 0.000000 10.619232
v 42.906128 0.000000 14.145355
v 4.827026 57.404922 25.046783
v 28.242798 59.387943 18.510498
v 26.291382 59.387943 -11.901855
v 8.272461 55.451462 -27.075439
v 9.453369 0.000000 -22.384003
v 4.190308 0.000000 20.643311
v -28.114258 59.187469 -10.447296
v -29.315796 58.936951 10.758087
v 4.169067 37.770859 20.623260
v -21.273560 41.282310 23.488800
v -36.745483 37.770859 10.630554
v -42.447144 32.214073 -11.339050
v -21.430054 30.619196 -30.484131
v 8.634033 37.770859 -22.884613
v 22.926514 41.282310 -30.363708
v 41.923950 37.770859 -15.736908
v 42.876221 29.658415 14.145203
v 24.660645 31.253288 30.797394
v 3.983276 30.989981 19.943359
v -19.969482 32.776260 22.321259
v -34.865845 30.989981 10.313293
v -39.690674 23.708015 -10.299438
v -19.969482 23.708015 -28.161102
v 7.084106 30.989981 -21.533600
v 21.472900 32.776260 -28.161102
v 38.887817 30.989981 -14.037842
v 40.441895 22.747236 13.539520
v 23.337280 22.002766 29.110535
v 1.474731 57.532909 18.738861
v -3.453613 58.063526 12.155914
v -8.356812 58.419285 -9.966919
v -19.204102 57.073402 -22.891479
vt 0.648751 0.404876
vt 0.648751 0.404876
vt 0.648751 0.404876
vt 0.657133 0.364366
vt 0.438354 0.286495
vt 0.438354 0.286495
vt 0.657133 0.364366
vt 0.657133 0.364366
vt 0.648751 0.404876
vt 0.648751 0.404876
vt 0.648751 0.404876
vt 0.648751 0.404876
vt 0.438354 0.286495
vt 0.657133 0.364366
vt 0.657133 0.364366
vt 0.438354 0.286495
vt 0.648751 0.404876
vt 0.657133 0.364366
vt 0.438354 0.286495
vt 0.648751 0.404876
vt 0.657133 0.364366
vt 0.438354 0.286495
vt 0.657133 0.364366
vt 0.648751 0.404876
vt 0.438354 0.286495
vt 0.438354 0.286495
vt 0.438354 0.286495
vt 0.438354 0.286495
vt 0.648751 0.404876
vt 0.657133 0.364366
vt 0.438354 0.286495
vt 0.438354 0.286495
vt 0.657133 0.364367
vt 0.657133 0.364366
vt 0.648751 0.404876
vt 0.648751 0.404876
vt 0.648751 0.404876
vt 0.648751 0.404876
vt 0.648751 0.404877
vt 0.648751 0.404876
vt 0.648751 0.404876
vt 0.648751 0.404876
vt 0.648751 0.404876
vt 0.648751 0.404876
vt 0.648751 0.404877
vt 0.648751 0.404876
vt 0.648751 0.404876
vt 0.657133 0.364366
vt 0.648751 0.404876
vt 0.657133 0.364366
vt 0.657133 0.364367
vt 0.648751 0.404876
vt 0.438354 0.286495
vt 0.438354 0.286495
vt 0.438354 0.286495
vt 0.438354 0.286495
vt 0.438354 0.286495
vt 0.438354 0.286495
vt 0.657133 0.364366
vt 0.657133 0.364366
vt 0.657133 0.364367
vt 0.657133 0.364367
vt 0.657133 0.364366
vt 0.657133 0.364366
vt 0.657133 0.364366
vt 0.657133 0.364366
vt 0.657133 0.364367
vt 0.657133 0.364367
vt 0.657133 0.364366
vt 0.648751 0.404876
vt 0.657133 0.364367
vt 0.648751 0.404877
vt 0.648751 0.404876
vt 0.657133 0.364366
vt 0.648751 0.404876
vt 0.657133 0.364366
vt 0.648751 0.404876
vt 0.657133 0.364366
vt 0.648751 0.404876
vt 0.657133 0.364366
vt 0.648751 0.404876
vt 0.657133 0.364366
vt 0.657133 0.364366
vt 0.648751 0.404876
vt 0.648751 0.404876
vt 0.657133 0.364366
vt 0.657133 0.364366
vt 0.648751 0.404876
vt 0.648751 0.404876
vt 0.657133 0.364366
vt 0.657133 0.364367
vt 0.648751 0.404877
vt 0.648751 0.404876
vt 0.657133 0.364366
vt 0.657133 0.364366
vt 0.657133 0.364366
vt 0.648751 0.404876
vt 0.657133 0.364366
vn 0.097222 0.020723 0.995047
vn 0.097222 0.020723 0.995047
vn 0.097222 0.020723 0.995047
vn 0.097222 0.020723 0.995047
vn 0.002414 0.986420 0.164226
vn 0.002414 0.986420 0.164226
vn 0.002414 0.986420 0.164226
vn 0.002414 0.986420 0.164226
vn 0.229565 0.048021 -0.972108
vn 0.229565 0.048021 -0.972108
vn 0.229565 0.048021 -0.972108
vn 0.229565 0.048021 -0.972108
vn 0.667437 0.090910 0.739096
vn 0.667437 0.090910 0.739096
vn 0.667437 0.090910 0.739096
vn 0.667437 0.090910 0.739096
vn -0.621931 0.038585 0.782121
vn -0.621931 0.038585 0.782121
vn -0.621931 0.038585 0.782121
vn -0.621931 0.038585 0.782121
vn -0.662495 0.080608 -0.744717
vn -0.662495 0.080608 -0.744717
vn -0.662495 0.080608 -0.744717
vn -0.662495 0.080608 -0.744717
vn 0.617024 0.067156 -0.784074
vn 0.617024 0.067156 -0.784074
vn 0.617024 0.067156 -0.784074
vn 0.617024 0.067156 -0.784073
vn 0.035509 0.999309 0.010949
vn 0.035509 0.999309 0.010949
vn 0.035509 0.999309 0.010949
vn 0.035509 0.999309 0.010949
vn -0.973518 0.070001 0.217630
vn -0.973518 0.070001 0.217630
vn -0.973518 0.070001 0.217630
vn -0.973518 0.070001 0.217630
vn 0.995086 0.088313 -0.044773
vn 0.995086 0.088313 -0.044773
vn 0.995086 0.088313 -0.044773
vn 0.995086 0.088313 -0.044773
vn 0.108415 0.969512 0.219754
vn 0.108415 0.969512 0.219754
vn 0.108415 0.969513 0.219754
vn 0.128349 0.991078 -0.035940
vn 0.128349 0.991078 -0.035940
vn 0.128349 0.991078 -0.035940
vn 0.128349 0.991078 -0.035940
vn -0.141986 0.986021 -0.087191
vn -0.141986 0.986021 -0.087191
vn -0.141986 0.986021 -0.087191
vn -0.453428 0.009190 -0.891246
vn -0.453428 0.009190 -0.891246
vn -0.453428 0.009190 -0.891246
vn -0.453428 0.009190 -0.891246
vn -0.430090 0.027008 0.902382
vn -0.430090 0.027008 0.902382
vn -0.430090 0.027008 0.902382
vn -0.430090 0.027008 0.902382
vn -0.020039 0.974421 0.223836
vn -0.020039 0.974421 0.223836
vn -0.020039 0.974421 0.223836
vn -0.059368 0.996893 0.051777
vn -0.059368 0.996893 0.051777
vn -0.059368 0.996893 0.051777
vn 0.041833 0.989527 -0.138152
vn 0.041833 0.989527 -0.138152
vn 0.041833 0.989527 -0.138152
vn 0.155326 0.984867 -0.076876
vn 0.155326 0.984868 -0.076876
vn 0.155326 0.984867 -0.076876
vn -0.074406 0.994188 -0.077808
vn -0.074406 0.994188 -0.077808
vn -0.074406 0.994188 -0.077808
vn -0.091125 0.995743 0.013853
vn -0.091125 0.995743 0.013853
vn -0.091125 0.995743 0.013853
vn -0.091125 0.995743 0.013853
vn -0.068659 0.975019 0.211244
vn -0.068659 0.975019 0.211244
vn -0.068659 0.975019 0.211244
vn 0.159306 0.985784 -0.053403
vn 0.159306 0.985784 -0.053403
vn 0.159306 0.985784 -0.053403
vn 0.096827 -0.249850 0.963431
vn 0.096827 -0.249850 0.963431
vn 0.096827 -0.249850 0.963431
vn 0.096827 -0.249850 0.963431
vn -0.583536 -0.348323 0.733592
vn -0.583536 -0.348323 0.733592
vn -0.583536 -0.348323 0.733592
vn -0.583536 -0.348323 0.733592
vn -0.919011 -0.302346 0.252993
vn -0.919011 -0.302346 0.252993
vn -0.919011 -0.302346 0.252993
vn -0.919011 -0.302346 0.252993
vn -0.668508 -0.233692 -0.706034
vn -0.668508 -0.233692 -0.706034
vn -0.668508 -0.233692 -0.706034
vn -0.668508 -0.233692 -0.706034
vn 0.255475 -0.175060 -0.950835
vn 0.255475 -0.175060 -0.950835
vn 0.255475 -0.175060 -0.950835
vn 0.255475 -0.175060 -0.950835
vn -0.399259 -0.205567 -0.893496
vn -0.399259 -0.205567 -0.893496
vn -0.399259 -0.205567 -0.893496
vn -0.399259 -0.205567 -0.893496
vn 0.569395 -0.332913 -0.751638
vn 0.569395 -0.332913 -0.751638
vn 0.569395 -0.332913 -0.751638
vn 0.569395 -0.332913 -0.751638
vn 0.957617 -0.282534 -0.056072
vn 0.957617 -0.282534 -0.056072
vn 0.957617 -0.282534 -0.056072
vn 0.957617 -0.282534 -0.056072
vn 0.654422 -0.238023 0.717689
vn 0.654422 -0.238023 0.717689
vn 0.654422 -0.238023 0.717689
vn 0.654422 -0.238023 0.717689
vn -0.442883 -0.141194 0.885392
vn -0.442883 -0.141194 0.885392
vn -0.442883 -0.141194 0.885392
vn -0.442883 -0.141194 0.885392
vn 0.092920 -0.112757 0.989268
vn 0.092920 -0.112757 0.989268
vn 0.092920 -0.112757 0.989268
vn 0.092920 -0.112757 0.989268
vn -0.599581 -0.200137 0.774886
vn -0.599581 -0.200137 0.774886
vn -0.599581 -0.200137 0.774886
vn -0.599581 -0.200137 0.774886
vn -0.915111 -0.263091 0.305542
vn -0.915111 -0.263091 0.305542
vn -0.915111 -0.263091 0.305542
vn -0.915111 -0.263091 0.305542
vn -0.642431 -0.326904 -0.693121
vn -0.642431 -0.326904 -0.693121
vn -0.642431 -0.326904 -0.693121
vn -0.642431 -0.326904 -0.693121
vn 0.292965 -0.249577 -0.922975
vn 0.292965 -0.249577 -0.922975
vn 0.292965 -0.249577 -0.922975
vn 0.292965 -0.249577 -0.922975
vn -0.418842 -0.126734 -0.899172
vn -0.418842 -0.126734 -0.899172
vn -0.418842 -0.126734 -0.899172
vn -0.418842 -0.126734 -0.899172
vn 0.547211 -0.354259 -0.758328
vn 0.547211 -0.354259 -0.758328
vn 0.547211 -0.354259 -0.758328
vn 0.547211 -0.354259 -0.758328
vn 0.914402 -0.377088 -0.147220
vn 0.914402 -0.377088 -0.147220
vn 0.914402 -0.377088 -0.147220
vn 0.914402 -0.377088 -0.147220
vn 0.648782 -0.252664 0.717804
vn 0.648782 -0.252664 0.717804
vn 0.648782 -0.252664 0.717804
vn 0.648782 -0.252664 0.717804
vn -0.462161 -0.086787 0.882539
vn -0.462161 -0.086787 0.882539
vn -0.462161 -0.086787 0.882539
vn -0.462161 -0.086787 0.882539
vn -0.068543 0.996039 0.056636
vn -0.068543 0.996039 0.056636
vn -0.068543 0.996039 0.056636
vn -0.067440 0.989189 0.130222
vn -0.067440 0.989189 0.130222
vn -0.067440 0.989189 0.130222
vn -0.035297 0.999312 0.011373
vn -0.035297 0.999312 0.011373
vn -0.035297 0.999312 0.011373
vn -0.035297 0.999312 0.011373
vn -0.007150 0.984067 -0.177656
vn -0.007150 0.984067 -0.177656
vn -0.007150 0.984067 -0.177656
vn -0.007150 0.984067 -0.177656
vn 0.058457 0.998285 -0.003098
vn 0.058457 0.998285 -0.003098
vn 0.058457 0.998285 -0.003098
s off
f 1/1/1 22/2/2 35/3/3 36/73/4
f 3/5/5 45/6/6 46/13/7 24/16/8
f 39/79/9 40/81/10 21/9/11 7/10/12
f 2/11/13 16/12/14 43/93/15 44/97/16
f 15/17/17 1/1/18 36/73/19 37/75/20
f 7/10/21 11/20/22 38/77/23 39/79/24
f 42/89/25 12/24/26 8/29/27 41/85/28
f 23/19/29 24/16/30 46/13/31 47/22/32
f 11/20/33 15/17/34 37/75/35 38/77/36
f 43/93/37 16/12/38 12/24/39 42/89/40
f 18/25/41 4/26/42 13/27/43
f 19/28/44 18/25/45 13/27/46 9/31/47
f 20/32/48 19/28/49 6/53/50
f 21/9/51 40/81/52 41/85/53 8/29/54
f 44/97/55 35/3/56 22/2/57 2/11/58
f 17/54/59 4/26/60 18/25/61
f 3/5/62 17/54/63 45/6/64
f 47/22/65 48/55/66 23/19/67
f 6/53/68 19/28/69 9/31/70
f 10/56/71 23/19/72 5/57/73
f 14/58/74 24/16/75 23/19/76 10/56/77
f 3/5/78 24/16/79 14/58/80
f 5/57/81 23/19/82 48/55/83
f 26/72/84 25/70/85 17/35/86 3/36/87
f 27/37/88 26/72/89 3/36/90 14/38/91
f 28/39/92 27/37/93 14/38/94 10/40/95
f 29/41/96 28/39/97 10/40/98 5/42/99
f 5/42/100 20/43/101 30/44/102 29/41/103
f 31/45/104 30/44/105 20/43/106 6/46/107
f 9/47/108 32/84/109 31/45/110 6/46/111
f 13/49/112 33/88/113 32/84/114 9/47/115
f 34/92/116 33/88/117 13/49/118 4/52/119
f 17/35/120 25/70/121 34/92/122 4/52/123
f 36/74/124 35/96/125 25/34/126 26/71/127
f 37/76/128 36/4/129 26/33/130 27/60/131
f 38/78/132 37/18/133 27/59/134 28/62/135
f 39/80/136 38/21/137 28/61/138 29/64/139
f 29/63/140 30/66/141 40/82/142 39/7/143
f 41/86/144 40/8/145 30/65/146 31/68/147
f 32/83/148 42/90/149 41/30/150 31/67/151
f 33/87/152 43/94/153 42/23/154 32/48/155
f 44/98/156 43/14/157 33/50/158 34/91/159
f 34/51/160 25/69/161 35/95/162 44/15/163
f 45/6/164 17/54/165 18/25/166
f 46/13/167 45/6/168 18/25/169
f 47/22/170 46/13/171 18/25/172 19/28/173
f 20/32/174 48/55/175 47/22/176 19/28/177
f 5/57/178 48/55/179 20/32/180
