# This file uses meters as units for non-parametric coordinates.

v 0.772858 25.858747 -0.742722
v 17.908737 4.985827 0.061798
v -10.502365 4.985827 -16.341274
v -10.502365 4.985827 16.464867
v 14.949295 20.112597 0.596107
v -9.655502 20.112597 -13.609440
v -7.845306 19.971668 12.846504
v 8.456161 0.195902 -16.464870
v 7.173157 0.000000 15.752411
v -17.908737 0.195675 -1.809944
vt 0.259160 0.156773
vt 0.259160 0.156773
vt 0.259160 0.156773
vt 0.259160 0.156773
vt 0.259160 0.156773
vt 0.259160 0.156773
vt 0.259159 0.156773
vt 0.259159 0.156773
vt 0.259159 0.156773
vt 0.259159 0.156773
vt 0.259160 0.156773
vt 0.259159 0.156773
vt 0.259159 0.156773
vt 0.259160 0.156773
vt 0.259159 0.156773
vt 0.259159 0.156773
vt 0.259160 0.156773
vt 0.259160 0.156773
vt 0.259160 0.156773
vt 0.259160 0.156773
vt 0.259160 0.156773
vt 0.259159 0.156773
vt 0.259159 0.156773
vt 0.259159 0.156773
vt 0.259159 0.156773
vt 0.259159 0.156773
vt 0.259159 0.156773
vn 0.359627 0.694747 -0.622893
vn 0.359627 0.694747 -0.622893
vn 0.359627 0.694747 -0.622893
vn 0.774889 0.107478 -0.622893
vn 0.774889 0.107478 -0.622893
vn 0.774889 0.107478 -0.622893
vn 0.471405 0.333333 -0.816497
vn 0.471405 0.333333 -0.816497
vn 0.471405 0.333333 -0.816497
vn 0.151996 0.107478 -0.982520
vn 0.151996 0.107478 -0.982520
vn 0.151996 0.107478 -0.982520
vn -0.719255 0.694747 0.000000
vn -0.719255 0.694747 0.000000
vn -0.719255 0.694747 0.000000
vn -0.926886 0.107478 -0.359627
vn -0.926885 0.107478 -0.359627
vn -0.926886 0.107478 -0.359627
vn -0.942809 0.333333 0.000000
vn -0.942809 0.333333 0.000000
vn -0.942809 0.333333 0.000000
vn -0.926886 0.107478 0.359627
vn -0.926886 0.107478 0.359627
vn -0.926885 0.107478 0.359627
vn 0.359627 0.694747 0.622893
vn 0.359627 0.694747 0.622893
vn 0.359627 0.694747 0.622893
vn 0.151996 0.107478 0.982520
vn 0.151996 0.107478 0.982520
vn 0.151996 0.107478 0.982520
vn 0.471405 0.333333 0.816497
vn 0.471405 0.333333 0.816497
vn 0.471405 0.333333 0.816497
vn 0.774889 0.107478 0.622893
vn 0.774889 0.107478 0.622893
vn 0.774889 0.107478 0.622893
vn 0.415262 -0.909702 -0.000000
vn 0.415262 -0.909702 -0.000000
vn 0.415262 -0.909702 -0.000000
vn -0.207631 -0.909702 0.359627
vn -0.207631 -0.909702 0.359627
vn -0.207631 -0.909702 0.359627
vn 0.000000 -1.000000 -0.000000
vn 0.000000 -1.000000 -0.000000
vn 0.000000 -1.000000 -0.000000
vn -0.207631 -0.909702 -0.359627
vn -0.207631 -0.909702 -0.359627
vn -0.207631 -0.909702 -0.359627
s off
f 1/1/1 5/2/2 6/3/3
f 5/4/4 2/5/5 8/6/6
f 5/7/7 8/8/8 6/9/9
f 6/9/10 8/8/11 3/10/12
f 1/1/13 6/3/14 7/11/15
f 6/12/16 3/13/17 10/14/18
f 6/12/19 10/14/20 7/15/21
f 7/15/22 10/14/23 4/16/24
f 1/1/25 7/11/26 5/2/27
f 7/17/28 4/18/29 9/19/30
f 7/17/31 9/19/32 5/20/33
f 5/4/34 9/21/35 2/5/36
f 2/22/37 9/23/38 8/24/39
f 9/23/40 4/25/41 10/26/42
f 9/23/43 10/26/44 8/24/45
f 8/24/46 10/26/47 3/27/48
