# This file uses meters as units for non-parametric coordinates.

v -4.988731 -20.421820 4.988763
v 4.988808 -20.421820 4.988763
v -4.988731 22.214317 4.988763
v 4.988808 22.214317 4.988763
v -4.988731 22.214317 -4.988776
v 4.988808 22.214317 -4.988776
v -4.988731 -20.421820 -4.988776
v 4.988808 -20.421820 -4.988776
v -21.908653 22.214317 21.908685
v 21.908730 22.214317 21.908685
v -21.908653 64.811552 21.908685
v 21.908730 64.811552 21.908685
v -21.908653 64.811552 -21.908698
v 21.908730 64.811552 -21.908698
v -21.908653 22.214317 -21.908698
v 21.908730 22.214317 -21.908698
vt 0.027073 0.152420
vt 0.027073 0.152420
vt 0.027073 0.152420
vt 0.027073 0.152420
vt 0.027073 0.152420
vt 0.027073 0.152420
vt 0.027073 0.152420
vt 0.027073 0.152420
vt 0.027073 0.152420
vt 0.027073 0.152420
vt 0.027073 0.152420
vt 0.027073 0.152420
vt 0.027073 0.152420
vt 0.027073 0.152420
vt 0.254316 0.154926
vt 0.254316 0.154926
vt 0.254316 0.154926
vt 0.254316 0.154926
vt 0.254316 0.154926
vt 0.254316 0.154926
vt 0.254316 0.154926
vt 0.254316 0.154926
vt 0.254316 0.154926
vt 0.254316 0.154926
vt 0.254316 0.154926
vt 0.254316 0.154926
vt 0.254316 0.154926
vt 0.254316 0.154926
vn 0.000000 0.000000 1.000000
vn 0.000000 0.000000 1.000000
vn 0.000000 0.000000 1.000000
vn 0.000000 0.000000 1.000000
vn 0.000000 0.000000 -1.000000
vn 0.000000 0.000000 -1.000000
vn 0.000000 0.000000 -1.000000
vn 0.000000 0.000000 -1.000000
vn 0.000000 -1.000000 0.000000
vn 0.000000 -1.000000 0.000000
vn 0.000000 -1.000000 0.000000
vn 0.000000 -1.000000 0.000000
vn 1.000000 0.000000 0.000000
vn 1.000000 0.000000 0.000000
vn 1.000000 0.000000 0.000000
vn 1.000000 0.000000 0.000000
vn -1.000000 0.000000 0.000000
vn -1.000000 0.000000 0.000000
vn -1.000000 0.000000 0.000000
vn -1.000000 0.000000 0.000000
vn 0.000000 0.000000 1.000000
vn 0.000000 0.000000 1.000000
vn 0.000000 0.000000 1.000000
vn 0.000000 0.000000 1.000000
vn 0.000000 1.000000 0.000000
vn 0.000000 1.000000 0.000000
vn 0.000000 1.000000 0.000000
vn 0.000000 1.000000 0.000000
vn 0.000000 0.000000 -1.000000
vn 0.000000 0.000000 -1.000000
vn 0.000000 0.000000 -1.000000
vn 0.000000 0.000000 -1.000000
vn 0.000000 -1.000000 0.000000
vn 0.000000 -1.000000 0.000000
vn 0.000000 -1.000000 0.000000
vn 0.000000 -1.000000 0.000000
vn 1.000000 0.000000 0.000000
vn 1.000000 0.000000 0.000000
vn 1.000000 0.000000 0.000000
vn 1.000000 0.000000 0.000000
vn -1.000000 0.000000 0.000000
vn -1.000000 0.000000 0.000000
vn -1.000000 0.000000 0.000000
vn -1.000000 0.000000 0.000000
s off
f 1/1/1 2/2/2 4/4/3 3/3/4
f 5/5/5 6/6/6 8/8/7 7/7/8
f 7/7/9 8/8/10 2/10/11 1/9/12
f 2/2/13 8/11/14 6/12/15 4/4/16
f 7/13/17 1/1/18 3/3/19 5/14/20
f 9/15/21 10/16/22 12/17/23 11/18/24
f 11/18/25 12/17/26 14/19/27 13/20/28
f 13/20/29 14/19/30 16/21/31 15/22/32
f 15/22/33 16/21/34 10/23/35 9/24/36
f 10/16/37 16/25/38 14/26/39 12/17/40
f 15/27/41 9/15/42 11/18/43 13/28/44
