# This file uses meters as units for non-parametric coordinates.

v -7.387695 -25.651394 4.988770
v 2.589844 -25.651394 4.988770
v -7.387695 16.984743 4.988770
v 2.589844 16.984743 4.988770
v -7.387695 16.984743 -4.988770
v 2.589844 16.984743 -4.988770
v -7.387695 -25.651394 -4.988770
v 2.589844 -25.651394 -4.988770
v -24.307617 16.984743 21.908691
v 19.509766 16.984743 21.908691
v -24.307617 67.913826 21.908691
v 19.509766 67.913826 21.908691
v -24.307617 67.913826 -21.908691
v 19.509766 67.913826 -21.908691
v -24.307617 16.984743 -21.908691
v 19.509766 16.984743 -21.908691
v 19.510010 18.848486 16.932861
v 43.628174 18.848486 16.932861
v 19.510010 45.691292 16.932861
v 43.628174 45.691292 16.932861
v 19.510010 45.691292 -16.932861
v 43.628174 45.691292 -16.932861
v 19.510010 18.848486 -16.932861
v 43.628174 18.848486 -16.932861
v -24.307373 21.728374 -14.436157
v -43.627197 21.728374 -14.436157
v -24.307373 42.811401 -14.436157
v -43.627197 42.811401 -14.436157
v -24.307373 42.811401 14.436279
v -43.627197 42.811401 14.436279
v -24.307373 21.728374 14.436279
v -43.627197 21.728374 14.436279
v 19.510010 28.086006 16.932861
v 43.628174 28.086010 16.932861
v 43.628174 28.086006 -16.932861
v 19.510010 28.086010 -16.932861
v -24.307617 23.612045 21.908691
v 19.509766 23.612041 21.908691
v 19.509766 23.612045 -21.908691
v -24.307617 23.612041 -21.908691
v -24.307373 29.582920 14.436279
v -43.627197 29.582920 14.436279
v -43.627197 29.582920 -14.436157
v -24.307373 29.582920 -14.436157
vt 0.027073 0.152420
vt 0.027073 0.152420
vt 0.027073 0.152420
vt 0.027073 0.152420
vt 0.027073 0.152420
vt 0.027073 0.152420
vt 0.027073 0.152420
vt 0.027073 0.152420
vt 0.027073 0.152420
vt 0.027073 0.152420
vt 0.027073 0.152420
vt 0.027073 0.152420
vt 0.027073 0.152420
vt 0.027073 0.152420
vt 0.254316 0.154926
vt 0.254316 0.154926
vt 0.447266 0.280609
vt 0.447266 0.280609
vt 0.447266 0.280609
vt 0.447266 0.280609
vt 0.254316 0.154926
vt 0.254316 0.154926
vt 0.254316 0.154926
vt 0.254316 0.154926
vt 0.254316 0.154926
vt 0.447266 0.280609
vt 0.254316 0.154926
vt 0.447266 0.280609
vt 0.254316 0.154926
vt 0.254316 0.154926
vt 0.447266 0.280609
vt 0.447266 0.280609
vt 0.447266 0.280609
vt 0.447266 0.280609
vt 0.254316 0.154926
vt 0.254316 0.154926
vt 0.254316 0.154926
vt 0.254316 0.154926
vt 0.254316 0.154926
vt 0.447266 0.280609
vt 0.254316 0.154926
vt 0.254316 0.154926
vt 0.447266 0.280609
vt 0.447266 0.280609
vt 0.447266 0.280609
vt 0.447266 0.280609
vt 0.254316 0.154926
vt 0.254316 0.154926
vt 0.254316 0.154926
vt 0.254316 0.154926
vt 0.254316 0.154926
vt 0.447266 0.280609
vt 0.449219 0.281311
vt 0.449219 0.281311
vt 0.449219 0.281311
vt 0.449219 0.281311
vt 0.449219 0.281307
vt 0.449219 0.281307
vt 0.449219 0.281307
vt 0.449219 0.281307
vt 0.449219 0.281307
vt 0.449219 0.281307
vt 0.449219 0.281307
vt 0.449219 0.281307
vt 0.254316 0.154926
vt 0.254316 0.154926
vt 0.254316 0.154926
vt 0.254316 0.154926
vt 0.254316 0.154926
vt 0.254316 0.154926
vt 0.254316 0.154926
vt 0.254316 0.154926
vt 0.254316 0.154926
vt 0.254316 0.154926
vt 0.254316 0.154926
vt 0.254316 0.154926
vt 0.254316 0.154926
vt 0.254316 0.154926
vt 0.254316 0.154926
vt 0.254316 0.154926
vt 0.447266 0.280609
vt 0.447266 0.280609
vt 0.447266 0.280609
vt 0.447266 0.280609
vt 0.447266 0.280609
vt 0.447266 0.280609
vt 0.447266 0.280609
vt 0.447266 0.280609
vn 0.000000 0.000000 1.000000
vn 0.000000 0.000000 1.000000
vn 0.000000 0.000000 1.000000
vn 0.000000 0.000000 1.000000
vn 0.000000 0.000000 -1.000000
vn 0.000000 0.000000 -1.000000
vn 0.000000 0.000000 -1.000000
vn 0.000000 0.000000 -1.000000
vn 0.000000 -1.000000 0.000000
vn 0.000000 -1.000000 0.000000
vn 0.000000 -1.000000 0.000000
vn 0.000000 -1.000000 0.000000
vn 1.000000 0.000000 0.000000
vn 1.000000 0.000000 0.000000
vn 1.000000 0.000000 0.000000
vn 1.000000 0.000000 0.000000
vn -1.000000 0.000000 0.000000
vn -1.000000 0.000000 0.000000
vn -1.000000 0.000000 0.000000
vn -1.000000 0.000000 0.000000
vn 0.000000 0.000000 1.000000
vn 0.000000 0.000000 1.000000
vn 0.000000 0.000000 1.000000
vn 0.000000 0.000000 1.000000
vn 0.000000 1.000000 0.000000
vn 0.000000 1.000000 0.000000
vn 0.000000 1.000000 0.000000
vn 0.000000 1.000000 0.000000
vn 0.000000 0.000000 -1.000000
vn 0.000000 0.000000 -1.000000
vn 0.000000 0.000000 -1.000000
vn 0.000000 0.000000 -1.000000
vn 0.000000 -1.000000 0.000000
vn 0.000000 -1.000000 0.000000
vn 0.000000 -1.000000 0.000000
vn 0.000000 -1.000000 0.000000
vn 1.000000 0.000000 0.000000
vn 1.000000 0.000000 0.000000
vn 1.000000 0.000000 0.000000
vn 1.000000 0.000000 0.000000
vn -1.000000 0.000000 0.000000
vn -1.000000 0.000000 0.000000
vn -1.000000 0.000000 0.000000
vn -1.000000 0.000000 0.000000
vn 0.000000 0.000000 1.000000
vn 0.000000 0.000000 1.000000
vn 0.000000 0.000000 1.000000
vn 0.000000 0.000000 1.000000
vn 0.000000 1.000000 0.000000
vn 0.000000 1.000000 0.000000
vn 0.000000 1.000000 0.000000
vn 0.000000 1.000000 0.000000
vn 0.000000 0.000000 -1.000000
vn 0.000000 0.000000 -1.000000
vn 0.000000 0.000000 -1.000000
vn 0.000000 0.000000 -1.000000
vn 0.000000 -1.000000 0.000000
vn 0.000000 -1.000000 0.000000
vn 0.000000 -1.000000 0.000000
vn 0.000000 -1.000000 0.000000
vn 1.000000 0.000000 0.000000
vn 1.000000 0.000000 0.000000
vn 1.000000 0.000000 0.000000
vn 1.000000 0.000000 0.000000
vn 0.000000 0.000000 -1.000000
vn 0.000000 0.000000 -1.000000
vn 0.000000 0.000000 -1.000000
vn 0.000000 0.000000 -1.000000
vn 0.000000 1.000000 0.000000
vn 0.000000 1.000000 0.000000
vn 0.000000 1.000000 0.000000
vn 0.000000 1.000000 0.000000
vn 0.000000 0.000000 1.000000
vn 0.000000 0.000000 1.000000
vn 0.000000 0.000000 1.000000
vn 0.000000 0.000000 1.000000
vn 0.000000 -1.000000 0.000000
vn 0.000000 -1.000000 0.000000
vn 0.000000 -1.000000 0.000000
vn 0.000000 -1.000000 0.000000
vn -1.000000 0.000000 0.000000
vn -1.000000 0.000000 0.000000
vn -1.000000 0.000000 0.000000
vn -1.000000 0.000000 0.000000
vn 0.000000 0.000000 1.000000
vn 0.000000 0.000000 1.000000
vn 0.000000 0.000000 1.000000
vn 0.000000 0.000000 1.000000
vn 1.000000 0.000000 0.000000
vn 1.000000 0.000000 0.000000
vn 1.000000 0.000000 0.000000
vn 1.000000 0.000000 0.000000
vn 0.000000 0.000000 -1.000000
vn 0.000000 0.000000 -1.000000
vn 0.000000 0.000000 -1.000000
vn 0.000000 0.000000 -1.000000
vn 0.000000 0.000000 1.000000
vn 0.000000 0.000000 1.000000
vn 0.000000 0.000000 1.000000
vn 0.000000 0.000000 1.000000
vn 1.000000 0.000000 0.000000
vn 1.000000 0.000000 0.000000
vn 1.000000 0.000000 0.000000
vn 1.000000 0.000000 0.000000
vn 0.000000 0.000000 -1.000000
vn 0.000000 0.000000 -1.000000
vn 0.000000 0.000000 -1.000000
vn 0.000000 0.000000 -1.000000
vn -1.000000 0.000000 0.000000
vn -1.000000 0.000000 0.000000
vn -1.000000 0.000000 0.000000
vn -1.000000 0.000000 0.000000
vn 0.000000 0.000000 1.000000
vn 0.000000 0.000000 1.000000
vn 0.000000 0.000000 1.000000
vn 0.000000 0.000000 1.000000
vn -1.000000 0.000000 0.000000
vn -1.000000 0.000000 0.000000
vn -1.000000 0.000000 0.000000
vn -1.000000 0.000000 0.000000
vn 0.000000 0.000000 -1.000000
vn 0.000000 0.000000 -1.000000
vn 0.000000 0.000000 -1.000000
vn 0.000000 0.000000 -1.000000
s off
f 1/1/1 2/2/2 4/4/3 3/3/4
f 5/5/5 6/6/6 8/8/7 7/7/8
f 7/7/9 8/8/10 2/10/11 1/9/12
f 2/2/13 8/11/14 6/12/15 4/4/16
f 7/13/17 1/1/18 3/3/19 5/14/20
f 37/17/21 38/18/22 12/19/23 11/20/24
f 11/53/25 12/54/26 14/55/27 13/56/28
f 13/26/29 14/28/30 39/31/31 40/32/32
f 15/22/33 16/21/34 10/23/35 9/24/36
f 38/18/37 39/31/38 14/28/39 12/19/40
f 40/32/41 37/17/42 11/20/43 13/26/44
f 33/33/45 34/34/46 20/40/47 19/43/48
f 19/57/49 20/58/50 22/59/51 21/60/52
f 21/44/53 22/45/54 35/46/55 36/52/56
f 23/36/57 24/35/58 18/37/59 17/38/60
f 34/34/61 35/46/62 22/45/63 20/40/64
f 25/41/65 26/42/66 43/79/67 44/80/68
f 27/61/69 28/62/70 30/63/71 29/64/72
f 41/76/73 42/77/74 32/47/75 31/48/76
f 31/48/77 32/47/78 26/49/79 25/50/80
f 26/42/81 32/51/82 42/78/83 43/79/84
f 17/29/85 18/30/86 34/66/87 33/65/88
f 18/30/89 24/39/90 35/68/91 34/66/92
f 36/69/93 35/67/94 24/35/95 23/36/96
f 9/15/97 10/16/98 38/71/99 37/70/100
f 10/16/101 16/25/102 39/73/103 38/71/104
f 40/74/105 39/72/106 16/21/107 15/22/108
f 15/27/109 9/15/110 37/70/111 40/75/112
f 29/81/113 30/82/114 42/83/115 41/84/116
f 43/85/117 42/83/118 30/82/119 28/86/120
f 44/87/121 43/85/122 28/86/123 27/88/124
