# This file uses meters as units for non-parametric coordinates.

v -1.952759 -2.598189 -0.611572
v -8.820374 8.046556 14.186768
v -4.329651 12.231543 11.907471
v -2.559326 8.490797 16.051514
v -0.025696 -0.802267 -1.589844
v 0.734009 -2.407572 0.188721
v -8.046936 13.831697 23.051514
v 0.789856 -3.043610 -0.944824
v -5.781006 12.497735 -10.342896
v -6.381409 15.209268 -4.079834
v -11.133362 11.912988 -6.105957
v 0.562927 -2.019178 1.421387
v -1.232361 -3.264531 0.655762
v -13.594604 19.928074 -13.001343
v 0.923889 -3.079524 -0.130371
v 13.284851 6.125070 -0.984863
v 6.984497 8.712614 -1.672363
v 9.861145 7.101996 -6.832031
v -1.164490 -2.221862 -0.358154
v -0.210999 -2.755713 -2.068359
v 16.420532 15.666285 -5.702881
v 1.023010 -3.537520 -1.059814
v 4.117981 6.813118 -14.063477
v 1.879700 9.884907 -10.127319
v -1.202454 7.874863 -13.353882
v -0.126343 -1.960002 0.961426
v -1.709290 -2.992262 -0.695557
v 1.596313 13.464066 -19.361206
v -2.264893 -3.043610 1.352539
v 8.358154 8.391576 10.443848
v 8.855713 10.386380 5.841797
v 12.333313 7.961392 7.374756
v -2.009338 -2.019177 -1.010742
v -0.223450 -3.264531 -0.223389
v 14.082275 13.857884 12.469238
v -1.572083 -3.079524 -1.269043
v -14.765747 8.062929 1.333496
v -10.705017 9.732993 1.826660
v -12.602051 8.693460 5.134033
v 0.513306 -2.221862 -1.015869
v -0.460876 -2.755713 0.682617
v -16.826477 14.221061 4.354004
v 1.151917 -0.939444 0.224121
v 7.698303 16.366739 5.762451
v 1.373596 17.224161 8.252930
v 2.230774 18.725657 2.373779
v -1.237732 -0.615438 1.165039
v -0.914001 -0.048147 -1.056152
v 7.825500 27.469370 5.550781
vt 0.260125 0.107367
vt 0.260125 0.107367
vt 0.260125 0.107367
vt 0.260125 0.107367
vt 0.260125 0.107367
vt 0.260125 0.107367
vt 0.260125 0.107367
vt 0.260125 0.107367
vt 0.260125 0.107367
vt 0.260125 0.107367
vt 0.260125 0.107367
vt 0.260125 0.107367
vt 0.260125 0.107367
vt 0.260125 0.107367
vt 0.260125 0.107367
vt 0.260125 0.107367
vt 0.260125 0.107367
vt 0.260125 0.107367
vt 0.260125 0.107367
vt 0.260125 0.107367
vt 0.260125 0.107367
vt 0.260125 0.107367
vt 0.260125 0.107367
vt 0.260125 0.107367
vt 0.260125 0.107367
vt 0.260125 0.107367
vt 0.260125 0.107367
vt 0.260125 0.107367
vt 0.260125 0.107367
vt 0.260125 0.107367
vt 0.260125 0.107367
vt 0.260125 0.107367
vt 0.260125 0.107367
vt 0.260125 0.107367
vt 0.260125 0.107367
vt 0.260125 0.107367
vt 0.260125 0.107367
vt 0.260125 0.107367
vt 0.260125 0.107367
vt 0.260125 0.107367
vt 0.260125 0.107367
vt 0.260125 0.107367
vt 0.260125 0.107367
vt 0.260125 0.107367
vt 0.260125 0.107367
vt 0.260125 0.107367
vt 0.260125 0.107367
vt 0.260125 0.107367
vt 0.260125 0.107367
vt 0.260125 0.107367
vt 0.260125 0.107367
vt 0.260125 0.107367
vt 0.260125 0.107367
vt 0.260125 0.107367
vt 0.260125 0.107367
vt 0.260125 0.107367
vt 0.260125 0.107367
vt 0.260125 0.107367
vt 0.260125 0.107367
vt 0.260125 0.107367
vt 0.260125 0.107367
vt 0.260125 0.107367
vt 0.260125 0.107367
vt 0.260125 0.107367
vt 0.260125 0.107367
vt 0.260125 0.107367
vt 0.260125 0.107367
vt 0.260125 0.107367
vt 0.260125 0.107367
vt 0.260125 0.107367
vt 0.260125 0.107367
vt 0.260125 0.107367
vt 0.260125 0.107367
vt 0.260125 0.107367
vt 0.260125 0.107367
vt 0.260125 0.107367
vt 0.260125 0.107367
vt 0.260125 0.107367
vt 0.260125 0.107367
vt 0.260125 0.107367
vt 0.260125 0.107367
vt 0.260125 0.107367
vt 0.260125 0.107367
vt 0.260125 0.107367
vn 0.926916 0.370137 -0.061857
vn 0.926916 0.370137 -0.061857
vn 0.926916 0.370137 -0.061857
vn 0.926916 0.370137 -0.061857
vn 0.257047 -0.660229 -0.705709
vn 0.257047 -0.660229 -0.705709
vn 0.257047 -0.660229 -0.705709
vn -0.104453 -0.829701 0.548349
vn -0.104453 -0.829701 0.548349
vn -0.104453 -0.829701 0.548349
vn -0.104453 -0.829701 0.548349
vn -0.684235 0.403271 -0.607614
vn -0.684235 0.403271 -0.607614
vn -0.684235 0.403271 -0.607614
vn -0.684235 0.403271 -0.607614
vn -0.104988 -0.828602 0.549906
vn -0.104988 -0.828602 0.549906
vn -0.104988 -0.828602 0.549906
vn 0.795250 0.578244 0.182240
vn 0.795250 0.578244 0.182240
vn 0.795250 0.578244 0.182240
vn -0.727771 0.601670 -0.329153
vn -0.727771 0.601670 -0.329153
vn -0.727771 0.601670 -0.329153
vn -0.449354 0.102254 0.887483
vn -0.449354 0.102254 0.887483
vn -0.449354 0.102254 0.887483
vn -0.449354 0.102254 0.887483
vn 0.403437 -0.824951 0.395847
vn 0.403437 -0.824951 0.395847
vn 0.403437 -0.824951 0.395847
vn -0.458549 -0.593723 -0.661230
vn -0.458549 -0.593723 -0.661230
vn -0.458549 -0.593723 -0.661230
vn -0.458549 -0.593723 -0.661230
vn 0.932526 0.355310 -0.064422
vn 0.932526 0.355310 -0.064422
vn 0.932526 0.355310 -0.064422
vn 0.932526 0.355310 -0.064422
vn -0.418979 -0.662679 -0.620736
vn -0.418979 -0.662679 -0.620736
vn -0.418979 -0.662679 -0.620737
vn -0.585830 0.417623 0.694545
vn -0.585830 0.417624 0.694545
vn -0.585830 0.417624 0.694545
vn 0.710509 0.668047 -0.221112
vn 0.710509 0.668047 -0.221112
vn 0.710509 0.668047 -0.221112
vn -0.705808 0.461401 -0.537536
vn -0.705808 0.461401 -0.537536
vn -0.705808 0.461401 -0.537536
vn -0.705808 0.461401 -0.537536
vn -0.385627 -0.919831 0.072133
vn -0.385627 -0.919831 0.072133
vn -0.385627 -0.919831 0.072133
vn 0.520493 -0.738735 -0.428202
vn 0.520493 -0.738735 -0.428202
vn 0.520493 -0.738735 -0.428202
vn 0.520494 -0.738735 -0.428202
vn -0.045167 0.152317 0.987299
vn -0.045167 0.152317 0.987299
vn -0.045167 0.152317 0.987299
vn -0.045167 0.152317 0.987299
vn 0.717690 -0.483620 -0.501032
vn 0.717690 -0.483620 -0.501032
vn 0.717690 -0.483620 -0.501032
vn -0.638016 0.558542 -0.530062
vn -0.638016 0.558542 -0.530062
vn -0.638016 0.558542 -0.530062
vn 0.074795 0.422156 0.903432
vn 0.074795 0.422156 0.903433
vn 0.074795 0.422156 0.903432
vn -0.758218 0.509398 0.406962
vn -0.758218 0.509398 0.406962
vn -0.758218 0.509399 0.406962
vn -0.758218 0.509398 0.406962
vn -0.083508 -0.808046 0.583170
vn -0.083508 -0.808046 0.583170
vn -0.083508 -0.808046 0.583170
vn -0.231593 -0.733521 -0.638993
vn -0.231593 -0.733521 -0.638993
vn -0.231593 -0.733521 -0.638993
vn -0.231593 -0.733521 -0.638993
vn 0.909851 0.190834 0.368449
vn 0.909851 0.190834 0.368449
vn 0.909851 0.190834 0.368449
vn 0.909851 0.190834 0.368449
vn -0.227066 -0.657988 -0.717979
vn -0.227066 -0.657988 -0.717979
vn -0.227066 -0.657988 -0.717979
vn -0.709691 0.649280 0.273448
vn -0.709692 0.649280 0.273448
vn -0.709691 0.649280 0.273448
vn 0.879909 0.451503 0.148003
vn 0.879909 0.451503 0.148003
vn 0.879909 0.451503 0.148003
vn 0.454402 0.091474 -0.886088
vn 0.454402 0.091474 -0.886088
vn 0.454402 0.091474 -0.886088
vn 0.454402 0.091474 -0.886088
vn -0.398605 -0.824955 -0.400704
vn -0.398605 -0.824955 -0.400704
vn -0.398605 -0.824955 -0.400704
vn 0.344355 -0.759098 0.552440
vn 0.344355 -0.759098 0.552440
vn 0.344355 -0.759098 0.552440
vn 0.344355 -0.759098 0.552440
vn -0.786224 0.593454 0.172233
vn -0.786224 0.593454 0.172233
vn -0.786224 0.593454 0.172233
vn -0.786224 0.593454 0.172233
vn 0.411420 -0.662684 0.625766
vn 0.411420 -0.662684 0.625766
vn 0.411420 -0.662684 0.625766
vn 0.594222 0.417630 -0.687376
vn 0.594222 0.417630 -0.687376
vn 0.594222 0.417630 -0.687376
vn -0.713139 0.668049 0.212470
vn -0.713139 0.668049 0.212470
vn -0.713139 0.668049 0.212470
vn 0.672682 0.501984 0.543609
vn 0.672682 0.501984 0.543609
vn 0.672682 0.501984 0.543609
vn 0.672682 0.501984 0.543609
vn 0.386486 -0.919826 -0.067438
vn 0.386486 -0.919826 -0.067438
vn 0.386486 -0.919826 -0.067438
vn -0.533606 -0.731132 0.425100
vn -0.533606 -0.731132 0.425100
vn -0.533606 -0.731132 0.425100
vn -0.533606 -0.731132 0.425100
vn 0.016535 0.245946 -0.969143
vn 0.016535 0.245946 -0.969142
vn 0.016535 0.245946 -0.969142
vn 0.016535 0.245946 -0.969143
vn -0.723723 -0.483634 0.492263
vn -0.723723 -0.483634 0.492263
vn -0.723723 -0.483634 0.492263
vn 0.631531 0.558532 0.537783
vn 0.631531 0.558532 0.537783
vn 0.631531 0.558532 0.537783
vn -0.063810 0.422180 -0.904264
vn -0.063810 0.422180 -0.904264
vn -0.063810 0.422180 -0.904264
vn -0.978658 0.181525 -0.096313
vn -0.978658 0.181525 -0.096313
vn -0.978658 0.181525 -0.096313
vn -0.978658 0.181525 -0.096313
vn -0.233823 -0.933326 -0.272450
vn -0.233823 -0.933326 -0.272450
vn -0.233823 -0.933326 -0.272450
vn 0.544839 0.061526 -0.836280
vn 0.544839 0.061526 -0.836280
vn 0.544839 0.061526 -0.836280
vn 0.544839 0.061526 -0.836280
vn 0.291184 -0.389743 0.873677
vn 0.291184 -0.389743 0.873677
vn 0.291184 -0.389743 0.873677
vn 0.291184 -0.389743 0.873677
vn 0.519726 -0.022236 -0.854043
vn 0.519726 -0.022236 -0.854043
vn 0.519726 -0.022236 -0.854043
vn -0.844486 0.535404 0.013613
vn -0.844486 0.535404 0.013613
vn -0.844486 0.535404 0.013613
vn 0.367940 0.013510 0.929752
vn 0.367940 0.013510 0.929752
vn 0.367940 0.013510 0.929752
s off
f 3/1/1 4/2/2 6/3/3 5/4/4
f 5/4/5 6/3/6 1/5/7
f 1/6/8 6/7/9 4/8/10 2/9/11
f 5/10/12 1/6/13 2/9/14 3/11/15
f 2/9/16 4/2/17 7/12/18
f 4/2/19 3/1/20 7/12/21
f 3/1/22 2/9/23 7/12/24
f 10/13/25 11/14/26 13/15/27 12/16/28
f 12/16/29 13/15/30 8/17/31
f 8/18/32 13/19/33 11/20/34 9/21/35
f 12/22/36 8/18/37 9/21/38 10/23/39
f 9/21/40 11/14/41 14/24/42
f 11/14/43 10/13/44 14/24/45
f 10/13/46 9/21/47 14/24/48
f 17/25/49 18/26/50 20/27/51 19/28/52
f 19/28/53 20/27/54 15/29/55
f 15/30/56 20/31/57 18/32/58 16/33/59
f 19/34/60 15/30/61 16/33/62 17/35/63
f 16/33/64 18/26/65 21/36/66
f 18/26/67 17/25/68 21/36/69
f 17/25/70 16/33/71 21/36/72
f 24/37/73 25/38/74 27/39/75 26/40/76
f 26/40/77 27/39/78 22/41/79
f 22/42/80 27/43/81 25/44/82 23/45/83
f 26/46/84 22/42/85 23/45/86 24/47/87
f 23/45/88 25/38/89 28/48/90
f 25/38/91 24/37/92 28/48/93
f 24/37/94 23/45/95 28/48/96
f 31/49/97 32/50/98 34/51/99 33/52/100
f 33/52/101 34/51/102 29/53/103
f 29/54/104 34/55/105 32/56/106 30/57/107
f 33/58/108 29/54/109 30/57/110 31/59/111
f 30/57/112 32/50/113 35/60/114
f 32/50/115 31/49/116 35/60/117
f 31/49/118 30/57/119 35/60/120
f 38/61/121 39/62/122 41/63/123 40/64/124
f 40/64/125 41/63/126 36/65/127
f 36/66/128 41/67/129 39/68/130 37/69/131
f 40/70/132 36/66/133 37/69/134 38/71/135
f 37/69/136 39/62/137 42/72/138
f 39/62/139 38/61/140 42/72/141
f 38/61/142 37/69/143 42/72/144
f 45/73/145 46/74/146 48/75/147 47/76/148
f 47/76/149 48/75/150 43/77/151
f 43/78/152 48/79/153 46/80/154 44/81/155
f 47/82/156 43/78/157 44/81/158 45/83/159
f 44/81/160 46/74/161 49/84/162
f 46/74/163 45/73/164 49/84/165
f 45/73/166 44/81/167 49/84/168
