# This file uses meters as units for non-parametric coordinates.

v -130.269043 -70.575134 105.496216
v 130.269104 -70.575134 105.496216
v -130.269043 -19.977959 105.496216
v 130.269104 -19.977959 105.496216
v -130.269043 -19.977959 -105.496216
v 130.269104 -19.977959 -105.496216
v -130.269043 -70.575134 -105.496216
v 130.269104 -70.575134 -105.496216
v -92.936646 -19.977959 75.263184
v 67.843872 -19.977959 75.263184
v -92.936646 25.298584 75.263184
v 67.843872 25.298584 75.263184
v -92.936646 25.298584 -75.263184
v 67.843872 25.298584 -75.263184
v -92.936646 -19.977959 -75.263184
v 67.843872 -19.977959 -75.263184
v -52.375488 25.298592 42.415405
v 35.392212 25.298592 42.415405
v -52.375488 70.575142 42.415405
v 35.392212 70.575142 42.415405
v -52.375488 70.575142 -42.415405
v 35.392212 70.575142 -42.415405
v -52.375488 25.298592 -42.415405
v 35.392212 25.298592 -42.415405
v -103.376160 -70.575134 153.213013
v -10.672180 -70.575134 153.213013
v -103.376160 -29.344437 153.213013
v -10.672180 -29.344437 153.213013
v -103.376160 -29.344437 105.496216
v -10.672180 -29.344437 105.496216
v -103.376160 -70.575134 105.496216
v -10.672180 -70.575134 105.496216
v 103.264771 -70.575134 -153.213013
v 10.560852 -70.575134 -153.213013
v 103.264771 -29.344437 -153.213013
v 10.560852 -29.344437 -153.213013
v 103.264771 -29.344437 -105.496338
v 10.560852 -29.344437 -105.496338
v 103.264771 -70.575134 -105.496338
v 10.560852 -70.575134 -105.496338
vt 0.709885 0.488632
vt 0.709885 0.488632
vt 0.709885 0.488632
vt 0.709885 0.488632
vt 0.709885 0.488632
vt 0.709885 0.488632
vt 0.709885 0.488632
vt 0.709885 0.488632
vt 0.709885 0.488632
vt 0.709885 0.488632
vt 0.709885 0.488632
vt 0.709885 0.488632
vt 0.709885 0.488632
vt 0.709885 0.488632
vt 0.709885 0.488632
vt 0.709885 0.488632
vt 0.709885 0.488632
vt 0.709885 0.488632
vt 0.709885 0.488632
vt 0.709885 0.488632
vt 0.709885 0.488632
vt 0.709885 0.488632
vt 0.709885 0.488632
vt 0.709885 0.488632
vt 0.709885 0.488632
vt 0.709885 0.488632
vt 0.709885 0.488632
vt 0.709885 0.488632
vt 0.709885 0.488632
vt 0.709885 0.488632
vt 0.709885 0.488632
vt 0.709885 0.488632
vt 0.709885 0.488632
vt 0.709885 0.488632
vt 0.709885 0.488632
vt 0.709885 0.488632
vt 0.709885 0.488632
vt 0.709885 0.488632
vt 0.709885 0.488632
vt 0.709885 0.488632
vt 0.709885 0.488632
vt 0.709885 0.488632
vt 0.709885 0.488632
vt 0.709885 0.488632
vt 0.709885 0.488632
vt 0.709885 0.488632
vt 0.709885 0.488632
vt 0.709885 0.488632
vt 0.709885 0.488632
vt 0.709885 0.488632
vt 0.709885 0.488632
vt 0.709885 0.488632
vt 0.709885 0.488632
vt 0.709885 0.488632
vt 0.709885 0.488632
vt 0.709885 0.488632
vt 0.709885 0.488632
vt 0.709885 0.488632
vt 0.709885 0.488632
vt 0.709885 0.488632
vt 0.709885 0.488632
vt 0.709885 0.488632
vt 0.709885 0.488632
vt 0.709885 0.488632
vt 0.709885 0.488632
vt 0.709885 0.488632
vn 0.000000 0.000000 1.000000
vn 0.000000 0.000000 1.000000
vn 0.000000 0.000000 1.000000
vn 0.000000 0.000000 1.000000
vn 0.000000 1.000000 0.000000
vn 0.000000 1.000000 0.000000
vn 0.000000 1.000000 0.000000
vn 0.000000 1.000000 0.000000
vn 0.000000 0.000000 -1.000000
vn 0.000000 0.000000 -1.000000
vn 0.000000 0.000000 -1.000000
vn 0.000000 0.000000 -1.000000
vn 0.000000 -1.000000 0.000000
vn 0.000000 -1.000000 0.000000
vn 0.000000 -1.000000 0.000000
vn 0.000000 -1.000000 0.000000
vn 1.000000 0.000000 0.000000
vn 1.000000 0.000000 0.000000
vn 1.000000 0.000000 0.000000
vn 1.000000 0.000000 0.000000
vn -1.000000 0.000000 0.000000
vn -1.000000 0.000000 0.000000
vn -1.000000 0.000000 0.000000
vn -1.000000 0.000000 0.000000
vn 0.000000 0.000000 1.000000
vn 0.000000 0.000000 1.000000
vn 0.000000 0.000000 1.000000
vn 0.000000 0.000000 1.000000
vn 0.000000 1.000000 0.000000
vn 0.000000 1.000000 0.000000
vn 0.000000 1.000000 0.000000
vn 0.000000 1.000000 0.000000
vn 0.000000 0.000000 -1.000000
vn 0.000000 0.000000 -1.000000
vn 0.000000 0.000000 -1.000000
vn 0.000000 0.000000 -1.000000
vn 1.000000 0.000000 0.000000
vn 1.000000 0.000000 0.000000
vn 1.000000 0.000000 0.000000
vn 1.000000 0.000000 0.000000
vn -1.000000 0.000000 0.000000
vn -1.000000 0.000000 0.000000
vn -1.000000 0.000000 0.000000
vn -1.000000 0.000000 0.000000
vn 0.000000 0.000000 1.000000
vn 0.000000 0.000000 1.000000
vn 0.000000 0.000000 1.000000
vn 0.000000 0.000000 1.000000
vn 0.000000 1.000000 0.000000
vn 0.000000 1.000000 0.000000
vn 0.000000 1.000000 0.000000
vn 0.000000 1.000000 0.000000
vn 0.000000 0.000000 -1.000000
vn 0.000000 0.000000 -1.000000
vn 0.000000 0.000000 -1.000000
vn 0.000000 0.000000 -1.000000
vn 1.000000 0.000000 0.000000
vn 1.000000 0.000000 0.000000
vn 1.000000 0.000000 0.000000
vn 1.000000 0.000000 0.000000
vn -1.000000 0.000000 0.000000
vn -1.000000 0.000000 0.000000
vn -1.000000 0.000000 0.000000
vn -1.000000 0.000000 0.000000
vn 0.000000 0.000000 1.000000
vn 0.000000 0.000000 1.000000
vn 0.000000 0.000000 1.000000
vn 0.000000 0.000000 1.000000
vn 0.000000 1.000000 0.000000
vn 0.000000 1.000000 0.000000
vn 0.000000 1.000000 0.000000
vn 0.000000 1.000000 0.000000
vn 0.000000 -1.000000 0.000000
vn 0.000000 -1.000000 0.000000
vn 0.000000 -1.000000 0.000000
vn 0.000000 -1.000000 0.000000
vn 1.000000 0.000000 0.000000
vn 1.000000 0.000000 0.000000
vn 1.000000 0.000000 0.000000
vn 1.000000 0.000000 0.000000
vn -1.000000 0.000000 0.000000
vn -1.000000 0.000000 0.000000
vn -1.000000 0.000000 0.000000
vn -1.000000 0.000000 0.000000
vn 0.000000 0.000000 -1.000000
vn 0.000000 0.000000 -1.000000
vn 0.000000 0.000000 -1.000000
vn 0.000000 0.000000 -1.000000
vn 0.000000 1.000000 0.000000
vn 0.000000 1.000000 0.000000
vn 0.000000 1.000000 0.000000
vn 0.000000 1.000000 0.000000
vn 0.000000 -1.000000 0.000000
vn 0.000000 -1.000000 0.000000
vn 0.000000 -1.000000 0.000000
vn 0.000000 -1.000000 0.000000
vn -1.000000 0.000000 0.000000
vn -1.000000 0.000000 0.000000
vn -1.000000 0.000000 0.000000
vn -1.000000 0.000000 0.000000
vn 1.000000 0.000000 0.000000
vn 1.000000 0.000000 0.000000
vn 1.000000 0.000000 0.000000
vn 1.000000 0.000000 0.000000
s off
f 1/1/1 2/2/2 4/4/3 3/3/4
f 3/3/5 4/4/6 6/6/7 5/5/8
f 5/5/9 6/6/10 8/8/11 7/7/12
f 7/7/13 8/8/14 2/10/15 1/9/16
f 2/2/17 8/11/18 6/12/19 4/4/20
f 7/13/21 1/1/22 3/3/23 5/14/24
f 9/15/25 10/16/26 12/17/27 11/18/28
f 11/18/29 12/17/30 14/19/31 13/20/32
f 13/20/33 14/19/34 16/21/35 15/22/36
f 10/16/37 16/23/38 14/24/39 12/17/40
f 15/25/41 9/15/42 11/18/43 13/26/44
f 17/27/45 18/28/46 20/29/47 19/30/48
f 19/30/49 20/29/50 22/31/51 21/32/52
f 21/32/53 22/31/54 24/33/55 23/34/56
f 18/28/57 24/35/58 22/36/59 20/29/60
f 23/37/61 17/27/62 19/30/63 21/38/64
f 25/39/65 26/40/66 28/41/67 27/42/68
f 27/42/69 28/41/70 30/43/71 29/44/72
f 31/45/73 32/46/74 26/47/75 25/48/76
f 26/40/77 32/49/78 30/50/79 28/41/80
f 31/51/81 25/39/82 27/42/83 29/52/84
f 33/53/85 34/54/86 36/55/87 35/56/88
f 35/56/89 36/55/90 38/57/91 37/58/92
f 39/59/93 40/60/94 34/61/95 33/62/96
f 34/54/97 40/63/98 38/64/99 36/55/100
f 39/65/101 33/53/102 35/56/103 37/66/104
