# This file uses meters as units for non-parametric coordinates.

v -18.501099 18.678040 44.520264
v 28.290405 10.939718 44.520264
v -35.734863 10.939718 -41.329346
v 29.075073 10.939718 -44.520264
v -39.913330 10.939718 -25.216797
v 39.219849 18.678040 -29.531006
v -37.572266 19.402666 37.811279
v 44.372192 10.939718 36.948975
v 7.357422 18.678040 -39.687988
v 4.717529 10.939718 40.515381
v -47.796997 0.000000 33.862305
v -1.813965 0.000000 24.079468
v 6.412476 0.000000 45.311035
v -34.841919 0.000000 49.790039
v -36.146484 0.000000 -49.790039
v -2.335938 0.000000 -44.001831
v -9.365112 0.000000 -7.289185
v -49.965088 0.000000 -27.506958
v 44.266846 0.000000 -49.790039
v 50.492920 -0.000000 -32.340698
v 49.593262 0.000000 35.964844
v 42.962280 0.000000 49.790039
v -11.655899 41.149334 29.819719
v 3.895962 35.966209 27.137245
v 3.079478 57.942272 1.132415
v 5.664165 41.149334 -26.583061
v -23.199099 35.966209 -27.682444
v 19.685101 35.966209 29.819719
v 30.456697 35.966209 24.748461
v -24.429787 41.634697 25.326040
v -25.997835 35.966209 -16.890240
v 27.005651 41.149334 -19.779902
v 20.210670 35.966209 -29.819719
vt 0.896440 0.322098
vt 0.896440 0.322098
vt 0.896440 0.322098
vt 0.896440 0.322098
vt 0.896440 0.322098
vt 0.896440 0.322098
vt 0.896440 0.322098
vt 0.896440 0.322098
vt 0.896440 0.322098
vt 0.896440 0.322098
vt 0.896440 0.322098
vt 0.896440 0.322098
vt 0.896440 0.322098
vt 0.896440 0.322098
vt 0.896440 0.322098
vt 0.896440 0.322098
vt 0.896440 0.322098
vt 0.896440 0.322098
vt 0.896440 0.322098
vt 0.896440 0.322098
vt 0.896440 0.322098
vt 0.896440 0.322098
vt 0.896440 0.322098
vt 0.896440 0.322098
vt 0.896440 0.322098
vt 0.896440 0.322098
vt 0.896440 0.322098
vt 0.896440 0.322098
vt 0.896440 0.322098
vt 0.896440 0.322098
vt 0.896440 0.322098
vt 0.896440 0.322098
vt 0.896440 0.322098
vt 0.896440 0.322098
vt 0.896440 0.322098
vt 0.896440 0.322098
vt 0.896440 0.322098
vt 0.896440 0.322098
vt 0.896440 0.322098
vt 0.896440 0.322098
vt 0.896440 0.322098
vt 0.896440 0.322098
vt 0.896440 0.322098
vt 0.896440 0.322098
vt 0.896440 0.322098
vt 0.896440 0.322098
vt 0.896440 0.322098
vt 0.896440 0.322098
vt 0.896440 0.322098
vt 0.896440 0.322098
vt 0.896440 0.322098
vt 0.896440 0.322098
vt 0.896440 0.322098
vt 0.896440 0.322098
vt 0.896440 0.322098
vt 0.896440 0.322098
vt 0.896440 0.322098
vt 0.896440 0.322098
vt 0.896440 0.322098
vt 0.896440 0.322098
vt 0.896440 0.322098
vt 0.896440 0.322098
vt 0.896440 0.322098
vt 0.896440 0.322098
vt 0.896440 0.322098
vt 0.896440 0.322098
vt 0.896440 0.322098
vt 0.896440 0.322098
vt 0.896440 0.322098
vt 0.896440 0.322098
vt 0.896440 0.322098
vt 0.896440 0.322098
vn 0.000000 -1.000000 0.000000
vn 0.000000 -1.000000 0.000000
vn 0.000000 -1.000000 0.000000
vn 0.000000 -1.000000 0.000000
vn 0.000000 -1.000000 0.000000
vn 0.000000 -1.000000 0.000000
vn 0.000000 -1.000000 0.000000
vn 0.000000 -1.000000 0.000000
vn 0.000000 -1.000000 0.000000
vn 0.000000 -1.000000 0.000000
vn 0.000000 -1.000000 0.000000
vn 0.000000 -1.000000 0.000000
vn -0.000000 -1.000000 -0.000000
vn -0.000000 -1.000000 -0.000000
vn -0.000000 -1.000000 -0.000000
vn -0.000000 -1.000000 -0.000000
vn -0.000000 -1.000000 0.000000
vn -0.000000 -1.000000 0.000000
vn -0.000000 -1.000000 0.000000
vn -0.000000 -1.000000 0.000000
vn 0.000000 -1.000000 0.000000
vn 0.000000 -1.000000 0.000000
vn 0.000000 -1.000000 0.000000
vn 0.000000 -1.000000 0.000000
vn 0.155590 0.248014 0.956180
vn 0.155590 0.248014 0.956180
vn 0.155590 0.248014 0.956180
vn 0.155590 0.248014 0.956180
vn -0.524959 0.392413 0.755268
vn -0.524959 0.392413 0.755268
vn -0.524959 0.392413 0.755268
vn -0.524959 0.392413 0.755268
vn 0.050871 0.380848 -0.923237
vn 0.050871 0.380848 -0.923237
vn 0.050871 0.380848 -0.923237
vn 0.050871 0.380848 -0.923237
vn -0.762107 0.539988 -0.357220
vn -0.762107 0.539988 -0.357220
vn -0.762107 0.539988 -0.357220
vn -0.762107 0.539988 -0.357220
vn -0.830677 0.556701 -0.007763
vn -0.830677 0.556701 -0.007763
vn -0.830677 0.556701 -0.007763
vn -0.830677 0.556701 -0.007763
vn -0.115425 0.286342 -0.951150
vn -0.115425 0.286342 -0.951150
vn -0.115425 0.286342 -0.951150
vn -0.115425 0.286342 -0.951150
vn 0.596964 0.658448 -0.458346
vn 0.596964 0.658448 -0.458346
vn 0.596964 0.658448 -0.458346
vn 0.596964 0.658448 -0.458346
vn 0.873678 0.486505 0.000365
vn 0.873678 0.486505 0.000365
vn 0.873678 0.486505 0.000365
vn 0.873678 0.486505 0.000365
vn 0.544347 0.608107 0.577834
vn 0.544347 0.608107 0.577834
vn 0.544347 0.608107 0.577834
vn 0.544347 0.608107 0.577834
vn -0.131840 0.331197 0.934306
vn -0.131840 0.331197 0.934306
vn -0.131839 0.331197 0.934306
vn -0.131839 0.331197 0.934306
vn 0.344206 0.722420 0.599693
vn 0.344207 0.722420 0.599693
vn 0.344206 0.722420 0.599693
vn -0.131361 0.842369 -0.522646
vn -0.131361 0.842369 -0.522646
vn -0.131361 0.842369 -0.522646
vn 0.235960 0.832545 0.501191
vn 0.235960 0.832545 0.501191
vn 0.235960 0.832545 0.501191
vn -0.125583 0.882952 0.452355
vn -0.125583 0.882952 0.452355
vn -0.125583 0.882952 0.452355
vn -0.540267 0.829748 -0.140107
vn -0.540267 0.829748 -0.140107
vn -0.540267 0.829748 -0.140107
vn 0.132494 0.841338 -0.524020
vn 0.132494 0.841338 -0.524020
vn 0.132494 0.841338 -0.524020
vn -0.564775 0.820412 -0.089181
vn -0.564775 0.820412 -0.089181
vn -0.564775 0.820412 -0.089181
vn 0.600693 0.798135 0.046348
vn 0.600693 0.798135 0.046348
vn 0.600693 0.798135 0.046348
vn 0.191635 0.847225 -0.495466
vn 0.191635 0.847225 -0.495466
vn 0.191635 0.847225 -0.495466
vn -0.109342 0.757517 0.643593
vn -0.109342 0.757517 0.643593
vn -0.109342 0.757517 0.643593
vn 0.297089 0.457712 0.837997
vn 0.297089 0.457712 0.837997
vn 0.297089 0.457712 0.837997
vn 0.297089 0.457712 0.837997
vn -0.056825 0.499763 -0.864296
vn -0.056825 0.499763 -0.864296
vn -0.056825 0.499763 -0.864296
vn -0.056825 0.499763 -0.864296
vn 0.352574 0.561126 0.748885
vn 0.352574 0.561126 0.748885
vn 0.352574 0.561126 0.748885
vn 0.352574 0.561126 0.748885
vn -0.250022 0.582251 0.773610
vn -0.250022 0.582251 0.773610
vn -0.250022 0.582251 0.773610
vn -0.250022 0.582251 0.773610
vn -0.822046 0.528010 -0.213181
vn -0.822046 0.528010 -0.213181
vn -0.822046 0.528010 -0.213181
vn -0.822046 0.528010 -0.213181
vn 0.520832 0.561948 -0.642611
vn 0.520832 0.561948 -0.642611
vn 0.520832 0.561948 -0.642611
vn 0.520832 0.561948 -0.642611
vn -0.868609 0.494323 -0.034111
vn -0.868609 0.494323 -0.034111
vn -0.868609 0.494323 -0.034111
vn -0.868609 0.494323 -0.034111
vn 0.876367 0.481498 -0.011874
vn 0.876367 0.481498 -0.011874
vn 0.876367 0.481498 -0.011874
vn 0.876367 0.481498 -0.011874
vn -0.013060 0.502998 -0.864189
vn -0.013060 0.502998 -0.864189
vn -0.013060 0.502998 -0.864189
vn -0.013060 0.502998 -0.864189
vn -0.148511 0.462406 0.874143
vn -0.148511 0.462406 0.874143
vn -0.148511 0.462406 0.874143
vn -0.148511 0.462406 0.874143
s off
f 11/1/1 12/2/2 13/3/3 14/4/4
f 15/5/5 16/6/6 17/7/7 18/8/8
f 18/8/9 17/7/10 12/2/11 11/1/12
f 17/7/13 16/6/14 19/9/15 20/10/16
f 12/2/17 17/7/18 20/10/19 21/11/20
f 13/3/21 12/2/22 21/11/23 22/12/24
f 10/13/25 1/14/26 14/4/27 13/3/28
f 1/14/29 7/15/30 11/1/31 14/4/32
f 3/16/33 9/17/34 16/6/35 15/5/36
f 5/18/37 3/16/38 15/5/39 18/8/40
f 7/15/41 5/18/42 18/8/43 11/1/44
f 9/17/45 4/19/46 19/9/47 16/6/48
f 4/19/49 6/20/50 20/10/51 19/9/52
f 6/20/53 8/21/54 21/11/55 20/10/56
f 8/21/57 2/22/58 22/12/59 21/11/60
f 2/22/61 10/13/62 13/3/63 22/12/64
f 23/53/65 24/54/66 25/25/67
f 26/55/68 27/56/69 25/28/70
f 28/57/71 29/58/72 25/31/73
f 30/59/74 23/60/75 25/34/76
f 27/61/77 31/62/78 25/37/79
f 32/63/80 33/64/81 25/40/82
f 31/65/83 30/66/84 25/43/85
f 29/67/86 32/68/87 25/46/88
f 33/69/89 26/70/90 25/49/91
f 24/71/92 28/72/93 25/52/94
f 1/23/95 10/24/96 24/54/97 23/53/98
f 9/26/99 3/27/100 27/56/101 26/55/102
f 2/29/103 8/30/104 29/58/105 28/57/106
f 7/32/107 1/33/108 23/60/109 30/59/110
f 3/35/111 5/36/112 31/62/113 27/61/114
f 6/38/115 4/39/116 33/64/117 32/63/118
f 5/41/119 7/42/120 30/66/121 31/65/122
f 8/44/123 6/45/124 32/68/125 29/67/126
f 4/47/127 9/48/128 26/70/129 33/69/130
f 10/50/131 2/51/132 28/72/133 24/71/134
