# This file uses meters as units for non-parametric coordinates.

v 4.287603 -6.004856 -31.530273
v -88.150444 4.486541 28.558105
v 66.530174 30.894573 40.338379
v 136.369080 25.293118 46.827698
v 119.571716 46.426682 43.968262
v 100.403938 32.054520 -8.973999
v -16.763969 -10.181323 38.443176
v 62.548698 -17.585453 47.513428
v 144.495651 -11.808184 -19.402527
v 153.387207 -6.762228 77.459656
v -81.319595 -7.493380 -24.788513
v 42.159973 -9.507601 32.027893
v 182.311966 0.146477 53.326294
v -49.924431 -10.952917 -21.689575
v 153.148315 -24.284439 9.201477
v 74.920296 -1.293907 -40.358765
v 170.484268 -6.421484 73.603149
v 126.426712 63.776691 20.665283
v -35.015373 -19.987640 -10.262878
v 86.382011 -29.106602 -1.711548
v 14.969172 -23.895094 13.184509
v 140.343979 -25.509148 23.038269
v 112.479141 -0.917277 54.504883
v 102.208000 -8.037086 -17.266357
v -111.513702 -13.272296 43.613098
v 29.276896 -17.926517 -22.953064
v -64.548294 -9.256107 34.970825
v -102.749733 -1.542679 48.812561
v -29.935865 9.888292 -29.216187
v -94.660416 6.649954 -12.261841
v 65.560570 9.544355 53.474854
v 164.735123 -2.583122 27.255493
v 146.462418 22.357199 10.230286
v -125.609352 -6.891610 36.906677
v -110.202026 10.007402 25.542786
v -6.485731 5.217856 23.928345
v 66.271797 47.129631 -10.675781
v -38.460258 26.293339 30.467773
v -17.716930 12.280993 1.317078
v -37.960163 23.336088 2.475037
v 32.006516 43.731430 0.166870
v 57.740707 50.271126 10.753113
v 24.310255 34.104485 -23.659241
v 126.536041 -13.440094 -24.347351
v 138.409775 20.081125 -15.247131
v 155.942856 18.577442 29.980774
v 155.566818 27.424242 48.314453
v 82.099487 20.470745 -29.754883
v -166.242355 -12.139579 72.182190
v -140.174469 -13.801142 45.501038
v -146.081940 -8.455029 33.394409
v -178.717834 -0.547003 65.770264
v -154.357071 -6.495083 75.146362
v -159.614334 8.729364 44.755371
vt 0.710996 0.488632
vt 0.710996 0.488632
vt 0.710996 0.488632
vt 0.710996 0.488632
vt 0.710996 0.488632
vt 0.710996 0.488632
vt 0.710996 0.488632
vt 0.710996 0.488632
vt 0.710996 0.488632
vt 0.710996 0.488632
vt 0.710996 0.488632
vt 0.710996 0.488632
vt 0.710996 0.488632
vt 0.710996 0.488632
vt 0.710996 0.488632
vt 0.710996 0.488632
vt 0.710996 0.488632
vt 0.710996 0.488632
vt 0.710996 0.488632
vt 0.710996 0.488632
vt 0.710996 0.488632
vt 0.710996 0.488632
vt 0.710996 0.488632
vt 0.710996 0.488632
vt 0.710996 0.488632
vt 0.710996 0.488632
vt 0.710996 0.488632
vt 0.710996 0.488632
vt 0.710996 0.488632
vt 0.710996 0.488632
vt 0.710996 0.488632
vt 0.710996 0.488632
vt 0.710996 0.488632
vt 0.710996 0.488632
vt 0.710996 0.488632
vt 0.710996 0.488632
vt 0.710996 0.488632
vt 0.710996 0.488632
vt 0.710996 0.488632
vt 0.710996 0.488632
vt 0.710996 0.488632
vt 0.710996 0.488632
vt 0.710996 0.488632
vt 0.710996 0.488632
vt 0.710996 0.488632
vt 0.710996 0.488632
vt 0.710996 0.488632
vt 0.710996 0.488632
vt 0.710996 0.488632
vt 0.710996 0.488632
vt 0.710996 0.488632
vt 0.710996 0.488632
vt 0.710996 0.488632
vt 0.710996 0.488632
vn -0.076666 -0.997051 -0.003553
vn -0.076666 -0.997050 -0.003553
vn -0.076666 -0.997050 -0.003553
vn -0.077250 -0.997009 -0.002364
vn -0.077250 -0.997009 -0.002364
vn -0.077250 -0.997009 -0.002364
vn 0.025780 -0.961356 0.274098
vn 0.025780 -0.961356 0.274098
vn 0.025780 -0.961356 0.274098
vn 0.130913 -0.699610 -0.702430
vn 0.130913 -0.699610 -0.702430
vn 0.130913 -0.699610 -0.702430
vn -0.068263 -0.873886 -0.481315
vn -0.068263 -0.873886 -0.481315
vn -0.068263 -0.873886 -0.481315
vn -0.026714 -0.893580 0.448108
vn -0.026714 -0.893580 0.448108
vn -0.026714 -0.893580 0.448108
vn 0.013958 -0.981541 0.190740
vn 0.013958 -0.981541 0.190740
vn 0.013958 -0.981541 0.190740
vn -0.171908 -0.957598 -0.231201
vn -0.171908 -0.957598 -0.231201
vn -0.171908 -0.957598 -0.231201
vn -0.448586 -0.065413 0.891342
vn -0.448587 -0.065413 0.891342
vn -0.448587 -0.065413 0.891342
vn -0.313763 -0.946857 -0.070813
vn -0.313763 -0.946857 -0.070813
vn -0.313763 -0.946857 -0.070813
vn 0.295036 -0.754215 0.586612
vn 0.295036 -0.754215 0.586612
vn 0.295036 -0.754215 0.586612
vn -0.139435 -0.863399 0.484871
vn -0.139435 -0.863399 0.484871
vn -0.139435 -0.863399 0.484871
vn 0.209332 -0.950033 0.231555
vn 0.209332 -0.950033 0.231555
vn 0.209332 -0.950033 0.231555
vn -0.216497 -0.965672 -0.143548
vn -0.216497 -0.965672 -0.143548
vn -0.216497 -0.965672 -0.143548
vn 0.047969 -0.865956 -0.497815
vn 0.047969 -0.865956 -0.497815
vn 0.047969 -0.865956 -0.497815
vn 0.216428 -0.712539 -0.667418
vn 0.216428 -0.712539 -0.667418
vn 0.216428 -0.712539 -0.667418
vn -0.025021 -0.792679 -0.609126
vn -0.025021 -0.792679 -0.609126
vn -0.025021 -0.792679 -0.609126
vn -0.122151 -0.686975 -0.716341
vn -0.122151 -0.686975 -0.716341
vn -0.122151 -0.686975 -0.716341
vn 0.083311 -0.775177 -0.626227
vn 0.083311 -0.775177 -0.626227
vn 0.083311 -0.775177 -0.626227
vn -0.718397 -0.344078 -0.604579
vn -0.718397 -0.344078 -0.604579
vn -0.718397 -0.344078 -0.604579
vn -0.091564 -0.900678 -0.424729
vn -0.091564 -0.900678 -0.424729
vn -0.091564 -0.900678 -0.424729
vn -0.101551 0.738438 0.666631
vn -0.101551 0.738438 0.666631
vn -0.101551 0.738438 0.666631
vn 0.635290 0.205048 0.744555
vn 0.635290 0.205048 0.744555
vn 0.635290 0.205048 0.744555
vn -0.221213 -0.491526 0.842299
vn -0.221213 -0.491526 0.842299
vn -0.221213 -0.491526 0.842299
vn 0.421910 -0.610331 -0.670439
vn 0.421910 -0.610331 -0.670439
vn 0.421910 -0.610331 -0.670439
vn 0.519251 0.153372 -0.840747
vn 0.519251 0.153372 -0.840747
vn 0.519251 0.153372 -0.840747
vn -0.454610 -0.092132 0.885913
vn -0.454611 -0.092132 0.885913
vn -0.454610 -0.092132 0.885913
vn 0.468357 -0.851445 -0.235973
vn 0.468357 -0.851445 -0.235973
vn 0.468357 -0.851445 -0.235973
vn 0.709380 -0.674434 0.204741
vn 0.709380 -0.674434 0.204741
vn 0.709380 -0.674434 0.204741
vn 0.723970 -0.226548 -0.651570
vn 0.723970 -0.226548 -0.651570
vn 0.723970 -0.226548 -0.651570
vn -0.127051 -0.692713 -0.709934
vn -0.127051 -0.692713 -0.709934
vn -0.127051 -0.692713 -0.709934
vn 0.001156 -0.818881 -0.573962
vn 0.001156 -0.818881 -0.573962
vn 0.001156 -0.818881 -0.573962
vn -0.013491 -0.539889 0.841628
vn -0.013491 -0.539889 0.841628
vn -0.013491 -0.539889 0.841628
vn 0.667844 0.214559 -0.712705
vn 0.667844 0.214559 -0.712705
vn 0.667844 0.214559 -0.712705
vn -0.090315 0.173648 -0.980658
vn -0.090315 0.173648 -0.980658
vn -0.090315 0.173648 -0.980658
vn -0.491571 0.303008 -0.816422
vn -0.491571 0.303008 -0.816422
vn -0.491571 0.303008 -0.816422
vn -0.119163 -0.152817 -0.981044
vn -0.119163 -0.152817 -0.981044
vn -0.119163 -0.152817 -0.981044
vn -0.693778 -0.034873 0.719344
vn -0.693778 -0.034873 0.719344
vn -0.693778 -0.034873 0.719344
vn 0.178572 -0.216238 0.959871
vn 0.178572 -0.216238 0.959871
vn 0.178572 -0.216238 0.959871
vn 0.459898 0.133755 -0.877840
vn 0.459898 0.133755 -0.877840
vn 0.459898 0.133755 -0.877840
vn -0.559582 0.747637 0.357642
vn -0.559582 0.747637 0.357642
vn -0.559582 0.747637 0.357642
vn -0.107607 -0.028771 0.993777
vn -0.107607 -0.028771 0.993777
vn -0.107607 -0.028771 0.993777
vn -0.014824 0.526523 0.850032
vn -0.014824 0.526523 0.850032
vn -0.014824 0.526523 0.850032
vn 0.471802 0.642876 0.603419
vn 0.471802 0.642876 0.603419
vn 0.471802 0.642876 0.603419
vn 0.730687 0.656540 0.187219
vn 0.730687 0.656540 0.187219
vn 0.730687 0.656540 0.187219
vn 0.693559 0.449265 -0.563149
vn 0.693559 0.449265 -0.563149
vn 0.693559 0.449265 -0.563149
vn -0.016293 0.627769 -0.778229
vn -0.016293 0.627769 -0.778229
vn -0.016293 0.627769 -0.778229
vn -0.027876 -0.273189 -0.961556
vn -0.027876 -0.273189 -0.961557
vn -0.027876 -0.273189 -0.961557
vn -0.397735 0.474483 -0.785285
vn -0.397735 0.474483 -0.785285
vn -0.397735 0.474483 -0.785285
vn -0.246022 0.508894 -0.824925
vn -0.246022 0.508894 -0.824925
vn -0.246022 0.508893 -0.824924
vn 0.431289 0.878136 -0.207044
vn 0.431289 0.878136 -0.207044
vn 0.431289 0.878136 -0.207044
vn -0.630344 0.362464 0.686503
vn -0.630344 0.362464 0.686503
vn -0.630344 0.362464 0.686503
vn 0.292740 0.518152 0.803630
vn 0.292740 0.518152 0.803630
vn 0.292740 0.518152 0.803630
vn 0.184736 0.648347 0.738592
vn 0.184736 0.648347 0.738592
vn 0.184736 0.648347 0.738592
vn 0.496518 0.653853 -0.570917
vn 0.496518 0.653853 -0.570917
vn 0.496518 0.653853 -0.570917
vn 0.511490 0.775806 -0.369464
vn 0.511490 0.775806 -0.369464
vn 0.511490 0.775806 -0.369464
vn 0.156305 0.099145 -0.982720
vn 0.156305 0.099145 -0.982720
vn 0.156305 0.099145 -0.982720
vn -0.700176 0.692552 0.173565
vn -0.700176 0.692552 0.173565
vn -0.700176 0.692552 0.173565
vn 0.271074 0.710430 -0.649467
vn 0.271074 0.710430 -0.649467
vn 0.271074 0.710430 -0.649467
vn -0.645142 0.533238 -0.547219
vn -0.645142 0.533238 -0.547219
vn -0.645142 0.533238 -0.547219
vn 0.223924 0.972113 0.069673
vn 0.223924 0.972113 0.069673
vn 0.223924 0.972113 0.069673
vn 0.056392 0.902802 0.426344
vn 0.056392 0.902802 0.426344
vn 0.056392 0.902802 0.426344
vn 0.193937 0.797412 0.571422
vn 0.193937 0.797411 0.571422
vn 0.193937 0.797411 0.571422
vn 0.207494 0.379792 0.901501
vn 0.207494 0.379792 0.901501
vn 0.207494 0.379792 0.901501
vn -0.164999 0.151885 0.974529
vn -0.164999 0.151885 0.974529
vn -0.164999 0.151885 0.974529
vn 0.381353 0.453837 0.805358
vn 0.381353 0.453837 0.805358
vn 0.381353 0.453837 0.805358
vn -0.633851 0.414060 -0.653289
vn -0.633851 0.414060 -0.653289
vn -0.633851 0.414060 -0.653290
vn -0.201617 0.829043 -0.521573
vn -0.201617 0.829043 -0.521573
vn -0.201617 0.829043 -0.521573
vn -0.296293 0.256966 0.919880
vn -0.296293 0.256966 0.919880
vn -0.296293 0.256966 0.919880
vn -0.301883 0.716525 0.628855
vn -0.301883 0.716525 0.628855
vn -0.301883 0.716525 0.628855
vn 0.164628 0.845892 0.507311
vn 0.164628 0.845892 0.507311
vn 0.164628 0.845892 0.507311
vn -0.228111 -0.343280 0.911111
vn -0.228111 -0.343280 0.911112
vn -0.228111 -0.343280 0.911111
vn -0.230899 0.899531 -0.370851
vn -0.230899 0.899531 -0.370851
vn -0.230899 0.899531 -0.370851
vn 0.793538 0.519026 0.317663
vn 0.793538 0.519026 0.317663
vn 0.793538 0.519026 0.317663
vn 0.645643 0.472305 -0.600061
vn 0.645643 0.472305 -0.600061
vn 0.645643 0.472305 -0.600061
vn 0.212469 0.941891 -0.260189
vn 0.212469 0.941891 -0.260189
vn 0.212469 0.941891 -0.260189
vn 0.447205 0.866929 0.220094
vn 0.447205 0.866929 0.220094
vn 0.447205 0.866929 0.220094
vn 0.379586 0.921694 0.079968
vn 0.379586 0.921694 0.079968
vn 0.379586 0.921694 0.079968
vn 0.515115 0.856715 -0.026382
vn 0.515115 0.856715 -0.026382
vn 0.515115 0.856715 -0.026382
vn -0.338608 0.673369 0.657205
vn -0.338608 0.673369 0.657205
vn -0.338608 0.673369 0.657205
vn -0.090671 0.806868 0.583732
vn -0.090671 0.806868 0.583732
vn -0.090671 0.806868 0.583732
vn 0.768244 0.609070 0.197064
vn 0.768244 0.609070 0.197064
vn 0.768244 0.609070 0.197064
vn -0.238743 0.926715 -0.290175
vn -0.238743 0.926715 -0.290175
vn -0.238743 0.926715 -0.290175
vn -0.171607 -0.338071 -0.925343
vn -0.171607 -0.338071 -0.925343
vn -0.171607 -0.338071 -0.925343
vn -0.358168 0.922612 -0.143190
vn -0.358168 0.922612 -0.143190
vn -0.358168 0.922612 -0.143190
vn 0.152097 0.419863 -0.894752
vn 0.152097 0.419863 -0.894752
vn 0.152097 0.419863 -0.894752
vn -0.211128 0.674064 -0.707858
vn -0.211128 0.674064 -0.707858
vn -0.211128 0.674064 -0.707858
vn 0.419587 0.906906 -0.038316
vn 0.419587 0.906906 -0.038316
vn 0.419587 0.906906 -0.038316
vn -0.187011 0.966856 -0.173829
vn -0.187011 0.966856 -0.173829
vn -0.187011 0.966856 -0.173828
vn 0.476492 0.878149 0.042540
vn 0.476492 0.878149 0.042540
vn 0.476492 0.878149 0.042540
vn -0.533947 0.834782 -0.134311
vn -0.533947 0.834782 -0.134311
vn -0.533947 0.834782 -0.134311
vn -0.460323 0.762176 0.455182
vn -0.460323 0.762176 0.455182
vn -0.460323 0.762176 0.455182
vn -0.161137 -0.920118 -0.356956
vn -0.161137 -0.920118 -0.356956
vn -0.161137 -0.920118 -0.356956
vn 0.117041 -0.878998 0.462238
vn 0.117041 -0.878998 0.462238
vn 0.117041 -0.878998 0.462238
vn -0.311351 -0.776094 -0.548397
vn -0.311351 -0.776094 -0.548397
vn -0.311351 -0.776094 -0.548397
vn -0.312349 -0.052515 -0.948515
vn -0.312349 -0.052515 -0.948515
vn -0.312349 -0.052515 -0.948515
vn -0.686468 0.212165 0.695519
vn -0.686468 0.212165 0.695519
vn -0.686468 0.212165 0.695519
vn -0.156460 0.897483 0.412364
vn -0.156460 0.897483 0.412364
vn -0.156460 0.897483 0.412364
vn 0.561757 0.648574 0.513595
vn 0.561758 0.648574 0.513595
vn 0.561758 0.648574 0.513595
vn 0.716429 0.660758 0.223894
vn 0.716429 0.660758 0.223894
vn 0.716429 0.660758 0.223894
s off
f 19/1/1 20/2/2 21/3/3
f 25/8/4 19/1/5 21/3/6
f 20/2/7 22/7/8 21/3/9
f 24/12/10 22/7/11 20/2/12
f 20/2/13 19/1/14 26/4/15
f 25/8/16 21/3/17 7/6/18
f 22/7/19 8/5/20 21/3/21
f 19/1/22 25/8/23 11/22/24
f 8/5/25 12/24/26 21/3/27
f 44/9/28 22/7/29 24/12/30
f 22/7/31 23/10/32 8/5/33
f 10/13/34 23/10/35 22/7/36
f 10/13/37 22/7/38 17/25/39
f 44/9/40 15/11/41 22/7/42
f 9/14/43 15/11/44 44/9/45
f 24/12/46 20/2/47 16/15/48
f 26/4/49 16/15/50 20/2/51
f 1/16/52 26/4/53 19/1/54
f 11/22/55 14/17/56 19/1/57
f 11/22/58 25/8/59 30/18/60
f 34/19/61 30/18/62 25/8/63
f 7/6/64 27/23/65 25/8/66
f 7/6/67 21/3/68 36/20/69
f 36/20/70 21/3/71 12/24/72
f 32/27/73 13/21/74 22/7/75
f 24/12/76 16/15/77 48/29/78
f 12/24/79 8/5/80 31/31/81
f 17/25/82 22/7/83 13/21/84
f 15/11/85 32/27/86 22/7/87
f 9/14/88 32/27/89 15/11/90
f 26/4/91 1/16/92 16/15/93
f 1/16/94 19/1/95 14/17/96
f 25/8/97 27/23/98 28/26/99
f 45/28/100 32/27/101 9/14/102
f 9/14/103 44/9/104 45/28/105
f 45/28/106 44/9/107 24/12/108
f 1/16/109 14/17/110 29/30/111
f 28/26/112 34/19/113 25/8/114
f 23/10/115 31/31/116 8/5/117
f 32/27/118 33/32/119 13/21/120
f 28/26/121 35/33/122 34/19/123
f 36/20/124 12/24/125 3/38/126
f 4/34/127 23/10/128 10/13/129
f 10/13/130 17/25/131 47/39/132
f 47/39/133 17/25/134 13/21/135
f 32/27/136 45/28/137 33/32/138
f 37/36/139 45/28/140 48/29/141
f 48/29/142 45/28/143 24/12/144
f 37/36/145 48/29/146 16/15/147
f 37/36/148 16/15/149 1/16/150
f 39/40/151 1/16/152 29/30/153
f 12/24/154 31/31/155 3/38/156
f 3/38/157 31/31/158 23/10/159
f 4/34/160 10/13/161 47/39/162
f 46/35/163 47/39/164 13/21/165
f 33/32/166 46/35/167 13/21/168
f 1/16/169 43/47/170 37/36/171
f 29/30/172 14/17/173 39/40/174
f 11/22/175 30/18/176 14/17/177
f 34/19/178 35/33/179 30/18/180
f 30/18/181 35/33/182 2/37/183
f 28/26/184 2/37/185 35/33/186
f 28/26/187 27/23/188 2/37/189
f 3/38/190 23/10/191 4/34/192
f 7/6/193 38/41/194 27/23/195
f 36/20/196 38/41/197 7/6/198
f 1/16/199 39/40/200 43/47/201
f 2/37/202 39/40/203 14/17/204
f 2/37/205 27/23/206 38/41/207
f 41/42/208 36/20/209 3/38/210
f 3/38/211 4/34/212 42/48/213
f 5/44/214 42/48/215 4/34/216
f 4/34/217 47/39/218 46/35/219
f 18/43/220 5/44/221 46/35/222
f 18/43/223 46/35/224 33/32/225
f 45/28/226 6/46/227 33/32/228
f 45/28/229 37/36/230 6/46/231
f 30/18/232 2/37/233 14/17/234
f 36/20/235 40/45/236 38/41/237
f 41/42/238 3/38/239 42/48/240
f 42/48/241 5/44/242 18/43/243
f 4/34/244 46/35/245 5/44/246
f 43/47/247 41/42/248 37/36/249
f 2/37/250 40/45/251 39/40/252
f 40/45/253 2/37/254 38/41/255
f 33/32/256 6/46/257 18/43/258
f 6/46/259 42/48/260 18/43/261
f 42/48/262 6/46/263 37/36/264
f 41/42/265 42/48/266 37/36/267
f 39/40/268 40/45/269 36/20/270
f 43/47/271 39/40/272 41/42/273
f 36/20/274 41/42/275 39/40/276
f 50/49/277 49/50/278 51/51/279
f 49/50/280 50/49/281 53/53/282
f 51/51/283 49/50/284 52/52/285
f 51/51/286 52/52/287 54/54/288
f 49/50/289 53/53/290 52/52/291
f 52/52/292 53/53/293 54/54/294
f 53/53/295 50/49/296 54/54/297
f 50/49/298 51/51/299 54/54/300
