# This file uses meters as units for non-parametric coordinates.

v 0.772949 25.858747 -0.742676
v 17.908691 4.985827 0.061890
v -10.502441 4.985827 -16.341187
v -10.502441 4.985827 16.464905
v 14.949219 20.112597 0.596191
v -9.655518 20.112597 -13.609375
v -7.845215 19.971668 12.846558
v 8.456055 0.195902 -16.464783
v 7.173096 0.000000 15.752441
v -17.908691 0.195675 -1.809875
vt 0.449219 0.281307
vt 0.449219 0.281307
vt 0.449219 0.281307
vt 0.449219 0.281308
vt 0.449219 0.281308
vt 0.449219 0.281308
vt 0.449219 0.281307
vt 0.449219 0.281308
vt 0.449219 0.281308
vt 0.449219 0.281308
vt 0.259160 0.156773
vt 0.259159 0.156773
vt 0.259159 0.156773
vt 0.259160 0.156773
vt 0.259159 0.156773
vt 0.259159 0.156773
vn 0.359627 0.694747 -0.622893
vn 0.359627 0.694747 -0.622893
vn 0.359627 0.694747 -0.622893
vn 0.774889 0.107478 -0.622893
vn 0.774889 0.107478 -0.622893
vn 0.774889 0.107478 -0.622893
vn 0.471405 0.333333 -0.816497
vn 0.471405 0.333333 -0.816497
vn 0.471405 0.333333 -0.816497
vn 0.151996 0.107478 -0.982520
vn 0.151996 0.107478 -0.982520
vn 0.151996 0.107478 -0.982520
vn -0.719255 0.694747 0.000000
vn -0.719255 0.694747 0.000000
vn -0.719255 0.694747 0.000000
vn -0.926886 0.107478 -0.359627
vn -0.926885 0.107478 -0.359627
vn -0.926886 0.107478 -0.359627
vn -0.942809 0.333333 0.000000
vn -0.942809 0.333333 0.000000
vn -0.942809 0.333333 0.000000
vn -0.926886 0.107478 0.359627
vn -0.926886 0.107478 0.359627
vn -0.926885 0.107478 0.359627
vn 0.359627 0.694747 0.622893
vn 0.359627 0.694747 0.622893
vn 0.359627 0.694747 0.622893
vn 0.151996 0.107478 0.982520
vn 0.151996 0.107478 0.982520
vn 0.151996 0.107478 0.982520
vn 0.471405 0.333333 0.816497
vn 0.471405 0.333333 0.816497
vn 0.471405 0.333333 0.816497
vn 0.774889 0.107478 0.622893
vn 0.774889 0.107478 0.622893
vn 0.774889 0.107478 0.622893
vn 0.415262 -0.909702 -0.000000
vn 0.415262 -0.909702 -0.000000
vn 0.415262 -0.909702 -0.000000
vn -0.207631 -0.909702 0.359627
vn -0.207631 -0.909702 0.359627
vn -0.207631 -0.909702 0.359627
vn 0.000000 -1.000000 -0.000000
vn 0.000000 -1.000000 -0.000000
vn 0.000000 -1.000000 -0.000000
vn -0.207631 -0.909702 -0.359627
vn -0.207631 -0.909702 -0.359627
vn -0.207631 -0.909702 -0.359627
s off
f 1/1/1 5/2/2 6/3/3
f 5/2/4 2/4/5 8/5/6
f 5/2/7 8/5/8 6/3/9
f 6/3/10 8/5/11 3/6/12
f 1/1/13 6/3/14 7/7/15
f 6/3/16 3/6/17 10/8/18
f 6/3/19 10/8/20 7/7/21
f 7/7/22 10/8/23 4/9/24
f 1/1/25 7/7/26 5/2/27
f 7/7/28 4/9/29 9/10/30
f 7/7/31 9/10/32 5/2/33
f 5/2/34 9/10/35 2/4/36
f 2//37 9//38 8//39
f 9//40 4//41 10//42
f 9//43 10//44 8//45
f 8//46 10//47 3//48
