# This file uses meters as units for non-parametric coordinates.

v -5.581762 0.000000 163.134842
v 82.393013 0.000000 151.796326
v 155.218597 0.000000 76.743011
v 167.275223 0.000000 -48.412277
v 87.302498 0.000000 -145.435822
v -5.972518 0.000000 -163.134827
v -94.318268 0.000000 -127.155739
v -134.876358 0.000000 -77.519775
v -167.275192 0.000017 38.876335
v -110.947273 0.000000 135.252380
v 14.497863 87.494934 12.998636
v 19.246130 89.955864 10.447574
v 22.656794 87.494934 6.273556
v 23.670671 87.494934 -4.250959
v 16.945572 89.955864 -12.409882
v 11.784079 87.494934 -13.963540
v 1.672783 89.955864 -10.872646
v -3.291565 87.494934 -1.537236
v -2.751738 89.955864 3.825851
v 3.973363 87.494934 11.984741
v 10.131620 0.000000 -0.386894
v 48.775974 54.159504 3.335869
v 40.089756 54.159504 -25.080280
v 40.089756 54.159504 -25.080244
v 28.359509 58.087425 -34.665085
v 13.854238 54.159454 -39.031204
v 13.854238 54.159451 -39.031170
v -14.561726 54.159504 -30.345034
v -19.990425 60.604050 -14.649331
v -28.512856 54.159504 -4.109689
v -24.251894 61.005108 9.935895
v -19.826595 54.159504 24.306459
v 6.408813 54.159504 38.257591
v 6.408813 54.159504 38.257591
v 19.568436 58.280025 31.159727
v 34.825016 54.159504 29.571283
v 34.825016 54.159504 29.571253
v 61.602409 31.997908 62.057877
v 103.493774 17.674744 47.427589
v 90.761368 27.144524 22.500483
v 102.495674 18.012505 -29.135906
v 71.682251 26.902916 -65.276047
v 57.608074 16.760889 -89.667496
v 17.891396 31.997908 -80.937370
v -31.071178 22.323833 -94.689484
v -42.293972 29.530466 -68.345993
v -71.312462 20.674549 -44.925552
v -68.462273 30.019276 -17.553259
v -88.813362 17.824615 43.145111
v -52.313042 31.997908 51.083946
v -31.979445 21.855865 78.803970
v 16.578476 31.997908 87.568787
v 40.310406 21.855865 92.109116
v 7.262438 87.074478 5.799484
v 2.558808 87.074478 -0.973642
v 5.066870 87.456367 -6.754868
v 11.364649 87.074478 -9.608503
v 17.650898 87.074478 -2.410845
v 15.904220 87.074478 2.682853
v 12.367149 87.074478 6.028275
v 12.770369 86.567963 -1.333400
v 7.540248 86.601768 -0.628467
vt 0.065277 0.107151
vt 0.065277 0.107151
vt 0.065277 0.107151
vt 0.065277 0.107151
vt 0.065277 0.107151
vt 0.065277 0.107151
vt 0.065277 0.107151
vt 0.065277 0.107151
vt 0.065277 0.107151
vt 0.065277 0.107151
vt 0.065277 0.107151
vt 0.065277 0.107151
vt 0.065277 0.107151
vt 0.065277 0.107151
vt 0.065277 0.107151
vt 0.065277 0.107151
vt 0.065277 0.107151
vt 0.065277 0.107151
vt 0.065277 0.107151
vt 0.065277 0.107151
vt 0.065277 0.107151
vt 0.448155 0.283843
vt 0.448155 0.283844
vt 0.448155 0.283844
vt 0.448155 0.283843
vt 0.448155 0.283844
vt 0.448155 0.283844
vt 0.448155 0.283844
vt 0.448155 0.283843
vt 0.448155 0.283844
vt 0.448155 0.283844
vt 0.448155 0.283843
vt 0.448155 0.283844
vt 0.448155 0.283844
vt 0.448155 0.283843
vt 0.448155 0.283844
vt 0.448155 0.283844
vt 0.448155 0.283843
vt 0.448155 0.283844
vt 0.448155 0.283844
vt 0.448155 0.283844
vt 0.448155 0.283843
vt 0.065277 0.107151
vt 0.448155 0.283844
vt 0.448155 0.283844
vt 0.448155 0.283843
vt 0.448155 0.283844
vt 0.448155 0.283844
vt 0.448155 0.283843
vt 0.448155 0.283843
vt 0.448155 0.283843
vt 0.448155 0.283843
vt 0.448155 0.283843
vt 0.448155 0.283843
vt 0.448155 0.283843
vt 0.448155 0.283843
vt 0.448155 0.283843
vt 0.448155 0.283843
vt 0.448155 0.283843
vt 0.448155 0.283843
vt 0.065277 0.107150
vt 0.065277 0.107150
vt 0.065277 0.107150
vt 0.065277 0.107150
vt 0.065277 0.107150
vt 0.065277 0.107150
vt 0.065277 0.107150
vt 0.065277 0.107150
vt 0.065277 0.107150
vt 0.065277 0.107150
vt 0.065277 0.107150
vt 0.065277 0.107150
vt 0.065277 0.107150
vt 0.065277 0.107150
vt 0.065277 0.107150
vt 0.065277 0.107150
vt 0.065277 0.107150
vt 0.448155 0.283843
vt 0.448155 0.283843
vt 0.448155 0.283843
vt 0.448155 0.283843
vt 0.448155 0.283844
vt 0.448155 0.283844
vt 0.448155 0.283844
vt 0.448155 0.283844
vt 0.448155 0.283844
vt 0.448155 0.283844
vt 0.448155 0.283844
vt 0.448155 0.283844
vt 0.448155 0.283844
vn 0.261179 0.541909 0.798824
vn 0.261179 0.541909 0.798824
vn 0.261179 0.541909 0.798824
vn 0.213470 0.536174 0.816669
vn 0.213470 0.536174 0.816669
vn 0.213470 0.536174 0.816669
vn 0.213470 0.536174 0.816669
vn 0.785393 0.520657 0.334774
vn 0.785393 0.520657 0.334774
vn 0.785393 0.520657 0.334774
vn 0.785393 0.520657 0.334774
vn 0.740142 0.545238 0.393581
vn 0.740142 0.545238 0.393581
vn 0.740142 0.545238 0.393581
vn 0.805700 0.570655 -0.158745
vn 0.805700 0.570655 -0.158745
vn 0.805700 0.570655 -0.158745
vn 0.805700 0.570655 -0.158745
vn 0.699797 0.593283 -0.397869
vn 0.699797 0.593283 -0.397869
vn 0.699797 0.593283 -0.397869
vn 0.699797 0.593283 -0.397869
vn 0.621322 0.585878 -0.520294
vn 0.621322 0.585878 -0.520294
vn 0.621322 0.585878 -0.520294
vn 0.049114 0.593298 -0.803483
vn 0.049114 0.593298 -0.803483
vn 0.049114 0.593298 -0.803483
vn 0.049114 0.593298 -0.803483
vn -0.998460 -0.055470 0.000000
vn -0.998460 -0.055470 0.000000
vn -0.000000 -0.000000 0.000000
vn -0.209385 0.559552 -0.801910
vn -0.209385 0.559552 -0.801910
vn -0.209385 0.559552 -0.801910
vn -0.209385 0.559552 -0.801910
vn -0.716369 0.578843 -0.389559
vn -0.716369 0.578843 -0.389559
vn -0.716369 0.578843 -0.389559
vn -0.716369 0.578843 -0.389559
vn -0.762312 0.596194 -0.251859
vn -0.762312 0.596195 -0.251859
vn -0.762312 0.596194 -0.251859
vn -0.799273 0.594579 -0.087403
vn -0.799273 0.594579 -0.087403
vn -0.799273 0.594579 -0.087403
vn -0.799273 0.594579 -0.087403
vn -0.652680 0.586048 0.480163
vn -0.652680 0.586048 0.480163
vn -0.652680 0.586048 0.480163
vn -0.429453 0.566556 0.703267
vn -0.429453 0.566556 0.703267
vn -0.429453 0.566556 0.703267
vn -0.429453 0.566556 0.703267
vn -0.000000 0.000000 0.000000
vn -0.000000 0.000000 0.000000
vn -0.075704 0.613803 0.785821
vn -0.075704 0.613803 0.785821
vn 0.000000 -1.000000 0.000000
vn 0.000000 -1.000000 0.000000
vn 0.000000 -1.000000 0.000000
vn 0.000000 -1.000000 0.000000
vn 0.000000 -1.000000 0.000000
vn 0.000000 -1.000000 0.000000
vn 0.000000 -1.000000 0.000000
vn 0.000000 -1.000000 0.000000
vn 0.000000 -1.000000 0.000000
vn 0.000000 -1.000000 0.000000
vn 0.000000 -1.000000 0.000000
vn 0.000000 -1.000000 0.000000
vn 0.000000 -1.000000 0.000000
vn 0.000000 -1.000000 0.000000
vn 0.000000 -1.000000 0.000000
vn 0.000000 -1.000000 0.000000
vn 0.000000 -1.000000 0.000000
vn 0.000000 -1.000000 0.000000
vn 0.000000 -1.000000 0.000000
vn 0.000000 -1.000000 0.000000
vn 0.000000 -1.000000 0.000000
vn -0.000000 -1.000000 0.000000
vn -0.000000 -1.000000 0.000000
vn -0.000000 -1.000000 0.000000
vn -0.000000 -1.000000 -0.000000
vn -0.000000 -1.000000 -0.000000
vn -0.000000 -1.000000 -0.000000
vn 0.000000 -1.000000 0.000000
vn 0.000000 -1.000000 0.000000
vn 0.000000 -1.000000 0.000000
vn -0.338391 0.937219 -0.084335
vn -0.338391 0.937219 -0.084335
vn -0.338391 0.937219 -0.084335
vn -0.338391 0.937219 -0.084335
vn 0.157925 0.901665 -0.402568
vn 0.157925 0.901665 -0.402568
vn 0.157925 0.901665 -0.402568
vn -0.064145 0.997876 -0.011338
vn -0.064145 0.997876 -0.011338
vn -0.064145 0.997876 -0.011338
vn -0.064145 0.997876 -0.011338
vn -0.155817 0.946184 0.283650
vn -0.155817 0.946184 0.283650
vn -0.155817 0.946184 0.283650
vn -0.155817 0.946184 0.283650
vn -0.440743 0.896549 0.044100
vn -0.440743 0.896549 0.044100
vn -0.440743 0.896549 0.044100
vn 0.248416 0.939337 0.236507
vn 0.248416 0.939337 0.236507
vn 0.248416 0.939337 0.236507
vn 0.248416 0.939337 0.236507
vn 0.167716 0.950479 0.261651
vn 0.167716 0.950479 0.261651
vn 0.167716 0.950479 0.261651
vn 0.167716 0.950479 0.261651
vn 0.105458 0.899746 -0.423480
vn 0.105458 0.899746 -0.423480
vn 0.105458 0.899746 -0.423480
vn 0.287307 0.955806 -0.062373
vn 0.287307 0.955806 -0.062373
vn 0.287307 0.955806 -0.062373
vn 0.287307 0.955806 -0.062373
vn 0.005037 0.997979 -0.063347
vn 0.005037 0.997979 -0.063347
vn 0.005037 0.997979 -0.063347
vn 0.005037 0.997979 -0.063347
vn 0.524253 0.848094 -0.076785
vn 0.524253 0.848094 -0.076785
vn 0.524253 0.848094 -0.076785
vn 0.524253 0.848094 -0.076785
vn 0.481263 0.853361 -0.200405
vn 0.481263 0.853361 -0.200405
vn 0.481263 0.853361 -0.200405
vn 0.481263 0.853361 -0.200405
vn 0.327987 0.853378 -0.405179
vn 0.327987 0.853378 -0.405179
vn 0.327987 0.853378 -0.405179
vn 0.327987 0.853378 -0.405179
vn 0.136148 0.849477 -0.509758
vn 0.136148 0.849477 -0.509758
vn 0.136148 0.849477 -0.509758
vn 0.136148 0.849477 -0.509758
vn -0.042097 0.881533 -0.470243
vn -0.042097 0.881533 -0.470243
vn -0.042097 0.881533 -0.470243
vn -0.042097 0.881533 -0.470243
vn -0.187125 0.898701 -0.396637
vn -0.187125 0.898701 -0.396637
vn -0.187125 0.898701 -0.396637
vn -0.187125 0.898701 -0.396637
vn -0.420046 0.850150 -0.317500
vn -0.420046 0.850150 -0.317500
vn -0.420046 0.850150 -0.317500
vn -0.420046 0.850150 -0.317500
vn -0.522073 0.840923 -0.142439
vn -0.522073 0.840923 -0.142439
vn -0.522073 0.840923 -0.142439
vn -0.522073 0.840923 -0.142439
vn -0.548380 0.834191 -0.058351
vn -0.548380 0.834191 -0.058351
vn -0.548380 0.834191 -0.058351
vn -0.548380 0.834191 -0.058351
vn -0.353553 0.860925 0.365799
vn -0.353553 0.860925 0.365799
vn -0.353553 0.860925 0.365799
vn -0.353553 0.860925 0.365799
vn -0.223995 0.859467 0.459502
vn -0.223995 0.859467 0.459502
vn -0.223995 0.859467 0.459502
vn -0.223995 0.859467 0.459502
vn -0.259001 0.859901 0.439874
vn -0.259001 0.859901 0.439874
vn -0.000000 0.000000 0.000000
vn -0.000000 0.000000 0.000000
vn 0.174455 0.888970 0.423436
vn 0.174455 0.888970 0.423436
vn 0.174455 0.888970 0.423436
vn 0.174455 0.888970 0.423436
vn 0.229117 0.872884 0.430788
vn 0.229117 0.872884 0.430788
vn 0.229117 0.872884 0.430788
vn 0.229117 0.872884 0.430788
vn 0.395162 0.877204 0.272690
vn 0.395162 0.877204 0.272690
vn 0.395162 0.877204 0.272690
vn 0.395162 0.877204 0.272690
vn 0.445988 0.878129 0.173158
vn 0.445988 0.878129 0.173158
vn 0.445989 0.878129 0.173158
vn 0.445989 0.878129 0.173158
vn 0.285322 0.933815 0.215825
vn 0.285322 0.933815 0.215825
vn 0.285322 0.933815 0.215825
vn 0.285322 0.933815 0.215825
vn 0.168458 0.946948 0.273699
vn 0.168458 0.946948 0.273699
vn 0.168458 0.946948 0.273699
vn 0.330871 0.943667 -0.004219
vn 0.330871 0.943667 -0.004219
vn 0.330871 0.943667 -0.004219
vn 0.330871 0.943667 -0.004219
vn 0.296210 0.937260 -0.183859
vn 0.296210 0.937260 -0.183859
vn 0.296210 0.937260 -0.183859
vn 0.296210 0.937260 -0.183859
vn -0.097406 0.937644 -0.333669
vn -0.097406 0.937644 -0.333669
vn -0.097406 0.937644 -0.333669
vn 0.129268 0.936644 -0.325558
vn 0.129268 0.936644 -0.325558
vn 0.129268 0.936644 -0.325558
vn 0.129268 0.936644 -0.325558
vn -0.089992 0.936655 -0.338495
vn -0.089992 0.936655 -0.338495
vn -0.089992 0.936655 -0.338495
vn -0.162526 0.931929 -0.324181
vn -0.162526 0.931929 -0.324181
vn -0.162526 0.931929 -0.324181
vn -0.285865 0.945210 -0.157670
vn -0.285865 0.945210 -0.157670
vn -0.285865 0.945210 -0.157670
vn -0.285865 0.945210 -0.157670
vn -0.149216 0.940422 -0.305517
vn -0.149216 0.940422 -0.305517
vn -0.149216 0.940422 -0.305517
vn -0.303544 0.952494 -0.024826
vn -0.303544 0.952494 -0.024826
vn -0.303544 0.952494 -0.024826
vn -0.303544 0.952494 -0.024826
vn -0.284881 0.951556 0.115687
vn -0.256641 0.958542 0.123825
vn -0.377114 0.921996 0.087802
vn -0.063278 0.957289 0.282124
vn -0.049435 0.952743 0.299729
vn -0.009361 0.936840 0.349633
vn -0.248202 0.916029 0.315099
vn -0.248202 0.916029 0.315099
vn -0.248202 0.916029 0.315099
vn 0.105919 0.929099 0.354338
vn 0.105919 0.929099 0.354338
vn 0.105919 0.929099 0.354338
vn 0.105919 0.929099 0.354338
vn 0.019136 0.943135 0.331859
vn 0.019136 0.943135 0.331859
vn 0.019136 0.943135 0.331859
vn -0.144272 0.923952 -0.354256
vn -0.144272 0.923952 -0.354256
vn -0.144272 0.923952 -0.354256
vn 0.081693 0.995546 0.047058
vn 0.081693 0.995546 0.047058
vn 0.081693 0.995546 0.047058
vn 0.098965 0.992715 -0.068728
vn 0.098965 0.992715 -0.068728
vn 0.098965 0.992715 -0.068728
vn -0.000001 0.997488 -0.070833
vn -0.000001 0.997488 -0.070833
vn -0.000001 0.997488 -0.070833
vn -0.000001 0.997488 -0.070833
vn -0.068291 0.995049 -0.072204
vn -0.068291 0.995049 -0.072204
vn -0.068291 0.995049 -0.072204
vn -0.086432 0.993394 0.075487
vn -0.086432 0.993394 0.075487
vn -0.086432 0.993394 0.075487
vn 0.023755 0.991398 0.128707
vn 0.023755 0.991398 0.128707
vn 0.023755 0.991398 0.128707
vn 0.086880 0.990865 0.103144
vn 0.086880 0.990865 0.103144
vn 0.086880 0.990865 0.103144
vn -0.111500 0.993029 -0.038232
vn -0.111500 0.993029 -0.038232
vn -0.111500 0.993029 -0.038232
vn -0.226424 0.964997 0.132335
vn -0.256641 0.958542 0.123825
vn -0.284881 0.951556 0.115687
vn -0.063278 0.957289 0.282124
vn -0.071773 0.959836 0.271226
vn -0.049435 0.952743 0.299729
s off
f 34/22/1 35/23/2 11/24/3
f 35/23/4 36/25/5 12/26/6 11/24/7
f 36/25/8 37/27/9 13/28/10 12/26/11
f 37/27/12 22/29/13 13/28/14
f 22/29/15 23/30/16 14/31/17 13/28/18
f 23/30/19 24/32/20 15/33/21 14/31/22
f 24/32/23 25/34/24 15/33/25
f 25/34/26 26/35/27 16/36/28 15/33/29
f 26/35/30 27/37/31 16/36/32
f 27/37/33 28/38/34 17/39/35 16/36/36
f 28/38/37 29/40/38 18/41/39 17/39/40
f 29/40/41 30/42/42 18/41/43
f 30/42/44 31/44/45 19/45/46 18/41/47
f 31/44/48 32/46/49 19/45/50
f 32/46/51 33/47/52 20/48/53 19/45/54
f 33/47/55 34/22/56 11/24/57 20/48/58
f 2/2/59 1/1/60 21/43/61
f 3/3/62 2/2/63 21/43/64
f 4/4/65 3/3/66 21/43/67
f 5/5/68 4/4/69 21/43/70
f 6/6/71 5/5/72 21/43/73
f 7/7/74 6/6/75 21/43/76
f 8/8/77 7/7/78 21/43/79
f 9/9/80 8/8/81 21/43/82
f 10/10/83 9/9/84 21/43/85
f 1/1/86 10/10/87 21/43/88
f 11/24/89 12/26/90 59/87/91 60/88/92
f 12/26/93 13/28/94 59/87/95
f 13/28/96 14/31/97 58/86/98 59/87/99
f 14/31/100 15/33/101 57/85/102 58/86/103
f 15/33/104 16/36/105 57/85/106
f 16/36/107 17/39/108 56/84/109 57/85/110
f 17/39/111 18/41/112 55/83/113 56/84/114
f 18/41/115 19/45/116 55/83/117
f 19/45/118 20/48/119 54/82/120 55/83/121
f 20/48/122 11/24/123 60/88/124 54/82/125
f 40/49/126 41/50/127 23/30/128 22/29/129
f 41/50/130 42/51/131 24/32/132 23/30/133
f 42/51/134 43/52/135 25/34/136 24/32/137
f 43/52/138 44/53/139 26/35/140 25/34/141
f 44/53/142 45/54/143 27/37/144 26/35/145
f 45/54/146 46/55/147 28/38/148 27/37/149
f 46/55/150 47/56/151 29/40/152 28/38/153
f 47/56/154 48/57/155 30/42/156 29/40/157
f 48/57/158 49/58/159 31/44/160 30/42/161
f 49/58/162 50/59/163 32/46/164 31/44/165
f 50/59/166 51/60/167 33/47/168 32/46/169
f 51/60/170 52/78/171 34/22/172 33/47/173
f 52/78/174 53/79/175 35/23/176 34/22/177
f 53/79/178 38/80/179 36/25/180 35/23/181
f 38/80/182 39/81/183 37/27/184 36/25/185
f 39/81/186 40/49/187 22/29/188 37/27/189
f 2/12/190 3/13/191 39/62/192 38/61/193
f 3/13/194 40/63/195 39/62/196
f 3/13/197 4/14/198 41/64/199 40/63/200
f 4/14/201 5/15/202 42/65/203 41/64/204
f 5/15/205 43/66/206 42/65/207
f 5/15/208 6/16/209 44/67/210 43/66/211
f 6/16/212 45/68/213 44/67/214
f 45/68/215 7/17/216 46/69/217
f 7/17/218 8/18/219 47/70/220 46/69/221
f 8/18/222 48/71/223 47/70/224
f 8/18/225 9/19/226 49/72/227 48/71/228
f 49/72/229 10/20/230 50/73/231
f 10/20/232 51/74/233 50/73/234
f 1/21/235 52/75/236 51/74/237
f 1/11/238 2/12/239 53/77/240 52/76/241
f 2/12/242 38/61/243 53/77/244
f 6/16/245 7/17/246 45/68/247
f 56/84/248 61/89/249 57/85/250
f 54/82/251 62/90/252 55/83/253
f 60/88/254 61/89/255 62/90/256 54/82/257
f 60/88/258 59/87/259 61/89/260
f 57/85/261 61/89/262 58/86/263
f 62/90/264 61/89/265 56/84/266
f 55/83/267 62/90/268 56/84/269
f 58/86/270 61/89/271 59/87/272
f 9/19/273 10/20/274 49/72/275
f 10/20/276 1/21/277 51/74/278
