# This file uses meters as units for non-parametric coordinates.

v 1.495743 0.691120 -4.059927
v -3.282799 0.715510 -2.506371
v -3.282417 0.723693 2.517299
v 1.495361 0.703913 4.070249
v 4.449844 0.684212 0.005415
v 0.312553 32.656784 -4.301685
v -5.372490 32.614758 -2.496828
v -5.392586 32.593075 3.492392
v 0.302757 32.614513 5.327649
v 3.783669 32.658047 0.503167
v 0.190605 1.158614 -0.000000
v 3.921257 67.999641 -7.501622
v -3.175865 68.945778 -4.976229
v 3.802872 77.726303 -0.019810
v -3.142036 67.813255 2.528642
v 3.935371 66.156029 4.625401
v 8.301926 66.282959 -1.546315
v 4.858269 0.670012 -5.091853
v 0.069176 1.098548 -3.531925
v 0.068794 0.939744 1.520150
v 4.853188 0.423687 3.066467
v 7.821274 0.265316 -1.019666
v 13.491821 17.771393 -4.701764
v 6.787361 18.313263 -2.465177
v 6.779350 18.116371 4.575247
v 13.494362 17.423695 6.804555
v 17.698418 17.176893 1.035915
v 3.490959 1.125000 -1.014223
v 16.069283 43.043350 -3.422145
v 8.913292 43.825832 -1.057422
v 15.414940 53.530731 3.092205
v 8.902229 43.564861 6.512385
v 16.054535 42.619350 8.838023
v 20.490646 42.295486 2.693953
v -2.298485 1.287784 -1.937621
v -7.076515 0.570835 -0.468415
v -7.116951 0.073877 4.554811
v -2.358246 0.474479 6.190603
v 0.620399 1.226889 2.183090
v -7.822289 21.845638 1.519418
v -14.538315 20.839182 3.534159
v -14.613846 20.107391 10.625346
v -7.889557 20.704979 12.922188
v -3.747559 21.767178 7.267765
v -3.651428 1.166291 2.108932
v -11.581421 53.599602 4.579452
v -18.738182 52.386269 6.763024
v -14.982475 63.046265 11.794132
v -18.777596 51.538048 14.294114
v -11.646271 52.226837 16.767542
v -7.197060 53.501144 10.763338
v -2.289581 0.842175 -6.777850
v -7.084145 0.766491 -5.210049
v -7.090889 0.626557 -0.163412
v -2.290726 0.609518 1.399997
v 0.666428 0.731511 -2.690705
v -1.755394 18.685354 -17.816353
v -8.528008 18.598812 -15.583583
v -8.490753 18.320295 -8.479402
v -1.782738 18.257092 -6.292695
v 2.412033 18.507133 -12.021496
v -3.635155 1.158614 -2.589905
v -1.563774 49.545383 -21.932829
v -8.782066 49.529064 -19.583881
v -3.561913 60.035595 -15.817878
v -8.770119 49.450974 -12.000998
v -1.570511 49.417645 -9.664914
v 2.886963 49.481110 -15.787977
vt 0.311654 0.101542
vt 0.311654 0.101542
vt 0.311654 0.101542
vt 0.311654 0.101542
vt 0.311654 0.101542
vt 0.311654 0.101542
vt 0.311654 0.101542
vt 0.311654 0.101542
vt 0.311654 0.101542
vt 0.311654 0.101542
vt 0.311654 0.101542
vt 0.311654 0.101542
vt 0.311654 0.101542
vt 0.311654 0.101542
vt 0.311654 0.101542
vt 0.311654 0.101542
vt 0.311654 0.101542
vt 0.311654 0.101542
vt 0.311654 0.101542
vt 0.311654 0.101542
vt 0.311654 0.101542
vt 0.311654 0.101542
vt 0.311654 0.101542
vt 0.311654 0.101542
vt 0.311654 0.101542
vt 0.311654 0.101542
vt 0.311654 0.101542
vt 0.311654 0.101542
vt 0.311654 0.101542
vt 0.311654 0.101542
vt 0.311654 0.101542
vt 0.311654 0.101542
vt 0.311654 0.101542
vt 0.311654 0.101542
vt 0.311654 0.101542
vt 0.311654 0.101542
vt 0.311654 0.101542
vt 0.311654 0.101542
vt 0.311654 0.101542
vt 0.311654 0.101542
vt 0.311654 0.101542
vt 0.311654 0.101542
vt 0.311654 0.101542
vt 0.311654 0.101542
vt 0.311654 0.101542
vt 0.311654 0.101542
vt 0.311654 0.101542
vt 0.311654 0.101542
vt 0.311654 0.101542
vt 0.311654 0.101542
vt 0.311654 0.101542
vt 0.311654 0.101542
vt 0.311654 0.101542
vt 0.311654 0.101542
vt 0.311654 0.101542
vt 0.311654 0.101542
vt 0.311654 0.101542
vt 0.311654 0.101542
vt 0.311654 0.101542
vt 0.311654 0.101542
vt 0.311654 0.101542
vt 0.311654 0.101542
vt 0.311654 0.101542
vt 0.311654 0.101542
vt 0.311654 0.101542
vt 0.311654 0.101542
vt 0.311654 0.101542
vt 0.311654 0.101542
vt 0.311654 0.101542
vt 0.311654 0.101542
vt 0.311654 0.101542
vt 0.311654 0.101542
vt 0.311654 0.101542
vt 0.311654 0.101542
vt 0.311654 0.101542
vt 0.311654 0.101542
vt 0.311654 0.101542
vt 0.311654 0.101542
vt 0.311654 0.101542
vt 0.311654 0.101542
vt 0.311654 0.101542
vt 0.311654 0.101542
vt 0.311654 0.101542
vt 0.311654 0.101542
vt 0.311654 0.101542
vt 0.311654 0.101542
vt 0.311654 0.101542
vt 0.311654 0.101542
vt 0.311654 0.101542
vt 0.311654 0.101542
vt 0.311654 0.101542
vt 0.311654 0.101542
vt 0.311654 0.101542
vt 0.311654 0.101542
vt 0.311654 0.101542
vt 0.311654 0.101542
vt 0.311654 0.101542
vt 0.311654 0.101542
vt 0.311654 0.101542
vt 0.311654 0.101542
vt 0.311654 0.101542
vt 0.311654 0.101542
vt 0.311654 0.101542
vt 0.311654 0.101542
vt 0.311654 0.101542
vt 0.311654 0.101542
vt 0.311654 0.101542
vt 0.311654 0.101542
vt 0.311654 0.101542
vt 0.311654 0.101542
vt 0.311654 0.101542
vt 0.311654 0.101542
vt 0.311654 0.101542
vt 0.311654 0.101542
vt 0.311654 0.101542
vt 0.311654 0.101542
vn -0.305521 -0.019119 -0.951993
vn -0.305521 -0.019119 -0.951993
vn -0.305521 -0.019119 -0.951993
vn -0.305521 -0.019119 -0.951993
vn -0.997838 -0.065690 -0.001867
vn -0.997838 -0.065690 -0.001867
vn -0.997838 -0.065690 -0.001867
vn -0.997838 -0.065690 -0.001867
vn -0.307428 -0.049183 0.950300
vn -0.307428 -0.049183 0.950300
vn -0.307428 -0.049183 0.950300
vn -0.307428 -0.049183 0.950300
vn 0.809983 0.007456 0.586405
vn 0.809983 0.007456 0.586405
vn 0.809983 0.007456 0.586405
vn 0.809983 0.007456 0.586405
vn 0.809596 0.025764 -0.586423
vn 0.809595 0.025764 -0.586423
vn 0.809595 0.025764 -0.586423
vn 0.809595 0.025764 -0.586423
vn 0.035796 -0.991426 0.125668
vn 0.035796 -0.991426 0.125668
vn 0.035796 -0.991426 0.125668
vn 0.125404 -0.992104 0.001606
vn 0.125404 -0.992105 0.001606
vn 0.125404 -0.992105 0.001606
vn 0.035620 -0.991863 -0.122223
vn 0.035620 -0.991863 -0.122223
vn 0.035620 -0.991863 -0.122223
vn -0.110288 -0.991039 -0.075358
vn -0.110288 -0.991039 -0.075358
vn -0.110288 -0.991039 -0.075358
vn -0.110454 -0.990770 0.078578
vn -0.110454 -0.990770 0.078578
vn -0.110454 -0.990770 0.078578
vn -0.197427 0.596187 -0.778192
vn -0.197427 0.596187 -0.778192
vn -0.197427 0.596187 -0.778192
vn -0.804220 0.587132 0.092228
vn -0.804220 0.587132 0.092228
vn -0.804220 0.587132 0.092228
vn -0.185092 0.364309 0.912699
vn -0.185092 0.364309 0.912699
vn -0.185092 0.364309 0.912699
vn 0.791049 0.235702 0.564523
vn 0.791049 0.235702 0.564523
vn 0.791049 0.235702 0.564523
vn 0.794834 0.376030 -0.476278
vn 0.794834 0.376030 -0.476278
vn 0.794834 0.376030 -0.476278
vn -0.323567 -0.048669 -0.944953
vn -0.323567 -0.048669 -0.944953
vn -0.323567 -0.048669 -0.944953
vn -0.323567 -0.048669 -0.944953
vn -0.998035 0.062337 0.006348
vn -0.998035 0.062337 0.006348
vn -0.998035 0.062337 0.006348
vn -0.998035 0.062337 0.006348
vn -0.288281 0.047836 0.956350
vn -0.288281 0.047836 0.956350
vn -0.288281 0.047836 0.956350
vn -0.288281 0.047836 0.956350
vn 0.812241 -0.074868 0.578497
vn 0.812241 -0.074868 0.578497
vn 0.812241 -0.074868 0.578497
vn 0.812241 -0.074868 0.578497
vn 0.789363 -0.138539 -0.598091
vn 0.789363 -0.138539 -0.598091
vn 0.789363 -0.138539 -0.598091
vn 0.789363 -0.138539 -0.598091
vn -0.295821 0.172228 -0.939589
vn -0.295821 0.172228 -0.939589
vn -0.295821 0.172228 -0.939589
vn -0.295821 0.172228 -0.939589
vn -0.931866 0.362664 0.010021
vn -0.931866 0.362664 0.010021
vn -0.931866 0.362664 0.010021
vn -0.931866 0.362664 0.010021
vn -0.316012 -0.046407 0.947620
vn -0.316012 -0.046407 0.947620
vn -0.316012 -0.046407 0.947620
vn -0.316012 -0.046407 0.947620
vn 0.702437 -0.474256 0.530721
vn 0.702437 -0.474256 0.530721
vn 0.702437 -0.474256 0.530721
vn 0.702437 -0.474256 0.530721
vn 0.735705 -0.359097 -0.574271
vn 0.735705 -0.359097 -0.574271
vn 0.735705 -0.359097 -0.574271
vn 0.735705 -0.359097 -0.574271
vn -0.059299 -0.994080 0.091037
vn -0.059299 -0.994080 0.091037
vn -0.059299 -0.994080 0.091037
vn 0.030827 -0.999031 -0.031401
vn 0.030827 -0.999031 -0.031401
vn 0.030827 -0.999031 -0.031401
vn -0.057878 -0.986945 -0.150297
vn -0.057879 -0.986945 -0.150297
vn -0.057879 -0.986945 -0.150297
vn -0.193816 -0.975619 -0.102971
vn -0.193816 -0.975619 -0.102971
vn -0.193816 -0.975619 -0.102971
vn -0.194484 -0.979913 0.044126
vn -0.194484 -0.979913 0.044126
vn -0.194484 -0.979913 0.044126
vn -0.220625 0.504680 -0.834640
vn -0.220625 0.504680 -0.834639
vn -0.220625 0.504680 -0.834640
vn -0.834163 0.551231 0.017785
vn -0.834163 0.551231 0.017785
vn -0.834163 0.551230 0.017785
vn -0.223489 0.443862 0.867778
vn -0.223489 0.443862 0.867778
vn -0.223489 0.443862 0.867778
vn 0.773449 0.330240 0.541034
vn 0.773449 0.330240 0.541034
vn 0.773449 0.330240 0.541034
vn 0.774316 0.368056 -0.514752
vn 0.774316 0.368056 -0.514752
vn 0.774316 0.368056 -0.514752
vn -0.307314 0.078646 -0.948353
vn -0.307314 0.078646 -0.948353
vn -0.307314 0.078646 -0.948353
vn -0.307314 0.078646 -0.948353
vn -0.996549 0.083001 0.001300
vn -0.996549 0.083001 0.001300
vn -0.996549 0.083001 0.001300
vn -0.996549 0.083001 0.001300
vn -0.316543 -0.045016 0.947510
vn -0.316543 -0.045016 0.947510
vn -0.316543 -0.045016 0.947510
vn -0.316543 -0.045016 0.947510
vn 0.799902 -0.128109 0.586298
vn 0.799902 -0.128109 0.586298
vn 0.799902 -0.128109 0.586298
vn 0.799902 -0.128109 0.586298
vn 0.804674 -0.051264 -0.591500
vn 0.804674 -0.051264 -0.591500
vn 0.804674 -0.051264 -0.591500
vn 0.804674 -0.051264 -0.591500
vn -0.299922 0.078320 -0.950743
vn -0.299922 0.078320 -0.950743
vn -0.299922 0.078320 -0.950743
vn -0.299922 0.078320 -0.950743
vn -0.940108 -0.338116 -0.043294
vn -0.940108 -0.338116 -0.043294
vn -0.940108 -0.338116 -0.043294
vn -0.940108 -0.338116 -0.043294
vn -0.271975 -0.370398 0.888163
vn -0.271975 -0.370398 0.888163
vn -0.271975 -0.370398 0.888164
vn -0.271975 -0.370398 0.888163
vn 0.802805 0.022240 0.595827
vn 0.802805 0.022240 0.595827
vn 0.802805 0.022240 0.595827
vn 0.802805 0.022240 0.595827
vn 0.779895 0.301689 -0.548405
vn 0.779895 0.301689 -0.548405
vn 0.779895 0.301689 -0.548405
vn 0.779895 0.301689 -0.548405
vn 0.155019 -0.987663 0.022176
vn 0.155019 -0.987663 0.022176
vn 0.155019 -0.987663 0.022176
vn 0.238558 -0.966597 -0.093707
vn 0.238558 -0.966597 -0.093707
vn 0.238558 -0.966597 -0.093707
vn 0.154249 -0.964928 -0.212418
vn 0.154249 -0.964928 -0.212418
vn 0.154249 -0.964928 -0.212418
vn 0.016963 -0.984897 -0.172307
vn 0.016963 -0.984897 -0.172307
vn 0.016963 -0.984897 -0.172307
vn 0.014616 -0.999577 -0.025125
vn 0.014616 -0.999578 -0.025125
vn 0.014616 -0.999578 -0.025125
vn -0.329248 0.495389 -0.803856
vn -0.329248 0.495389 -0.803856
vn -0.329248 0.495389 -0.803856
vn -0.947215 0.319098 0.030983
vn -0.947215 0.319098 0.030983
vn -0.947215 0.319098 0.030983
vn -0.338239 0.304943 0.890283
vn -0.338239 0.304943 0.890283
vn -0.338239 0.304943 0.890283
vn 0.657134 0.472569 0.587242
vn 0.657134 0.472569 0.587242
vn 0.657134 0.472569 0.587242
vn 0.662837 0.590374 -0.460550
vn 0.662837 0.590374 -0.460550
vn 0.662837 0.590374 -0.460550
vn -0.297564 0.057265 -0.952983
vn -0.297564 0.057265 -0.952983
vn -0.297564 0.057265 -0.952983
vn -0.297564 0.057265 -0.952983
vn -0.991370 -0.129273 -0.021762
vn -0.991370 -0.129273 -0.021762
vn -0.991370 -0.129273 -0.021762
vn -0.991370 -0.129273 -0.021762
vn -0.309239 -0.150979 0.938923
vn -0.309239 -0.150979 0.938923
vn -0.309239 -0.150979 0.938923
vn -0.309239 -0.150979 0.938923
vn 0.802697 0.022281 0.595971
vn 0.802697 0.022281 0.595971
vn 0.802697 0.022281 0.595971
vn 0.802697 0.022281 0.595971
vn 0.807546 0.150575 -0.570260
vn 0.807546 0.150575 -0.570260
vn 0.807546 0.150575 -0.570259
vn 0.807546 0.150575 -0.570259
vn -0.263734 -0.501330 -0.824083
vn -0.263734 -0.501330 -0.824083
vn -0.263734 -0.501330 -0.824083
vn -0.263734 -0.501330 -0.824083
vn -0.996801 -0.079921 -0.000249
vn -0.996801 -0.079921 -0.000249
vn -0.996801 -0.079921 -0.000249
vn -0.996801 -0.079921 -0.000249
vn -0.282860 0.389833 0.876368
vn -0.282860 0.389833 0.876368
vn -0.282860 0.389833 0.876368
vn -0.282860 0.389833 0.876368
vn 0.782829 0.228362 0.578817
vn 0.782829 0.228362 0.578817
vn 0.782829 0.228362 0.578817
vn 0.782829 0.228362 0.578817
vn 0.750626 -0.363553 -0.551716
vn 0.750625 -0.363553 -0.551716
vn 0.750625 -0.363553 -0.551716
vn 0.750625 -0.363553 -0.551716
vn 0.045018 -0.994956 0.089643
vn 0.045018 -0.994956 0.089643
vn 0.045018 -0.994956 0.089643
vn 0.133367 -0.990691 -0.027292
vn 0.133367 -0.990691 -0.027292
vn 0.133367 -0.990691 -0.027292
vn 0.045779 -0.987425 -0.151316
vn 0.045779 -0.987425 -0.151316
vn 0.045779 -0.987425 -0.151316
vn -0.100659 -0.989650 -0.102279
vn -0.100659 -0.989650 -0.102279
vn -0.100659 -0.989650 -0.102279
vn -0.097694 -0.994255 0.043737
vn -0.097694 -0.994255 0.043737
vn -0.097694 -0.994255 0.043737
vn -0.278236 0.443612 -0.851935
vn -0.278236 0.443612 -0.851935
vn -0.278236 0.443612 -0.851935
vn -0.896389 0.443227 0.005977
vn -0.896389 0.443227 0.005977
vn -0.896389 0.443227 0.005977
vn -0.274845 0.442969 0.853369
vn -0.274845 0.442969 0.853369
vn -0.274845 0.442969 0.853369
vn 0.722606 0.443021 0.530635
vn 0.722606 0.443021 0.530635
vn 0.722606 0.443021 0.530635
vn 0.728110 0.443400 -0.522735
vn 0.728110 0.443400 -0.522735
vn 0.728110 0.443400 -0.522735
vn -0.307981 -0.124216 -0.943249
vn -0.307981 -0.124216 -0.943249
vn -0.307981 -0.124216 -0.943249
vn -0.307981 -0.124216 -0.943249
vn -0.999961 -0.008213 0.003150
vn -0.999961 -0.008213 0.003150
vn -0.999961 -0.008213 0.003150
vn -0.999961 -0.008213 0.003150
vn -0.306916 0.104363 0.945997
vn -0.306916 0.104363 0.945997
vn -0.306916 0.104363 0.945997
vn -0.306916 0.104363 0.945997
vn 0.805534 0.058834 0.589622
vn 0.805534 0.058834 0.589622
vn 0.805534 0.058834 0.589622
vn 0.805534 0.058834 0.589622
vn 0.807225 -0.083198 -0.584350
vn 0.807225 -0.083198 -0.584350
vn 0.807226 -0.083198 -0.584350
vn 0.807225 -0.083198 -0.584350
s off
f 1/6/1 2/7/2 7/13/3 6/12/4
f 2/7/5 3/8/6 8/14/7 7/13/8
f 3/8/9 4/9/10 9/15/11 8/14/12
f 4/9/13 5/10/14 10/16/15 9/15/16
f 5/10/17 1/11/18 6/17/19 10/16/20
f 2/2/21 1/1/22 11/23/23
f 3/3/24 2/2/25 11/23/26
f 4/4/27 3/3/28 11/23/29
f 5/5/30 4/4/31 11/23/32
f 1/1/33 5/5/34 11/23/35
f 12/25/36 13/26/37 14/24/38
f 13/26/39 15/27/40 14/24/41
f 15/27/42 16/28/43 14/24/44
f 16/28/45 17/29/46 14/24/47
f 17/29/48 12/25/49 14/24/50
f 6/21/51 7/20/52 13/26/53 12/25/54
f 7/20/55 8/19/56 15/27/57 13/26/58
f 8/19/59 9/18/60 16/28/61 15/27/62
f 9/18/63 10/22/64 17/29/65 16/28/66
f 10/22/67 6/21/68 12/25/69 17/29/70
f 18/30/71 19/31/72 24/32/73 23/33/74
f 19/31/75 20/34/76 25/35/77 24/32/78
f 20/34/79 21/36/80 26/37/81 25/35/82
f 21/36/83 22/38/84 27/39/85 26/37/86
f 22/38/87 18/40/88 23/41/89 27/39/90
f 19/42/91 18/43/92 28/44/93
f 20/45/94 19/42/95 28/44/96
f 21/46/97 20/45/98 28/44/99
f 22/47/100 21/46/101 28/44/102
f 18/43/103 22/47/104 28/44/105
f 29/48/106 30/49/107 31/50/108
f 30/49/109 32/51/110 31/50/111
f 32/51/112 33/52/113 31/50/114
f 33/52/115 34/53/116 31/50/117
f 34/53/118 29/48/119 31/50/120
f 23/54/121 24/55/122 30/49/123 29/48/124
f 24/55/125 25/56/126 32/51/127 30/49/128
f 25/56/129 26/57/130 33/52/131 32/51/132
f 26/57/133 27/58/134 34/53/135 33/52/136
f 27/58/137 23/54/138 29/48/139 34/53/140
f 35/59/141 36/60/142 41/61/143 40/62/144
f 36/60/145 37/63/146 42/64/147 41/61/148
f 37/63/149 38/65/150 43/66/151 42/64/152
f 38/65/153 39/67/154 44/68/155 43/66/156
f 39/67/157 35/69/158 40/70/159 44/68/160
f 36/71/161 35/72/162 45/73/163
f 37/74/164 36/71/165 45/73/166
f 38/75/167 37/74/168 45/73/169
f 39/76/170 38/75/171 45/73/172
f 35/72/173 39/76/174 45/73/175
f 46/77/176 47/78/177 48/79/178
f 47/78/179 49/80/180 48/79/181
f 49/80/182 50/81/183 48/79/184
f 50/81/185 51/82/186 48/79/187
f 51/82/188 46/77/189 48/79/190
f 40/83/191 41/84/192 47/78/193 46/77/194
f 41/84/195 42/85/196 49/80/197 47/78/198
f 42/85/199 43/86/200 50/81/201 49/80/202
f 43/86/203 44/87/204 51/82/205 50/81/206
f 44/87/207 40/83/208 46/77/209 51/82/210
f 52/88/211 53/89/212 58/90/213 57/91/214
f 53/89/215 54/92/216 59/93/217 58/90/218
f 54/92/219 55/94/220 60/95/221 59/93/222
f 55/94/223 56/96/224 61/97/225 60/95/226
f 56/96/227 52/98/228 57/99/229 61/97/230
f 53/100/231 52/101/232 62/102/233
f 54/103/234 53/100/235 62/102/236
f 55/104/237 54/103/238 62/102/239
f 56/105/240 55/104/241 62/102/242
f 52/101/243 56/105/244 62/102/245
f 63/106/246 64/107/247 65/108/248
f 64/107/249 66/109/250 65/108/251
f 66/109/252 67/110/253 65/108/254
f 67/110/255 68/111/256 65/108/257
f 68/111/258 63/106/259 65/108/260
f 57/112/261 58/113/262 64/107/263 63/106/264
f 58/113/265 59/114/266 66/109/267 64/107/268
f 59/114/269 60/115/270 67/110/271 66/109/272
f 60/115/273 61/116/274 68/111/275 67/110/276
f 61/116/277 57/112/278 63/106/279 68/111/280
