# This file uses meters as units for non-parametric coordinates.

v -11.421940 18.684790 43.298416
v 20.011780 11.158853 43.298416
v -22.113665 11.158853 -40.195038
v 20.011780 11.158853 -43.298416
v -36.201916 11.158853 -16.229362
v 44.557022 18.684790 -11.503780
v -37.566055 19.389526 22.921135
v 43.305237 11.158853 20.044025
v 6.689950 18.684790 -38.598759
v 4.122588 11.158853 39.403381
v -48.192139 0.000000 24.079468
v -1.813965 0.000000 24.079468
v 6.412476 0.000000 45.311035
v -22.811035 0.000000 49.790039
v -22.811035 0.000000 -49.790039
v -2.335938 0.000000 -44.001831
v -9.365112 0.000000 -7.289185
v -48.192139 0.000000 -9.480835
v 30.931396 0.000000 -49.790039
v 56.311890 0.000000 -9.480835
v 50.028564 0.000000 24.742432
v 30.931396 0.000000 49.790039
v 3.244068 19.438545 1.351696
vt 0.896440 0.322098
vt 0.896440 0.322098
vt 0.896440 0.322098
vt 0.896440 0.322098
vt 0.896440 0.322098
vt 0.896440 0.322098
vt 0.896440 0.322098
vt 0.896440 0.322098
vt 0.896440 0.322098
vt 0.896440 0.322098
vt 0.896440 0.322098
vt 0.896440 0.322098
vt 0.896440 0.322098
vt 0.896440 0.322098
vt 0.896440 0.322098
vt 0.896440 0.322098
vt 0.896440 0.322098
vt 0.896440 0.322098
vt 0.896440 0.322098
vt 0.896440 0.322098
vt 0.896440 0.322098
vt 0.896440 0.322098
vt 0.896440 0.322098
vt 0.896440 0.322098
vt 0.896440 0.322098
vt 0.896440 0.322098
vt 0.896440 0.322098
vt 0.896440 0.322098
vt 0.896440 0.322098
vt 0.896440 0.322098
vt 0.896440 0.322098
vt 0.896440 0.322098
vt 0.896440 0.322098
vt 0.896440 0.322098
vt 0.896440 0.322098
vt 0.896440 0.322098
vt 0.896440 0.322098
vt 0.896440 0.322098
vt 0.896440 0.322098
vt 0.896440 0.322098
vt 0.896440 0.322098
vt 0.896440 0.322098
vt 0.896440 0.322098
vt 0.896440 0.322098
vt 0.896440 0.322098
vt 0.896440 0.322098
vt 0.896440 0.322098
vt 0.896440 0.322098
vt 0.896440 0.322098
vt 0.896440 0.322098
vt 0.896440 0.322098
vt 0.896440 0.322098
vn 0.000000 -1.000000 0.000000
vn 0.000000 -1.000000 0.000000
vn 0.000000 -1.000000 0.000000
vn 0.000000 -1.000000 0.000000
vn 0.000000 -1.000000 0.000000
vn 0.000000 -1.000000 0.000000
vn 0.000000 -1.000000 0.000000
vn 0.000000 -1.000000 0.000000
vn 0.000000 -1.000000 0.000000
vn 0.000000 -1.000000 0.000000
vn 0.000000 -1.000000 0.000000
vn 0.000000 -1.000000 0.000000
vn 0.000000 -1.000000 0.000000
vn 0.000000 -1.000000 0.000000
vn 0.000000 -1.000000 0.000000
vn 0.000000 -1.000000 0.000000
vn 0.000000 -1.000000 0.000000
vn 0.000000 -1.000000 0.000000
vn 0.000000 -1.000000 0.000000
vn 0.000000 -1.000000 0.000000
vn 0.000000 -1.000000 0.000000
vn 0.000000 -1.000000 0.000000
vn 0.000000 -1.000000 0.000000
vn 0.000000 -1.000000 0.000000
vn 0.225349 0.314421 0.922148
vn 0.225349 0.314421 0.922148
vn 0.225349 0.314421 0.922148
vn 0.225349 0.314421 0.922148
vn -0.584596 0.470785 0.660764
vn -0.584596 0.470785 0.660764
vn -0.584596 0.470785 0.660764
vn -0.584596 0.470785 0.660764
vn 0.069254 0.429856 -0.900238
vn 0.069254 0.429856 -0.900238
vn 0.069254 0.429856 -0.900238
vn 0.069254 0.429856 -0.900238
vn -0.746298 0.482720 -0.458280
vn -0.746298 0.482720 -0.458280
vn -0.746298 0.482720 -0.458280
vn -0.746298 0.482720 -0.458280
vn -0.810970 0.579480 -0.080810
vn -0.810970 0.579480 -0.080810
vn -0.810970 0.579480 -0.080810
vn -0.810970 0.579480 -0.080810
vn -0.149679 0.357862 -0.921700
vn -0.149679 0.357862 -0.921700
vn -0.149679 0.357862 -0.921700
vn -0.149679 0.357862 -0.921700
vn 0.647656 0.568101 -0.507743
vn 0.647656 0.568101 -0.507743
vn 0.647656 0.568101 -0.507743
vn 0.647656 0.568101 -0.507743
vn 0.823525 0.545199 0.156733
vn 0.823525 0.545199 0.156733
vn 0.823525 0.545199 0.156733
vn 0.823525 0.545199 0.156733
vn 0.551778 0.679002 0.484250
vn 0.551778 0.679002 0.484250
vn 0.551778 0.679002 0.484250
vn 0.551778 0.679002 0.484250
vn -0.186831 0.390293 0.901535
vn -0.186831 0.390293 0.901535
vn -0.186831 0.390293 0.901535
vn -0.186831 0.390293 0.901535
vn 0.464586 0.867449 0.178023
vn 0.464586 0.867449 0.178023
vn 0.464586 0.867449 0.178023
vn -0.250528 0.967288 -0.039859
vn -0.250528 0.967288 -0.039859
vn -0.250528 0.967288 -0.039859
vn 0.138129 0.980702 0.138361
vn 0.138129 0.980702 0.138361
vn 0.138129 0.980702 0.138361
vn 0.010174 0.999717 0.021521
vn 0.010174 0.999717 0.021521
vn 0.010174 0.999717 0.021521
vn -0.163311 0.981893 -0.096002
vn -0.163311 0.981893 -0.096002
vn -0.163311 0.981893 -0.096002
vn -0.043750 0.979223 -0.198012
vn -0.043750 0.979223 -0.198012
vn -0.043750 0.979223 -0.198012
vn -0.111190 0.971753 -0.208167
vn -0.111190 0.971753 -0.208167
vn -0.111190 0.971753 -0.208167
vn 0.090626 0.967885 0.234491
vn 0.090626 0.967885 0.234491
vn 0.090626 0.967885 0.234491
vn 0.498813 0.866299 0.026680
vn 0.498813 0.866299 0.026680
vn 0.498813 0.866299 0.026680
vn -0.052331 0.975545 0.213478
vn -0.052331 0.975545 0.213478
vn -0.052331 0.975545 0.213478
s off
f 11/1/1 12/2/2 13/3/3 14/4/4
f 15/5/5 16/6/6 17/7/7 18/8/8
f 18/8/9 17/7/10 12/2/11 11/1/12
f 17/7/13 16/6/14 19/9/15 20/10/16
f 12/2/17 17/7/18 20/10/19 21/11/20
f 13/3/21 12/2/22 21/11/23 22/12/24
f 10/13/25 1/14/26 14/4/27 13/3/28
f 1/14/29 7/15/30 11/1/31 14/4/32
f 3/16/33 9/17/34 16/6/35 15/5/36
f 5/18/37 3/16/38 15/5/39 18/8/40
f 7/15/41 5/18/42 18/8/43 11/1/44
f 9/17/45 4/19/46 19/9/47 16/6/48
f 4/19/49 6/20/50 20/10/51 19/9/52
f 6/20/53 8/21/54 21/11/55 20/10/56
f 8/21/57 2/22/58 22/12/59 21/11/60
f 2/22/61 10/13/62 13/3/63 22/12/64
f 1/23/65 10/24/66 23/25/67
f 9/26/68 3/27/69 23/28/70
f 2/29/71 8/30/72 23/31/73
f 7/32/74 1/33/75 23/34/76
f 3/35/77 5/36/78 23/37/79
f 6/38/80 4/39/81 23/40/82
f 5/41/83 7/42/84 23/43/85
f 8/44/86 6/45/87 23/46/88
f 4/47/89 9/48/90 23/49/91
f 10/50/92 2/51/93 23/52/94
