# This file uses meters as units for non-parametric coordinates.

v -21.927002 -9.538446 19.966309
v 3.693604 -9.538446 19.966309
v -14.429688 12.543158 13.687531
v -1.976807 12.543158 13.687531
v -14.429688 12.543158 1.234558
v -1.976807 12.543158 1.234558
v -21.927002 -9.538446 -5.654449
v 3.693604 -9.538446 -5.654449
v -12.331055 33.707188 8.968262
v -7.953857 33.707188 8.968262
v -7.953857 33.707188 4.591064
v -12.331055 33.707188 4.591064
v -10.123291 38.552643 6.788452
v 4.372070 -8.936256 -11.493103
v -7.392578 -8.936256 6.061798
v 4.771240 10.531872 -3.573761
v -0.587891 10.531872 5.520233
v 13.864746 10.531872 1.785248
v 8.506348 10.531872 10.879181
v 21.927246 -8.936256 0.271942
v 10.162109 -8.936256 17.826843
v 7.298096 25.763166 -1.371887
v 3.898682 25.662371 3.052734
v 8.314941 25.216486 6.435791
v 11.714111 25.317308 2.011139
v 8.033691 30.964989 3.291351
v 4.232422 -9.997731 2.795135
v 11.053955 -9.997731 -14.917328
v 1.887695 9.567480 -4.060120
v 5.203613 9.567480 -12.668976
v -6.721191 9.567480 -7.375793
v -3.405273 9.567480 -15.984741
v -13.480713 -9.997731 -4.026825
v -6.658691 -9.997731 -21.739105
v -0.473633 30.263639 -6.903717
v 0.691650 30.263639 -9.929749
v -2.334229 30.263639 -11.095215
v -3.499756 30.263639 -8.069244
v -1.572021 33.905594 -9.078125
vt 0.896223 0.283530
vt 0.896223 0.283530
vt 0.896223 0.283530
vt 0.896223 0.283530
vt 0.896223 0.283530
vt 0.896223 0.283530
vt 0.896223 0.283530
vt 0.896223 0.283530
vt 0.896223 0.283530
vt 0.896223 0.283530
vt 0.896223 0.283530
vt 0.896223 0.283530
vt 0.896223 0.283530
vt 0.896223 0.283530
vt 0.451416 0.279009
vt 0.451416 0.279009
vt 0.451416 0.279007
vt 0.451416 0.279007
vt 0.451416 0.279009
vt 0.896223 0.283530
vt 0.896223 0.283530
vt 0.896223 0.283530
vt 0.896223 0.283530
vt 0.896223 0.283530
vt 0.896223 0.283530
vt 0.896223 0.283530
vt 0.896223 0.283530
vt 0.896223 0.283530
vt 0.896223 0.283530
vt 0.896223 0.283530
vt 0.896223 0.283530
vt 0.896223 0.283530
vt 0.896223 0.283530
vt 0.451416 0.279007
vt 0.451416 0.279009
vt 0.451416 0.279007
vt 0.451416 0.279007
vt 0.451416 0.279009
vt 0.896223 0.283530
vt 0.896223 0.283530
vt 0.896223 0.283530
vt 0.896223 0.283530
vt 0.896223 0.283530
vt 0.896223 0.283530
vt 0.896223 0.283530
vt 0.896223 0.283530
vt 0.896223 0.283530
vt 0.896223 0.283530
vt 0.896223 0.283530
vt 0.896223 0.283530
vt 0.896223 0.283530
vt 0.896223 0.283530
vt 0.451416 0.279009
vt 0.451416 0.279007
vt 0.451416 0.279007
vt 0.451416 0.279009
vt 0.451416 0.279007
vt 0.451416 0.279009
vt 0.451416 0.279007
vt 0.451416 0.279007
vt 0.451416 0.279009
vt 0.451416 0.279009
vt 0.451416 0.279007
vt 0.451416 0.279007
vt 0.451416 0.279009
vt 0.451416 0.279007
vt 0.451416 0.279009
vt 0.451416 0.279007
vt 0.451416 0.279007
vn 0.000000 0.273503 0.961871
vn 0.000000 0.273503 0.961871
vn 0.000000 0.273503 0.961871
vn 0.000000 0.273503 0.961871
vn 0.000000 0.297822 -0.954621
vn 0.000000 0.297822 -0.954621
vn 0.000000 0.297822 -0.954621
vn 0.000000 0.297822 -0.954621
vn 0.000000 -1.000000 0.000000
vn 0.000000 -1.000000 0.000000
vn 0.000000 -1.000000 0.000000
vn 0.000000 -1.000000 0.000000
vn 0.968574 0.248724 0.000000
vn 0.968574 0.248724 0.000000
vn 0.968574 0.248724 0.000000
vn 0.968574 0.248724 0.000000
vn -0.946911 0.321495 0.000000
vn -0.946911 0.321495 0.000000
vn -0.946911 0.321495 0.000000
vn -0.946911 0.321495 0.000000
vn 0.000000 0.217640 0.976029
vn 0.000000 0.217640 0.976029
vn 0.000000 0.217640 0.976029
vn 0.000000 0.217640 0.976029
vn 0.962357 0.271788 0.000000
vn 0.962357 0.271788 0.000000
vn 0.962357 0.271788 0.000000
vn 0.962357 0.271788 0.000000
vn 0.000000 0.156638 -0.987656
vn 0.000000 0.156638 -0.987656
vn 0.000000 0.156638 -0.987656
vn 0.000000 0.156638 -0.987656
vn -0.995120 0.098675 0.000000
vn -0.995120 0.098675 0.000000
vn -0.995120 0.098675 0.000000
vn -0.995120 0.098675 0.000000
vn 0.000000 0.410265 0.911966
vn 0.000000 0.410265 0.911966
vn 0.000000 0.410265 0.911966
vn 0.912707 0.408614 0.000000
vn 0.912707 0.408614 0.000000
vn 0.912707 0.408614 0.000000
vn 0.000000 0.413006 -0.910728
vn 0.000000 0.413006 -0.910728
vn 0.000000 0.413006 -0.910728
vn -0.909979 0.414654 0.000000
vn -0.909979 0.414654 0.000000
vn -0.909979 0.414654 0.000000
vn -0.814596 0.249893 -0.523438
vn -0.814596 0.249893 -0.523438
vn -0.814596 0.249893 -0.523438
vn -0.814596 0.249893 -0.523438
vn 0.808984 0.274470 0.519818
vn 0.808984 0.274470 0.519818
vn 0.808984 0.274470 0.519818
vn 0.808984 0.274470 0.519818
vn 0.000000 -1.000000 0.000000
vn 0.000000 -1.000000 0.000000
vn 0.000000 -1.000000 0.000000
vn 0.000000 -1.000000 0.000000
vn -0.526454 0.227203 0.819283
vn -0.526454 0.227203 0.819283
vn -0.526454 0.227203 0.819283
vn -0.526454 0.227203 0.819283
vn 0.516327 0.296281 -0.803508
vn 0.516327 0.296281 -0.803508
vn 0.516327 0.296281 -0.803508
vn 0.516327 0.296281 -0.803508
vn -0.825246 0.185963 -0.533279
vn -0.825246 0.185963 -0.533279
vn -0.825246 0.185963 -0.533279
vn -0.825246 0.185963 -0.533279
vn -0.517941 0.263271 0.813896
vn -0.517941 0.263271 0.813896
vn -0.517941 0.263271 0.813896
vn -0.517941 0.263271 0.813896
vn 0.830159 0.143082 0.538854
vn 0.830159 0.143082 0.538854
vn 0.830159 0.143082 0.538854
vn 0.830159 0.143082 0.538854
vn 0.543681 0.060886 -0.837081
vn 0.543681 0.060886 -0.837081
vn 0.543681 0.060886 -0.837081
vn 0.543681 0.060886 -0.837081
vn -0.670549 0.545535 -0.502748
vn -0.670549 0.545535 -0.502748
vn -0.670549 0.545535 -0.502748
vn -0.536546 0.384616 0.751125
vn -0.536546 0.384616 0.751125
vn -0.536546 0.384616 0.751125
vn 0.738693 0.350933 0.575481
vn 0.738693 0.350934 0.575481
vn 0.738693 0.350934 0.575481
vn 0.554810 0.510473 -0.656966
vn 0.554810 0.510473 -0.656966
vn 0.554810 0.510473 -0.656966
vn 0.907878 0.231305 0.349652
vn 0.907878 0.231305 0.349652
vn 0.907878 0.231305 0.349652
vn 0.907878 0.231305 0.349652
vn -0.902954 0.252429 -0.347783
vn -0.902954 0.252429 -0.347783
vn -0.902954 0.252429 -0.347783
vn -0.902954 0.252429 -0.347784
vn 0.000000 -1.000000 0.000000
vn 0.000000 -1.000000 0.000000
vn 0.000000 -1.000000 0.000000
vn 0.000000 -1.000000 0.000000
vn 0.351401 0.209919 -0.912388
vn 0.351401 0.209919 -0.912388
vn 0.351401 0.209919 -0.912388
vn 0.351401 0.209919 -0.912388
vn -0.345740 0.273105 0.897707
vn -0.345740 0.273105 0.897707
vn -0.345740 0.273105 0.897707
vn -0.345740 0.273105 0.897707
vn 0.922052 0.153999 0.355112
vn 0.922052 0.153999 0.355113
vn 0.922052 0.153999 0.355112
vn 0.922052 0.153999 0.355113
vn 0.352311 0.197875 -0.914725
vn 0.352311 0.197875 -0.914726
vn 0.352311 0.197875 -0.914726
vn 0.352311 0.197875 -0.914725
vn -0.924999 0.132039 -0.356289
vn -0.924999 0.132039 -0.356289
vn -0.924999 0.132039 -0.356289
vn -0.924999 0.132039 -0.356289
vn -0.358045 0.086880 0.929654
vn -0.358045 0.086880 0.929654
vn -0.358045 0.086880 0.929654
vn -0.358045 0.086880 0.929654
vn 0.836015 0.444342 0.321930
vn 0.836015 0.444342 0.321930
vn 0.836015 0.444342 0.321930
vn 0.328775 0.403965 -0.853650
vn 0.328775 0.403965 -0.853651
vn 0.328775 0.403965 -0.853650
vn -0.868085 0.366916 -0.334366
vn -0.868085 0.366916 -0.334366
vn -0.868085 0.366916 -0.334366
vn -0.327892 0.409423 0.851387
vn -0.327892 0.409423 0.851387
vn -0.327892 0.409423 0.851387
s off
f 1/1/1 2/2/2 4/4/3 3/3/4
f 5/5/5 6/6/6 8/8/7 7/7/8
f 7/7/9 8/8/10 2/10/11 1/9/12
f 2/2/13 8/11/14 6/12/15 4/4/16
f 7/13/17 1/1/18 3/3/19 5/14/20
f 3/15/21 4/16/22 10/17/23 9/18/24
f 4/16/25 6/19/26 11/34/27 10/17/28
f 6/19/29 5/35/30 12/36/31 11/34/32
f 5/35/33 3/15/34 9/18/35 12/36/36
f 9/18/37 10/17/38 13/37/39
f 10/17/40 11/34/41 13/37/42
f 11/34/43 12/36/44 13/37/45
f 12/36/46 9/18/47 13/37/48
f 14/20/49 15/21/50 17/22/51 16/23/52
f 18/24/53 19/25/54 21/26/55 20/27/56
f 20/27/57 21/26/58 15/28/59 14/29/60
f 15/21/61 21/30/62 19/31/63 17/22/64
f 20/32/65 14/20/66 16/23/67 18/33/68
f 16/38/69 17/53/70 23/54/71 22/55/72
f 17/53/73 19/56/74 24/57/75 23/54/76
f 19/56/77 18/58/78 25/59/79 24/57/80
f 18/58/81 16/38/82 22/55/83 25/59/84
f 22/55/85 23/54/86 26/60/87
f 23/54/88 24/57/89 26/60/90
f 24/57/91 25/59/92 26/60/93
f 25/59/94 22/55/95 26/60/96
f 27/39/97 28/40/98 30/41/99 29/42/100
f 31/43/101 32/44/102 34/45/103 33/46/104
f 33/46/105 34/45/106 28/47/107 27/48/108
f 28/40/109 34/49/110 32/50/111 30/41/112
f 33/51/113 27/39/114 29/42/115 31/52/116
f 29/61/117 30/62/118 36/63/119 35/64/120
f 30/62/121 32/65/122 37/66/123 36/63/124
f 32/65/125 31/67/126 38/68/127 37/66/128
f 31/67/129 29/61/130 35/64/131 38/68/132
f 35/64/133 36/63/134 39/69/135
f 36/63/136 37/66/137 39/69/138
f 37/66/139 38/68/140 39/69/141
f 38/68/142 35/64/143 39/69/144
