# This file uses meters as units for non-parametric coordinates.

v 8.036865 0.000000 -14.040588
v -9.288086 0.000000 -13.002502
v -16.282227 0.000000 0.000000
v -8.744141 0.000000 12.366882
v 8.036865 0.000000 14.040649
v 16.282715 0.000000 -2.573792
v 6.088867 10.383893 -10.666382
v -7.340088 10.335397 -9.628235
v -12.385986 10.383893 0.000000
v -6.796143 10.335397 8.992798
v 6.088867 10.383893 10.666443
v 12.386719 10.335397 -2.573792
v -0.069336 -3.746147 0.000061
v -0.069336 10.484199 0.000061
vt 0.896141 0.286199
vt 0.896141 0.286199
vt 0.896141 0.286199
vt 0.896141 0.286199
vt 0.896141 0.286199
vt 0.896141 0.286199
vt 0.896141 0.286199
vt 0.896141 0.286199
vt 0.896141 0.286199
vt 0.896141 0.286199
vt 0.896141 0.286199
vt 0.896141 0.286199
vt 0.896141 0.286199
vt 0.896141 0.286199
vt 0.896141 0.286199
vt 0.896141 0.286199
vt 0.896141 0.286199
vt 0.896141 0.286199
vt 0.896141 0.286199
vt 0.896141 0.286199
vt 0.449463 0.285012
vt 0.449463 0.285012
vt 0.449463 0.285012
vt 0.449463 0.285012
vt 0.449463 0.285012
vt 0.449463 0.285012
vt 0.896141 0.286199
vt 0.449463 0.285012
vn -0.064547 0.309049 -0.948853
vn -0.064547 0.309049 -0.948853
vn -0.064547 0.309049 -0.948853
vn -0.064547 0.309049 -0.948853
vn -0.839200 0.309532 -0.447139
vn -0.839200 0.309532 -0.447139
vn -0.839200 0.309532 -0.447139
vn -0.839200 0.309532 -0.447139
vn -0.809777 0.309581 0.498419
vn -0.809777 0.309581 0.498419
vn -0.809777 0.309581 0.498419
vn -0.809777 0.309581 0.498419
vn -0.107179 0.307906 0.945361
vn -0.107179 0.307906 0.945361
vn -0.107179 0.307906 0.945361
vn -0.107179 0.307906 0.945361
vn 0.855204 0.308984 0.416118
vn 0.855204 0.308984 0.416118
vn 0.855204 0.308984 0.416118
vn 0.855204 0.308984 0.416118
vn 0.763866 0.307830 -0.567230
vn 0.763866 0.307830 -0.567230
vn 0.763866 0.307830 -0.567230
vn 0.763866 0.307830 -0.567230
vn -0.015960 -0.963745 -0.266348
vn -0.015960 -0.963745 -0.266348
vn -0.015960 -0.963745 -0.266349
vn -0.223495 -0.967263 -0.120221
vn -0.223495 -0.967263 -0.120221
vn -0.223495 -0.967263 -0.120221
vn -0.223038 -0.965283 0.135954
vn -0.223038 -0.965283 0.135954
vn -0.223038 -0.965283 0.135954
vn -0.027161 -0.961828 0.272304
vn -0.027161 -0.961828 0.272304
vn -0.027161 -0.961828 0.272304
vn 0.239460 -0.963605 0.118847
vn 0.239460 -0.963605 0.118847
vn 0.239460 -0.963605 0.118847
vn 0.199488 -0.969343 -0.143455
vn 0.199489 -0.969343 -0.143455
vn 0.199488 -0.969343 -0.143455
vn -0.004541 0.999917 -0.012025
vn -0.004541 0.999917 -0.012025
vn -0.004541 0.999917 -0.012025
vn -0.008143 0.999924 -0.009304
vn -0.008143 0.999924 -0.009304
vn -0.008143 0.999924 -0.009304
vn -0.008143 0.999912 0.010454
vn -0.008143 0.999912 0.010454
vn -0.008143 0.999912 0.010454
vn -0.005389 0.999907 0.012514
vn -0.005389 0.999907 0.012514
vn -0.005389 0.999907 0.012514
vn 0.012408 0.999921 0.002240
vn 0.012408 0.999921 0.002240
vn 0.012408 0.999921 0.002240
vn 0.011357 0.999931 -0.002846
vn 0.011357 0.999931 -0.002846
vn 0.011357 0.999932 -0.002846
s off
f 1/7/1 2/8/2 8/15/3 7/14/4
f 2/8/5 3/9/6 9/16/7 8/15/8
f 3/9/9 4/10/10 10/17/11 9/16/12
f 4/10/13 5/11/14 11/18/15 10/17/16
f 5/11/17 6/12/18 12/19/19 11/18/20
f 6/12/21 1/13/22 7/20/23 12/19/24
f 2/2/25 1/1/26 13/27/27
f 3/3/28 2/2/29 13/27/30
f 4/4/31 3/3/32 13/27/33
f 5/5/34 4/4/35 13/27/36
f 6/6/37 5/5/38 13/27/39
f 1/1/40 6/6/41 13/27/42
f 7/21/43 8/22/44 14/23/45
f 8/22/46 9/24/47 14/23/48
f 9/24/49 10/25/50 14/23/51
f 10/25/52 11/26/53 14/23/54
f 11/26/55 12/28/56 14/23/57
f 12/28/58 7/21/59 14/23/60
