# This file uses meters as units for non-parametric coordinates.

v -18.501068 18.678040 44.520309
v 28.290449 10.939718 44.520309
v -35.734825 10.939718 -41.329342
v 29.075018 10.939718 -44.520309
v -39.913353 10.939718 -25.216755
v 39.219875 18.678040 -29.531055
v -37.572262 19.402666 37.811291
v 44.372150 10.939718 36.948990
v 7.357381 18.678040 -39.688030
v 4.717567 10.939718 40.515343
v -47.797009 0.000000 33.862255
v -1.813965 0.000000 24.079468
v 6.412476 0.000000 45.311035
v -34.841873 0.000000 49.790039
v -36.146454 0.000000 -49.790039
v -2.335938 0.000000 -44.001831
v -9.365112 0.000000 -7.289185
v -49.965088 0.000000 -27.506924
v 44.266815 0.000000 -49.790039
v 50.492863 -0.000000 -32.340717
v 49.593246 0.000000 35.964802
v 42.962234 0.000000 49.790039
v 3.498494 22.594475 1.690632
vt 0.896440 0.322098
vt 0.896440 0.322098
vt 0.896440 0.322098
vt 0.896440 0.322098
vt 0.896440 0.322098
vt 0.896440 0.322098
vt 0.896440 0.322098
vt 0.896440 0.322098
vt 0.896440 0.322098
vt 0.896440 0.322098
vt 0.896440 0.322098
vt 0.896440 0.322098
vt 0.896440 0.322098
vt 0.896440 0.322098
vt 0.896440 0.322098
vt 0.896440 0.322098
vt 0.896440 0.322098
vt 0.896440 0.322098
vt 0.896440 0.322098
vt 0.896440 0.322098
vt 0.896440 0.322098
vt 0.896440 0.322098
vt 0.896440 0.322098
vt 0.896440 0.322098
vt 0.896440 0.322098
vt 0.896440 0.322098
vt 0.896440 0.322098
vt 0.896440 0.322098
vt 0.896440 0.322098
vt 0.896440 0.322098
vt 0.896440 0.322098
vt 0.896440 0.322098
vt 0.896440 0.322098
vt 0.896440 0.322098
vt 0.896440 0.322098
vt 0.896440 0.322098
vt 0.896440 0.322098
vt 0.896440 0.322098
vt 0.896440 0.322098
vt 0.896440 0.322098
vt 0.896440 0.322098
vt 0.896440 0.322098
vt 0.896440 0.322098
vt 0.896440 0.322098
vt 0.896440 0.322098
vt 0.896440 0.322098
vt 0.896440 0.322098
vt 0.896440 0.322098
vt 0.896440 0.322098
vt 0.896440 0.322098
vt 0.896440 0.322098
vt 0.896440 0.322098
vn 0.000000 -1.000000 0.000000
vn 0.000000 -1.000000 0.000000
vn 0.000000 -1.000000 0.000000
vn 0.000000 -1.000000 0.000000
vn 0.000000 -1.000000 0.000000
vn 0.000000 -1.000000 0.000000
vn 0.000000 -1.000000 0.000000
vn 0.000000 -1.000000 0.000000
vn 0.000000 -1.000000 0.000000
vn 0.000000 -1.000000 0.000000
vn 0.000000 -1.000000 0.000000
vn 0.000000 -1.000000 0.000000
vn -0.000000 -1.000000 -0.000000
vn -0.000000 -1.000000 -0.000000
vn -0.000000 -1.000000 -0.000000
vn -0.000000 -1.000000 -0.000000
vn -0.000000 -1.000000 0.000000
vn -0.000000 -1.000000 0.000000
vn -0.000000 -1.000000 0.000000
vn -0.000000 -1.000000 0.000000
vn 0.000000 -1.000000 0.000000
vn 0.000000 -1.000000 0.000000
vn 0.000000 -1.000000 0.000000
vn 0.000000 -1.000000 0.000000
vn 0.155591 0.248013 0.956180
vn 0.155591 0.248013 0.956180
vn 0.155591 0.248013 0.956180
vn 0.155591 0.248013 0.956180
vn -0.524959 0.392412 0.755269
vn -0.524959 0.392412 0.755269
vn -0.524959 0.392412 0.755269
vn -0.524959 0.392412 0.755269
vn 0.050871 0.380848 -0.923237
vn 0.050871 0.380848 -0.923237
vn 0.050871 0.380848 -0.923237
vn 0.050871 0.380848 -0.923237
vn -0.762106 0.539988 -0.357221
vn -0.762106 0.539988 -0.357221
vn -0.762106 0.539988 -0.357221
vn -0.762106 0.539988 -0.357221
vn -0.830677 0.556701 -0.007763
vn -0.830677 0.556701 -0.007763
vn -0.830677 0.556701 -0.007763
vn -0.830677 0.556701 -0.007763
vn -0.115425 0.286339 -0.951150
vn -0.115425 0.286339 -0.951150
vn -0.115425 0.286339 -0.951150
vn -0.115425 0.286339 -0.951150
vn 0.596965 0.658446 -0.458347
vn 0.596965 0.658446 -0.458347
vn 0.596965 0.658446 -0.458347
vn 0.596965 0.658446 -0.458347
vn 0.873679 0.486504 0.000365
vn 0.873679 0.486504 0.000365
vn 0.873679 0.486504 0.000365
vn 0.873679 0.486504 0.000365
vn 0.544349 0.608105 0.577834
vn 0.544349 0.608105 0.577834
vn 0.544349 0.608105 0.577834
vn 0.544349 0.608105 0.577834
vn -0.131841 0.331196 0.934306
vn -0.131841 0.331196 0.934306
vn -0.131841 0.331196 0.934306
vn -0.131841 0.331196 0.934306
vn 0.345366 0.901774 0.259858
vn 0.345366 0.901774 0.259858
vn 0.345366 0.901774 0.259858
vn -0.171690 0.979137 -0.108686
vn -0.171690 0.979137 -0.108686
vn -0.171690 0.979137 -0.108686
vn 0.097978 0.973186 0.208108
vn 0.097978 0.973186 0.208108
vn 0.097978 0.973186 0.208108
vn 0.004914 0.995601 0.093564
vn 0.004914 0.995601 0.093564
vn 0.004914 0.995601 0.093564
vn -0.224959 0.972620 -0.058339
vn -0.224959 0.972620 -0.058339
vn -0.224959 0.972620 -0.058339
vn -0.197270 0.919133 -0.340996
vn -0.197270 0.919133 -0.340996
vn -0.197270 0.919133 -0.340996
vn -0.184852 0.974907 -0.124037
vn -0.184852 0.974907 -0.124037
vn -0.184852 0.974907 -0.124037
vn 0.193250 0.976177 0.098651
vn 0.193250 0.976177 0.098651
vn 0.193250 0.976177 0.098651
vn 0.323334 0.944429 -0.059236
vn 0.323334 0.944429 -0.059236
vn 0.323334 0.944429 -0.059236
vn -0.049029 0.956200 0.288580
vn -0.049029 0.956200 0.288580
vn -0.049029 0.956200 0.288580
s off
f 11/1/1 12/2/2 13/3/3 14/4/4
f 15/5/5 16/6/6 17/7/7 18/8/8
f 18/8/9 17/7/10 12/2/11 11/1/12
f 17/7/13 16/6/14 19/9/15 20/10/16
f 12/2/17 17/7/18 20/10/19 21/11/20
f 13/3/21 12/2/22 21/11/23 22/12/24
f 10/13/25 1/14/26 14/4/27 13/3/28
f 1/14/29 7/15/30 11/1/31 14/4/32
f 3/16/33 9/17/34 16/6/35 15/5/36
f 5/18/37 3/16/38 15/5/39 18/8/40
f 7/15/41 5/18/42 18/8/43 11/1/44
f 9/17/45 4/19/46 19/9/47 16/6/48
f 4/19/49 6/20/50 20/10/51 19/9/52
f 6/20/53 8/21/54 21/11/55 20/10/56
f 8/21/57 2/22/58 22/12/59 21/11/60
f 2/22/61 10/13/62 13/3/63 22/12/64
f 1/23/65 10/24/66 23/25/67
f 9/26/68 3/27/69 23/28/70
f 2/29/71 8/30/72 23/31/73
f 7/32/74 1/33/75 23/34/76
f 3/35/77 5/36/78 23/37/79
f 6/38/80 4/39/81 23/40/82
f 5/41/83 7/42/84 23/43/85
f 8/44/86 6/45/87 23/46/88
f 4/47/89 9/48/90 23/49/91
f 10/50/92 2/51/93 23/52/94
