# This file uses meters as units for non-parametric coordinates.

v 2.181030 0.000000 -5.999512
v -4.871826 0.000000 -3.708008
v -4.871826 0.000000 3.707947
v 2.181030 0.000000 5.999512
v 6.540161 0.000000 0.000000
v 3.644897 9.827724 -12.036804
v -11.303467 9.827724 -7.179810
v -11.303467 9.827724 8.537750
v 3.644897 9.827724 13.394775
v 12.884155 9.827724 0.679016
v 0.231689 0.000000 0.000000
v 3.013916 22.186737 -10.652802
v -9.429443 23.763687 -6.118896
v 1.563477 31.288155 -0.547028
v -8.895630 24.588951 7.181732
v 3.876953 23.522045 10.868317
v 11.237793 22.037361 -0.153992
vt 0.311654 0.101542
vt 0.311654 0.101542
vt 0.311654 0.101542
vt 0.311654 0.101542
vt 0.311654 0.101542
vt 0.311654 0.101542
vt 0.311654 0.101542
vt 0.311654 0.101542
vt 0.311654 0.101542
vt 0.311654 0.101542
vt 0.311654 0.101542
vt 0.311654 0.101542
vt 0.311654 0.101542
vt 0.311654 0.101542
vt 0.311654 0.101542
vt 0.311654 0.101542
vt 0.311654 0.101542
vt 0.311654 0.101542
vt 0.311654 0.101542
vt 0.311654 0.101542
vt 0.311654 0.101542
vt 0.311654 0.101542
vt 0.311654 0.101542
vt 0.450928 0.286495
vt 0.311654 0.101542
vt 0.311654 0.101542
vt 0.311654 0.101542
vt 0.311654 0.101542
vt 0.311654 0.101542
vt 0.450928 0.286495
vt 0.450928 0.286495
vt 0.450928 0.286495
vt 0.450928 0.286495
vt 0.450928 0.286495
vn -0.272106 -0.473928 -0.837467
vn -0.272106 -0.473928 -0.837467
vn -0.272106 -0.473928 -0.837467
vn -0.272106 -0.473928 -0.837467
vn -0.836745 -0.547593 0.000000
vn -0.836745 -0.547593 0.000000
vn -0.836745 -0.547593 0.000000
vn -0.836745 -0.547593 0.000000
vn -0.256765 -0.556402 0.790246
vn -0.256765 -0.556402 0.790246
vn -0.256765 -0.556402 0.790246
vn -0.256765 -0.556402 0.790246
vn 0.705002 -0.490482 0.512249
vn 0.705002 -0.490482 0.512249
vn 0.705002 -0.490482 0.512249
vn 0.705002 -0.490482 0.512249
vn 0.728873 -0.433909 -0.529591
vn 0.728873 -0.433909 -0.529591
vn 0.728873 -0.433909 -0.529591
vn 0.728873 -0.433909 -0.529591
vn 0.000000 -1.000000 0.000000
vn 0.000000 -1.000000 0.000000
vn 0.000000 -1.000000 0.000000
vn 0.000000 -1.000000 0.000000
vn 0.000000 -1.000000 0.000000
vn 0.000000 -1.000000 0.000000
vn 0.000000 -1.000000 0.000000
vn 0.000000 -1.000000 0.000000
vn 0.000000 -1.000000 0.000000
vn 0.000000 -1.000000 0.000000
vn 0.000000 -1.000000 0.000000
vn 0.000000 -1.000000 0.000000
vn 0.000000 -1.000000 0.000000
vn 0.000000 -1.000000 0.000000
vn 0.000000 -1.000000 0.000000
vn -0.153700 0.723167 -0.673355
vn -0.153700 0.723167 -0.673355
vn -0.153700 0.723167 -0.673354
vn -0.554420 0.831719 -0.029355
vn -0.554420 0.831720 -0.029355
vn -0.554419 0.831719 -0.029355
vn -0.097500 0.813563 0.573244
vn -0.097500 0.813563 0.573244
vn -0.097500 0.813563 0.573244
vn 0.643459 0.687241 0.337135
vn 0.643459 0.687241 0.337135
vn 0.643459 0.687241 0.337135
vn 0.618084 0.626189 -0.475246
vn 0.618084 0.626189 -0.475246
vn 0.618084 0.626189 -0.475246
vn -0.317302 0.102656 -0.942752
vn -0.317302 0.102656 -0.942752
vn -0.317302 0.102656 -0.942752
vn -0.317302 0.102656 -0.942752
vn -0.988933 0.147699 0.013991
vn -0.988933 0.147699 0.013991
vn -0.988934 0.147699 0.013991
vn -0.988934 0.147699 0.013991
vn -0.285475 0.155514 0.945685
vn -0.285475 0.155514 0.945685
vn -0.285475 0.155514 0.945685
vn -0.285475 0.155514 0.945685
vn 0.817243 0.117782 0.564128
vn 0.817243 0.117782 0.564128
vn 0.817243 0.117782 0.564128
vn 0.817243 0.117782 0.564128
vn 0.796361 0.087244 -0.598496
vn 0.796361 0.087244 -0.598496
vn 0.796361 0.087244 -0.598496
vn 0.796361 0.087244 -0.598496
s off
f 1/6/1 2/7/2 7/13/3 6/12/4
f 2/7/5 3/8/6 8/14/7 7/13/8
f 3/8/9 4/9/10 9/15/11 8/14/12
f 4/9/13 5/10/14 10/16/15 9/15/16
f 5/10/17 1/11/18 6/17/19 10/16/20
f 2/2/21 1/1/22 11/23/23
f 3/3/24 2/2/25 11/23/26
f 4/4/27 3/3/28 11/23/29
f 5/5/30 4/4/31 11/23/32
f 1/1/33 5/5/34 11/23/35
f 12/24/36 13/30/37 14/31/38
f 13/30/39 15/32/40 14/31/41
f 15/32/42 16/33/43 14/31/44
f 16/33/45 17/34/46 14/31/47
f 17/34/48 12/24/49 14/31/50
f 6/21/51 7/20/52 13/26/53 12/25/54
f 7/20/55 8/19/56 15/27/57 13/26/58
f 8/19/59 9/18/60 16/28/61 15/27/62
f 9/18/63 10/22/64 17/29/65 16/28/66
f 10/22/67 6/21/68 12/25/69 17/29/70
