# This file uses meters as units for non-parametric coordinates.

v 32.960449 74.296654 -7.532379
v -25.033691 77.812225 -10.353058
v -24.539551 13.455446 -11.461334
v 32.493896 18.770380 -8.124176
v 31.748779 77.812225 13.826263
v -25.847656 77.812225 15.494629
v -25.502686 19.268076 16.187256
v 31.609619 13.455446 14.155334
v 4.404541 77.812225 26.901215
v 14.987793 81.380989 12.621979
v 14.987793 81.380989 -7.277496
v 3.603516 71.555931 -26.377716
v 5.751221 18.770380 -27.258942
v 3.938232 13.455446 27.827301
v -10.039795 81.020187 -5.998810
v -11.348877 80.569344 13.082031
v 3.797607 44.254032 17.987213
v -15.232178 44.254032 10.485779
v -14.616699 47.673443 -7.282623
v 4.312012 44.254032 -17.632843
v 22.223145 44.254032 -5.149902
v 21.639404 47.673443 9.189209
v 3.959473 33.664440 19.130219
v -16.903320 33.664440 11.093201
v -16.288086 33.207256 -7.521759
v 3.797363 33.664440 -18.742828
v 23.894775 33.664440 -5.389038
v 23.152100 33.207256 9.813354
v -48.192139 0.000000 24.079468
v -1.813965 0.000000 24.079468
v 6.412598 0.000000 45.310974
v -2.335938 0.000000 -44.001740
v -9.364746 0.000000 -7.289215
v -48.192139 0.000000 -9.480865
v 56.312012 0.000000 -9.480865
v 50.028809 0.000000 24.742371
v 1.215820 78.997482 14.354919
v -3.128174 79.637733 -5.550049
v 4.393066 69.262901 27.594635
v -25.752930 66.341393 16.341339
v -25.666016 69.782074 -10.697784
v 3.670166 62.700336 -27.150665
v 33.623779 65.955360 -7.770416
v 32.439209 71.321259 13.731812
vt 0.896333 0.322860
vt 0.896333 0.322860
vt 0.451660 0.280609
vt 0.918201 0.323636
vt 0.918201 0.323636
vt 0.451660 0.280609
vt 0.918201 0.323636
vt 0.896333 0.322860
vt 0.918201 0.323636
vt 0.451660 0.280609
vt 0.918201 0.323636
vt 0.918201 0.323636
vt 0.451660 0.280609
vt 0.918201 0.323636
vt 0.896333 0.322860
vt 0.918201 0.323636
vt 0.918201 0.323636
vt 0.451660 0.280609
vt 0.451660 0.280609
vt 0.918201 0.323636
vt 0.918201 0.323636
vt 0.896333 0.322860
vt 0.896333 0.322860
vt 0.918201 0.323636
vt 0.451660 0.280609
vt 0.451660 0.280609
vt 0.919369 0.322468
vt 0.918201 0.323636
vt 0.918201 0.323636
vt 0.918201 0.323636
vt 0.919369 0.322468
vt 0.919369 0.322468
vt 0.918201 0.323636
vt 0.919369 0.322468
vt 0.919369 0.322468
vt 0.919369 0.322468
vt 0.919369 0.322468
vt 0.919369 0.322468
vt 0.896333 0.322860
vt 0.896333 0.322860
vt 0.451660 0.280609
vt 0.451660 0.280609
vt 0.451660 0.280609
vt 0.451660 0.280609
vt 0.451660 0.280611
vt 0.451660 0.280611
vt 0.919369 0.322468
vt 0.919369 0.322468
vt 0.919369 0.322468
vt 0.918201 0.323636
vt 0.919369 0.322468
vt 0.918201 0.323636
vt 0.918201 0.323636
vt 0.919369 0.322468
vt 0.918201 0.323636
vt 0.919369 0.322468
vt 0.919369 0.322468
vt 0.918201 0.323636
vt 0.919369 0.322468
vt 0.918201 0.323636
vt 0.919369 0.322468
vt 0.918201 0.323636
vt 0.918201 0.323636
vt 0.919369 0.322468
vt 0.919369 0.322468
vt 0.919369 0.322468
vt 0.919369 0.322468
vt 0.919369 0.322468
vt 0.919369 0.322468
vt 0.919369 0.322468
vt 0.451660 0.280609
vt 0.451660 0.280611
vt 0.918201 0.323636
vt 0.918201 0.323636
vt 0.918201 0.323636
vt 0.918201 0.323636
vt 0.918201 0.323636
vt 0.918201 0.323636
vt 0.451660 0.280611
vt 0.451660 0.280611
vt 0.451660 0.280611
vt 0.451660 0.280609
vt 0.451660 0.280609
vt 0.451660 0.280611
vt 0.451660 0.280611
vt 0.451660 0.280611
vn -0.032837 0.972299 0.231421
vn -0.032837 0.972299 0.231421
vn -0.032837 0.972299 0.231421
vn -0.032837 0.972299 0.231421
vn 0.000000 -1.000000 0.000000
vn 0.000000 -1.000000 0.000000
vn 0.000000 -1.000000 0.000000
vn -0.289259 0.415697 0.862279
vn -0.289259 0.415697 0.862279
vn -0.289259 0.415697 0.862279
vn -0.289259 0.415697 0.862279
vn -0.471368 0.372998 -0.799178
vn -0.471368 0.372998 -0.799178
vn -0.471368 0.372998 -0.799178
vn -0.471368 0.372998 -0.799178
vn 0.000000 -1.000000 0.000000
vn 0.000000 -1.000000 0.000000
vn 0.000000 -1.000000 0.000000
vn 0.148559 0.988772 0.016109
vn 0.148559 0.988772 0.016109
vn 0.148559 0.988772 0.016109
vn 0.148559 0.988772 0.016109
vn -0.894331 0.438278 -0.089917
vn -0.894331 0.438277 -0.089917
vn -0.894331 0.438278 -0.089917
vn -0.894331 0.438278 -0.089917
vn 0.000000 -1.000000 0.000000
vn 0.000000 -1.000000 0.000000
vn 0.000000 -1.000000 0.000000
vn 0.000000 -1.000000 0.000000
vn 0.890058 0.443142 0.106875
vn 0.890058 0.443142 0.106875
vn 0.890058 0.443142 0.106875
vn 0.890058 0.443142 0.106875
vn 0.170106 0.918970 0.355751
vn 0.170106 0.918970 0.355751
vn 0.170106 0.918970 0.355751
vn 0.294264 0.952966 -0.072558
vn 0.294264 0.952966 -0.072558
vn 0.294264 0.952966 -0.072558
vn 0.294264 0.952966 -0.072558
vn 0.294291 0.767127 -0.570009
vn 0.294291 0.767126 -0.570009
vn 0.294291 0.767127 -0.570009
vn 0.507250 0.455928 -0.731319
vn 0.507250 0.455928 -0.731319
vn 0.507250 0.455928 -0.731319
vn 0.507250 0.455928 -0.731319
vn 0.000000 -1.000000 0.000000
vn 0.000000 -1.000000 0.000000
vn 0.000000 -1.000000 0.000000
vn 0.000000 -1.000000 0.000000
vn 0.000000 -1.000000 0.000000
vn 0.000000 -1.000000 0.000000
vn 0.000000 -1.000000 0.000000
vn 0.000000 -1.000000 0.000000
vn 0.000000 -1.000000 0.000000
vn 0.000000 -1.000000 0.000000
vn 0.413682 0.360167 0.836150
vn 0.413682 0.360167 0.836150
vn 0.413682 0.360167 0.836150
vn 0.413682 0.360167 0.836150
vn 0.205785 0.932918 -0.295493
vn 0.205785 0.932918 -0.295493
vn 0.205785 0.932918 -0.295493
vn -0.198273 0.980147 0.000465
vn -0.198273 0.980147 0.000465
vn -0.198273 0.980147 0.000465
vn -0.198273 0.980147 0.000465
vn -0.058912 0.889741 -0.452649
vn -0.058912 0.889741 -0.452649
vn -0.058912 0.889741 -0.452649
vn -0.314592 -0.355302 0.880223
vn -0.314593 -0.355302 0.880223
vn -0.314592 -0.355302 0.880223
vn -0.314592 -0.355302 0.880223
vn -0.897508 -0.433597 -0.080454
vn -0.897508 -0.433596 -0.080454
vn -0.897508 -0.433596 -0.080454
vn -0.897508 -0.433596 -0.080454
vn -0.510386 -0.391335 -0.765744
vn -0.510386 -0.391335 -0.765744
vn -0.510386 -0.391335 -0.765744
vn -0.510386 -0.391335 -0.765744
vn 0.531687 -0.372459 -0.760646
vn 0.531687 -0.372459 -0.760646
vn 0.531687 -0.372459 -0.760646
vn 0.531687 -0.372459 -0.760646
vn 0.885240 -0.439781 0.151471
vn 0.885240 -0.439781 0.151471
vn 0.885240 -0.439781 0.151471
vn 0.885240 -0.439781 0.151471
vn 0.448395 -0.344827 0.824643
vn 0.448395 -0.344827 0.824643
vn 0.448395 -0.344827 0.824643
vn 0.448395 -0.344827 0.824643
vn -0.361041 0.102343 0.926917
vn -0.361041 0.102343 0.926917
vn -0.361041 0.102343 0.926917
vn -0.361041 0.102343 0.926917
vn -0.991004 0.131875 -0.022790
vn -0.991004 0.131875 -0.022790
vn -0.991004 0.131875 -0.022790
vn -0.991004 0.131875 -0.022790
vn -0.476800 0.088690 -0.874526
vn -0.476800 0.088690 -0.874526
vn -0.476800 0.088690 -0.874526
vn -0.476800 0.088690 -0.874526
vn 0.560232 0.083101 -0.824157
vn 0.560232 0.083101 -0.824157
vn 0.560232 0.083101 -0.824157
vn 0.560232 0.083101 -0.824157
vn 0.991457 0.126490 0.031827
vn 0.991457 0.126490 0.031827
vn 0.991457 0.126490 0.031827
vn 0.991457 0.126490 0.031827
vn 0.431563 0.092129 0.897366
vn 0.431563 0.092129 0.897366
vn 0.431563 0.092129 0.897366
vn 0.431563 0.092129 0.897366
vn -0.225712 0.680229 0.697383
vn -0.225712 0.680229 0.697382
vn -0.225712 0.680229 0.697382
vn -0.225712 0.680229 0.697382
vn -0.431566 0.690804 -0.580121
vn -0.431566 0.690804 -0.580121
vn -0.431566 0.690804 -0.580121
vn -0.431566 0.690804 -0.580121
vn -0.586815 0.805173 -0.085698
vn -0.586816 0.805173 -0.085698
vn -0.586815 0.805173 -0.085698
vn -0.586815 0.805173 -0.085698
vn 0.449918 0.533749 -0.716021
vn 0.449918 0.533749 -0.716021
vn 0.449918 0.533749 -0.716021
vn 0.449918 0.533749 -0.716021
vn 0.579055 0.801584 0.148856
vn 0.579055 0.801585 0.148856
vn 0.579055 0.801585 0.148856
vn 0.579055 0.801585 0.148856
vn 0.267016 0.787185 0.555916
vn 0.267016 0.787185 0.555917
vn 0.267016 0.787184 0.555916
vn 0.267016 0.787185 0.555916
vn -0.152980 0.979453 0.131410
vn -0.152980 0.979453 0.131410
vn -0.152980 0.979453 0.131410
vn -0.125129 0.991699 0.029606
vn -0.125129 0.991699 0.029606
vn -0.125129 0.991699 0.029606
vn -0.125129 0.991699 0.029606
vn -0.125180 0.910627 -0.393812
vn -0.125180 0.910627 -0.393812
vn -0.125180 0.910627 -0.393812
vn -0.353377 0.070294 0.932836
vn -0.353377 0.070294 0.932836
vn -0.353377 0.070294 0.932836
vn -0.353377 0.070294 0.932836
vn -0.999514 0.027176 -0.015261
vn -0.999514 0.027176 -0.015261
vn -0.999514 0.027176 -0.015261
vn -0.999514 0.027176 -0.015261
vn -0.474399 0.073969 -0.877197
vn -0.474399 0.073969 -0.877197
vn -0.474399 0.073969 -0.877197
vn -0.474399 0.073969 -0.877197
vn 0.535153 0.072199 -0.841664
vn 0.535153 0.072199 -0.841664
vn 0.535153 0.072199 -0.841664
vn 0.535153 0.072199 -0.841664
vn 0.995254 0.090006 0.036995
vn 0.995254 0.090006 0.036995
vn 0.995254 0.090006 0.036995
vn 0.995254 0.090006 0.036995
vn 0.435010 0.055428 0.898718
vn 0.435010 0.055428 0.898718
vn 0.435010 0.055428 0.898718
vn 0.435010 0.055428 0.898718
s off
f 6/3/1 9/6/2 37/10/3 16/13/4
f 29/1/5 30/2/6 31/8/7
f 23/33/8 24/62/9 7/14/10 14/24/11
f 3/7/12 25/60/13 26/58/14 13/21/15
f 32/15/16 33/22/17 34/23/18
f 15/18/19 16/13/20 37/10/21 38/19/22
f 3/7/23 7/14/24 24/62/25 25/60/26
f 34/23/27 33/22/28 30/2/29 29/1/30
f 28/50/31 8/16/32 4/9/33 27/52/34
f 5/25/35 10/26/36 9/6/37
f 11/41/38 10/26/39 5/25/40 1/42/41
f 1/42/42 12/43/43 11/41/44
f 13/21/45 26/58/46 27/52/47 4/9/48
f 33/22/49 32/15/50 35/39/51
f 30/2/52 33/22/53 35/39/54 36/40/55
f 31/8/56 30/2/57 36/40/58
f 28/50/59 23/33/60 14/24/61 8/16/62
f 38/19/63 12/43/64 15/18/65
f 6/3/66 16/13/67 15/18/68 2/44/69
f 12/43/70 2/44/71 15/18/72
f 40/74/73 18/28/74 17/63/75 39/73/76
f 19/29/77 18/28/78 40/74/79 41/75/80
f 19/29/81 41/75/82 42/76/83 20/30/84
f 20/30/85 42/76/86 43/77/87 21/55/88
f 44/78/89 22/53/90 21/55/91 43/77/92
f 44/78/93 39/73/94 17/63/95 22/53/96
f 17/27/97 18/69/98 24/61/99 23/47/100
f 25/59/101 24/34/102 18/70/103 19/67/104
f 25/35/105 19/68/106 20/65/107 26/57/108
f 26/36/109 20/66/110 21/56/111 27/51/112
f 22/54/113 28/49/114 27/37/115 21/31/116
f 22/32/117 17/64/118 23/48/119 28/38/120
f 31/45/121 14/46/122 7/71/123 29/72/124
f 32/79/125 34/80/126 3/81/127 13/82/128
f 7/71/129 3/81/130 34/80/131 29/72/132
f 32/79/133 13/82/134 4/83/135 35/84/136
f 4/83/137 8/85/138 36/86/139 35/84/140
f 36/86/141 8/85/142 14/46/143 31/45/144
f 10/26/145 37/10/146 9/6/147
f 38/19/148 37/10/149 10/26/150 11/41/151
f 12/43/152 38/19/153 11/41/154
f 6/12/155 40/74/156 39/73/157 9/17/158
f 41/75/159 40/74/160 6/12/161 2/5/162
f 42/76/163 41/75/164 2/5/165 12/20/166
f 43/77/167 42/76/168 12/20/169 1/4/170
f 5/11/171 44/78/172 43/77/173 1/4/174
f 5/11/175 9/17/176 39/73/177 44/78/178
