# This file uses meters as units for non-parametric coordinates.

v -18.668823 -21.006750 -7.909882
v -24.225952 -21.566870 -8.275177
v -27.303101 -22.037973 -3.623505
v -24.822998 -21.948957 1.393433
v -19.265869 -21.388840 1.758728
v -16.188843 -20.917736 -2.892944
v -20.354004 17.530464 -7.367218
v -25.911133 16.970348 -7.732513
v -28.988159 16.499247 -3.080872
v -26.508057 16.588261 1.936096
v -20.951050 17.148378 2.301361
v -17.874023 17.619482 -2.350281
v -21.745972 -21.477854 -3.258209
v -8.967407 25.678888 -25.353119
v -36.549927 25.734114 -27.054169
v -51.373901 20.614052 -4.300598
v -39.482422 23.857489 20.433197
v -12.188843 26.608507 22.227325
v 3.213135 26.116085 -0.712341
v -17.228882 45.198257 -15.370758
v -33.210449 41.652485 -16.497772
v -42.366211 42.195980 -2.891479
v -34.948730 40.540081 11.651306
v -18.967163 44.085854 12.778320
v -9.811401 43.542362 -0.827972
v -15.770264 51.734390 -18.337158
v -35.535278 47.743073 -19.715393
v -46.796021 48.028812 -2.934540
v -37.680664 46.370079 15.027771
v -17.915771 50.361397 16.406006
v -6.654907 50.075653 -0.374878
v -29.874878 86.354362 -0.375061
v 29.350220 -21.747616 -19.142822
v 28.748413 -22.172426 -24.691315
v 23.648682 -21.902666 -26.981995
v 19.150513 -21.208094 -23.724213
v 19.752319 -20.783283 -18.175720
v 24.852173 -21.053043 -15.885040
v 30.848755 16.755733 -20.555695
v 30.246948 16.330923 -26.104187
v 25.147095 16.600681 -28.394867
v 20.649048 17.295252 -25.137054
v 21.250732 17.720068 -19.588593
v 26.350708 17.450304 -17.297882
v 24.250366 -21.477854 -21.433502
v 51.374023 21.993214 -12.140106
v 48.675415 22.707188 -39.633698
v 23.370728 21.231688 -50.642151
v 1.535400 27.443508 -34.883759
v 4.491089 29.529968 -7.632416
v 29.281860 25.404606 3.860565
v 43.047485 42.952049 -18.488281
v 41.120117 39.804173 -34.476715
v 26.447876 42.500633 -41.311127
v 13.177002 42.611717 -31.661102
v 15.104248 45.759590 -15.672668
v 29.776489 43.063126 -8.838287
v 47.094604 48.970036 -17.462585
v 44.751099 45.469017 -37.229645
v 26.606445 48.412880 -45.631805
v 10.262085 48.934250 -33.754456
v 12.605713 52.435268 -13.987396
v 30.750122 49.491405 -5.585236
v 32.161743 86.160538 -28.139526
v 8.716309 -22.087540 27.383972
v 13.379150 -22.022377 29.012482
v 17.100952 -21.412691 25.822723
v 16.159790 -20.868168 21.004456
v 11.496948 -20.933332 19.375946
v 7.775269 -21.543018 22.565704
v 7.890869 14.476742 29.171661
v 12.553711 14.541905 30.800171
v 16.275391 15.151593 27.610382
v 15.334351 15.696115 22.792145
v 10.671631 15.630951 21.163635
v 6.949829 15.021263 24.353394
v 12.438110 -21.477854 24.194214
v -6.984863 17.637447 42.337250
v 15.774780 20.425423 50.642181
v 34.195679 20.951979 34.669098
v 29.432251 26.094324 11.310760
v 6.531128 25.774271 3.312378
v -11.606689 20.311869 18.672333
v -0.573120 36.851669 38.192566
v 13.098633 35.357208 42.724579
v 23.837524 38.816422 33.647125
v 21.194458 38.717560 19.410095
v 7.522705 40.212021 14.878113
v -3.216187 36.752808 23.955536
v -3.424805 41.901440 41.046906
v 13.430176 40.395531 46.682648
v 26.703979 44.326443 35.436676
v 23.422363 44.543068 17.906616
v 6.567383 46.048973 12.270905
v -6.706543 42.118061 23.516846
v 7.546265 75.958527 33.343475
vt 0.008885 0.105856
vt 0.008885 0.105856
vt 0.008885 0.105856
vt 0.008885 0.105856
vt 0.008885 0.105856
vt 0.008885 0.105856
vt 0.008885 0.105856
vt 0.008885 0.105856
vt 0.008885 0.105856
vt 0.008885 0.105856
vt 0.008885 0.105856
vt 0.008885 0.105856
vt 0.008885 0.105856
vt 0.008885 0.105856
vt 0.008885 0.105856
vt 0.008885 0.105856
vt 0.008885 0.105856
vt 0.008885 0.105856
vt 0.008885 0.105856
vt 0.008885 0.105856
vt 0.258857 0.154843
vt 0.258857 0.154843
vt 0.258857 0.154843
vt 0.258857 0.154843
vt 0.258857 0.154843
vt 0.258857 0.154843
vt 0.008885 0.105856
vt 0.258857 0.154843
vt 0.258857 0.154843
vt 0.258857 0.154843
vt 0.258857 0.154843
vt 0.258857 0.154843
vt 0.258857 0.154843
vt 0.258857 0.154843
vt 0.258857 0.154843
vt 0.258857 0.154843
vt 0.258857 0.154843
vt 0.258857 0.154843
vt 0.258857 0.154843
vt 0.449707 0.283991
vt 0.449707 0.283991
vt 0.449707 0.283989
vt 0.449707 0.283989
vt 0.449707 0.283991
vt 0.449707 0.283989
vt 0.449707 0.283991
vt 0.258857 0.154843
vt 0.258857 0.154843
vt 0.258857 0.154843
vt 0.258857 0.154843
vt 0.258857 0.154843
vt 0.258857 0.154843
vt 0.449707 0.283989
vt 0.258857 0.154843
vt 0.258857 0.154843
vt 0.258857 0.154843
vt 0.449707 0.283991
vt 0.258857 0.154843
vt 0.258857 0.154843
vt 0.258857 0.154843
vt 0.449707 0.283989
vt 0.258857 0.154843
vt 0.258857 0.154843
vt 0.258857 0.154843
vt 0.449707 0.283991
vt 0.258857 0.154843
vt 0.449707 0.283989
vt 0.258857 0.154843
vt 0.449707 0.283989
vt 0.258857 0.154843
vt 0.008885 0.105856
vt 0.008885 0.105856
vt 0.008885 0.105856
vt 0.008885 0.105856
vt 0.008885 0.105856
vt 0.008885 0.105856
vt 0.008885 0.105856
vt 0.008885 0.105856
vt 0.008885 0.105856
vt 0.008885 0.105856
vt 0.008885 0.105856
vt 0.008885 0.105856
vt 0.008885 0.105856
vt 0.008885 0.105856
vt 0.008885 0.105856
vt 0.008885 0.105856
vt 0.008885 0.105856
vt 0.008885 0.105856
vt 0.008885 0.105856
vt 0.008885 0.105856
vt 0.008885 0.105856
vt 0.258857 0.154843
vt 0.258857 0.154843
vt 0.258857 0.154843
vt 0.258857 0.154843
vt 0.258857 0.154843
vt 0.258857 0.154843
vt 0.258857 0.154843
vt 0.258857 0.154843
vt 0.258857 0.154843
vt 0.258857 0.154843
vt 0.258857 0.154843
vt 0.258857 0.154843
vt 0.449707 0.283989
vt 0.449707 0.283989
vt 0.449707 0.283989
vt 0.449707 0.283989
vt 0.449707 0.283989
vt 0.449707 0.283989
vt 0.258857 0.154843
vt 0.258857 0.154843
vt 0.258857 0.154843
vt 0.258857 0.154843
vt 0.258857 0.154843
vt 0.258857 0.154843
vt 0.258857 0.154843
vt 0.258857 0.154843
vt 0.258857 0.154843
vt 0.258857 0.154843
vt 0.258857 0.154843
vt 0.258857 0.154843
vt 0.258857 0.154843
vt 0.258857 0.154843
vt 0.258857 0.154843
vt 0.258857 0.154843
vt 0.258857 0.154843
vt 0.258857 0.154843
vt 0.258857 0.154843
vt 0.258857 0.154843
vt 0.258857 0.154843
vt 0.258857 0.154843
vt 0.258857 0.154843
vt 0.258857 0.154843
vt 0.449707 0.283991
vt 0.449707 0.283991
vt 0.449707 0.283989
vt 0.449707 0.283989
vt 0.449707 0.283991
vt 0.449707 0.283989
vt 0.449707 0.283991
vt 0.008885 0.105856
vt 0.008885 0.105856
vt 0.008885 0.105856
vt 0.008885 0.105856
vt 0.008885 0.105856
vt 0.008885 0.105856
vt 0.008885 0.105856
vt 0.008885 0.105856
vt 0.008885 0.105856
vt 0.008885 0.105856
vt 0.008885 0.105856
vt 0.008885 0.105856
vt 0.008885 0.105856
vt 0.008885 0.105856
vt 0.008885 0.105856
vt 0.008885 0.105856
vt 0.008885 0.105856
vt 0.008885 0.105856
vt 0.008885 0.105856
vt 0.008885 0.105856
vt 0.008885 0.105856
vt 0.258857 0.154843
vt 0.258857 0.154843
vt 0.258857 0.154843
vt 0.258857 0.154843
vt 0.258857 0.154843
vt 0.258857 0.154843
vt 0.258857 0.154843
vt 0.258857 0.154843
vt 0.258857 0.154843
vt 0.258857 0.154843
vt 0.258857 0.154843
vt 0.258857 0.154843
vt 0.449707 0.283989
vt 0.449707 0.283991
vt 0.449707 0.283989
vt 0.449707 0.283991
vt 0.449707 0.283989
vt 0.449707 0.283989
vt 0.258857 0.154843
vt 0.258857 0.154843
vt 0.258857 0.154843
vt 0.258857 0.154843
vt 0.258857 0.154843
vt 0.258857 0.154843
vt 0.258857 0.154843
vt 0.258857 0.154843
vt 0.258857 0.154843
vt 0.258857 0.154843
vt 0.258857 0.154843
vt 0.258857 0.154843
vt 0.258857 0.154843
vt 0.258857 0.154843
vt 0.258857 0.154843
vt 0.258857 0.154843
vt 0.258857 0.154843
vt 0.258857 0.154843
vt 0.258857 0.154843
vt 0.258857 0.154843
vt 0.258857 0.154843
vt 0.258857 0.154843
vt 0.258857 0.154843
vt 0.258857 0.154843
vt 0.449707 0.283989
vt 0.449707 0.283989
vt 0.449707 0.283989
vt 0.449707 0.283989
vt 0.449707 0.283989
vt 0.449707 0.283989
vt 0.449707 0.283991
vt 0.449707 0.283991
vt 0.449707 0.283989
vt 0.449707 0.283989
vt 0.449707 0.283991
vt 0.449707 0.283989
vt 0.449707 0.283991
vt 0.449707 0.283989
vt 0.449707 0.283991
vt 0.449707 0.283989
vt 0.449707 0.283991
vt 0.449707 0.283989
vt 0.449707 0.283989
vt 0.449707 0.283989
vt 0.449707 0.283989
vt 0.449707 0.283989
vt 0.449707 0.283989
vt 0.449707 0.283989
vt 0.449707 0.283989
vn 0.063892 0.016844 -0.997815
vn 0.063892 0.016844 -0.997815
vn 0.063892 0.016844 -0.997815
vn 0.063892 0.016844 -0.997815
vn -0.832358 -0.028602 -0.553500
vn -0.832358 -0.028602 -0.553500
vn -0.832358 -0.028602 -0.553500
vn -0.832358 -0.028602 -0.553500
vn -0.895205 -0.045386 0.443338
vn -0.895205 -0.045386 0.443338
vn -0.895205 -0.045386 0.443338
vn -0.895205 -0.045386 0.443338
vn -0.063893 -0.016844 0.997815
vn -0.063893 -0.016844 0.997815
vn -0.063893 -0.016844 0.997815
vn -0.063893 -0.016844 0.997815
vn 0.832358 0.028604 0.553500
vn 0.832358 0.028604 0.553500
vn 0.832358 0.028604 0.553500
vn 0.832358 0.028604 0.553500
vn 0.895209 0.045388 -0.443329
vn 0.895209 0.045388 -0.443329
vn 0.895209 0.045388 -0.443329
vn 0.895209 0.045388 -0.443329
vn 0.102375 -0.994199 -0.032968
vn 0.102375 -0.994199 -0.032968
vn 0.102375 -0.994199 -0.032968
vn 0.102375 -0.994199 -0.032968
vn 0.102375 -0.994199 -0.032968
vn 0.102375 -0.994199 -0.032968
vn 0.102375 -0.994199 -0.032968
vn 0.102375 -0.994199 -0.032968
vn 0.102375 -0.994199 -0.032968
vn 0.102375 -0.994199 -0.032968
vn 0.102375 -0.994199 -0.032968
vn 0.102375 -0.994199 -0.032968
vn 0.102375 -0.994199 -0.032968
vn 0.102375 -0.994199 -0.032968
vn 0.102375 -0.994199 -0.032968
vn 0.102375 -0.994199 -0.032968
vn 0.102375 -0.994199 -0.032968
vn 0.102375 -0.994199 -0.032968
vn 0.039553 -0.910372 -0.411896
vn 0.039553 -0.910372 -0.411896
vn 0.039553 -0.910372 -0.411896
vn 0.039553 -0.910372 -0.411896
vn -0.175095 -0.936009 -0.305335
vn -0.175095 -0.936009 -0.305335
vn -0.175095 -0.936009 -0.305335
vn -0.175095 -0.936009 -0.305335
vn -0.206731 -0.956255 0.206977
vn -0.206731 -0.956255 0.206977
vn -0.206731 -0.956255 0.206977
vn -0.206731 -0.956255 0.206977
vn 0.065370 -0.912260 0.404363
vn 0.065370 -0.912260 0.404363
vn 0.065370 -0.912260 0.404363
vn 0.065370 -0.912260 0.404363
vn 0.364024 -0.898726 0.244496
vn 0.364024 -0.898726 0.244496
vn 0.364024 -0.898726 0.244496
vn 0.364024 -0.898726 0.244496
vn 0.379626 -0.909099 -0.171528
vn 0.379626 -0.909099 -0.171528
vn 0.379626 -0.909099 -0.171528
vn 0.379626 -0.909099 -0.171528
vn 0.015793 0.503020 -0.864130
vn 0.015793 0.503020 -0.864130
vn 0.015793 0.503020 -0.864130
vn 0.015793 0.503020 -0.864130
vn -0.785121 0.407361 -0.466521
vn -0.785121 0.407361 -0.466521
vn -0.785121 0.407361 -0.466521
vn -0.785121 0.407361 -0.466521
vn -0.838451 0.373234 0.397110
vn -0.838451 0.373234 0.397109
vn -0.838451 0.373234 0.397110
vn -0.838451 0.373234 0.397109
vn -0.126324 0.460590 0.878578
vn -0.126324 0.460590 0.878578
vn -0.126324 0.460590 0.878578
vn -0.126324 0.460590 0.878578
vn 0.710730 0.529996 0.462566
vn 0.710730 0.529996 0.462566
vn 0.710730 0.529996 0.462566
vn 0.710730 0.529996 0.462566
vn 0.761571 0.536044 -0.364234
vn 0.761571 0.536044 -0.364234
vn 0.761571 0.536044 -0.364234
vn 0.761571 0.536044 -0.364234
vn 0.152366 -0.426253 -0.891680
vn 0.152366 -0.426253 -0.891680
vn 0.152366 -0.426253 -0.891680
vn 0.152366 -0.426253 -0.891680
vn -0.710835 -0.529347 -0.463147
vn -0.710835 -0.529347 -0.463147
vn -0.710835 -0.529347 -0.463147
vn -0.710835 -0.529347 -0.463147
vn -0.759767 -0.560660 0.329262
vn -0.759767 -0.560660 0.329262
vn -0.759767 -0.560660 0.329262
vn -0.759767 -0.560660 0.329262
vn 0.043744 -0.495767 0.867353
vn 0.043744 -0.495767 0.867353
vn 0.043744 -0.495767 0.867353
vn 0.043744 -0.495767 0.867353
vn 0.751370 -0.411253 0.516056
vn 0.751370 -0.411253 0.516056
vn 0.751370 -0.411253 0.516056
vn 0.751370 -0.411253 0.516056
vn 0.811063 -0.373052 -0.450565
vn 0.811063 -0.373052 -0.450565
vn 0.811063 -0.373052 -0.450565
vn 0.811063 -0.373052 -0.450565
vn -0.028882 0.451051 -0.892031
vn -0.028882 0.451051 -0.892031
vn -0.028882 0.451051 -0.892031
vn -0.767293 0.373577 -0.521250
vn -0.767293 0.373577 -0.521250
vn -0.767293 0.373577 -0.521250
vn -0.827317 0.335164 0.450791
vn -0.827317 0.335164 0.450791
vn -0.827317 0.335164 0.450791
vn -0.140432 0.379663 0.914404
vn -0.140432 0.379663 0.914404
vn -0.140432 0.379663 0.914404
vn 0.736117 0.471151 0.485951
vn 0.736117 0.471152 0.485951
vn 0.736117 0.471152 0.485951
vn 0.787942 0.504318 -0.353287
vn 0.787942 0.504318 -0.353287
vn 0.787942 0.504318 -0.353287
vn 0.993615 -0.042505 -0.104510
vn 0.993615 -0.042505 -0.104510
vn 0.993615 -0.042505 -0.104510
vn 0.993615 -0.042505 -0.104510
vn 0.407066 -0.049310 -0.912067
vn 0.407066 -0.049310 -0.912067
vn 0.407066 -0.049310 -0.912067
vn 0.407066 -0.049310 -0.912067
vn -0.587255 -0.006845 -0.809373
vn -0.587255 -0.006845 -0.809373
vn -0.587255 -0.006845 -0.809373
vn -0.587255 -0.006845 -0.809373
vn -0.993615 0.042505 0.104509
vn -0.993615 0.042505 0.104509
vn -0.993615 0.042505 0.104509
vn -0.993615 0.042505 0.104509
vn -0.407066 0.049310 0.912067
vn -0.407066 0.049310 0.912067
vn -0.407066 0.049310 0.912067
vn -0.407066 0.049310 0.912067
vn 0.587254 0.006845 0.809373
vn 0.587254 0.006845 0.809373
vn 0.587254 0.006845 0.809373
vn 0.587254 0.006845 0.809373
vn -0.091035 -0.992142 0.085835
vn -0.091034 -0.992142 0.085835
vn -0.091035 -0.992142 0.085835
vn -0.091035 -0.992142 0.085835
vn -0.091035 -0.992142 0.085835
vn -0.091035 -0.992142 0.085835
vn -0.091034 -0.992142 0.085835
vn -0.091035 -0.992142 0.085835
vn -0.091035 -0.992142 0.085835
vn -0.091035 -0.992142 0.085835
vn -0.091034 -0.992142 0.085835
vn -0.091035 -0.992142 0.085835
vn -0.091035 -0.992142 0.085834
vn -0.091035 -0.992142 0.085835
vn -0.091035 -0.992142 0.085835
vn -0.091034 -0.992142 0.085835
vn -0.091035 -0.992142 0.085834
vn -0.091035 -0.992142 0.085835
vn 0.281123 -0.958978 -0.036472
vn 0.281123 -0.958978 -0.036472
vn 0.281123 -0.958978 -0.036472
vn 0.281123 -0.958978 -0.036472
vn 0.139380 -0.962833 -0.231357
vn 0.139380 -0.962833 -0.231357
vn 0.139380 -0.962833 -0.231357
vn 0.139380 -0.962833 -0.231357
vn -0.369184 -0.911736 -0.180112
vn -0.369184 -0.911736 -0.180112
vn -0.369184 -0.911736 -0.180112
vn -0.369184 -0.911736 -0.180112
vn -0.512830 -0.849963 0.120696
vn -0.512830 -0.849964 0.120696
vn -0.512830 -0.849963 0.120696
vn -0.512830 -0.849964 0.120696
vn -0.307379 -0.868104 0.389761
vn -0.307379 -0.868104 0.389761
vn -0.307379 -0.868104 0.389761
vn -0.307379 -0.868104 0.389761
vn 0.100242 -0.935820 0.337924
vn 0.100242 -0.935820 0.337924
vn 0.100242 -0.935820 0.337924
vn 0.100242 -0.935820 0.337924
vn 0.917635 0.379237 -0.118853
vn 0.917635 0.379237 -0.118853
vn 0.917635 0.379237 -0.118853
vn 0.917635 0.379237 -0.118853
vn 0.388748 0.364856 -0.846023
vn 0.388748 0.364856 -0.846023
vn 0.388748 0.364856 -0.846023
vn 0.388748 0.364856 -0.846023
vn -0.468565 0.450995 -0.759638
vn -0.468566 0.450995 -0.759638
vn -0.468566 0.450995 -0.759638
vn -0.468566 0.450995 -0.759638
vn -0.814080 0.580347 0.021678
vn -0.814080 0.580347 0.021678
vn -0.814080 0.580347 0.021678
vn -0.814080 0.580347 0.021678
vn -0.265165 0.565051 0.781284
vn -0.265165 0.565051 0.781284
vn -0.265165 0.565051 0.781284
vn -0.265165 0.565051 0.781284
vn 0.551815 0.456235 0.698104
vn 0.551815 0.456235 0.698104
vn 0.551815 0.456235 0.698104
vn 0.551815 0.456235 0.698104
vn 0.835829 -0.548985 0.002251
vn 0.835829 -0.548985 0.002251
vn 0.835829 -0.548985 0.002251
vn 0.835829 -0.548985 0.002251
vn 0.265811 -0.564487 -0.781473
vn 0.265811 -0.564487 -0.781473
vn 0.265811 -0.564486 -0.781473
vn 0.265811 -0.564487 -0.781473
vn -0.520801 -0.485460 -0.702208
vn -0.520801 -0.485460 -0.702208
vn -0.520801 -0.485460 -0.702208
vn -0.520801 -0.485460 -0.702208
vn -0.910334 -0.373546 0.178200
vn -0.910334 -0.373546 0.178201
vn -0.910334 -0.373546 0.178201
vn -0.910334 -0.373546 0.178201
vn -0.443051 -0.360836 0.820673
vn -0.443051 -0.360836 0.820673
vn -0.443051 -0.360836 0.820673
vn -0.443051 -0.360836 0.820673
vn 0.516500 -0.457243 0.723987
vn 0.516500 -0.457243 0.723987
vn 0.516500 -0.457243 0.723987
vn 0.516500 -0.457243 0.723987
vn 0.930535 0.325415 -0.167956
vn 0.930535 0.325415 -0.167956
vn 0.930535 0.325415 -0.167956
vn 0.440323 0.323341 -0.837596
vn 0.440323 0.323341 -0.837596
vn 0.440323 0.323341 -0.837596
vn -0.524609 0.420291 -0.740366
vn -0.524609 0.420291 -0.740366
vn -0.524609 0.420291 -0.740366
vn -0.862684 0.505583 0.012736
vn -0.862684 0.505583 0.012736
vn -0.862684 0.505583 0.012736
vn -0.292256 0.509170 0.809526
vn -0.292256 0.509170 0.809526
vn -0.292256 0.509170 0.809526
vn 0.540843 0.425467 0.725580
vn 0.540844 0.425467 0.725580
vn 0.540844 0.425467 0.725580
vn -0.328582 -0.053521 0.942958
vn -0.328582 -0.053521 0.942958
vn -0.328582 -0.053521 0.942958
vn -0.328582 -0.053521 0.942958
vn 0.652696 -0.022289 0.757292
vn 0.652696 -0.022289 0.757292
vn 0.652696 -0.022289 0.757292
vn 0.652696 -0.022289 0.757292
vn 0.981633 0.031363 -0.188185
vn 0.981633 0.031363 -0.188185
vn 0.981633 0.031363 -0.188185
vn 0.981633 0.031363 -0.188185
vn 0.328586 0.053520 -0.942956
vn 0.328586 0.053520 -0.942956
vn 0.328586 0.053520 -0.942956
vn 0.328586 0.053520 -0.942956
vn -0.652696 0.022292 -0.757292
vn -0.652696 0.022292 -0.757292
vn -0.652696 0.022292 -0.757292
vn -0.652696 0.022292 -0.757292
vn -0.981635 -0.031360 0.188172
vn -0.981635 -0.031360 0.188172
vn -0.981635 -0.031360 0.188172
vn -0.981635 -0.031360 0.188172
vn 0.056828 -0.990770 -0.123069
vn 0.056828 -0.990770 -0.123069
vn 0.056828 -0.990770 -0.123069
vn 0.056828 -0.990770 -0.123068
vn 0.056828 -0.990770 -0.123069
vn 0.056828 -0.990770 -0.123069
vn 0.056828 -0.990770 -0.123069
vn 0.056828 -0.990770 -0.123068
vn 0.056828 -0.990770 -0.123069
vn 0.056828 -0.990770 -0.123069
vn 0.056828 -0.990770 -0.123069
vn 0.056828 -0.990770 -0.123069
vn 0.056828 -0.990770 -0.123068
vn 0.056828 -0.990770 -0.123069
vn 0.056828 -0.990770 -0.123069
vn 0.056828 -0.990770 -0.123069
vn 0.056828 -0.990770 -0.123068
vn 0.056828 -0.990770 -0.123069
vn 0.004094 -0.964073 0.265606
vn 0.004094 -0.964073 0.265606
vn 0.004094 -0.964073 0.265606
vn 0.004094 -0.964073 0.265606
vn 0.240294 -0.945062 0.221624
vn 0.240294 -0.945062 0.221624
vn 0.240294 -0.945062 0.221624
vn 0.240294 -0.945062 0.221624
vn 0.407258 -0.875759 -0.259205
vn 0.407258 -0.875759 -0.259205
vn 0.407258 -0.875759 -0.259205
vn 0.407258 -0.875759 -0.259205
vn 0.192621 -0.833304 -0.518171
vn 0.192621 -0.833304 -0.518171
vn 0.192621 -0.833304 -0.518171
vn 0.192621 -0.833304 -0.518171
vn -0.135420 -0.883344 -0.448738
vn -0.135420 -0.883344 -0.448738
vn -0.135420 -0.883344 -0.448738
vn -0.135420 -0.883344 -0.448738
vn -0.257012 -0.964617 -0.058818
vn -0.257012 -0.964617 -0.058818
vn -0.257012 -0.964617 -0.058818
vn -0.257012 -0.964617 -0.058818
vn -0.322668 0.346457 0.880825
vn -0.322668 0.346457 0.880825
vn -0.322668 0.346457 0.880825
vn -0.322668 0.346457 0.880825
vn 0.558661 0.417393 0.716715
vn 0.558661 0.417393 0.716715
vn 0.558661 0.417393 0.716715
vn 0.558661 0.417393 0.716715
vn 0.840122 0.534218 -0.093842
vn 0.840122 0.534218 -0.093842
vn 0.840122 0.534218 -0.093842
vn 0.840122 0.534218 -0.093842
vn 0.273781 0.612305 -0.741705
vn 0.273781 0.612305 -0.741705
vn 0.273781 0.612305 -0.741705
vn 0.273781 0.612305 -0.741705
vn -0.642433 0.508185 -0.573610
vn -0.642433 0.508185 -0.573610
vn -0.642433 0.508185 -0.573610
vn -0.642433 0.508185 -0.573610
vn -0.907321 0.370319 0.199078
vn -0.907321 0.370319 0.199078
vn -0.907321 0.370319 0.199078
vn -0.907321 0.370319 0.199078
vn -0.307598 -0.584089 0.751148
vn -0.307598 -0.584089 0.751148
vn -0.307598 -0.584089 0.751148
vn -0.307598 -0.584089 0.751148
vn 0.642272 -0.507634 0.574277
vn 0.642272 -0.507634 0.574277
vn 0.642272 -0.507634 0.574277
vn 0.642272 -0.507634 0.574277
vn 0.900523 -0.400436 -0.169436
vn 0.900523 -0.400436 -0.169437
vn 0.900523 -0.400436 -0.169437
vn 0.900523 -0.400436 -0.169437
vn 0.265675 -0.346136 -0.899781
vn 0.265675 -0.346136 -0.899781
vn 0.265675 -0.346136 -0.899781
vn 0.265675 -0.346136 -0.899781
vn -0.513003 -0.408813 -0.754785
vn -0.513003 -0.408813 -0.754785
vn -0.513002 -0.408813 -0.754785
vn -0.513003 -0.408813 -0.754785
vn -0.828028 -0.539569 0.152431
vn -0.828028 -0.539569 0.152431
vn -0.828028 -0.539569 0.152431
vn -0.828028 -0.539569 0.152431
vn -0.278924 0.296458 0.913408
vn -0.278924 0.296458 0.913408
vn -0.278924 0.296458 0.913408
vn 0.532964 0.373044 0.759465
vn 0.532964 0.373044 0.759465
vn 0.532964 0.373044 0.759465
vn 0.849755 0.504535 -0.152841
vn 0.849755 0.504535 -0.152841
vn 0.849755 0.504535 -0.152841
vn 0.309796 0.540821 -0.782010
vn 0.309796 0.540821 -0.782010
vn 0.309796 0.540821 -0.782010
vn -0.650855 0.451384 -0.610443
vn -0.650855 0.451384 -0.610443
vn -0.650855 0.451384 -0.610443
vn -0.924363 0.337857 0.177217
vn -0.924363 0.337857 0.177217
vn -0.924363 0.337857 0.177217
s off
f 1/7/1 2/8/2 8/15/3 7/14/4
f 2/8/5 3/9/6 9/16/7 8/15/8
f 3/9/9 4/10/10 10/17/11 9/16/12
f 4/10/13 5/11/14 11/18/15 10/17/16
f 5/11/17 6/12/18 12/19/19 11/18/20
f 6/12/21 1/13/22 7/20/23 12/19/24
f 2/2/25 1/1/26 13/27/27
f 3/3/28 2/2/29 13/27/30
f 4/4/31 3/3/32 13/27/33
f 5/5/34 4/4/35 13/27/36
f 6/6/37 5/5/38 13/27/39
f 1/1/40 6/6/41 13/27/42
f 7/21/43 8/22/44 15/23/45 14/24/46
f 8/22/47 9/25/48 16/26/49 15/23/50
f 9/25/51 10/28/52 17/29/53 16/26/54
f 10/28/55 11/30/56 18/31/57 17/29/58
f 11/30/59 12/32/60 19/33/61 18/31/62
f 12/32/63 7/21/64 14/24/65 19/33/66
f 14/40/67 15/41/68 21/42/69 20/43/70
f 15/41/71 16/44/72 22/45/73 21/42/74
f 16/44/75 17/46/76 23/53/77 22/45/78
f 17/46/79 18/57/80 24/61/81 23/53/82
f 18/57/83 19/65/84 25/67/85 24/61/86
f 19/65/87 14/40/88 20/43/89 25/67/90
f 20/35/91 21/68/92 27/64/93 26/49/94
f 21/34/95 22/66/96 28/60/97 27/63/98
f 22/36/99 23/62/100 29/56/101 28/59/102
f 23/37/103 24/58/104 30/52/105 29/55/106
f 24/38/107 25/54/108 31/48/109 30/51/110
f 25/39/111 20/70/112 26/50/113 31/47/114
f 26/69/115 27/104/116 32/105/117
f 27/104/118 28/106/119 32/105/120
f 28/106/121 29/107/122 32/105/123
f 29/107/124 30/108/125 32/105/126
f 30/108/127 31/109/128 32/105/129
f 31/109/130 26/69/131 32/105/132
f 33/71/133 34/72/134 40/73/135 39/74/136
f 34/72/137 35/75/138 41/76/139 40/73/140
f 35/75/141 36/77/142 42/78/143 41/76/144
f 36/77/145 37/79/146 43/80/147 42/78/148
f 37/79/149 38/81/150 44/82/151 43/80/152
f 38/81/153 33/83/154 39/84/155 44/82/156
f 34/85/157 33/86/158 45/87/159
f 35/88/160 34/85/161 45/87/162
f 36/89/163 35/88/164 45/87/165
f 37/90/166 36/89/167 45/87/168
f 38/91/169 37/90/170 45/87/171
f 33/86/172 38/91/173 45/87/174
f 39/92/175 40/93/176 47/94/177 46/95/178
f 40/93/179 41/96/180 48/97/181 47/94/182
f 41/96/183 42/98/184 49/99/185 48/97/186
f 42/98/187 43/100/188 50/101/189 49/99/190
f 43/100/191 44/102/192 51/103/193 50/101/194
f 44/102/195 39/92/196 46/95/197 51/103/198
f 46/134/199 47/135/200 53/136/201 52/137/202
f 47/135/203 48/138/204 54/139/205 53/136/206
f 48/138/207 49/140/208 55/174/209 54/139/210
f 49/140/211 50/175/212 56/176/213 55/174/214
f 50/175/215 51/177/216 57/178/217 56/176/218
f 51/177/219 46/134/220 52/137/221 57/178/222
f 52/110/223 53/111/224 59/112/225 58/113/226
f 53/114/227 54/115/228 60/116/229 59/117/230
f 54/118/231 55/119/232 61/120/233 60/121/234
f 55/122/235 56/123/236 62/124/237 61/125/238
f 56/126/239 57/127/240 63/128/241 62/129/242
f 57/130/243 52/131/244 58/132/245 63/133/246
f 58/179/247 59/204/248 64/205/249
f 59/204/250 60/206/251 64/205/252
f 60/206/253 61/207/254 64/205/255
f 61/207/256 62/208/257 64/205/258
f 62/208/259 63/209/260 64/205/261
f 63/209/262 58/179/263 64/205/264
f 65/141/265 66/142/266 72/143/267 71/144/268
f 66/142/269 67/145/270 73/146/271 72/143/272
f 67/145/273 68/147/274 74/148/275 73/146/276
f 68/147/277 69/149/278 75/150/279 74/148/280
f 69/149/281 70/151/282 76/152/283 75/150/284
f 70/151/285 65/153/286 71/154/287 76/152/288
f 66/155/289 65/156/290 77/157/291
f 67/158/292 66/155/293 77/157/294
f 68/159/295 67/158/296 77/157/297
f 69/160/298 68/159/299 77/157/300
f 70/161/301 69/160/302 77/157/303
f 65/156/304 70/161/305 77/157/306
f 71/162/307 72/163/308 79/164/309 78/165/310
f 72/163/311 73/166/312 80/167/313 79/164/314
f 73/166/315 74/168/316 81/169/317 80/167/318
f 74/168/319 75/170/320 82/171/321 81/169/322
f 75/170/323 76/172/324 83/173/325 82/171/326
f 76/172/327 71/162/328 78/165/329 83/173/330
f 78/210/331 79/211/332 85/212/333 84/213/334
f 79/211/335 80/214/336 86/215/337 85/212/338
f 80/214/339 81/216/340 87/217/341 86/215/342
f 81/216/343 82/218/344 88/219/345 87/217/346
f 82/218/347 83/220/348 89/221/349 88/219/350
f 83/220/351 78/210/352 84/213/353 89/221/354
f 84/180/355 85/181/356 91/182/357 90/183/358
f 85/184/359 86/185/360 92/186/361 91/187/362
f 86/188/363 87/189/364 93/190/365 92/191/366
f 87/192/367 88/193/368 94/194/369 93/195/370
f 88/196/371 89/197/372 95/198/373 94/199/374
f 89/200/375 84/201/376 90/202/377 95/203/378
f 90/222/379 91/223/380 96/224/381
f 91/223/382 92/225/383 96/224/384
f 92/225/385 93/226/386 96/224/387
f 93/226/388 94/227/389 96/224/390
f 94/227/391 95/228/392 96/224/393
f 95/228/394 90/222/395 96/224/396
