# This file uses meters as units for non-parametric coordinates.

v 0.322431 0.000000 35.153862
v -29.842215 0.000000 6.511090
v -7.449478 0.000000 16.326275
v -29.842215 0.000000 -21.664383
v 22.532845 0.000000 35.153862
v -10.476710 0.000000 -35.153851
v 20.737026 0.000000 -20.628843
v 29.842215 0.000000 11.745755
v -7.449478 38.544941 16.326275
v -28.635256 57.431499 6.511090
v -10.476710 57.431499 -35.153851
v -28.635267 57.431499 -21.664383
v 29.842215 38.544941 11.745755
v 0.322431 31.552929 35.153862
v 22.532845 31.552929 35.153862
v 20.737026 50.601521 -20.628843
v -7.075717 57.431499 13.389692
v 25.158585 50.601521 7.014250
vt 0.895415 0.287346
vt 0.895415 0.287346
vt 0.895415 0.287346
vt 0.895415 0.287346
vt 0.895415 0.287346
vt 0.895415 0.287346
vt 0.895415 0.287346
vt 0.895415 0.287346
vt 0.895415 0.287346
vt 0.895415 0.287346
vt 0.895415 0.287346
vt 0.895415 0.287346
vt 0.895415 0.287346
vt 0.895415 0.287346
vt 0.895415 0.287346
vt 0.895415 0.287346
vt 0.895415 0.287346
vt 0.895415 0.287346
vt 0.895415 0.287346
vt 0.895415 0.287346
vt 0.895415 0.287346
vt 0.895415 0.287346
vt 0.895415 0.287346
vt 0.895415 0.287346
vt 0.895415 0.287346
vt 0.895415 0.287346
vn 0.000000 1.000000 -0.000000
vn 0.000000 1.000000 -0.000000
vn 0.000000 1.000000 -0.000000
vn 0.000000 1.000000 -0.000000
vn 0.024171 0.949121 0.313984
vn 0.024171 0.949121 0.313984
vn 0.024171 0.949121 0.313984
vn 0.024171 0.949120 0.313984
vn 0.213106 0.976784 -0.021881
vn 0.213106 0.976784 -0.021881
vn 0.213106 0.976784 -0.021881
vn 0.213106 0.976784 -0.021881
vn 0.000000 -1.000000 0.000000
vn 0.000000 -1.000000 0.000000
vn 0.000000 -1.000000 0.000000
vn 0.000000 -1.000000 0.000000
vn 0.000000 -1.000000 0.000000
vn 0.000000 -1.000000 0.000000
vn 0.000000 -1.000000 0.000000
vn 0.000000 -1.000000 0.000000
vn 0.000000 -1.000000 0.000000
vn 0.000000 -1.000000 0.000000
vn 0.000000 -1.000000 0.000000
vn 0.000000 -1.000000 0.000000
vn -0.408855 0.005142 0.912585
vn -0.408855 0.005142 0.912585
vn -0.408855 0.005142 0.912585
vn -0.408855 0.005142 0.912585
vn -0.583747 0.006134 -0.811913
vn -0.583747 0.006134 -0.811913
vn -0.583747 0.006134 -0.811913
vn -0.583747 0.006134 -0.811913
vn -0.999779 0.021011 0.000000
vn -0.999779 0.021011 0.000000
vn -0.999779 0.021011 0.000000
vn -0.999779 0.021011 0.000000
vn -0.924343 0.000000 0.381563
vn -0.924343 0.000000 0.381563
vn -0.924343 0.000000 0.381563
vn -0.924343 0.000000 0.381563
vn 0.000000 0.000000 1.000000
vn 0.000000 0.000000 1.000000
vn 0.000000 0.000000 1.000000
vn 0.000000 0.000000 1.000000
vn 0.954546 0.000000 0.298065
vn 0.954546 0.000000 0.298065
vn 0.954546 0.000000 0.298065
vn 0.954546 0.000000 0.298065
vn 0.962652 0.000000 -0.270741
vn 0.962652 0.000000 -0.270741
vn 0.962652 0.000000 -0.270741
vn 0.962652 0.000000 -0.270741
vn 0.421898 0.000000 -0.906644
vn 0.421898 0.000000 -0.906644
vn 0.421898 0.000000 -0.906643
vn 0.421898 0.000000 -0.906643
vn -0.300408 0.152345 0.941566
vn -0.300408 0.152345 0.941566
vn -0.300408 0.152345 0.941566
vn 0.175164 0.259735 0.949661
vn 0.175164 0.259735 0.949661
vn 0.175164 0.259735 0.949661
vn 0.175164 0.259735 0.949661
vn 0.940029 0.306166 -0.150359
vn 0.940029 0.306166 -0.150359
vn 0.940029 0.306166 -0.150359
s off
f 10/17/1 17/25/2 11/19/3 12/20/4
f 13/23/5 9/18/6 14/21/7 15/22/8
f 11/19/9 17/25/10 18/26/11 16/24/12
f 2/9/13 4/12/14 6/11/15 3/10/16
f 8/13/17 5/15/18 1/14/19 3/10/20
f 6/11/21 7/16/22 8/13/23 3/10/24
f 2/2/25 3/3/26 9/18/27 10/17/28
f 6/6/29 4/4/30 12/20/31 11/19/32
f 4/4/33 2/2/34 10/17/35 12/20/36
f 3/3/37 1/1/38 14/21/39 9/18/40
f 1/1/41 5/5/42 15/22/43 14/21/44
f 5/5/45 8/8/46 13/23/47 15/22/48
f 8/8/49 7/7/50 16/24/51 13/23/52
f 7/7/53 6/6/54 11/19/55 16/24/56
f 10/17/57 9/18/58 17/25/59
f 9/18/60 13/23/61 18/26/62 17/25/63
f 13/23/64 16/24/65 18/26/66
