# This file uses meters as units for non-parametric coordinates.

v -54.871422 0.000000 140.456619
v -28.562292 0.000000 140.456619
v -80.705475 0.000000 112.503014
v -110.533028 0.000000 112.967285
v -129.996643 0.000000 75.396301
v -124.524467 0.000000 48.351025
v -139.137955 0.000000 2.662792
v -122.222237 0.000000 -31.304712
v -80.931839 0.000000 -36.404095
v -62.388451 0.000000 -17.148069
v -23.216322 0.000000 -28.335945
v -19.056929 0.000000 -59.996433
v -29.369244 0.000000 -77.522339
v -20.235916 0.000000 -112.131378
v 33.901623 0.000000 -128.996017
v 65.502609 0.000000 -104.011414
v 64.629677 0.000000 -69.457718
v 87.923706 0.000000 -43.515697
v 92.195908 0.000000 -20.922129
v 125.173744 0.000000 7.668648
v 139.137848 0.000000 73.774620
v 128.027420 0.000000 93.026970
v 107.130249 0.000000 87.859230
v 94.213997 0.000000 104.277084
v 61.435555 0.000000 114.326492
v 39.633034 0.000000 95.909584
v 20.297934 0.000000 105.326744
v 11.248882 0.000000 122.661903
v -23.315533 0.000000 127.464348
v 92.195908 27.880693 -20.922129
v 39.633034 27.880693 95.909584
v 107.130249 27.880693 87.859230
v 125.173744 27.880693 7.668648
v -62.388451 45.020615 -17.148069
v -124.524467 32.885185 48.351025
v -80.931839 32.885185 -36.404095
v -122.222237 32.885185 -31.304712
v -139.137955 32.885185 2.662792
v -80.705475 32.885185 112.503014
v -129.996643 32.885185 75.396301
v -110.533028 32.885185 112.967285
v -23.315533 27.880693 127.464348
v -28.562292 27.880693 140.456619
v -54.871422 27.880693 140.456619
v 20.297934 27.880693 105.326744
v 11.248882 27.880693 122.661903
v 61.435555 27.880693 114.326492
v 94.213997 27.880693 104.277084
v 128.027420 27.880693 93.026970
v 139.137848 27.880693 73.774620
v -23.216322 45.020615 -28.335945
v 87.923706 27.880693 -43.515697
v 64.629677 34.937115 -69.457718
v -19.056929 34.937115 -59.996433
v -29.369244 27.763741 -77.522339
v 65.502609 34.937115 -104.011414
v 33.901623 27.763741 -128.996017
v -20.235916 27.763741 -112.131378
v -111.236031 32.885185 3.633287
v -14.117753 45.020615 91.458237
v 22.677910 45.020615 74.737473
v 63.023773 45.020615 8.351665
v 114.388718 27.880693 55.600357
v 1.102491 34.937115 -86.030380
v 33.082497 34.937115 -94.959450
v 35.571274 34.937115 -66.172523
v 48.507496 45.020615 -19.367563
v -57.817024 45.288128 77.891075
v -78.755539 44.753147 52.205658
v -88.814369 45.020615 13.679453
v -7.666278 27.880693 131.478745
v -7.666278 0.000000 131.478745
v 52.530422 36.450657 63.193684
vt 0.896411 0.287350
vt 0.896411 0.287350
vt 0.896411 0.287350
vt 0.896411 0.287350
vt 0.896411 0.287350
vt 0.896411 0.287350
vt 0.896411 0.287350
vt 0.896411 0.287350
vt 0.896411 0.287350
vt 0.896411 0.287350
vt 0.896411 0.287350
vt 0.896411 0.287350
vt 0.896411 0.287350
vt 0.896411 0.287350
vt 0.896411 0.287350
vt 0.896411 0.287350
vt 0.896411 0.287350
vt 0.896411 0.287350
vt 0.896411 0.287350
vt 0.896411 0.287350
vt 0.896411 0.287350
vt 0.896411 0.287350
vt 0.896411 0.287350
vt 0.896411 0.287350
vt 0.896411 0.287350
vt 0.896411 0.287350
vt 0.896411 0.287350
vt 0.896411 0.287350
vt 0.896411 0.287350
vt 0.896411 0.287350
vt 0.896411 0.287350
vt 0.896411 0.287350
vt 0.896411 0.287350
vt 0.896411 0.287350
vt 0.896411 0.287350
vt 0.896411 0.287350
vt 0.896411 0.287350
vt 0.896411 0.287350
vt 0.896411 0.287350
vt 0.896411 0.287350
vt 0.896411 0.287350
vt 0.896411 0.287350
vt 0.896411 0.287350
vt 0.896411 0.287350
vt 0.896411 0.287350
vt 0.896411 0.287350
vt 0.896411 0.287350
vt 0.896411 0.287350
vt 0.896411 0.287350
vt 0.896411 0.287350
vt 0.896411 0.287350
vt 0.896411 0.287350
vt 0.896411 0.287350
vt 0.896411 0.287350
vt 0.896411 0.287350
vt 0.896411 0.287350
vt 0.896411 0.287350
vt 0.896411 0.287350
vt 0.896411 0.287350
vt 0.896411 0.287350
vt 0.896411 0.287350
vt 0.896411 0.287350
vt 0.896411 0.287350
vt 0.896411 0.287350
vt 0.896411 0.287350
vt 0.896411 0.287350
vt 0.896411 0.287350
vt 0.896411 0.287350
vt 0.896411 0.287350
vt 0.896411 0.287350
vt 0.896411 0.287350
vt 0.896411 0.287350
vt 0.896411 0.287350
vt 0.896411 0.287350
vt 0.896411 0.287350
vt 0.896411 0.287350
vt 0.896411 0.287350
vt 0.896411 0.287350
vt 0.896411 0.287350
vt 0.896411 0.287350
vt 0.896411 0.287350
vt 0.896411 0.287350
vt 0.896411 0.287350
vt 0.896411 0.287350
vt 0.896411 0.287350
vt 0.896411 0.287350
vt 0.896411 0.287350
vt 0.896411 0.287350
vt 0.896411 0.287350
vt 0.896411 0.287350
vt 0.896411 0.287350
vt 0.896411 0.287350
vt 0.896411 0.287350
vt 0.896411 0.287350
vt 0.896411 0.287350
vt 0.896411 0.287350
vt 0.896411 0.287350
vt 0.896411 0.287350
vt 0.896411 0.287350
vt 0.896411 0.287350
vt 0.896411 0.287350
vt 0.896411 0.287350
vt 0.896411 0.287350
vt 0.896411 0.287350
vt 0.896411 0.287350
vt 0.896411 0.287350
vt 0.896411 0.287350
vt 0.896411 0.287350
vn 0.251466 0.923383 -0.290051
vn 0.251466 0.923382 -0.290051
vn 0.251466 0.923382 -0.290051
vn 0.000000 1.000000 0.000000
vn 0.000000 1.000000 0.000000
vn 0.000000 1.000000 0.000000
vn 0.000000 1.000000 0.000000
vn 0.000000 1.000000 0.000000
vn 0.000000 1.000000 0.000000
vn 0.000000 1.000000 0.000000
vn 0.000000 1.000000 0.000000
vn 0.041443 0.994058 0.100658
vn 0.041443 0.994058 0.100658
vn 0.041443 0.994058 0.100658
vn 0.041443 0.994058 0.100658
vn 0.000000 1.000000 -0.000000
vn 0.000000 1.000000 -0.000000
vn 0.000000 1.000000 -0.000000
vn 0.000000 1.000000 -0.000000
vn 0.000000 1.000000 0.000000
vn 0.000000 1.000000 0.000000
vn 0.000000 1.000000 0.000000
vn 0.000000 1.000000 0.000000
vn 0.000000 1.000000 0.000000
vn 0.000000 1.000000 0.000000
vn 0.000000 1.000000 0.000000
vn -0.245788 0.967151 -0.064864
vn -0.245788 0.967151 -0.064864
vn -0.245788 0.967151 -0.064864
vn -0.339300 0.900609 -0.271623
vn -0.339300 0.900609 -0.271623
vn -0.339300 0.900609 -0.271623
vn -0.339300 0.900609 -0.271623
vn 0.000000 1.000000 -0.000000
vn 0.000000 1.000000 -0.000000
vn 0.000000 1.000000 -0.000000
vn 0.000000 1.000000 -0.000000
vn -0.280773 0.934824 -0.217417
vn -0.280773 0.934824 -0.217417
vn -0.280773 0.934824 -0.217417
vn 0.000000 -1.000000 0.000000
vn 0.000000 -1.000000 0.000000
vn 0.000000 -1.000000 0.000000
vn 0.000000 -1.000000 0.000000
vn 0.000000 -1.000000 0.000000
vn 0.000000 -1.000000 0.000000
vn 0.000000 -1.000000 0.000000
vn 0.000000 -1.000000 0.000000
vn 0.000000 -1.000000 0.000000
vn 0.000000 -1.000000 0.000000
vn 0.000000 -1.000000 0.000000
vn 0.000000 -1.000000 0.000000
vn 0.000000 -1.000000 0.000000
vn 0.000000 -1.000000 0.000000
vn 0.000000 -1.000000 0.000000
vn 0.000000 -1.000000 0.000000
vn 0.000000 -1.000000 0.000000
vn 0.000000 -1.000000 0.000000
vn 0.000000 -1.000000 0.000000
vn 0.000000 -1.000000 0.000000
vn 0.000000 -1.000000 0.000000
vn 0.000000 -1.000000 0.000000
vn 0.000000 -1.000000 0.000000
vn 0.000000 -1.000000 0.000000
vn 0.000000 -1.000000 0.000000
vn 0.000000 -1.000000 0.000000
vn 0.000000 -1.000000 0.000000
vn 0.000000 -1.000000 0.000000
vn 0.000000 -1.000000 0.000000
vn 0.000000 -1.000000 0.000000
vn 0.000000 -1.000000 0.000000
vn 0.000000 -1.000000 0.000000
vn 0.000000 -1.000000 0.000000
vn 0.000000 -1.000000 0.000000
vn 0.000000 -1.000000 0.000000
vn 0.000000 -1.000000 0.000000
vn 0.000000 -1.000000 0.000000
vn 0.000000 -1.000000 0.000000
vn 0.000000 -1.000000 0.000000
vn 0.000000 -1.000000 0.000000
vn 0.000000 -1.000000 0.000000
vn 0.000000 -1.000000 0.000000
vn 0.000000 -1.000000 0.000000
vn 0.000000 -1.000000 0.000000
vn 0.000000 -1.000000 0.000000
vn 0.000000 -1.000000 0.000000
vn 0.000000 -1.000000 0.000000
vn 0.000000 -1.000000 0.000000
vn 0.000000 -1.000000 0.000000
vn 0.000000 -1.000000 0.000000
vn 0.000000 -1.000000 0.000000
vn 0.000000 -1.000000 0.000000
vn 0.000000 -1.000000 0.000000
vn 0.000000 -1.000000 0.000000
vn 0.655061 0.000000 -0.755576
vn 0.655061 0.000000 -0.755576
vn 0.655061 0.000000 -0.755576
vn 0.655061 0.000000 -0.755576
vn 0.720310 0.000000 -0.693652
vn 0.720310 0.000000 -0.693652
vn 0.720310 0.000000 -0.693652
vn 0.720310 0.000000 -0.693652
vn -0.122569 0.000000 -0.992460
vn -0.122569 0.000000 -0.992460
vn -0.122569 0.000000 -0.992460
vn -0.122569 0.000000 -0.992460
vn -0.895143 0.000000 -0.445779
vn -0.895143 0.000000 -0.445779
vn -0.895143 0.000000 -0.445779
vn -0.895143 0.000000 -0.445779
vn -0.952465 0.000000 0.304648
vn -0.952465 0.000000 0.304648
vn -0.952465 0.000000 0.304648
vn -0.952465 0.000000 0.304648
vn -0.980138 0.000000 -0.198315
vn -0.980138 0.000000 -0.198315
vn -0.980138 0.000000 -0.198315
vn -0.980138 0.000000 -0.198315
vn -0.887925 0.000000 0.459989
vn -0.887925 0.000000 0.459989
vn -0.887925 0.000000 0.459989
vn -0.887925 0.000000 0.459989
vn 0.015563 0.000000 0.999879
vn 0.015563 0.000000 0.999879
vn 0.015563 0.000000 0.999879
vn 0.015563 0.000000 0.999879
vn 0.927245 0.000000 0.374456
vn 0.927245 0.000000 0.374456
vn 0.927245 0.000000 0.374456
vn 0.927245 0.000000 0.374456
vn -0.734401 0.000000 0.678716
vn -0.734401 0.000000 0.678716
vn -0.734401 0.000000 0.678716
vn -0.734401 0.000000 0.678716
vn 0.000000 0.000000 1.000000
vn 0.000000 0.000000 1.000000
vn 0.000000 0.000000 1.000000
vn 0.000000 0.000000 1.000000
vn 0.422483 0.000000 0.906371
vn 0.422483 0.000000 0.906371
vn 0.422483 0.000000 0.906371
vn 0.422483 0.000000 0.906371
vn 0.886488 0.000000 0.462752
vn 0.886488 0.000000 0.462752
vn 0.886488 0.000000 0.462752
vn 0.886488 0.000000 0.462752
vn -0.645301 0.000000 0.763928
vn -0.645301 0.000000 0.763928
vn -0.645301 0.000000 0.763928
vn -0.645301 0.000000 0.763928
vn 0.293119 0.000000 0.956076
vn 0.293119 0.000000 0.956076
vn 0.293119 0.000000 0.956076
vn 0.293119 0.000000 0.956076
vn 0.785934 0.000000 0.618310
vn 0.785934 0.000000 0.618310
vn 0.785934 0.000000 0.618310
vn 0.785934 0.000000 0.618310
vn -0.240063 0.000000 0.970757
vn -0.240063 0.000000 0.970757
vn -0.240063 0.000000 0.970757
vn -0.240063 0.000000 0.970757
vn 0.866121 0.000000 0.499834
vn 0.866121 0.000000 0.499834
vn 0.866121 0.000000 0.499834
vn 0.866121 0.000000 0.499834
vn 0.978409 0.000000 -0.206677
vn 0.978409 0.000000 -0.206677
vn 0.978409 0.000000 -0.206677
vn 0.978409 0.000000 -0.206677
vn 0.982588 0.000000 -0.185797
vn 0.982588 0.000000 -0.185797
vn 0.982588 0.000000 -0.185797
vn 0.982588 0.000000 -0.185797
vn 0.744061 0.000000 -0.668112
vn 0.744061 0.000000 -0.668112
vn 0.744061 0.000000 -0.668112
vn 0.744061 0.000000 -0.668112
vn -0.991480 0.000000 -0.130256
vn -0.991480 0.000000 -0.130256
vn -0.991480 0.000000 -0.130256
vn -0.991480 0.000000 -0.130256
vn 0.620202 0.000000 -0.784442
vn 0.620202 0.000000 -0.784442
vn 0.620202 0.000000 -0.784442
vn 0.620202 0.000000 -0.784442
vn -0.297418 0.000000 -0.954747
vn -0.297418 0.000000 -0.954747
vn -0.297418 0.000000 -0.954747
vn -0.297418 0.000000 -0.954747
vn -0.966898 0.000000 -0.255164
vn -0.966898 0.000000 -0.255164
vn -0.966898 0.000000 -0.255164
vn -0.966898 0.000000 -0.255164
vn 0.437876 0.000000 0.899036
vn 0.437876 0.000000 0.899036
vn 0.437876 0.000000 0.899036
vn 0.437876 0.000000 0.899036
vn -0.274627 0.000000 -0.961551
vn -0.274627 0.000000 -0.961551
vn -0.274627 0.000000 -0.961551
vn -0.274627 0.000000 -0.961551
vn 0.999681 0.000000 0.025255
vn 0.999681 0.000000 0.025255
vn 0.999681 0.000000 0.025255
vn 0.999681 0.000000 0.025255
vn -0.861871 0.000000 0.507128
vn -0.861871 0.000000 0.507128
vn -0.861871 0.000000 0.507128
vn -0.861871 0.000000 0.507128
vn 0.000000 1.000000 0.000000
vn 0.000000 1.000000 0.000000
vn 0.000000 1.000000 0.000000
vn -0.054313 0.929711 0.364264
vn -0.054313 0.929711 0.364264
vn -0.054313 0.929711 0.364264
vn -0.054313 0.929711 0.364264
vn 0.236652 0.852423 0.466230
vn 0.236652 0.852423 0.466230
vn 0.236652 0.852423 0.466230
vn 0.084056 0.984192 0.155887
vn 0.084056 0.984192 0.155887
vn 0.084056 0.984192 0.155887
vn 0.084056 0.984192 0.155887
vn 0.000000 1.000000 0.000000
vn 0.000000 1.000000 0.000000
vn 0.000000 1.000000 0.000000
vn 0.000000 1.000000 0.000000
vn -0.255791 0.950068 0.178724
vn -0.255791 0.950068 0.178724
vn -0.255791 0.950068 0.178724
vn -0.255791 0.950068 0.178724
vn 0.353207 0.917077 -0.184971
vn 0.353208 0.917077 -0.184971
vn 0.353207 0.917077 -0.184971
vn -0.023113 0.978606 -0.204439
vn -0.023113 0.978606 -0.204439
vn -0.023113 0.978606 -0.204439
vn 0.000000 1.000000 0.000000
vn 0.000000 1.000000 0.000000
vn 0.000000 1.000000 0.000000
vn 0.000000 1.000000 0.000000
vn -0.057855 0.976584 -0.207212
vn -0.057855 0.976584 -0.207212
vn -0.057855 0.976584 -0.207212
vn -0.063235 0.975412 -0.211123
vn -0.063235 0.975412 -0.211123
vn -0.063235 0.975412 -0.211123
vn -0.063235 0.975412 -0.211123
vn 0.000000 1.000000 -0.000000
vn 0.000000 1.000000 -0.000000
vn 0.000000 1.000000 -0.000000
vn 0.000000 1.000000 -0.000000
vn 0.005514 0.968359 -0.249502
vn 0.005514 0.968359 -0.249502
vn 0.005514 0.968359 -0.249502
vn 0.005514 0.968359 -0.249502
vn 0.000000 1.000000 0.000000
vn 0.000000 1.000000 0.000000
vn 0.000000 1.000000 0.000000
vn 0.000000 1.000000 0.000000
vn 0.386463 0.843391 0.373280
vn 0.386463 0.843391 0.373280
vn 0.386463 0.843391 0.373280
vn 0.227890 0.841762 0.489391
vn 0.227890 0.841762 0.489391
vn 0.227890 0.841762 0.489391
vn 0.227890 0.841762 0.489391
vn -0.330244 0.943845 -0.009780
vn -0.330244 0.943845 -0.009780
vn -0.330244 0.943845 -0.009780
vn -0.330244 0.943845 -0.009780
vn 0.209377 0.969912 0.124227
vn 0.209377 0.969912 0.124227
vn 0.209377 0.969912 0.124227
vn 0.209377 0.969912 0.124227
vn 0.357447 0.931485 -0.067589
vn 0.357447 0.931485 -0.067589
vn 0.357447 0.931485 -0.067589
vn 0.362134 0.929452 -0.070548
vn 0.362134 0.929452 -0.070548
vn 0.362134 0.929452 -0.070548
vn -0.002275 0.999993 -0.003068
vn -0.002275 0.999993 -0.003068
vn -0.002275 0.999993 -0.003068
vn -0.002275 0.999993 -0.003068
vn 0.000000 1.000000 0.000000
vn 0.000000 1.000000 0.000000
vn 0.000000 1.000000 0.000000
vn -0.248478 0.000000 0.968638
vn -0.248478 0.000000 0.968638
vn -0.248478 0.000000 0.968638
vn -0.248478 0.000000 0.968638
vn 0.343599 0.915605 0.208822
vn 0.343599 0.915605 0.208822
vn 0.343599 0.915605 0.208822
s off
f 30/60/1 62/91/2 33/59/3
f 38/64/4 59/88/5 36/62/6 37/63/7
f 39/68/8 35/65/9 40/66/10 41/67/11
f 43/69/12 42/70/13 39/68/14 44/71/15
f 45/73/16 42/70/17 71/102/18 46/72/19
f 32/77/20 31/74/21 47/75/22 48/76/23
f 33/59/24 63/94/25 50/79/26
f 55/87/27 64/95/28 58/86/29
f 59/88/30 70/101/31 34/61/32 36/62/33
f 34/61/34 70/101/35 61/90/36 51/83/37
f 54/82/38 64/95/39 55/87/40
f 19/30/41 20/33/42 23/32/43 26/31/44
f 6/34/45 7/38/46 8/37/47 9/36/48 10/35/49
f 3/39/50 4/41/51 5/40/52 6/34/53
f 2/42/54 1/44/55 3/39/56 29/43/57
f 27/45/58 28/46/59 72/103/60 29/43/61
f 23/32/62 24/48/63 25/47/64 26/31/65
f 20/33/66 21/50/67 22/49/68 23/32/69
f 11/51/70 12/54/71 17/53/72 18/52/73 19/30/74
f 13/55/75 14/58/76 15/57/77 16/56/78
f 11/51/79 19/30/80 26/31/81
f 3/39/82 6/34/83 10/35/84 29/43/85
f 10/35/86 11/51/87 26/31/88 27/45/89 29/43/90
f 12/54/91 13/55/92 16/56/93 17/53/94
f 20/20/95 19/19/96 30/60/97 33/59/98
f 10/10/99 9/9/100 36/62/101 34/61/102
f 9/9/103 8/8/104 37/63/105 36/62/106
f 8/8/107 7/7/108 38/64/109 37/63/110
f 7/7/111 6/6/112 35/65/113 38/64/114
f 6/6/115 5/5/116 40/66/117 35/65/118
f 5/5/119 4/4/120 41/67/121 40/66/122
f 4/4/123 3/3/124 39/68/125 41/67/126
f 2/2/127 29/29/128 42/70/129 43/69/130
f 3/3/131 1/1/132 44/71/133 39/68/134
f 1/1/135 2/2/136 43/69/137 44/71/138
f 71/102/139 72/104/140 28/28/141 46/72/142
f 28/28/143 27/27/144 45/73/145 46/72/146
f 26/26/147 25/25/148 47/75/149 31/74/150
f 25/25/151 24/24/152 48/76/153 47/75/154
f 24/24/155 23/23/156 32/77/157 48/76/158
f 23/23/159 22/22/160 49/78/161 32/77/162
f 22/22/163 21/21/164 50/79/165 49/78/166
f 21/21/167 20/20/168 33/59/169 50/79/170
f 19/19/171 18/18/172 52/80/173 30/60/174
f 18/18/175 17/17/176 53/81/177 52/80/178
f 12/12/179 11/11/180 51/83/181 54/82/182
f 16/16/183 15/15/184 57/85/185 56/84/186
f 15/15/187 14/14/188 58/86/189 57/85/190
f 14/14/191 13/13/192 55/87/193 58/86/194
f 27/27/195 26/26/196 31/74/197 45/73/198
f 11/11/199 10/10/200 34/61/201 51/83/202
f 17/17/203 16/16/204 56/84/205 53/81/206
f 13/13/207 12/12/208 54/82/209 55/87/210
f 35/65/211 59/88/212 38/64/213
f 39/68/214 42/70/215 60/89/216 68/99/217
f 45/73/218 60/89/219 42/70/220
f 63/93/221 73/105/222 31/107/223 32/108/224
f 50/79/225 63/94/226 32/77/227 49/78/228
f 39/68/229 68/99/230 69/100/231 35/65/232
f 67/98/233 62/92/234 30/60/235
f 66/97/236 67/98/237 53/81/238
f 65/96/239 66/97/240 53/81/241 56/84/242
f 57/85/243 65/96/244 56/84/245
f 58/86/246 64/95/247 65/96/248 57/85/249
f 64/95/250 54/82/251 66/97/252 65/96/253
f 54/82/254 51/83/255 67/98/256 66/97/257
f 51/83/258 61/90/259 62/92/260 67/98/261
f 73/106/262 61/90/263 31/74/264
f 61/90/265 60/89/266 45/73/267 31/74/268
f 35/65/269 69/100/270 70/101/271 59/88/272
f 63/93/273 33/59/274 62/91/275 73/105/276
f 53/81/277 30/60/278 52/80/279
f 53/81/280 67/98/281 30/60/282
f 69/100/283 68/99/284 60/89/285 70/101/286
f 61/90/287 70/101/288 60/89/289
f 29/29/290 72/104/291 71/102/292 42/70/293
f 62/92/294 61/90/295 73/106/296
