# This file uses meters as units for non-parametric coordinates.

v -14.003174 0.000000 14.464050
v 19.118896 0.000000 11.067444
v -18.439453 56.752701 19.617767
v 23.196045 56.752701 16.071503
v -5.613525 58.706169 -26.228455
v -0.888916 0.000000 -20.199829
v -23.196045 58.706169 -7.979065
v -15.485352 0.000000 -6.530121
v 5.290039 58.706169 26.228394
v 13.138916 60.689190 9.104919
v 18.269531 56.752701 -13.601044
v 19.450439 0.000000 -8.909607
v 4.653076 0.000000 21.824768
v -8.184326 60.488716 -0.993347
v 4.632080 39.072102 21.804810
v -14.457764 42.583553 14.941010
v -16.026367 35.240162 -6.656769
v -1.500000 33.645287 -21.030182
v 18.631348 39.072102 -9.410095
v 19.218262 42.583553 11.186462
v 4.446045 32.291222 21.124847
v -13.153809 34.077503 13.773224
v -13.269775 26.734110 -5.617157
v -0.039307 26.734110 -18.707153
v 17.081299 32.291222 -8.059174
v 17.895020 33.333035 9.499481
v 1.937500 58.834148 19.920288
v 0.725830 58.374653 -13.437408
vt 0.648751 0.404876
vt 0.648751 0.404876
vt 0.648751 0.404876
vt 0.657133 0.364366
vt 0.453857 0.279007
vt 0.657133 0.364366
vt 0.657133 0.364366
vt 0.648751 0.404876
vt 0.648751 0.404876
vt 0.648751 0.404876
vt 0.657133 0.364366
vt 0.453857 0.279007
vt 0.648751 0.404876
vt 0.657133 0.364366
vt 0.453857 0.279007
vt 0.453857 0.279007
vt 0.657133 0.364367
vt 0.657133 0.364366
vt 0.648751 0.404876
vt 0.648751 0.404876
vt 0.648751 0.404877
vt 0.648751 0.404876
vt 0.648751 0.404876
vt 0.648751 0.404876
vt 0.648751 0.404876
vt 0.648751 0.404876
vt 0.657133 0.364367
vt 0.648751 0.404876
vt 0.453857 0.279007
vt 0.453857 0.279007
vt 0.453857 0.279007
vt 0.453857 0.279007
vt 0.453857 0.279007
vt 0.453857 0.279007
vt 0.657133 0.364367
vt 0.657133 0.364367
vt 0.657133 0.364366
vt 0.657133 0.364366
vt 0.657133 0.364366
vt 0.657133 0.364366
vt 0.657133 0.364366
vt 0.648751 0.404876
vt 0.657133 0.364367
vt 0.648751 0.404877
vt 0.648751 0.404876
vt 0.657133 0.364366
vt 0.648751 0.404876
vt 0.657133 0.364366
vt 0.648751 0.404876
vt 0.657133 0.364366
vt 0.648751 0.404876
vt 0.657133 0.364366
vt 0.657133 0.364367
vt 0.648751 0.404877
vt 0.657133 0.364366
vt 0.657133 0.364366
vt 0.657133 0.364366
vt 0.648751 0.404876
vn -0.374935 0.023050 0.926765
vn -0.374935 0.023050 0.926765
vn -0.374935 0.023050 0.926765
vn -0.374935 0.023050 0.926765
vn -0.102662 0.986481 0.127732
vn -0.102662 0.986481 0.127732
vn -0.102662 0.986481 0.127732
vn 0.499570 0.047200 -0.864987
vn 0.499570 0.047200 -0.864986
vn 0.499570 0.047200 -0.864987
vn 0.499570 0.047200 -0.864987
vn -0.998277 0.050204 0.030381
vn -0.998277 0.050204 0.030381
vn -0.998277 0.050204 0.030381
vn -0.998277 0.050204 0.030381
vn -0.691352 0.071977 -0.718924
vn -0.691352 0.071977 -0.718924
vn -0.691352 0.071977 -0.718924
vn -0.691352 0.071977 -0.718924
vn 0.403572 0.912491 -0.067004
vn 0.403572 0.912491 -0.067004
vn 0.403571 0.912491 -0.067004
vn 0.998411 0.054506 -0.014338
vn 0.998411 0.054506 -0.014338
vn 0.998411 0.054506 -0.014338
vn 0.998411 0.054506 -0.014338
vn 0.624125 0.040573 0.780270
vn 0.624125 0.040573 0.780270
vn 0.624125 0.040573 0.780270
vn 0.624125 0.040573 0.780270
vn 0.224593 0.950874 0.213064
vn 0.224593 0.950874 0.213064
vn 0.224593 0.950874 0.213064
vn -0.102431 0.991942 0.074559
vn -0.102431 0.991942 0.074559
vn -0.102431 0.991942 0.074559
vn -0.081459 0.993582 -0.078483
vn -0.081459 0.993582 -0.078483
vn -0.081459 0.993582 -0.078483
vn -0.161940 0.981980 0.097423
vn -0.161940 0.981980 0.097423
vn -0.161940 0.981980 0.097423
vn 0.159305 0.985784 -0.053404
vn 0.159305 0.985784 -0.053404
vn 0.159305 0.985784 -0.053404
vn -0.297668 -0.275356 0.914097
vn -0.297668 -0.275356 0.914097
vn -0.297668 -0.275356 0.914097
vn -0.297668 -0.275356 0.914097
vn -0.943631 -0.293275 0.153459
vn -0.943631 -0.293275 0.153459
vn -0.943632 -0.293275 0.153459
vn -0.943631 -0.293275 0.153459
vn -0.695805 -0.252150 -0.672515
vn -0.695805 -0.252150 -0.672515
vn -0.695805 -0.252150 -0.672515
vn -0.695805 -0.252150 -0.672515
vn 0.486235 -0.138619 -0.862763
vn 0.486235 -0.138619 -0.862763
vn 0.486235 -0.138619 -0.862763
vn 0.486235 -0.138619 -0.862763
vn 0.988803 -0.110069 -0.100763
vn 0.988803 -0.110069 -0.100763
vn 0.988803 -0.110069 -0.100763
vn 0.988803 -0.110069 -0.100763
vn 0.525094 -0.292128 0.799336
vn 0.525094 -0.292128 0.799336
vn 0.525094 -0.292128 0.799336
vn 0.525094 -0.292128 0.799336
vn -0.375103 -0.138233 0.916619
vn -0.375103 -0.138233 0.916619
vn -0.375103 -0.138233 0.916619
vn -0.375103 -0.138233 0.916619
vn -0.965136 -0.231292 0.122542
vn -0.965136 -0.231292 0.122542
vn -0.965136 -0.231292 0.122542
vn -0.965136 -0.231292 0.122542
vn -0.673748 -0.328651 -0.661856
vn -0.673748 -0.328651 -0.661855
vn -0.673748 -0.328651 -0.661855
vn -0.673748 -0.328651 -0.661855
vn 0.547508 -0.220192 -0.807311
vn 0.547508 -0.220192 -0.807311
vn 0.547508 -0.220192 -0.807311
vn 0.547508 -0.220192 -0.807311
vn 0.984260 -0.176079 -0.015125
vn 0.984260 -0.176079 -0.015125
vn 0.984260 -0.176079 -0.015125
vn 0.984260 -0.176079 -0.015125
vn 0.629284 -0.171165 0.758092
vn 0.629284 -0.171165 0.758092
vn 0.629284 -0.171165 0.758092
vn 0.629284 -0.171165 0.758092
vn -0.095814 0.992859 0.071063
vn -0.095814 0.992859 0.071063
vn -0.095814 0.992859 0.071063
vn 0.089620 0.984549 -0.150439
vn 0.089621 0.984549 -0.150439
vn 0.089621 0.984549 -0.150439
vn 0.091859 0.995577 -0.019723
vn 0.091859 0.995577 -0.019723
vn 0.091859 0.995577 -0.019723
vn -0.170319 0.985361 -0.007386
vn -0.170319 0.985361 -0.007386
vn -0.170319 0.985361 -0.007386
vn 0.203126 0.978930 -0.020862
vn 0.203126 0.978930 -0.020862
vn 0.203126 0.978930 -0.020862
s off
f 1/1/1 13/2/2 21/3/3 22/45/4
f 14/5/5 3/12/6 27/15/7
f 24/49/8 25/51/9 12/8/10 6/9/11
f 8/13/12 1/1/13 22/45/14 23/47/15
f 6/9/16 8/13/17 23/47/18 24/49/19
f 4/16/20 11/29/21 10/30/22
f 2/10/23 12/8/24 25/51/25 26/58/26
f 26/58/27 21/3/28 13/2/29 2/10/30
f 9/31/31 4/16/32 10/30/33
f 3/12/34 9/31/35 27/15/36
f 7/32/37 14/5/38 5/33/39
f 7/32/40 3/12/41 14/5/42
f 5/33/43 14/5/44 28/34/45
f 16/44/46 15/42/47 9/19/48 3/20/49
f 16/44/50 3/20/51 7/22/52 17/21/53
f 18/23/54 17/21/55 7/22/56 5/24/57
f 5/24/58 11/25/59 19/26/60 18/23/61
f 19/26/62 11/25/63 4/28/64 20/54/65
f 9/19/66 15/42/67 20/54/68 4/28/69
f 22/46/70 21/56/71 15/18/72 16/43/73
f 22/4/74 16/17/75 17/36/76 23/48/77
f 24/50/78 23/14/79 17/35/80 18/38/81
f 18/37/82 19/40/83 25/52/84 24/6/85
f 25/7/86 19/39/87 20/53/88 26/57/89
f 20/27/90 15/41/91 21/55/92 26/11/93
f 27/15/94 9/31/95 10/30/96
f 28/34/97 10/30/98 11/29/99
f 5/33/100 28/34/101 11/29/102
f 27/15/103 10/30/104 28/34/105
f 14/5/106 27/15/107 28/34/108
