# This file uses meters as units for non-parametric coordinates.

v 2.098083 -21.276001 -3.634262
v -2.098083 -21.276001 -3.634262
v -4.196671 -21.276001 0.000000
v -2.098083 -21.276001 3.634262
v 2.098083 -21.276001 3.634262
v 4.196671 -21.276001 0.000000
v 1.478073 38.011185 -2.559914
v -1.478073 38.011185 -2.559914
v -2.956131 38.011185 0.000000
v -1.478073 38.011185 2.559914
v 1.478073 38.011185 2.559914
v 2.956131 38.011185 0.000000
v 0.000000 -21.276001 0.000000
v -4.231003 61.998631 -1.880516
v -5.898544 61.998631 -1.880516
v -6.732178 61.998631 -0.436531
v -5.898544 61.998631 1.007462
v -4.231003 61.998631 1.007462
v -3.397110 61.998631 -0.436531
v 17.090866 51.840813 1.699448
v 31.390381 45.648914 -1.339211
v 19.167068 45.126034 -14.903515
v 3.567505 47.095184 -5.130135
v 6.210327 44.951981 11.557640
v 21.344757 43.343369 15.665947
v 26.704407 37.076469 -10.046898
v 10.015366 39.697639 -12.948227
v 1.913452 37.153370 3.217949
v 14.414215 35.754631 15.207161
v 29.901627 36.950279 7.097374
v 16.362503 34.522930 0.438560
v -10.330460 30.691977 3.913246
v 1.840210 26.628700 3.544998
v -6.081131 24.963339 -8.802414
v -19.881943 25.712648 -3.068291
v -19.807175 24.631702 10.654068
v -8.203125 24.523254 15.914284
v -0.189713 19.138132 -3.664268
v -13.253525 19.986336 -8.198547
v -21.626785 17.803331 3.758110
v -13.153580 17.894428 14.958572
v 0.133514 19.736700 10.415268
v -9.605408 16.631601 3.479004
v -9.385681 72.563042 1.954140
v 5.175781 68.285545 5.517067
v 0.814819 68.293274 -11.875404
v -17.289230 67.508835 -10.496902
v -22.201035 63.610138 5.000175
v -10.782883 62.980370 15.424980
v 6.272385 60.587700 -4.731880
v -7.171631 61.903622 -14.764404
v -21.045944 56.655693 -4.700600
v -15.464020 55.002293 11.332703
v 1.345062 58.645271 11.547852
v -5.268356 53.607231 -0.249100
v -13.936356 48.682171 -3.758240
v -1.929214 43.496815 0.197472
v -5.219528 42.781017 -15.159481
v -21.063232 44.376751 -14.592617
v -26.244614 42.711960 -0.981773
v -16.710403 41.544178 8.600868
v -1.635239 35.986660 -8.191933
v -12.853500 38.018024 -17.555618
v -25.823471 35.875633 -8.940376
v -21.638229 34.927078 5.387115
v -6.611130 36.068275 5.969749
v -13.836670 33.759212 -4.775368
vt 0.122822 0.100315
vt 0.122822 0.100315
vt 0.122822 0.100315
vt 0.122822 0.100315
vt 0.122822 0.100315
vt 0.122822 0.100315
vt 0.122822 0.100315
vt 0.122822 0.100315
vt 0.122822 0.100315
vt 0.122822 0.100315
vt 0.122822 0.100315
vt 0.122822 0.100315
vt 0.122822 0.100315
vt 0.122822 0.100315
vt 0.122822 0.100315
vt 0.122822 0.100315
vt 0.122822 0.100315
vt 0.122822 0.100315
vt 0.122822 0.100315
vt 0.122822 0.100315
vt 0.122822 0.100315
vt 0.122822 0.100315
vt 0.122822 0.100315
vt 0.122822 0.100315
vt 0.122822 0.100315
vt 0.122822 0.100315
vt 0.122822 0.100315
vt 0.122822 0.100315
vt 0.122822 0.100315
vt 0.122822 0.100315
vt 0.122822 0.100315
vt 0.122822 0.100315
vt 0.122822 0.100315
vt 0.122822 0.100315
vt 0.122822 0.100315
vt 0.122822 0.100315
vt 0.122822 0.100315
vt 0.122822 0.100315
vt 0.122822 0.100315
vt 0.122822 0.100315
vt 0.122822 0.100315
vt 0.122822 0.100315
vt 0.122822 0.100315
vt 0.122822 0.100315
vt 0.122822 0.100315
vt 0.573843 0.360657
vt 0.573843 0.360657
vt 0.573843 0.360657
vt 0.573843 0.360657
vt 0.573843 0.360657
vt 0.573843 0.360657
vt 0.573843 0.360657
vt 0.573843 0.360657
vt 0.573843 0.360657
vt 0.573843 0.360657
vt 0.573843 0.360657
vt 0.573843 0.360657
vt 0.573843 0.360658
vt 0.573843 0.360658
vt 0.573843 0.360658
vt 0.573843 0.360658
vt 0.573843 0.360658
vt 0.573843 0.360658
vt 0.573843 0.360657
vt 0.573843 0.360657
vt 0.573843 0.360657
vt 0.573843 0.360657
vt 0.573843 0.360657
vt 0.573843 0.360657
vt 0.573843 0.360657
vt 0.573843 0.360657
vt 0.573843 0.360657
vt 0.573843 0.360657
vt 0.573843 0.360657
vt 0.573843 0.360657
vt 0.573843 0.360657
vt 0.573843 0.360657
vt 0.573843 0.360657
vt 0.573843 0.360657
vt 0.573843 0.360657
vt 0.573843 0.360657
vt 0.573843 0.360657
vt 0.573843 0.360657
vt 0.573843 0.360657
vt 0.573843 0.360657
vt 0.573843 0.360657
vt 0.573843 0.360657
vt 0.573843 0.360657
vt 0.573843 0.360657
vt 0.573843 0.360657
vt 0.573843 0.360657
vt 0.573843 0.360657
vt 0.573843 0.360657
vn 0.000000 0.018118 -0.999836
vn 0.000000 0.018118 -0.999836
vn 0.000000 0.018118 -0.999836
vn 0.000000 0.018118 -0.999836
vn -0.865857 0.018116 -0.499964
vn -0.865857 0.018116 -0.499964
vn -0.865857 0.018116 -0.499964
vn -0.865857 0.018116 -0.499964
vn -0.865857 0.018116 0.499964
vn -0.865857 0.018116 0.499964
vn -0.865857 0.018116 0.499964
vn -0.865857 0.018116 0.499964
vn 0.000000 0.018118 0.999836
vn 0.000000 0.018118 0.999836
vn 0.000000 0.018118 0.999836
vn 0.000000 0.018118 0.999836
vn 0.865857 0.018116 0.499964
vn 0.865857 0.018116 0.499964
vn 0.865857 0.018116 0.499964
vn 0.865857 0.018116 0.499964
vn 0.865857 0.018116 -0.499964
vn 0.865857 0.018116 -0.499964
vn 0.865857 0.018116 -0.499964
vn 0.865857 0.018116 -0.499964
vn 0.000000 -1.000000 0.000000
vn 0.000000 -1.000000 0.000000
vn 0.000000 -1.000000 0.000000
vn 0.000000 -1.000000 0.000000
vn 0.000000 -1.000000 0.000000
vn 0.000000 -1.000000 0.000000
vn 0.000000 -1.000000 0.000000
vn 0.000000 -1.000000 0.000000
vn 0.000000 -1.000000 0.000000
vn 0.000000 -1.000000 0.000000
vn 0.000000 -1.000000 0.000000
vn 0.000000 -1.000000 0.000000
vn 0.000000 -1.000000 0.000000
vn 0.000000 -1.000000 0.000000
vn 0.000000 -1.000000 0.000000
vn 0.000000 -1.000000 0.000000
vn 0.000000 -1.000000 0.000000
vn 0.000000 -1.000000 0.000000
vn 0.000000 0.028312 -0.999599
vn 0.000000 0.028312 -0.999599
vn 0.000000 0.028312 -0.999599
vn 0.000000 0.028312 -0.999599
vn -0.857007 -0.143915 -0.494801
vn -0.857007 -0.143915 -0.494801
vn -0.857007 -0.143915 -0.494801
vn -0.857007 -0.143915 -0.494801
vn -0.859097 -0.126213 0.496007
vn -0.859097 -0.126213 0.496007
vn -0.859097 -0.126213 0.496007
vn -0.859097 -0.126213 0.496007
vn 0.000000 0.064584 0.997912
vn 0.000000 0.064584 0.997912
vn 0.000000 0.064584 0.997912
vn 0.000000 0.064584 0.997912
vn 0.842377 0.231965 0.486408
vn 0.842377 0.231965 0.486408
vn 0.842377 0.231965 0.486408
vn 0.842377 0.231965 0.486408
vn 0.845724 0.215112 -0.488342
vn 0.845724 0.215112 -0.488342
vn 0.845724 0.215112 -0.488342
vn 0.845724 0.215112 -0.488342
vn 0.339918 0.907000 -0.248609
vn 0.339918 0.907000 -0.248609
vn 0.339918 0.907000 -0.248609
vn -0.167091 0.933356 -0.317692
vn -0.167091 0.933355 -0.317692
vn -0.167091 0.933356 -0.317692
vn -0.391055 0.909268 0.142509
vn -0.391055 0.909268 0.142509
vn -0.391055 0.909268 0.142509
vn -0.022463 0.868025 0.496012
vn -0.022463 0.868025 0.496012
vn -0.022463 0.868025 0.496012
vn 0.429303 0.866624 0.254287
vn 0.429303 0.866624 0.254287
vn 0.429303 0.866624 0.254287
vn 0.929862 -0.314724 -0.190543
vn 0.929862 -0.314724 -0.190543
vn 0.929862 -0.314724 -0.190543
vn 0.120126 -0.224121 -0.967130
vn 0.120126 -0.224121 -0.967129
vn 0.120126 -0.224121 -0.967129
vn -0.872328 -0.221043 -0.436100
vn -0.872328 -0.221043 -0.436100
vn -0.872328 -0.221043 -0.436100
vn -0.675963 -0.309743 0.668680
vn -0.675963 -0.309743 0.668680
vn -0.675963 -0.309743 0.668680
vn 0.437851 -0.367641 0.820443
vn 0.437851 -0.367641 0.820443
vn 0.437851 -0.367641 0.820443
vn 0.675963 0.309743 -0.668680
vn 0.675963 0.309743 -0.668680
vn 0.675963 0.309743 -0.668680
vn -0.437851 0.367641 -0.820443
vn -0.437851 0.367641 -0.820443
vn -0.437851 0.367641 -0.820443
vn -0.929861 0.314724 0.190543
vn -0.929861 0.314724 0.190543
vn -0.929861 0.314724 0.190543
vn -0.120126 0.224121 0.967129
vn -0.120126 0.224121 0.967129
vn -0.120126 0.224121 0.967129
vn 0.872328 0.221043 0.436100
vn 0.872328 0.221043 0.436100
vn 0.872328 0.221043 0.436101
vn 0.022463 -0.868025 -0.496012
vn 0.022463 -0.868025 -0.496012
vn 0.022463 -0.868025 -0.496012
vn -0.429303 -0.866624 -0.254287
vn -0.429303 -0.866624 -0.254287
vn -0.429303 -0.866624 -0.254287
vn -0.339917 -0.907000 0.248610
vn -0.339917 -0.907000 0.248610
vn -0.339917 -0.907000 0.248610
vn 0.167091 -0.933356 0.317692
vn 0.167091 -0.933356 0.317692
vn 0.167091 -0.933356 0.317692
vn 0.391055 -0.909268 -0.142509
vn 0.391055 -0.909268 -0.142509
vn 0.391055 -0.909268 -0.142509
vn 0.301354 0.923975 -0.235490
vn 0.301354 0.923975 -0.235490
vn 0.301354 0.923975 -0.235490
vn -0.189524 0.903274 -0.384936
vn -0.189524 0.903274 -0.384936
vn -0.189524 0.903274 -0.384936
vn -0.482483 0.875169 0.035907
vn -0.482483 0.875169 0.035907
vn -0.482483 0.875169 0.035907
vn -0.172664 0.878500 0.445449
vn -0.172664 0.878500 0.445449
vn -0.172664 0.878500 0.445449
vn 0.311774 0.908664 0.277717
vn 0.311774 0.908664 0.277717
vn 0.311774 0.908664 0.277717
vn 0.971058 -0.237336 -0.026797
vn 0.971058 -0.237336 -0.026797
vn 0.971058 -0.237336 -0.026797
vn 0.291827 -0.244639 -0.924656
vn 0.291827 -0.244639 -0.924656
vn 0.291827 -0.244639 -0.924656
vn -0.770229 -0.310769 -0.556929
vn -0.770229 -0.310769 -0.556929
vn -0.770229 -0.310769 -0.556929
vn -0.747384 -0.344337 0.568198
vn -0.747384 -0.344337 0.568198
vn -0.747384 -0.344337 0.568198
vn 0.328790 -0.298953 0.895837
vn 0.328790 -0.298953 0.895837
vn 0.328790 -0.298953 0.895837
vn 0.747384 0.344337 -0.568198
vn 0.747384 0.344337 -0.568198
vn 0.747384 0.344337 -0.568198
vn -0.328790 0.298953 -0.895837
vn -0.328790 0.298953 -0.895837
vn -0.328790 0.298953 -0.895837
vn -0.971058 0.237336 0.026797
vn -0.971058 0.237336 0.026797
vn -0.971058 0.237336 0.026797
vn -0.291827 0.244639 0.924656
vn -0.291827 0.244639 0.924656
vn -0.291827 0.244639 0.924656
vn 0.770229 0.310769 0.556929
vn 0.770229 0.310769 0.556929
vn 0.770229 0.310769 0.556929
vn 0.172664 -0.878500 -0.445449
vn 0.172664 -0.878500 -0.445449
vn 0.172664 -0.878500 -0.445449
vn -0.311774 -0.908664 -0.277717
vn -0.311774 -0.908664 -0.277717
vn -0.311774 -0.908664 -0.277717
vn -0.301354 -0.923975 0.235490
vn -0.301354 -0.923975 0.235490
vn -0.301354 -0.923975 0.235490
vn 0.189524 -0.903274 0.384936
vn 0.189524 -0.903274 0.384936
vn 0.189524 -0.903274 0.384936
vn 0.482483 -0.875169 -0.035907
vn 0.482483 -0.875169 -0.035907
vn 0.482483 -0.875169 -0.035907
vn 0.281638 0.959520 0.000901
vn 0.281638 0.959520 0.000901
vn 0.281638 0.959520 0.000901
vn -0.136369 0.945068 -0.297068
vn -0.136369 0.945068 -0.297068
vn -0.136369 0.945068 -0.297068
vn -0.540812 0.841141 0.001844
vn -0.540812 0.841141 0.001844
vn -0.540812 0.841141 0.001844
vn -0.372766 0.791363 0.484552
vn -0.372766 0.791363 0.484551
vn -0.372766 0.791363 0.484552
vn 0.135536 0.864525 0.483969
vn 0.135536 0.864525 0.483969
vn 0.135536 0.864525 0.483969
vn 0.948676 -0.195678 0.248443
vn 0.948676 -0.195678 0.248443
vn 0.948676 -0.195678 0.248443
vn 0.580260 -0.086547 -0.809820
vn 0.580260 -0.086547 -0.809820
vn 0.580260 -0.086547 -0.809820
vn -0.534114 -0.246944 -0.808542
vn -0.534114 -0.246944 -0.808542
vn -0.534114 -0.246944 -0.808542
vn -0.854419 -0.455207 0.250509
vn -0.854419 -0.455207 0.250509
vn -0.854419 -0.455206 0.250509
vn 0.061995 -0.423522 0.903762
vn 0.061995 -0.423522 0.903762
vn 0.061995 -0.423522 0.903762
vn 0.854419 0.455206 -0.250509
vn 0.854419 0.455206 -0.250509
vn 0.854419 0.455206 -0.250509
vn -0.061995 0.423522 -0.903762
vn -0.061995 0.423522 -0.903762
vn -0.061995 0.423522 -0.903762
vn -0.948676 0.195678 -0.248443
vn -0.948676 0.195678 -0.248443
vn -0.948676 0.195678 -0.248443
vn -0.580260 0.086547 0.809820
vn -0.580260 0.086547 0.809820
vn -0.580260 0.086547 0.809820
vn 0.534114 0.246944 0.808543
vn 0.534114 0.246944 0.808543
vn 0.534114 0.246944 0.808543
vn 0.372766 -0.791363 -0.484551
vn 0.372766 -0.791363 -0.484551
vn 0.372766 -0.791363 -0.484551
vn -0.135536 -0.864525 -0.483969
vn -0.135536 -0.864525 -0.483969
vn -0.135536 -0.864525 -0.483969
vn -0.281638 -0.959520 -0.000901
vn -0.281638 -0.959520 -0.000901
vn -0.281638 -0.959520 -0.000901
vn 0.136369 -0.945068 0.297068
vn 0.136369 -0.945068 0.297068
vn 0.136369 -0.945068 0.297068
vn 0.540812 -0.841141 -0.001844
vn 0.540812 -0.841141 -0.001844
vn 0.540812 -0.841141 -0.001844
vn 0.412413 0.909000 -0.060285
vn 0.412413 0.909000 -0.060285
vn 0.412413 0.909000 -0.060285
vn 0.007296 0.927630 -0.373428
vn 0.007296 0.927631 -0.373428
vn 0.007296 0.927630 -0.373428
vn -0.416217 0.905196 -0.085925
vn -0.416217 0.905196 -0.085925
vn -0.416217 0.905197 -0.085925
vn -0.272846 0.872701 0.404905
vn -0.272846 0.872701 0.404905
vn -0.272846 0.872701 0.404905
vn 0.239276 0.875052 0.420751
vn 0.239276 0.875052 0.420751
vn 0.239276 0.875052 0.420751
vn 0.903072 -0.303789 0.303600
vn 0.903072 -0.303789 0.303600
vn 0.903072 -0.303789 0.303600
vn 0.588110 -0.232402 -0.774672
vn 0.588110 -0.232402 -0.774672
vn 0.588110 -0.232402 -0.774672
vn -0.536936 -0.237566 -0.809483
vn -0.536936 -0.237566 -0.809483
vn -0.536936 -0.237566 -0.809483
vn -0.917290 -0.312145 0.247275
vn -0.917290 -0.312145 0.247275
vn -0.917290 -0.312145 0.247275
vn -0.027316 -0.353072 0.935197
vn -0.027316 -0.353072 0.935197
vn -0.027316 -0.353072 0.935197
vn 0.917290 0.312144 -0.247274
vn 0.917290 0.312144 -0.247274
vn 0.917290 0.312144 -0.247274
vn 0.027316 0.353072 -0.935197
vn 0.027316 0.353072 -0.935197
vn 0.027316 0.353072 -0.935197
vn -0.903072 0.303788 -0.303600
vn -0.903072 0.303788 -0.303600
vn -0.903072 0.303788 -0.303600
vn -0.588110 0.232402 0.774672
vn -0.588110 0.232401 0.774672
vn -0.588110 0.232401 0.774672
vn 0.536936 0.237566 0.809483
vn 0.536936 0.237566 0.809483
vn 0.536936 0.237566 0.809483
vn 0.272846 -0.872701 -0.404905
vn 0.272846 -0.872701 -0.404905
vn 0.272846 -0.872701 -0.404905
vn -0.239276 -0.875052 -0.420751
vn -0.239276 -0.875052 -0.420751
vn -0.239276 -0.875052 -0.420751
vn -0.412413 -0.909000 0.060285
vn -0.412413 -0.909000 0.060285
vn -0.412413 -0.909000 0.060285
vn -0.007296 -0.927630 0.373428
vn -0.007296 -0.927630 0.373428
vn -0.007296 -0.927631 0.373428
vn 0.416217 -0.905196 0.085925
vn 0.416217 -0.905197 0.085925
vn 0.416217 -0.905196 0.085925
s off
f 1/7/1 2/8/2 8/15/3 7/14/4
f 2/8/5 3/9/6 9/16/7 8/15/8
f 3/9/9 4/10/10 10/17/11 9/16/12
f 4/10/13 5/11/14 11/18/15 10/17/16
f 5/11/17 6/12/18 12/19/19 11/18/20
f 6/12/21 1/13/22 7/20/23 12/19/24
f 2/2/25 1/1/26 13/21/27
f 3/3/28 2/2/29 13/21/30
f 4/4/31 3/3/32 13/21/33
f 5/5/34 4/4/35 13/21/36
f 6/6/37 5/5/38 13/21/39
f 1/1/40 6/6/41 13/21/42
f 7/22/43 8/23/44 15/24/45 14/25/46
f 8/26/47 9/27/48 16/28/49 15/29/50
f 9/30/51 10/31/52 17/32/53 16/33/54
f 10/34/55 11/35/56 18/36/57 17/37/58
f 11/38/59 12/39/60 19/40/61 18/41/62
f 12/42/63 7/43/64 14/44/65 19/45/66
f 20/46/67 21/47/68 22/48/69
f 20/46/70 22/48/71 23/49/72
f 20/46/73 23/49/74 24/50/75
f 20/46/76 24/50/77 25/51/78
f 20/46/79 25/51/80 21/47/81
f 21/47/82 30/52/83 26/53/84
f 22/48/85 26/53/86 27/54/87
f 23/49/88 27/54/89 28/55/90
f 24/50/91 28/55/92 29/56/93
f 25/51/94 29/56/95 30/52/96
f 26/53/97 22/48/98 21/47/99
f 27/54/100 23/49/101 22/48/102
f 28/55/103 24/50/104 23/49/105
f 29/56/106 25/51/107 24/50/108
f 30/52/109 21/47/110 25/51/111
f 31/57/112 27/54/113 26/53/114
f 31/57/115 28/55/116 27/54/117
f 31/57/118 29/56/119 28/55/120
f 31/57/121 30/52/122 29/56/123
f 31/57/124 26/53/125 30/52/126
f 32/58/127 33/59/128 34/60/129
f 32/58/130 34/60/131 35/61/132
f 32/58/133 35/61/134 36/62/135
f 32/58/136 36/62/137 37/63/138
f 32/58/139 37/63/140 33/59/141
f 33/59/142 42/64/143 38/65/144
f 34/60/145 38/65/146 39/66/147
f 35/61/148 39/66/149 40/67/150
f 36/62/151 40/67/152 41/68/153
f 37/63/154 41/68/155 42/64/156
f 38/65/157 34/60/158 33/59/159
f 39/66/160 35/61/161 34/60/162
f 40/67/163 36/62/164 35/61/165
f 41/68/166 37/63/167 36/62/168
f 42/64/169 33/59/170 37/63/171
f 43/69/172 39/66/173 38/65/174
f 43/69/175 40/67/176 39/66/177
f 43/69/178 41/68/179 40/67/180
f 43/69/181 42/64/182 41/68/183
f 43/69/184 38/65/185 42/64/186
f 44/70/187 45/71/188 46/72/189
f 44/70/190 46/72/191 47/73/192
f 44/70/193 47/73/194 48/74/195
f 44/70/196 48/74/197 49/75/198
f 44/70/199 49/75/200 45/71/201
f 45/71/202 54/76/203 50/77/204
f 46/72/205 50/77/206 51/78/207
f 47/73/208 51/78/209 52/79/210
f 48/74/211 52/79/212 53/80/213
f 49/75/214 53/80/215 54/76/216
f 50/77/217 46/72/218 45/71/219
f 51/78/220 47/73/221 46/72/222
f 52/79/223 48/74/224 47/73/225
f 53/80/226 49/75/227 48/74/228
f 54/76/229 45/71/230 49/75/231
f 55/81/232 51/78/233 50/77/234
f 55/81/235 52/79/236 51/78/237
f 55/81/238 53/80/239 52/79/240
f 55/81/241 54/76/242 53/80/243
f 55/81/244 50/77/245 54/76/246
f 56/82/247 57/83/248 58/84/249
f 56/82/250 58/84/251 59/85/252
f 56/82/253 59/85/254 60/86/255
f 56/82/256 60/86/257 61/87/258
f 56/82/259 61/87/260 57/83/261
f 57/83/262 66/88/263 62/89/264
f 58/84/265 62/89/266 63/90/267
f 59/85/268 63/90/269 64/91/270
f 60/86/271 64/91/272 65/92/273
f 61/87/274 65/92/275 66/88/276
f 62/89/277 58/84/278 57/83/279
f 63/90/280 59/85/281 58/84/282
f 64/91/283 60/86/284 59/85/285
f 65/92/286 61/87/287 60/86/288
f 66/88/289 57/83/290 61/87/291
f 67/93/292 63/90/293 62/89/294
f 67/93/295 64/91/296 63/90/297
f 67/93/298 65/92/299 64/91/300
f 67/93/301 66/88/302 65/92/303
f 67/93/304 62/89/305 66/88/306
