# This file uses meters as units for non-parametric coordinates.

v 4.914063 -22.220028 17.846191
v 11.581787 -23.500656 26.367920
v 18.198730 -22.428291 17.778320
v 5.469971 11.720376 22.511719
v 12.137695 10.439746 31.033447
v 18.754883 11.512111 22.443726
v 30.037842 18.479225 9.082764
v -5.687256 21.360905 9.584717
v -5.584229 16.572189 44.409180
v 30.178955 16.011532 44.226196
v 12.764648 74.125603 36.804565
v 19.986572 -22.710899 -26.576538
v 27.419922 -22.766832 -18.610229
v 33.197754 -23.373547 -27.828003
v 21.583740 11.493093 -27.826660
v 29.017090 11.437157 -19.860352
v 34.794922 10.830446 -29.078125
v 44.860596 15.074411 -44.409180
v 9.405273 19.197319 -41.125488
v 12.774658 20.318235 -6.153076
v 48.339111 18.534372 -9.522217
v 35.526123 67.923515 -24.291016
v -26.644043 -20.734762 -12.551025
v -20.518311 -20.762808 -1.450073
v -11.472900 -18.965513 -10.151245
v -30.989990 13.161705 -10.067139
v -24.864014 13.133657 1.033813
v -15.818848 14.930956 -7.667480
v -1.259766 23.131992 -21.480835
v -42.397705 20.687138 -27.770996
v -48.339111 16.972267 12.529663
v -7.498535 21.735134 18.989624
v -31.623779 81.388252 0.172241
v 12.669189 25.286037 -39.021912
v 43.408447 23.295963 -41.279449
v 16.447266 28.002823 -9.080963
v 46.397949 26.016842 -11.759705
v -40.998291 28.571838 -24.141327
v -6.177490 32.567398 -17.973846
v -45.734131 27.010908 10.603882
v -11.240479 30.987341 16.071045
v -2.566650 30.284328 14.188080
v 25.519775 33.034866 16.334076
v -2.513184 26.204838 43.136414
v 26.163818 29.410141 42.515076
vt 0.025925 0.150270
vt 0.025925 0.150270
vt 0.025925 0.150270
vt 0.025925 0.150270
vt 0.025925 0.150270
vt 0.025925 0.150270
vt 0.025925 0.150270
vt 0.025925 0.150270
vt 0.256870 0.164021
vt 0.256870 0.164021
vt 0.256870 0.164021
vt 0.256870 0.164021
vt 0.256870 0.164021
vt 0.256870 0.164021
vt 0.256870 0.164021
vt 0.447021 0.288208
vt 0.025925 0.150270
vt 0.025925 0.150270
vt 0.025925 0.150270
vt 0.025925 0.150270
vt 0.025925 0.150270
vt 0.025925 0.150270
vt 0.025925 0.150270
vt 0.025925 0.150270
vt 0.256870 0.164021
vt 0.256870 0.164021
vt 0.256870 0.164021
vt 0.256870 0.164021
vt 0.256870 0.164021
vt 0.256870 0.164021
vt 0.256870 0.164021
vt 0.447021 0.288208
vt 0.025925 0.150270
vt 0.025925 0.150270
vt 0.025925 0.150270
vt 0.025925 0.150270
vt 0.025925 0.150270
vt 0.025925 0.150270
vt 0.025925 0.150270
vt 0.025925 0.150270
vt 0.256870 0.164021
vt 0.256870 0.164021
vt 0.256870 0.164021
vt 0.256870 0.164021
vt 0.256870 0.164021
vt 0.256870 0.164021
vt 0.256870 0.164021
vt 0.447021 0.288208
vt 0.256870 0.164021
vt 0.256870 0.164021
vt 0.256870 0.164021
vt 0.256870 0.164021
vt 0.256870 0.164021
vt 0.256870 0.164021
vt 0.256870 0.164021
vt 0.256870 0.164021
vt 0.256870 0.164021
vt 0.256870 0.164021
vt 0.256870 0.164021
vt 0.256870 0.164021
vt 0.447021 0.288208
vt 0.447021 0.288208
vt 0.447021 0.288208
vt 0.447021 0.288208
vt 0.447021 0.288208
vt 0.447021 0.288208
vt 0.447021 0.288208
vt 0.447021 0.288208
vt 0.447021 0.288208
vt 0.447021 0.288208
vt 0.447021 0.288208
vt 0.447021 0.288208
vn -0.002933 0.136228 -0.990673
vn -0.002933 0.136228 -0.990673
vn -0.002933 0.136228 -0.990673
vn -0.002933 0.136228 -0.990673
vn -0.790725 -0.070636 0.608083
vn -0.790725 -0.070636 0.608083
vn -0.790725 -0.070636 0.608083
vn -0.790725 -0.070636 0.608083
vn 0.794302 -0.095484 0.599973
vn 0.794302 -0.095484 0.599973
vn 0.794302 -0.095484 0.599973
vn 0.794302 -0.095484 0.599973
vn -0.059402 -0.843800 -0.533360
vn -0.059402 -0.843800 -0.533360
vn -0.059402 -0.843800 -0.533360
vn -0.059402 -0.843800 -0.533360
vn -0.479361 -0.876314 -0.047823
vn -0.479361 -0.876314 -0.047823
vn -0.479361 -0.876314 -0.047823
vn -0.479361 -0.876314 -0.047823
vn -0.012282 -0.915012 0.403239
vn -0.012282 -0.915012 0.403239
vn -0.012282 -0.915012 0.403239
vn 0.393028 -0.919383 -0.016222
vn 0.393028 -0.919383 -0.016222
vn 0.393028 -0.919383 -0.016222
vn 0.393028 -0.919384 -0.016222
vn 0.019485 0.401116 -0.915820
vn 0.023906 0.451717 -0.891841
vn 0.023906 0.451717 -0.891841
vn 0.019485 0.401116 -0.915820
vn -0.950403 0.307729 0.045130
vn -0.950027 0.308867 0.045282
vn -0.950027 0.308867 0.045282
vn 0.007330 0.144613 0.989461
vn 0.007093 0.128767 0.991650
vn 0.007093 0.128767 0.991650
vn 0.007330 0.144613 0.989461
vn 0.968288 0.249466 0.013629
vn 0.957208 0.288933 0.016452
vn 0.957208 0.288933 0.016452
vn -0.095848 -0.031887 -0.994885
vn -0.095848 -0.031887 -0.994885
vn -0.095848 -0.031887 -0.994885
vn -0.095848 -0.031887 -0.994885
vn -0.729666 0.058973 0.681257
vn -0.729666 0.058973 0.681257
vn -0.729666 0.058973 0.681257
vn -0.729666 0.058973 0.681257
vn 0.846546 -0.020088 0.531936
vn 0.846546 -0.020088 0.531936
vn 0.846546 -0.020088 0.531936
vn 0.846546 -0.020088 0.531936
vn -0.125228 -0.918845 -0.374223
vn -0.125228 -0.918845 -0.374223
vn -0.125228 -0.918845 -0.374223
vn -0.125228 -0.918845 -0.374223
vn -0.497027 -0.855321 0.146256
vn -0.497027 -0.855321 0.146256
vn -0.497027 -0.855321 0.146256
vn -0.497027 -0.855321 0.146256
vn 0.010534 -0.833456 0.552485
vn 0.010534 -0.833456 0.552485
vn 0.010534 -0.833456 0.552485
vn 0.373465 -0.921744 0.104458
vn 0.373465 -0.921744 0.104458
vn 0.373465 -0.921744 0.104458
vn 0.373465 -0.921744 0.104458
vn -0.061692 0.240901 -0.968587
vn -0.046215 0.348246 -0.936263
vn -0.046215 0.348246 -0.936263
vn -0.061692 0.240901 -0.968587
vn -0.936110 0.342673 0.079203
vn -0.889145 0.452056 0.071177
vn -0.889145 0.452056 0.071177
vn 0.105031 0.308236 0.945494
vn 0.105061 0.309830 0.944970
vn 0.105061 0.309830 0.944970
vn 0.105031 0.308236 0.945494
vn 0.969331 0.215563 -0.118029
vn 0.969199 0.216132 -0.118073
vn 0.969199 0.216132 -0.118073
vn 0.145247 0.090816 -0.985219
vn 0.145247 0.090816 -0.985219
vn 0.145247 0.090816 -0.985219
vn 0.145247 0.090816 -0.985219
vn -0.866304 -0.146073 0.477682
vn -0.866304 -0.146073 0.477682
vn -0.866304 -0.146073 0.477682
vn -0.866304 -0.146073 0.477682
vn 0.689186 0.035329 0.723723
vn 0.689186 0.035329 0.723723
vn 0.689186 0.035329 0.723723
vn 0.689186 0.035329 0.723723
vn 0.133396 -0.892059 -0.431783
vn 0.133396 -0.892059 -0.431783
vn 0.133396 -0.892059 -0.431783
vn 0.133396 -0.892059 -0.431783
vn -0.298029 -0.952113 -0.068261
vn -0.298029 -0.952113 -0.068261
vn -0.298029 -0.952113 -0.068261
vn -0.298029 -0.952113 -0.068261
vn 0.044222 -0.916972 0.396493
vn 0.044222 -0.916972 0.396493
vn 0.044222 -0.916972 0.396493
vn 0.455540 -0.886241 0.084023
vn 0.455540 -0.886241 0.084023
vn 0.455540 -0.886241 0.084023
vn 0.455540 -0.886241 0.084023
vn 0.115455 0.398383 -0.909924
vn 0.115454 0.398383 -0.909924
vn 0.115454 0.398383 -0.909924
vn 0.115455 0.398383 -0.909924
vn -0.966191 0.227414 -0.121479
vn -0.966192 0.227413 -0.121478
vn -0.966192 0.227413 -0.121478
vn -0.178140 0.229776 0.956802
vn -0.178139 0.229776 0.956802
vn -0.178139 0.229776 0.956802
vn -0.178140 0.229776 0.956802
vn 0.898502 0.411550 0.152710
vn 0.898501 0.411549 0.152720
vn 0.898501 0.411549 0.152720
vn -0.046215 0.348246 -0.936263
vn -0.046215 0.348246 -0.936263
vn -0.061692 0.240901 -0.968587
vn -0.889145 0.452056 0.071177
vn -0.889145 0.452056 0.071177
vn -0.936110 0.342673 0.079203
vn -0.936110 0.342673 0.079203
vn 0.105061 0.309830 0.944970
vn 0.105061 0.309830 0.944970
vn 0.105031 0.308236 0.945494
vn 0.969199 0.216132 -0.118073
vn 0.969199 0.216132 -0.118073
vn 0.969331 0.215563 -0.118029
vn 0.969331 0.215563 -0.118029
vn 0.115454 0.398383 -0.909924
vn 0.115454 0.398383 -0.909924
vn 0.115455 0.398383 -0.909924
vn -0.966192 0.227413 -0.121478
vn -0.966192 0.227413 -0.121478
vn -0.966191 0.227414 -0.121479
vn -0.966191 0.227414 -0.121479
vn -0.178139 0.229776 0.956802
vn -0.178139 0.229776 0.956802
vn -0.178140 0.229776 0.956802
vn 0.898501 0.411549 0.152720
vn 0.898501 0.411549 0.152720
vn 0.898502 0.411550 0.152710
vn 0.898502 0.411550 0.152710
vn 0.023906 0.451717 -0.891841
vn 0.023906 0.451717 -0.891841
vn 0.019485 0.401116 -0.915820
vn -0.950027 0.308867 0.045282
vn -0.950027 0.308867 0.045282
vn -0.950403 0.307729 0.045130
vn -0.950403 0.307729 0.045130
vn 0.007093 0.128767 0.991650
vn 0.007093 0.128767 0.991650
vn 0.007330 0.144613 0.989461
vn 0.957208 0.288933 0.016452
vn 0.957208 0.288933 0.016452
vn 0.968288 0.249466 0.013629
vn 0.968288 0.249466 0.013629
s off
f 3/1/1 1/2/2 4/3/3 6/4/4
f 1/2/5 2/5/6 5/6/7 4/3/8
f 2/5/9 3/7/10 6/8/11 5/6/12
f 6/9/13 4/10/14 8/11/15 7/12/16
f 8/11/17 4/10/18 5/13/19 9/14/20
f 5/13/21 10/15/22 9/14/23
f 10/15/24 5/13/25 6/9/26 7/12/27
f 8/11/28 42/57/29 43/58/30 7/12/31
f 11/16/32 42/32/33 44/48/34
f 10/15/35 45/60/36 44/59/37 9/14/38
f 11/16/39 45/61/40 43/62/41
f 14/17/42 12/18/43 15/19/44 17/20/45
f 12/18/46 13/21/47 16/22/48 15/19/49
f 13/21/50 14/23/51 17/24/52 16/22/53
f 17/25/54 15/26/55 19/27/56 18/28/57
f 19/27/58 15/26/59 16/29/60 20/30/61
f 16/29/62 21/31/63 20/30/64
f 21/31/65 16/29/66 17/25/67 18/28/68
f 19/27/69 34/49/70 35/50/71 18/28/72
f 22/63/73 34/64/74 36/65/75
f 21/31/76 37/52/77 36/51/78 20/30/79
f 22/63/80 37/66/81 35/67/82
f 25/33/83 23/34/84 26/35/85 28/36/86
f 23/34/87 24/37/88 27/38/89 26/35/90
f 24/37/91 25/39/92 28/40/93 27/38/94
f 28/41/95 26/42/96 30/43/97 29/44/98
f 30/43/99 26/42/100 27/45/101 31/46/102
f 27/45/103 32/47/104 31/46/105
f 32/47/106 27/45/107 28/41/108 29/44/109
f 30/43/110 38/53/111 39/54/112 29/44/113
f 33/68/114 38/69/115 40/70/116
f 32/47/117 41/56/118 40/55/119 31/46/120
f 33/68/121 41/71/122 39/72/123
f 35/67/124 34/64/125 22/63/126
f 36/51/127 34/49/128 19/27/129 20/30/130
f 36/65/131 37/66/132 22/63/133
f 35/50/134 37/52/135 21/31/136 18/28/137
f 39/72/138 38/69/139 33/68/140
f 40/55/141 38/53/142 30/43/143 31/46/144
f 40/70/145 41/71/146 33/68/147
f 39/54/148 41/56/149 32/47/150 29/44/151
f 43/62/152 42/32/153 11/16/154
f 44/59/155 42/57/156 8/11/157 9/14/158
f 44/48/159 45/61/160 11/16/161
f 43/58/162 45/60/163 10/15/164 7/12/165
