# This file uses meters as units for non-parametric coordinates.

v -9.483310 51.809978 1.683967
v -11.167242 48.893261 1.683967
v -22.961763 59.591774 1.683967
v -24.645729 56.675060 1.683967
v -22.961763 59.591774 -1.683946
v -24.645729 56.675060 -1.683946
v -9.483310 51.809978 -1.683946
v -11.167242 48.893261 -1.683946
v 9.483310 51.809978 1.683967
v 11.167242 48.893261 1.683967
v 22.961763 59.591774 1.683967
v 24.645729 56.675060 1.683967
v 22.961763 59.591774 -1.683946
v 24.645729 56.675060 -1.683946
v 9.483310 51.809978 -1.683946
v 11.167242 48.893261 -1.683946
v 20.944635 9.166209 2.853259
v 26.760143 9.166209 2.853259
v 23.735594 80.258064 2.853259
v 30.328888 80.258064 2.853259
v 23.735594 80.258064 -3.201581
v 30.328888 80.258064 -3.201581
v 20.944635 9.166209 -3.201581
v 26.760143 9.166209 -3.201581
v -26.741991 9.166209 2.853259
v -20.926516 9.166209 2.853259
v -30.328918 80.258064 2.853259
v -23.735626 80.258064 2.853259
v -30.328918 80.258064 -3.201581
v -23.735626 80.258064 -3.201581
v -26.741991 9.166209 -3.201581
v -20.926516 9.166209 -3.201581
v 33.449787 9.166209 4.630622
v -33.101479 9.166209 4.630622
v 33.453640 4.474370 4.630622
v -33.105286 4.474370 4.630622
v 33.453640 4.474370 -4.978977
v -33.105286 4.474370 -4.978977
v 33.449787 9.166209 -4.978977
v -33.101479 9.166209 -4.978977
v 20.944614 4.691838 14.597682
v 20.944614 4.691838 -14.597692
v 20.944614 0.000000 14.599468
v 20.944614 0.000000 -14.599452
v 26.760143 0.000000 14.599468
v 26.760143 0.000000 -14.599452
v 26.760143 4.691838 14.597682
v 26.760143 4.691838 -14.597692
v -33.274265 58.324314 3.998623
v 33.274391 58.324314 3.998623
v -37.313869 65.357681 3.998623
v 37.313946 65.357681 3.998623
v -37.313869 65.357681 -4.346943
v 37.313946 65.357681 -4.346943
v -33.274265 58.324314 -4.346943
v 33.274391 58.324314 -4.346943
v -38.218491 69.041138 3.998623
v 38.218491 69.041138 3.998623
v -42.891663 76.074539 3.998623
v 42.891663 76.074539 3.998623
v -42.891663 76.074539 -4.346943
v 42.891663 76.074539 -4.346943
v -38.218491 69.041138 -4.346943
v 38.218491 69.041138 -4.346943
v -26.741991 4.691838 14.597682
v -26.741991 4.691838 -14.597692
v -26.741991 0.000000 14.599468
v -26.741991 0.000000 -14.599452
v -20.926516 0.000000 14.599468
v -20.926516 0.000000 -14.599452
v -20.926516 4.691838 14.597682
v -20.926516 4.691838 -14.597692
v 9.255977 52.203720 -3.397004
v -9.255965 52.203720 -3.397004
v -18.511986 36.171890 -3.397004
v -9.255965 20.140068 -3.397004
v 9.255977 20.140068 -3.397004
v 18.511974 36.171890 -3.397004
v 9.255977 52.203720 3.397025
v -9.255965 52.203720 3.397025
v -18.511986 36.171890 3.397025
v -9.255965 20.140068 3.397025
v 9.255977 20.140068 3.397025
v 18.511974 36.171890 3.397025
v 5.336413 45.414845 -3.397004
v -5.336424 45.414845 -3.397004
v 0.000000 36.171890 -3.397004
v -10.672848 36.171890 -3.397004
v -5.336424 26.928942 -3.397004
v 5.336413 26.928942 -3.397004
v 10.672826 36.171890 -3.397004
v 5.336413 45.414845 3.397025
v -5.336424 45.414845 3.397025
v 0.000000 36.171890 3.397025
v -10.672848 36.171890 3.397025
v -5.336424 26.928942 3.397025
v 5.336413 26.928942 3.397025
v 10.672826 36.171890 3.397025
vt 0.065230 0.240216
vt 0.065230 0.240216
vt 0.065230 0.240216
vt 0.065230 0.240216
vt 0.065230 0.240216
vt 0.065230 0.240216
vt 0.065230 0.240216
vt 0.065230 0.240216
vt 0.065230 0.240216
vt 0.065230 0.240216
vt 0.065230 0.240216
vt 0.065230 0.240216
vt 0.065230 0.240216
vt 0.065230 0.240216
vt 0.065230 0.240216
vt 0.065230 0.240216
vt 0.065230 0.240216
vt 0.065230 0.240216
vt 0.065230 0.240216
vt 0.065230 0.240216
vt 0.065230 0.240216
vt 0.065230 0.240216
vt 0.065230 0.240216
vt 0.065230 0.240216
vt 0.169190 0.903973
vt 0.169190 0.903973
vt 0.169190 0.903973
vt 0.169190 0.903973
vt 0.169190 0.903973
vt 0.169190 0.903973
vt 0.169190 0.903973
vt 0.169190 0.903973
vt 0.169190 0.903973
vt 0.169190 0.903973
vt 0.169190 0.903973
vt 0.169190 0.903973
vt 0.169190 0.903973
vt 0.169190 0.903973
vt 0.169190 0.903973
vt 0.169190 0.903973
vt 0.169190 0.903973
vt 0.169190 0.903973
vt 0.169190 0.903973
vt 0.169190 0.903973
vt 0.169190 0.903973
vt 0.169190 0.903973
vt 0.169190 0.903973
vt 0.169190 0.903973
vt 0.169190 0.903973
vt 0.169190 0.903973
vt 0.169190 0.903973
vt 0.169190 0.903973
vt 0.169190 0.903973
vt 0.169190 0.903973
vt 0.169190 0.903973
vt 0.169190 0.903973
vt 0.169190 0.903973
vt 0.169190 0.903973
vt 0.169190 0.903973
vt 0.169190 0.903973
vt 0.169190 0.903973
vt 0.169190 0.903973
vt 0.169190 0.903973
vt 0.169190 0.903973
vt 0.169190 0.903973
vt 0.169190 0.903973
vt 0.169190 0.903973
vt 0.169190 0.903973
vt 0.169190 0.903973
vt 0.169190 0.903973
vt 0.169190 0.903973
vt 0.169190 0.903973
vt 0.169190 0.903973
vt 0.169190 0.903973
vt 0.169190 0.903973
vt 0.169190 0.903973
vt 0.169190 0.903973
vt 0.169190 0.903973
vt 0.169190 0.903973
vt 0.169190 0.903973
vt 0.169190 0.903973
vt 0.169190 0.903973
vt 0.169190 0.903973
vt 0.169190 0.903973
vt 0.169190 0.903973
vt 0.169190 0.903973
vt 0.169190 0.903973
vt 0.169190 0.903973
vt 0.169190 0.903973
vt 0.169190 0.903973
vt 0.169190 0.903973
vt 0.169190 0.903973
vt 0.169190 0.903973
vt 0.169190 0.903973
vt 0.169190 0.903973
vt 0.169190 0.903973
vt 0.169190 0.903973
vt 0.169190 0.903973
vt 0.169190 0.903973
vt 0.169190 0.903973
vt 0.169190 0.903973
vt 0.169190 0.903973
vt 0.169190 0.903973
vt 0.169190 0.903973
vt 0.169190 0.903973
vt 0.169190 0.903973
vt 0.169190 0.903973
vt 0.169190 0.903973
vt 0.169190 0.903973
vt 0.169190 0.903973
vt 0.169190 0.903973
vt 0.169190 0.903973
vt 0.169190 0.903973
vt 0.169190 0.903973
vt 0.169190 0.903973
vt 0.169190 0.903973
vt 0.169190 0.903973
vt 0.169190 0.903973
vt 0.181634 0.149289
vt 0.181634 0.149289
vt 0.181634 0.149289
vt 0.181634 0.149289
vt 0.181634 0.149289
vt 0.181634 0.149289
vt 0.181634 0.149289
vt 0.181634 0.149289
vt 0.181634 0.149289
vt 0.181634 0.149289
vt 0.181634 0.149289
vt 0.181634 0.149289
vt 0.181634 0.149289
vt 0.181634 0.149289
vt 0.181634 0.111747
vt 0.181634 0.111747
vt 0.181634 0.111747
vt 0.181634 0.111747
vt 0.181634 0.111747
vt 0.181634 0.111747
vt 0.181634 0.111747
vt 0.181634 0.111747
vt 0.181634 0.111747
vt 0.181634 0.111747
vt 0.181634 0.111747
vt 0.181634 0.111747
vt 0.181634 0.111747
vt 0.181634 0.111747
vt 0.181634 0.111747
vt 0.181634 0.111747
vt 0.181634 0.111747
vt 0.181634 0.111747
vt 0.181634 0.111747
vt 0.181634 0.111747
vt 0.181634 0.111747
vt 0.181634 0.111747
vt 0.181634 0.111747
vt 0.181634 0.111747
vt 0.181634 0.111747
vt 0.181634 0.111747
vt 0.181634 0.111747
vt 0.181634 0.111747
vt 0.181634 0.111747
vt 0.181634 0.111747
vt 0.181634 0.111747
vt 0.181634 0.111747
vt 0.181634 0.111747
vt 0.181634 0.111747
vt 0.181634 0.111747
vt 0.181634 0.111747
vt 0.181634 0.149289
vt 0.181634 0.149289
vt 0.181634 0.149289
vt 0.181634 0.149289
vt 0.181634 0.149289
vt 0.181634 0.149289
vt 0.181634 0.149289
vt 0.181634 0.149289
vt 0.181634 0.149289
vt 0.181634 0.149289
vt 0.181634 0.149289
vt 0.181634 0.149289
vt 0.181634 0.149289
vt 0.181634 0.149289
vt 0.181634 0.149289
vt 0.181634 0.149289
vt 0.181634 0.149289
vt 0.181634 0.149289
vt 0.181634 0.149289
vt 0.181634 0.149289
vt 0.181634 0.149289
vt 0.181634 0.149289
vt 0.181634 0.149289
vt 0.181634 0.149289
vn 0.000000 0.000000 1.000000
vn 0.000000 0.000000 1.000000
vn 0.000000 0.000000 1.000000
vn 0.000000 0.000000 1.000000
vn -0.000000 0.000000 -1.000000
vn -0.000000 0.000000 -1.000000
vn -0.000000 0.000000 -1.000000
vn -0.000000 0.000000 -1.000000
vn -0.500000 -0.866025 0.000000
vn -0.500000 -0.866025 0.000000
vn -0.500000 -0.866025 0.000000
vn -0.500000 -0.866025 0.000000
vn 0.500000 0.866025 0.000000
vn 0.500000 0.866025 0.000000
vn 0.500000 0.866025 0.000000
vn 0.500000 0.866025 0.000000
vn 0.000000 0.000000 1.000000
vn 0.000000 0.000000 1.000000
vn 0.000000 0.000000 1.000000
vn 0.000000 0.000000 1.000000
vn 0.000000 0.000000 -1.000000
vn 0.000000 0.000000 -1.000000
vn 0.000000 0.000000 -1.000000
vn 0.000000 0.000000 -1.000000
vn 0.500000 -0.866025 0.000000
vn 0.500000 -0.866025 0.000000
vn 0.500000 -0.866025 0.000000
vn 0.500000 -0.866025 0.000000
vn -0.500000 0.866025 0.000000
vn -0.500000 0.866025 0.000000
vn -0.500000 0.866025 0.000000
vn -0.500000 0.866025 0.000000
vn 0.000000 0.000000 1.000000
vn 0.000000 0.000000 1.000000
vn 0.000000 0.000000 1.000000
vn 0.000000 0.000000 1.000000
vn 0.000000 1.000000 0.000000
vn 0.000000 1.000000 0.000000
vn 0.000000 1.000000 0.000000
vn 0.000000 1.000000 0.000000
vn 0.000000 0.000000 -1.000000
vn 0.000000 0.000000 -1.000000
vn 0.000000 0.000000 -1.000000
vn 0.000000 0.000000 -1.000000
vn 1.000000 0.000000 0.000000
vn 1.000000 0.000000 0.000000
vn 1.000000 0.000000 0.000000
vn 1.000000 0.000000 0.000000
vn -1.000000 0.000000 0.000000
vn -1.000000 0.000000 0.000000
vn -1.000000 0.000000 0.000000
vn -1.000000 0.000000 0.000000
vn 0.000000 0.000000 1.000000
vn 0.000000 0.000000 1.000000
vn 0.000000 0.000000 1.000000
vn 0.000000 0.000000 1.000000
vn 0.000000 1.000000 0.000000
vn 0.000000 1.000000 0.000000
vn 0.000000 1.000000 0.000000
vn 0.000000 1.000000 0.000000
vn 0.000000 0.000000 -1.000000
vn 0.000000 0.000000 -1.000000
vn 0.000000 0.000000 -1.000000
vn 0.000000 0.000000 -1.000000
vn 1.000000 0.000000 0.000000
vn 1.000000 0.000000 0.000000
vn 1.000000 0.000000 0.000000
vn 1.000000 0.000000 0.000000
vn -1.000000 0.000000 0.000000
vn -1.000000 0.000000 0.000000
vn -1.000000 0.000000 0.000000
vn -1.000000 0.000000 0.000000
vn 0.000000 0.000000 1.000000
vn 0.000000 0.000000 1.000000
vn 0.000000 0.000000 1.000000
vn 0.000000 0.000000 1.000000
vn 0.000000 -1.000000 0.000000
vn 0.000000 -1.000000 0.000000
vn 0.000000 -1.000000 0.000000
vn 0.000000 -1.000000 0.000000
vn 0.000000 0.000000 -1.000000
vn 0.000000 0.000000 -1.000000
vn 0.000000 0.000000 -1.000000
vn 0.000000 0.000000 -1.000000
vn 0.000000 1.000000 0.000000
vn 0.000000 1.000000 0.000000
vn 0.000000 1.000000 0.000000
vn 0.000000 1.000000 0.000000
vn -1.000000 0.000855 0.000000
vn -1.000000 0.000855 0.000000
vn -1.000000 0.000855 0.000000
vn -1.000000 0.000855 0.000000
vn 1.000000 0.000864 0.000000
vn 1.000000 0.000864 0.000000
vn 1.000000 0.000864 0.000000
vn 1.000000 0.000864 0.000000
vn -1.000000 0.000000 0.000000
vn -1.000000 0.000000 0.000000
vn -1.000000 0.000000 0.000000
vn -1.000000 0.000000 0.000000
vn 0.000000 -1.000000 0.000000
vn 0.000000 -1.000000 0.000000
vn 0.000000 -1.000000 0.000000
vn 0.000000 -1.000000 0.000000
vn 1.000000 -0.000000 0.000000
vn 1.000000 -0.000000 0.000000
vn 1.000000 -0.000000 0.000000
vn 1.000000 -0.000000 0.000000
vn 0.000000 1.000000 0.000000
vn 0.000000 1.000000 0.000000
vn 0.000000 1.000000 0.000000
vn 0.000000 1.000000 0.000000
vn 0.000000 0.000375 -1.000000
vn 0.000000 0.000375 -1.000000
vn 0.000000 0.000375 -1.000000
vn 0.000000 0.000375 -1.000000
vn 0.000000 0.000380 1.000000
vn 0.000000 0.000380 1.000000
vn 0.000000 0.000380 1.000000
vn 0.000000 0.000380 1.000000
vn 0.000000 0.000000 1.000000
vn 0.000000 0.000000 1.000000
vn 0.000000 0.000000 1.000000
vn 0.000000 0.000000 1.000000
vn 0.000000 1.000000 0.000000
vn 0.000000 1.000000 0.000000
vn 0.000000 1.000000 0.000000
vn 0.000000 1.000000 0.000000
vn 0.000000 0.000000 -1.000000
vn 0.000000 0.000000 -1.000000
vn 0.000000 0.000000 -1.000000
vn 0.000000 0.000000 -1.000000
vn 0.000000 -1.000000 0.000000
vn 0.000000 -1.000000 0.000000
vn 0.000000 -1.000000 0.000000
vn 0.000000 -1.000000 0.000000
vn 0.867152 -0.498043 0.000000
vn 0.867152 -0.498043 0.000000
vn 0.867152 -0.498043 0.000000
vn 0.867152 -0.498043 0.000000
vn -0.867150 -0.498047 0.000000
vn -0.867150 -0.498047 0.000000
vn -0.867150 -0.498047 0.000000
vn -0.867150 -0.498047 0.000000
vn 0.000000 0.000000 1.000000
vn 0.000000 0.000000 1.000000
vn 0.000000 0.000000 1.000000
vn 0.000000 0.000000 1.000000
vn 0.000000 1.000000 0.000000
vn 0.000000 1.000000 0.000000
vn 0.000000 1.000000 0.000000
vn 0.000000 1.000000 0.000000
vn 0.000000 0.000000 -1.000000
vn 0.000000 0.000000 -1.000000
vn 0.000000 0.000000 -1.000000
vn 0.000000 0.000000 -1.000000
vn 0.000000 -1.000000 0.000000
vn 0.000000 -1.000000 0.000000
vn 0.000000 -1.000000 0.000000
vn 0.000000 -1.000000 0.000000
vn 0.832910 -0.553408 0.000000
vn 0.832910 -0.553408 0.000000
vn 0.832910 -0.553408 0.000000
vn 0.832910 -0.553408 0.000000
vn -0.832910 -0.553408 0.000000
vn -0.832910 -0.553408 0.000000
vn -0.832910 -0.553408 0.000000
vn -0.832910 -0.553408 0.000000
vn -1.000000 -0.000000 0.000000
vn -1.000000 -0.000000 0.000000
vn -1.000000 -0.000000 0.000000
vn -1.000000 -0.000000 0.000000
vn 0.000000 -1.000000 0.000000
vn 0.000000 -1.000000 0.000000
vn 0.000000 -1.000000 0.000000
vn 0.000000 -1.000000 0.000000
vn 1.000000 0.000000 0.000000
vn 1.000000 0.000000 0.000000
vn 1.000000 0.000000 0.000000
vn 1.000000 0.000000 0.000000
vn 0.000000 1.000000 0.000000
vn 0.000000 1.000000 0.000000
vn 0.000000 1.000000 0.000000
vn 0.000000 1.000000 0.000000
vn 0.000000 0.000375 -1.000000
vn 0.000000 0.000375 -1.000000
vn 0.000000 0.000375 -1.000000
vn 0.000000 0.000375 -1.000000
vn 0.000000 0.000380 1.000000
vn 0.000000 0.000380 1.000000
vn 0.000000 0.000380 1.000000
vn 0.000000 0.000380 1.000000
vn 0.000000 1.000000 0.000000
vn 0.000000 1.000000 0.000000
vn 0.000000 1.000000 0.000000
vn 0.000000 1.000000 0.000000
vn -0.866025 0.500001 0.000000
vn -0.866025 0.500001 0.000000
vn -0.866025 0.500001 0.000000
vn -0.866025 0.500001 0.000000
vn -0.866025 -0.500001 0.000000
vn -0.866025 -0.500001 0.000000
vn -0.866025 -0.500001 0.000000
vn -0.866025 -0.500001 0.000000
vn 0.000000 -1.000000 0.000000
vn 0.000000 -1.000000 0.000000
vn 0.000000 -1.000000 0.000000
vn 0.000000 -1.000000 0.000000
vn 0.866026 -0.500000 0.000000
vn 0.866026 -0.500000 0.000000
vn 0.866026 -0.500000 0.000000
vn 0.866026 -0.500000 0.000000
vn 0.866026 0.500000 0.000000
vn 0.866026 0.500000 0.000000
vn 0.866026 0.500000 0.000000
vn 0.866026 0.500000 0.000000
vn 0.000000 0.000000 -1.000000
vn 0.000000 0.000000 -1.000000
vn 0.000000 0.000000 -1.000000
vn 0.000000 0.000000 -1.000000
vn 0.000000 0.000000 -1.000000
vn 0.000000 0.000000 -1.000000
vn 0.000000 0.000000 -1.000000
vn 0.000000 0.000000 -1.000000
vn 0.000000 0.000000 -1.000000
vn 0.000000 0.000000 -1.000000
vn 0.000000 0.000000 -1.000000
vn 0.000000 0.000000 -1.000000
vn 0.000000 0.000000 -1.000000
vn 0.000000 0.000000 -1.000000
vn 0.000000 0.000000 -1.000000
vn 0.000000 0.000000 -1.000000
vn 0.000000 0.000000 -1.000000
vn 0.000000 0.000000 -1.000000
vn 0.000000 0.000000 1.000000
vn 0.000000 0.000000 1.000000
vn 0.000000 0.000000 1.000000
vn 0.000000 0.000000 1.000000
vn 0.000000 0.000000 1.000000
vn 0.000000 0.000000 1.000000
vn 0.000000 0.000000 1.000000
vn 0.000000 0.000000 1.000000
vn 0.000000 0.000000 1.000000
vn 0.000000 0.000000 1.000000
vn 0.000000 0.000000 1.000000
vn 0.000000 0.000000 1.000000
vn 0.000000 0.000000 1.000000
vn 0.000000 0.000000 1.000000
vn 0.000000 0.000000 1.000000
vn 0.000000 0.000000 1.000000
vn 0.000000 0.000000 1.000000
vn 0.000000 0.000000 1.000000
vn 0.000000 0.000000 -1.000000
vn 0.000000 0.000000 -1.000000
vn 0.000000 0.000000 -1.000000
vn 0.000000 0.000000 -1.000000
vn 0.000000 0.000000 -1.000000
vn 0.000000 0.000000 -1.000000
vn 0.000000 0.000000 -1.000000
vn 0.000000 0.000000 -1.000000
vn 0.000000 0.000000 -1.000000
vn 0.000000 0.000000 -1.000000
vn 0.000000 0.000000 -1.000000
vn 0.000000 0.000000 -1.000000
vn 0.000000 0.000000 -1.000000
vn 0.000000 0.000000 -1.000000
vn 0.000000 0.000000 -1.000000
vn 0.000000 0.000000 -1.000000
vn 0.000000 0.000000 -1.000000
vn 0.000000 0.000000 -1.000000
vn 0.000000 0.000000 -1.000000
vn 0.000000 0.000000 -1.000000
vn 0.000000 0.000000 -1.000000
vn 0.000000 0.000000 -1.000000
vn 0.000000 0.000000 -1.000000
vn 0.000000 0.000000 -1.000000
vn 0.000000 0.000000 1.000000
vn 0.000000 0.000000 1.000000
vn 0.000000 0.000000 1.000000
vn 0.000000 0.000000 1.000000
vn 0.000000 0.000000 1.000000
vn 0.000000 0.000000 1.000000
vn 0.000000 0.000000 1.000000
vn 0.000000 0.000000 1.000000
vn 0.000000 0.000000 1.000000
vn 0.000000 0.000000 1.000000
vn 0.000000 0.000000 1.000000
vn 0.000000 0.000000 1.000000
vn 0.000000 0.000000 1.000000
vn 0.000000 0.000000 1.000000
vn 0.000000 0.000000 1.000000
vn 0.000000 0.000000 1.000000
vn -0.000000 0.000000 1.000000
vn -0.000000 0.000000 1.000000
vn -0.000000 0.000000 1.000000
vn -0.000000 0.000000 1.000000
vn -0.000000 0.000000 1.000000
vn -0.000000 0.000000 1.000000
vn -0.000000 0.000000 1.000000
vn -0.000000 0.000000 1.000000
s off
f 1/1/1 3/3/2 4/4/3 2/2/4
f 5/5/5 7/7/6 8/8/7 6/6/8
f 2/2/9 4/4/10 6/10/11 8/9/12
f 7/11/13 5/12/14 3/3/15 1/1/16
f 9/13/17 10/14/18 12/15/19 11/16/20
f 13/17/21 14/18/22 16/19/23 15/20/24
f 10/14/25 16/21/26 14/22/27 12/15/28
f 15/23/29 9/13/30 11/16/31 13/24/32
f 17/25/33 18/26/34 20/27/35 19/28/36
f 19/28/37 20/27/38 22/29/39 21/30/40
f 21/30/41 22/29/42 24/31/43 23/32/44
f 18/26/45 24/33/46 22/34/47 20/27/48
f 23/35/49 17/25/50 19/28/51 21/36/52
f 25/37/53 26/38/54 28/39/55 27/40/56
f 27/40/57 28/39/58 30/41/59 29/42/60
f 29/42/61 30/41/62 32/43/63 31/44/64
f 26/38/65 32/45/66 30/46/67 28/39/68
f 31/47/69 25/37/70 27/40/71 29/48/72
f 33/49/73 34/50/74 36/51/75 35/52/76
f 35/52/77 36/51/78 38/53/79 37/54/80
f 37/54/81 38/53/82 40/55/83 39/56/84
f 39/56/85 40/55/86 34/57/87 33/58/88
f 34/50/89 40/59/90 38/60/91 36/51/92
f 39/61/93 33/49/94 35/52/95 37/62/96
f 41/63/97 42/64/98 44/65/99 43/66/100
f 43/66/101 44/65/102 46/67/103 45/68/104
f 45/68/105 46/67/106 48/69/107 47/70/108
f 47/70/109 48/69/110 42/71/111 41/72/112
f 42/64/113 48/73/114 46/74/115 44/65/116
f 47/75/117 41/63/118 43/66/119 45/76/120
f 49/77/121 50/78/122 52/79/123 51/80/124
f 51/80/125 52/79/126 54/81/127 53/82/128
f 53/82/129 54/81/130 56/83/131 55/84/132
f 55/84/133 56/83/134 50/85/135 49/86/136
f 50/78/137 56/87/138 54/88/139 52/79/140
f 55/89/141 49/77/142 51/80/143 53/90/144
f 57/91/145 58/92/146 60/93/147 59/94/148
f 59/94/149 60/93/150 62/95/151 61/96/152
f 61/96/153 62/95/154 64/97/155 63/98/156
f 63/98/157 64/97/158 58/99/159 57/100/160
f 58/92/161 64/101/162 62/102/163 60/93/164
f 63/103/165 57/91/166 59/94/167 61/104/168
f 65/105/169 66/106/170 68/107/171 67/108/172
f 67/108/173 68/107/174 70/109/175 69/110/176
f 69/110/177 70/109/178 72/111/179 71/112/180
f 71/112/181 72/111/182 66/113/183 65/114/184
f 66/106/185 72/115/186 70/116/187 68/107/188
f 71/117/189 65/105/190 67/108/191 69/118/192
f 73/119/193 74/120/194 80/121/195 79/122/196
f 74/120/197 75/123/198 81/124/199 80/121/200
f 75/123/201 76/125/202 82/126/203 81/124/204
f 76/125/205 77/127/206 83/128/207 82/126/208
f 77/127/209 78/129/210 84/130/211 83/128/212
f 78/129/213 73/131/214 79/132/215 84/130/216
f 86/133/217 85/134/218 87/135/219
f 88/136/220 86/137/221 87/138/222
f 89/139/223 88/140/224 87/141/225
f 90/142/226 89/143/227 87/144/228
f 91/145/229 90/146/230 87/147/231
f 85/148/232 91/149/233 87/150/234
f 92/151/235 93/152/236 94/153/237
f 93/154/238 95/155/239 94/156/240
f 95/157/241 96/158/242 94/159/243
f 96/160/244 97/161/245 94/162/246
f 97/163/247 98/164/248 94/165/249
f 98/166/250 92/167/251 94/168/252
f 74/169/253 73/170/254 85/171/255 86/172/256
f 75/173/257 74/169/258 86/172/259 88/174/260
f 76/175/261 75/173/262 88/174/263 89/176/264
f 77/177/265 76/175/266 89/176/267 90/178/268
f 78/179/269 77/177/270 90/178/271 91/180/272
f 73/170/273 78/179/274 91/180/275 85/171/276
f 79/181/277 80/182/278 93/183/279 92/184/280
f 80/182/281 81/185/282 95/186/283 93/183/284
f 81/185/285 82/187/286 96/188/287 95/186/288
f 82/187/289 83/189/290 97/190/291 96/188/292
f 83/189/293 84/191/294 98/192/295 97/190/296
f 84/191/297 79/181/298 92/184/299 98/192/300
