# This file uses meters as units for non-parametric coordinates.

v 32.906738 50.411728 1.337067
v 43.491211 43.464050 1.337067
v 26.851807 50.411732 1.337067
v 43.204834 38.974548 1.337067
v 26.851807 50.411732 -1.337067
v 43.204834 38.974548 -1.337067
v 32.906738 50.411728 -1.337067
v 43.491211 43.464050 -1.337067
v -56.083252 50.411728 2.889130
v 56.083984 50.411728 2.889130
v -53.876465 56.681484 2.889130
v 54.700928 56.790756 2.889130
v -53.876465 56.681484 -2.889130
v 54.700928 56.790756 -2.889130
v -56.083252 50.411728 -2.889130
v 56.083984 50.411728 -2.889130
v -47.423828 50.411728 2.209229
v -43.955811 0.000000 2.209229
v -43.042480 50.411728 2.209229
v -39.894531 0.000000 2.209229
v -43.042480 50.411728 -2.209076
v -39.894531 0.000000 -2.209076
v -47.423828 50.411728 -2.209076
v -43.955811 0.000000 -2.209076
v 43.933838 50.411728 2.209229
v 40.721436 0.000000 2.209229
v 48.315430 50.411728 2.209229
v 44.781982 0.000000 2.209229
v 48.315430 50.411728 -2.209076
v 44.781982 0.000000 -2.209076
v 43.933838 50.411728 -2.209076
v 40.721436 0.000000 -2.209076
v -31.765381 50.411728 1.337067
v -42.608154 43.464054 1.337067
v -25.709961 50.411728 1.337067
v -42.328125 38.974548 1.337067
v -25.709961 50.411728 -1.337067
v -42.328125 38.974548 -1.337067
v -31.765381 50.411728 -1.337067
v -42.608154 43.464054 -1.337067
vt 0.065233 0.103513
vt 0.065233 0.103513
vt 0.065233 0.103513
vt 0.065233 0.103513
vt 0.065233 0.103513
vt 0.065233 0.103513
vt 0.065233 0.103513
vt 0.065233 0.103513
vt 0.065233 0.103513
vt 0.065233 0.103513
vt 0.064852 0.238763
vt 0.065233 0.103513
vt 0.064852 0.238763
vt 0.447021 0.283607
vt 0.446777 0.283607
vt 0.065233 0.103513
vt 0.065233 0.103513
vt 0.065233 0.103513
vt 0.065233 0.103513
vt 0.065233 0.103513
vt 0.064852 0.238763
vt 0.064852 0.238763
vt 0.064852 0.238763
vt 0.064852 0.238763
vt 0.065233 0.103513
vt 0.065233 0.103513
vt 0.065233 0.103513
vt 0.065233 0.103513
vt 0.065233 0.103513
vt 0.065233 0.103513
vt 0.065233 0.103513
vt 0.065233 0.103513
vt 0.065233 0.103513
vt 0.065233 0.103513
vt 0.065233 0.103513
vt 0.065233 0.103513
vt 0.065233 0.103513
vt 0.065233 0.103513
vt 0.065233 0.103513
vt 0.065233 0.103513
vt 0.065233 0.103513
vt 0.065233 0.103513
vt 0.065233 0.103513
vt 0.065233 0.103513
vt 0.065233 0.103513
vt 0.065233 0.103513
vt 0.065233 0.103513
vt 0.065233 0.103513
vt 0.065233 0.103513
vt 0.065233 0.103513
vt 0.065233 0.103513
vt 0.065233 0.103513
vt 0.065233 0.103513
vt 0.065233 0.103513
vt 0.065233 0.103513
vt 0.065233 0.103513
vt 0.065233 0.103513
vt 0.065233 0.103513
vt 0.064852 0.238763
vt 0.065233 0.103513
vt 0.065233 0.103513
vt 0.064852 0.238763
vt 0.065233 0.103513
vt 0.065233 0.103513
vt 0.065233 0.103513
vt 0.065233 0.103513
vt 0.065233 0.103513
vt 0.065233 0.103513
vt 0.065233 0.103513
vt 0.065233 0.103513
vt 0.065233 0.103513
vt 0.065233 0.103513
vt 0.065233 0.103513
vt 0.065233 0.103513
vt 0.065233 0.103513
vt 0.065233 0.103513
vt 0.065233 0.103513
vt 0.065233 0.103513
vt 0.065233 0.103513
vt 0.065233 0.103513
vt 0.065233 0.103513
vt 0.065233 0.103513
vt 0.065233 0.103513
vt 0.065233 0.103513
vt 0.065233 0.103513
vt 0.065233 0.103513
vt 0.065233 0.103513
vt 0.446777 0.283607
vt 0.447021 0.283607
vt 0.065233 0.103513
vt 0.065233 0.103513
vt 0.065233 0.103513
vt 0.065233 0.103513
vt 0.065233 0.103513
vt 0.065233 0.103513
vt 0.065233 0.103513
vn -0.000000 0.000000 1.000000
vn -0.000000 0.000000 1.000000
vn -0.000000 0.000000 1.000000
vn -0.000000 0.000000 1.000000
vn -0.573129 -0.819465 0.000000
vn -0.573129 -0.819465 0.000000
vn -0.573129 -0.819465 0.000000
vn -0.573129 -0.819465 0.000000
vn 0.000000 0.000000 -1.000000
vn 0.000000 0.000000 -1.000000
vn 0.000000 0.000000 -1.000000
vn 0.000000 0.000000 -1.000000
vn 0.548754 0.835984 0.000000
vn 0.548754 0.835984 0.000000
vn 0.548754 0.835984 0.000000
vn 0.548754 0.835984 0.000000
vn -0.000000 0.000000 1.000000
vn -0.000000 0.000000 1.000000
vn -0.000000 0.000000 1.000000
vn -0.000000 0.000000 1.000000
vn -0.001006 1.000000 0.000000
vn -0.001006 1.000000 0.000000
vn -0.001006 1.000000 0.000000
vn -0.001006 1.000000 0.000000
vn 0.000000 0.000000 -1.000000
vn 0.000000 0.000000 -1.000000
vn 0.000000 0.000000 -1.000000
vn 0.000000 0.000000 -1.000000
vn 0.000000 -1.000000 0.000000
vn 0.000000 -1.000000 0.000000
vn 0.000000 -1.000000 0.000000
vn 0.000000 -1.000000 0.000000
vn 0.977296 0.211877 0.000000
vn 0.977296 0.211877 0.000000
vn 0.977296 0.211877 0.000000
vn 0.977296 0.211877 0.000000
vn -0.943270 0.332026 0.000000
vn -0.943270 0.332026 0.000000
vn -0.943270 0.332026 0.000000
vn -0.943270 0.332026 0.000000
vn -0.000000 0.000000 1.000000
vn -0.000000 0.000000 1.000000
vn -0.000000 0.000000 1.000000
vn -0.000000 0.000000 1.000000
vn 0.998056 0.062322 0.000000
vn 0.998056 0.062322 0.000000
vn 0.998056 0.062322 0.000000
vn 0.998056 0.062322 0.000000
vn 0.000000 0.000000 -1.000000
vn 0.000000 0.000000 -1.000000
vn 0.000000 0.000000 -1.000000
vn 0.000000 0.000000 -1.000000
vn -0.997642 -0.068633 0.000000
vn -0.997642 -0.068633 0.000000
vn -0.997642 -0.068633 0.000000
vn -0.997642 -0.068633 0.000000
vn 0.000000 -1.000000 0.000000
vn 0.000000 -1.000000 0.000000
vn 0.000000 -1.000000 0.000000
vn 0.000000 -1.000000 0.000000
vn -0.000000 0.000000 1.000000
vn -0.000000 0.000000 1.000000
vn -0.000000 0.000000 1.000000
vn -0.000000 0.000000 1.000000
vn 0.997553 -0.069920 0.000000
vn 0.997553 -0.069920 0.000000
vn 0.997553 -0.069920 0.000000
vn 0.997553 -0.069920 0.000000
vn 0.000000 0.000000 -1.000000
vn 0.000000 0.000000 -1.000000
vn 0.000000 0.000000 -1.000000
vn 0.000000 0.000000 -1.000000
vn -0.997976 0.063596 0.000000
vn -0.997976 0.063596 0.000000
vn -0.997976 0.063596 0.000000
vn -0.997976 0.063596 0.000000
vn 0.000000 -1.000000 0.000000
vn 0.000000 -1.000000 0.000000
vn 0.000000 -1.000000 0.000000
vn 0.000000 -1.000000 0.000000
vn -0.000000 0.000000 1.000000
vn -0.000000 0.000000 1.000000
vn -0.000000 0.000000 1.000000
vn -0.000000 0.000000 1.000000
vn 0.566941 -0.823758 0.000000
vn 0.566941 -0.823758 0.000000
vn 0.566941 -0.823758 0.000000
vn 0.566941 -0.823758 0.000000
vn 0.000000 0.000000 -1.000000
vn 0.000000 0.000000 -1.000000
vn 0.000000 0.000000 -1.000000
vn 0.000000 0.000000 -1.000000
vn -0.539506 0.841982 0.000000
vn -0.539506 0.841982 0.000000
vn -0.539506 0.841982 0.000000
vn -0.539506 0.841982 0.000000
s off
f 1/1/1 3/3/2 4/95/3 2/2/4
f 3/96/5 5/5/6 6/93/7 4/4/8
f 5/94/9 7/7/10 8/91/11 6/6/12
f 7/92/13 1/9/14 2/10/15 8/8/16
f 9/60/17 10/12/18 12/61/19 11/90/20
f 11/14/21 12/15/22 14/88/23 13/89/24
f 13/16/25 14/87/26 16/17/27 15/86/28
f 15/18/29 16/85/30 10/19/31 9/20/32
f 10/59/33 16/21/34 14/22/35 12/13/36
f 15/23/37 9/11/38 11/62/39 13/24/40
f 17/25/41 18/26/42 20/82/43 19/84/44
f 19/28/45 20/83/46 22/29/47 21/81/48
f 21/30/49 22/80/50 24/31/51 23/79/52
f 23/32/53 24/77/54 18/33/55 17/34/56
f 18/78/57 24/35/58 22/36/59 20/27/60
f 25/37/61 26/38/62 28/74/63 27/76/64
f 27/40/65 28/75/66 30/41/67 29/73/68
f 29/42/69 30/72/70 32/43/71 31/71/72
f 31/44/73 32/69/74 26/45/75 25/46/76
f 26/70/77 32/47/78 30/48/79 28/39/80
f 33/49/81 34/50/82 36/51/83 35/68/84
f 35/52/85 36/67/86 38/53/87 37/66/88
f 37/54/89 38/65/90 40/55/91 39/64/92
f 39/56/93 40/63/94 34/57/95 33/58/96
