# This file uses meters as units for non-parametric coordinates.

v -17.875891 -4.358232 6.456059
v 18.362951 -4.358232 -0.804950
v -17.875891 4.358232 6.456059
v 18.362951 4.358232 -0.804950
v -19.944431 4.358232 -2.011439
v 18.362951 4.358232 -9.521449
v -19.944431 -4.358232 -2.011439
v 18.362951 -4.358232 -9.521449
v 31.656551 -7.484838 -12.648043
v 31.656551 -7.484838 2.321644
v 31.656551 7.484838 -12.648043
v 31.656551 7.484838 2.321644
v -33.600121 -7.484838 -1.894009
v -30.047619 -7.484838 12.648043
v -30.047619 7.484838 12.648043
v -33.600121 7.484838 -1.894009
v 37.513634 3.928140 -5.163199
v -37.513634 3.928140 6.766979
vt 0.005461 0.240905
vt 0.005461 0.240905
vt 0.005461 0.240905
vt 0.005461 0.240905
vt 0.005461 0.240905
vt 0.005461 0.240905
vt 0.005461 0.240905
vt 0.005461 0.240905
vt 0.005461 0.240905
vt 0.005461 0.240905
vt 0.005461 0.240905
vt 0.005461 0.240905
vt 0.005461 0.240905
vt 0.005461 0.240905
vt 0.005461 0.240905
vt 0.005461 0.240905
vt 0.005461 0.240905
vt 0.005461 0.240905
vt 0.005461 0.240905
vt 0.005461 0.240905
vt 0.005461 0.240905
vt 0.005461 0.240905
vt 0.005461 0.240905
vt 0.005461 0.240905
vn 0.196461 0.000000 0.980512
vn 0.196461 0.000000 0.980512
vn 0.196461 0.000000 0.980512
vn 0.196461 0.000000 0.980512
vn 0.000000 1.000000 -0.000000
vn 0.000000 1.000000 -0.000000
vn 0.000000 1.000000 -0.000000
vn 0.000000 1.000000 -0.000000
vn -0.192384 0.000000 -0.981320
vn -0.192384 0.000000 -0.981320
vn -0.192384 0.000000 -0.981320
vn -0.192384 0.000000 -0.981320
vn 0.000000 -1.000000 -0.000000
vn 0.000000 -1.000000 -0.000000
vn 0.000000 -1.000000 -0.000000
vn 0.000000 -1.000000 -0.000000
vn -0.228949 -0.973438 0.000000
vn -0.228949 -0.973438 0.000000
vn -0.228949 -0.973438 0.000000
vn -0.228949 -0.973438 0.000000
vn -0.228948 0.000000 -0.973439
vn -0.228948 0.000000 -0.973439
vn -0.228948 0.000000 -0.973439
vn -0.228948 0.000000 -0.973439
vn -0.228949 0.973438 0.000000
vn -0.228949 0.973438 0.000000
vn -0.228949 0.973438 0.000000
vn -0.228949 0.973438 0.000000
vn -0.228948 0.000000 0.973439
vn -0.228948 0.000000 0.973439
vn -0.228948 0.000000 0.973439
vn -0.228948 0.000000 0.973439
vn 0.222411 -0.973438 -0.054333
vn 0.222411 -0.973438 -0.054333
vn 0.222411 -0.973438 -0.054333
vn 0.222411 -0.973438 -0.054333
vn 0.453419 0.000000 0.891297
vn 0.453419 0.000000 0.891297
vn 0.453419 0.000000 0.891297
vn 0.453419 0.000000 0.891297
vn 0.222411 0.973438 -0.054333
vn 0.222411 0.973438 -0.054333
vn 0.222411 0.973438 -0.054333
vn 0.222411 0.973438 -0.054333
vn -0.008599 0.000000 -0.999963
vn -0.008599 0.000000 -0.999963
vn -0.008599 0.000000 -0.999963
vn -0.008599 0.000000 -0.999963
vn 0.889682 -0.456580 0.000000
vn 0.889682 -0.456580 0.000000
vn 0.889682 -0.456580 0.000000
vn 0.787537 0.000000 -0.616268
vn 0.787537 0.000000 -0.616268
vn 0.787537 0.000000 -0.616268
vn 0.519043 0.854748 0.000000
vn 0.519043 0.854748 0.000000
vn 0.519043 0.854748 0.000000
vn 0.787537 0.000000 0.616268
vn 0.787537 0.000000 0.616268
vn 0.787537 0.000000 0.616268
vn -0.864267 -0.456580 0.211133
vn -0.864267 -0.456580 0.211133
vn -0.864267 -0.456580 0.211133
vn -0.618791 0.000000 0.785556
vn -0.618791 0.000000 0.785556
vn -0.618791 0.000000 0.785556
vn -0.504216 0.854748 0.123176
vn -0.504216 0.854748 0.123176
vn -0.504216 0.854748 0.123176
vn -0.911288 0.000000 -0.411770
vn -0.911288 0.000000 -0.411770
vn -0.911288 0.000000 -0.411770
s off
f 1/1/1 2/2/2 4/4/3 3/3/4
f 3/3/5 4/4/6 6/6/7 5/5/8
f 5/5/9 6/6/10 8/8/11 7/7/12
f 7/7/13 8/8/14 2/10/15 1/9/16
f 2/2/17 8/11/18 9/16/19 10/15/20
f 8/11/21 6/12/22 11/17/23 9/16/24
f 6/12/25 4/4/26 12/18/27 11/17/28
f 4/4/29 2/2/30 10/15/31 12/18/32
f 7/13/33 1/1/34 14/20/35 13/19/36
f 1/1/37 3/3/38 15/21/39 14/20/40
f 3/3/41 5/14/42 16/22/43 15/21/44
f 5/14/45 7/13/46 13/19/47 16/22/48
f 10/15/49 9/16/50 17/23/51
f 9/16/52 11/17/53 17/23/54
f 11/17/55 12/18/56 17/23/57
f 12/18/58 10/15/59 17/23/60
f 13/19/61 14/20/62 18/24/63
f 14/20/64 15/21/65 18/24/66
f 15/21/67 16/22/68 18/24/69
f 16/22/70 13/19/71 18/24/72
