# This file uses meters as units for non-parametric coordinates.

v -24.993408 6.602160 0.752411
v 24.993408 6.602160 0.752411
v -24.481201 0.000000 0.000000
v 24.480957 0.000000 0.000000
v 24.993408 6.602160 12.790955
v -24.993408 6.602160 12.790955
v -24.481201 0.000000 36.868225
v 24.480957 0.000000 36.868225
v -25.584473 14.217488 25.118866
v -25.584473 14.217488 13.369598
v 25.584473 14.217488 25.118866
v 25.584473 14.217488 13.369598
v 26.211426 22.294935 25.425751
v 26.211426 22.294935 36.868225
v -26.211426 22.294935 36.868225
v -8.567627 14.217488 16.090637
v -7.558594 12.148380 13.212402
v -22.132080 22.294935 25.425751
v -25.902832 18.318939 25.274689
v -26.211426 22.294935 27.605408
vt 0.195727 0.199450
vt 0.195834 0.201452
vt 0.195834 0.201533
vt 0.195727 0.199531
vt 0.196234 0.199424
vt 0.196340 0.201425
vt 0.196234 0.199505
vt 0.196340 0.201507
vt 0.198329 0.199743
vt 0.198329 0.199465
vt 0.198672 0.200039
vt 0.198672 0.200316
vt 0.197111 0.201119
vt 0.197111 0.200842
vt 0.196769 0.200268
vt 0.196769 0.200546
vt 0.195834 0.201452
vt 0.195834 0.201533
vt 0.195727 0.199531
vt 0.196234 0.199424
vt 0.196340 0.201425
vt 0.196234 0.199505
vt 0.196340 0.201507
vt 0.197810 0.200010
vt 0.197781 0.199950
vt 0.195736 0.199606
vt 0.195727 0.199490
vt 0.195824 0.199445
vt 0.451660 0.278410
vt 0.451660 0.278410
vt 0.451660 0.278410
vt 0.451660 0.278410
vt 0.451660 0.278410
vt 0.451660 0.278410
vt 0.451660 0.278410
vt 0.451660 0.278410
vt 0.451660 0.278410
vt 0.451660 0.278410
vt 0.451660 0.278410
vt 0.451660 0.278410
vt 0.451660 0.278410
vt 0.451660 0.278410
vn 0.000000 0.113233 -0.993569
vn 0.000000 0.113233 -0.993569
vn 0.000000 0.113233 -0.993569
vn 0.000000 0.113233 -0.993569
vn 0.000000 1.000000 0.000000
vn 0.000000 1.000000 0.000000
vn 0.000000 1.000000 0.000000
vn 0.000000 1.000000 0.000000
vn -0.997002 -0.077377 0.000000
vn -0.997002 -0.077377 0.000000
vn -0.997002 -0.077377 0.000000
vn 0.000000 -1.000000 -0.000000
vn 0.000000 -1.000000 -0.000000
vn 0.000000 -1.000000 -0.000000
vn 0.000000 -1.000000 -0.000000
vn 0.997002 -0.077377 0.000000
vn 0.997002 -0.077377 0.000000
vn 0.997002 -0.077377 0.000000
vn -0.997002 -0.077378 0.000000
vn -0.997002 -0.077378 0.000000
vn -0.997002 -0.077378 0.000000
vn 0.997002 -0.077378 0.000000
vn 0.997002 -0.077378 0.000000
vn 0.997002 -0.077378 0.000000
vn 0.089617 0.823322 -0.560455
vn 0.089617 0.823322 -0.560455
vn 0.089617 0.823322 -0.560455
vn 0.000000 1.000000 -0.000000
vn 0.000000 1.000000 -0.000000
vn 0.000000 1.000000 -0.000000
vn -0.424780 0.433053 -0.795001
vn -0.424780 0.433053 -0.795001
vn -0.424780 0.433053 -0.795001
vn 0.997002 -0.077378 0.000000
vn 0.997002 -0.077378 0.000000
vn 0.997002 -0.077378 0.000000
vn 0.000000 0.000000 1.000000
vn 0.000000 0.000000 1.000000
vn 0.000000 0.000000 1.000000
vn 0.000000 0.000000 1.000000
vn 0.997002 -0.077378 -0.000000
vn 0.997002 -0.077378 -0.000000
vn 0.997002 -0.077378 -0.000000
vn -0.997002 -0.077378 -0.000000
vn -0.997002 -0.077378 -0.000000
vn -0.997002 -0.077378 -0.000000
vn -0.997002 -0.077377 0.000000
vn -0.997002 -0.077377 0.000000
vn -0.997002 -0.077377 0.000000
vn -0.997002 -0.077378 0.000000
vn -0.997002 -0.077378 0.000000
vn -0.997002 -0.077378 0.000000
vn 0.997002 -0.077377 0.000000
vn 0.997002 -0.077377 0.000000
vn 0.997002 -0.077377 0.000000
vn 0.997002 -0.077377 0.000000
vn 0.997002 -0.077377 0.000000
vn 0.997002 -0.077377 0.000000
vn -0.047321 0.803118 -0.593938
vn -0.047321 0.803118 -0.593938
vn -0.047321 0.803118 -0.593938
vn 0.000000 1.000000 0.000000
vn 0.000000 1.000000 0.000000
vn 0.000000 1.000000 0.000000
vn -0.000000 1.000000 0.000000
vn -0.000000 1.000000 0.000000
vn -0.000000 1.000000 0.000000
vn 0.000000 0.075758 -0.997126
vn 0.000000 0.075758 -0.997126
vn 0.000000 0.075758 -0.997126
vn 0.000000 0.075758 -0.997126
vn 0.000000 0.075758 -0.997126
vn 0.000000 0.075758 -0.997126
vn 0.000000 0.075758 -0.997126
vn 0.000000 0.075758 -0.997126
vn 0.000000 0.075758 -0.997126
vn 0.000000 0.037960 -0.999279
vn 0.000000 0.037960 -0.999279
vn 0.000000 0.037960 -0.999279
vn 0.000000 0.037960 -0.999279
vn 0.000000 0.037960 -0.999279
vn -0.997002 -0.077377 -0.000000
vn -0.997002 -0.077377 -0.000000
vn -0.997002 -0.077377 -0.000000
vn -0.997002 -0.077377 -0.000000
vn 0.000000 1.000000 -0.000000
vn 0.000000 1.000000 -0.000000
vn 0.000000 1.000000 -0.000000
vn 0.000000 1.000000 -0.000000
vn 0.000000 1.000000 -0.000000
s off
f 1/1/1 2/2/2 4/3/3 3/4/4
f 6/29/5 5/30/6 2/31/7 1/32/8
f 3/4/9 6/5/10 1/1/11
f 3/4/12 4/3/13 8/8/14 7/7/15
f 5/6/16 4/3/17 2/2/18
f 10/9/19 6/10/20 9/12/21
f 11/13/22 5/15/23 12/16/24
f 17/25/25 10/9/26 16/24/27
f 16/33/28 9/34/29 11/35/30
f 18/26/31 19/27/32 20/28/33
f 14/21/34 8/23/35 11/18/36
f 8/23/37 14/21/38 15/20/39 7/22/40
f 11/13/41 8/14/42 5/15/43
f 9/12/44 6/10/45 7/11/46
f 3/4/47 7/7/48 6/5/49
f 9/19/50 7/22/51 15/20/52
f 5/6/53 8/8/54 4/3/55
f 14/21/56 11/18/57 13/17/58
f 12/16/59 17/25/60 16/24/61
f 10/36/62 9/34/63 16/33/64
f 16/33/65 11/35/66 12/37/67
f 5/15/68 17/25/69 12/16/70
f 6/10/71 17/25/72 5/15/73
f 6/10/74 10/9/75 17/25/76
f 19/27/77 18/26/78 13/17/79 11/18/80 9/19/81
f 9/19/82 15/20/83 20/28/84 19/27/85
f 15/38/86 14/39/87 13/40/88 18/41/89 20/42/90
