# This file uses meters as units for non-parametric coordinates.

v 9.629639 113.906258 0.509033
v 9.629639 0.000000 0.509033
v 15.070557 113.906258 0.509033
v 15.070557 0.000000 0.509033
v 15.070557 113.906258 -4.061951
v 15.070557 0.000000 -4.061951
v 9.629639 113.906258 -4.061951
v 9.629639 0.000000 -4.061951
v 14.118164 86.943321 4.544922
v -19.487305 84.700485 4.544922
v 14.117920 86.943321 0.694275
v -19.487305 84.700485 0.694275
v 13.705811 93.388710 0.694275
v -19.899414 91.145889 0.694275
v 13.705811 93.388710 4.544922
v -19.899414 91.145889 4.544922
v 17.571777 68.930542 4.544922
v -19.334229 68.930542 4.544922
v 17.571777 68.930542 0.694275
v -19.334229 68.930542 0.694275
v 17.571777 76.337120 0.694275
v -19.334229 76.337128 0.694275
v 17.571777 76.337120 4.544922
v -19.334229 76.337128 4.544922
v 18.264160 49.222767 4.544922
v -17.835693 53.556679 4.544922
v 18.264160 49.222767 0.694275
v -17.835693 53.556679 0.694275
v 19.060547 55.632038 0.694275
v -17.039307 59.965954 0.694275
v 19.060547 55.632034 4.544922
v -17.039307 59.965954 4.544922
v 17.571777 30.782700 4.544922
v -13.858643 30.782700 4.544922
v 17.571777 30.782700 0.694275
v -13.858643 30.782700 0.694275
v 17.571777 36.379936 0.694275
v -13.858643 36.379944 0.694275
v 17.571777 36.379936 4.544922
v -13.858643 36.379944 4.544922
v 17.775391 12.549417 4.544922
v -17.252686 9.706206 4.544922
v 17.775391 12.549417 0.694275
v -17.252686 9.706205 0.694275
v 17.252686 18.986811 0.694275
v -17.775391 16.143606 0.694275
v 17.252686 18.986811 4.544922
v -17.775391 16.143606 4.544922
v -15.170898 113.906258 0.694275
v -15.170898 0.000000 0.694275
v -9.729980 113.906258 0.694275
v -9.729980 0.000000 0.694275
v -9.729980 113.906258 -3.876709
v -9.729980 0.000000 -3.876709
v -15.170898 113.906258 -3.876709
v -15.170898 0.000000 -3.876709
v 17.571777 100.212151 4.544922
v -17.571777 100.212151 4.544922
v 17.571777 100.212151 0.694275
v -17.571777 100.212151 0.694275
v 17.571777 106.670715 0.694275
v -17.571777 106.670723 0.694275
v 17.571777 106.670715 4.544922
v -17.571777 106.670723 4.544922
vt 0.044828 0.195666
vt 0.044830 0.195666
vt 0.044830 0.195631
vt 0.044828 0.195631
vt 0.044830 0.195596
vt 0.044828 0.195596
vt 0.044830 0.195561
vt 0.044828 0.195561
vt 0.044830 0.195526
vt 0.044828 0.195526
vt 0.044832 0.195666
vt 0.044832 0.195631
vt 0.444580 0.283607
vt 0.444580 0.283607
vt 0.044828 0.195666
vt 0.044830 0.195666
vt 0.044830 0.195631
vt 0.044828 0.195631
vt 0.044830 0.195596
vt 0.044828 0.195596
vt 0.044830 0.195561
vt 0.044828 0.195561
vt 0.044830 0.195526
vt 0.044828 0.195526
vt 0.044832 0.195666
vt 0.044832 0.195631
vt 0.044826 0.195666
vt 0.044826 0.195631
vt 0.044828 0.195666
vt 0.044830 0.195666
vt 0.044830 0.195631
vt 0.044828 0.195631
vt 0.044830 0.195596
vt 0.044828 0.195596
vt 0.044830 0.195561
vt 0.044828 0.195561
vt 0.044830 0.195526
vt 0.044828 0.195526
vt 0.044832 0.195666
vt 0.044832 0.195631
vt 0.044826 0.195666
vt 0.044826 0.195631
vt 0.044828 0.195666
vt 0.044830 0.195666
vt 0.044830 0.195631
vt 0.044828 0.195631
vt 0.044830 0.195596
vt 0.044828 0.195596
vt 0.044830 0.195561
vt 0.044828 0.195561
vt 0.044830 0.195526
vt 0.044828 0.195526
vt 0.044832 0.195666
vt 0.044832 0.195631
vt 0.044826 0.195666
vt 0.044826 0.195631
vt 0.044828 0.195666
vt 0.044830 0.195666
vt 0.044830 0.195631
vt 0.044828 0.195631
vt 0.044830 0.195596
vt 0.044828 0.195596
vt 0.044830 0.195561
vt 0.044828 0.195561
vt 0.044830 0.195526
vt 0.044828 0.195526
vt 0.044832 0.195666
vt 0.044832 0.195631
vt 0.044826 0.195666
vt 0.044826 0.195631
vt 0.044828 0.195666
vt 0.044830 0.195666
vt 0.044830 0.195631
vt 0.044828 0.195631
vt 0.044830 0.195596
vt 0.044828 0.195596
vt 0.044830 0.195561
vt 0.044828 0.195561
vt 0.044830 0.195526
vt 0.044828 0.195526
vt 0.044832 0.195666
vt 0.044832 0.195631
vt 0.044826 0.195666
vt 0.044826 0.195631
vt 0.044828 0.195666
vt 0.044830 0.195666
vt 0.044830 0.195631
vt 0.044828 0.195631
vt 0.044830 0.195596
vt 0.044828 0.195596
vt 0.044830 0.195561
vt 0.044828 0.195561
vt 0.044830 0.195526
vt 0.044828 0.195526
vt 0.044832 0.195666
vt 0.044832 0.195631
vt 0.444580 0.283607
vt 0.444580 0.283607
vt 0.044828 0.195666
vt 0.044830 0.195666
vt 0.044830 0.195631
vt 0.044828 0.195631
vt 0.044830 0.195596
vt 0.044828 0.195596
vt 0.044830 0.195561
vt 0.044828 0.195561
vt 0.044830 0.195526
vt 0.044828 0.195526
vt 0.044832 0.195666
vt 0.044832 0.195631
vt 0.044826 0.195666
vt 0.044826 0.195631
vt 0.444580 0.283607
vt 0.444580 0.283607
vt 0.444580 0.283607
vt 0.444580 0.283607
vt 0.444580 0.283607
vt 0.444580 0.283607
vt 0.444580 0.283607
vt 0.444580 0.283607
vt 0.444580 0.283607
vt 0.444580 0.283607
vt 0.444580 0.283607
vt 0.444580 0.283607
vt 0.444580 0.283607
vt 0.444580 0.283607
vt 0.444580 0.283607
vt 0.444580 0.283607
vt 0.444580 0.283607
vt 0.444580 0.283607
vt 0.444580 0.283607
vt 0.444580 0.283607
vt 0.444580 0.283607
vt 0.444580 0.283607
vt 0.444580 0.283607
vt 0.444580 0.283607
vt 0.444580 0.283607
vt 0.444580 0.283607
vt 0.444580 0.283607
vt 0.444580 0.283607
vn 0.000000 0.000000 1.000000
vn 0.000000 0.000000 1.000000
vn 0.000000 0.000000 1.000000
vn 0.000000 0.000000 1.000000
vn 1.000000 0.000000 0.000000
vn 1.000000 0.000000 0.000000
vn 1.000000 0.000000 0.000000
vn 1.000000 0.000000 0.000000
vn 0.000000 0.000000 -1.000000
vn 0.000000 0.000000 -1.000000
vn 0.000000 0.000000 -1.000000
vn 0.000000 0.000000 -1.000000
vn -1.000000 0.000000 0.000000
vn -1.000000 0.000000 0.000000
vn -1.000000 0.000000 0.000000
vn -1.000000 0.000000 0.000000
vn 0.000000 -1.000000 0.000000
vn 0.000000 -1.000000 0.000000
vn 0.000000 -1.000000 0.000000
vn 0.000000 -1.000000 0.000000
vn 0.000000 1.000000 0.000000
vn 0.000000 1.000000 0.000000
vn 0.000000 1.000000 0.000000
vn 0.000000 1.000000 0.000000
vn 0.066592 -0.997780 -0.000002
vn 0.066592 -0.997780 -0.000002
vn 0.066592 -0.997780 -0.000002
vn 0.066592 -0.997780 -0.000002
vn 0.000000 0.000000 -1.000000
vn 0.000000 0.000000 -1.000000
vn 0.000000 0.000000 -1.000000
vn 0.000000 0.000000 -1.000000
vn -0.066592 0.997780 0.000000
vn -0.066592 0.997780 0.000000
vn -0.066592 0.997780 0.000000
vn -0.066592 0.997780 0.000000
vn 0.000000 0.000000 1.000000
vn 0.000000 0.000000 1.000000
vn 0.000000 0.000000 1.000000
vn 0.000000 0.000000 1.000000
vn -0.997962 -0.063808 0.000000
vn -0.997962 -0.063808 0.000000
vn -0.997962 -0.063808 0.000000
vn -0.997962 -0.063808 0.000000
vn 0.997961 0.063827 -0.000032
vn 0.997961 0.063827 -0.000032
vn 0.997961 0.063827 -0.000032
vn 0.997961 0.063827 -0.000032
vn 0.000000 -1.000000 0.000000
vn 0.000000 -1.000000 0.000000
vn 0.000000 -1.000000 0.000000
vn 0.000000 -1.000000 0.000000
vn 0.000000 0.000000 -1.000000
vn 0.000000 0.000000 -1.000000
vn 0.000000 0.000000 -1.000000
vn 0.000000 0.000000 -1.000000
vn 0.000000 1.000000 0.000000
vn 0.000000 1.000000 0.000000
vn 0.000000 1.000000 0.000000
vn 0.000000 1.000000 0.000000
vn 0.000000 0.000000 1.000000
vn 0.000000 0.000000 1.000000
vn 0.000000 0.000000 1.000000
vn 0.000000 0.000000 1.000000
vn -1.000000 0.000000 0.000000
vn -1.000000 0.000000 0.000000
vn -1.000000 0.000000 0.000000
vn -1.000000 0.000000 0.000000
vn 1.000000 0.000000 0.000000
vn 1.000000 0.000000 0.000000
vn 1.000000 0.000000 0.000000
vn 1.000000 0.000000 0.000000
vn -0.119198 -0.992871 0.000000
vn -0.119198 -0.992871 0.000000
vn -0.119198 -0.992871 0.000000
vn -0.119198 -0.992871 0.000000
vn 0.000000 0.000000 -1.000000
vn 0.000000 0.000000 -1.000000
vn 0.000000 0.000000 -1.000000
vn 0.000000 0.000000 -1.000000
vn 0.119198 0.992871 0.000000
vn 0.119198 0.992871 0.000000
vn 0.119198 0.992871 0.000000
vn 0.119198 0.992871 0.000000
vn 0.000000 0.000000 1.000000
vn 0.000000 0.000000 1.000000
vn 0.000000 0.000000 1.000000
vn 0.000000 0.000000 1.000000
vn -0.992369 0.123307 0.000000
vn -0.992369 0.123307 0.000000
vn -0.992369 0.123307 0.000000
vn -0.992369 0.123307 0.000000
vn 0.992369 -0.123307 -0.000000
vn 0.992369 -0.123307 -0.000000
vn 0.992369 -0.123307 -0.000000
vn 0.992369 -0.123307 -0.000000
vn 0.000000 -1.000000 0.000000
vn 0.000000 -1.000000 0.000000
vn 0.000000 -1.000000 0.000000
vn 0.000000 -1.000000 0.000000
vn 0.000000 0.000000 -1.000000
vn 0.000000 0.000000 -1.000000
vn 0.000000 0.000000 -1.000000
vn 0.000000 0.000000 -1.000000
vn 0.000000 1.000000 0.000000
vn 0.000000 1.000000 0.000000
vn 0.000000 1.000000 0.000000
vn 0.000000 1.000000 0.000000
vn 0.000000 0.000000 1.000000
vn 0.000000 0.000000 1.000000
vn 0.000000 0.000000 1.000000
vn 0.000000 0.000000 1.000000
vn -1.000000 0.000000 0.000000
vn -1.000000 0.000000 0.000000
vn -1.000000 0.000000 0.000000
vn -1.000000 0.000000 0.000000
vn 1.000000 0.000000 0.000000
vn 1.000000 0.000000 0.000000
vn 1.000000 0.000000 0.000000
vn 1.000000 0.000000 0.000000
vn 0.080903 -0.996722 0.000000
vn 0.080903 -0.996722 0.000000
vn 0.080903 -0.996722 0.000000
vn 0.080903 -0.996722 0.000000
vn 0.000000 0.000000 -1.000000
vn 0.000000 0.000000 -1.000000
vn 0.000000 0.000000 -1.000000
vn 0.000000 0.000000 -1.000000
vn -0.080903 0.996722 0.000000
vn -0.080903 0.996722 0.000000
vn -0.080903 0.996722 0.000000
vn -0.080903 0.996722 0.000000
vn -0.000000 0.000000 1.000000
vn -0.000000 0.000000 1.000000
vn -0.000000 0.000000 1.000000
vn -0.000000 0.000000 1.000000
vn -0.996720 -0.080932 0.000000
vn -0.996720 -0.080932 0.000000
vn -0.996720 -0.080932 0.000000
vn -0.996720 -0.080932 0.000000
vn 0.996720 0.080932 0.000000
vn 0.996720 0.080932 0.000000
vn 0.996720 0.080932 0.000000
vn 0.996720 0.080932 0.000000
vn 0.000000 0.000000 1.000000
vn 0.000000 0.000000 1.000000
vn 0.000000 0.000000 1.000000
vn 0.000000 0.000000 1.000000
vn 1.000000 0.000000 0.000000
vn 1.000000 0.000000 0.000000
vn 1.000000 0.000000 0.000000
vn 1.000000 0.000000 0.000000
vn 0.000000 0.000000 -1.000000
vn 0.000000 0.000000 -1.000000
vn 0.000000 0.000000 -1.000000
vn 0.000000 0.000000 -1.000000
vn -1.000000 0.000000 0.000000
vn -1.000000 0.000000 0.000000
vn -1.000000 0.000000 0.000000
vn -1.000000 0.000000 0.000000
vn 0.000000 -1.000000 0.000000
vn 0.000000 -1.000000 0.000000
vn 0.000000 -1.000000 0.000000
vn 0.000000 -1.000000 0.000000
vn 0.000000 1.000000 0.000000
vn 0.000000 1.000000 0.000000
vn 0.000000 1.000000 0.000000
vn 0.000000 1.000000 0.000000
vn 0.000000 -1.000000 0.000000
vn 0.000000 -1.000000 0.000000
vn 0.000000 -1.000000 0.000000
vn 0.000000 -1.000000 0.000000
vn 0.000000 0.000000 -1.000000
vn 0.000000 0.000000 -1.000000
vn 0.000000 0.000000 -1.000000
vn 0.000000 0.000000 -1.000000
vn 0.000000 1.000000 0.000000
vn 0.000000 1.000000 0.000000
vn 0.000000 1.000000 0.000000
vn 0.000000 1.000000 0.000000
vn 0.000000 0.000000 1.000000
vn 0.000000 0.000000 1.000000
vn 0.000000 0.000000 1.000000
vn 0.000000 0.000000 1.000000
vn -1.000000 0.000000 0.000000
vn -1.000000 0.000000 0.000000
vn -1.000000 0.000000 0.000000
vn -1.000000 0.000000 0.000000
vn 1.000000 0.000000 0.000000
vn 1.000000 0.000000 0.000000
vn 1.000000 0.000000 0.000000
vn 1.000000 0.000000 0.000000
s off
f 1/1/1 2/2/2 4/3/3 3/4/4
f 3/4/5 4/3/6 6/5/7 5/6/8
f 5/6/9 6/5/10 8/7/11 7/8/12
f 7/8/13 8/7/14 2/9/15 1/10/16
f 2/2/17 8/11/18 6/12/19 4/3/20
f 7/13/21 1/14/22 3/97/23 5/98/24
f 9/15/25 10/16/26 12/17/27 11/18/28
f 11/18/29 12/17/30 14/19/31 13/20/32
f 13/113/33 14/114/34 16/115/35 15/116/36
f 15/22/37 16/21/38 10/23/39 9/24/40
f 10/16/41 16/25/42 14/26/43 12/17/44
f 15/27/45 9/15/46 11/18/47 13/28/48
f 17/29/49 18/30/50 20/31/51 19/32/52
f 19/32/53 20/31/54 22/33/55 21/34/56
f 21/117/57 22/118/58 24/119/59 23/120/60
f 23/36/61 24/35/62 18/37/63 17/38/64
f 18/30/65 24/39/66 22/40/67 20/31/68
f 23/41/69 17/29/70 19/32/71 21/42/72
f 25/43/73 26/44/74 28/45/75 27/46/76
f 27/46/77 28/45/78 30/47/79 29/48/80
f 29/121/81 30/122/82 32/123/83 31/124/84
f 31/50/85 32/49/86 26/51/87 25/52/88
f 26/44/89 32/53/90 30/54/91 28/45/92
f 31/55/93 25/43/94 27/46/95 29/56/96
f 33/57/97 34/58/98 36/59/99 35/60/100
f 35/60/101 36/59/102 38/61/103 37/62/104
f 37/125/105 38/126/106 40/127/107 39/128/108
f 39/64/109 40/63/110 34/65/111 33/66/112
f 34/58/113 40/67/114 38/68/115 36/59/116
f 39/69/117 33/57/118 35/60/119 37/70/120
f 41/71/121 42/72/122 44/73/123 43/74/124
f 43/74/125 44/73/126 46/75/127 45/76/128
f 45/129/129 46/130/130 48/131/131 47/132/132
f 47/78/133 48/77/134 42/79/135 41/80/136
f 42/72/137 48/81/138 46/82/139 44/73/140
f 47/83/141 41/71/142 43/74/143 45/84/144
f 49/85/145 50/86/146 52/87/147 51/88/148
f 51/88/149 52/87/150 54/89/151 53/90/152
f 53/90/153 54/89/154 56/91/155 55/92/156
f 55/92/157 56/91/158 50/93/159 49/94/160
f 50/86/161 56/95/162 54/96/163 52/87/164
f 55/133/165 49/134/166 51/135/167 53/136/168
f 57/99/169 58/100/170 60/101/171 59/102/172
f 59/102/173 60/101/174 62/103/175 61/104/176
f 61/137/177 62/138/178 64/139/179 63/140/180
f 63/106/181 64/105/182 58/107/183 57/108/184
f 58/100/185 64/109/186 62/110/187 60/101/188
f 63/111/189 57/99/190 59/102/191 61/112/192
