# This file uses meters as units for non-parametric coordinates.

v 2.870805 0.000000 -12.786770
v -12.160938 0.000000 -7.902658
v -12.160938 0.000000 7.902669
v 2.870805 0.000000 12.786770
v 12.160935 0.000000 0.000000
v 2.870805 3.173765 -12.786770
v -12.160938 3.173765 -7.902658
v -12.160938 3.173765 7.902669
v 2.870805 3.173765 12.786770
v 12.160935 3.173765 0.000000
v -1.283853 0.000000 0.000000
v -1.283853 3.173765 0.000000
v 1.680799 3.173765 -5.134960
v -7.213187 3.173765 0.000000
v 1.680798 3.173765 5.134944
v -1.283853 8.033597 0.000000
vt 0.065716 0.156648
vt 0.065716 0.156648
vt 0.065716 0.156648
vt 0.065716 0.156648
vt 0.065716 0.156648
vt 0.065716 0.156648
vt 0.065716 0.156648
vt 0.065716 0.156648
vt 0.065716 0.156648
vt 0.065716 0.156648
vt 0.065716 0.156648
vt 0.065716 0.156648
vt 0.065716 0.156648
vt 0.065716 0.156648
vt 0.065716 0.156648
vt 0.065716 0.156648
vt 0.065716 0.156648
vt 0.598185 0.438337
vt 0.598185 0.438337
vt 0.598185 0.438337
vt 0.598185 0.438337
vt 0.598185 0.438337
vt 0.065716 0.156648
vt 0.598185 0.438337
vt 0.181670 0.108806
vt 0.181670 0.108806
vt 0.181670 0.108806
vt 0.181670 0.108806
vt 0.181755 0.284742
vt 0.181755 0.284742
vt 0.181755 0.284742
vt 0.181755 0.284742
vt 0.181755 0.284742
vn -0.309017 0.000000 -0.951056
vn -0.309017 0.000000 -0.951056
vn -0.309017 0.000000 -0.951056
vn -0.309017 0.000000 -0.951056
vn -1.000000 0.000000 0.000000
vn -1.000000 0.000000 0.000000
vn -1.000000 0.000000 0.000000
vn -1.000000 0.000000 0.000000
vn -0.309016 0.000000 0.951057
vn -0.309016 0.000000 0.951057
vn -0.309016 0.000000 0.951057
vn -0.309016 0.000000 0.951057
vn 0.809017 0.000000 0.587785
vn 0.809017 0.000000 0.587785
vn 0.809017 0.000000 0.587785
vn 0.809017 0.000000 0.587785
vn 0.809017 0.000000 -0.587785
vn 0.809017 0.000000 -0.587785
vn 0.809017 0.000000 -0.587785
vn 0.809017 0.000000 -0.587785
vn 0.000000 -1.000000 0.000000
vn 0.000000 -1.000000 0.000000
vn 0.000000 -1.000000 0.000000
vn 0.000000 -1.000000 0.000000
vn 0.000000 -1.000000 0.000000
vn 0.000000 -1.000000 0.000000
vn 0.000000 -1.000000 0.000000
vn 0.000000 -1.000000 0.000000
vn 0.000000 -1.000000 0.000000
vn 0.000000 -1.000000 0.000000
vn 0.000000 -1.000000 0.000000
vn 0.000000 -1.000000 0.000000
vn 0.000000 -1.000000 0.000000
vn 0.000000 -1.000000 0.000000
vn 0.000000 -1.000000 0.000000
vn 0.000000 1.000000 0.000000
vn 0.000000 1.000000 0.000000
vn 0.000000 1.000000 0.000000
vn 0.000000 1.000000 0.000000
vn 0.000000 1.000000 0.000000
vn 0.000000 1.000000 0.000000
vn 0.000000 1.000000 0.000000
vn 0.000000 1.000000 0.000000
vn 0.000000 1.000000 0.000000
vn 0.000000 1.000000 0.000000
vn 0.000000 1.000000 0.000000
vn 0.000000 1.000000 0.000000
vn 0.000000 1.000000 -0.000000
vn 0.000000 1.000000 -0.000000
vn 0.000000 1.000000 -0.000000
vn -0.426845 0.520781 -0.739318
vn -0.426845 0.520781 -0.739318
vn -0.426845 0.520781 -0.739318
vn -0.426845 0.520781 0.739318
vn -0.426845 0.520781 0.739318
vn -0.426845 0.520781 0.739318
vn 0.853691 0.520781 0.000000
vn 0.853691 0.520781 0.000000
vn 0.853691 0.520781 0.000000
s off
f 1/6/1 2/7/2 7/13/3 6/12/4
f 2/7/5 3/8/6 8/14/7 7/13/8
f 3/8/9 4/9/10 9/15/11 8/14/12
f 4/9/13 5/10/14 10/16/15 9/15/16
f 5/10/17 1/11/18 6/17/19 10/16/20
f 2/2/21 1/1/22 11/23/23
f 3/3/24 2/2/25 11/23/26
f 4/4/27 3/3/28 11/23/29
f 5/5/30 4/4/31 11/23/32
f 1/1/33 5/5/34 11/23/35
f 6/29/36 7/30/37 12/31/38
f 7/19/39 8/21/40 12/20/41
f 8/32/42 9/33/43 12/31/44
f 9/22/45 10/24/46 12/20/47
f 10/24/48 6/18/49 12/20/50
f 13/25/51 14/26/52 16/27/53
f 14/26/54 15/28/55 16/27/56
f 15/28/57 13/25/58 16/27/59
