# This file uses meters as units for non-parametric coordinates.

v -19.576200 5.201229 -0.682386
v 26.445707 5.201229 -0.682386
v -19.349480 0.000001 0.000000
v 26.193937 0.000001 0.000000
v 26.445707 5.201229 12.129275
v -19.576200 5.201229 12.129275
v -19.349480 0.000001 12.754758
v 26.193937 0.000001 12.754758
v -19.948706 13.748074 24.006590
v -19.718361 8.462921 24.584389
v -19.948706 13.748074 11.101468
v -19.718361 8.462921 11.736997
v 29.919115 8.462921 24.584389
v 30.209795 13.748074 24.006590
v 29.919115 8.462921 11.736997
v 30.209795 13.748074 11.101468
v -22.913074 22.294935 23.072115
v 27.273241 22.294935 23.072115
v -22.675577 17.408085 23.606428
v 27.036667 17.408085 23.606428
v 27.273241 22.294935 36.070698
v -22.913074 22.294935 36.070698
v -22.675577 17.408085 36.551601
v 27.036667 17.408085 36.551601
v -21.542231 30.841795 35.229683
v 30.461821 30.841795 35.229683
v -21.307119 25.640583 35.741489
v 30.182585 25.640583 35.741489
v 30.461821 30.841795 48.321724
v -21.542231 30.841795 48.321724
v -21.307119 25.640583 48.776691
v 30.182585 25.640583 48.776691
v -22.985205 39.388657 60.759670
v -22.735849 34.103458 61.164158
v -22.985205 39.388657 47.574169
v -22.735849 34.103458 48.036385
v 28.001341 34.103458 61.164158
v 28.258768 39.388657 60.759670
v 28.001341 34.103458 48.036385
v 28.258768 39.388657 47.574169
v -24.150785 47.935486 60.105579
v 28.523001 47.935486 60.105579
v -23.913351 43.048668 60.479546
v 28.286362 43.048668 60.479546
v 28.523001 47.935486 73.384476
v -24.150785 47.935486 73.384476
v -23.913351 43.048668 73.705040
v 28.286362 43.048668 73.705040
v 17.287382 5.201221 12.129275
v 24.555334 5.201221 12.129275
v 17.130789 0.000004 12.754758
v 24.323210 0.000004 12.754758
v 28.765615 99.531044 153.057602
v 20.127169 99.531044 153.057602
v 17.130789 0.000000 153.057602
v 24.323210 0.000000 153.057602
v -18.347677 5.201221 12.129275
v -11.079741 5.201221 12.129275
v -18.133736 0.000004 12.754758
v -10.941379 0.000004 12.754758
v -13.589287 99.531044 153.057602
v -22.227764 99.531044 153.057602
v -18.133736 0.000000 153.057602
v -10.941379 0.000000 153.057602
v -18.133736 0.000003 30.292702
v -21.715990 87.089668 153.057602
v 28.210321 87.089668 153.057602
v 24.323210 0.000003 30.292702
v -25.356039 56.796711 72.803116
v 25.412687 56.796711 72.803116
v -25.096067 51.595497 73.144402
v 25.194168 51.595497 73.144402
v 25.412687 56.796711 86.178970
v -25.356039 56.796711 86.178970
v -25.096067 51.595497 86.463165
v 25.194168 51.595497 86.463165
v -25.783285 65.343597 99.180855
v -25.519117 60.058403 99.412025
v -25.783285 65.343597 85.711540
v -25.519117 60.058403 86.000443
v 29.205004 60.058403 99.412025
v 29.461861 65.343597 99.180855
v 29.205004 60.058403 86.000443
v 29.461861 65.343597 85.711540
v -29.060808 73.890434 98.807144
v 26.130867 73.890434 98.807144
v -28.792063 69.003548 99.020767
v 25.925573 69.003548 99.020767
v 26.130867 73.890434 112.369789
v -29.060808 73.890434 112.369789
v -28.792063 69.003548 112.530136
v 25.925573 69.003548 112.530136
v -27.569452 82.437263 112.089409
v 29.537010 82.437263 112.089409
v -27.301025 77.236046 112.260056
v 29.291025 77.236046 112.260056
v 29.537010 82.437263 125.745392
v -27.569452 82.437263 125.745392
v -27.301025 77.236046 125.859322
v 29.291025 77.236046 125.859322
v -29.169083 90.984215 139.308167
v -28.885904 85.698952 139.365891
v -29.169083 90.984215 125.558723
v -28.885904 85.698952 125.674187
v 26.798630 85.698952 139.365891
v 27.022234 90.984215 139.308167
v 26.798630 85.698952 125.674187
v 27.022234 90.984215 125.558723
v -30.461821 99.531044 139.214828
v 27.217356 99.531044 139.214828
v -30.193075 94.644165 139.268234
v 27.011934 94.644165 139.268234
v 27.217356 99.531044 153.057602
v -30.461821 99.531044 153.057602
v -30.193075 94.644165 153.057602
v 27.011934 94.644165 153.057602
vt 0.008755 0.149858
vt 0.008765 0.151859
vt 0.008765 0.151941
vt 0.008755 0.149939
vt 0.008804 0.149832
vt 0.008814 0.151833
vt 0.008804 0.149913
vt 0.008814 0.151915
vt 0.008853 0.192429
vt 0.008853 0.192152
vt 0.008886 0.192725
vt 0.008886 0.193003
vt 0.008735 0.193806
vt 0.008735 0.193528
vt 0.008702 0.192955
vt 0.008702 0.193232
vt 0.008755 0.149858
vt 0.008765 0.151859
vt 0.008765 0.151941
vt 0.008755 0.149939
vt 0.008804 0.149832
vt 0.008814 0.151833
vt 0.008804 0.149913
vt 0.008814 0.151915
vt 0.008755 0.149858
vt 0.008765 0.151859
vt 0.008765 0.151941
vt 0.008755 0.149939
vt 0.008804 0.149832
vt 0.008814 0.151833
vt 0.008804 0.149913
vt 0.008814 0.151915
vt 0.008853 0.192429
vt 0.008853 0.192152
vt 0.008886 0.192725
vt 0.008886 0.193003
vt 0.008735 0.193806
vt 0.008735 0.193528
vt 0.008702 0.192955
vt 0.008702 0.193232
vt 0.008755 0.149858
vt 0.008765 0.151859
vt 0.008765 0.151941
vt 0.008755 0.149939
vt 0.008804 0.149832
vt 0.008814 0.151833
vt 0.008804 0.149913
vt 0.008814 0.151915
vt 0.008869 0.183248
vt 0.008880 0.185250
vt 0.008880 0.185331
vt 0.008869 0.183330
vt 0.008918 0.183222
vt 0.008929 0.185224
vt 0.008918 0.183304
vt 0.008929 0.185305
vt 0.008869 0.183248
vt 0.008880 0.185250
vt 0.008880 0.185331
vt 0.008869 0.183330
vt 0.008918 0.183222
vt 0.008929 0.185224
vt 0.008918 0.183304
vt 0.008929 0.185305
vt 0.008876 0.183326
vt 0.008918 0.183232
vt 0.008865 0.150124
vt 0.008865 0.151757
vt 0.008680 0.150326
vt 0.008929 0.185234
vt 0.008886 0.185328
vt 0.008733 0.150315
vt 0.008652 0.150351
vt 0.008733 0.149877
vt 0.008755 0.149858
vt 0.008765 0.151859
vt 0.008765 0.151941
vt 0.008755 0.149939
vt 0.008804 0.149832
vt 0.008814 0.151833
vt 0.008804 0.149913
vt 0.008814 0.151915
vt 0.008853 0.192429
vt 0.008853 0.192152
vt 0.008886 0.192725
vt 0.008886 0.193003
vt 0.008735 0.193806
vt 0.008735 0.193528
vt 0.008702 0.192955
vt 0.008702 0.193232
vt 0.008755 0.149858
vt 0.008765 0.151859
vt 0.008765 0.151941
vt 0.008755 0.149939
vt 0.008804 0.149832
vt 0.008814 0.151833
vt 0.008804 0.149913
vt 0.008814 0.151915
vt 0.008755 0.149858
vt 0.008765 0.151859
vt 0.008765 0.151941
vt 0.008755 0.149939
vt 0.008804 0.149832
vt 0.008814 0.151833
vt 0.008804 0.149913
vt 0.008814 0.151915
vt 0.008853 0.192429
vt 0.008853 0.192152
vt 0.008886 0.192725
vt 0.008886 0.193003
vt 0.008735 0.193806
vt 0.008735 0.193528
vt 0.008702 0.192955
vt 0.008702 0.193232
vt 0.008755 0.149858
vt 0.008765 0.151859
vt 0.008765 0.151941
vt 0.008755 0.149939
vt 0.008804 0.149832
vt 0.008814 0.151833
vt 0.008804 0.149913
vt 0.008814 0.151915
vn 0.000000 -0.130080 -0.991504
vn 0.000000 -0.130080 -0.991504
vn 0.000000 -0.130080 -0.991504
vn 0.000000 -0.130080 -0.991504
vn 0.000000 1.000000 0.000000
vn 0.000000 1.000000 0.000000
vn 0.000000 1.000000 0.000000
vn 0.000000 1.000000 0.000000
vn -0.999051 -0.043549 0.000000
vn -0.999051 -0.043549 0.000000
vn -0.999051 -0.043549 0.000000
vn -0.999051 -0.043549 0.000000
vn 0.000000 -1.000000 0.000000
vn 0.000000 -1.000000 0.000000
vn 0.000000 -1.000000 0.000000
vn 0.000000 -1.000000 0.000000
vn 0.998830 -0.048356 0.000000
vn 0.998830 -0.048356 0.000000
vn 0.998830 -0.048356 0.000000
vn 0.998830 -0.048356 0.000000
vn 0.000000 0.119401 0.992846
vn 0.000000 0.119401 0.992846
vn 0.000000 0.119401 0.992846
vn 0.000000 0.119401 0.992846
vn -0.999052 -0.043546 0.000000
vn -0.999052 -0.043546 0.000000
vn -0.999052 -0.043546 0.000000
vn -0.999052 -0.043546 0.000000
vn 0.998491 -0.054915 0.000000
vn 0.998491 -0.054915 0.000000
vn 0.998491 -0.054915 0.000000
vn 0.998491 -0.054915 0.000000
vn 0.000000 0.108681 0.994077
vn 0.000000 0.108681 0.994077
vn 0.000000 0.108681 0.994077
vn 0.000000 0.108681 0.994077
vn 0.000000 -1.000000 0.000000
vn 0.000000 -1.000000 0.000000
vn 0.000000 -1.000000 0.000000
vn 0.000000 -1.000000 0.000000
vn 0.000000 -0.119402 -0.992846
vn 0.000000 -0.119402 -0.992846
vn 0.000000 -0.119402 -0.992846
vn 0.000000 -0.119402 -0.992846
vn 0.000000 1.000000 0.000000
vn 0.000000 1.000000 0.000000
vn 0.000000 1.000000 0.000000
vn 0.000000 1.000000 0.000000
vn 0.000000 -0.108681 -0.994077
vn 0.000000 -0.108681 -0.994077
vn 0.000000 -0.108681 -0.994077
vn 0.000000 -0.108681 -0.994077
vn 0.000000 1.000000 0.000000
vn 0.000000 1.000000 0.000000
vn 0.000000 1.000000 0.000000
vn 0.000000 1.000000 0.000000
vn -0.998821 -0.048542 0.000000
vn -0.998821 -0.048542 0.000000
vn -0.998821 -0.048542 0.000000
vn -0.998821 -0.048542 0.000000
vn 0.000000 -1.000000 0.000000
vn 0.000000 -1.000000 0.000000
vn 0.000000 -1.000000 0.000000
vn 0.000000 -1.000000 0.000000
vn 0.998830 -0.048356 0.000000
vn 0.998830 -0.048356 0.000000
vn 0.998830 -0.048356 0.000000
vn 0.998830 -0.048356 0.000000
vn 0.000000 0.097924 0.995194
vn 0.000000 0.097924 0.995194
vn 0.000000 0.097924 0.995194
vn 0.000000 0.097924 0.995194
vn 0.000000 -0.097923 -0.995194
vn 0.000000 -0.097923 -0.995194
vn 0.000000 -0.097923 -0.995194
vn 0.000000 -0.097923 -0.995194
vn 0.000000 1.000000 0.000000
vn 0.000000 1.000000 0.000000
vn 0.000000 1.000000 0.000000
vn 0.000000 1.000000 0.000000
vn -0.998980 -0.045158 0.000000
vn -0.998980 -0.045158 0.000000
vn -0.998980 -0.045158 0.000000
vn -0.998980 -0.045158 0.000000
vn 0.000000 -1.000000 0.000000
vn 0.000000 -1.000000 0.000000
vn 0.000000 -1.000000 0.000000
vn 0.000000 -1.000000 0.000000
vn 0.998562 -0.053612 0.000000
vn 0.998562 -0.053612 0.000000
vn 0.998562 -0.053612 0.000000
vn 0.998562 -0.053612 0.000000
vn 0.000000 0.087130 0.996197
vn 0.000000 0.087130 0.996197
vn 0.000000 0.087130 0.996197
vn 0.000000 0.087130 0.996197
vn -0.998889 -0.047127 0.000000
vn -0.998889 -0.047127 0.000000
vn -0.998889 -0.047127 0.000000
vn -0.998889 -0.047127 0.000000
vn 0.998816 -0.048651 0.000000
vn 0.998816 -0.048650 0.000000
vn 0.998816 -0.048650 0.000000
vn 0.998816 -0.048650 0.000000
vn 0.000000 0.076307 0.997084
vn 0.000000 0.076307 0.997084
vn 0.000000 0.076307 0.997084
vn 0.000000 0.076307 0.997084
vn 0.000000 -1.000000 0.000000
vn 0.000000 -1.000000 0.000000
vn 0.000000 -1.000000 0.000000
vn 0.000000 -1.000000 0.000000
vn 0.000000 -0.087132 -0.996197
vn 0.000000 -0.087132 -0.996197
vn 0.000000 -0.087132 -0.996197
vn 0.000000 -0.087132 -0.996197
vn 0.000000 1.000000 0.000000
vn 0.000000 1.000000 0.000000
vn 0.000000 1.000000 0.000000
vn 0.000000 1.000000 0.000000
vn 0.000000 -0.076307 -0.997084
vn 0.000000 -0.076307 -0.997084
vn 0.000000 -0.076307 -0.997084
vn 0.000000 -0.076307 -0.997084
vn 0.000000 1.000000 0.000000
vn 0.000000 1.000000 0.000000
vn 0.000000 1.000000 0.000000
vn 0.000000 1.000000 0.000000
vn -0.998822 -0.048526 0.000000
vn -0.998822 -0.048526 0.000000
vn -0.998822 -0.048526 0.000000
vn -0.998822 -0.048526 0.000000
vn 0.000000 -1.000000 0.000000
vn 0.000000 -1.000000 0.000000
vn 0.000000 -1.000000 0.000000
vn 0.000000 -1.000000 0.000000
vn 0.998829 -0.048371 0.000000
vn 0.998829 -0.048371 0.000000
vn 0.998829 -0.048371 0.000000
vn 0.998829 -0.048371 0.000000
vn 0.000000 0.065457 0.997855
vn 0.000000 0.065457 0.997855
vn 0.000000 0.065457 0.997855
vn 0.000000 0.065457 0.997855
vn 0.000000 -0.119401 -0.992846
vn 0.000000 -0.119401 -0.992846
vn 0.000000 -0.119401 -0.992846
vn 0.000000 -0.119401 -0.992846
vn 0.000000 0.831022 -0.556240
vn 0.000000 0.831022 -0.556240
vn 0.000000 0.831022 -0.556240
vn 0.000000 0.831022 -0.556240
vn -0.999547 0.030091 -0.000000
vn -0.999547 0.030091 -0.000000
vn -0.999547 0.030091 -0.000000
vn -0.999547 0.030091 -0.000000
vn 0.000000 -1.000000 -0.000000
vn 0.000000 -1.000000 -0.000000
vn 0.000000 -1.000000 -0.000000
vn 0.000000 -1.000000 -0.000000
vn 0.000000 -1.000000 -0.000000
vn 0.999005 -0.044589 0.000000
vn 0.999005 -0.044589 0.000000
vn 0.999005 -0.044589 0.000000
vn 0.000001 0.000000 1.000000
vn 0.000001 0.000000 1.000000
vn 0.000001 0.000000 1.000000
vn 0.000001 0.000000 1.000000
vn 0.000001 0.000000 1.000000
vn 0.000000 -0.119401 -0.992846
vn 0.000000 -0.119401 -0.992846
vn 0.000000 -0.119401 -0.992846
vn 0.000000 -0.119401 -0.992846
vn 0.000000 0.831022 -0.556240
vn 0.000000 0.831022 -0.556240
vn 0.000000 0.831022 -0.556240
vn 0.000000 0.831022 -0.556240
vn -0.999155 -0.041099 0.000000
vn -0.999155 -0.041099 0.000000
vn -0.999155 -0.041099 0.000000
vn -0.999155 -0.041099 0.000000
vn -0.999155 -0.041099 0.000000
vn -0.000000 -1.000000 -0.000000
vn -0.000000 -1.000000 -0.000000
vn -0.000000 -1.000000 -0.000000
vn -0.000000 -1.000000 -0.000000
vn -0.000000 -1.000000 -0.000000
vn 0.999646 0.026595 -0.000000
vn 0.999646 0.026595 -0.000000
vn 0.999646 0.026595 -0.000000
vn 0.999646 0.026595 -0.000000
vn -0.000001 0.000000 1.000000
vn -0.000001 0.000000 1.000000
vn -0.000001 0.000000 1.000000
vn -0.000001 0.000000 1.000000
vn -0.000001 0.000000 1.000000
vn -0.999155 -0.041098 0.000000
vn -0.999155 -0.041098 0.000000
vn -0.999155 -0.041098 0.000000
vn 0.999005 -0.044589 -0.000000
vn 0.999005 -0.044589 -0.000000
vn 0.999005 -0.044589 -0.000000
vn 0.999005 -0.044589 -0.000000
vn 0.999005 -0.044589 -0.000000
vn 0.000000 -0.065457 -0.997855
vn 0.000000 -0.065457 -0.997855
vn 0.000000 -0.065457 -0.997855
vn 0.000000 -0.065457 -0.997855
vn 0.000000 1.000000 0.000000
vn 0.000000 1.000000 0.000000
vn 0.000000 1.000000 0.000000
vn 0.000000 1.000000 0.000000
vn -0.998753 -0.049925 0.000000
vn -0.998753 -0.049925 0.000000
vn -0.998753 -0.049925 0.000000
vn -0.998753 -0.049925 0.000000
vn 0.000000 -1.000000 0.000000
vn 0.000000 -1.000000 0.000000
vn 0.000000 -1.000000 0.000000
vn 0.000000 -1.000000 0.000000
vn 0.999119 -0.041977 0.000000
vn 0.999119 -0.041977 0.000000
vn 0.999119 -0.041977 0.000000
vn 0.999119 -0.041977 0.000000
vn 0.000000 0.054583 0.998509
vn 0.000000 0.054583 0.998509
vn 0.000000 0.054583 0.998509
vn 0.000000 0.054583 0.998509
vn -0.998753 -0.049925 0.000000
vn -0.998753 -0.049925 0.000000
vn -0.998753 -0.049925 0.000000
vn -0.998753 -0.049925 0.000000
vn 0.998821 -0.048542 0.000000
vn 0.998821 -0.048542 0.000000
vn 0.998821 -0.048542 0.000000
vn 0.998821 -0.048542 0.000000
vn 0.000000 0.043689 0.999045
vn 0.000000 0.043689 0.999045
vn 0.000000 0.043689 0.999045
vn 0.000000 0.043689 0.999045
vn 0.000000 -1.000000 0.000000
vn 0.000000 -1.000000 0.000000
vn 0.000000 -1.000000 0.000000
vn 0.000000 -1.000000 0.000000
vn 0.000000 -0.054583 -0.998509
vn 0.000000 -0.054583 -0.998509
vn 0.000000 -0.054583 -0.998509
vn 0.000000 -0.054583 -0.998509
vn 0.000000 1.000000 0.000000
vn 0.000000 1.000000 0.000000
vn 0.000000 1.000000 0.000000
vn 0.000000 1.000000 0.000000
vn 0.000000 -0.043691 -0.999045
vn 0.000000 -0.043691 -0.999045
vn 0.000000 -0.043691 -0.999045
vn 0.000000 -0.043691 -0.999045
vn 0.000000 1.000000 0.000000
vn 0.000000 1.000000 0.000000
vn 0.000000 1.000000 0.000000
vn 0.000000 1.000000 0.000000
vn -0.998491 -0.054915 0.000000
vn -0.998491 -0.054915 0.000000
vn -0.998491 -0.054915 0.000000
vn -0.998491 -0.054915 0.000000
vn 0.000000 -1.000000 0.000000
vn 0.000000 -1.000000 0.000000
vn 0.000000 -1.000000 0.000000
vn 0.000000 -1.000000 0.000000
vn 0.999119 -0.041977 0.000000
vn 0.999119 -0.041977 0.000000
vn 0.999119 -0.041977 0.000000
vn 0.999119 -0.041977 0.000000
vn 0.000000 0.032782 0.999463
vn 0.000000 0.032782 0.999463
vn 0.000000 0.032782 0.999463
vn 0.000000 0.032782 0.999463
vn 0.000000 -0.032781 -0.999463
vn 0.000000 -0.032781 -0.999463
vn 0.000000 -0.032781 -0.999463
vn 0.000000 -0.032781 -0.999463
vn 0.000000 1.000000 0.000000
vn 0.000000 1.000000 0.000000
vn 0.000000 1.000000 0.000000
vn 0.000000 1.000000 0.000000
vn -0.998671 -0.051532 0.000000
vn -0.998671 -0.051532 0.000000
vn -0.998671 -0.051532 0.000000
vn -0.998671 -0.051532 0.000000
vn 0.000000 -1.000000 0.000000
vn 0.000000 -1.000000 0.000000
vn 0.000000 -1.000000 0.000000
vn 0.000000 -1.000000 0.000000
vn 0.998884 -0.047238 0.000000
vn 0.998884 -0.047238 0.000000
vn 0.998884 -0.047238 0.000000
vn 0.998884 -0.047238 0.000000
vn 0.000000 0.021860 0.999761
vn 0.000000 0.021860 0.999761
vn 0.000000 0.021860 0.999761
vn 0.000000 0.021860 0.999761
vn -0.998568 -0.053502 0.000000
vn -0.998568 -0.053502 0.000000
vn -0.998568 -0.053502 0.000000
vn -0.998568 -0.053502 0.000000
vn 0.999106 -0.042271 0.000000
vn 0.999106 -0.042271 0.000000
vn 0.999106 -0.042271 0.000000
vn 0.999106 -0.042271 0.000000
vn 0.000000 0.010936 0.999940
vn 0.000000 0.010936 0.999940
vn 0.000000 0.010936 0.999940
vn 0.000000 0.010936 0.999940
vn 0.000000 -1.000000 0.000000
vn 0.000000 -1.000000 0.000000
vn 0.000000 -1.000000 0.000000
vn 0.000000 -1.000000 0.000000
vn 0.000000 -0.021862 -0.999761
vn 0.000000 -0.021862 -0.999761
vn 0.000000 -0.021862 -0.999761
vn 0.000000 -0.021862 -0.999761
vn 0.000000 1.000000 0.000000
vn 0.000000 1.000000 0.000000
vn 0.000000 1.000000 0.000000
vn 0.000000 1.000000 0.000000
vn 0.000000 -0.010934 -0.999940
vn 0.000000 -0.010934 -0.999940
vn 0.000000 -0.010934 -0.999940
vn 0.000000 -0.010934 -0.999940
vn 0.000000 1.000000 0.000000
vn 0.000000 1.000000 0.000000
vn 0.000000 1.000000 0.000000
vn 0.000000 1.000000 0.000000
vn -0.998492 -0.054900 0.000000
vn -0.998492 -0.054900 0.000000
vn -0.998492 -0.054900 0.000000
vn -0.998492 -0.054900 0.000000
vn 0.000000 -1.000000 0.000000
vn 0.000000 -1.000000 0.000000
vn 0.000000 -1.000000 0.000000
vn 0.000000 -1.000000 0.000000
vn 0.999118 -0.041992 0.000000
vn 0.999118 -0.041992 0.000000
vn 0.999118 -0.041992 0.000000
vn 0.999118 -0.041992 0.000000
vn 0.000000 0.000000 1.000000
vn 0.000000 0.000000 1.000000
vn 0.000000 0.000000 1.000000
vn 0.000000 0.000000 1.000000
s off
f 1/1/1 2/2/2 4/3/3 3/4/4
f 6/5/5 5/6/6 2/2/7 1/1/8
f 3/4/9 7/7/10 6/5/11 1/1/12
f 3/4/13 4/3/14 8/8/15 7/7/16
f 5/6/17 8/8/18 4/3/19 2/2/20
f 8/8/21 5/6/22 6/5/23 7/7/24
f 11/9/25 12/10/26 10/11/27 9/12/28
f 14/13/29 13/14/30 15/15/31 16/16/32
f 9/12/33 10/11/34 13/14/35 14/13/36
f 10/11/37 12/10/38 15/15/39 13/14/40
f 12/10/41 11/9/42 16/16/43 15/15/44
f 11/9/45 9/12/46 14/13/47 16/16/48
f 17/17/49 18/18/50 20/19/51 19/20/52
f 22/21/53 21/22/54 18/18/55 17/17/56
f 19/20/57 23/23/58 22/21/59 17/17/60
f 19/20/61 20/19/62 24/24/63 23/23/64
f 21/22/65 24/24/66 20/19/67 18/18/68
f 24/24/69 21/22/70 22/21/71 23/23/72
f 25/25/73 26/26/74 28/27/75 27/28/76
f 30/29/77 29/30/78 26/26/79 25/25/80
f 27/28/81 31/31/82 30/29/83 25/25/84
f 27/28/85 28/27/86 32/32/87 31/31/88
f 29/30/89 32/32/90 28/27/91 26/26/92
f 32/32/93 29/30/94 30/29/95 31/31/96
f 35/33/97 36/34/98 34/35/99 33/36/100
f 38/37/101 37/38/102 39/39/103 40/40/104
f 33/36/105 34/35/106 37/38/107 38/37/108
f 34/35/109 36/34/110 39/39/111 37/38/112
f 36/34/113 35/33/114 40/40/115 39/39/116
f 35/33/117 33/36/118 38/37/119 40/40/120
f 41/41/121 42/42/122 44/43/123 43/44/124
f 46/45/125 45/46/126 42/42/127 41/41/128
f 43/44/129 47/47/130 46/45/131 41/41/132
f 43/44/133 44/43/134 48/48/135 47/47/136
f 45/46/137 48/48/138 44/43/139 42/42/140
f 48/48/141 45/46/142 46/45/143 47/47/144
f 49/49/145 50/50/146 52/51/147 51/52/148
f 54/53/149 53/54/150 50/50/151 49/49/152
f 51/52/153 55/55/154 54/53/155 49/49/156
f 51/52/157 52/51/158 68/71/159 56/56/160 55/55/161
f 56/72/162 68/73/163 67/74/164
f 53/54/165 54/53/166 55/55/167 56/56/168 67/70/169
f 57/57/170 58/58/171 60/59/172 59/60/173
f 62/61/174 61/62/175 58/58/176 57/57/177
f 59/60/178 65/65/179 66/66/180 62/61/181 57/57/182
f 59/60/183 60/59/184 64/64/185 63/63/186 65/65/187
f 61/62/188 64/64/189 60/59/190 58/58/191
f 61/62/192 62/61/193 66/66/194 63/63/195 64/64/196
f 63/67/197 66/68/198 65/69/199
f 53/54/200 67/70/201 68/71/202 52/51/203 50/50/204
f 69/75/205 70/76/206 72/77/207 71/78/208
f 74/79/209 73/80/210 70/76/211 69/75/212
f 71/78/213 75/81/214 74/79/215 69/75/216
f 71/78/217 72/77/218 76/82/219 75/81/220
f 73/80/221 76/82/222 72/77/223 70/76/224
f 76/82/225 73/80/226 74/79/227 75/81/228
f 79/83/229 80/84/230 78/85/231 77/86/232
f 82/87/233 81/88/234 83/89/235 84/90/236
f 77/86/237 78/85/238 81/88/239 82/87/240
f 78/85/241 80/84/242 83/89/243 81/88/244
f 80/84/245 79/83/246 84/90/247 83/89/248
f 79/83/249 77/86/250 82/87/251 84/90/252
f 85/91/253 86/92/254 88/93/255 87/94/256
f 90/95/257 89/96/258 86/92/259 85/91/260
f 87/94/261 91/97/262 90/95/263 85/91/264
f 87/94/265 88/93/266 92/98/267 91/97/268
f 89/96/269 92/98/270 88/93/271 86/92/272
f 92/98/273 89/96/274 90/95/275 91/97/276
f 93/99/277 94/100/278 96/101/279 95/102/280
f 98/103/281 97/104/282 94/100/283 93/99/284
f 95/102/285 99/105/286 98/103/287 93/99/288
f 95/102/289 96/101/290 100/106/291 99/105/292
f 97/104/293 100/106/294 96/101/295 94/100/296
f 100/106/297 97/104/298 98/103/299 99/105/300
f 103/107/301 104/108/302 102/109/303 101/110/304
f 106/111/305 105/112/306 107/113/307 108/114/308
f 101/110/309 102/109/310 105/112/311 106/111/312
f 102/109/313 104/108/314 107/113/315 105/112/316
f 104/108/317 103/107/318 108/114/319 107/113/320
f 103/107/321 101/110/322 106/111/323 108/114/324
f 109/115/325 110/116/326 112/117/327 111/118/328
f 114/119/329 113/120/330 110/116/331 109/115/332
f 111/118/333 115/121/334 114/119/335 109/115/336
f 111/118/337 112/117/338 116/122/339 115/121/340
f 113/120/341 116/122/342 112/117/343 110/116/344
f 116/122/345 113/120/346 114/119/347 115/121/348
