# This file uses meters as units for non-parametric coordinates.

v -15.313919 0.000000 15.313936
v 15.313951 0.000000 15.313936
v -15.313919 7.594369 15.313936
v 15.313951 7.594369 15.313936
v -15.313919 7.594369 -15.313882
v 15.313951 7.594369 -15.313882
v -15.313919 0.000000 -15.313882
v 15.313951 0.000000 -15.313882
v -8.619284 10.354964 8.619246
v 8.619209 10.354964 8.619246
v 8.619209 10.354964 -8.619140
v -8.619284 10.354964 -8.619140
v -6.312939 28.439882 6.312901
v 6.312863 28.439882 6.312901
v 6.312863 28.439882 -6.312793
v -6.312939 28.439882 -6.312793
v -8.536049 41.031796 8.536065
v 8.536080 41.031796 8.536065
v 8.536080 41.031796 -8.536065
v -8.536049 41.031796 -8.536065
v -13.766376 41.802769 13.766322
v 13.766285 41.802769 13.766322
v 13.766285 41.802769 -13.766231
v -13.766376 41.802769 -13.766231
v -13.766376 48.718384 13.766322
v 13.766285 48.718384 13.766322
v 13.766285 48.718384 -13.766231
v -13.766376 48.718384 -13.766231
v -8.369608 51.267300 8.369571
v 8.369534 51.267300 8.369571
v 8.369534 51.267300 -8.369463
v -8.369608 51.267300 -8.369463
v -8.369608 62.331097 8.369571
v 8.369534 62.331097 8.369571
v 8.369534 62.331097 -8.369463
v -8.369608 62.331097 -8.369463
v -13.151618 63.216187 13.151671
v 13.151618 63.216187 13.151671
v 13.151618 63.216187 -13.151473
v -13.151618 63.216187 -13.151473
v -13.151618 67.316811 13.151671
v 13.151618 67.316811 13.151671
v 13.151618 67.316811 -13.151473
v -13.151618 67.316811 -13.151473
v -0.000107 73.927208 0.000107
vt 0.181410 0.160497
vt 0.181410 0.160497
vt 0.181410 0.160497
vt 0.181410 0.160497
vt 0.181410 0.160497
vt 0.181410 0.160497
vt 0.181410 0.160497
vt 0.181410 0.160497
vt 0.181410 0.160497
vt 0.181410 0.160497
vt 0.181410 0.160497
vt 0.181410 0.160497
vt 0.181410 0.160497
vt 0.181410 0.160497
vt 0.181410 0.160497
vt 0.181410 0.160497
vt 0.181410 0.160497
vt 0.181410 0.160497
vt 0.181410 0.160497
vt 0.181410 0.160497
vt 0.181410 0.160497
vt 0.181410 0.160497
vt 0.181410 0.160497
vt 0.181410 0.160497
vt 0.181410 0.160497
vt 0.181410 0.160497
vt 0.181410 0.160497
vt 0.181410 0.160497
vt 0.181410 0.160497
vt 0.181410 0.160497
vt 0.181410 0.160497
vt 0.181410 0.160497
vt 0.181410 0.160497
vt 0.181410 0.160497
vt 0.181410 0.160497
vt 0.181410 0.160497
vt 0.181410 0.160497
vt 0.181410 0.160497
vt 0.181410 0.160497
vt 0.181410 0.160497
vt 0.181410 0.160497
vt 0.181410 0.160497
vt 0.181410 0.160497
vt 0.181410 0.160497
vt 0.181410 0.160497
vt 0.181410 0.160497
vt 0.181410 0.160497
vt 0.181410 0.160497
vt 0.181410 0.160497
vt 0.181410 0.160497
vt 0.181410 0.160497
vn 0.000000 0.000000 1.000000
vn 0.000000 0.000000 1.000000
vn 0.000000 0.000000 1.000000
vn 0.000000 0.000000 1.000000
vn 0.000000 0.000000 -1.000000
vn 0.000000 0.000000 -1.000000
vn 0.000000 0.000000 -1.000000
vn 0.000000 0.000000 -1.000000
vn 0.000000 -1.000000 0.000000
vn 0.000000 -1.000000 0.000000
vn 0.000000 -1.000000 0.000000
vn 0.000000 -1.000000 0.000000
vn 1.000000 0.000000 0.000000
vn 1.000000 0.000000 0.000000
vn 1.000000 0.000000 0.000000
vn 1.000000 0.000000 0.000000
vn -1.000000 0.000000 0.000000
vn -1.000000 0.000000 0.000000
vn -1.000000 0.000000 0.000000
vn -1.000000 0.000000 0.000000
vn 0.000000 0.924486 0.381217
vn 0.000000 0.924486 0.381217
vn 0.000000 0.924486 0.381217
vn 0.000000 0.924486 0.381217
vn 0.381215 0.924487 0.000000
vn 0.381215 0.924487 0.000000
vn 0.381215 0.924487 0.000000
vn 0.381215 0.924487 0.000000
vn 0.000000 0.924487 -0.381215
vn 0.000000 0.924487 -0.381215
vn 0.000000 0.924487 -0.381215
vn 0.000000 0.924487 -0.381215
vn -0.381220 0.924485 0.000000
vn -0.381220 0.924485 0.000000
vn -0.381220 0.924485 0.000000
vn -0.381220 0.924485 0.000000
vn 0.000000 0.126504 0.991966
vn 0.000000 0.126504 0.991966
vn 0.000000 0.126504 0.991966
vn 0.000000 0.126504 0.991966
vn 0.991966 0.126504 0.000000
vn 0.991966 0.126504 0.000000
vn 0.991966 0.126504 0.000000
vn 0.991966 0.126504 0.000000
vn 0.000000 0.126504 -0.991966
vn 0.000000 0.126504 -0.991966
vn 0.000000 0.126504 -0.991966
vn 0.000000 0.126504 -0.991966
vn -0.991966 0.126504 0.000000
vn -0.991966 0.126504 0.000000
vn -0.991966 0.126504 0.000000
vn -0.991966 0.126504 0.000000
vn 0.000000 -0.173867 0.984769
vn 0.000000 -0.173867 0.984769
vn 0.000000 -0.173867 0.984769
vn 0.000000 -0.173867 0.984769
vn 0.984769 -0.173871 0.000000
vn 0.984769 -0.173871 0.000000
vn 0.984769 -0.173871 0.000000
vn 0.984769 -0.173871 0.000000
vn 0.000000 -0.173874 -0.984768
vn 0.000000 -0.173874 -0.984768
vn 0.000000 -0.173874 -0.984768
vn 0.000000 -0.173874 -0.984768
vn -0.984770 -0.173863 0.000000
vn -0.984770 -0.173863 0.000000
vn -0.984770 -0.173863 0.000000
vn -0.984770 -0.173863 0.000000
vn 0.000000 -0.989310 0.145831
vn 0.000000 -0.989310 0.145831
vn 0.000000 -0.989310 0.145831
vn 0.000000 -0.989310 0.145831
vn 0.145832 -0.989309 0.000000
vn 0.145832 -0.989309 0.000000
vn 0.145832 -0.989309 0.000000
vn 0.145832 -0.989309 0.000000
vn 0.000000 -0.989309 -0.145834
vn 0.000000 -0.989309 -0.145834
vn 0.000000 -0.989309 -0.145834
vn 0.000000 -0.989309 -0.145834
vn -0.145829 -0.989310 0.000000
vn -0.145829 -0.989310 0.000000
vn -0.145829 -0.989310 0.000000
vn -0.145829 -0.989310 0.000000
vn 0.000000 0.000000 1.000000
vn 0.000000 0.000000 1.000000
vn 0.000000 0.000000 1.000000
vn 0.000000 0.000000 1.000000
vn 1.000000 0.000000 0.000000
vn 1.000000 0.000000 0.000000
vn 1.000000 0.000000 0.000000
vn 1.000000 0.000000 0.000000
vn 0.000000 0.000000 -1.000000
vn 0.000000 0.000000 -1.000000
vn 0.000000 0.000000 -1.000000
vn 0.000000 0.000000 -1.000000
vn -1.000000 0.000000 0.000000
vn -1.000000 0.000000 0.000000
vn -1.000000 0.000000 0.000000
vn -1.000000 0.000000 0.000000
vn 0.000000 0.904220 -0.427068
vn 0.000000 0.904220 -0.427068
vn 0.000000 0.904220 -0.427068
vn 0.000000 0.904220 -0.427068
vn -0.427067 0.904220 0.000000
vn -0.427067 0.904220 0.000000
vn -0.427067 0.904220 0.000000
vn -0.427067 0.904220 0.000000
vn 0.000000 0.000000 1.000000
vn 0.000000 0.000000 1.000000
vn 0.000000 0.000000 1.000000
vn 0.000000 0.000000 1.000000
vn 1.000000 0.000000 0.000000
vn 1.000000 0.000000 0.000000
vn 1.000000 0.000000 0.000000
vn 1.000000 0.000000 0.000000
vn 0.000000 0.000000 -1.000000
vn 0.000000 0.000000 -1.000000
vn 0.000000 0.000000 -1.000000
vn 0.000000 0.000000 -1.000000
vn -1.000000 0.000000 0.000000
vn -1.000000 0.000000 0.000000
vn -1.000000 0.000000 0.000000
vn -1.000000 0.000000 0.000000
vn 0.000000 -0.983300 0.181993
vn 0.000000 -0.983300 0.181993
vn 0.000000 -0.983300 0.181993
vn 0.000000 -0.983300 0.181993
vn 0.181993 -0.983300 0.000000
vn 0.181993 -0.983300 0.000000
vn 0.181993 -0.983300 0.000000
vn 0.181993 -0.983300 0.000000
vn 0.000000 -0.983299 -0.181997
vn 0.000000 -0.983299 -0.181997
vn 0.000000 -0.983299 -0.181997
vn 0.000000 -0.983299 -0.181997
vn -0.181997 -0.983299 0.000000
vn -0.181997 -0.983299 0.000000
vn -0.181997 -0.983299 0.000000
vn -0.181997 -0.983299 0.000000
vn 0.000000 0.000000 1.000000
vn 0.000000 0.000000 1.000000
vn 0.000000 0.000000 1.000000
vn 0.000000 0.000000 1.000000
vn 1.000000 0.000000 0.000000
vn 1.000000 0.000000 0.000000
vn 1.000000 0.000000 0.000000
vn 1.000000 0.000000 0.000000
vn 0.000000 0.000000 -1.000000
vn 0.000000 0.000000 -1.000000
vn 0.000000 0.000000 -1.000000
vn 0.000000 0.000000 -1.000000
vn -1.000000 0.000000 0.000000
vn -1.000000 0.000000 0.000000
vn -1.000000 0.000000 0.000000
vn -1.000000 0.000000 0.000000
vn 0.000000 0.893485 -0.449094
vn 0.000000 0.893485 -0.449094
vn 0.000000 0.893485 -0.449094
vn -0.449095 0.893484 0.000000
vn -0.449095 0.893484 0.000000
vn -0.449095 0.893484 0.000000
vn 0.000000 0.893485 0.449094
vn 0.000000 0.893485 0.449094
vn 0.000000 0.893485 0.449094
vn 0.449089 0.893487 0.000000
vn 0.449089 0.893487 0.000000
vn 0.449089 0.893487 0.000000
vn 0.000000 0.904220 0.427068
vn 0.000000 0.904220 0.427068
vn 0.000000 0.904220 0.427068
vn 0.000000 0.904220 0.427068
vn 0.427067 0.904220 0.000000
vn 0.427067 0.904220 0.000000
vn 0.427067 0.904220 0.000000
vn 0.427067 0.904220 0.000000
s off
f 1/1/1 2/2/2 4/4/3 3/3/4
f 5/5/5 6/6/6 8/8/7 7/7/8
f 7/7/9 8/8/10 2/10/11 1/9/12
f 2/2/13 8/11/14 6/12/15 4/4/16
f 7/13/17 1/1/18 3/3/19 5/14/20
f 3/3/21 4/4/22 10/16/23 9/15/24
f 4/4/25 6/6/26 11/17/27 10/16/28
f 6/6/29 5/5/30 12/18/31 11/17/32
f 5/5/33 3/3/34 9/15/35 12/18/36
f 9/15/37 10/16/38 14/20/39 13/19/40
f 10/16/41 11/17/42 15/21/43 14/20/44
f 11/17/45 12/18/46 16/22/47 15/21/48
f 12/18/49 9/15/50 13/19/51 16/22/52
f 13/19/53 14/20/54 18/24/55 17/23/56
f 14/20/57 15/21/58 19/25/59 18/24/60
f 15/21/61 16/22/62 20/26/63 19/25/64
f 16/22/65 13/19/66 17/23/67 20/26/68
f 17/23/69 18/24/70 22/28/71 21/27/72
f 18/24/73 19/25/74 23/29/75 22/28/76
f 19/25/77 20/26/78 24/30/79 23/29/80
f 20/26/81 17/23/82 21/27/83 24/30/84
f 21/27/85 22/28/86 26/32/87 25/31/88
f 22/28/89 23/29/90 27/33/91 26/32/92
f 23/29/93 24/30/94 28/34/95 27/33/96
f 24/30/97 21/27/98 25/31/99 28/34/100
f 31/37/101 27/33/102 28/34/103 32/38/104
f 32/38/105 28/34/106 25/31/107 29/35/108
f 29/35/109 30/36/110 34/40/111 33/39/112
f 30/36/113 31/37/114 35/41/115 34/40/116
f 31/37/117 32/38/118 36/42/119 35/41/120
f 32/38/121 29/35/122 33/39/123 36/42/124
f 33/39/125 34/40/126 38/44/127 37/43/128
f 34/40/129 35/41/130 39/45/131 38/44/132
f 35/41/133 36/42/134 40/46/135 39/45/136
f 36/42/137 33/39/138 37/43/139 40/46/140
f 37/43/141 38/44/142 42/48/143 41/47/144
f 38/44/145 39/45/146 43/49/147 42/48/148
f 39/45/149 40/46/150 44/50/151 43/49/152
f 40/46/153 37/43/154 41/47/155 44/50/156
f 43/49/157 44/50/158 45/51/159
f 44/50/160 41/47/161 45/51/162
f 42/48/163 45/51/164 41/47/165
f 43/49/166 45/51/167 42/48/168
f 30/36/169 29/35/170 25/31/171 26/32/172
f 31/37/173 30/36/174 26/32/175 27/33/176
