# This file uses meters as units for non-parametric coordinates.

v -23.181396 7.097530 1.004181
v -22.654785 0.000001 0.000000
v 22.655273 0.000001 0.000000
v 23.181885 7.097530 12.998138
v -23.181396 7.097530 12.998138
v -22.654785 0.000000 72.967651
v 22.655273 0.000001 72.967651
v -23.788818 15.284252 25.764221
v -23.788818 15.284252 13.963257
v 23.789307 15.284252 25.764221
v 23.789307 15.284252 13.963257
v -24.432861 23.967743 26.583221
v 24.433350 23.967743 26.583221
v 24.433350 23.967743 38.179321
v -24.432861 23.967743 38.179321
v -24.959473 31.065273 38.681549
v 24.959961 31.065273 38.681549
v 24.959961 31.065273 50.110260
v -24.959473 31.065273 50.110260
v -25.566895 39.252026 61.732025
v -25.566895 39.252026 50.496307
v 25.567383 39.252026 61.732025
v 25.567383 39.252026 50.496307
v -26.211182 47.935486 61.936829
v 26.211670 47.935486 61.936829
v 26.211670 47.935486 72.967651
v -26.211182 47.935486 72.967651
v 23.181885 7.097530 4.203827
v 22.966309 4.192114 0.593109
v 10.605957 7.097530 1.004181
vt 0.195727 0.199450
vt 0.195834 0.201533
vt 0.195727 0.199531
vt 0.196234 0.199424
vt 0.196340 0.201425
vt 0.196234 0.199505
vt 0.196340 0.201507
vt 0.198329 0.199743
vt 0.198329 0.199465
vt 0.198672 0.200039
vt 0.198672 0.200316
vt 0.197111 0.201119
vt 0.197111 0.200842
vt 0.196769 0.200268
vt 0.196769 0.200546
vt 0.195727 0.199450
vt 0.195834 0.201452
vt 0.195834 0.201533
vt 0.195727 0.199531
vt 0.196234 0.199424
vt 0.196340 0.201425
vt 0.196234 0.199505
vt 0.196340 0.201507
vt 0.195727 0.199450
vt 0.195834 0.201452
vt 0.195834 0.201533
vt 0.195727 0.199531
vt 0.196234 0.199424
vt 0.196340 0.201425
vt 0.196340 0.201507
vt 0.196234 0.199505
vt 0.198329 0.199743
vt 0.198329 0.199465
vt 0.198672 0.200316
vt 0.197111 0.201119
vt 0.196769 0.200268
vt 0.196769 0.200546
vt 0.195727 0.199450
vt 0.195834 0.201452
vt 0.195834 0.201533
vt 0.195727 0.199531
vt 0.196234 0.199424
vt 0.196340 0.201425
vt 0.196340 0.201507
vt 0.196234 0.199505
vt 0.197111 0.200842
vt 0.198672 0.200039
vt 0.195969 0.201445
vt 0.195834 0.201485
vt 0.195805 0.200909
vt 0.447266 0.278410
vt 0.447266 0.278410
vt 0.447266 0.278410
vt 0.447266 0.278410
vt 0.447266 0.278410
vt 0.447266 0.278410
vt 0.447266 0.278410
vt 0.447266 0.278410
vt 0.447266 0.278410
vt 0.447266 0.278410
vt 0.447266 0.278410
vt 0.447266 0.278410
vt 0.447266 0.278408
vt 0.447266 0.278408
vt 0.447266 0.278408
vt 0.447266 0.278408
vt 0.447266 0.278408
vt 0.447266 0.278408
vt 0.447266 0.278408
vt 0.447266 0.278408
vt 0.447266 0.278410
vt 0.447266 0.278410
vt 0.447266 0.278410
vt 0.447266 0.278410
vt 0.447266 0.278410
vn 0.158938 0.764536 -0.624679
vn 0.158938 0.764536 -0.624679
vn 0.158938 0.764536 -0.624679
vn -0.997259 -0.073988 0.000000
vn -0.997259 -0.073988 0.000000
vn -0.997259 -0.073988 0.000000
vn 0.000000 -1.000000 -0.000000
vn 0.000000 -1.000000 -0.000000
vn 0.000000 -1.000000 -0.000000
vn 0.000000 -1.000000 -0.000000
vn -0.997259 -0.073989 0.000000
vn -0.997259 -0.073989 0.000000
vn -0.997259 -0.073989 0.000000
vn 0.997259 -0.073989 0.000000
vn 0.997259 -0.073989 0.000000
vn 0.997259 -0.073989 0.000000
vn 0.000000 0.117091 -0.993121
vn 0.000000 0.117091 -0.993121
vn 0.000000 0.117091 -0.993121
vn 0.000000 0.117091 -0.993121
vn 0.000000 1.000000 0.000000
vn 0.000000 1.000000 0.000000
vn 0.000000 1.000000 0.000000
vn 0.000000 1.000000 0.000000
vn 0.000000 0.093906 -0.995581
vn 0.000000 0.093906 -0.995581
vn 0.000000 0.093906 -0.995581
vn 0.000000 0.093906 -0.995581
vn 0.000000 1.000000 0.000000
vn 0.000000 1.000000 0.000000
vn 0.000000 1.000000 0.000000
vn 0.000000 1.000000 0.000000
vn -0.997259 -0.073990 0.000000
vn -0.997259 -0.073990 0.000000
vn -0.997259 -0.073990 0.000000
vn 0.997259 -0.073988 0.000000
vn 0.997259 -0.073988 0.000000
vn 0.997259 -0.073988 0.000000
vn 0.997259 -0.073989 -0.000000
vn 0.997259 -0.073989 -0.000000
vn 0.997259 -0.073989 -0.000000
vn -0.997259 -0.073989 -0.000000
vn -0.997259 -0.073989 -0.000000
vn -0.997259 -0.073989 -0.000000
vn -0.997259 -0.073989 -0.000000
vn -0.997259 -0.073989 -0.000000
vn -0.997259 -0.073989 -0.000000
vn -0.997259 -0.073989 -0.000000
vn -0.997259 -0.073989 -0.000000
vn -0.997259 -0.073989 -0.000000
vn 0.997259 -0.073989 0.000000
vn 0.997259 -0.073989 0.000000
vn 0.997259 -0.073989 0.000000
vn 0.997259 -0.073989 0.000000
vn 0.997259 -0.073989 0.000000
vn 0.997259 -0.073989 0.000000
vn 0.000000 0.070567 -0.997507
vn 0.000000 0.070567 -0.997507
vn 0.000000 0.070567 -0.997507
vn 0.000000 0.070567 -0.997507
vn 0.000000 1.000000 0.000000
vn 0.000000 1.000000 0.000000
vn 0.000000 1.000000 0.000000
vn 0.000000 1.000000 0.000000
vn -0.997259 -0.073989 0.000000
vn -0.997259 -0.073989 0.000000
vn -0.997259 -0.073989 0.000000
vn 0.997259 -0.073988 0.000000
vn 0.997259 -0.073988 0.000000
vn 0.997259 -0.073988 0.000000
vn -0.997259 -0.073986 0.000000
vn -0.997259 -0.073986 0.000000
vn -0.997259 -0.073986 0.000000
vn 0.997259 -0.073989 0.000000
vn 0.997259 -0.073989 0.000000
vn 0.997259 -0.073989 0.000000
vn 0.000000 0.047109 -0.998890
vn 0.000000 0.047109 -0.998890
vn 0.000000 0.047109 -0.998890
vn 0.000000 0.047109 -0.998890
vn 0.000000 1.000000 0.000000
vn 0.000000 1.000000 0.000000
vn 0.000000 1.000000 0.000000
vn 0.000000 1.000000 0.000000
vn 0.000000 0.023574 -0.999722
vn 0.000000 0.023574 -0.999722
vn 0.000000 0.023574 -0.999722
vn 0.000000 0.023574 -0.999722
vn 0.000000 1.000000 0.000000
vn 0.000000 1.000000 0.000000
vn 0.000000 1.000000 0.000000
vn 0.000000 1.000000 0.000000
vn -0.997259 -0.073990 0.000000
vn -0.997259 -0.073990 0.000000
vn -0.997259 -0.073990 0.000000
vn 0.997259 -0.073989 0.000000
vn 0.997259 -0.073989 0.000000
vn 0.997259 -0.073989 0.000000
vn -0.000000 0.000000 1.000000
vn -0.000000 0.000000 1.000000
vn -0.000000 0.000000 1.000000
vn -0.000000 0.000000 1.000000
vn 0.997259 -0.073989 -0.000000
vn 0.997259 -0.073989 -0.000000
vn 0.997259 -0.073989 -0.000000
vn -0.997259 -0.073988 0.000002
vn -0.997259 -0.073988 0.000002
vn -0.997259 -0.073988 0.000002
vn -0.997259 -0.073989 0.000000
vn -0.997259 -0.073989 0.000000
vn -0.997259 -0.073989 0.000000
vn -0.997259 -0.073989 -0.000001
vn -0.997259 -0.073989 -0.000001
vn -0.997259 -0.073989 -0.000001
vn 0.997259 -0.073989 -0.000000
vn 0.997259 -0.073989 -0.000000
vn 0.997259 -0.073989 -0.000000
vn 0.997259 -0.073988 0.000000
vn 0.997259 -0.073988 0.000000
vn 0.997259 -0.073988 0.000000
vn 0.997259 -0.073989 0.000001
vn 0.997259 -0.073989 0.000001
vn 0.997259 -0.073989 0.000001
vn 0.997259 -0.073989 0.000001
vn -0.000000 0.140089 -0.990139
vn -0.000000 0.140089 -0.990139
vn -0.000000 0.140089 -0.990139
vn -0.000000 0.140089 -0.990139
vn -0.000000 0.140089 -0.990139
vn 0.000000 1.000000 -0.000000
vn 0.000000 1.000000 -0.000000
vn 0.000000 1.000000 -0.000000
vn 0.000000 1.000000 -0.000000
vn 0.000000 1.000000 -0.000000
s off
f 29/49/1 30/50/2 28/48/3
f 2/3/4 5/4/5 1/1/6
f 2/3/7 3/2/8 7/7/9 6/6/10
f 9/8/11 5/9/12 8/11/13
f 10/12/14 4/14/15 11/15/16
f 5/9/17 9/8/18 11/15/19 4/14/20
f 9/51/21 8/52/22 10/53/23 11/54/24
f 12/16/25 13/17/26 10/18/27 8/19/28
f 15/55/29 14/56/30 13/57/31 12/58/32
f 8/19/33 15/20/34 12/16/35
f 14/21/36 7/23/37 10/18/38
f 10/12/39 7/13/40 4/14/41
f 8/11/42 5/9/43 6/10/44
f 2/3/45 6/6/46 5/4/47
f 8/19/48 6/22/49 15/20/50
f 4/5/51 7/7/52 3/2/53
f 14/21/54 10/18/55 13/17/56
f 16/24/57 17/25/58 14/26/59 15/27/60
f 19/59/61 18/60/62 17/61/63 16/62/64
f 15/27/65 19/28/66 16/24/67
f 18/29/68 14/26/69 17/25/70
f 21/32/71 19/33/72 20/34/73
f 22/35/74 18/36/75 23/37/76
f 19/33/77 21/32/78 23/37/79 18/36/80
f 21/63/81 20/64/82 22/65/83 23/66/84
f 24/38/85 25/39/86 22/40/87 20/41/88
f 27/67/89 26/68/90 25/69/91 24/70/92
f 20/41/93 27/42/94 24/38/95
f 26/43/96 7/44/97 22/40/98
f 7/44/99 26/43/100 27/42/101 6/45/102
f 22/35/103 7/46/104 18/36/105
f 20/34/106 19/33/107 6/47/108
f 15/27/109 6/31/110 19/28/111
f 20/41/112 6/45/113 27/42/114
f 18/29/115 7/30/116 14/26/117
f 26/43/118 22/40/119 25/39/120
f 4/5/121 3/2/122 29/49/123 28/48/124
f 1/1/125 30/50/126 29/49/127 3/2/128 2/3/129
f 5/71/130 4/72/131 28/73/132 30/74/133 1/75/134
