# This file uses meters as units for non-parametric coordinates.

v -23.916182 5.201221 -0.571315
v 24.280771 5.201221 -0.571315
v -23.262247 0.000000 0.000000
v 23.648867 0.000000 0.000000
v 24.280771 5.201221 11.908531
v -23.916182 5.201221 11.908531
v -23.262247 0.000000 12.289365
v 23.648867 0.000000 12.289365
v -24.990749 13.748074 24.075508
v -24.326262 8.462914 24.268913
v -24.990749 13.748074 11.282666
v -24.326262 8.462914 11.669731
v 28.184381 8.462914 24.268913
v 28.920078 13.748074 24.075508
v 28.184381 8.462914 11.669731
v 28.920078 13.748074 11.282666
v -28.920046 22.294935 23.762449
v 26.357555 22.294935 23.762449
v -28.239855 17.408085 23.941484
v 25.763830 17.408085 23.941484
v 26.357555 22.294935 36.868221
v -28.920046 22.294935 36.868221
v -28.239855 17.408085 36.868221
v 25.763830 17.408085 36.868221
v 14.681482 5.201221 11.908531
v 22.292963 5.201221 11.908531
v 14.305718 0.000000 12.289365
v 21.714052 0.000000 12.289365
v 24.195417 22.294935 36.868221
v 15.916634 22.294935 36.868221
v 14.305718 0.000000 36.868221
v 21.714052 0.000000 36.868221
v -22.637716 5.201221 11.908531
v -15.026299 5.201221 11.908531
v -22.017923 0.000000 12.289365
v -14.609544 0.000000 12.289365
v -16.395950 22.294935 36.868221
v -24.674734 22.294935 36.868221
v -22.017923 0.000000 36.868221
v -14.609544 0.000000 36.868221
vt 0.008755 0.149858
vt 0.008765 0.151859
vt 0.008765 0.151941
vt 0.008755 0.149939
vt 0.008804 0.149832
vt 0.008814 0.151833
vt 0.008804 0.149913
vt 0.008814 0.151915
vt 0.008853 0.192429
vt 0.008853 0.192152
vt 0.008886 0.192725
vt 0.008886 0.193003
vt 0.008735 0.193806
vt 0.008735 0.193528
vt 0.008702 0.192955
vt 0.008702 0.193232
vt 0.008755 0.149858
vt 0.008765 0.151859
vt 0.008765 0.151941
vt 0.008755 0.149939
vt 0.008804 0.149832
vt 0.008814 0.151833
vt 0.008804 0.149913
vt 0.008814 0.151915
vt 0.008755 0.149858
vt 0.008765 0.151859
vt 0.008765 0.151941
vt 0.008755 0.149939
vt 0.008804 0.149832
vt 0.008814 0.151833
vt 0.008804 0.149913
vt 0.008814 0.151915
vt 0.008755 0.149858
vt 0.008765 0.151859
vt 0.008765 0.151941
vt 0.008755 0.149939
vt 0.008804 0.149832
vt 0.008814 0.151833
vt 0.008804 0.149913
vt 0.008814 0.151915
vn 0.000000 -0.109184 -0.994022
vn 0.000000 -0.109184 -0.994022
vn 0.000000 -0.109184 -0.994022
vn 0.000000 -0.109184 -0.994022
vn 0.000000 1.000000 0.000000
vn 0.000000 1.000000 0.000000
vn 0.000000 1.000000 0.000000
vn 0.000000 1.000000 0.000000
vn -0.992189 -0.124744 0.000000
vn -0.992189 -0.124744 0.000000
vn -0.992189 -0.124744 0.000000
vn -0.992189 -0.124744 0.000000
vn 0.000000 -1.000000 0.000000
vn 0.000000 -1.000000 0.000000
vn 0.000000 -1.000000 0.000000
vn 0.000000 -1.000000 0.000000
vn 0.992700 -0.120607 0.000000
vn 0.992700 -0.120607 0.000000
vn 0.992700 -0.120607 0.000000
vn 0.992700 -0.120607 0.000000
vn 0.000000 0.073032 0.997330
vn 0.000000 0.073032 0.997330
vn 0.000000 0.073032 0.997330
vn 0.000000 0.073032 0.997330
vn -0.992189 -0.124744 -0.000000
vn -0.992189 -0.124744 -0.000000
vn -0.992189 -0.124744 -0.000000
vn -0.992189 -0.124744 -0.000000
vn 0.990452 -0.137860 0.000000
vn 0.990452 -0.137860 0.000000
vn 0.990452 -0.137860 0.000000
vn 0.990452 -0.137860 0.000000
vn 0.000000 0.036588 0.999330
vn 0.000000 0.036588 0.999330
vn 0.000000 0.036588 0.999330
vn 0.000000 0.036588 0.999330
vn 0.000000 -1.000000 0.000000
vn 0.000000 -1.000000 0.000000
vn 0.000000 -1.000000 0.000000
vn 0.000000 -1.000000 0.000000
vn 0.000000 -0.073031 -0.997330
vn 0.000000 -0.073031 -0.997330
vn 0.000000 -0.073031 -0.997330
vn 0.000000 -0.073031 -0.997330
vn 0.000000 1.000000 0.000000
vn 0.000000 1.000000 0.000000
vn 0.000000 1.000000 0.000000
vn 0.000000 1.000000 0.000000
vn 0.000000 -0.036589 -0.999330
vn 0.000000 -0.036589 -0.999330
vn 0.000000 -0.036589 -0.999330
vn 0.000000 -0.036589 -0.999330
vn 0.000000 1.000000 0.000000
vn 0.000000 1.000000 0.000000
vn 0.000000 1.000000 0.000000
vn 0.000000 1.000000 0.000000
vn -0.990452 -0.137859 0.000000
vn -0.990452 -0.137859 0.000000
vn -0.990452 -0.137859 0.000000
vn -0.990452 -0.137859 0.000000
vn 0.000000 -1.000000 0.000000
vn 0.000000 -1.000000 0.000000
vn 0.000000 -1.000000 0.000000
vn 0.000000 -1.000000 0.000000
vn 0.992700 -0.120607 0.000000
vn 0.992700 -0.120607 0.000000
vn 0.992700 -0.120607 0.000000
vn 0.992700 -0.120607 0.000000
vn 0.000000 0.000000 1.000000
vn 0.000000 0.000000 1.000000
vn 0.000000 0.000000 1.000000
vn 0.000000 0.000000 1.000000
vn 0.000000 -0.073032 -0.997330
vn 0.000000 -0.073032 -0.997330
vn 0.000000 -0.073032 -0.997330
vn 0.000000 -0.073032 -0.997330
vn 0.000000 0.825060 -0.565045
vn 0.000000 0.825060 -0.565045
vn 0.000000 0.825060 -0.565045
vn 0.000000 0.825060 -0.565045
vn -0.997400 0.072068 0.000000
vn -0.997400 0.072068 0.000000
vn -0.997400 0.072068 0.000000
vn -0.997400 0.072068 0.000000
vn 0.000000 -1.000000 0.000000
vn 0.000000 -1.000000 0.000000
vn 0.000000 -1.000000 0.000000
vn 0.000000 -1.000000 0.000000
vn 0.993863 -0.110614 -0.000000
vn 0.993863 -0.110614 -0.000000
vn 0.993863 -0.110614 -0.000000
vn 0.993863 -0.110614 -0.000000
vn 0.000000 0.000000 1.000000
vn 0.000000 0.000000 1.000000
vn 0.000000 0.000000 1.000000
vn 0.000000 0.000000 1.000000
vn 0.000000 -0.073032 -0.997330
vn 0.000000 -0.073032 -0.997330
vn 0.000000 -0.073032 -0.997330
vn 0.000000 -0.073032 -0.997330
vn 0.000000 0.825060 -0.565045
vn 0.000000 0.825060 -0.565045
vn 0.000000 0.825060 -0.565045
vn 0.000000 0.825060 -0.565045
vn -0.992974 -0.118331 -0.000000
vn -0.992974 -0.118331 -0.000000
vn -0.992974 -0.118331 -0.000000
vn -0.992974 -0.118331 -0.000000
vn 0.000000 -1.000000 0.000000
vn 0.000000 -1.000000 0.000000
vn 0.000000 -1.000000 0.000000
vn 0.000000 -1.000000 0.000000
vn 0.996805 0.079870 -0.000000
vn 0.996805 0.079870 -0.000000
vn 0.996805 0.079870 -0.000000
vn 0.996805 0.079870 -0.000000
vn 0.000000 0.000000 1.000000
vn 0.000000 0.000000 1.000000
vn 0.000000 0.000000 1.000000
vn 0.000000 0.000000 1.000000
s off
f 1/1/1 2/2/2 4/3/3 3/4/4
f 6/5/5 5/6/6 2/2/7 1/1/8
f 3/4/9 7/7/10 6/5/11 1/1/12
f 3/4/13 4/3/14 8/8/15 7/7/16
f 5/6/17 8/8/18 4/3/19 2/2/20
f 8/8/21 5/6/22 6/5/23 7/7/24
f 11/9/25 12/10/26 10/11/27 9/12/28
f 14/13/29 13/14/30 15/15/31 16/16/32
f 9/12/33 10/11/34 13/14/35 14/13/36
f 10/11/37 12/10/38 15/15/39 13/14/40
f 12/10/41 11/9/42 16/16/43 15/15/44
f 11/9/45 9/12/46 14/13/47 16/16/48
f 17/17/49 18/18/50 20/19/51 19/20/52
f 22/21/53 21/22/54 18/18/55 17/17/56
f 19/20/57 23/23/58 22/21/59 17/17/60
f 19/20/61 20/19/62 24/24/63 23/23/64
f 21/22/65 24/24/66 20/19/67 18/18/68
f 24/24/69 21/22/70 22/21/71 23/23/72
f 25/25/73 26/26/74 28/27/75 27/28/76
f 30/29/77 29/30/78 26/26/79 25/25/80
f 27/28/81 31/31/82 30/29/83 25/25/84
f 27/28/85 28/27/86 32/32/87 31/31/88
f 29/30/89 32/32/90 28/27/91 26/26/92
f 29/30/93 30/29/94 31/31/95 32/32/96
f 33/33/97 34/34/98 36/35/99 35/36/100
f 38/37/101 37/38/102 34/34/103 33/33/104
f 35/36/105 39/39/106 38/37/107 33/33/108
f 35/36/109 36/35/110 40/40/111 39/39/112
f 37/38/113 40/40/114 36/35/115 34/34/116
f 37/38/117 38/37/118 39/39/119 40/40/120
