# This file uses meters as units for non-parametric coordinates.

v -22.925249 5.201229 -1.121966
v 24.053001 5.201229 -1.121966
v -22.588253 0.000001 0.000000
v 23.727289 0.000001 0.000000
v 24.053001 5.201229 11.226336
v -22.925249 5.201229 11.226336
v -22.588253 0.000001 12.161319
v 23.727289 0.000001 12.161319
v -23.479048 13.748074 22.345415
v -23.136583 8.462921 23.105558
v -23.479048 13.748074 9.689903
v -23.136583 8.462921 10.640018
v 27.649403 8.462921 23.105558
v 28.028521 13.748074 22.345415
v 27.649403 8.462921 10.640018
v 28.028521 13.748074 9.689903
v -26.709652 22.294935 21.116320
v 25.123278 22.294935 21.116320
v -26.359114 17.408085 21.819115
v 24.817276 17.408085 21.819115
v 25.123278 22.294935 34.079170
v -26.709652 22.294935 34.079170
v -26.359114 17.408085 34.606236
v 24.817276 17.408085 34.606236
v -25.467714 30.841795 33.157288
v 28.540039 30.841795 33.157288
v -25.119081 25.640583 33.718300
v 28.176435 25.640583 33.718300
v 28.540039 30.841795 46.427471
v -25.467714 30.841795 46.427471
v -25.119081 25.640583 46.801441
v 28.176435 25.640583 46.801441
v -27.143797 39.388657 59.390324
v -26.775074 34.103458 59.580296
v -27.143797 39.388657 45.812923
v -26.775074 34.103458 46.192867
v 26.025358 34.103458 59.580296
v 26.358414 39.388657 59.390324
v 26.025358 34.103458 46.192867
v 26.358414 39.388657 45.812923
v -28.540071 47.935486 59.082985
v 26.737499 47.935486 59.082985
v -28.189627 43.048668 59.258717
v 26.431402 43.048668 59.258717
v 26.737499 47.935486 72.967659
v -28.540071 47.935486 72.967659
v -28.189627 43.048668 72.967659
v 26.431402 43.048668 72.967659
v 14.704354 5.201221 11.226336
v 22.123337 5.201221 11.226336
v 14.510552 0.000004 12.161319
v 21.824869 0.000004 12.161319
v 24.575361 47.935486 72.967659
v 16.296577 47.935486 72.967659
v 14.510552 0.000000 72.967659
v 21.824869 0.000000 72.967659
v -21.671232 5.201221 11.226336
v -14.252265 5.201221 11.226336
v -21.351910 0.000004 12.161319
v -14.037593 0.000004 12.161319
v -16.016006 47.935486 72.967659
v -24.294790 47.935486 72.967659
v -21.351910 0.000000 72.967659
v -14.037593 0.000000 72.967659
v -21.351910 0.000003 27.362886
v -23.559061 35.951614 72.967659
v 21.824869 0.000003 27.362886
v 23.887730 35.951614 72.967659
vt 0.008755 0.149858
vt 0.008765 0.151859
vt 0.008765 0.151941
vt 0.008755 0.149939
vt 0.008804 0.149832
vt 0.008814 0.151833
vt 0.008804 0.149913
vt 0.008814 0.151915
vt 0.008853 0.192429
vt 0.008853 0.192152
vt 0.008886 0.192725
vt 0.008886 0.193003
vt 0.008735 0.193806
vt 0.008735 0.193528
vt 0.008702 0.192955
vt 0.008702 0.193232
vt 0.008755 0.149858
vt 0.008765 0.151859
vt 0.008765 0.151941
vt 0.008755 0.149939
vt 0.008804 0.149832
vt 0.008814 0.151833
vt 0.008804 0.149913
vt 0.008814 0.151915
vt 0.008755 0.149858
vt 0.008765 0.151859
vt 0.008765 0.151941
vt 0.008755 0.149939
vt 0.008804 0.149832
vt 0.008814 0.151833
vt 0.008804 0.149913
vt 0.008814 0.151915
vt 0.008853 0.192429
vt 0.008853 0.192152
vt 0.008886 0.192725
vt 0.008886 0.193003
vt 0.008735 0.193806
vt 0.008735 0.193528
vt 0.008702 0.192955
vt 0.008702 0.193232
vt 0.008755 0.149858
vt 0.008765 0.151859
vt 0.008765 0.151941
vt 0.008755 0.149939
vt 0.008804 0.149832
vt 0.008814 0.151833
vt 0.008804 0.149913
vt 0.008814 0.151915
vt 0.008828 0.191784
vt 0.008839 0.193786
vt 0.008839 0.193867
vt 0.008828 0.191866
vt 0.008877 0.191758
vt 0.008888 0.193760
vt 0.008877 0.191839
vt 0.008888 0.193841
vt 0.008828 0.191784
vt 0.008839 0.193786
vt 0.008839 0.193867
vt 0.008828 0.191866
vt 0.008877 0.191758
vt 0.008888 0.193760
vt 0.008877 0.191839
vt 0.008888 0.193841
vt 0.008841 0.191859
vt 0.008877 0.191778
vt 0.008851 0.193861
vt 0.008888 0.193780
vt 0.008622 0.152229
vt 0.009030 0.152504
vt 0.008622 0.149309
vt 0.008695 0.150709
vt 0.008695 0.147788
vt 0.009102 0.150984
vn 0.000000 -0.210864 -0.977515
vn 0.000000 -0.210864 -0.977515
vn 0.000000 -0.210864 -0.977515
vn 0.000000 -0.210864 -0.977515
vn 0.000000 1.000000 0.000000
vn 0.000000 1.000000 0.000000
vn 0.000000 1.000000 0.000000
vn 0.000000 1.000000 0.000000
vn -0.997908 -0.064658 0.000000
vn -0.997908 -0.064658 0.000000
vn -0.997908 -0.064658 0.000000
vn -0.997908 -0.064658 0.000000
vn 0.000000 -1.000000 0.000000
vn 0.000000 -1.000000 0.000000
vn 0.000000 -1.000000 0.000000
vn 0.000000 -1.000000 0.000000
vn 0.998046 -0.062490 0.000000
vn 0.998046 -0.062490 0.000000
vn 0.998046 -0.062490 0.000000
vn 0.998046 -0.062490 0.000000
vn 0.000000 0.176926 0.984224
vn 0.000000 0.176926 0.984224
vn 0.000000 0.176926 0.984224
vn 0.000000 0.176926 0.984224
vn -0.997908 -0.064658 -0.000000
vn -0.997908 -0.064658 -0.000000
vn -0.997908 -0.064658 -0.000000
vn -0.997908 -0.064658 -0.000000
vn 0.997437 -0.071547 0.000000
vn 0.997437 -0.071547 0.000000
vn 0.997437 -0.071547 0.000000
vn 0.997437 -0.071547 0.000000
vn 0.000000 0.142345 0.989817
vn 0.000000 0.142345 0.989817
vn 0.000000 0.142345 0.989817
vn 0.000000 0.142345 0.989817
vn 0.000000 -1.000000 0.000000
vn 0.000000 -1.000000 0.000000
vn 0.000000 -1.000000 0.000000
vn 0.000000 -1.000000 0.000000
vn 0.000000 -0.176929 -0.984224
vn 0.000000 -0.176929 -0.984224
vn 0.000000 -0.176929 -0.984224
vn 0.000000 -0.176929 -0.984224
vn 0.000000 1.000000 -0.000000
vn 0.000000 1.000000 -0.000000
vn 0.000000 1.000000 -0.000000
vn 0.000000 1.000000 -0.000000
vn 0.000000 -0.142348 -0.989817
vn 0.000000 -0.142348 -0.989817
vn 0.000000 -0.142348 -0.989817
vn 0.000000 -0.142348 -0.989817
vn 0.000000 1.000000 0.000000
vn 0.000000 1.000000 0.000000
vn 0.000000 1.000000 0.000000
vn 0.000000 1.000000 0.000000
vn -0.997437 -0.071548 0.000000
vn -0.997437 -0.071548 0.000000
vn -0.997437 -0.071548 0.000000
vn -0.997437 -0.071548 0.000000
vn 0.000000 -1.000000 0.000000
vn 0.000000 -1.000000 0.000000
vn 0.000000 -1.000000 0.000000
vn 0.000000 -1.000000 0.000000
vn 0.998046 -0.062490 0.000000
vn 0.998046 -0.062490 0.000000
vn 0.998046 -0.062490 0.000000
vn 0.998046 -0.062490 0.000000
vn 0.000000 0.107239 0.994233
vn 0.000000 0.107239 0.994233
vn 0.000000 0.107239 0.994233
vn 0.000000 0.107239 0.994233
vn 0.000000 -0.107235 -0.994234
vn 0.000000 -0.107235 -0.994234
vn 0.000000 -0.107235 -0.994234
vn 0.000000 -0.107235 -0.994234
vn 0.000000 1.000000 0.000000
vn 0.000000 1.000000 0.000000
vn 0.000000 1.000000 0.000000
vn 0.000000 1.000000 0.000000
vn -0.997761 -0.066878 0.000000
vn -0.997761 -0.066878 0.000000
vn -0.997761 -0.066878 0.000000
vn -0.997761 -0.066878 0.000000
vn 0.000000 -1.000000 0.000000
vn 0.000000 -1.000000 0.000000
vn 0.000000 -1.000000 0.000000
vn 0.000000 -1.000000 0.000000
vn 0.997565 -0.069749 0.000000
vn 0.997565 -0.069749 0.000000
vn 0.997565 -0.069749 0.000000
vn 0.997565 -0.069749 0.000000
vn 0.000000 0.071720 0.997425
vn 0.000000 0.071720 0.997425
vn 0.000000 0.071720 0.997425
vn 0.000000 0.071720 0.997425
vn -0.997575 -0.069597 -0.000000
vn -0.997575 -0.069597 -0.000000
vn -0.997575 -0.069597 -0.000000
vn -0.997575 -0.069597 -0.000000
vn 0.998020 -0.062897 0.000000
vn 0.998020 -0.062897 0.000000
vn 0.998020 -0.062897 0.000000
vn 0.998020 -0.062897 0.000000
vn 0.000000 0.035930 0.999354
vn 0.000000 0.035930 0.999354
vn 0.000000 0.035930 0.999354
vn 0.000000 0.035930 0.999354
vn 0.000000 -1.000000 0.000000
vn 0.000000 -1.000000 0.000000
vn 0.000000 -1.000000 0.000000
vn 0.000000 -1.000000 0.000000
vn 0.000000 -0.071721 -0.997425
vn 0.000000 -0.071721 -0.997425
vn 0.000000 -0.071721 -0.997425
vn 0.000000 -0.071721 -0.997425
vn 0.000000 1.000000 0.000000
vn 0.000000 1.000000 0.000000
vn 0.000000 1.000000 0.000000
vn 0.000000 1.000000 0.000000
vn 0.000000 -0.035930 -0.999354
vn 0.000000 -0.035930 -0.999354
vn 0.000000 -0.035930 -0.999354
vn 0.000000 -0.035930 -0.999354
vn 0.000000 1.000000 0.000000
vn 0.000000 1.000000 0.000000
vn 0.000000 1.000000 0.000000
vn 0.000000 1.000000 0.000000
vn -0.997439 -0.071526 0.000000
vn -0.997439 -0.071526 0.000000
vn -0.997439 -0.071526 0.000000
vn -0.997439 -0.071526 0.000000
vn 0.000000 -1.000000 0.000000
vn 0.000000 -1.000000 0.000000
vn 0.000000 -1.000000 0.000000
vn 0.000000 -1.000000 0.000000
vn 0.998044 -0.062511 0.000000
vn 0.998044 -0.062511 0.000000
vn 0.998044 -0.062511 0.000000
vn 0.998044 -0.062511 0.000000
vn 0.000000 0.000000 1.000000
vn 0.000000 0.000000 1.000000
vn 0.000000 0.000000 1.000000
vn 0.000000 0.000000 1.000000
vn 0.000000 -0.176929 -0.984224
vn 0.000000 -0.176929 -0.984224
vn 0.000000 -0.176929 -0.984224
vn 0.000000 -0.176929 -0.984224
vn 0.000000 0.822253 -0.569122
vn 0.000000 0.822253 -0.569122
vn 0.000000 0.822253 -0.569122
vn 0.000000 0.822253 -0.569122
vn -0.999307 0.037233 -0.000000
vn -0.999307 0.037233 -0.000000
vn -0.999307 0.037233 -0.000000
vn -0.999307 0.037233 -0.000000
vn -0.000000 -1.000000 -0.000000
vn -0.000000 -1.000000 -0.000000
vn -0.000000 -1.000000 -0.000000
vn -0.000000 -1.000000 -0.000000
vn -0.000000 -1.000000 -0.000000
vn 0.998358 -0.057285 -0.000000
vn 0.998358 -0.057285 -0.000000
vn 0.998358 -0.057285 -0.000000
vn 0.000000 0.000000 1.000000
vn 0.000000 0.000000 1.000000
vn 0.000000 0.000000 1.000000
vn 0.000000 0.000000 1.000000
vn 0.000000 0.000000 1.000000
vn 0.000000 -0.176929 -0.984224
vn 0.000000 -0.176929 -0.984224
vn 0.000000 -0.176929 -0.984224
vn 0.000000 -0.176929 -0.984224
vn 0.000000 0.822253 -0.569122
vn 0.000000 0.822253 -0.569122
vn 0.000000 0.822253 -0.569122
vn 0.000000 0.822253 -0.569122
vn -0.998121 -0.061277 0.000000
vn -0.998121 -0.061277 0.000000
vn -0.998121 -0.061277 0.000000
vn -0.998121 -0.061277 0.000000
vn -0.998121 -0.061277 0.000000
vn 0.000000 -1.000000 -0.000000
vn 0.000000 -1.000000 -0.000000
vn 0.000000 -1.000000 -0.000000
vn 0.000000 -1.000000 -0.000000
vn 0.000000 -1.000000 -0.000000
vn 0.999149 0.041237 -0.000000
vn 0.999149 0.041237 -0.000000
vn 0.999149 0.041237 -0.000000
vn 0.999149 0.041237 -0.000000
vn 0.000000 0.000000 1.000000
vn 0.000000 0.000000 1.000000
vn 0.000000 0.000000 1.000000
vn 0.000000 0.000000 1.000000
vn 0.000000 0.000000 1.000000
vn -0.998121 -0.061277 -0.000000
vn -0.998121 -0.061277 -0.000000
vn -0.998121 -0.061277 -0.000000
vn 0.998358 -0.057285 -0.000000
vn 0.998358 -0.057285 -0.000000
vn 0.998358 -0.057285 -0.000000
vn 0.998358 -0.057285 -0.000000
vn 0.998358 -0.057285 -0.000000
s off
f 1/1/1 2/2/2 4/3/3 3/4/4
f 6/5/5 5/6/6 2/2/7 1/1/8
f 3/4/9 7/7/10 6/5/11 1/1/12
f 3/4/13 4/3/14 8/8/15 7/7/16
f 5/6/17 8/8/18 4/3/19 2/2/20
f 8/8/21 5/6/22 6/5/23 7/7/24
f 11/9/25 12/10/26 10/11/27 9/12/28
f 14/13/29 13/14/30 15/15/31 16/16/32
f 9/12/33 10/11/34 13/14/35 14/13/36
f 10/11/37 12/10/38 15/15/39 13/14/40
f 12/10/41 11/9/42 16/16/43 15/15/44
f 11/9/45 9/12/46 14/13/47 16/16/48
f 17/17/49 18/18/50 20/19/51 19/20/52
f 22/21/53 21/22/54 18/18/55 17/17/56
f 19/20/57 23/23/58 22/21/59 17/17/60
f 19/20/61 20/19/62 24/24/63 23/23/64
f 21/22/65 24/24/66 20/19/67 18/18/68
f 24/24/69 21/22/70 22/21/71 23/23/72
f 25/25/73 26/26/74 28/27/75 27/28/76
f 30/29/77 29/30/78 26/26/79 25/25/80
f 27/28/81 31/31/82 30/29/83 25/25/84
f 27/28/85 28/27/86 32/32/87 31/31/88
f 29/30/89 32/32/90 28/27/91 26/26/92
f 32/32/93 29/30/94 30/29/95 31/31/96
f 35/33/97 36/34/98 34/35/99 33/36/100
f 38/37/101 37/38/102 39/39/103 40/40/104
f 33/36/105 34/35/106 37/38/107 38/37/108
f 34/35/109 36/34/110 39/39/111 37/38/112
f 36/34/113 35/33/114 40/40/115 39/39/116
f 35/33/117 33/36/118 38/37/119 40/40/120
f 41/41/121 42/42/122 44/43/123 43/44/124
f 46/45/125 45/46/126 42/42/127 41/41/128
f 43/44/129 47/47/130 46/45/131 41/41/132
f 43/44/133 44/43/134 48/48/135 47/47/136
f 45/46/137 48/48/138 44/43/139 42/42/140
f 48/48/141 45/46/142 46/45/143 47/47/144
f 49/49/145 50/50/146 52/51/147 51/52/148
f 54/53/149 53/54/150 50/50/151 49/49/152
f 51/52/153 55/55/154 54/53/155 49/49/156
f 51/52/157 52/51/158 67/67/159 56/56/160 55/55/161
f 56/69/162 67/70/163 68/71/164
f 53/54/165 54/53/166 55/55/167 56/56/168 68/68/169
f 57/57/170 58/58/171 60/59/172 59/60/173
f 62/61/174 61/62/175 58/58/176 57/57/177
f 59/60/178 65/65/179 66/66/180 62/61/181 57/57/182
f 59/60/183 60/59/184 64/64/185 63/63/186 65/65/187
f 61/62/188 64/64/189 60/59/190 58/58/191
f 61/62/192 62/61/193 66/66/194 63/63/195 64/64/196
f 63/72/197 66/73/198 65/74/199
f 53/54/200 68/68/201 67/67/202 52/51/203 50/50/204
