# This file uses meters as units for non-parametric coordinates.

v -117.796326 2.056669 241.026337
v -117.796356 2.056669 758.973633
v 117.796310 -1.863004 241.026337
v 117.796280 -1.863004 758.973633
v -102.128632 63.275043 662.698364
v 102.128571 63.275043 662.698364
v -90.370209 81.925011 551.024658
v 90.370148 81.925011 551.024658
v -90.370209 69.372650 444.593842
v 90.370163 65.452965 444.593842
v -102.128632 63.685989 346.089935
v 102.128586 63.685989 346.089935
v -117.796326 -45.908310 241.026337
v 117.796310 -45.908310 241.026337
v -117.796356 -45.908310 758.973633
v 117.796280 -45.908310 758.973633
v -102.128632 14.867151 656.625366
v 102.128571 14.867151 656.625366
v -90.370209 36.187363 551.024658
v 90.370148 36.187363 551.024658
v -90.370209 35.360569 444.593842
v 90.370163 35.360569 444.593842
v -102.128632 12.446308 353.741425
v 102.128586 12.446308 353.741425
v 67.610138 81.925011 551.024658
v 76.408356 63.275043 662.698364
v 88.130142 14.802134 758.973633
v 88.130173 14.802134 241.026337
v 76.408371 63.685989 346.089935
v 67.610153 82.118134 444.592987
v -67.611725 81.925011 551.024658
v -76.408417 63.275043 662.698364
v -88.130219 14.802134 758.973633
v -88.130188 14.802134 241.026337
v -76.408417 63.685989 346.089935
v -67.611725 82.118134 444.592987
v -117.796326 58.207939 241.026337
v -88.130188 58.207939 241.026337
v -117.796356 58.207939 758.973633
v -88.130219 58.207939 758.973633
v -102.128632 106.124496 671.602661
v -76.408417 106.124496 671.602661
v -90.370209 125.330826 551.024658
v -67.611725 125.330826 551.024658
v -90.370209 125.523933 444.593842
v -67.611725 125.523933 444.592987
v -102.128601 106.307220 335.523163
v -76.408386 106.307220 335.523163
v 67.610138 125.330826 551.024658
v 90.370148 125.330826 551.024658
v 76.408356 106.124496 671.602661
v 102.128571 106.124496 671.602661
v 88.130142 58.207939 758.973633
v 117.796280 58.207939 758.973633
v 117.796310 58.207939 241.026337
v 88.130173 58.207939 241.026337
v 76.408371 106.307220 335.523163
v 102.128586 106.307220 335.523163
v 67.610153 125.523933 444.592987
v 90.370163 125.523933 444.593842
v -117.796356 -171.418945 758.973633
v -101.834137 -60.430954 656.625366
v 101.832550 -60.430954 656.625366
v 117.796280 -171.418945 758.973633
v -101.834137 -60.488747 353.741425
v -117.796326 -171.418945 241.026337
v 117.796310 -171.418945 241.026337
v 101.832565 -60.488747 353.741425
vt 0.144483 0.246643
vt 0.144483 0.246643
vt 0.144483 0.246643
vt 0.144483 0.246643
vt 0.144483 0.246643
vt 0.144483 0.246643
vt 0.144483 0.246643
vt 0.144483 0.246643
vt 0.144483 0.246643
vt 0.144483 0.246643
vt 0.144483 0.246643
vt 0.144483 0.246643
vt 0.144483 0.246643
vt 0.144483 0.246643
vt 0.144483 0.246643
vt 0.144483 0.246643
vt 0.144483 0.246643
vt 0.144483 0.246643
vt 0.143638 0.271233
vt 0.143638 0.271233
vt 0.143638 0.271233
vt 0.143638 0.271233
vt 0.143638 0.271233
vt 0.143638 0.271233
vt 0.143638 0.271233
vt 0.143638 0.271233
vt 0.143638 0.271233
vt 0.143638 0.271233
vt 0.143638 0.271233
vt 0.143638 0.271233
vt 0.143638 0.271233
vt 0.143638 0.271233
vt 0.143638 0.271233
vt 0.143638 0.271233
vt 0.143638 0.271233
vt 0.143638 0.271233
vt 0.143638 0.271233
vt 0.143638 0.271233
vt 0.143638 0.271233
vt 0.143638 0.271233
vt 0.143638 0.271233
vt 0.143638 0.271233
vt 0.143638 0.271233
vt 0.144483 0.246643
vt 0.144483 0.246643
vt 0.143638 0.271233
vt 0.144483 0.246643
vt 0.144483 0.246643
vt 0.144483 0.246643
vt 0.143638 0.271233
vt 0.144483 0.246643
vt 0.144483 0.246643
vt 0.144483 0.246643
vt 0.143638 0.271233
vt 0.143638 0.271233
vt 0.143638 0.271233
vt 0.143638 0.271233
vt 0.452209 0.287746
vt 0.143638 0.271233
vt 0.143638 0.271233
vt 0.452209 0.287746
vt 0.143638 0.271233
vt 0.143638 0.271233
vt 0.143638 0.271233
vt 0.143638 0.271233
vt 0.144483 0.246643
vt 0.143638 0.271233
vt 0.452209 0.287750
vt 0.143638 0.271233
vt 0.143638 0.271233
vt 0.143638 0.271233
vt 0.143638 0.271233
vt 0.452209 0.287750
vt 0.143638 0.271233
vt 0.143638 0.271233
vt 0.143638 0.271233
vt 0.143638 0.271233
vt 0.452209 0.287746
vt 0.144483 0.246643
vt 0.143638 0.271233
vt 0.143638 0.271233
vt 0.452209 0.287750
vt 0.143638 0.271233
vt 0.143638 0.271233
vt 0.452209 0.287750
vt 0.452209 0.287746
vt 0.143638 0.271233
vt 0.452209 0.287743
vt 0.143638 0.271233
vt 0.452209 0.287743
vt 0.143638 0.271233
vt 0.452209 0.287750
vt 0.143638 0.271233
vt 0.452209 0.287750
vt 0.143638 0.271233
vt 0.452225 0.287743
vt 0.143638 0.271233
vt 0.452225 0.287743
vt 0.143638 0.271233
vt 0.452225 0.287750
vt 0.143638 0.271233
vt 0.452225 0.287750
vt 0.143638 0.271233
vt 0.452225 0.287746
vt 0.143638 0.271233
vt 0.452225 0.287746
vt 0.143638 0.271233
vt 0.452225 0.287746
vt 0.143638 0.271233
vt 0.452225 0.287746
vt 0.143638 0.271233
vt 0.452225 0.287750
vt 0.143638 0.271233
vt 0.452225 0.287750
vt 0.143638 0.271233
vt 0.452225 0.287750
vt 0.143638 0.271233
vt 0.452225 0.287750
vt 0.143638 0.271233
vt 0.452225 0.287750
vt 0.143638 0.271233
vt 0.143638 0.271233
vt 0.452209 0.287750
vt 0.143638 0.271233
vt 0.143638 0.271233
vt 0.143638 0.271233
vt 0.143638 0.271233
vt 0.143638 0.271233
vt 0.143638 0.271233
vt 0.143638 0.271233
vt 0.143638 0.271233
vt 0.143638 0.271233
vt 0.143638 0.271233
vt 0.143638 0.271233
vt 0.143638 0.271233
vt 0.143638 0.271233
vt 0.143638 0.271233
vt 0.143638 0.271233
vt 0.143638 0.271233
vt 0.143638 0.271233
vt 0.143638 0.271233
vt 0.143638 0.271233
vt 0.143638 0.271233
vt 0.143638 0.271233
vt 0.143638 0.271233
vt 0.452209 0.287746
vt 0.452225 0.287746
vt 0.452209 0.287748
vt 0.143638 0.271233
vt 0.143638 0.271233
vt 0.452225 0.287748
vt 0.452225 0.287748
vt 0.143638 0.271233
vt 0.143638 0.271233
vt 0.452209 0.287748
vt 0.143638 0.271233
vt 0.452209 0.287746
vt 0.452225 0.287746
vt 0.143638 0.271233
vt 0.143638 0.271233
vt 0.143638 0.271233
vt 0.143638 0.271233
vt 0.452209 0.287750
vt 0.452225 0.287750
vt 0.143638 0.271233
vt 0.143638 0.271233
vt 0.143638 0.271233
vt 0.143638 0.271233
vt 0.143638 0.271233
vt 0.143638 0.271233
vt 0.143638 0.271233
vt 0.143638 0.271233
vt 0.143638 0.271233
vt 0.143638 0.271233
vt 0.143638 0.271233
vt 0.143638 0.271233
vt 0.143638 0.271233
vt 0.143638 0.271233
vt 0.143638 0.271233
vt 0.143638 0.271233
vt 0.143638 0.271233
vt 0.143638 0.271233
vt 0.143638 0.271233
vt 0.143638 0.271233
vt 0.143638 0.271233
vt 0.143638 0.271233
vt 0.143638 0.271233
vt 0.143638 0.271233
vn 0.000000 0.891194 -0.453622
vn 0.000000 0.891195 -0.453622
vn -0.000001 0.942394 -0.334504
vn -0.000001 0.949171 -0.314762
vn 0.000000 0.876798 0.480859
vn 0.000000 0.951362 0.308076
vn 0.000000 0.943617 0.331041
vn 0.000000 0.876798 0.480859
vn 0.000000 0.951362 0.308076
vn 0.000000 0.996315 0.085773
vn 0.000000 0.995954 0.089866
vn 0.000000 0.943617 0.331041
vn 0.000000 0.996315 0.085773
vn -0.000001 0.996082 -0.088431
vn -0.000001 0.995614 -0.093554
vn 0.000000 0.995954 0.089866
vn -0.000001 0.996082 -0.088431
vn -0.000001 0.949171 -0.314762
vn -0.000001 0.942394 -0.334504
vn -0.000001 0.995614 -0.093554
vn 0.990606 0.010946 0.136308
vn 0.990606 0.010946 0.136308
vn 0.990606 0.010946 0.136308
vn 0.990606 0.010946 0.136308
vn -0.988617 0.009462 -0.150156
vn -0.988617 0.009462 -0.150156
vn -0.988617 0.009462 -0.150156
vn -0.988617 0.009462 -0.150156
vn 0.988676 0.009836 -0.149741
vn 0.988676 0.009836 -0.149741
vn 0.988676 0.009836 -0.149741
vn 0.988676 0.009836 -0.149741
vn -0.994304 0.006861 -0.106357
vn -0.994304 0.006861 -0.106357
vn -0.994304 0.006861 -0.106357
vn -0.994304 0.006861 -0.106357
vn 0.994304 0.006861 -0.106357
vn 0.994304 0.006861 -0.106357
vn 0.994304 0.006861 -0.106357
vn 0.994304 0.006861 -0.106357
vn -1.000000 0.000000 -0.000000
vn -1.000000 0.000000 -0.000000
vn -1.000000 0.000000 -0.000000
vn -1.000000 0.000000 -0.000000
vn 1.000000 0.000000 0.000000
vn 1.000000 0.000000 0.000000
vn 1.000000 0.000000 0.000000
vn 1.000000 0.000000 0.000000
vn -0.992517 0.010915 0.121616
vn -0.992517 0.010915 0.121616
vn -0.992517 0.010915 0.121616
vn -0.992517 0.010915 0.121616
vn 0.992492 0.011456 0.121768
vn 0.992492 0.011456 0.121768
vn 0.992492 0.011456 0.121768
vn 0.992492 0.011456 0.121768
vn -0.990554 0.010545 0.136718
vn -0.990554 0.010545 0.136718
vn -0.990554 0.010545 0.136718
vn -0.990554 0.010545 0.136718
vn -0.000000 0.995954 0.089864
vn -0.000000 0.996315 0.085771
vn 0.000000 0.951363 0.308073
vn 0.000000 0.943617 0.331038
vn 0.000000 0.943617 0.331038
vn 0.000000 0.951363 0.308073
vn 0.000000 0.876798 0.480859
vn 0.000000 0.876798 0.480859
vn 0.000000 0.000000 1.000000
vn 0.000000 0.000000 1.000000
vn -0.000000 0.000000 1.000000
vn 0.000000 0.000000 1.000000
vn 0.000000 0.000000 1.000000
vn -0.000000 0.000000 1.000000
vn -0.000001 0.000000 1.000000
vn -0.000000 0.000000 1.000000
vn -0.000000 0.000000 1.000000
vn 0.000000 0.000000 1.000000
vn -0.000000 0.000000 1.000000
vn -0.000000 0.000000 1.000000
vn 0.000000 -0.677915 -0.735141
vn 0.000000 -0.677915 -0.735141
vn 0.000000 -0.677915 -0.735141
vn 0.000000 -0.677915 -0.735141
vn 0.000000 -0.994691 -0.102907
vn 0.000000 -0.980222 -0.197902
vn 0.000000 -0.980222 -0.197902
vn 0.000000 -0.994691 -0.102907
vn 0.000000 -0.991801 0.127789
vn 0.000000 -0.994691 -0.102907
vn 0.000000 -0.994691 -0.102907
vn 0.000000 -0.991801 0.127789
vn 0.000000 -0.969635 0.244556
vn 0.000000 -0.991801 0.127789
vn 0.000000 -0.991801 0.127789
vn 0.000000 -0.969635 0.244556
vn 0.000000 -0.712728 0.701441
vn 0.000000 -0.712728 0.701441
vn 0.000000 -0.712728 0.701441
vn 0.000000 -0.712728 0.701441
vn 0.000002 0.000000 -1.000000
vn 0.000000 0.000000 -1.000000
vn 0.000000 0.000000 -1.000000
vn 0.000000 0.000000 -1.000000
vn 0.000000 0.000000 -1.000000
vn 0.000000 0.000000 -1.000000
vn 0.000000 0.000000 -1.000000
vn 0.000000 0.000000 -1.000000
vn 0.000000 0.000000 -1.000000
vn 0.000000 0.000000 -1.000000
vn 0.000000 0.000000 -1.000000
vn 0.000000 0.000000 -1.000000
vn 0.000000 0.891195 -0.453622
vn 0.000000 0.891194 -0.453622
vn 0.000001 0.949171 -0.314760
vn 0.000001 0.942395 -0.334502
vn 0.000001 0.942395 -0.334502
vn 0.000001 0.949171 -0.314760
vn 0.000001 0.996083 -0.088429
vn 0.000001 0.995614 -0.093552
vn 0.000001 0.995614 -0.093552
vn 0.000001 0.996083 -0.088429
vn -0.000000 0.996315 0.085771
vn -0.000000 0.995954 0.089864
vn 0.000000 0.995887 0.090600
vn 0.000000 0.995887 0.090600
vn 0.000000 0.945664 0.325145
vn 0.000000 0.945664 0.325146
vn 0.000000 0.945664 0.325146
vn 0.000000 0.945664 0.325145
vn 0.000000 0.893180 0.449700
vn 0.000000 0.893180 0.449700
vn 0.000000 0.906665 -0.421852
vn 0.000000 0.906665 -0.421852
vn 0.000000 0.944423 -0.328732
vn 0.000000 0.944423 -0.328733
vn 0.000000 0.944423 -0.328733
vn 0.000000 0.944423 -0.328732
vn 0.000000 0.995561 -0.094117
vn 0.000000 0.995561 -0.094117
vn 0.000000 0.995561 -0.094117
vn 0.000000 0.995561 -0.094117
vn 0.000000 0.995887 0.090600
vn 0.000000 0.995887 0.090600
vn -0.989060 0.015692 0.146676
vn -0.989060 0.015692 0.146676
vn -0.989060 0.015692 0.146676
vn -0.989060 0.015692 0.146676
vn 0.000000 0.000000 -1.000000
vn 0.000000 0.000000 -1.000000
vn 0.000000 0.000000 -1.000000
vn 0.000000 0.000000 -1.000000
vn 0.000000 0.000000 1.000000
vn 0.000000 0.000000 1.000000
vn 0.000000 0.000000 1.000000
vn 0.000000 0.000000 1.000000
vn 0.992671 -0.012409 0.120208
vn 0.992671 -0.012409 0.120208
vn 0.992671 -0.012409 0.120208
vn 0.992671 -0.012409 0.120208
vn -0.987033 0.014379 -0.159872
vn -0.987033 0.014379 -0.159872
vn -0.987033 0.014379 -0.159872
vn -0.987033 0.014379 -0.159872
vn 0.997207 -0.007669 0.074290
vn 0.997207 -0.007669 0.074290
vn 0.997207 -0.007669 0.074290
vn 0.997207 -0.007669 0.074290
vn -0.995026 0.010229 -0.099085
vn -0.995026 0.010229 -0.099085
vn -0.995026 0.010229 -0.099085
vn -0.995026 0.010229 -0.099085
vn 1.000000 0.000000 0.000000
vn 1.000000 0.000000 0.000000
vn 1.000000 0.000000 0.000000
vn 1.000000 0.000000 0.000000
vn -1.000000 0.000000 -0.000000
vn -1.000000 0.000000 -0.000000
vn -1.000000 0.000000 -0.000000
vn -1.000000 0.000000 -0.000000
vn 0.996529 -0.010149 -0.082623
vn 0.996529 -0.010149 -0.082623
vn 0.996529 -0.010149 -0.082623
vn 0.996529 -0.010149 -0.082623
vn -0.993732 0.011892 0.111157
vn -0.993732 0.011892 0.111157
vn -0.993732 0.011892 0.111157
vn -0.993732 0.011892 0.111157
vn 0.993820 -0.013533 -0.110173
vn 0.993820 -0.013533 -0.110173
vn 0.993820 -0.013533 -0.110173
vn 0.993820 -0.013533 -0.110173
vn -0.997206 -0.007671 0.074303
vn -0.997206 -0.007671 0.074303
vn -0.997206 -0.007671 0.074303
vn -0.997206 -0.007671 0.074303
vn 0.995026 0.010229 -0.099085
vn 0.995026 0.010229 -0.099085
vn 0.995026 0.010229 -0.099085
vn 0.995026 0.010229 -0.099085
vn -0.992671 -0.012409 0.120208
vn -0.992671 -0.012409 0.120207
vn -0.992671 -0.012409 0.120207
vn -0.992671 -0.012409 0.120208
vn 0.000003 0.000000 1.000000
vn 0.000003 0.000000 1.000000
vn 0.000003 0.000000 1.000000
vn 0.000003 0.000000 1.000000
vn 0.987036 0.013834 -0.159901
vn 0.987036 0.013834 -0.159901
vn 0.987036 0.013834 -0.159901
vn 0.987036 0.013834 -0.159901
vn -0.000001 0.000000 -1.000000
vn -0.000001 0.000000 -1.000000
vn -0.000001 0.000000 -1.000000
vn -0.000001 0.000000 -1.000000
vn -0.993820 -0.013533 -0.110174
vn -0.993820 -0.013533 -0.110174
vn -0.993820 -0.013533 -0.110174
vn -0.993820 -0.013533 -0.110174
vn 0.989065 0.015096 0.146708
vn 0.989065 0.015096 0.146708
vn 0.989065 0.015096 0.146708
vn 0.989065 0.015096 0.146708
vn -0.996528 -0.010150 -0.082637
vn -0.996528 -0.010150 -0.082637
vn -0.996528 -0.010150 -0.082637
vn -0.996528 -0.010150 -0.082637
vn 0.993707 0.011465 0.111422
vn 0.993707 0.011465 0.111422
vn 0.993707 0.011465 0.111422
vn 0.993707 0.011465 0.111422
vn -1.000000 0.000000 -0.000000
vn -1.000000 0.000000 -0.000000
vn -1.000000 0.000000 -0.000000
vn -1.000000 0.000000 -0.000000
vn 1.000000 0.000000 0.000000
vn 1.000000 0.000000 0.000000
vn 1.000000 0.000000 0.000000
vn 1.000000 0.000000 0.000000
vn -0.988086 -0.001449 -0.153896
vn -0.988086 -0.001449 -0.153896
vn -0.988086 -0.001449 -0.153896
vn -0.988086 -0.001449 -0.153896
vn 0.000000 0.000000 -1.000000
vn 0.000000 0.000000 -1.000000
vn 0.000000 0.000000 -1.000000
vn 0.000000 0.000000 -1.000000
vn 0.988084 -0.001457 -0.153909
vn 0.988084 -0.001457 -0.153909
vn 0.988084 -0.001457 -0.153909
vn 0.988084 -0.001457 -0.153909
vn 0.000000 0.000000 1.000000
vn 0.000000 0.000000 1.000000
vn 0.000000 0.000000 1.000000
vn 0.000000 0.000000 1.000000
vn -0.990146 -0.001469 0.140030
vn -0.990146 -0.001469 0.140030
vn -0.990146 -0.001469 0.140030
vn -0.990146 -0.001469 0.140030
vn 0.000000 0.000000 -1.000000
vn 0.000000 0.000000 -1.000000
vn 0.000000 0.000000 -1.000000
vn 0.000000 0.000000 -1.000000
vn 0.990144 -0.001477 0.140042
vn 0.990144 -0.001477 0.140042
vn 0.990144 -0.001477 0.140042
vn 0.990144 -0.001477 0.140042
vn 0.000000 0.000000 1.000000
vn 0.000000 0.000000 1.000000
vn 0.000000 0.000000 1.000000
vn 0.000000 0.000000 1.000000
s off
f 38/58/1 37/61/2 47/68/3 48/73/4
f 40/78/5 42/82/6 41/85/7 39/86/8
f 42/82/9 44/88/10 43/90/11 41/85/12
f 44/88/13 46/92/14 45/94/15 43/90/16
f 46/92/17 48/73/18 47/68/19 45/94/20
f 14/1/21 3/2/22 12/3/23 24/4/24
f 15/8/25 2/9/26 5/10/27 17/11/28
f 18/13/29 6/14/30 4/15/31 16/16/32
f 17/11/33 5/10/34 7/17/35 19/18/36
f 20/44/37 8/45/38 6/14/39 18/13/40
f 19/18/41 7/17/42 9/47/43 21/48/44
f 22/49/45 10/51/46 8/45/47 20/44/48
f 21/48/49 9/47/50 11/52/51 23/53/52
f 24/4/53 12/3/54 10/51/55 22/49/56
f 13/6/57 23/53/58 11/52/59 1/7/60
f 50/96/61 49/98/62 51/100/63 52/102/64
f 52/102/65 51/100/66 53/104/67 54/106/68
f 16/16/69 4/15/70 15/8/71
f 4/15/72 27/66/73 15/8/74
f 2/9/75 15/8/76 33/12/77
f 27/66/78 33/12/79 15/8/80
f 63/130/81 64/131/82 61/124/83 62/125/84
f 20/46/85 18/137/86 17/43/87 19/140/88
f 22/50/89 20/138/90 19/139/91 21/143/92
f 24/54/93 22/141/94 21/142/95 23/144/96
f 67/134/97 68/135/98 65/127/99 66/128/100
f 3/2/101 14/1/102 28/79/103
f 14/1/104 13/6/105 28/79/106
f 1/7/107 34/5/108 13/6/109
f 34/5/110 28/79/111 13/6/112
f 55/108/113 56/110/114 57/112/115 58/114/116
f 58/114/117 57/112/118 59/116/119 60/118/120
f 60/118/121 59/116/122 49/98/123 50/96/124
f 25/120/125 31/123/126 32/146/127 26/147/128
f 26/147/129 32/146/130 33/148/131 27/151/132
f 28/152/133 34/155/134 35/157/135 29/158/136
f 29/158/137 35/157/138 36/163/139 30/164/140
f 30/164/141 36/163/142 31/123/143 25/120/144
f 37/84/145 1/19/146 11/37/147 47/182/148
f 34/150/149 1/19/150 37/84/151 38/177/152
f 2/21/153 33/75/154 40/87/155 39/180/156
f 40/87/157 33/75/158 32/154/159 42/89/160
f 39/180/161 41/184/162 5/23/163 2/21/164
f 42/91/165 32/74/166 31/71/167 44/93/168
f 41/183/169 43/188/170 7/27/171 5/25/172
f 44/95/173 31/72/174 36/145/175 46/97/176
f 43/187/177 45/185/178 9/31/179 7/29/180
f 46/99/181 36/83/182 35/80/183 48/101/184
f 45/186/185 47/181/186 11/35/187 9/33/188
f 38/177/189 48/103/190 35/81/191 34/150/192
f 49/159/193 25/57/194 26/60/195 51/107/196
f 50/105/197 52/174/198 6/26/199 8/28/200
f 51/109/201 26/59/202 27/153/203 53/173/204
f 27/153/205 4/22/206 54/111/207 53/173/208
f 52/175/209 54/111/210 4/22/211 6/24/212
f 3/20/213 28/65/214 56/113/215 55/170/216
f 56/113/217 28/65/218 29/149/219 57/115/220
f 55/170/221 58/167/222 12/38/223 3/20/224
f 57/117/225 29/67/226 30/70/227 59/119/228
f 58/168/229 60/161/230 10/34/231 12/36/232
f 59/121/233 30/69/234 25/156/235 49/160/236
f 60/162/237 50/122/238 8/30/239 10/32/240
f 15/40/241 17/41/242 62/125/243 61/124/244
f 63/129/245 62/125/246 17/41/247 18/77/248
f 18/76/249 16/55/250 64/179/251 63/126/252
f 64/178/253 16/55/254 15/40/255 61/124/256
f 23/39/257 13/56/258 66/176/259 65/172/260
f 67/133/261 66/171/262 13/56/263 14/63/264
f 14/64/265 24/169/266 68/166/267 67/136/268
f 68/132/269 24/62/270 23/42/271 65/165/272
