# This file uses meters as units for non-parametric coordinates.

v 34.003036 75.749336 18.772760
v 32.771683 31.753826 29.910788
v 24.621424 73.116173 8.745003
v 23.421797 29.298433 19.838079
v 24.219576 31.753826 29.910788
v 25.461927 75.749336 18.772760
v 31.381130 28.248629 14.901797
v 32.980568 71.690620 3.903961
v 31.888327 35.802143 17.374357
v 32.845592 37.503242 24.722672
v 33.413948 68.223953 16.945393
v 33.016556 66.223587 9.672801
v -34.003006 75.749336 18.772760
v -32.317863 31.753826 29.910788
v -24.167505 73.116173 8.745067
v -22.967911 29.298433 19.838015
v -23.765692 31.753826 29.910788
v -25.008011 75.749336 18.772760
v -30.927309 28.248629 14.901860
v -32.526749 71.690620 3.903961
v -31.434504 35.802143 17.374292
v -32.391769 37.503242 24.722609
v -33.563202 68.223953 16.945332
v -32.562733 66.223587 9.672801
v -22.956562 33.913391 13.467725
v -23.830542 66.025925 5.338033
v 24.284363 66.025925 5.338033
v 23.410383 33.913391 13.467789
v 29.872068 0.000000 13.816579
v 29.872068 0.000000 -28.825378
v 29.872068 0.000000 -22.326979
v 29.872068 0.000000 7.318115
v 22.081947 0.000000 -28.825378
v 22.081947 0.000000 -22.326979
v 22.081947 0.000000 7.318115
v 22.081947 0.000000 13.816579
v 22.941557 21.827602 -29.664007
v 24.314245 21.827602 14.655177
v 31.038094 21.827602 14.655177
v 31.038094 21.827602 7.901128
v 31.038094 21.827602 -22.909990
v 31.038094 21.827602 -29.664007
v 31.381130 28.248629 14.901860
v 31.381130 28.248629 -29.910723
v -29.418245 0.000000 13.816579
v -29.418245 0.000000 -28.825378
v -29.418245 0.000000 -22.326979
v -29.418245 0.000000 7.318115
v -21.628061 0.000000 -28.825378
v -21.628061 0.000000 -22.326979
v -21.628061 0.000000 7.318115
v -21.628061 0.000000 13.816579
v -22.487673 21.827602 -29.664007
v -22.487673 21.827602 14.655177
v -30.584303 21.827602 14.655177
v -30.584303 21.827602 7.901128
v -30.584303 21.827602 -22.909990
v -30.584303 21.827602 -29.664007
v -30.927309 28.248629 14.901860
v -30.927309 28.248629 -29.910723
v 5.905596 21.827602 -29.664007
v -5.451719 21.827602 -29.664007
v -5.415455 18.144766 -29.522514
v 5.869333 18.144766 -29.522514
v 22.455153 28.248629 8.448410
v -22.402573 28.248629 8.448410
v 22.455153 28.248629 -23.813534
v -22.402573 28.248629 -23.813534
v 11.943213 35.364979 0.984192
v -13.549232 38.250858 2.624639
v 10.739915 33.772980 -17.824554
v -15.068531 36.329269 -16.210049
v -1.111229 32.669891 -17.144266
v -1.346382 28.248629 -23.813534
v -0.154709 34.960110 1.752281
v -1.346382 28.248629 8.448410
vt 0.008848 0.702490
vt 0.008773 0.700409
vt 0.197400 0.190499
vt 0.009389 0.700007
vt 0.196990 0.189941
vt 0.008736 0.701056
vt 0.197660 0.189349
vt 0.200398 0.189484
vt 0.200808 0.190042
vt 0.008836 0.703394
vt 0.009290 0.702665
vt 0.200289 0.188312
vt 0.009189 0.701104
vt 0.009227 0.699680
vt 0.199878 0.188185
vt 0.197509 0.188503
vt 0.200289 0.189748
vt 0.199898 0.188595
vt 0.197920 0.190066
vt 0.198115 0.189293
vt 0.008848 0.702490
vt 0.008773 0.700409
vt 0.197400 0.190499
vt 0.196990 0.189941
vt 0.200398 0.189484
vt 0.200808 0.190042
vt 0.200289 0.188312
vt 0.199878 0.188185
vt 0.197509 0.188503
vt 0.197920 0.188630
vt 0.009152 0.702001
vt 0.009227 0.699680
vt 0.200289 0.189748
vt 0.199898 0.188595
vt 0.197920 0.190066
vt 0.198310 0.188808
vt 0.008736 0.701056
vt 0.008836 0.703394
vt 0.009290 0.702665
vt 0.009389 0.700007
vt 0.200808 0.190042
vt 0.197400 0.190499
vt 0.197400 0.190499
vt 0.200808 0.190042
vt 0.146018 0.017186
vt 0.146036 0.022530
vt 0.145050 0.022379
vt 0.145032 0.017035
vt 0.009227 0.694613
vt 0.009290 0.694976
vt 0.009389 0.694816
vt 0.009326 0.694453
vt 0.008773 0.695342
vt 0.008836 0.695705
vt 0.008736 0.695865
vt 0.008674 0.695502
vt 0.200642 0.199748
vt 0.200231 0.199749
vt 0.200231 0.199732
vt 0.200642 0.199731
vt 0.200122 0.199730
vt 0.200122 0.199747
vt 0.008773 0.698745
vt 0.009227 0.698016
vt 0.197234 0.199744
vt 0.197753 0.199744
vt 0.197753 0.199728
vt 0.197234 0.199727
vt 0.196823 0.199728
vt 0.196823 0.199745
vt 0.200642 0.199752
vt 0.197234 0.199748
vt 0.009227 0.694613
vt 0.009326 0.694453
vt 0.009389 0.694816
vt 0.009290 0.694976
vt 0.008736 0.695865
vt 0.008674 0.695502
vt 0.008773 0.695342
vt 0.008836 0.695705
vt 0.200642 0.199748
vt 0.200642 0.199731
vt 0.200231 0.199732
vt 0.200231 0.199749
vt 0.200122 0.199747
vt 0.200122 0.199730
vt 0.008773 0.698745
vt 0.009227 0.698016
vt 0.197234 0.199744
vt 0.197234 0.199727
vt 0.197753 0.199728
vt 0.197753 0.199744
vt 0.196823 0.199728
vt 0.196823 0.199745
vt 0.200642 0.199752
vt 0.197234 0.199748
vt 0.196823 0.199745
vt 0.196823 0.199745
vt 0.009389 0.698219
vt 0.009389 0.698219
vt 0.009389 0.698219
vt 0.008736 0.699269
vt 0.008736 0.699269
vt 0.196823 0.199745
vt 0.196823 0.199745
vt 0.009389 0.698219
vt 0.009389 0.698219
vt 0.009389 0.698219
vt 0.200642 0.199752
vt 0.200642 0.199752
vt 0.197234 0.199748
vt 0.197234 0.199748
vt 0.416371 0.448620
vt 0.415954 0.448548
vt 0.415835 0.448320
vt 0.416272 0.448403
vt 0.416044 0.448413
vt 0.415343 0.448461
vt 0.415575 0.448579
vt 0.415088 0.448185
vt 0.415464 0.448371
vt 0.415789 0.448136
vt 0.416490 0.448087
vt 0.416745 0.448364
vn 0.995633 -0.047910 -0.080118
vn 0.995633 -0.047910 -0.080118
vn 0.995633 -0.047910 -0.080118
vn 0.995633 -0.047910 -0.080118
vn 0.011540 0.964439 -0.264055
vn 0.011540 0.964439 -0.264055
vn 0.011540 0.964439 -0.264055
vn -0.000001 -0.971551 0.236832
vn -0.000001 -0.971551 0.236832
vn -0.000001 -0.971551 0.236832
vn 0.000000 0.245420 0.969417
vn 0.000000 0.245420 0.969417
vn 0.000000 0.245420 0.969417
vn 0.000000 0.245420 0.969417
vn 0.000000 0.967208 -0.253987
vn 0.000000 0.967208 -0.253987
vn 0.000000 0.967208 -0.253987
vn 0.994023 -0.061793 -0.089996
vn 0.994023 -0.061793 -0.089996
vn 0.994023 -0.061793 -0.089996
vn 0.994023 -0.061793 -0.089996
vn 0.997329 -0.050250 -0.053012
vn 0.997329 -0.050250 -0.053012
vn 0.997329 -0.050250 -0.053012
vn 0.997329 -0.050250 -0.053012
vn 0.997198 -0.057110 -0.048319
vn 0.997198 -0.057110 -0.048319
vn 0.997198 -0.057110 -0.048319
vn 0.997198 -0.057110 -0.048319
vn 0.997205 -0.039995 -0.063103
vn 0.997205 -0.039995 -0.063103
vn 0.997205 -0.039995 -0.063103
vn 0.997205 -0.039995 -0.063103
vn 0.000000 -0.971551 0.236832
vn 0.000000 -0.971551 0.236832
vn 0.000000 -0.971551 0.236832
vn 0.000000 0.967208 -0.253987
vn 0.000000 0.967208 -0.253987
vn 0.000000 0.967208 -0.253987
vn -0.991033 -0.066600 -0.115838
vn -0.991033 -0.066600 -0.115838
vn -0.991033 -0.066600 -0.115838
vn -0.991033 -0.066600 -0.115838
vn 0.000000 0.245420 0.969417
vn 0.000000 0.245420 0.969417
vn 0.000000 0.245420 0.969417
vn 0.000000 0.245420 0.969417
vn -0.994023 -0.061793 -0.089996
vn -0.994023 -0.061793 -0.089996
vn -0.994023 -0.061793 -0.089996
vn -0.994023 -0.061793 -0.089996
vn -0.993704 -0.059655 -0.094830
vn -0.993704 -0.059655 -0.094830
vn -0.993704 -0.059655 -0.094830
vn -0.993704 -0.059655 -0.094830
vn -0.998041 -0.048244 -0.039842
vn -0.998041 -0.048244 -0.039842
vn -0.998041 -0.048244 -0.039842
vn -0.998041 -0.048244 -0.039842
vn -0.997329 -0.050250 -0.053011
vn -0.997329 -0.050250 -0.053011
vn -0.997329 -0.050250 -0.053011
vn -0.997329 -0.050250 -0.053011
vn 0.011920 -0.973972 0.226357
vn 0.011920 -0.973972 0.226357
vn 0.011920 -0.973972 0.226357
vn -0.000000 -0.971551 0.236832
vn -0.000000 -0.971551 0.236832
vn -0.000000 -0.971551 0.236832
vn -0.000000 -0.971551 0.236832
vn 0.000000 0.245420 0.969417
vn 0.000000 0.245420 0.969417
vn 0.000000 0.245420 0.969417
vn 0.000000 0.245420 0.969417
vn -0.000000 0.967208 -0.253985
vn -0.000000 0.967208 -0.253985
vn -0.000000 0.967208 -0.253985
vn -0.000000 0.967208 -0.253985
vn -0.011346 0.964356 -0.264365
vn -0.011346 0.964356 -0.264365
vn -0.011346 0.964356 -0.264365
vn -0.000000 -0.978124 0.208021
vn -0.000000 -0.978124 0.208021
vn -0.000000 -0.978124 0.208021
vn -0.000000 -0.978124 0.208021
vn -0.000000 -0.245420 -0.969417
vn -0.000000 -0.245420 -0.969417
vn -0.000000 -0.245420 -0.969417
vn -0.000000 -0.245420 -0.969417
vn -0.000000 -0.245420 -0.969417
vn -0.000000 -0.245420 -0.969417
vn -0.000000 -0.245420 -0.969417
vn -0.000000 -0.245420 -0.969417
vn 0.000000 -0.245420 -0.969417
vn 0.000000 -0.245420 -0.969417
vn 0.000000 -0.245420 -0.969417
vn 0.000000 -0.245420 -0.969417
vn 0.000000 -0.245420 -0.969417
vn 0.000000 -0.245420 -0.969417
vn 0.000000 -0.245420 -0.969417
vn 0.000000 -0.245420 -0.969417
vn -0.000000 -0.245420 -0.969417
vn -0.000000 -0.245421 -0.969417
vn -0.000000 -0.245420 -0.969417
vn -0.000000 -0.245421 -0.969417
vn -0.000000 0.959279 -0.282461
vn -0.000000 0.959279 -0.282461
vn -0.000000 0.959279 -0.282461
vn -0.000000 0.959279 -0.282461
vn -0.011919 -0.973971 0.226358
vn -0.011919 -0.973971 0.226358
vn -0.011919 -0.973971 0.226358
vn 0.000000 -1.000000 0.000000
vn 0.000000 -1.000000 0.000000
vn 0.000000 -1.000000 0.000000
vn 0.000000 -1.000000 0.000000
vn 0.000000 -1.000000 0.000000
vn 0.000000 -1.000000 0.000000
vn 0.000000 -1.000000 0.000000
vn 0.000000 -1.000000 0.000000
vn 0.000000 -1.000000 0.000000
vn 0.000000 -1.000000 0.000000
vn 0.000000 -1.000000 0.000000
vn 0.000000 -1.000000 0.000000
vn 0.000000 -0.038392 0.999263
vn 0.000000 -0.038392 0.999263
vn 0.000000 -0.038392 0.999263
vn 0.000000 -0.038392 0.999263
vn 0.998576 -0.053345 0.000000
vn 0.998576 -0.053345 0.000000
vn 0.998576 -0.053345 0.000000
vn 0.998576 -0.053345 0.000000
vn 0.998576 -0.053344 0.000000
vn 0.998576 -0.053344 0.000000
vn 0.998576 -0.053344 0.000000
vn 0.998576 -0.053344 0.000000
vn 0.998576 -0.053344 0.000000
vn 0.998576 -0.053344 0.000000
vn 0.998576 -0.053344 0.000000
vn 0.998576 -0.053344 0.000000
vn 0.000000 -0.038392 -0.999263
vn 0.000000 -0.038392 -0.999263
vn 0.000000 -0.038392 -0.999263
vn 0.000000 -0.038392 -0.999263
vn 0.998576 -0.053345 0.000000
vn 0.998576 -0.053345 0.000000
vn 0.998576 -0.053345 0.000000
vn 0.998576 -0.053345 0.000000
vn 0.998576 -0.053345 0.000000
vn 0.998576 -0.053345 0.000000
vn 0.000000 -1.000000 0.000000
vn 0.000000 -1.000000 0.000000
vn 0.000000 -1.000000 0.000000
vn 0.000000 -1.000000 0.000000
vn 0.000000 -1.000000 0.000000
vn 0.000000 -1.000000 0.000000
vn 0.000000 -1.000000 0.000000
vn 0.000000 -1.000000 0.000000
vn 0.000000 -1.000000 0.000000
vn 0.000000 -1.000000 0.000000
vn 0.000000 -1.000000 0.000000
vn 0.000000 -1.000000 0.000000
vn 0.000000 -0.038392 0.999263
vn 0.000000 -0.038392 0.999263
vn 0.000000 -0.038392 0.999263
vn 0.000000 -0.038392 0.999263
vn -0.998576 -0.053344 0.000000
vn -0.998576 -0.053344 0.000000
vn -0.998576 -0.053344 0.000000
vn -0.998576 -0.053344 0.000000
vn -0.998576 -0.053344 0.000000
vn -0.998576 -0.053344 0.000000
vn -0.998576 -0.053344 0.000000
vn -0.998576 -0.053344 0.000000
vn -0.998576 -0.053344 0.000000
vn -0.998576 -0.053344 0.000000
vn -0.998576 -0.053344 0.000000
vn -0.998576 -0.053344 0.000000
vn 0.000000 -0.038392 -0.999263
vn 0.000000 -0.038392 -0.999263
vn 0.000000 -0.038392 -0.999263
vn 0.000000 -0.038392 -0.999263
vn 0.000000 -0.038392 0.999263
vn 0.000000 -0.038392 0.999263
vn 0.000000 -0.038392 0.999263
vn 0.000000 -0.038392 0.999263
vn 0.000000 -0.038392 0.999263
vn 0.000000 -0.038392 0.999263
vn -0.998576 -0.053345 0.000000
vn -0.998576 -0.053345 0.000000
vn -0.998576 -0.053345 0.000000
vn -0.998576 -0.053345 0.000000
vn -0.998576 -0.053345 0.000000
vn -0.998576 -0.053345 0.000000
vn 0.000000 -0.038392 -0.999263
vn 0.000000 -0.038392 -0.999263
vn 0.000000 -0.038392 -0.999263
vn 0.000000 -0.038392 -0.999263
vn 0.000000 -0.038392 -0.999263
vn 0.000000 -0.038392 -0.999263
vn 0.000000 -0.038392 -0.999263
vn 0.000000 -0.038392 -0.999263
vn -0.000000 -0.038392 -0.999263
vn -0.000000 -0.038392 -0.999263
vn -0.000000 -0.038392 -0.999263
vn -0.000000 -0.038392 -0.999263
vn 0.000000 -1.000000 0.000000
vn 0.000000 -1.000000 0.000000
vn 0.000000 -1.000000 0.000000
vn 0.000000 -1.000000 0.000000
vn 0.000000 -1.000000 0.000000
vn 0.000000 -1.000000 0.000000
vn 0.000000 -1.000000 0.000000
vn 0.000000 -1.000000 0.000000
vn 0.000000 -1.000000 0.000000
vn 0.000000 -1.000000 0.000000
vn 0.000000 -1.000000 0.000000
vn 0.000000 -1.000000 0.000000
vn 0.000000 -0.038392 0.999263
vn 0.000000 -0.038392 0.999263
vn 0.000000 -0.038392 0.999263
vn 0.000000 -0.038392 0.999263
vn 0.000000 -0.038392 -0.999263
vn 0.000000 -0.038392 -0.999263
vn 0.000000 -0.038392 -0.999263
vn 0.000000 -0.038392 -0.999263
vn 0.000000 -0.038392 -0.999263
vn 0.000000 -0.038392 -0.999263
vn 0.000000 -0.038392 -0.999263
vn 0.000000 -0.038392 -0.999263
vn 0.000000 -0.038392 -0.999263
vn 0.000000 -0.038392 -0.999263
vn 0.000000 -0.038392 -0.999263
vn 0.000000 -0.038392 -0.999263
vn 0.000000 1.000000 0.000000
vn 0.000000 1.000000 0.000000
vn 0.000000 1.000000 0.000000
vn 0.000000 1.000000 0.000000
vn 0.000000 1.000000 0.000000
vn 0.000000 1.000000 0.000000
vn 0.000000 1.000000 0.000000
vn 0.000000 1.000000 0.000000
vn 0.000000 1.000000 -0.000000
vn 0.000000 1.000000 -0.000000
vn 0.000000 1.000000 -0.000000
vn 0.000000 1.000000 -0.000000
vn 0.000000 1.000000 0.000000
vn 0.000000 1.000000 0.000000
vn 0.000000 1.000000 0.000000
vn 0.000000 1.000000 0.000000
vn 0.236755 0.963738 -0.123114
vn 0.236755 0.963738 -0.123114
vn 0.236755 0.963738 -0.123114
vn 0.236755 0.963738 -0.123114
vn 0.006805 0.717675 0.696345
vn 0.006805 0.717675 0.696345
vn 0.006805 0.717675 0.696345
vn 0.006805 0.717675 0.696345
vn 0.495923 0.867503 -0.038727
vn 0.495923 0.867502 -0.038727
vn 0.495923 0.867503 -0.038727
vn 0.495923 0.867503 -0.038727
vn 0.058828 0.735258 -0.675230
vn 0.058828 0.735258 -0.675230
vn 0.058828 0.735258 -0.675230
vn 0.058828 0.735258 -0.675230
vn -0.744931 0.667135 -0.002939
vn -0.744931 0.667135 -0.002939
vn -0.744931 0.667135 -0.002939
vn -0.744931 0.667135 -0.002939
vn -0.035976 0.769705 -0.637385
vn -0.035976 0.769705 -0.637385
vn -0.035976 0.769705 -0.637385
vn -0.035976 0.769705 -0.637385
vn 0.075053 0.568551 0.819217
vn 0.075053 0.568551 0.819217
vn 0.075053 0.568551 0.819217
vn 0.075053 0.568551 0.819217
vn -0.068456 0.992800 -0.098300
vn -0.068456 0.992800 -0.098300
vn -0.068456 0.992800 -0.098300
vn -0.068456 0.992800 -0.098300
s off
f 10/1/1 9/2/2 12/14/3 11/13/4
f 8/3/5 3/5/6 1/7/7
f 2/12/8 5/15/9 4/8/10
f 5/15/11 2/12/12 1/7/13 6/16/14
f 3/5/15 6/16/16 1/7/17
f 10/18/18 2/12/19 7/9/20 9/17/21
f 7/9/22 8/3/23 12/19/24 9/17/25
f 8/3/26 1/7/27 11/20/28 12/19/29
f 10/18/30 11/20/31 1/7/32 2/12/33
f 14/27/34 16/25/35 17/28/36
f 15/24/37 13/30/38 18/29/39
f 22/21/40 23/31/41 24/32/42 21/22/43
f 17/28/44 18/29/45 13/30/46 14/27/47
f 22/34/48 21/33/49 19/26/50 14/27/51
f 24/35/52 23/36/53 13/30/54 20/23/55
f 22/34/56 14/27/57 13/30/58 23/36/59
f 20/23/60 19/26/61 21/33/62 24/35/63
f 4/8/64 7/9/65 2/12/66
f 5/10/67 17/38/68 16/37/69 4/6/70
f 5/10/71 6/11/72 18/39/73 17/38/74
f 3/4/75 15/40/76 18/39/77 6/11/78
f 20/23/79 13/30/80 15/24/81
f 16/25/82 19/26/83 7/9/84 4/8/85
f 25/45/86 26/46/87 27/47/88 28/48/89
f 25/41/90 19/26/91 20/23/92 26/42/93
f 26/42/94 20/23/95 8/3/96 27/43/97
f 27/43/98 8/3/99 7/9/100 28/44/101
f 28/44/102 7/9/103 19/26/104 25/41/105
f 8/3/106 20/23/107 15/24/108 3/5/109
f 14/27/110 19/26/111 16/25/112
f 31/49/113 34/50/114 33/51/115 30/52/116
f 32/53/117 35/54/118 34/50/119 31/49/120
f 36/55/121 35/54/122 32/53/123 29/56/124
f 39/57/125 38/58/126 36/59/127 29/60/128
f 29/60/129 32/61/130 40/62/131 39/57/132
f 40/63/133 32/53/134 31/49/135 41/64/136
f 42/65/137 41/66/138 31/67/139 30/68/140
f 33/69/141 37/70/142 42/65/143 30/68/144
f 43/71/145 39/57/146 40/62/147 41/66/148 42/65/149 44/72/150
f 47/73/151 46/74/152 49/75/153 50/76/154
f 52/77/155 45/78/156 48/79/157 51/80/158
f 47/73/159 50/76/160 51/80/161 48/79/162
f 55/81/163 45/82/164 52/83/165 54/84/166
f 45/82/167 55/81/168 56/85/169 48/86/170
f 56/87/171 57/88/172 47/73/173 48/79/174
f 58/89/175 46/90/176 47/91/177 57/92/178
f 49/93/179 46/90/180 58/89/181 53/94/182
f 43/71/183 59/95/184 55/81/185 54/84/186 38/58/187 39/57/188
f 59/95/189 60/96/190 58/89/191 57/92/192 56/85/193 55/81/194
f 53/94/195 58/89/196 60/96/197 44/72/198 42/65/199 37/70/200 61/97/201 62/98/202
f 63/99/203 49/75/204 53/100/205 62/101/206
f 34/50/207 50/76/208 49/75/209 33/51/210
f 35/54/211 51/80/212 50/76/213 34/50/214
f 36/55/215 52/77/216 51/80/217 35/54/218
f 38/102/219 54/103/220 52/77/221 36/55/222
f 62/98/223 61/97/224 64/104/225 63/105/226
f 33/51/227 64/106/228 61/107/229 37/108/230
f 33/51/231 49/75/232 63/99/233 64/106/234
f 59/95/235 43/71/236 65/109/237 66/110/238
f 43/71/239 44/72/240 67/111/241 65/109/242
f 44/72/243 60/96/244 68/112/245 67/111/246
f 60/96/247 59/95/248 66/110/249 68/112/250
f 70/113/251 75/114/252 73/115/253 72/116/254
f 75/114/255 76/117/256 65/118/257 69/119/258
f 65/118/259 67/120/260 71/121/261 69/119/262
f 73/115/263 74/122/264 68/123/265 72/116/266
f 68/123/267 66/124/268 70/113/269 72/116/270
f 67/120/271 74/122/272 73/115/273 71/121/274
f 66/124/275 76/117/276 75/114/277 70/113/278
f 73/115/279 75/114/280 69/119/281 71/121/282
