# This file uses meters as units for non-parametric coordinates.

v 288.726807 -2878.637695 -0.018338
v 144.380188 -2878.637695 -250.009308
v -144.348145 -2878.637695 -249.990997
v -288.726807 -2878.637695 0.018364
v -144.380188 -2878.637695 250.009155
v 144.348145 -2878.637695 249.990845
v -288.726807 -43.147278 0.018364
v -144.380188 -43.147278 250.009155
v 144.348145 -43.147278 249.990845
v 288.726807 -43.147278 -0.018338
v 144.380188 -43.147278 -250.009308
v -144.348145 -43.147278 -249.990997
v -0.015900 -43.147278 250.000000
v -0.015900 -2878.637695 250.000000
v -216.554260 -43.147278 125.013580
v -216.554260 -2878.637695 125.013580
v -216.537476 -43.147278 -124.986115
v -216.537476 -2878.637695 -124.986115
v 0.015839 -43.147278 -250.000153
v 0.015839 -2878.637695 -250.000153
v 216.554260 -43.147278 -125.013580
v 216.554260 -2878.637695 -125.013580
v 216.537476 -43.147278 124.986115
v 216.537476 -2878.637695 124.986115
v 216.554260 -816.094971 -125.013580
v 144.380188 -874.975586 -250.009308
v 0.015839 -874.975586 -250.000153
v -144.348145 -816.094971 -249.990997
v -216.537476 -787.213135 -124.986115
v -288.726807 -787.213135 0.018364
v -216.554260 -816.094971 125.013580
v -144.380188 -789.996338 250.009155
v -0.015900 -789.996338 250.000000
v 144.348145 -816.094971 249.990845
v 216.537476 -850.219727 124.986115
v 288.726807 -850.219727 -0.018338
vt 0.966174 0.914775
vt 0.966174 0.914775
vt 0.966174 0.914775
vt 0.966174 0.914775
vt 0.966174 0.914775
vt 0.966174 0.914775
vt 0.966174 0.914775
vt 0.966174 0.914775
vt 0.966174 0.914775
vt 0.966174 0.914775
vt 0.966174 0.914775
vt 0.966174 0.914775
vt 0.966174 0.914775
vt 0.966174 0.914775
vt 0.966174 0.914775
vt 0.966174 0.914775
vt 0.966174 0.914775
vt 0.966174 0.914775
vt 0.966174 0.914775
vt 0.966174 0.914775
vt 0.966174 0.914775
vt 0.966174 0.914775
vt 0.966174 0.914775
vt 0.966174 0.914775
vt 0.966174 0.914775
vt 0.966174 0.914775
vt 0.966174 0.914775
vt 0.966174 0.914775
vt 0.966174 0.914775
vt 0.966174 0.914775
vt 0.966174 0.914775
vt 0.966174 0.914775
vt 0.966174 0.914775
vt 0.966174 0.914775
vt 0.966174 0.914775
vt 0.966174 0.914775
vt 0.966174 0.914775
vt 0.966174 0.914775
vt 0.966174 0.914775
vn -0.865970 0.000000 -0.500097
vn -0.865970 0.000000 -0.500097
vn -0.865970 0.000000 -0.500097
vn -0.865970 0.000000 -0.500097
vn -0.866002 0.000000 0.500041
vn -0.866002 0.000000 0.500041
vn -0.866002 0.000000 0.500041
vn -0.866002 0.000000 0.500041
vn 0.000063 0.000000 1.000000
vn 0.000063 0.000000 1.000000
vn 0.000063 0.000000 1.000000
vn 0.000063 0.000000 1.000000
vn 0.865970 0.000000 0.500096
vn 0.865970 0.000000 0.500096
vn 0.865970 0.000000 0.500096
vn 0.865970 0.000000 0.500096
vn 0.866002 0.000000 -0.500041
vn 0.866002 0.000000 -0.500041
vn 0.866002 0.000000 -0.500041
vn 0.866002 0.000000 -0.500041
vn -0.000063 0.000000 -1.000000
vn -0.000063 0.000000 -1.000000
vn -0.000063 0.000000 -1.000000
vn -0.000063 0.000000 -1.000000
vn 0.000064 0.000000 1.000000
vn 0.000064 0.000000 1.000000
vn 0.000064 0.000000 1.000000
vn 0.000064 0.000000 1.000000
vn -0.866002 0.000000 0.500041
vn -0.866002 0.000000 0.500041
vn -0.866002 0.000000 0.500041
vn -0.866002 0.000000 0.500041
vn -0.865970 0.000000 -0.500096
vn -0.865970 0.000000 -0.500096
vn -0.865970 0.000000 -0.500096
vn -0.865970 0.000000 -0.500096
vn -0.000063 0.000000 -1.000000
vn -0.000063 0.000000 -1.000000
vn -0.000063 0.000000 -1.000000
vn -0.000063 0.000000 -1.000000
vn 0.866002 0.000000 -0.500041
vn 0.866002 0.000000 -0.500041
vn 0.866002 0.000000 -0.500041
vn 0.866002 0.000000 -0.500041
vn 0.865970 0.000000 0.500096
vn 0.865970 0.000000 0.500096
vn 0.865970 0.000000 0.500096
vn 0.865970 0.000000 0.500096
vn 0.866002 0.000000 -0.500041
vn 0.866002 0.000000 -0.500041
vn 0.866002 0.000000 -0.500041
vn 0.866002 0.000000 -0.500041
vn -0.000063 0.000000 -1.000000
vn -0.000063 0.000000 -1.000000
vn -0.000063 0.000000 -1.000000
vn -0.000063 0.000000 -1.000000
vn -0.000063 0.000000 -1.000000
vn -0.000063 0.000000 -1.000000
vn -0.000063 0.000000 -1.000000
vn -0.000063 0.000000 -1.000000
vn -0.865970 0.000000 -0.500096
vn -0.865970 0.000000 -0.500096
vn -0.865970 0.000000 -0.500096
vn -0.865970 0.000000 -0.500096
vn -0.865970 0.000000 -0.500096
vn -0.865970 0.000000 -0.500096
vn -0.865970 0.000000 -0.500096
vn -0.865970 0.000000 -0.500096
vn -0.866002 0.000000 0.500041
vn -0.866002 0.000000 0.500041
vn -0.866002 0.000000 0.500041
vn -0.866002 0.000000 0.500041
vn -0.866002 0.000000 0.500041
vn -0.866002 0.000000 0.500041
vn -0.866002 0.000000 0.500041
vn -0.866002 0.000000 0.500041
vn 0.000064 0.000000 1.000000
vn 0.000064 0.000000 1.000000
vn 0.000064 0.000000 1.000000
vn 0.000064 0.000000 1.000000
vn 0.000064 0.000000 1.000000
vn 0.000064 0.000000 1.000000
vn 0.000064 0.000000 1.000000
vn 0.000064 0.000000 1.000000
vn 0.865970 0.000000 0.500096
vn 0.865970 0.000000 0.500096
vn 0.865970 0.000000 0.500096
vn 0.865970 0.000000 0.500096
vn 0.865970 0.000000 0.500096
vn 0.865970 0.000000 0.500096
vn 0.865970 0.000000 0.500096
vn 0.865970 0.000000 0.500096
vn 0.866002 0.000000 -0.500041
vn 0.866002 0.000000 -0.500041
vn 0.866002 0.000000 -0.500041
vn 0.866002 0.000000 -0.500041
vn 0.000000 1.000000 -0.000000
vn 0.000000 1.000000 0.000000
vn 0.000000 1.000000 -0.000000
vn 0.000000 1.000000 0.000000
vn 0.000000 1.000000 0.000000
vn 0.000000 1.000000 0.000000
vn 0.000000 1.000000 0.000000
vn 0.000000 1.000000 0.000000
vn 0.000000 1.000000 -0.000000
vn 0.000000 1.000000 -0.000000
vn 0.000000 1.000000 0.000000
vn 0.000000 1.000000 -0.000000
vn 0.000000 1.000000 -0.000000
vn 0.000000 1.000000 0.000000
vn 0.000000 1.000000 0.000000
vn 0.000000 1.000000 0.000000
vn 0.000000 1.000000 0.000000
vn 0.000000 1.000000 0.000000
vn 0.000000 1.000000 0.000000
vn 0.000000 1.000000 0.000000
vn 0.000000 1.000000 0.000000
vn 0.000000 1.000000 0.000000
vn 0.000000 1.000000 0.000000
vn 0.000000 1.000000 0.000000
vn 0.000000 1.000000 0.000000
vn 0.000000 1.000000 0.000000
vn 0.000000 1.000000 0.000000
vn 0.000000 1.000000 0.000000
vn 0.000000 1.000000 0.000000
vn 0.000000 1.000000 0.000000
s off
f 29/31/1 30/32/2 7/5/3 17/19/4
f 31/33/5 32/34/6 8/2/7 15/17/8
f 33/35/9 34/36/10 9/1/11 13/15/12
f 35/37/13 36/38/14 10/8/15 23/25/16
f 25/27/17 26/28/18 11/10/19 21/23/20
f 27/29/21 28/30/22 12/9/23 19/21/24
f 32/34/25 33/35/26 13/15/27 8/2/28
f 30/32/29 31/33/30 15/17/31 7/5/32
f 28/30/33 29/31/34 17/19/35 12/9/36
f 26/28/37 27/29/38 19/21/39 11/10/40
f 36/39/41 25/27/42 21/23/43 10/13/44
f 34/36/45 35/37/46 23/25/47 9/1/48
f 22/24/49 2/11/50 26/28/51 25/27/52
f 2/11/53 20/22/54 27/29/55 26/28/56
f 20/22/57 3/12/58 28/30/59 27/29/60
f 3/12/61 18/20/62 29/31/63 28/30/64
f 18/20/65 4/6/66 30/32/67 29/31/68
f 4/6/69 16/18/70 31/33/71 30/32/72
f 16/18/73 5/3/74 32/34/75 31/33/76
f 5/3/77 14/16/78 33/35/79 32/34/80
f 14/16/81 6/4/82 34/36/83 33/35/84
f 6/4/85 24/26/86 35/37/87 34/36/88
f 24/26/89 1/7/90 36/38/91 35/37/92
f 1/14/93 22/24/94 25/27/95 36/39/96
f 7/5/97 15/17/98 17/19/99
f 8/2/100 13/15/101 15/17/102
f 15/17/103 13/15/104 17/19/105
f 17/19/106 13/15/107 12/9/108
f 12/9/109 13/15/110 19/21/111
f 13/15/112 9/1/113 19/21/114
f 9/1/115 23/25/116 19/21/117
f 23/25/118 10/13/119 19/21/120
f 10/13/121 21/23/122 19/21/123
f 21/23/124 11/10/125 19/21/126
