# This file uses meters as units for non-parametric coordinates.

v 288.728027 0.000000 -0.018328
v 144.379639 0.000000 -250.009155
v -144.348389 0.000000 -249.990845
v -288.728027 0.000000 0.018209
v -144.379883 0.000000 250.009155
v 144.347900 0.000000 249.990845
v -180.411377 0.000000 -187.445221
v -252.538086 0.000000 -62.518349
v -241.735107 -7.061005 -81.229553
v -191.214355 -7.061005 -168.733978
v 89.827637 -7.061005 -168.239594
v 115.253174 0.000000 -195.114746
v -119.114014 -7.061005 -190.963440
v -112.932617 0.000000 -212.342682
v -225.060303 0.000000 -7.618861
v -197.721436 -7.061005 -28.504925
v -34.608887 0.000000 145.494690
v -10.109375 -7.061005 128.409271
v 164.515381 -7.061005 33.239727
v 181.797852 0.000000 18.642635
v 146.810547 -7.061005 -77.537003
v 172.056152 0.000000 -95.237427
v -169.363281 0.000000 103.427658
v -151.253906 -7.061005 83.808746
v -241.735107 -20.859699 -81.229553
v -288.728027 -17.329197 0.018209
v -144.379883 -17.329197 250.009155
v 144.347900 -21.825504 249.990845
v 288.728027 -17.329197 -0.018328
v 144.379639 -17.329197 -250.009155
v -144.348389 -17.329197 -249.990845
v -191.214355 -20.859699 -168.733978
v 68.173096 -23.522987 -250.004272
v -60.657227 -12.821321 -249.996185
v 181.559326 -13.878794 -185.619354
v 267.479980 -11.777887 -36.816635
v 225.189941 -23.577538 -110.056992
v 52.434814 -23.861008 249.996643
v -89.041504 -12.074003 250.005646
v -211.462402 -9.843798 133.831482
v -269.943848 -22.321739 32.549839
v -22.817383 -7.061005 -199.048157
v -17.246338 -1.919963 -224.636688
v 41.503906 0.000000 198.778534
v 49.868164 -7.061005 171.274261
v 131.985352 -1.376706 156.552124
v 194.982910 0.000000 84.391479
v 110.565918 -7.061005 130.121536
v 171.793945 -7.061005 70.196304
v 199.054932 -14.923267 155.260010
v -28.222656 0.000000 -249.998322
v 80.475586 0.000000 -250.005035
v 92.633301 3.620241 -228.673706
v -128.888184 2.295871 -229.594879
v -212.460449 0.000000 132.103195
v -271.003906 0.000000 30.714226
v -141.045166 0.000000 137.480469
v -85.521729 -5.457473 204.939575
v 41.324219 0.000000 249.997406
v -91.501953 0.000000 250.005798
v 6.019531 -3.914647 201.114349
v 76.165039 2.725899 214.329224
v 191.222900 0.000000 168.822327
v 230.412354 0.000000 100.961151
v 236.310059 -15.922832 90.748596
v 192.606201 2.759252 118.193130
v 219.245117 -2.210932 62.922096
v 221.030518 2.519951 10.687809
v 269.474854 0.000000 -33.362026
v 226.161621 0.000000 -108.374252
v 182.535645 0.000000 -183.928680
v -216.537842 -43.147278 -124.986343
v -288.728027 -43.147278 0.018209
v -216.553711 -43.147278 125.013657
v -144.379639 -43.147278 250.009155
v -0.015869 -43.147278 250.000000
v 288.728027 -43.147278 -0.021410
v 216.553711 -43.147278 -125.013733
v 144.379883 -43.147278 -250.009155
v 0.015869 -43.147278 -250.000000
v -144.347900 -43.147278 -249.990997
v 144.359344 -43.147278 249.994431
v 216.537888 -43.147278 124.986191
vt 0.896995 0.323430
vt 0.896995 0.323430
vt 0.896995 0.323430
vt 0.896995 0.323430
vt 0.896995 0.323430
vt 0.896995 0.323430
vt 0.896995 0.323760
vt 0.896995 0.323430
vt 0.896995 0.323430
vt 0.896995 0.323430
vt 0.896995 0.323430
vt 0.896995 0.323430
vt 0.896995 0.323430
vt 0.896995 0.323430
vt 0.896995 0.323430
vt 0.896995 0.323430
vt 0.896995 0.323430
vt 0.920109 0.312042
vt 0.920129 0.312509
vt 0.920106 0.312064
vt 0.917904 0.333355
vt 0.917901 0.333361
vt 0.920128 0.312018
vt 0.920124 0.312010
vt 0.920116 0.312677
vt 0.917902 0.333479
vt 0.896995 0.323430
vt 0.920113 0.312725
vt 0.920111 0.312249
vt 0.917901 0.333399
vt 0.896995 0.323430
vt 0.920108 0.312259
vt 0.920129 0.312169
vt 0.896995 0.323430
vt 0.917904 0.333390
vt 0.920126 0.312197
vt 0.920134 0.312623
vt 0.896995 0.323430
vt 0.917905 0.333464
vt 0.920130 0.312599
vt 0.920119 0.312981
vt 0.917903 0.333535
vt 0.920115 0.313018
vt 0.920117 0.312846
vt 0.917903 0.333510
vt 0.896995 0.323430
vt 0.920114 0.312859
vt 0.920131 0.312389
vt 0.896995 0.323430
vt 0.917904 0.333425
vt 0.920128 0.312389
vt 0.920128 0.312510
vt 0.917894 0.334267
vt 0.917927 0.334333
vt 0.920121 0.312506
vt 0.920120 0.312503
vt 0.896995 0.323430
vt 0.920120 0.312569
vt 0.896995 0.323430
vt 0.896995 0.323430
vt 0.896995 0.323430
vt 0.897001 0.323298
vt 0.896995 0.323430
vt 0.896995 0.323430
vt 0.896995 0.323430
vt 0.920129 0.312574
vt 0.896995 0.323430
vt 0.917894 0.333231
vt 0.917927 0.333298
vt 0.896995 0.323430
vt 0.896995 0.323430
vt 0.896995 0.323430
vt 0.896995 0.323430
vt 0.896995 0.323430
vt 0.896995 0.323430
vt 0.896995 0.323430
vt 0.896995 0.323430
vt 0.896995 0.323430
vt 0.920113 0.312461
vt 0.917902 0.333439
vt 0.896995 0.323430
vt 0.920110 0.312466
vt 0.920136 0.312869
vt 0.896995 0.323430
vt 0.917905 0.333501
vt 0.920132 0.312794
vt 0.920116 0.312210
vt 0.920133 0.312930
vt 0.920119 0.313053
vt 0.920129 0.312217
vt 0.896988 0.323502
vt 0.896988 0.323494
vt 0.896990 0.323484
vt 0.917905 0.333514
vt 0.920133 0.312867
vt 0.920119 0.313020
vt 0.917903 0.333543
vt 0.920128 0.312784
vt 0.920115 0.312656
vt 0.897001 0.323140
vt 0.896999 0.323365
vt 0.896995 0.323635
vt 0.896995 0.323430
vt 0.896995 0.323430
vt 0.896995 0.323430
vt 0.896995 0.323430
vt 0.896995 0.323430
vt 0.896995 0.323430
vt 0.896995 0.323430
vt 0.896995 0.323430
vt 0.896995 0.323430
vt 0.896995 0.323430
vt 0.896995 0.323430
vt 0.896995 0.323430
vt 0.896995 0.323430
vt 0.896995 0.323430
vt 0.896995 0.323430
vt 0.896995 0.323430
vt 0.896995 0.323430
vt 0.896995 0.323430
vt 0.896995 0.323430
vt 0.896999 0.323448
vt 0.896993 0.323444
vt 0.896997 0.323573
vt 0.896997 0.323477
vt 0.896990 0.323469
vt 0.896989 0.323478
vt 0.896990 0.323475
vt 0.896995 0.323430
vt 0.896995 0.323430
vt 0.896995 0.323430
vt 0.896995 0.323430
vt 0.896995 0.323430
vt 0.896995 0.323430
vt 0.989943 0.923703
vt 0.990296 0.923703
vt 0.990486 0.900177
vt 0.989943 0.900177
vt 0.989801 0.923703
vt 0.989399 0.900177
vt 0.988856 0.923703
vt 0.988856 0.923703
vt 0.988856 0.900177
vt 0.988856 0.900177
vt 0.990103 0.923703
vt 0.989943 0.923703
vt 0.989943 0.900177
vt 0.990486 0.900177
vt 0.991030 0.923703
vt 0.991030 0.923703
vt 0.991030 0.900177
vt 0.991030 0.900177
vt 0.990676 0.923703
vt 0.991030 0.923703
vt 0.991030 0.900177
vt 0.991030 0.923703
vt 0.990750 0.923703
vt 0.990486 0.900177
vt 0.990421 0.923703
vt 0.988856 0.923703
vt 0.988856 0.923703
vt 0.988856 0.900177
vt 0.989361 0.923703
vt 0.989268 0.923703
vt 0.989399 0.900177
vt 0.989548 0.923703
vn 0.866000 -0.000003 -0.500044
vn 0.866000 -0.000003 -0.500044
vn 0.866000 -0.000003 -0.500044
vn 0.866000 -0.000003 -0.500044
vn -0.865579 0.000505 -0.500772
vn -0.865579 0.000505 -0.500772
vn -0.865579 0.000505 -0.500772
vn -0.865579 0.000505 -0.500772
vn 0.000063 -0.000001 1.000000
vn 0.000063 -0.000001 1.000000
vn 0.000063 -0.000001 1.000000
vn 0.000063 -0.000001 1.000000
vn -0.063010 0.997998 0.005390
vn -0.063010 0.997998 0.005390
vn -0.063010 0.997998 0.005390
vn 0.127319 0.917384 0.377091
vn 0.127319 0.917383 0.377091
vn 0.127319 0.917383 0.377091
vn 0.127319 0.917384 0.377091
vn 0.211922 0.967095 -0.140773
vn 0.211922 0.967095 -0.140773
vn 0.211922 0.967095 -0.140773
vn 0.211922 0.967095 -0.140773
vn 0.000000 1.000000 0.000000
vn 0.000000 1.000000 0.000000
vn 0.000000 1.000000 0.000000
vn 0.000000 1.000000 0.000000
vn -0.866002 -0.000003 0.500041
vn -0.866002 -0.000003 0.500041
vn -0.866002 -0.000003 0.500041
vn -0.866002 -0.000003 0.500041
vn -0.000064 -0.000002 -1.000000
vn -0.000064 -0.000002 -1.000000
vn -0.000064 -0.000002 -1.000000
vn -0.000064 -0.000002 -1.000000
vn -0.178724 0.978096 0.106707
vn -0.178724 0.978096 0.106707
vn -0.178724 0.978096 0.106707
vn -0.178724 0.978096 0.106707
vn 0.037248 0.964891 0.259995
vn 0.037248 0.964891 0.259995
vn 0.037248 0.964891 0.259995
vn 0.037248 0.964891 0.259995
vn 0.214513 0.971780 -0.098118
vn 0.214513 0.971780 -0.098118
vn 0.214513 0.971780 -0.098118
vn 0.214513 0.971780 -0.098118
vn 0.142578 0.968992 -0.201806
vn 0.142578 0.968992 -0.201806
vn 0.142578 0.968992 -0.201806
vn 0.142578 0.968992 -0.201806
vn -0.328173 0.942352 0.065387
vn -0.328173 0.942352 0.065387
vn -0.328173 0.942352 0.065387
vn -0.328173 0.942352 0.065387
vn -0.290560 0.956198 0.035498
vn -0.290560 0.956198 0.035498
vn -0.290560 0.956198 0.035498
vn -0.290560 0.956198 0.035498
vn 0.084934 0.959000 -0.270379
vn 0.084934 0.959000 -0.270379
vn 0.084934 0.959000 -0.270379
vn 0.084934 0.959000 -0.270379
vn 0.865969 -0.000005 0.500098
vn 0.865969 -0.000005 0.500098
vn 0.865969 -0.000005 0.500098
vn 0.865969 -0.000005 0.500098
vn -0.866277 0.000286 -0.499563
vn -0.866277 0.000286 -0.499563
vn -0.866277 0.000286 -0.499563
vn -0.866277 0.000286 -0.499563
vn -0.866025 0.000000 -0.500001
vn -0.866025 0.000000 -0.500001
vn -0.866025 0.000000 -0.500001
vn -0.866025 0.000000 -0.500000
vn -0.866025 0.000000 -0.500000
vn -0.866025 0.000000 -0.500000
vn -0.866025 0.000000 -0.500000
vn -0.866024 0.000000 -0.500002
vn -0.866024 0.000000 -0.500002
vn -0.866024 0.000000 -0.500002
vn -0.055631 0.979247 0.194886
vn -0.055631 0.979247 0.194886
vn -0.055631 0.979247 0.194886
vn -0.055631 0.979247 0.194886
vn -0.104086 0.973255 -0.204795
vn -0.104086 0.973255 -0.204795
vn -0.104086 0.973255 -0.204795
vn -0.104086 0.973255 -0.204794
vn -0.155576 0.978400 -0.136120
vn -0.155576 0.978400 -0.136121
vn -0.155576 0.978400 -0.136120
vn -0.155576 0.978400 -0.136120
vn 0.013116 0.999161 0.038797
vn 0.013116 0.999161 0.038797
vn 0.013116 0.999161 0.038797
vn 0.013116 0.999161 0.038797
vn -0.020751 0.999713 -0.011984
vn -0.020751 0.999713 -0.011984
vn -0.020751 0.999713 -0.011984
vn -0.032452 0.994260 -0.101953
vn -0.032452 0.994260 -0.101953
vn -0.032452 0.994260 -0.101953
vn -0.099315 0.984891 0.141865
vn -0.099315 0.984891 0.141866
vn -0.099315 0.984891 0.141866
vn 0.000000 1.000000 -0.000000
vn 0.000000 1.000000 -0.000000
vn 0.000000 1.000000 -0.000000
vn 0.000000 1.000000 -0.000000
vn 0.000000 1.000000 0.000000
vn 0.000000 1.000000 0.000000
vn 0.000000 1.000000 0.000000
vn 0.000000 1.000000 0.000000
vn 0.000000 1.000000 0.000000
vn 0.000000 1.000000 0.000000
vn 0.000000 1.000000 0.000000
vn 0.000000 1.000000 0.000000
vn 0.000000 1.000000 0.000000
vn 0.000000 1.000000 0.000000
vn 0.000000 1.000000 0.000000
vn 0.000000 1.000000 0.000000
vn 0.000000 1.000000 0.000000
vn 0.000000 1.000000 0.000000
vn 0.000000 1.000000 0.000000
vn 0.036406 0.994454 0.098669
vn 0.036406 0.994454 0.098669
vn 0.036406 0.994454 0.098669
vn 0.089096 0.994901 0.047273
vn 0.089096 0.994901 0.047273
vn 0.089096 0.994901 0.047273
vn -0.000064 0.000001 -1.000000
vn -0.000064 0.000001 -1.000000
vn -0.000064 0.000001 -1.000000
vn -0.000064 0.000001 -1.000000
vn 0.033026 0.994260 0.101770
vn 0.033026 0.994260 0.101770
vn 0.033026 0.994260 0.101770
vn -0.000062 -0.000003 -1.000000
vn -0.000062 -0.000003 -1.000000
vn -0.000062 -0.000003 -1.000000
vn -0.000062 -0.000003 -1.000000
vn -0.044861 0.989556 0.136988
vn -0.044861 0.989556 0.136988
vn -0.044861 0.989556 0.136988
vn -0.000011 0.985903 -0.167316
vn -0.000011 0.985903 -0.167316
vn -0.000011 0.985903 -0.167316
vn -0.025768 0.999389 -0.023625
vn -0.025768 0.999389 -0.023625
vn -0.025768 0.999389 -0.023625
vn -0.025768 0.999389 -0.023625
vn 0.018919 0.999638 -0.019143
vn 0.018919 0.999638 -0.019143
vn 0.018919 0.999638 -0.019143
vn 0.018919 0.999638 -0.019143
vn -0.083947 0.995294 -0.048403
vn -0.083947 0.995294 -0.048403
vn -0.083947 0.995294 -0.048403
vn 0.000000 1.000000 0.000000
vn 0.000000 1.000000 0.000000
vn 0.000000 1.000000 0.000000
vn 0.000000 1.000000 0.000000
vn 0.000000 1.000000 0.000000
vn 0.000000 1.000000 0.000000
vn -0.866003 -0.000003 0.500039
vn -0.866003 -0.000003 0.500039
vn -0.866003 -0.000003 0.500039
vn -0.866003 -0.000003 0.500039
vn -0.866001 -0.000006 0.500042
vn -0.866001 -0.000006 0.500042
vn -0.866001 -0.000006 0.500042
vn -0.866001 -0.000006 0.500042
vn 0.000000 1.000000 0.000000
vn 0.000000 1.000000 0.000000
vn 0.000000 1.000000 0.000000
vn 0.000000 1.000000 0.000000
vn 0.000000 1.000000 0.000000
vn 0.000000 1.000000 0.000000
vn 0.000000 1.000000 0.000000
vn -0.006470 0.996281 0.085925
vn -0.006470 0.996281 0.085925
vn -0.006470 0.996281 0.085925
vn 0.000000 1.000000 0.000000
vn 0.000000 1.000000 0.000000
vn 0.000000 1.000000 0.000000
vn 0.000000 1.000000 0.000000
vn 0.000000 1.000000 0.000000
vn 0.000000 1.000000 0.000000
vn 0.094451 0.995526 0.002799
vn 0.094451 0.995526 0.002799
vn 0.094451 0.995526 0.002799
vn -0.078280 0.996931 -0.000275
vn -0.078280 0.996931 -0.000275
vn -0.078280 0.996931 -0.000275
vn -0.000008 0.992747 -0.120222
vn -0.000008 0.992747 -0.120222
vn -0.000008 0.992747 -0.120222
vn 0.000064 0.000000 1.000000
vn 0.000064 0.000000 1.000000
vn 0.000064 0.000000 1.000000
vn 0.000064 0.000000 1.000000
vn 0.000063 -0.000002 1.000000
vn 0.000063 -0.000002 1.000000
vn 0.000063 -0.000002 1.000000
vn 0.000063 -0.000002 1.000000
vn -0.109680 0.993967 -0.000385
vn -0.109680 0.993967 -0.000385
vn -0.109680 0.993967 -0.000385
vn -0.013456 0.996706 0.079980
vn -0.013456 0.996706 0.079980
vn -0.013456 0.996706 0.079980
vn -0.008495 0.995284 -0.096635
vn -0.008495 0.995284 -0.096635
vn -0.008495 0.995284 -0.096635
vn -0.008495 0.995284 -0.096635
vn 0.000005 0.997092 0.076206
vn 0.000005 0.997092 0.076206
vn 0.000005 0.997092 0.076206
vn 0.051152 0.998460 -0.021479
vn 0.051152 0.998460 -0.021479
vn 0.051152 0.998460 -0.021479
vn 0.865969 -0.000001 0.500098
vn 0.865969 -0.000001 0.500098
vn 0.865969 -0.000001 0.500098
vn 0.865969 -0.000001 0.500098
vn 0.031422 0.997245 -0.067187
vn 0.031422 0.997246 -0.067187
vn 0.031422 0.997246 -0.067187
vn -0.123988 0.988249 -0.089389
vn -0.123988 0.988249 -0.089389
vn -0.123988 0.988249 -0.089389
vn 0.865971 -0.000004 0.500094
vn 0.865971 -0.000004 0.500094
vn 0.865971 -0.000004 0.500094
vn 0.865971 -0.000004 0.500094
vn 0.036822 0.996216 -0.078733
vn 0.036822 0.996216 -0.078733
vn 0.036822 0.996216 -0.078733
vn -0.034266 0.997982 0.053453
vn -0.034266 0.997982 0.053453
vn -0.034266 0.997982 0.053453
vn 0.098417 0.993521 0.056835
vn 0.098417 0.993521 0.056835
vn 0.098417 0.993521 0.056835
vn -0.066528 0.997045 -0.038420
vn -0.066528 0.997045 -0.038420
vn -0.066528 0.997045 -0.038420
vn 0.051539 0.994440 0.091829
vn 0.051539 0.994440 0.091829
vn 0.051539 0.994440 0.091828
vn 0.021375 0.999205 -0.033654
vn 0.021375 0.999205 -0.033654
vn 0.021375 0.999205 -0.033654
vn 0.866001 -0.000004 -0.500042
vn 0.866001 -0.000004 -0.500042
vn 0.866001 -0.000004 -0.500042
vn 0.866001 -0.000004 -0.500042
vn 0.000000 1.000000 0.000000
vn 0.000000 1.000000 0.000000
vn 0.000000 1.000000 0.000000
vn 0.866001 -0.000002 -0.500043
vn 0.866001 -0.000002 -0.500043
vn 0.866001 -0.000002 -0.500043
vn 0.866001 -0.000002 -0.500043
vn 0.000000 1.000000 0.000000
vn 0.000000 1.000000 0.000000
vn 0.000000 1.000000 0.000000
vn 0.866002 -0.000004 -0.500040
vn 0.866002 -0.000004 -0.500040
vn 0.866002 -0.000004 -0.500040
vn 0.866002 -0.000004 -0.500040
vn 0.000000 1.000000 0.000000
vn 0.000000 1.000000 0.000000
vn 0.000000 1.000000 0.000000
vn 0.000000 1.000000 0.000000
vn 0.000000 1.000000 0.000000
vn 0.000000 1.000000 0.000000
vn 0.034083 0.999225 -0.019680
vn 0.034083 0.999225 -0.019680
vn 0.034083 0.999225 -0.019680
vn -0.865825 0.001602 -0.500345
vn -0.865825 0.001602 -0.500345
vn -0.865825 0.001602 -0.500345
vn -0.865825 0.001602 -0.500345
vn -0.866001 -0.000004 0.500042
vn -0.866001 -0.000004 0.500042
vn -0.866001 -0.000004 0.500042
vn -0.866001 -0.000004 0.500042
vn 0.000064 0.000000 1.000000
vn 0.000064 0.000000 1.000000
vn 0.000064 0.000000 1.000000
vn 0.000064 0.000000 1.000000
vn 0.865997 0.000043 -0.500049
vn 0.865997 0.000043 -0.500049
vn 0.865997 0.000043 -0.500049
vn 0.865997 0.000043 -0.500049
vn -0.000064 0.000002 -1.000000
vn -0.000064 0.000002 -1.000000
vn -0.000064 0.000002 -1.000000
vn -0.000064 0.000002 -1.000000
vn -0.866087 0.001309 -0.499891
vn -0.866087 0.001309 -0.499891
vn -0.866087 0.001309 -0.499891
vn -0.866087 0.001309 -0.499891
vn -0.866022 0.002555 -0.499999
vn -0.866022 0.002555 -0.499999
vn -0.866022 0.002555 -0.499999
vn -0.000063 0.000000 -1.000000
vn -0.000063 0.000000 -1.000000
vn -0.000063 0.000000 -1.000000
vn -0.000063 0.000003 -1.000000
vn -0.000063 0.000003 -1.000000
vn -0.000063 0.000003 -1.000000
vn -0.000063 0.000003 -1.000000
vn 0.866002 0.000003 -0.500041
vn 0.866002 0.000003 -0.500041
vn 0.866002 0.000003 -0.500041
vn 0.866002 0.000003 -0.500041
vn 0.866001 0.000001 -0.500042
vn 0.866001 0.000001 -0.500042
vn 0.866001 0.000001 -0.500042
vn 0.866002 -0.000001 -0.500040
vn 0.866002 -0.000001 -0.500040
vn 0.866002 -0.000001 -0.500040
vn 0.000047 0.000110 1.000000
vn 0.000047 0.000110 1.000000
vn 0.000047 0.000110 1.000000
vn 0.000047 0.000110 1.000000
vn 0.000064 0.000001 1.000000
vn 0.000064 0.000001 1.000000
vn 0.000064 0.000001 1.000000
vn -0.866002 -0.000007 0.500041
vn -0.866002 -0.000007 0.500041
vn -0.866002 -0.000007 0.500041
vn -0.866002 -0.000007 0.500041
vn -0.866001 -0.000006 0.500042
vn -0.866001 -0.000006 0.500042
vn -0.866001 -0.000006 0.500042
vn 0.865989 0.000261 0.500063
vn 0.865989 0.000261 0.500063
vn 0.865989 0.000261 0.500063
vn 0.865989 0.000261 0.500063
vn 0.865971 -0.000002 0.500095
vn 0.865971 -0.000002 0.500095
vn 0.865971 -0.000002 0.500095
vn 0.865972 -0.000032 0.500092
vn 0.865972 -0.000032 0.500092
vn 0.865972 -0.000032 0.500092
vn 0.865972 -0.000032 0.500092
s off
f 36/73/1 69/130/2 1/1/3 29/63/4
f 8/17/5 25/57/6 26/59/7 4/4/8
f 59/116/9 38/75/10 28/61/11 6/6/12
f 68/128/13 22/46/14 20/91/15
f 10/18/16 13/29/17 14/32/18 7/20/19
f 8/23/20 15/33/21 16/36/22 9/24/23
f 18/39/24 11/26/25 42/80/26 24/50/27
f 5/5/28 55/110/29 40/77/30 27/60/31
f 51/104/32 34/71/33 31/65/34 3/3/35
f 12/28/36 11/25/37 21/44/38 22/47/39
f 14/32/40 13/29/41 42/79/42 43/82/43
f 16/36/44 15/33/45 23/48/46 24/51/47
f 18/40/48 17/37/49 44/83/50 45/86/51
f 20/43/52 19/41/53 49/96/54 47/89/55
f 22/47/56 21/44/57 19/41/58 20/43/59
f 24/51/60 23/48/61 17/37/62 18/40/63
f 50/101/64 63/122/65 6/62/66 28/100/67
f 31/65/68 32/67/69 7/15/70 3/3/71
f 7/19/72 32/66/73 10/52/74
f 10/53/75 32/68/76 25/69/77 9/54/78
f 9/55/79 25/58/80 8/56/81
f 43/82/82 42/79/83 11/25/84 12/28/85
f 44/83/86 46/88/87 48/95/88 45/86/89
f 49/87/90 48/90/91 46/98/92 47/99/93
f 67/127/94 68/128/95 20/91/96 47/92/97
f 63/121/98 46/93/99 6/13/100
f 62/120/101 46/93/102 44/84/103
f 17/38/104 61/119/105 44/84/106
f 16/35/107 13/30/108 10/22/109 9/21/110
f 24/50/111 42/80/112 13/30/113 16/35/114
f 19/42/115 45/85/116 48/94/117 49/97/118
f 18/39/119 21/45/120 11/26/121
f 19/42/122 21/45/123 18/39/124 45/85/125
f 14/31/126 54/108/127 7/14/128
f 12/27/129 2/11/130 53/107/131
f 2/2/132 30/64/133 33/70/134 52/106/135
f 43/81/136 54/108/137 14/31/138
f 52/106/139 33/70/140 34/71/141 51/104/142
f 12/27/143 53/107/144 43/81/145
f 53/107/146 2/11/147 52/105/148
f 43/81/149 53/107/150 52/105/151 51/103/152
f 43/81/153 51/103/154 3/10/155 54/108/156
f 7/14/157 54/108/158 3/10/159
f 4/9/160 15/34/161 8/16/162
f 56/111/163 15/34/164 4/9/165
f 41/78/166 56/112/167 4/4/168 26/59/169
f 40/77/170 55/110/171 56/112/172 41/78/173
f 55/109/174 23/49/175 15/34/176 56/111/177
f 23/49/178 57/113/179 17/38/180
f 57/113/181 58/114/182 17/38/183
f 55/109/184 57/113/185 23/49/186
f 5/8/187 57/113/188 55/109/189
f 5/8/190 58/114/191 57/113/192
f 59/115/193 62/120/194 44/84/195
f 60/117/196 58/114/197 5/8/198
f 5/5/199 27/60/200 39/76/201 60/118/202
f 60/118/203 39/76/204 38/75/205 59/116/206
f 59/115/207 44/84/208 61/119/209
f 58/114/210 61/119/211 17/38/212
f 59/115/213 61/119/214 58/114/215 60/117/216
f 6/13/217 62/120/218 59/115/219
f 6/13/220 46/93/221 62/120/222
f 1/7/223 64/124/224 65/125/225 29/102/226
f 64/123/227 67/127/228 47/92/229
f 46/93/230 66/126/231 47/92/232
f 65/125/233 64/124/234 63/122/235 50/101/236
f 66/126/237 64/123/238 47/92/239
f 63/121/240 66/126/241 46/93/242
f 64/123/243 66/126/244 63/121/245
f 1/12/246 67/127/247 64/123/248
f 1/12/249 68/128/250 67/127/251
f 68/128/252 69/129/253 22/46/254
f 37/74/255 70/132/256 69/130/257 36/73/258
f 22/46/259 69/129/260 70/131/261
f 2/2/262 71/134/263 35/72/264 30/64/265
f 22/46/266 71/133/267 12/27/268
f 35/72/269 71/134/270 70/132/271 37/74/272
f 12/27/273 71/133/274 2/11/275
f 22/46/276 70/131/277 71/133/278
f 1/12/279 69/129/280 68/128/281
f 26/135/282 25/136/283 72/137/284 73/138/285
f 41/139/286 26/135/287 73/138/288 74/140/289
f 39/141/290 27/142/291 75/143/292 76/144/293
f 36/145/294 29/146/295 77/147/296 78/148/297
f 33/149/298 30/150/299 79/151/300 80/152/301
f 32/153/302 31/154/303 81/155/304 72/137/305
f 25/136/306 32/153/307 72/137/308
f 34/156/309 33/149/310 80/152/311
f 31/154/312 34/156/313 80/152/314 81/155/315
f 30/150/316 35/157/317 78/158/318 79/151/319
f 37/159/320 36/145/321 78/148/322
f 35/157/323 37/159/324 78/148/325
f 28/160/326 38/161/327 76/144/328 82/162/329
f 38/161/330 39/141/331 76/144/332
f 27/142/333 40/163/334 74/140/335 75/143/336
f 40/163/337 41/139/338 74/140/339
f 50/164/340 28/160/341 82/162/342 83/165/343
f 65/166/344 50/164/345 83/165/346
f 29/146/347 65/166/348 83/165/349 77/147/350
