# This file uses meters as units for non-parametric coordinates.

v 250.215010 -135.743790 -2.908053
v 204.191328 -98.987503 -213.849215
v -209.651690 -133.843002 -226.326510
v -249.951250 -135.744553 -2.876315
v -171.751665 -92.350845 208.896146
v 207.982221 -94.446640 216.587308
v -6.894488 -141.656876 238.154691
v -214.981035 -91.834946 126.953031
v -228.637163 -103.704910 -123.644625
v -2.191729 -113.526917 -238.248629
v 226.982466 -109.723129 -129.504977
v 226.475996 -105.689011 109.516508
v 249.999922 -43.147278 -125.014010
v 249.999922 -43.147278 -250.000094
v 0.016157 -43.147163 -250.000094
v -250.000078 -43.147278 -250.000094
v -250.000078 -43.147278 -124.986422
v -250.000078 -43.147278 0.017973
v -250.000078 -43.147278 125.013578
v -250.000078 -43.147278 250.009183
v -0.015703 -43.147278 249.999906
v 249.999922 -43.147278 249.999906
v 249.999922 -43.147278 124.985990
v 249.999922 -43.147278 -0.018404
v 209.524946 -120.819016 -117.544527
v 183.856245 -113.287354 -194.254488
v 199.002729 -151.106720 -25.418795
v 208.530927 -116.073303 93.168607
v 199.425093 -105.428085 199.394193
v -5.979326 -160.836487 229.433012
v -151.843218 -85.788879 191.240385
v -203.296221 -89.854050 118.313383
v -231.430010 -154.536285 -4.012057
v -213.884356 -147.704926 -115.218111
v -191.759844 -145.240631 -209.032320
v 2.326582 -146.580658 -230.945895
v 195.683027 -355.500183 -129.594088
v 132.056562 -327.156677 -232.688570
v 175.283735 -297.350159 -11.977145
v 173.607099 -322.925110 85.901029
v 136.422285 -299.694214 195.092435
v 2.356367 -385.296326 205.744779
v -116.677569 -370.100403 185.335844
v -184.881426 -260.224762 114.471586
v -228.989824 -297.448425 -12.631686
v -149.375567 -297.776489 -101.042574
v -113.866289 -273.726654 -209.189791
v 10.297529 -252.566528 -219.682467
v 1.021162 -548.270874 -3.017672
v -55.313555 -524.192810 78.821439
v -102.004595 -515.127258 49.027494
v -100.757281 -510.513611 1.986478
v -79.058550 -501.863403 -50.326022
v -39.419268 -503.107300 -64.900485
v 0.911543 -451.828003 -147.986178
v 86.020551 -442.701416 -147.115328
v 111.431318 -493.565369 -62.437106
v 96.883833 -506.315002 3.318265
v 92.687300 -506.254578 53.933744
v 49.629072 -517.753296 86.658109
v 0.947676 -522.740173 82.504545
v 150.208418 -362.965393 -87.701510
v 90.242475 -352.211609 -166.601901
v 3.690351 -279.535370 -175.656588
v -81.599688 -391.488953 128.012601
v 19.060591 -404.997864 129.061674
v 158.472822 -295.455627 153.091947
v 184.902998 -236.512909 -114.545504
v 122.063520 -221.536102 -213.988375
v 208.951948 -217.005310 -142.318209
v 146.637373 -202.136688 -239.748873
v 148.165083 -333.032837 80.858060
v 148.215986 -315.898438 -11.977145
v -183.107256 -313.576965 -11.174899
v -121.031695 -292.911682 -96.364596
v -148.847490 -342.167053 97.035795
v -225.298174 -70.211906 241.782621
v -244.478594 -69.983002 130.882474
v -259.994585 -89.465240 -1.264498
v -250.537676 -75.249588 -129.396822
v -242.114092 -88.621536 -249.509371
v -0.965044 -79.607437 -254.799166
v 239.686811 -73.156525 -243.973483
v 249.798994 -77.919800 -132.013277
v 260.107099 -89.464890 -1.300387
v 249.574262 -76.129913 123.129545
v 241.368818 -71.141785 245.189848
v -3.070635 -92.088470 254.759183
vt 0.990127 0.167536
vt 0.990694 0.171798
vt 0.954346 0.951920
vt 0.954346 0.951923
vt 0.991060 0.163443
vt 0.954346 0.951920
vt 0.991337 0.142851
vt 0.954346 0.951920
vt 0.991002 0.263957
vt 0.954346 0.951920
vt 0.990835 0.163278
vt 0.954346 0.951920
vt 0.990310 0.273765
vt 0.954346 0.951920
vt 0.989720 0.277488
vt 0.954346 0.951920
vt 0.989310 0.150415
vt 0.954346 0.951920
vt 0.989029 0.265789
vt 0.954346 0.951920
vt 0.989289 0.257700
vt 0.954346 0.951920
vt 0.989507 0.129181
vt 0.954346 0.951920
vt 0.990468 0.075076
vt 0.990624 0.075076
vt 0.990227 0.075076
vt 0.990119 0.147979
vt 0.990636 0.147745
vt 0.989730 0.112873
vt 0.989413 0.177440
vt 0.989142 0.260457
vt 0.989352 0.123584
vt 0.989762 0.270426
vt 0.990301 0.268395
vt 0.990761 0.130038
vt 0.990906 0.122205
vt 0.991221 0.118007
vt 0.990955 0.111804
vt 0.990126 0.079209
vt 0.990629 0.080832
vt 0.990086 0.077355
vt 0.989487 0.075276
vt 0.989788 0.075389
vt 0.989387 0.075788
vt 0.989491 0.075119
vt 0.989300 0.075838
vt 0.989797 0.075170
vt 0.990154 0.078252
vt 0.990672 0.075662
vt 0.990787 0.075422
vt 0.991076 0.075586
vt 0.990846 0.076128
vt 0.990450 0.075076
vt 0.989847 0.075076
vt 0.989957 0.075076
vt 0.990502 0.075076
vt 0.989915 0.075096
vt 0.989710 0.075082
vt 0.990391 0.075076
vt 0.990078 0.075076
vt 0.990254 0.075076
vt 0.990165 0.075076
vt 0.990002 0.075076
vt 0.989856 0.075076
vt 0.990565 0.075394
vt 0.990709 0.075477
vt 0.990695 0.075448
vt 0.990600 0.075100
vt 0.990481 0.075086
vt 0.990143 0.075083
vt 0.990108 0.075084
vt 0.989561 0.075214
vt 0.989852 0.075240
vt 0.990584 0.078258
vt 0.990141 0.075258
vt 0.989224 0.292388
vt 0.989443 0.292373
vt 0.990063 0.292381
vt 0.990630 0.292382
vt 0.990996 0.292380
vt 0.991273 0.292376
vt 0.990938 0.292397
vt 0.990771 0.292380
vt 0.990246 0.292411
vt 0.989655 0.318177
vt 0.989246 0.292377
vt 0.988965 0.292400
vt 0.989596 0.344165
vt 0.990285 0.333176
vt 0.990946 0.333165
vt 0.991208 0.333203
vt 0.991541 0.333224
vt 0.991176 0.333254
vt 0.990774 0.333283
vt 0.990095 0.333280
vt 0.989394 0.333274
vt 0.989110 0.333250
vt 0.988808 0.333225
vt 0.989175 0.333187
vt 0.954346 0.951920
vt 0.954346 0.951920
vt 0.954346 0.951920
vt 0.954346 0.951920
vt 0.954346 0.951920
vt 0.954346 0.951920
vt 0.954346 0.951920
vt 0.954346 0.951920
vt 0.954346 0.951920
vt 0.954346 0.951920
vt 0.954346 0.951920
vt 0.954346 0.951920
vn 0.852038 -0.509795 -0.118912
vn 0.852038 -0.509795 -0.118912
vn 0.907774 -0.407958 -0.097553
vn 0.867785 -0.483846 -0.113325
vn 0.061396 -0.374483 -0.925199
vn 0.061396 -0.374483 -0.925199
vn 0.061684 -0.373851 -0.925435
vn 0.046419 -0.234551 -0.970995
vn -0.015733 -0.218320 -0.975750
vn -0.015733 -0.218320 -0.975750
vn -0.009365 -0.145023 -0.989384
vn -0.008684 -0.196248 -0.980516
vn -0.924030 -0.381397 -0.026564
vn -0.924030 -0.381397 -0.026564
vn -0.934658 -0.355483 -0.006784
vn -0.933873 -0.357545 -0.006598
vn -0.985217 -0.136690 -0.103260
vn -0.985217 -0.136690 -0.103260
vn -0.981649 -0.151243 -0.116148
vn -0.986850 -0.120916 -0.107268
vn -0.955773 -0.238393 0.172241
vn -0.955773 -0.238393 0.172241
vn -0.952070 -0.245421 0.182566
vn -0.940290 -0.278557 0.195601
vn -0.622747 -0.771855 0.128168
vn -0.622747 -0.771855 0.128168
vn -0.674454 -0.730639 0.106198
vn -0.655926 -0.746963 0.108659
vn -0.110113 -0.382150 0.917517
vn -0.110113 -0.382150 0.917517
vn -0.119401 -0.364043 0.923697
vn -0.066301 -0.179442 0.981532
vn 0.075524 -0.310876 0.947445
vn 0.075524 -0.310876 0.947445
vn 0.057672 -0.180552 0.981873
vn 0.089874 -0.332211 0.938913
vn 0.845132 -0.526433 0.092846
vn 0.845132 -0.526433 0.092846
vn 0.820110 -0.563775 0.097862
vn 0.899826 -0.429223 0.077982
vn 0.979794 -0.161218 0.118371
vn 0.979794 -0.161218 0.118371
vn 0.974275 -0.182004 0.132904
vn 0.988505 -0.105002 0.108773
vn 0.985089 -0.136248 -0.105056
vn 0.985089 -0.136248 -0.105056
vn 0.983657 -0.142167 -0.110484
vn 0.982313 -0.149650 -0.112540
vn -0.082068 -0.829808 -0.551982
vn -0.082068 -0.829808 -0.551982
vn -0.082068 -0.829808 -0.551982
vn 0.408354 -0.885100 -0.223261
vn 0.408354 -0.885100 -0.223261
vn 0.408354 -0.885100 -0.223261
vn 0.408354 -0.885100 -0.223261
vn 0.381375 -0.889638 -0.251192
vn 0.381375 -0.889638 -0.251192
vn 0.381375 -0.889638 -0.251192
vn 0.381375 -0.889638 -0.251192
vn 0.194618 -0.940930 0.277082
vn 0.194618 -0.940930 0.277082
vn 0.194618 -0.940930 0.277082
vn 0.194618 -0.940930 0.277082
vn 0.496623 -0.854562 0.151952
vn 0.496623 -0.854562 0.151952
vn 0.496623 -0.854562 0.151952
vn 0.496623 -0.854562 0.151952
vn 0.249044 -0.666696 0.702491
vn 0.249044 -0.666696 0.702491
vn 0.249044 -0.666696 0.702491
vn 0.249044 -0.666696 0.702491
vn -0.392100 -0.911207 0.126332
vn -0.392100 -0.911207 0.126332
vn -0.392100 -0.911207 0.126332
vn -0.392100 -0.911207 0.126332
vn 0.187612 -0.977898 -0.092288
vn 0.187612 -0.977898 -0.092288
vn 0.187612 -0.977898 -0.092288
vn 0.187612 -0.977898 -0.092288
vn -0.323067 -0.837149 0.441373
vn -0.323067 -0.837149 0.441373
vn -0.323067 -0.837149 0.441373
vn -0.323067 -0.837149 0.441373
vn -0.850570 -0.476546 -0.222338
vn -0.850570 -0.476546 -0.222338
vn -0.850570 -0.476546 -0.222338
vn -0.850570 -0.476546 -0.222338
vn -0.836492 -0.538943 -0.099104
vn -0.836492 -0.538943 -0.099104
vn -0.836492 -0.538943 -0.099104
vn -0.836492 -0.538943 -0.099104
vn -0.049000 -0.502383 -0.863255
vn -0.049000 -0.502383 -0.863255
vn -0.049000 -0.502383 -0.863256
vn -0.049000 -0.502383 -0.863256
vn 0.195371 -0.532905 -0.823312
vn 0.195371 -0.532905 -0.823312
vn 0.195371 -0.532905 -0.823312
vn 0.195371 -0.532905 -0.823312
vn 0.891953 -0.010523 -0.452005
vn 0.891953 -0.010523 -0.452005
vn 0.891953 -0.010523 -0.452005
vn 0.891953 -0.010523 -0.452005
vn 0.798702 -0.492554 0.345639
vn 0.798702 -0.492554 0.345639
vn 0.798702 -0.492554 0.345639
vn 0.986003 -0.164257 -0.028587
vn 0.986003 -0.164257 -0.028587
vn 0.986003 -0.164257 -0.028587
vn 0.986003 -0.164257 -0.028587
vn 0.961378 -0.208110 0.180121
vn 0.961378 -0.208110 0.180121
vn 0.961378 -0.208110 0.180121
vn 0.961378 -0.208110 0.180121
vn 0.153661 -0.085863 0.984386
vn 0.153661 -0.085863 0.984386
vn 0.153661 -0.085863 0.984386
vn 0.153661 -0.085863 0.984386
vn -0.240243 -0.076826 0.967668
vn -0.240243 -0.076826 0.967668
vn -0.240243 -0.076826 0.967668
vn -0.240243 -0.076826 0.967668
vn -0.810303 -0.100601 0.577312
vn -0.810303 -0.100601 0.577312
vn -0.810303 -0.100601 0.577312
vn -0.949147 -0.075343 0.305684
vn -0.949147 -0.075343 0.305684
vn -0.949147 -0.075343 0.305684
vn -0.949147 -0.075343 0.305684
vn -0.876687 -0.208550 -0.433506
vn -0.876687 -0.208550 -0.433506
vn -0.876687 -0.208550 -0.433506
vn -0.876687 -0.208550 -0.433506
vn -0.843404 -0.446219 -0.299263
vn -0.843404 -0.446219 -0.299263
vn -0.843404 -0.446219 -0.299263
vn -0.843404 -0.446219 -0.299263
vn -0.095899 -0.082106 -0.991999
vn -0.095899 -0.082106 -0.991999
vn -0.095899 -0.082106 -0.991999
vn -0.095899 -0.082106 -0.991999
vn 0.105777 0.417746 -0.902386
vn 0.105777 0.417746 -0.902385
vn 0.105777 0.417746 -0.902386
vn 0.094520 -0.828827 -0.551463
vn 0.094520 -0.828827 -0.551463
vn 0.094520 -0.828827 -0.551463
vn 0.073546 -0.955602 0.285335
vn 0.073546 -0.955602 0.285335
vn 0.073546 -0.955602 0.285335
vn -0.205306 -0.849575 -0.485872
vn -0.205306 -0.849575 -0.485872
vn -0.205306 -0.849575 -0.485872
vn -0.148589 -0.960086 0.236972
vn -0.148589 -0.960086 0.236972
vn -0.148589 -0.960086 0.236972
vn -0.148589 -0.960086 0.236972
vn -0.345319 -0.892300 -0.290783
vn -0.345319 -0.892300 -0.290783
vn -0.345319 -0.892300 -0.290783
vn -0.254993 -0.960982 0.107205
vn -0.254993 -0.960982 0.107205
vn -0.254993 -0.960982 0.107205
vn 0.404249 -0.910492 -0.087104
vn 0.404249 -0.910492 -0.087104
vn 0.404249 -0.910492 -0.087104
vn 0.346011 -0.929359 0.128721
vn 0.346011 -0.929359 0.128721
vn 0.346011 -0.929359 0.128721
vn 0.123631 -0.833849 -0.537970
vn 0.123631 -0.833849 -0.537970
vn 0.123631 -0.833849 -0.537970
vn 0.398817 -0.916394 0.034158
vn 0.398817 -0.916394 0.034158
vn 0.398817 -0.916394 0.034158
vn -0.350393 -0.931182 -0.100621
vn -0.350393 -0.931182 -0.100621
vn -0.350393 -0.931182 -0.100621
vn -0.318870 -0.874018 0.366625
vn -0.318870 -0.874018 0.366625
vn -0.318870 -0.874018 0.366625
vn -0.778253 -0.317405 -0.541826
vn -0.778253 -0.317405 -0.541826
vn -0.778253 -0.317405 -0.541826
vn -0.778253 -0.317405 -0.541826
vn -0.847906 -0.383939 -0.365576
vn -0.847906 -0.383939 -0.365576
vn -0.847906 -0.383939 -0.365576
vn -0.847906 -0.383939 -0.365576
vn 0.102754 -0.855009 -0.508332
vn 0.102754 -0.855009 -0.508332
vn 0.102754 -0.855009 -0.508332
vn -0.492910 -0.682760 -0.539332
vn -0.492910 -0.682760 -0.539332
vn -0.492909 -0.682760 -0.539332
vn -0.492909 -0.682760 -0.539332
vn 0.056169 -0.967636 -0.246019
vn 0.056169 -0.967636 -0.246019
vn 0.056169 -0.967636 -0.246019
vn 0.056169 -0.967636 -0.246019
vn 0.530677 -0.719612 0.447818
vn 0.530677 -0.719612 0.447818
vn 0.530677 -0.719612 0.447818
vn 0.484363 -0.854647 -0.187007
vn 0.484363 -0.854647 -0.187007
vn 0.484363 -0.854647 -0.187007
vn 0.484363 -0.854647 -0.187007
vn 0.263578 -0.870655 0.415315
vn 0.263578 -0.870655 0.415315
vn 0.263578 -0.870655 0.415315
vn 0.528120 -0.787621 0.317399
vn 0.528120 -0.787621 0.317399
vn 0.528120 -0.787621 0.317399
vn 0.006015 -0.958195 0.286054
vn 0.006015 -0.958195 0.286054
vn 0.006015 -0.958195 0.286054
vn 0.499953 -0.729588 0.466636
vn 0.499953 -0.729588 0.466636
vn 0.499952 -0.729588 0.466636
vn 0.810919 -0.263470 -0.522489
vn 0.810919 -0.263470 -0.522489
vn 0.810919 -0.263470 -0.522489
vn 0.810919 -0.263470 -0.522489
vn -0.008395 -0.176409 -0.984281
vn -0.008395 -0.176409 -0.984281
vn -0.008395 -0.176409 -0.984281
vn -0.008395 -0.176409 -0.984281
vn -0.162442 -0.412686 -0.896272
vn -0.162442 -0.412686 -0.896272
vn -0.162442 -0.412686 -0.896272
vn -0.162442 -0.412686 -0.896272
vn -0.055620 -0.358133 0.932012
vn -0.055620 -0.358133 0.932012
vn -0.055620 -0.358133 0.932012
vn -0.055620 -0.358133 0.932012
vn 0.063832 -0.336072 0.939671
vn 0.063832 -0.336072 0.939671
vn 0.063832 -0.336072 0.939671
vn 0.063832 -0.336072 0.939671
vn 0.859515 -0.288099 0.422177
vn 0.859515 -0.288099 0.422177
vn 0.859515 -0.288099 0.422177
vn 0.577915 -0.784690 0.224221
vn 0.577915 -0.784690 0.224221
vn 0.577915 -0.784690 0.224221
vn 0.996719 -0.049014 0.064405
vn 0.996719 -0.049014 0.064405
vn 0.996719 -0.049014 0.064405
vn 0.996719 -0.049014 0.064405
vn 0.852572 0.153894 -0.499438
vn 0.852572 0.153894 -0.499438
vn 0.852572 0.153894 -0.499438
vn 0.852572 0.153894 -0.499438
vn 0.040179 0.038500 -0.998451
vn 0.040179 0.038500 -0.998451
vn 0.040179 0.038500 -0.998451
vn 0.040179 0.038500 -0.998451
vn 0.328042 -0.880570 -0.342031
vn 0.328042 -0.880570 -0.342031
vn 0.328042 -0.880570 -0.342030
vn 0.328042 -0.880570 -0.342030
vn -0.282435 -0.617296 -0.734286
vn -0.282435 -0.617296 -0.734286
vn -0.282435 -0.617296 -0.734286
vn 0.994164 -0.032422 0.102889
vn 0.994164 -0.032422 0.102889
vn 0.994164 -0.032422 0.102889
vn 0.826316 -0.429339 0.364513
vn 0.826316 -0.429339 0.364513
vn 0.826316 -0.429339 0.364513
vn 0.826316 -0.429339 0.364513
vn 0.959499 -0.281666 -0.005114
vn 0.959499 -0.281666 -0.005114
vn 0.959499 -0.281666 -0.005114
vn 0.959499 -0.281666 -0.005114
vn 0.953986 -0.246149 0.171233
vn 0.953986 -0.246149 0.171233
vn 0.953986 -0.246149 0.171233
vn 0.953986 -0.246149 0.171233
vn -0.932776 -0.337670 0.126126
vn -0.932776 -0.337670 0.126126
vn -0.932776 -0.337670 0.126126
vn -0.932776 -0.337670 0.126126
vn -0.128737 -0.967332 -0.218394
vn -0.128737 -0.967332 -0.218394
vn -0.128737 -0.967332 -0.218394
vn -0.128737 -0.967332 -0.218394
vn 0.191609 -0.969521 -0.152690
vn 0.191609 -0.969521 -0.152690
vn 0.191609 -0.969521 -0.152690
vn -0.888573 -0.426625 0.168608
vn -0.888573 -0.426625 0.168608
vn -0.888573 -0.426625 0.168608
vn -0.577614 -0.369636 0.727826
vn -0.577614 -0.369636 0.727826
vn -0.577614 -0.369636 0.727826
vn -0.577614 -0.369636 0.727826
vn -0.576206 -0.815884 -0.048175
vn -0.576206 -0.815884 -0.048175
vn -0.576206 -0.815884 -0.048175
vn -0.884088 -0.428471 0.186550
vn -0.884088 -0.428471 0.186550
vn -0.884088 -0.428471 0.186550
vn -0.796354 -0.110846 0.594587
vn -0.796354 -0.110846 0.594587
vn -0.796354 -0.110846 0.594587
vn -0.655926 -0.746963 0.108659
vn -0.674454 -0.730639 0.106198
vn -0.622747 -0.771855 0.128168
vn -0.622747 -0.771855 0.128168
vn -0.940290 -0.278557 0.195601
vn -0.952070 -0.245421 0.182566
vn -0.955773 -0.238393 0.172241
vn -0.955773 -0.238393 0.172241
vn -0.986850 -0.120916 -0.107268
vn -0.981649 -0.151243 -0.116148
vn -0.985217 -0.136690 -0.103260
vn -0.985217 -0.136690 -0.103260
vn -0.933873 -0.357545 -0.006598
vn -0.934658 -0.355483 -0.006784
vn -0.924030 -0.381397 -0.026564
vn -0.924030 -0.381397 -0.026564
vn -0.008684 -0.196248 -0.980516
vn -0.009365 -0.145023 -0.989384
vn -0.015733 -0.218320 -0.975750
vn -0.015733 -0.218320 -0.975750
vn 0.046419 -0.234551 -0.970995
vn 0.061684 -0.373851 -0.925435
vn 0.061396 -0.374483 -0.925199
vn 0.061396 -0.374483 -0.925199
vn 0.867785 -0.483846 -0.113325
vn 0.907774 -0.407958 -0.097553
vn 0.852038 -0.509795 -0.118912
vn 0.852038 -0.509795 -0.118912
vn 0.982313 -0.149650 -0.112540
vn 0.983657 -0.142167 -0.110484
vn 0.985089 -0.136248 -0.105056
vn 0.985089 -0.136248 -0.105056
vn 0.988505 -0.105002 0.108773
vn 0.974275 -0.182004 0.132904
vn 0.979794 -0.161218 0.118371
vn 0.979795 -0.161218 0.118371
vn 0.899826 -0.429223 0.077982
vn 0.820110 -0.563775 0.097862
vn 0.845132 -0.526433 0.092846
vn 0.845132 -0.526433 0.092846
vn 0.089874 -0.332211 0.938913
vn 0.057672 -0.180552 0.981873
vn 0.075524 -0.310876 0.947445
vn 0.075524 -0.310876 0.947445
vn -0.066301 -0.179442 0.981532
vn -0.119401 -0.364043 0.923697
vn -0.110113 -0.382150 0.917517
vn -0.110113 -0.382150 0.917517
s off
f 11/79/1 2/80/2 83/95/3 84/96/4
f 2/80/5 10/81/6 82/94/7 83/95/8
f 10/81/9 3/82/10 81/93/11 82/94/12
f 3/82/13 9/83/14 80/92/15 81/93/16
f 9/83/17 4/84/18 79/91/19 80/92/20
f 4/84/21 8/85/22 78/90/23 79/91/24
f 8/85/25 5/86/26 77/89/27 78/90/28
f 5/86/29 7/87/30 88/100/31 77/89/32
f 7/87/33 6/88/34 87/99/35 88/100/36
f 6/88/37 12/77/38 86/98/39 87/99/40
f 12/77/41 1/78/42 85/97/43 86/98/44
f 1/78/45 11/79/46 84/96/47 85/97/48
f 54/25/49 55/26/50 49/27/51
f 2/2/52 11/1/53 25/28/54 26/29/55
f 11/1/56 1/23/57 27/30/58 25/28/59
f 1/23/60 12/21/61 28/31/62 27/30/63
f 12/21/64 6/19/65 29/32/66 28/31/67
f 6/19/68 7/17/69 30/33/70 29/32/71
f 7/17/72 5/15/73 31/34/74 30/33/75
f 5/15/76 8/13/77 32/35/78 31/34/79
f 8/13/80 4/11/81 33/36/82 32/35/83
f 4/11/84 9/9/85 34/37/86 33/36/87
f 9/9/88 3/7/89 35/38/90 34/37/91
f 3/7/92 10/5/93 36/39/94 35/38/95
f 10/5/96 2/2/97 26/29/98 36/39/99
f 26/29/100 25/28/101 70/40/102 71/41/103
f 70/40/104 27/30/105 68/42/106
f 27/30/107 28/31/108 40/43/109 39/44/110
f 28/31/111 29/32/112 67/45/113 40/43/114
f 29/32/115 30/33/116 42/46/117 41/47/118
f 30/33/119 31/34/120 43/48/121 42/46/122
f 44/49/123 31/34/124 32/35/125
f 32/35/126 33/36/127 45/50/128 44/49/129
f 33/36/130 34/37/131 46/51/132 45/50/133
f 34/37/134 35/38/135 47/52/136 46/51/137
f 35/38/138 36/39/139 48/53/140 47/52/141
f 36/39/142 26/29/143 71/41/144
f 55/26/145 56/54/146 49/27/147
f 49/27/148 60/55/149 61/56/150
f 53/57/151 54/25/152 49/27/153
f 43/48/154 65/58/155 66/59/156 42/46/157
f 52/60/158 53/57/159 49/27/160
f 50/61/161 51/62/162 49/27/163
f 49/27/164 57/63/165 58/64/166
f 49/27/167 59/65/168 60/55/169
f 56/54/170 57/63/171 49/27/172
f 49/27/173 58/64/174 59/65/175
f 51/62/176 52/60/177 49/27/178
f 45/50/179 74/66/180 44/49/181
f 74/66/182 75/67/183 53/57/184 52/60/185
f 47/52/186 54/25/187 53/57/188 75/67/189
f 48/53/190 64/68/191 47/52/192
f 38/69/193 63/70/194 64/68/195 48/53/196
f 38/69/197 37/71/198 62/72/199 63/70/200
f 39/44/201 62/72/202 37/71/203
f 72/73/204 73/74/205 39/44/206 40/43/207
f 67/45/208 72/73/209 40/43/210
f 66/59/211 41/47/212 42/46/213
f 61/56/214 50/61/215 49/27/216
f 73/74/217 62/72/218 39/44/219
f 63/70/220 62/72/221 57/63/222 56/54/223
f 64/68/224 63/70/225 56/54/226 55/26/227
f 47/52/228 64/68/229 55/26/230 54/25/231
f 66/59/232 65/58/233 50/61/234 61/56/235
f 61/56/236 60/55/237 67/45/238 66/59/239
f 67/45/240 29/32/241 41/47/242
f 66/59/243 67/45/244 41/47/245
f 68/42/246 27/30/247 39/44/248 37/71/249
f 69/75/250 68/42/251 37/71/252 38/69/253
f 36/39/254 69/75/255 38/69/256 48/53/257
f 71/41/258 70/40/259 68/42/260 69/75/261
f 36/39/262 71/41/263 69/75/264
f 25/28/265 27/30/266 70/40/267
f 60/55/268 59/65/269 72/73/270 67/45/271
f 59/65/272 58/64/273 73/74/274 72/73/275
f 58/64/276 57/63/277 62/72/278 73/74/279
f 76/76/280 74/66/281 52/60/282 51/62/283
f 46/51/284 75/67/285 74/66/286 45/50/287
f 47/52/288 75/67/289 46/51/290
f 44/49/291 74/66/292 76/76/293
f 65/58/294 76/76/295 51/62/296 50/61/297
f 65/58/298 43/48/299 76/76/300
f 43/48/301 44/49/302 76/76/303
f 43/48/304 31/34/305 44/49/306
f 78/3/307 77/4/308 20/6/309 19/8/310
f 79/10/311 78/3/312 19/8/313 18/12/314
f 80/14/315 79/10/316 18/12/317 17/16/318
f 81/18/319 80/14/320 17/16/321 16/20/322
f 82/22/323 81/18/324 16/20/325 15/24/326
f 83/101/327 82/22/328 15/24/329 14/102/330
f 84/103/331 83/101/332 14/102/333 13/104/334
f 85/105/335 84/103/336 13/104/337 24/106/338
f 86/107/339 85/105/340 24/106/341 23/108/342
f 87/109/343 86/107/344 23/108/345 22/110/346
f 88/111/347 87/109/348 22/110/349 21/112/350
f 77/4/351 88/111/352 21/112/353 20/6/354
