# This file uses meters as units for non-parametric coordinates.

v 288.728027 0.000000 -0.018328
v 144.379883 0.000000 -250.009155
v -144.347900 0.000000 -249.990845
v -288.700195 0.000000 0.015944
v -144.364014 0.000000 250.032043
v 144.347900 0.000000 249.990845
v -180.411377 0.000000 -187.445221
v -252.538086 0.000000 -62.518349
v -241.734863 -7.061005 -81.229553
v -191.214355 -7.061005 -168.733978
v -4.461182 -7.061005 -66.832352
v -7.550049 -2.684133 -117.532578
v -98.413818 -7.061005 -126.335526
v -92.438965 2.269497 -147.375641
v -193.070313 0.000000 -28.184795
v -165.731445 -7.061005 -49.070854
v -1.817627 -7.061005 67.248802
v -252.538086 -11.986771 -62.518349
v -288.700195 -17.329197 0.015944
v -144.364014 -17.329197 250.032043
v 144.347900 -21.825504 249.990845
v 288.728027 -17.329197 -0.018328
v 144.379883 -17.329197 -250.009155
v -144.347900 -17.329197 -249.990845
v -180.411377 -25.621681 -187.445221
v -191.214355 -20.859699 -168.733978
v -241.734863 -20.859699 -81.229553
v 68.173340 -23.522987 -250.004272
v -60.656982 -12.821321 -249.996185
v 267.479980 -11.777887 -36.816635
v 52.435059 -23.861008 249.996643
v -89.041504 -12.074003 250.005646
v -252.538086 0.000000 62.518196
v -241.735107 -7.061005 81.229401
v -180.411377 0.000000 187.445068
v -191.214355 -7.061005 168.733826
v -181.333008 0.000000 6.310730
v -143.407227 -7.061005 16.721277
v -202.941162 0.000000 41.099167
v -189.529297 -7.061005 59.897804
v -119.618652 -7.061005 123.540039
v -83.753174 0.000000 137.136765
v -180.411377 -11.986771 187.445068
v -252.538086 -25.621681 62.518196
v -241.735107 -20.859699 81.229401
v -191.214355 -20.859699 168.733978
v 41.314941 0.000000 -72.746353
v 25.305664 0.000000 88.132477
v 28.891846 -7.061005 -6.226988
v 66.935059 0.000000 -4.590778
v 219.239990 -28.786259 120.307617
v -57.123291 0.000000 -249.996490
v 33.785645 0.000000 -250.002136
v 266.496338 0.000000 -38.520241
v 184.695068 3.204880 -19.444656
v 78.191406 -1.506404 -134.689636
v 146.275391 -2.622352 -69.893112
v 198.786133 2.314441 32.334366
v 221.342529 0.000000 116.666489
v 185.009521 0.000000 106.078949
v 113.596191 0.000000 58.587265
v -83.494385 0.000000 250.023346
v 56.136963 0.000000 250.003357
v 51.901855 1.481138 167.378845
v -12.536865 -2.252524 212.297821
v 114.748047 -1.274692 144.025421
v 57.578369 -3.307102 -174.710083
v 3.575684 -0.305869 -207.382507
v -63.177490 2.997661 -194.049683
v -119.661377 -0.912552 -212.448425
v -216.537842 -43.147278 -124.986343
v -288.728027 -43.147278 0.018209
v -144.379639 -43.147278 250.009155
v -0.015869 -43.147278 250.000000
v 144.359344 -43.147278 249.994431
v 216.537888 -43.147278 124.986191
v 288.728027 -43.147278 -0.021410
v 216.553711 -43.147278 -125.013733
v 144.379883 -43.147278 -250.009155
v 0.015869 -43.147278 -250.000000
v -144.347900 -43.147278 -249.990997
v -216.553711 -43.147278 125.013657
vt 0.897009 0.323314
vt 0.897009 0.323314
vt 0.897009 0.323314
vt 0.897009 0.323314
vt 0.897009 0.323314
vt 0.897009 0.323314
vt 0.897009 0.323314
vt 0.897006 0.323345
vt 0.897006 0.323346
vt 0.897006 0.323348
vt 0.897006 0.323349
vt 0.897007 0.323350
vt 0.897007 0.323347
vt 0.897006 0.323353
vt 0.897009 0.323314
vt 0.897005 0.323360
vt 0.897009 0.323314
vt 0.920094 0.312312
vt 0.920114 0.312778
vt 0.920091 0.312334
vt 0.917894 0.333618
vt 0.917891 0.333624
vt 0.920112 0.312288
vt 0.920109 0.312280
vt 0.920099 0.312994
vt 0.917892 0.333742
vt 0.897006 0.323357
vt 0.920097 0.312995
vt 0.920096 0.312518
vt 0.917892 0.333662
vt 0.897006 0.323355
vt 0.920093 0.312528
vt 0.920114 0.312439
vt 0.897006 0.323354
vt 0.917894 0.333653
vt 0.920111 0.312467
vt 0.917895 0.333728
vt 0.920113 0.312780
vt 0.917884 0.334530
vt 0.917917 0.334596
vt 0.920106 0.312775
vt 0.920105 0.312772
vt 0.897009 0.323314
vt 0.920105 0.312838
vt 0.897009 0.323314
vt 0.897009 0.323314
vt 0.897009 0.323314
vt 0.897009 0.323314
vt 0.897009 0.323314
vt 0.897009 0.323314
vt 0.897009 0.323314
vt 0.920114 0.312843
vt 0.897009 0.323314
vt 0.917884 0.333495
vt 0.920113 0.312844
vt 0.920106 0.312839
vt 0.917917 0.333561
vt 0.897009 0.323314
vt 0.897009 0.323314
vt 0.897009 0.323314
vt 0.897009 0.323314
vt 0.897009 0.323314
vt 0.897005 0.323351
vt 0.920095 0.312910
vt 0.897005 0.323352
vt 0.920089 0.312822
vt 0.920115 0.312540
vt 0.897005 0.323350
vt 0.920114 0.312573
vt 0.920092 0.312679
vt 0.917894 0.333673
vt 0.897005 0.323341
vt 0.920117 0.312982
vt 0.920112 0.312995
vt 0.897005 0.323346
vt 0.917920 0.333255
vt 0.917917 0.333653
vt 0.917922 0.334090
vt 0.917877 0.333779
vt 0.917884 0.333492
vt 0.917882 0.333227
vt 0.920116 0.312844
vt 0.920121 0.312894
vt 0.920113 0.313136
vt 0.920117 0.313117
vt 0.920089 0.313095
vt 0.920093 0.313121
vt 0.897009 0.323314
vt 0.897009 0.323314
vt 0.897009 0.323314
vt 0.897009 0.323314
vt 0.897009 0.323314
vt 0.897009 0.323314
vt 0.897009 0.323314
vt 0.897009 0.323314
vt 0.920114 0.312778
vt 0.920114 0.312843
vt 0.920113 0.312844
vt 0.920113 0.312780
vt 0.917884 0.334530
vt 0.917884 0.333495
vt 0.917917 0.333561
vt 0.917917 0.334596
vt 0.920106 0.312775
vt 0.920106 0.312839
vt 0.920105 0.312838
vt 0.920105 0.312772
vt 0.920110 0.311804
vt 0.920110 0.311884
vt 0.920110 0.312167
vt 0.897006 0.323343
vt 0.920096 0.312250
vt 0.920117 0.312947
vt 0.917894 0.333735
vt 0.897006 0.323339
vt 0.920100 0.312275
vt 0.920095 0.312398
vt 0.920091 0.312353
vt 0.920099 0.312057
vt 0.920095 0.312079
vt 0.897006 0.323341
vt 0.897009 0.323314
vt 0.897006 0.323358
vt 0.897009 0.323314
vt 0.897006 0.323359
vt 0.897009 0.323314
vt 0.897005 0.323352
vt 0.897009 0.323314
vt 0.897005 0.323351
vt 0.897005 0.323355
vt 0.897005 0.323353
vt 0.897005 0.323349
vt 0.897005 0.323346
vt 0.897009 0.323314
vt 0.897005 0.323346
vt 0.897005 0.323348
vt 0.897006 0.323339
vt 0.897009 0.323314
vt 0.897005 0.323340
vt 0.897009 0.323314
vt 0.897005 0.323342
vt 0.897005 0.323341
vt 0.897005 0.323344
vt 0.897005 0.323356
vt 0.897006 0.323357
vt 0.897006 0.323356
vt 0.897006 0.323356
vt 0.989943 0.923703
vt 0.990215 0.923703
vt 0.990486 0.900177
vt 0.989943 0.900177
vt 0.988856 0.923703
vt 0.988856 0.923703
vt 0.988856 0.900177
vt 0.988856 0.900177
vt 0.989420 0.923703
vt 0.988856 0.923703
vt 0.988856 0.900177
vt 0.989399 0.900177
vt 0.990103 0.923703
vt 0.989943 0.923703
vt 0.989943 0.900177
vt 0.990486 0.900177
vt 0.991030 0.923703
vt 0.991030 0.923703
vt 0.991030 0.900177
vt 0.991030 0.900177
vt 0.990758 0.923703
vt 0.991030 0.923703
vt 0.991030 0.900177
vt 0.990486 0.900177
vt 0.990676 0.923703
vt 0.990296 0.923703
vt 0.991030 0.923703
vt 0.988856 0.923703
vt 0.989128 0.923703
vt 0.989399 0.900177
vt 0.989671 0.923703
vt 0.989399 0.900177
vt 0.989590 0.923703
vt 0.989209 0.923703
vn 0.866000 -0.000002 -0.500044
vn 0.866000 -0.000002 -0.500044
vn 0.866000 -0.000002 -0.500044
vn 0.866000 -0.000002 -0.500044
vn -0.865678 0.000000 -0.500601
vn -0.865678 0.000000 -0.500601
vn -0.865678 0.000000 -0.500601
vn -0.865678 0.000000 -0.500601
vn 0.000332 -0.000665 1.000000
vn 0.000332 -0.000665 1.000000
vn 0.000332 -0.000665 1.000000
vn 0.000332 -0.000665 1.000000
vn 0.865970 0.000004 0.500097
vn 0.865970 0.000004 0.500097
vn 0.865970 0.000004 0.500097
vn 0.865970 0.000004 0.500097
vn -0.157265 0.934612 0.319011
vn -0.157265 0.934612 0.319011
vn -0.157265 0.934612 0.319011
vn -0.157265 0.934612 0.319011
vn 0.000000 1.000000 0.000000
vn 0.000000 1.000000 0.000000
vn 0.000000 1.000000 0.000000
vn 0.000000 1.000000 0.000000
vn 0.000000 1.000000 0.000000
vn 0.000000 1.000000 0.000000
vn 0.000000 1.000000 0.000000
vn 0.000000 1.000000 0.000000
vn 0.000000 1.000000 0.000000
vn 0.000000 1.000000 0.000000
vn 0.000000 1.000000 0.000000
vn 0.000000 1.000000 0.000000
vn 0.114753 0.965490 -0.233797
vn 0.114753 0.965490 -0.233797
vn 0.114753 0.965490 -0.233797
vn 0.114753 0.965490 -0.233797
vn 0.000000 1.000000 0.000000
vn 0.000000 1.000000 0.000000
vn 0.000000 1.000000 0.000000
vn -0.000064 -0.000001 -1.000000
vn -0.000064 -0.000001 -1.000000
vn -0.000064 -0.000001 -1.000000
vn -0.000064 -0.000001 -1.000000
vn -0.065135 0.980625 0.184747
vn -0.065135 0.980625 0.184747
vn -0.065135 0.980625 0.184747
vn -0.065135 0.980625 0.184747
vn 0.200540 0.977315 -0.068111
vn 0.200540 0.977315 -0.068111
vn 0.200540 0.977315 -0.068111
vn 0.200540 0.977315 -0.068111
vn -0.866309 0.000000 -0.499509
vn -0.866309 0.000000 -0.499509
vn -0.866309 0.000000 -0.499509
vn -0.866309 0.000000 -0.499509
vn -0.866025 0.000000 -0.500001
vn -0.866025 0.000000 -0.500001
vn -0.866025 0.000000 -0.500001
vn -0.866025 0.000000 -0.500001
vn -0.866026 0.000000 -0.499999
vn -0.866026 0.000000 -0.499999
vn -0.866026 0.000000 -0.499999
vn -0.866026 0.000000 -0.499999
vn -0.866019 0.000000 -0.500010
vn -0.866019 0.000000 -0.500010
vn -0.866019 0.000000 -0.500010
vn -0.866019 0.000000 -0.500011
vn -0.099932 0.971420 -0.215305
vn -0.099932 0.971420 -0.215305
vn -0.099932 0.971420 -0.215305
vn -0.099932 0.971420 -0.215305
vn 0.178849 0.971531 0.155371
vn 0.178849 0.971531 0.155371
vn 0.178849 0.971531 0.155371
vn 0.178849 0.971531 0.155371
vn 0.000000 1.000000 0.000000
vn 0.000000 1.000000 0.000000
vn 0.000000 1.000000 0.000000
vn 0.000000 1.000000 0.000000
vn 0.118421 0.952078 0.281998
vn 0.118421 0.952078 0.281998
vn 0.118421 0.952079 0.281998
vn 0.118421 0.952078 0.281998
vn -0.131409 0.963915 -0.231514
vn -0.131409 0.963915 -0.231514
vn -0.131409 0.963915 -0.231514
vn -0.131409 0.963915 -0.231514
vn -0.866548 0.000000 0.499094
vn -0.866548 0.000000 0.499094
vn -0.866548 0.000000 0.499094
vn -0.866548 0.000000 0.499094
vn -0.865567 0.000000 0.500794
vn -0.865567 0.000000 0.500794
vn -0.865567 0.000000 0.500794
vn -0.865567 0.000000 0.500794
vn -0.866024 0.000000 0.500002
vn -0.866024 0.000000 0.500002
vn -0.866024 0.000000 0.500002
vn -0.866024 0.000000 0.500002
vn -0.866025 0.000003 0.500000
vn -0.866025 0.000003 0.500000
vn -0.866025 0.000003 0.500000
vn -0.866025 0.000003 0.500000
vn -0.866024 0.000004 0.500002
vn -0.866024 0.000004 0.500002
vn -0.866024 0.000004 0.500002
vn -0.866024 0.000004 0.500002
vn -0.139953 0.985722 0.093622
vn -0.139953 0.985722 0.093622
vn -0.139953 0.985722 0.093622
vn -0.004350 0.998884 -0.047026
vn -0.004350 0.998884 -0.047026
vn -0.004350 0.998884 -0.047026
vn -0.161999 0.983998 0.074196
vn -0.161999 0.983998 0.074196
vn -0.161999 0.983998 0.074196
vn -0.161999 0.983998 0.074196
vn -0.184519 0.979542 -0.080313
vn -0.184519 0.979542 -0.080313
vn -0.184519 0.979542 -0.080313
vn -0.184519 0.979542 -0.080313
vn -0.021099 0.999098 -0.036858
vn -0.021099 0.999098 -0.036858
vn -0.021099 0.999098 -0.036858
vn -0.007297 0.999842 -0.016239
vn -0.007297 0.999842 -0.016239
vn -0.007297 0.999842 -0.016239
vn 0.029059 0.999535 0.009281
vn 0.029059 0.999535 0.009281
vn 0.029059 0.999535 0.009281
vn 0.000000 1.000000 0.000000
vn 0.000000 1.000000 0.000000
vn 0.000000 1.000000 0.000000
vn 0.000000 1.000000 0.000000
vn 0.000000 1.000000 0.000000
vn 0.000000 1.000000 0.000000
vn 0.036761 0.998843 0.030991
vn 0.036762 0.998843 0.030991
vn 0.036761 0.998843 0.030991
vn -0.000064 -0.000003 -1.000000
vn -0.000064 -0.000003 -1.000000
vn -0.000064 -0.000003 -1.000000
vn -0.000064 -0.000003 -1.000000
vn 0.043242 0.998152 0.042682
vn 0.043242 0.998152 0.042682
vn 0.043242 0.998152 0.042682
vn -0.000063 -0.000003 -1.000000
vn -0.000063 -0.000003 -1.000000
vn -0.000063 -0.000003 -1.000000
vn -0.000063 -0.000003 -1.000000
vn 0.056045 0.997871 0.033353
vn 0.056045 0.997871 0.033353
vn 0.056045 0.997871 0.033353
vn 0.866002 -0.000001 -0.500041
vn 0.866002 -0.000001 -0.500041
vn 0.866002 -0.000001 -0.500041
vn 0.866002 -0.000001 -0.500041
vn 0.025233 0.999637 -0.009485
vn 0.025233 0.999637 -0.009485
vn 0.025233 0.999637 -0.009485
vn 0.034502 0.999206 -0.019922
vn 0.034502 0.999206 -0.019922
vn 0.034502 0.999206 -0.019922
vn 0.002560 0.999891 0.014531
vn 0.002560 0.999891 0.014531
vn 0.002560 0.999891 0.014531
vn -0.020598 0.999198 -0.034349
vn -0.020598 0.999198 -0.034349
vn -0.020598 0.999198 -0.034349
vn 0.010318 0.992416 -0.122490
vn 0.010318 0.992416 -0.122490
vn 0.010318 0.992416 -0.122490
vn 0.025228 0.999639 -0.009292
vn 0.025228 0.999639 -0.009292
vn 0.025228 0.999639 -0.009292
vn -0.037954 0.995564 -0.086092
vn -0.037954 0.995564 -0.086092
vn -0.037954 0.995564 -0.086092
vn -0.025671 0.999561 0.014823
vn -0.025671 0.999561 0.014823
vn -0.025671 0.999561 0.014823
vn 0.000000 1.000000 0.000000
vn 0.000000 1.000000 0.000000
vn 0.000000 1.000000 0.000000
vn -0.010010 0.999837 0.015052
vn -0.010010 0.999837 0.015052
vn -0.010010 0.999837 0.015052
vn 0.000000 1.000000 0.000000
vn 0.000000 1.000000 0.000000
vn 0.000000 1.000000 0.000000
vn 0.865969 0.000004 0.500097
vn 0.865969 0.000004 0.500097
vn 0.865969 0.000004 0.500097
vn 0.865969 0.000004 0.500097
vn 0.022032 0.999525 0.021538
vn 0.022032 0.999525 0.021538
vn 0.022032 0.999525 0.021538
vn 0.022032 0.999525 0.021538
vn -0.018555 0.999439 0.027901
vn -0.018555 0.999439 0.027901
vn -0.018555 0.999438 0.027901
vn -0.023138 0.999533 0.019970
vn -0.023138 0.999533 0.019970
vn -0.023138 0.999533 0.019970
vn -0.023138 0.999533 0.019970
vn 0.004970 0.999877 0.014851
vn 0.004970 0.999877 0.014851
vn 0.004970 0.999877 0.014851
vn 0.000074 -0.000698 1.000000
vn 0.000074 -0.000698 1.000000
vn 0.000074 -0.000698 1.000000
vn 0.000074 -0.000698 1.000000
vn -0.022278 0.998449 0.051032
vn -0.022278 0.998449 0.051032
vn -0.022278 0.998449 0.051032
vn 0.000103 -0.000155 1.000000
vn 0.000103 -0.000155 1.000000
vn 0.000103 -0.000155 1.000000
vn 0.000103 -0.000155 1.000000
vn 0.000003 0.999839 0.017923
vn 0.000003 0.999839 0.017923
vn 0.000003 0.999839 0.017923
vn 0.032781 0.999022 -0.029674
vn 0.032781 0.999022 -0.029674
vn 0.032781 0.999022 -0.029674
vn -0.043826 0.998836 0.020152
vn -0.043826 0.998836 0.020152
vn -0.043826 0.998836 0.020152
vn 0.031690 0.999498 -0.000073
vn 0.031690 0.999498 -0.000073
vn 0.031690 0.999498 -0.000073
vn -0.000009 0.998221 -0.059618
vn -0.000009 0.998221 -0.059618
vn -0.000009 0.998221 -0.059618
vn 0.035646 0.999123 -0.021976
vn 0.035646 0.999123 -0.021976
vn 0.035646 0.999123 -0.021976
vn -0.021404 0.999753 -0.006048
vn -0.021404 0.999753 -0.006048
vn -0.021404 0.999753 -0.006048
vn 0.000000 1.000000 0.000000
vn 0.000000 1.000000 0.000000
vn 0.000000 1.000000 0.000000
vn 0.000000 1.000000 0.000000
vn 0.000000 1.000000 -0.000000
vn 0.000000 1.000000 -0.000000
vn 0.000000 1.000000 -0.000000
vn 0.000000 1.000000 0.000000
vn 0.000000 1.000000 0.000000
vn 0.000000 1.000000 0.000000
vn 0.000000 1.000000 0.000000
vn 0.000000 1.000000 0.000000
vn 0.000000 1.000000 0.000000
vn 0.000000 1.000000 0.000000
vn 0.000000 1.000000 0.000000
vn -0.053228 0.998429 -0.017508
vn -0.053228 0.998429 -0.017508
vn -0.053228 0.998429 -0.017508
vn 0.035814 0.998828 0.032555
vn 0.035814 0.998828 0.032555
vn 0.035814 0.998828 0.032555
vn 0.019234 0.999610 -0.020222
vn 0.019234 0.999610 -0.020222
vn 0.019234 0.999611 -0.020222
vn 0.019234 0.999611 -0.020222
vn 0.000002 0.999705 0.024299
vn 0.000002 0.999705 0.024299
vn 0.000002 0.999705 0.024299
vn 0.019690 0.999742 0.011353
vn 0.019690 0.999742 0.011353
vn 0.019690 0.999742 0.011353
vn -0.061574 0.997837 -0.023035
vn -0.061574 0.997837 -0.023035
vn -0.061574 0.997837 -0.023035
vn -0.049862 0.997023 -0.058817
vn -0.049862 0.997023 -0.058817
vn -0.049862 0.997023 -0.058817
vn 0.000003 0.999037 0.043880
vn 0.000003 0.999037 0.043880
vn 0.000003 0.999037 0.043880
vn -0.865892 0.001735 -0.500228
vn -0.865892 0.001735 -0.500228
vn -0.865892 0.001735 -0.500228
vn -0.865892 0.001735 -0.500228
vn 0.000184 -0.000214 1.000000
vn 0.000184 -0.000214 1.000000
vn 0.000184 -0.000214 1.000000
vn 0.000184 -0.000214 1.000000
vn 0.865993 0.000315 0.500056
vn 0.865993 0.000315 0.500056
vn 0.865993 0.000315 0.500056
vn 0.865993 0.000315 0.500056
vn 0.865997 0.000043 -0.500049
vn 0.865997 0.000043 -0.500049
vn 0.865997 0.000043 -0.500049
vn 0.865997 0.000043 -0.500049
vn -0.000064 0.000002 -1.000000
vn -0.000064 0.000002 -1.000000
vn -0.000064 0.000002 -1.000000
vn -0.000064 0.000002 -1.000000
vn -0.866113 0.001611 -0.499846
vn -0.866113 0.001611 -0.499846
vn -0.866113 0.001611 -0.499846
vn -0.866113 0.001611 -0.499846
vn -0.865836 0.001701 -0.500325
vn -0.865836 0.001701 -0.500325
vn -0.865836 0.001701 -0.500325
vn -0.866023 0.002559 -0.499997
vn -0.866023 0.002559 -0.499997
vn -0.866023 0.002559 -0.499997
vn -0.857680 0.037198 -0.512837
vn -0.857679 0.037198 -0.512837
vn -0.857680 0.037198 -0.512837
vn -0.000063 0.000003 -1.000000
vn -0.000063 0.000003 -1.000000
vn -0.000063 0.000003 -1.000000
vn -0.000063 0.000003 -1.000000
vn 0.866002 -0.000003 -0.500040
vn 0.866002 -0.000003 -0.500040
vn 0.866002 -0.000003 -0.500040
vn 0.866002 -0.000003 -0.500040
vn 0.000047 0.000110 1.000000
vn 0.000047 0.000110 1.000000
vn 0.000047 0.000110 1.000000
vn 0.000047 0.000110 1.000000
vn 0.000064 0.000001 1.000000
vn 0.000064 0.000001 1.000000
vn 0.000064 0.000001 1.000000
vn -0.866160 0.001863 0.499764
vn -0.866160 0.001863 0.499764
vn -0.866160 0.001863 0.499764
vn -0.866160 0.001863 0.499764
vn -0.865788 0.003301 0.500400
vn -0.865788 0.003301 0.500400
vn -0.865788 0.003301 0.500400
vn -0.865788 0.003301 0.500400
vn -0.866300 0.002529 0.499518
vn -0.866300 0.002529 0.499518
vn -0.866300 0.002529 0.499518
vn -0.866019 0.003787 0.499996
vn -0.866019 0.003787 0.499996
vn -0.866019 0.003787 0.499996
vn -0.875744 0.054725 0.479665
vn -0.875744 0.054725 0.479665
vn -0.875744 0.054725 0.479665
vn 0.865973 -0.000044 0.500091
vn 0.865973 -0.000044 0.500091
vn 0.865973 -0.000044 0.500091
vn 0.865973 -0.000044 0.500091
vn -0.000063 0.000000 -1.000000
vn -0.000063 0.000000 -1.000000
vn -0.000063 0.000000 -1.000000
s off
f 30/60/1 54/128/2 1/1/3 22/49/4
f 8/17/5 18/43/6 19/45/7 4/4/8
f 5/5/9 20/46/10 32/62/11 62/138/12
f 21/47/13 51/122/14 59/134/15 6/6/16
f 10/18/17 13/29/18 14/32/19 7/20/20
f 8/12/21 4/13/22 15/11/23
f 4/13/24 33/8/25 15/11/26
f 33/8/27 39/9/28 15/11/29
f 39/9/30 37/10/31 15/11/32
f 8/23/33 15/33/34 16/36/35 9/24/36
f 49/114/37 38/71/38 17/37/39
f 2/2/40 23/50/41 28/58/42 53/126/43
f 14/32/44 13/29/45 11/25/46 12/28/47
f 16/36/48 15/33/49 37/67/50 38/69/51
f 24/51/52 25/53/53 7/15/54 3/3/55
f 7/19/56 25/52/57 26/55/58 10/38/59
f 10/39/60 26/54/61 27/57/62 9/40/63
f 9/41/64 27/56/65 18/44/66 8/42/67
f 17/70/68 41/64/69 42/66/70 48/113/71
f 39/73/72 40/74/73 38/82/74 37/83/75
f 36/76/76 41/77/77 40/80/78 34/81/79
f 34/84/80 40/74/81 39/73/82 33/85/83
f 35/86/84 42/66/85 41/64/86 36/87/87
f 35/88/88 43/89/89 20/90/90 5/91/91
f 19/92/92 44/93/93 33/94/94 4/95/95
f 33/96/96 44/97/97 45/98/98 34/99/99
f 34/100/100 45/101/101 46/102/102 36/103/103
f 36/104/104 46/105/105 43/106/106 35/107/107
f 47/110/108 12/108/109 11/109/110
f 14/34/111 70/147/112 7/31/113
f 49/112/114 50/116/115 47/117/116 11/118/117
f 48/119/118 50/116/119 49/112/120 17/120/121
f 47/65/122 56/130/123 12/14/124
f 64/141/125 48/75/126 42/111/127
f 1/63/128 55/129/129 58/132/130
f 5/115/131 42/111/132 35/121/133
f 62/137/134 42/111/135 5/115/136
f 12/14/137 67/144/138 68/145/139
f 52/124/140 29/59/141 24/51/142 3/3/143
f 12/14/144 69/146/145 14/34/146
f 53/126/147 28/58/148 29/59/149 52/124/150
f 12/14/151 68/145/152 69/146/153
f 23/50/154 2/2/155 54/128/156 30/60/157
f 50/68/158 57/131/159 47/65/160
f 1/63/161 54/127/162 55/129/163
f 56/130/164 57/131/165 2/16/166
f 12/14/167 56/130/168 67/144/169
f 54/127/170 57/131/171 55/129/172
f 47/65/173 57/131/174 56/130/175
f 50/68/176 55/129/177 57/131/178
f 2/16/179 57/131/180 54/127/181
f 48/75/182 61/136/183 50/68/184
f 66/143/185 60/135/186 61/136/187
f 59/133/188 60/135/189 6/72/190
f 59/134/191 51/122/192 22/48/193 1/7/194
f 1/63/195 58/132/196 60/135/197 59/133/198
f 61/136/199 60/135/200 58/132/201
f 50/68/202 61/136/203 58/132/204 55/129/205
f 66/143/206 61/136/207 48/75/208
f 62/138/209 32/62/210 31/61/211 63/140/212
f 42/111/213 65/142/214 64/141/215
f 63/140/216 31/61/217 21/47/218 6/6/219
f 6/72/220 64/141/221 63/139/222
f 64/141/223 66/143/224 48/75/225
f 63/139/226 64/141/227 65/142/228
f 62/137/229 65/142/230 42/111/231
f 63/139/232 65/142/233 62/137/234
f 6/72/235 66/143/236 64/141/237
f 6/72/238 60/135/239 66/143/240
f 9/21/241 16/35/242 13/30/243 10/22/244
f 11/26/245 38/71/246 49/114/247
f 13/30/248 16/35/249 38/71/250 11/26/251
f 40/80/252 41/77/253 17/78/254 38/79/255
f 67/144/256 56/130/257 2/16/258
f 68/145/259 67/144/260 53/125/261
f 69/146/262 68/145/263 53/125/264 52/123/265
f 70/147/266 52/123/267 3/27/268
f 7/31/269 70/147/270 3/27/271
f 14/34/272 69/146/273 70/147/274
f 70/147/275 69/146/276 52/123/277
f 53/125/278 67/144/279 2/16/280
f 19/148/281 18/149/282 71/150/283 72/151/284
f 32/152/285 20/153/286 73/154/287 74/155/288
f 51/156/289 21/157/290 75/158/291 76/159/292
f 30/160/293 22/161/294 77/162/295 78/163/296
f 28/164/297 23/165/298 79/166/299 80/167/300
f 25/168/301 24/169/302 81/170/303 71/171/304
f 26/172/305 25/168/306 71/171/307
f 27/173/308 26/172/309 71/150/310
f 18/149/311 27/173/312 71/150/313
f 24/169/314 29/174/315 80/167/316 81/170/317
f 23/165/318 30/160/319 78/163/320 79/166/321
f 21/157/322 31/175/323 74/155/324 75/158/325
f 31/175/326 32/152/327 74/155/328
f 20/153/329 43/176/330 82/177/331 73/154/332
f 44/178/333 19/148/334 72/151/335 82/179/336
f 45/180/337 44/178/338 82/179/339
f 46/181/340 45/180/341 82/177/342
f 43/176/343 46/181/344 82/177/345
f 22/161/346 51/156/347 76/159/348 77/162/349
f 29/174/350 28/164/351 80/167/352
