# This file uses meters as units for non-parametric coordinates.

v 228.567200 139.674301 0.018336
v 116.573029 112.141647 200.326843
v -114.270554 139.674301 197.905426
v -228.567352 139.674301 -0.010594
v -117.509079 87.311935 -200.313873
v 112.894516 94.755249 -200.470886
v -0.012692 142.553864 -204.018250
v -179.934235 92.447052 -102.461090
v -145.041351 101.179276 92.122040
v -2.121624 121.824493 207.734528
v 176.661530 114.438248 106.898117
v 192.448120 104.613800 -82.734985
v 216.553802 8.544769 125.013962
v 144.380341 -8.544769 250.009003
v 0.016157 8.544617 250.000000
v -144.347687 -8.544655 249.990540
v -216.537933 8.544769 124.986343
v -288.728027 -8.544655 -0.018371
v -216.553802 8.544769 -125.013657
v -144.379730 -8.544655 -250.009155
v -0.015672 8.544769 -250.000000
v 144.348602 -8.544655 -249.990692
v 216.537933 8.544769 -124.986343
v 288.728027 -8.544655 0.018331
v 155.910187 126.886597 92.639084
v 105.212479 126.595230 180.355835
v 176.794891 156.933289 19.241886
v 171.445160 115.495300 -65.876389
v 100.783997 105.625610 -180.503235
v 0.949923 161.626434 -190.608368
v -106.342010 96.648331 -180.309448
v -170.718689 100.406342 -95.981445
v -204.911499 159.945068 0.007031
v -136.956711 160.698853 80.525131
v -102.444305 159.802399 177.439728
v 1.937214 161.105042 186.060486
v 134.079666 365.691528 79.048538
v 90.782242 352.702026 151.667633
v 125.149765 308.946533 -0.457309
v 123.318939 320.643616 -71.160355
v 76.524429 295.050659 -144.478760
v 1.166407 356.724854 -155.707855
v -82.503128 347.392883 -141.654358
v -120.418015 263.396301 -81.236191
v -164.431610 309.076233 0.009364
v -106.597824 316.640930 63.001976
v -82.206573 304.135742 142.390594
v 7.268848 280.975800 155.869141
v -0.000532 503.057251 -12.388725
v -36.735573 473.971863 -65.678787
v -67.223969 470.789490 -45.947075
v -66.186028 473.151550 -14.957352
v -51.940842 473.052673 19.367714
v -26.158619 475.899048 28.772583
v 0.006143 445.440979 85.053406
v 56.060715 437.969360 85.057068
v 71.858444 468.064880 27.510586
v 62.536049 469.732666 -15.755157
v 60.146980 463.399658 -49.143486
v 31.888676 468.116455 -70.892181
v -0.003513 472.410278 -68.121948
v 102.838211 367.496643 49.964294
v 61.445274 366.744080 104.463120
v 2.223556 307.863464 117.258606
v -57.029762 368.518982 -100.360336
v 12.617054 378.526917 -100.870895
v 92.437210 294.978638 -113.596497
v 141.593704 255.280304 81.125107
v 94.977798 245.107727 161.027527
v 164.897919 235.332947 106.516266
v 117.767715 224.365845 187.767334
v 104.602661 328.724670 -67.489929
v 104.713058 323.415833 -0.998682
v -130.497665 321.537476 -1.503206
v -86.709518 312.349854 59.994164
v -105.659790 334.256592 -79.016724
vt 0.929525 0.312844
vt 0.929525 0.312844
vt 0.929525 0.312844
vt 0.929525 0.312844
vt 0.929525 0.312844
vt 0.929525 0.312844
vt 0.929525 0.312844
vt 0.929525 0.312844
vt 0.929525 0.312844
vt 0.929525 0.312844
vt 0.929525 0.312844
vt 0.929525 0.312844
vt 0.929525 0.312844
vt 0.929525 0.312844
vt 0.929525 0.312844
vt 0.929525 0.312844
vt 0.929525 0.312844
vt 0.929525 0.312844
vt 0.929525 0.312844
vt 0.929525 0.312844
vt 0.929525 0.312844
vt 0.929525 0.312844
vt 0.929525 0.312844
vt 0.929525 0.312844
vt 0.929525 0.312844
vt 0.929525 0.312844
vt 0.929525 0.312844
vt 0.929525 0.312844
vt 0.929525 0.312844
vt 0.929525 0.312844
vt 0.929525 0.312844
vt 0.929525 0.312844
vt 0.929525 0.312844
vt 0.929525 0.312844
vt 0.929525 0.312844
vt 0.929525 0.312844
vt 0.929525 0.312844
vt 0.929525 0.312844
vt 0.929525 0.312844
vt 0.929525 0.312844
vt 0.929525 0.312844
vt 0.929525 0.312844
vt 0.929525 0.312844
vt 0.929525 0.312844
vt 0.929525 0.312844
vt 0.929525 0.312844
vt 0.929525 0.312844
vt 0.929525 0.312844
vt 0.929525 0.312844
vt 0.929525 0.312844
vt 0.929525 0.312844
vt 0.929525 0.312844
vt 0.929525 0.312844
vt 0.929525 0.312844
vt 0.929525 0.312844
vt 0.929525 0.312844
vt 0.929525 0.312844
vt 0.929525 0.312844
vt 0.929525 0.312844
vt 0.929525 0.312844
vt 0.929525 0.312844
vt 0.929525 0.312844
vt 0.929525 0.312844
vt 0.929525 0.312844
vt 0.929525 0.312844
vt 0.929525 0.312844
vt 0.929525 0.312844
vt 0.929525 0.312844
vt 0.929525 0.312844
vt 0.929525 0.312844
vt 0.929525 0.312844
vt 0.929525 0.312844
vt 0.929525 0.312844
vt 0.929525 0.312844
vt 0.929525 0.312844
vt 0.929525 0.312844
vt 0.929525 0.312844
vt 0.929525 0.312844
vt 0.929525 0.312844
vt 0.929525 0.312844
vt 0.929525 0.312844
vt 0.929525 0.312844
vt 0.929525 0.312844
vt 0.929525 0.312844
vt 0.929525 0.312844
vt 0.929525 0.312844
vt 0.929525 0.312844
vt 0.929525 0.312844
vn 0.775054 0.382158 0.503236
vn 0.775054 0.382158 0.503236
vn 0.775054 0.382158 0.503236
vn 0.775054 0.382158 0.503236
vn 0.063913 0.372091 0.925993
vn 0.063913 0.372091 0.925993
vn 0.063913 0.372091 0.925993
vn 0.063913 0.372091 0.925993
vn -0.034995 0.342490 0.938870
vn -0.034995 0.342490 0.938870
vn -0.034995 0.342490 0.938870
vn -0.034995 0.342490 0.938870
vn -0.824856 0.462523 0.325093
vn -0.824856 0.462523 0.325093
vn -0.824856 0.462523 0.325093
vn -0.824856 0.462523 0.325093
vn -0.700567 0.457640 0.547514
vn -0.700567 0.457640 0.547514
vn -0.700567 0.457640 0.547514
vn -0.700567 0.457640 0.547514
vn -0.796009 0.377846 -0.472865
vn -0.796009 0.377846 -0.472865
vn -0.796009 0.377846 -0.472865
vn -0.796009 0.377846 -0.472865
vn -0.739449 0.459077 -0.492407
vn -0.739449 0.459077 -0.492407
vn -0.739449 0.459077 -0.492407
vn -0.739449 0.459077 -0.492407
vn -0.121552 0.393502 -0.911253
vn -0.121552 0.393502 -0.911253
vn -0.121552 0.393502 -0.911253
vn -0.121552 0.393502 -0.911253
vn 0.109413 0.383542 -0.917019
vn 0.109413 0.383542 -0.917019
vn 0.109413 0.383542 -0.917019
vn 0.109413 0.383542 -0.917019
vn 0.738366 0.440693 -0.510495
vn 0.738366 0.440693 -0.510495
vn 0.738366 0.440693 -0.510495
vn 0.738366 0.440693 -0.510495
vn 0.814293 0.359638 -0.455619
vn 0.814292 0.359638 -0.455619
vn 0.814292 0.359638 -0.455619
vn 0.814292 0.359638 -0.455619
vn 0.819144 0.354664 0.450796
vn 0.819144 0.354663 0.450796
vn 0.819144 0.354664 0.450796
vn 0.819144 0.354664 0.450796
vn -0.092392 0.857099 0.506798
vn -0.092392 0.857099 0.506798
vn -0.092392 0.857099 0.506798
vn 0.428610 0.860803 0.274430
vn 0.428610 0.860803 0.274430
vn 0.428610 0.860803 0.274430
vn 0.428610 0.860803 0.274430
vn 0.370101 0.835717 0.405712
vn 0.370101 0.835717 0.405712
vn 0.370101 0.835717 0.405712
vn 0.370101 0.835717 0.405712
vn 0.127491 0.890285 -0.437194
vn 0.127491 0.890285 -0.437194
vn 0.127491 0.890285 -0.437194
vn 0.127491 0.890285 -0.437194
vn 0.299336 0.914800 -0.271180
vn 0.299336 0.914800 -0.271180
vn 0.299336 0.914800 -0.271180
vn 0.299336 0.914800 -0.271180
vn 0.397852 0.744989 -0.535448
vn 0.397852 0.744989 -0.535448
vn 0.397852 0.744989 -0.535448
vn 0.397852 0.744989 -0.535448
vn -0.435494 0.757671 -0.486087
vn -0.435494 0.757671 -0.486087
vn -0.435494 0.757671 -0.486087
vn -0.435494 0.757671 -0.486087
vn -0.364017 0.882950 -0.296465
vn -0.364017 0.882950 -0.296465
vn -0.364017 0.882950 -0.296465
vn -0.364017 0.882950 -0.296465
vn -0.471978 0.678996 -0.562318
vn -0.471978 0.678996 -0.562318
vn -0.471978 0.678996 -0.562318
vn -0.471978 0.678996 -0.562318
vn -0.661395 0.358695 0.658707
vn -0.661395 0.358695 0.658707
vn -0.661395 0.358695 0.658707
vn -0.661395 0.358695 0.658707
vn -0.916464 0.323751 0.235114
vn -0.916464 0.323751 0.235114
vn -0.916464 0.323751 0.235114
vn -0.916464 0.323751 0.235114
vn -0.024677 0.582758 0.812271
vn -0.024677 0.582758 0.812271
vn -0.024677 0.582758 0.812271
vn -0.024677 0.582758 0.812271
vn 0.168407 0.618028 0.767907
vn 0.168407 0.618028 0.767907
vn 0.168407 0.618028 0.767907
vn 0.168407 0.618028 0.767907
vn 0.860870 -0.140421 0.489065
vn 0.860870 -0.140421 0.489065
vn 0.860870 -0.140421 0.489065
vn 0.860870 -0.140421 0.489065
vn 0.797232 0.499065 -0.339640
vn 0.797232 0.499065 -0.339640
vn 0.797232 0.499065 -0.339640
vn 0.960531 0.261729 -0.094218
vn 0.960532 0.261729 -0.094218
vn 0.960532 0.261729 -0.094218
vn 0.960531 0.261729 -0.094218
vn 0.800810 0.202671 -0.563585
vn 0.800810 0.202671 -0.563585
vn 0.800810 0.202671 -0.563585
vn 0.800810 0.202671 -0.563585
vn 0.243846 0.190638 -0.950892
vn 0.243846 0.190638 -0.950892
vn 0.243846 0.190638 -0.950892
vn 0.243846 0.190638 -0.950892
vn -0.189397 0.169774 -0.967112
vn -0.189397 0.169774 -0.967112
vn -0.189397 0.169774 -0.967112
vn -0.189397 0.169774 -0.967112
vn -0.755352 0.286433 -0.589406
vn -0.755352 0.286433 -0.589406
vn -0.755352 0.286433 -0.589406
vn -0.816000 0.261688 -0.515425
vn -0.816000 0.261688 -0.515425
vn -0.816000 0.261688 -0.515425
vn -0.816000 0.261688 -0.515425
vn -0.741408 0.208784 0.637749
vn -0.741408 0.208784 0.637749
vn -0.741408 0.208784 0.637749
vn -0.741408 0.208784 0.637749
vn -0.921926 0.212096 0.324142
vn -0.921926 0.212096 0.324142
vn -0.921926 0.212096 0.324142
vn -0.921926 0.212096 0.324142
vn -0.082300 0.246418 0.965663
vn -0.082300 0.246418 0.965663
vn -0.082300 0.246418 0.965663
vn -0.082300 0.246418 0.965663
vn 0.028574 -0.079205 0.996449
vn 0.028574 -0.079205 0.996449
vn 0.028574 -0.079205 0.996449
vn 0.113955 0.855180 0.505650
vn 0.113955 0.855180 0.505650
vn 0.113955 0.855180 0.505650
vn 0.075901 0.873728 -0.480456
vn 0.075901 0.873729 -0.480456
vn 0.075901 0.873729 -0.480456
vn -0.248982 0.873584 0.418161
vn -0.248982 0.873584 0.418161
vn -0.248982 0.873584 0.418161
vn -0.150097 0.922934 -0.354492
vn -0.150097 0.922934 -0.354492
vn -0.150097 0.922934 -0.354492
vn -0.150097 0.922934 -0.354492
vn -0.411115 0.894979 0.173194
vn -0.411115 0.894980 0.173194
vn -0.411115 0.894980 0.173194
vn -0.287969 0.910034 -0.298182
vn -0.287969 0.910034 -0.298182
vn -0.287969 0.910034 -0.298182
vn 0.466446 0.882046 -0.066504
vn 0.466446 0.882046 -0.066504
vn 0.466446 0.882046 -0.066504
vn 0.383897 0.869720 -0.310179
vn 0.383897 0.869720 -0.310179
vn 0.383897 0.869720 -0.310179
vn 0.146605 0.859463 0.489725
vn 0.146605 0.859463 0.489725
vn 0.146605 0.859463 0.489725
vn 0.452737 0.869535 -0.197327
vn 0.452737 0.869535 -0.197327
vn 0.452737 0.869535 -0.197327
vn -0.409328 0.910685 -0.055703
vn -0.409328 0.910685 -0.055703
vn -0.409328 0.910685 -0.055703
vn -0.302152 0.751641 -0.586293
vn -0.302152 0.751641 -0.586293
vn -0.302152 0.751641 -0.586293
vn -0.789771 0.339064 0.511172
vn -0.789771 0.339064 0.511172
vn -0.789771 0.339064 0.511172
vn -0.789771 0.339064 0.511172
vn -0.870942 0.381559 0.309633
vn -0.870942 0.381559 0.309633
vn -0.870942 0.381559 0.309633
vn -0.870942 0.381559 0.309633
vn 0.129014 0.821593 0.555284
vn 0.129015 0.821593 0.555284
vn 0.129014 0.821593 0.555284
vn -0.537883 0.656635 0.528689
vn -0.537884 0.656635 0.528689
vn -0.537884 0.656635 0.528689
vn -0.537884 0.656635 0.528689
vn 0.067277 0.986176 0.151432
vn 0.067277 0.986176 0.151432
vn 0.067277 0.986176 0.151432
vn 0.067277 0.986176 0.151432
vn 0.532121 0.659747 -0.530642
vn 0.532121 0.659747 -0.530642
vn 0.532121 0.659747 -0.530642
vn 0.502574 0.858808 0.099343
vn 0.502574 0.858808 0.099343
vn 0.502574 0.858808 0.099343
vn 0.502574 0.858808 0.099343
vn 0.208847 0.762077 -0.612880
vn 0.208847 0.762077 -0.612880
vn 0.208847 0.762076 -0.612880
vn 0.615664 0.679658 -0.398776
vn 0.615664 0.679658 -0.398776
vn 0.615664 0.679658 -0.398776
vn 0.005203 0.876246 -0.481836
vn 0.005203 0.876246 -0.481836
vn 0.005203 0.876246 -0.481836
vn 0.488369 0.668810 -0.560525
vn 0.488369 0.668810 -0.560525
vn 0.488369 0.668810 -0.560525
vn 0.816126 0.293978 0.497508
vn 0.816126 0.293978 0.497508
vn 0.816126 0.293978 0.497508
vn 0.816127 0.293978 0.497508
vn 0.000702 0.239980 0.970778
vn 0.000702 0.239980 0.970778
vn 0.000702 0.239980 0.970778
vn 0.000702 0.239980 0.970778
vn -0.142517 0.442228 0.885507
vn -0.142517 0.442228 0.885507
vn -0.142517 0.442228 0.885507
vn -0.142517 0.442228 0.885507
vn -0.051800 0.321796 -0.945391
vn -0.051800 0.321796 -0.945391
vn -0.051800 0.321796 -0.945391
vn -0.051800 0.321796 -0.945391
vn 0.101069 0.296084 -0.949800
vn 0.101069 0.296084 -0.949800
vn 0.101069 0.296084 -0.949800
vn 0.101069 0.296084 -0.949800
vn 0.871703 0.196972 -0.448705
vn 0.871703 0.196972 -0.448705
vn 0.871703 0.196972 -0.448705
vn 0.654962 0.676899 -0.335905
vn 0.654962 0.676899 -0.335905
vn 0.654962 0.676899 -0.335905
vn 0.975014 0.215242 -0.054937
vn 0.975014 0.215242 -0.054937
vn 0.975014 0.215242 -0.054937
vn 0.975014 0.215242 -0.054937
vn 0.854280 0.072885 0.514677
vn 0.854280 0.072885 0.514677
vn 0.854280 0.072885 0.514677
vn 0.854280 0.072885 0.514677
vn 0.012087 0.171237 0.985156
vn 0.012087 0.171237 0.985156
vn 0.012087 0.171237 0.985156
vn 0.012087 0.171237 0.985156
vn 0.381603 0.861486 0.334993
vn 0.381603 0.861486 0.334993
vn 0.381603 0.861486 0.334993
vn 0.381603 0.861486 0.334993
vn -0.331656 0.587343 0.738263
vn -0.331656 0.587343 0.738263
vn -0.331656 0.587343 0.738263
vn 0.966936 -0.109603 0.230267
vn 0.966935 -0.109603 0.230267
vn 0.966936 -0.109603 0.230267
vn 0.723823 0.363266 -0.586616
vn 0.723823 0.363266 -0.586616
vn 0.723823 0.363266 -0.586616
vn 0.723823 0.363266 -0.586616
vn 0.955169 0.294833 -0.026926
vn 0.955169 0.294833 -0.026926
vn 0.955169 0.294833 -0.026926
vn 0.955169 0.294833 -0.026926
vn 0.948942 0.252740 -0.188762
vn 0.948942 0.252740 -0.188762
vn 0.948942 0.252740 -0.188762
vn 0.948942 0.252740 -0.188762
vn -0.924444 0.341225 -0.170204
vn -0.924444 0.341225 -0.170204
vn -0.924444 0.341225 -0.170204
vn -0.924444 0.341225 -0.170204
vn -0.138542 0.982322 0.125898
vn -0.138542 0.982322 0.125898
vn -0.138542 0.982322 0.125898
vn -0.138542 0.982322 0.125898
vn 0.222368 0.971279 0.084674
vn 0.222368 0.971279 0.084674
vn 0.222368 0.971279 0.084674
vn -0.941438 0.204473 -0.268116
vn -0.941438 0.204473 -0.268116
vn -0.941438 0.204473 -0.268116
vn -0.556159 0.346479 -0.755407
vn -0.556159 0.346479 -0.755407
vn -0.556159 0.346479 -0.755407
vn -0.556159 0.346479 -0.755407
vn -0.589507 0.806285 -0.048842
vn -0.589507 0.806285 -0.048842
vn -0.589507 0.806285 -0.048842
vn -0.931449 0.203444 -0.301684
vn -0.931449 0.203444 -0.301684
vn -0.931449 0.203444 -0.301684
vn -0.916174 0.144719 -0.373740
vn -0.916174 0.144719 -0.373740
vn -0.916174 0.144719 -0.373741
s off
f 11/79/1 2/80/2 14/3/3 13/4/4
f 2/80/5 10/81/6 15/6/7 14/3/8
f 10/81/9 3/82/10 16/8/11 15/6/12
f 3/82/13 9/83/14 17/10/15 16/8/16
f 9/83/17 4/84/18 18/12/19 17/10/20
f 4/84/21 8/85/22 19/14/23 18/12/24
f 8/85/25 5/86/26 20/16/27 19/14/28
f 5/86/29 7/87/30 21/18/31 20/16/32
f 7/87/33 6/88/34 22/20/35 21/18/36
f 6/88/37 12/77/38 23/22/39 22/20/40
f 12/77/41 1/78/42 24/24/43 23/22/44
f 1/78/45 11/79/46 13/4/47 24/24/48
f 54/25/49 55/26/50 49/27/51
f 2/2/52 11/1/53 25/28/54 26/29/55
f 11/1/56 1/23/57 27/30/58 25/28/59
f 1/23/60 12/21/61 28/31/62 27/30/63
f 12/21/64 6/19/65 29/32/66 28/31/67
f 6/19/68 7/17/69 30/33/70 29/32/71
f 7/17/72 5/15/73 31/34/74 30/33/75
f 5/15/76 8/13/77 32/35/78 31/34/79
f 8/13/80 4/11/81 33/36/82 32/35/83
f 4/11/84 9/9/85 34/37/86 33/36/87
f 9/9/88 3/7/89 35/38/90 34/37/91
f 3/7/92 10/5/93 36/39/94 35/38/95
f 10/5/96 2/2/97 26/29/98 36/39/99
f 26/29/100 25/28/101 70/40/102 71/41/103
f 70/40/104 27/30/105 68/42/106
f 27/30/107 28/31/108 40/43/109 39/44/110
f 28/31/111 29/32/112 67/45/113 40/43/114
f 29/32/115 30/33/116 42/46/117 41/47/118
f 30/33/119 31/34/120 43/48/121 42/46/122
f 44/49/123 31/34/124 32/35/125
f 32/35/126 33/36/127 45/50/128 44/49/129
f 33/36/130 34/37/131 46/51/132 45/50/133
f 34/37/134 35/38/135 47/52/136 46/51/137
f 35/38/138 36/39/139 48/53/140 47/52/141
f 36/39/142 26/29/143 71/41/144
f 55/26/145 56/54/146 49/27/147
f 49/27/148 60/55/149 61/56/150
f 53/57/151 54/25/152 49/27/153
f 43/48/154 65/58/155 66/59/156 42/46/157
f 52/60/158 53/57/159 49/27/160
f 50/61/161 51/62/162 49/27/163
f 49/27/164 57/63/165 58/64/166
f 49/27/167 59/65/168 60/55/169
f 56/54/170 57/63/171 49/27/172
f 49/27/173 58/64/174 59/65/175
f 51/62/176 52/60/177 49/27/178
f 45/50/179 74/66/180 44/49/181
f 74/66/182 75/67/183 53/57/184 52/60/185
f 47/52/186 54/25/187 53/57/188 75/67/189
f 48/53/190 64/68/191 47/52/192
f 38/69/193 63/70/194 64/68/195 48/53/196
f 38/69/197 37/71/198 62/72/199 63/70/200
f 39/44/201 62/72/202 37/71/203
f 72/73/204 73/74/205 39/44/206 40/43/207
f 67/45/208 72/73/209 40/43/210
f 66/59/211 41/47/212 42/46/213
f 61/56/214 50/61/215 49/27/216
f 73/74/217 62/72/218 39/44/219
f 63/70/220 62/72/221 57/63/222 56/54/223
f 64/68/224 63/70/225 56/54/226 55/26/227
f 47/52/228 64/68/229 55/26/230 54/25/231
f 66/59/232 65/58/233 50/61/234 61/56/235
f 61/56/236 60/55/237 67/45/238 66/59/239
f 67/45/240 29/32/241 41/47/242
f 66/59/243 67/45/244 41/47/245
f 68/42/246 27/30/247 39/44/248 37/71/249
f 69/75/250 68/42/251 37/71/252 38/69/253
f 36/39/254 69/75/255 38/69/256 48/53/257
f 71/41/258 70/40/259 68/42/260 69/75/261
f 36/39/262 71/41/263 69/75/264
f 25/28/265 27/30/266 70/40/267
f 60/55/268 59/65/269 72/73/270 67/45/271
f 59/65/272 58/64/273 73/74/274 72/73/275
f 58/64/276 57/63/277 62/72/278 73/74/279
f 76/76/280 74/66/281 52/60/282 51/62/283
f 46/51/284 75/67/285 74/66/286 45/50/287
f 47/52/288 75/67/289 46/51/290
f 44/49/291 74/66/292 76/76/293
f 65/58/294 76/76/295 51/62/296 50/61/297
f 65/58/298 43/48/299 76/76/300
f 43/48/301 44/49/302 76/76/303
f 43/48/304 31/34/305 44/49/306
