# This file uses meters as units for non-parametric coordinates.

v 288.727905 0.000000 -0.018328
v 144.379761 0.000000 -250.009155
v -144.348236 0.000000 -249.990906
v -288.728088 0.000000 0.018209
v -144.379944 0.000000 250.009155
v 144.348053 0.000000 249.990799
v -180.411407 0.000000 -187.445206
v -252.538055 0.000000 -62.518330
v -241.735077 -7.061005 -81.229546
v -191.214432 -7.061005 -168.734009
v 5.075384 -7.061005 -60.656380
v 38.888767 2.608442 -87.332481
v -139.146866 -7.061005 -129.248993
v -132.965393 0.000000 -150.628250
v -207.007599 1.249028 -34.945530
v -179.430603 -7.061005 -55.610886
v -26.070440 0.000000 24.866253
v -1.570931 -7.061005 7.780790
v 78.482582 -7.061005 -18.436167
v 87.239540 -1.263176 -23.727299
v -106.020950 3.643285 -5.480908
v -87.402161 -7.061005 -24.754530
v -252.538055 -11.986774 -62.518326
v -288.728088 -17.329201 0.018209
v -144.379944 -17.329201 250.009155
v 144.348053 -21.825506 249.990799
v 288.727905 -17.329201 -0.018328
v 144.379761 -17.329201 -250.009155
v -144.348236 -17.329201 -249.990906
v -180.411407 -25.621679 -187.445206
v -191.214432 -20.859703 -168.734009
v -241.735077 -20.859703 -81.229530
v 68.173080 -23.522984 -250.004333
v -60.657116 -12.821321 -249.996185
v 181.559235 -13.878791 -185.619354
v 267.480042 -11.777885 -36.816620
v 225.189835 -23.577541 -110.057022
v 52.434834 -23.861010 249.996628
v -89.041573 -12.074000 250.005630
v -211.462357 -9.843795 133.831482
v -269.943817 -22.321745 32.549843
v -53.530560 -7.061005 -119.077507
v -48.214306 0.000000 -142.897751
v 78.439758 -1.371776 75.671150
v 79.046509 -7.061005 61.559273
v 110.832687 0.000000 67.878349
v 106.478188 0.000000 32.854465
v 104.171875 -7.061005 59.562378
v 96.425896 -7.061005 29.691486
v 199.054886 -14.923265 155.260025
v 265.848206 0.000000 -39.642799
v 223.705658 0.000000 -112.627792
v 182.915298 0.000000 -183.271027
v 180.166809 2.985117 63.598564
v 169.533005 -1.916982 -6.434622
v 211.372528 -3.110282 -58.801044
v 164.991486 3.690426 -75.501511
v 111.211395 1.065908 -127.947975
v 49.614765 5.977067 -180.296585
v 109.488403 -1.351443 -190.355713
v 69.492050 0.000000 -250.004425
v -53.379822 0.000000 -249.996643
v -85.243896 -2.387026 -198.441299
v -8.306633 4.741975 -209.813858
v 201.873169 0.000000 150.379868
v 224.629593 1.423616 28.596533
v 157.448654 1.149878 134.534363
v 66.445816 -2.155127 175.094437
v 46.006760 0.000000 249.997070
v -88.373161 0.000000 250.005615
v -98.692574 1.556251 91.980881
v -17.107115 7.840283 119.724480
v -239.548080 -2.407680 6.579669
v -257.955505 0.000000 53.311993
v -210.539886 0.000000 135.429260
v -166.479080 4.890125 50.591515
v -252.538055 -43.147285 -62.518326
v -288.728088 -43.147285 0.018209
v -269.943817 -43.147289 32.549843
v -144.379944 -43.147285 250.009155
v -89.041573 -43.147289 250.005630
v 288.727905 -43.147285 -0.018328
v 267.480042 -43.147289 -36.816620
v 144.379761 -43.147285 -250.009155
v 68.173080 -43.147297 -250.004333
v -144.348236 -43.147285 -249.990906
v -180.411407 -43.147289 -187.445206
v -191.214432 -43.147289 -168.734009
v -241.735077 -43.147289 -81.229530
v -60.657116 -43.147293 -249.996185
v 181.559235 -43.147285 -185.619354
v 225.189835 -43.147289 -110.057022
v 52.434834 -43.147289 249.996628
v 144.348053 -43.147297 249.990799
v -211.462357 -43.147285 133.831482
v 199.054886 -43.147293 155.260025
vt 0.011300 0.326577
vt 0.011300 0.326577
vt 0.011300 0.326577
vt 0.011300 0.326577
vt 0.011300 0.326577
vt 0.011300 0.326577
vt 0.011255 0.329381
vt 0.011300 0.326577
vt 0.011300 0.326577
vt 0.011300 0.326577
vt 0.011300 0.326577
vt 0.011300 0.326577
vt 0.011300 0.326577
vt 0.011300 0.326577
vt 0.011300 0.326577
vt 0.011300 0.326577
vt 0.011300 0.326577
vt 0.058604 0.302925
vt 0.060263 0.304822
vt 0.058337 0.303014
vt 0.033901 0.326933
vt 0.033775 0.326946
vt 0.060118 0.302828
vt 0.059851 0.302795
vt 0.059116 0.305505
vt 0.033827 0.327206
vt 0.011300 0.326577
vt 0.058871 0.305701
vt 0.058771 0.303764
vt 0.033792 0.327031
vt 0.011300 0.326577
vt 0.058495 0.303805
vt 0.060240 0.303442
vt 0.011300 0.326577
vt 0.033916 0.327010
vt 0.060002 0.303556
vt 0.060606 0.305286
vt 0.011300 0.326577
vt 0.033948 0.327174
vt 0.060327 0.305191
vt 0.059308 0.306470
vt 0.033846 0.327302
vt 0.059043 0.306570
vt 0.011662 0.326883
vt 0.060417 0.304334
vt 0.011300 0.326577
vt 0.033931 0.327088
vt 0.060156 0.304334
vt 0.060143 0.304827
vt 0.033460 0.328937
vt 0.034941 0.329082
vt 0.059583 0.304810
vt 0.059463 0.304798
vt 0.011300 0.326577
vt 0.059463 0.305063
vt 0.011300 0.326577
vt 0.011300 0.326577
vt 0.011300 0.326577
vt 0.010616 0.325455
vt 0.011300 0.326577
vt 0.011300 0.326577
vt 0.011300 0.326577
vt 0.060263 0.305086
vt 0.011300 0.326577
vt 0.033460 0.326662
vt 0.060143 0.305087
vt 0.059583 0.305070
vt 0.034941 0.326808
vt 0.011300 0.326577
vt 0.011300 0.326577
vt 0.011300 0.326577
vt 0.011300 0.326577
vt 0.011300 0.326577
vt 0.011300 0.326577
vt 0.011300 0.326577
vt 0.011300 0.326577
vt 0.011300 0.326577
vt 0.058942 0.304628
vt 0.033809 0.327117
vt 0.011300 0.326577
vt 0.058662 0.304650
vt 0.060805 0.306288
vt 0.011300 0.326577
vt 0.033964 0.327253
vt 0.060483 0.305981
vt 0.059131 0.303607
vt 0.060593 0.306535
vt 0.059420 0.307036
vt 0.060227 0.303638
vt 0.012023 0.327123
vt 0.011771 0.327039
vt 0.033970 0.327283
vt 0.060543 0.306281
vt 0.059394 0.306902
vt 0.033855 0.327346
vt 0.060127 0.305941
vt 0.059103 0.305421
vt 0.010616 0.324117
vt 0.010858 0.326028
vt 0.011255 0.328318
vt 0.011300 0.326577
vt 0.011300 0.326577
vt 0.011300 0.326577
vt 0.011300 0.326577
vt 0.011300 0.326577
vt 0.011300 0.326577
vt 0.011723 0.326897
vt 0.011502 0.326748
vt 0.011488 0.326736
vt 0.011455 0.326709
vt 0.011300 0.326577
vt 0.011300 0.326577
vt 0.011300 0.326577
vt 0.011300 0.326577
vt 0.011300 0.326577
vt 0.011300 0.326577
vt 0.011300 0.326577
vt 0.011300 0.326577
vt 0.011300 0.326577
vt 0.011300 0.326577
vt 0.010871 0.327019
vt 0.011536 0.326756
vt 0.011530 0.326751
vt 0.011440 0.326715
vt 0.011300 0.326577
vt 0.011300 0.326577
vt 0.011300 0.326577
vt 0.011300 0.326577
vt 0.011300 0.326577
vt 0.011300 0.326577
vt 0.011300 0.326577
vt 0.011300 0.326577
vt 0.011300 0.326577
vt 0.011300 0.326577
vt 0.011300 0.326577
vt 0.011300 0.326577
vt 0.963548 0.496348
vt 0.996421 0.496348
vt 0.996421 0.482966
vt 0.963548 0.482966
vt 0.963548 0.496348
vt 0.996421 0.496348
vt 0.996421 0.482966
vt 0.963548 0.482966
vt 0.963548 0.496348
vt 0.996421 0.496348
vt 0.996421 0.482966
vt 0.963548 0.482966
vt 0.963548 0.496348
vt 0.996421 0.496348
vt 0.996421 0.482966
vt 0.963548 0.482966
vt 0.963548 0.496348
vt 0.996421 0.496348
vt 0.996421 0.482966
vt 0.963548 0.482966
vt 0.963548 0.496348
vt 0.996421 0.496348
vt 0.996421 0.482966
vt 0.963548 0.482966
vt 0.963548 0.496348
vt 0.996421 0.496348
vt 0.996421 0.482966
vt 0.963548 0.482966
vt 0.963548 0.496348
vt 0.996421 0.496348
vt 0.996421 0.482966
vt 0.963548 0.482966
vt 0.963548 0.496348
vt 0.996421 0.496348
vt 0.996421 0.482966
vt 0.963548 0.482966
vt 0.963548 0.496348
vt 0.996421 0.496348
vt 0.996421 0.482966
vt 0.963548 0.482966
vt 0.963548 0.496348
vt 0.996421 0.496348
vt 0.996421 0.482966
vt 0.963548 0.482966
vt 0.963548 0.496348
vt 0.996421 0.496348
vt 0.996421 0.482966
vt 0.963548 0.482966
vt 0.963548 0.496348
vt 0.996421 0.496348
vt 0.996421 0.482966
vt 0.963548 0.482966
vt 0.963548 0.496348
vt 0.996421 0.496348
vt 0.996421 0.482966
vt 0.963548 0.482966
vt 0.963548 0.496348
vt 0.996421 0.496348
vt 0.996421 0.482966
vt 0.963548 0.482966
vt 0.963548 0.496348
vt 0.996421 0.496348
vt 0.996421 0.482966
vt 0.963548 0.482966
vt 0.963548 0.496348
vt 0.996421 0.496348
vt 0.996421 0.482966
vt 0.963548 0.482966
vt 0.963548 0.496348
vt 0.996421 0.496348
vt 0.996421 0.482966
vt 0.963548 0.482966
vt 0.963548 0.496348
vt 0.996421 0.496348
vt 0.996421 0.482966
vt 0.963548 0.482966
vt 0.963548 0.496348
vt 0.996421 0.496348
vt 0.996421 0.482966
vt 0.963548 0.482966
vn 0.866001 -0.000002 -0.500041
vn 0.866002 -0.000002 -0.500041
vn 0.866001 -0.000002 -0.500041
vn 0.866002 -0.000002 -0.500041
vn -0.865518 -0.000002 -0.500877
vn -0.865518 -0.000002 -0.500877
vn -0.865518 -0.000002 -0.500877
vn -0.865518 -0.000002 -0.500877
vn 0.000064 -0.000001 1.000000
vn 0.000064 -0.000001 1.000000
vn 0.000064 -0.000001 1.000000
vn 0.000064 -0.000001 1.000000
vn 0.010901 0.999842 -0.014074
vn 0.010901 0.999842 -0.014074
vn 0.010901 0.999842 -0.014074
vn -0.193305 0.948195 0.252110
vn -0.193305 0.948195 0.252110
vn -0.193305 0.948195 0.252110
vn -0.193305 0.948195 0.252110
vn 0.117138 0.958483 -0.259980
vn 0.117138 0.958483 -0.259980
vn 0.117138 0.958483 -0.259980
vn 0.117138 0.958483 -0.259980
vn 0.000000 1.000000 -0.000000
vn 0.000000 1.000000 -0.000000
vn 0.000000 1.000000 -0.000000
vn 0.000000 1.000000 -0.000000
vn 0.000000 1.000000 -0.000000
vn 0.000000 1.000000 -0.000000
vn 0.000000 1.000000 -0.000000
vn 0.000000 1.000000 -0.000000
vn 0.000000 1.000000 -0.000000
vn 0.000000 1.000000 -0.000000
vn 0.000000 1.000000 -0.000000
vn 0.000000 1.000000 -0.000000
vn -0.866001 -0.000002 0.500042
vn -0.866001 -0.000002 0.500042
vn -0.866001 -0.000002 0.500041
vn -0.866001 -0.000002 0.500042
vn -0.000063 -0.000000 -1.000000
vn -0.000063 -0.000000 -1.000000
vn -0.000063 -0.000000 -1.000000
vn -0.000063 -0.000000 -1.000000
vn -0.172432 0.956969 0.233403
vn -0.172432 0.956969 0.233403
vn -0.172432 0.956969 0.233403
vn -0.172432 0.956969 0.233403
vn -0.030577 0.956238 0.290987
vn -0.030577 0.956238 0.290987
vn -0.030577 0.956238 0.290987
vn -0.030577 0.956238 0.290987
vn 0.093828 0.936671 -0.337408
vn 0.093828 0.936671 -0.337408
vn 0.093828 0.936671 -0.337408
vn 0.093828 0.936671 -0.337408
vn 0.155946 0.951954 -0.263561
vn 0.155946 0.951954 -0.263561
vn 0.155946 0.951954 -0.263561
vn 0.155946 0.951954 -0.263561
vn -0.540800 0.821197 0.182130
vn -0.540800 0.821197 0.182130
vn -0.540800 0.821197 0.182130
vn -0.540800 0.821197 0.182130
vn 0.134978 0.943972 -0.301161
vn 0.134978 0.943972 -0.301161
vn 0.134978 0.943972 -0.301161
vn 0.134978 0.943972 -0.301161
vn 0.865970 0.000000 0.500096
vn 0.865970 0.000000 0.500096
vn 0.865970 0.000000 0.500096
vn 0.865970 0.000000 0.500096
vn -0.866311 0.000000 -0.499505
vn -0.866311 0.000000 -0.499505
vn -0.866311 0.000000 -0.499505
vn -0.866311 0.000000 -0.499505
vn -0.866023 0.000000 -0.500004
vn -0.866023 0.000000 -0.500004
vn -0.866023 0.000000 -0.500004
vn -0.866023 0.000000 -0.500004
vn -0.866026 0.000000 -0.499999
vn -0.866026 0.000000 -0.499999
vn -0.866026 0.000000 -0.499999
vn -0.866026 0.000000 -0.499999
vn -0.866024 0.000000 -0.500002
vn -0.866024 0.000000 -0.500002
vn -0.866024 0.000000 -0.500002
vn -0.866024 0.000000 -0.500002
vn -0.166866 0.967269 0.191171
vn -0.166866 0.967269 0.191171
vn -0.166866 0.967269 0.191171
vn -0.166866 0.967269 0.191171
vn -0.101054 0.876362 -0.470934
vn -0.101054 0.876362 -0.470934
vn -0.101054 0.876362 -0.470934
vn -0.101054 0.876362 -0.470934
vn -0.690129 0.712154 0.128683
vn -0.690129 0.712154 0.128684
vn -0.690129 0.712154 0.128684
vn -0.690129 0.712154 0.128683
vn 0.000054 0.998816 -0.048648
vn 0.000054 0.998816 -0.048648
vn 0.000054 0.998816 -0.048648
vn 0.000054 0.998816 -0.048648
vn -0.033530 0.999418 0.006208
vn -0.033530 0.999418 0.006208
vn -0.033530 0.999418 0.006208
vn -0.041625 0.999129 0.002851
vn -0.041625 0.999129 0.002851
vn -0.041625 0.999129 0.002851
vn -0.000002 0.999586 -0.028761
vn -0.000002 0.999586 -0.028761
vn -0.000002 0.999586 -0.028761
vn 0.866001 -0.000006 -0.500042
vn 0.866001 -0.000006 -0.500042
vn 0.866001 -0.000006 -0.500042
vn 0.866001 -0.000006 -0.500042
vn 0.071143 0.977142 0.200329
vn 0.071143 0.977142 0.200329
vn 0.071143 0.977142 0.200329
vn 0.866002 -0.000008 -0.500041
vn 0.866002 -0.000008 -0.500041
vn 0.866002 -0.000008 -0.500041
vn 0.866002 -0.000008 -0.500041
vn -0.049341 0.998317 0.030482
vn -0.049341 0.998317 0.030482
vn -0.049341 0.998317 0.030482
vn -0.015346 0.997260 0.072369
vn -0.015346 0.997260 0.072369
vn -0.015346 0.997260 0.072369
vn 0.866002 -0.000002 -0.500041
vn 0.866002 -0.000002 -0.500041
vn 0.866002 -0.000002 -0.500041
vn 0.866002 -0.000002 -0.500041
vn 0.044483 0.998156 0.041301
vn 0.044483 0.998156 0.041301
vn 0.044483 0.998156 0.041301
vn -0.017807 0.997586 -0.067124
vn -0.017807 0.997586 -0.067124
vn -0.017807 0.997586 -0.067124
vn -0.026227 0.999487 -0.018371
vn -0.026227 0.999487 -0.018371
vn -0.026227 0.999487 -0.018371
vn -0.026227 0.999487 -0.018371
vn 0.014808 0.998024 0.061062
vn 0.014808 0.998024 0.061062
vn 0.014808 0.998024 0.061062
vn 0.014808 0.998024 0.061062
vn 0.010283 0.999929 -0.005938
vn 0.010283 0.999929 -0.005938
vn 0.010283 0.999929 -0.005938
vn 0.114498 0.992552 -0.041607
vn 0.114498 0.992552 -0.041607
vn 0.114498 0.992552 -0.041607
vn -0.004294 0.998951 -0.045586
vn -0.004294 0.998951 -0.045586
vn -0.004294 0.998951 -0.045586
vn 0.018886 0.997419 -0.069278
vn 0.018886 0.997419 -0.069278
vn 0.018886 0.997419 -0.069278
vn 0.137871 0.985084 0.102958
vn 0.137872 0.985084 0.102958
vn 0.137871 0.985084 0.102958
vn -0.014695 0.999158 -0.038296
vn -0.014695 0.999158 -0.038296
vn -0.014695 0.999158 -0.038296
vn -0.019486 0.999747 0.011252
vn -0.019486 0.999747 0.011252
vn -0.019486 0.999747 0.011252
vn -0.043963 0.998041 0.044507
vn -0.043963 0.998041 0.044507
vn -0.043963 0.998041 0.044507
vn -0.000005 0.996344 -0.085433
vn -0.000005 0.996344 -0.085433
vn -0.000005 0.996344 -0.085433
vn -0.000063 -0.000000 -1.000000
vn -0.000063 -0.000000 -1.000000
vn -0.000063 -0.000000 -1.000000
vn -0.000063 -0.000000 -1.000000
vn 0.019468 0.996612 -0.079903
vn 0.019468 0.996612 -0.079903
vn 0.019468 0.996612 -0.079903
vn -0.000063 0.000000 -1.000000
vn -0.000063 0.000000 -1.000000
vn -0.000063 0.000000 -1.000000
vn -0.000063 0.000000 -1.000000
vn 0.000003 0.998930 0.046253
vn 0.000003 0.998930 0.046253
vn 0.000003 0.998930 0.046253
vn 0.021818 0.999367 -0.028117
vn 0.021818 0.999367 -0.028117
vn 0.021818 0.999367 -0.028117
vn 0.004169 0.998946 -0.045710
vn 0.004169 0.998946 -0.045710
vn 0.004169 0.998946 -0.045710
vn -0.039716 0.996537 -0.073052
vn -0.039716 0.996537 -0.073052
vn -0.039716 0.996537 -0.073052
vn -0.039716 0.996537 -0.073052
vn -0.089754 0.995818 0.017041
vn -0.089754 0.995818 0.017041
vn -0.089754 0.995818 0.017041
vn 0.026860 0.999519 0.015487
vn 0.026860 0.999519 0.015487
vn 0.026860 0.999519 0.015487
vn 0.865970 -0.000001 0.500096
vn 0.865970 -0.000001 0.500096
vn 0.865970 -0.000001 0.500096
vn 0.865970 -0.000001 0.500096
vn 0.051884 0.998425 0.021366
vn 0.051884 0.998425 0.021366
vn 0.051884 0.998425 0.021366
vn 0.029907 0.999404 0.017271
vn 0.029907 0.999403 0.017271
vn 0.029907 0.999403 0.017271
vn -0.011926 0.997012 -0.076318
vn -0.011926 0.997012 -0.076318
vn -0.011926 0.997012 -0.076318
vn 0.021456 0.999693 0.012391
vn 0.021456 0.999693 0.012391
vn 0.021456 0.999693 0.012391
vn 0.014940 0.999419 0.030641
vn 0.014940 0.999419 0.030641
vn 0.014940 0.999419 0.030641
vn -0.042399 0.999051 0.009956
vn -0.042399 0.999051 0.009956
vn -0.042399 0.999051 0.009956
vn -0.042399 0.999051 0.009956
vn -0.033557 0.999418 0.006146
vn -0.033557 0.999418 0.006146
vn -0.033557 0.999418 0.006146
vn -0.052198 0.995553 -0.078418
vn -0.052198 0.995553 -0.078418
vn -0.052198 0.995553 -0.078418
vn 0.000064 -0.000001 1.000000
vn 0.000064 -0.000001 1.000000
vn 0.000064 -0.000001 1.000000
vn 0.000064 -0.000001 1.000000
vn 0.000063 -0.000002 1.000000
vn 0.000063 -0.000002 1.000000
vn 0.000063 -0.000002 1.000000
vn 0.000063 -0.000002 1.000000
vn 0.055571 0.994617 -0.087459
vn 0.055571 0.994617 -0.087459
vn 0.055571 0.994617 -0.087459
vn -0.000002 0.999586 -0.028761
vn -0.000002 0.999586 -0.028761
vn -0.000002 0.999586 -0.028761
vn -0.050325 0.995718 -0.077543
vn -0.050325 0.995718 -0.077543
vn -0.050325 0.995718 -0.077543
vn -0.081912 0.996524 0.015163
vn -0.081912 0.996524 0.015163
vn -0.081912 0.996524 0.015163
vn 0.058185 0.994090 0.091652
vn 0.058185 0.994090 0.091652
vn 0.058185 0.994090 0.091652
vn 0.000001 0.999952 0.009848
vn 0.000001 0.999952 0.009848
vn 0.000001 0.999952 0.009848
vn -0.055407 0.995782 -0.073128
vn -0.055407 0.995782 -0.073128
vn -0.055407 0.995782 -0.073128
vn -0.000348 0.999391 0.034889
vn -0.000348 0.999391 0.034889
vn -0.000348 0.999391 0.034889
vn -0.000348 0.999391 0.034889
vn 0.052944 0.998129 -0.030570
vn 0.052944 0.998129 -0.030570
vn 0.052944 0.998130 -0.030570
vn -0.866001 -0.000002 0.500042
vn -0.866001 -0.000002 0.500042
vn -0.866001 -0.000002 0.500042
vn -0.866001 -0.000002 0.500042
vn -0.866002 -0.000003 0.500040
vn -0.866002 -0.000003 0.500040
vn -0.866002 -0.000003 0.500040
vn -0.866002 -0.000003 0.500040
vn -0.011364 0.999914 0.006562
vn -0.011364 0.999914 0.006562
vn -0.011364 0.999914 0.006562
vn -0.040112 0.997601 0.056416
vn -0.040112 0.997601 0.056416
vn -0.040112 0.997601 0.056416
vn 0.010598 0.997956 0.063027
vn 0.010598 0.997956 0.063027
vn 0.010598 0.997956 0.063027
vn 0.037811 0.999113 0.018552
vn 0.037811 0.999113 0.018552
vn 0.037811 0.999113 0.018552
vn -0.052459 0.998164 0.030290
vn -0.052459 0.998164 0.030290
vn -0.052459 0.998164 0.030290
vn 0.105327 0.994226 0.020540
vn 0.105327 0.994226 0.020540
vn 0.105327 0.994226 0.020540
vn 0.038506 0.999087 0.018499
vn 0.038506 0.999087 0.018499
vn 0.038506 0.999087 0.018499
vn -0.865518 0.000000 -0.500877
vn -0.865518 0.000000 -0.500877
vn -0.865518 0.000000 -0.500877
vn -0.865518 0.000000 -0.500877
vn -0.866001 0.000000 0.500042
vn -0.866001 0.000000 0.500042
vn -0.866001 0.000000 0.500042
vn -0.866001 0.000000 0.500042
vn 0.000064 0.000000 1.000000
vn 0.000064 0.000000 1.000000
vn 0.000064 0.000000 1.000000
vn 0.000064 0.000000 1.000000
vn 0.866001 0.000000 -0.500042
vn 0.866001 0.000000 -0.500042
vn 0.866001 0.000000 -0.500042
vn 0.866001 0.000000 -0.500042
vn -0.000063 0.000000 -1.000000
vn -0.000063 0.000000 -1.000000
vn -0.000063 0.000000 -1.000000
vn -0.000063 0.000000 -1.000000
vn -0.866311 0.000000 -0.499505
vn -0.866311 0.000000 -0.499505
vn -0.866311 0.000000 -0.499505
vn -0.866311 0.000000 -0.499505
vn -0.866023 0.000000 -0.500004
vn -0.866023 0.000000 -0.500004
vn -0.866023 0.000000 -0.500004
vn -0.866023 0.000000 -0.500004
vn -0.866026 0.000000 -0.499999
vn -0.866026 0.000000 -0.499999
vn -0.866026 0.000000 -0.499999
vn -0.866026 0.000000 -0.499999
vn -0.866024 0.000000 -0.500002
vn -0.866024 0.000000 -0.500002
vn -0.866024 0.000000 -0.500002
vn -0.866024 0.000000 -0.500002
vn -0.000063 0.000000 -1.000000
vn -0.000063 0.000000 -1.000000
vn -0.000063 0.000000 -1.000000
vn -0.000063 0.000000 -1.000000
vn -0.000063 0.000000 -1.000000
vn -0.000063 0.000000 -1.000000
vn -0.000063 0.000000 -1.000000
vn -0.000063 0.000000 -1.000000
vn 0.866002 0.000000 -0.500040
vn 0.866002 0.000000 -0.500040
vn 0.866002 0.000000 -0.500040
vn 0.866002 0.000000 -0.500040
vn 0.866001 0.000000 -0.500043
vn 0.866001 0.000000 -0.500043
vn 0.866001 0.000000 -0.500043
vn 0.866001 0.000000 -0.500043
vn 0.866002 0.000000 -0.500040
vn 0.866002 0.000000 -0.500040
vn 0.866002 0.000000 -0.500040
vn 0.866002 0.000000 -0.500040
vn 0.000064 0.000000 1.000000
vn 0.000064 0.000000 1.000000
vn 0.000064 0.000000 1.000000
vn 0.000064 0.000000 1.000000
vn 0.000064 0.000000 1.000000
vn 0.000064 0.000000 1.000000
vn 0.000064 0.000000 1.000000
vn 0.000064 0.000000 1.000000
vn -0.866002 0.000000 0.500040
vn -0.866002 0.000000 0.500040
vn -0.866002 0.000000 0.500040
vn -0.866002 0.000000 0.500040
vn -0.866001 0.000000 0.500042
vn -0.866001 0.000000 0.500041
vn -0.866001 0.000000 0.500041
vn -0.866001 0.000000 0.500042
vn 0.865970 0.000000 0.500096
vn 0.865970 0.000000 0.500096
vn 0.865970 0.000000 0.500096
vn 0.865970 0.000000 0.500096
vn 0.865970 0.000000 0.500096
vn 0.865970 0.000000 0.500096
vn 0.865970 0.000000 0.500096
vn 0.865970 0.000000 0.500096
s off
f 36/72/1 51/102/2 1/1/3 27/60/4
f 8/17/5 23/54/6 24/56/7 4/4/8
f 69/126/9 38/74/10 26/58/11 6/6/12
f 55/108/13 56/109/14 20/44/15
f 10/18/16 13/29/17 14/32/18 7/20/19
f 8/23/20 15/33/21 16/36/22 9/24/23
f 19/42/24 11/26/25 42/79/26 13/30/27 10/22/28 9/21/29 16/35/30 22/47/31 18/39/32 45/84/33 48/92/34 49/95/35
f 40/76/36 75/135/37 74/133/38 41/77/39
f 2/2/40 28/61/41 33/69/42 61/115/43
f 12/28/44 11/25/45 19/41/46 20/43/47
f 14/32/48 13/29/49 42/78/50 43/81/51
f 16/36/52 15/33/53 21/45/54 22/48/55
f 18/40/56 17/37/57 44/82/58 45/85/59
f 20/43/60 19/41/61 49/94/62 47/88/63
f 22/48/64 21/45/65 17/37/66 18/40/67
f 50/99/68 65/121/69 6/59/70 26/98/71
f 29/62/72 30/64/73 7/15/74 3/3/75
f 7/19/76 30/63/77 31/66/78 10/49/79
f 10/50/80 31/65/81 32/68/82 9/51/83
f 9/52/84 32/67/85 23/55/86 8/53/87
f 43/81/88 42/78/89 11/25/90 12/28/91
f 44/82/92 46/87/93 48/93/94 45/85/95
f 49/86/96 48/89/97 46/96/98 47/97/99
f 54/107/100 55/108/101 20/44/102 47/90/103
f 68/124/104 67/123/105 46/91/106
f 68/124/107 46/91/108 44/83/109
f 6/13/110 68/124/111 69/125/112
f 37/73/113 52/104/114 51/102/115 36/72/116
f 20/44/117 56/109/118 57/110/119
f 35/71/120 53/106/121 52/104/122 37/73/123
f 12/27/124 59/112/125 43/80/126
f 20/44/127 57/110/128 12/27/129
f 2/2/130 53/106/131 35/71/132 28/61/133
f 12/27/134 58/111/135 59/112/136
f 66/122/137 55/108/138 54/107/139
f 1/12/140 51/101/141 56/109/142 55/108/143
f 57/110/144 56/109/145 51/101/146 52/103/147
f 58/111/148 52/103/149 53/105/150
f 59/112/151 58/111/152 60/113/153
f 12/27/154 57/110/155 58/111/156
f 58/111/157 57/110/158 52/103/159
f 59/112/160 60/113/161 2/11/162
f 60/113/163 58/111/164 53/105/165
f 2/11/166 60/113/167 53/105/168
f 43/80/169 59/112/170 64/119/171
f 61/114/172 59/112/173 2/11/174
f 61/115/175 33/69/176 34/70/177 62/117/178
f 61/114/179 64/119/180 59/112/181
f 62/117/182 34/70/183 29/62/184 3/3/185
f 3/10/186 63/118/187 62/116/188
f 14/31/189 63/118/190 7/14/191
f 43/80/192 63/118/193 14/31/194
f 62/116/195 63/118/196 64/119/197 61/114/198
f 43/80/199 64/119/200 63/118/201
f 7/14/202 63/118/203 3/10/204
f 1/7/205 65/121/206 50/99/207 27/100/208
f 65/120/209 66/122/210 54/107/211
f 1/12/212 66/122/213 65/120/214
f 1/12/215 55/108/216 66/122/217
f 65/120/218 67/123/219 6/13/220
f 65/120/221 54/107/222 67/123/223
f 46/91/224 67/123/225 54/107/226 47/90/227
f 6/13/228 67/123/229 68/124/230
f 21/46/231 73/131/232 76/136/233
f 5/5/234 25/57/235 39/75/236 70/128/237
f 70/128/238 39/75/239 38/74/240 69/126/241
f 72/130/242 44/83/243 17/38/244
f 69/125/245 68/124/246 70/127/247
f 71/129/248 72/130/249 17/38/250
f 70/127/251 72/130/252 71/129/253
f 70/127/254 68/124/255 72/130/256
f 70/127/257 71/129/258 5/8/259
f 74/132/260 76/136/261 73/131/262
f 4/9/263 73/131/264 15/34/265 8/16/266
f 74/132/267 73/131/268 4/9/269
f 41/77/270 74/133/271 4/4/272 24/56/273
f 5/5/274 75/135/275 40/76/276 25/57/277
f 5/8/278 71/129/279 75/134/280
f 15/34/281 73/131/282 21/46/283
f 75/134/284 71/129/285 76/136/286
f 21/46/287 76/136/288 71/129/289
f 75/134/290 76/136/291 74/132/292
f 72/130/293 68/124/294 44/83/295
f 71/129/296 17/38/297 21/46/298
f 24/137/299 23/138/300 77/139/301 78/140/302
f 41/141/303 24/142/304 78/143/305 79/144/306
f 39/145/307 25/146/308 80/147/309 81/148/310
f 36/149/311 27/150/312 82/151/313 83/152/314
f 33/153/315 28/154/316 84/155/317 85/156/318
f 30/157/319 29/158/320 86/159/321 87/160/322
f 31/161/323 30/162/324 87/163/325 88/164/326
f 32/165/327 31/166/328 88/167/329 89/168/330
f 23/169/331 32/170/332 89/171/333 77/172/334
f 34/173/335 33/174/336 85/175/337 90/176/338
f 29/177/339 34/178/340 90/179/341 86/180/342
f 28/181/343 35/182/344 91/183/345 84/184/346
f 37/185/347 36/186/348 83/187/349 92/188/350
f 35/189/351 37/190/352 92/191/353 91/192/354
f 26/193/355 38/194/356 93/195/357 94/196/358
f 38/197/359 39/198/360 81/199/361 93/200/362
f 25/201/363 40/202/364 95/203/365 80/204/366
f 40/205/367 41/206/368 79/207/369 95/208/370
f 50/209/371 26/210/372 94/211/373 96/212/374
f 27/213/375 50/214/376 96/215/377 82/216/378
