# This file uses meters as units for non-parametric coordinates.

v 288.728027 0.000000 -0.018328
v 144.379639 0.000000 -250.009155
v -144.348389 0.000000 -249.990845
v -288.728027 0.000000 0.018209
v -144.379883 0.000000 250.009155
v 144.347900 0.000000 249.990845
v -180.411377 0.000000 -187.445221
v -252.538086 0.000000 -62.518349
v -241.735107 -7.061005 -81.229553
v -191.214355 -7.061005 -168.733978
v 5.075439 -7.061005 -60.656395
v 38.888672 2.608442 -87.332458
v -139.146973 -7.061005 -129.248962
v -132.965332 0.000000 -150.628204
v -207.007568 1.249027 -34.945526
v -179.430664 -7.061005 -55.610886
v -26.070557 0.000000 24.866257
v -1.571045 -7.061005 7.780790
v 78.482666 -7.061005 -18.436165
v 87.239502 -1.263176 -23.727303
v -106.020996 3.643284 -5.480909
v -87.402100 -7.061005 -24.754524
v -252.538086 -11.986771 -62.518311
v -288.728027 -17.329197 0.018209
v -144.379883 -17.329197 250.009155
v 144.347900 -21.825504 249.990845
v 288.728027 -17.329197 -0.018328
v 144.379639 -17.329197 -250.009155
v -144.348389 -17.329197 -249.990845
v -180.411377 -25.621681 -187.445221
v -191.214355 -20.859699 -168.733978
v -241.735107 -20.859699 -81.229553
v 68.173096 -23.522987 -250.004272
v -60.657227 -12.821321 -249.996185
v 181.559326 -13.878794 -185.619354
v 267.479980 -11.777887 -36.816635
v 225.189941 -23.577538 -110.056992
v 52.434814 -23.861008 249.996643
v -89.041504 -12.074003 250.005646
v -211.462402 -9.843798 133.831482
v -269.943848 -22.321739 32.549839
v -53.530518 -7.061005 -119.077530
v -48.214355 0.000000 -142.897797
v 78.439697 -1.371776 75.671158
v 79.046387 -7.061005 61.559258
v 110.832764 0.000000 67.878342
v 106.478271 0.000000 32.854462
v 104.171875 -7.061005 59.562378
v 96.425781 -7.061005 29.691486
v 199.054932 -14.923267 155.260010
v 265.848145 0.000000 -39.642792
v 223.705566 0.000000 -112.627792
v 182.915283 0.000000 -183.271027
v 180.166748 2.985117 63.598557
v 169.532959 -1.916982 -6.434622
v 211.372559 -3.110282 -58.801041
v 164.991455 3.690426 -75.501480
v 111.211426 1.065909 -127.947998
v 49.614746 5.977068 -180.296631
v 109.488281 -1.351444 -190.355682
v 69.491943 0.000000 -250.004425
v -53.379883 0.000000 -249.996643
v -85.243896 -2.387025 -198.441315
v -8.306641 4.741974 -209.813843
v 201.873047 0.000000 150.379791
v 224.629639 1.423615 28.596535
v 157.448486 1.149879 134.534378
v 66.445801 -2.155128 175.094452
v 46.006836 0.000000 249.997101
v -88.373291 0.000000 250.005646
v -98.692627 1.556251 91.980896
v -17.107178 7.840285 119.724503
v -239.548096 -2.407680 6.579671
v -257.955566 0.000000 53.311996
v -210.539795 0.000000 135.429230
v -166.479004 4.890122 50.591507
v -216.537842 -43.147278 -124.986343
v -288.728027 -43.147278 0.018209
v -216.553711 -43.147278 125.013657
v -144.379639 -43.147278 250.009155
v -0.015869 -43.147278 250.000000
v 288.728027 -43.147278 -0.021410
v 216.553711 -43.147278 -125.013733
v 144.379883 -43.147278 -250.009155
v 0.015869 -43.147278 -250.000000
v -144.347900 -43.147278 -249.990997
v 144.359344 -43.147278 249.994431
v 216.537888 -43.147278 124.986191
vt 0.896992 0.323251
vt 0.896992 0.323251
vt 0.896992 0.323251
vt 0.896992 0.323251
vt 0.896992 0.323251
vt 0.896992 0.323251
vt 0.896992 0.323581
vt 0.896992 0.323251
vt 0.896992 0.323251
vt 0.896992 0.323251
vt 0.896992 0.323251
vt 0.896992 0.323251
vt 0.896992 0.323251
vt 0.896992 0.323251
vt 0.896992 0.323251
vt 0.896992 0.323251
vt 0.896992 0.323251
vt 0.920114 0.312033
vt 0.920134 0.312499
vt 0.920111 0.312054
vt 0.909089 0.324395
vt 0.909089 0.324397
vt 0.920132 0.312009
vt 0.920129 0.312001
vt 0.920120 0.312667
vt 0.909089 0.324429
vt 0.896992 0.323251
vt 0.920117 0.312715
vt 0.920116 0.312239
vt 0.909089 0.324407
vt 0.896992 0.323251
vt 0.920113 0.312249
vt 0.920134 0.312160
vt 0.896992 0.323251
vt 0.909089 0.324405
vt 0.920131 0.312188
vt 0.920138 0.312613
vt 0.896992 0.323251
vt 0.909089 0.324425
vt 0.920135 0.312590
vt 0.920123 0.312904
vt 0.909089 0.324441
vt 0.920120 0.312929
vt 0.896988 0.323287
vt 0.920136 0.312379
vt 0.896992 0.323251
vt 0.909089 0.324414
vt 0.920133 0.312379
vt 0.920133 0.312500
vt 0.909089 0.324643
vt 0.909088 0.324661
vt 0.920126 0.312496
vt 0.920125 0.312493
vt 0.896992 0.323251
vt 0.920125 0.312558
vt 0.896992 0.323251
vt 0.896992 0.323251
vt 0.896992 0.323251
vt 0.896998 0.323119
vt 0.896992 0.323251
vt 0.896992 0.323251
vt 0.896992 0.323251
vt 0.920134 0.312564
vt 0.896992 0.323251
vt 0.909089 0.324362
vt 0.920133 0.312564
vt 0.920126 0.312560
vt 0.909088 0.324380
vt 0.896992 0.323251
vt 0.896992 0.323251
vt 0.896992 0.323251
vt 0.896992 0.323251
vt 0.896992 0.323251
vt 0.896992 0.323251
vt 0.896992 0.323251
vt 0.896992 0.323251
vt 0.896992 0.323251
vt 0.920118 0.312451
vt 0.909089 0.324418
vt 0.896992 0.323251
vt 0.920115 0.312457
vt 0.920141 0.312860
vt 0.896992 0.323251
vt 0.909089 0.324435
vt 0.920137 0.312784
vt 0.920121 0.312200
vt 0.920138 0.312920
vt 0.920124 0.313043
vt 0.920134 0.312208
vt 0.896985 0.323315
vt 0.896987 0.323305
vt 0.909089 0.324438
vt 0.920138 0.312858
vt 0.920124 0.313011
vt 0.909089 0.324446
vt 0.920133 0.312774
vt 0.920120 0.312646
vt 0.896998 0.322961
vt 0.896996 0.323186
vt 0.896992 0.323456
vt 0.896992 0.323251
vt 0.896992 0.323251
vt 0.896992 0.323251
vt 0.896992 0.323251
vt 0.896992 0.323251
vt 0.896992 0.323251
vt 0.896987 0.323289
vt 0.896990 0.323271
vt 0.896990 0.323270
vt 0.896990 0.323266
vt 0.896992 0.323251
vt 0.896992 0.323251
vt 0.896992 0.323251
vt 0.896992 0.323251
vt 0.896992 0.323251
vt 0.896992 0.323251
vt 0.896992 0.323251
vt 0.896992 0.323251
vt 0.896992 0.323251
vt 0.896992 0.323251
vt 0.896996 0.323303
vt 0.896989 0.323272
vt 0.896989 0.323271
vt 0.896990 0.323267
vt 0.896992 0.323251
vt 0.896992 0.323251
vt 0.896992 0.323251
vt 0.896992 0.323251
vt 0.896992 0.323251
vt 0.896992 0.323251
vt 0.896992 0.323251
vt 0.896992 0.323251
vt 0.896992 0.323251
vt 0.896992 0.323251
vt 0.896992 0.323251
vt 0.896992 0.323251
vt 0.989943 0.923703
vt 0.990214 0.923703
vt 0.990486 0.900177
vt 0.989943 0.900177
vt 0.989801 0.923703
vt 0.989399 0.900177
vt 0.988856 0.923703
vt 0.988856 0.923703
vt 0.988856 0.900177
vt 0.988856 0.900177
vt 0.990103 0.923703
vt 0.989943 0.923703
vt 0.989943 0.900177
vt 0.990486 0.900177
vt 0.991030 0.923703
vt 0.991030 0.923703
vt 0.991030 0.900177
vt 0.991030 0.900177
vt 0.990758 0.923703
vt 0.991030 0.923703
vt 0.991030 0.900177
vt 0.990486 0.900177
vt 0.990676 0.923703
vt 0.990296 0.923703
vt 0.991030 0.923703
vt 0.990750 0.923703
vt 0.990486 0.900177
vt 0.990421 0.923703
vt 0.988856 0.923703
vt 0.988856 0.923703
vt 0.988856 0.900177
vt 0.989361 0.923703
vt 0.989268 0.923703
vt 0.989399 0.900177
vn 0.866000 -0.000002 -0.500044
vn 0.866000 -0.000002 -0.500044
vn 0.866000 -0.000002 -0.500045
vn 0.866000 -0.000002 -0.500045
vn -0.865519 0.000000 -0.500876
vn -0.865519 0.000000 -0.500876
vn -0.865519 0.000000 -0.500876
vn -0.865519 0.000000 -0.500876
vn 0.000063 -0.000001 1.000000
vn 0.000063 -0.000001 1.000000
vn 0.000063 -0.000001 1.000000
vn 0.000063 -0.000001 1.000000
vn 0.010901 0.999842 -0.014074
vn 0.010901 0.999842 -0.014074
vn 0.010901 0.999842 -0.014074
vn -0.193305 0.948195 0.252110
vn -0.193305 0.948195 0.252110
vn -0.193305 0.948195 0.252110
vn -0.193305 0.948195 0.252110
vn 0.117138 0.958483 -0.259980
vn 0.117138 0.958483 -0.259980
vn 0.117138 0.958483 -0.259980
vn 0.117138 0.958483 -0.259980
vn 0.000000 1.000000 0.000000
vn 0.000000 1.000000 0.000000
vn 0.000000 1.000000 0.000000
vn 0.000000 1.000000 0.000000
vn 0.000000 1.000000 0.000000
vn 0.000000 1.000000 0.000000
vn 0.000000 1.000000 -0.000000
vn 0.000000 1.000000 -0.000000
vn 0.000000 1.000000 -0.000000
vn 0.000000 1.000000 0.000000
vn 0.000000 1.000000 0.000000
vn 0.000000 1.000000 0.000000
vn 0.000000 1.000000 0.000000
vn 0.000000 1.000000 0.000000
vn 0.000000 1.000000 0.000000
vn 0.000000 1.000000 -0.000000
vn 0.000000 1.000000 -0.000000
vn 0.000000 1.000000 -0.000000
vn 0.000000 1.000000 0.000000
vn 0.000000 1.000000 0.000000
vn 0.000000 1.000000 0.000000
vn 0.000000 1.000000 0.000000
vn 0.000000 1.000000 0.000000
vn 0.000000 1.000000 0.000000
vn 0.000000 1.000000 0.000000
vn 0.000000 1.000000 0.000000
vn 0.000000 1.000000 0.000000
vn 0.000000 1.000000 -0.000000
vn 0.000000 1.000000 -0.000000
vn 0.000000 1.000000 -0.000000
vn -0.866001 -0.000001 0.500042
vn -0.866001 -0.000001 0.500042
vn -0.866001 -0.000001 0.500042
vn -0.866001 -0.000001 0.500042
vn -0.000064 -0.000002 -1.000000
vn -0.000064 -0.000002 -1.000000
vn -0.000064 -0.000002 -1.000000
vn -0.000064 -0.000002 -1.000000
vn -0.172432 0.956969 0.233404
vn -0.172432 0.956969 0.233404
vn -0.172432 0.956969 0.233404
vn -0.172432 0.956969 0.233404
vn -0.030576 0.956238 0.290987
vn -0.030576 0.956238 0.290987
vn -0.030576 0.956238 0.290987
vn -0.030576 0.956238 0.290987
vn 0.093828 0.936671 -0.337408
vn 0.093828 0.936671 -0.337408
vn 0.093828 0.936671 -0.337408
vn 0.093828 0.936671 -0.337408
vn 0.155946 0.951954 -0.263561
vn 0.155946 0.951954 -0.263561
vn 0.155946 0.951954 -0.263561
vn 0.155946 0.951954 -0.263561
vn -0.540798 0.821198 0.182128
vn -0.540798 0.821198 0.182129
vn -0.540798 0.821198 0.182129
vn -0.540798 0.821199 0.182129
vn 0.134978 0.943972 -0.301160
vn 0.134978 0.943972 -0.301160
vn 0.134978 0.943972 -0.301160
vn 0.134978 0.943972 -0.301160
vn 0.865970 0.000005 0.500096
vn 0.865970 0.000005 0.500097
vn 0.865970 0.000005 0.500096
vn 0.865970 0.000005 0.500096
vn -0.866312 0.000000 -0.499504
vn -0.866312 0.000000 -0.499504
vn -0.866312 0.000000 -0.499504
vn -0.866312 0.000000 -0.499504
vn -0.866025 0.000000 -0.500001
vn -0.866025 0.000000 -0.500001
vn -0.866025 0.000000 -0.500001
vn -0.866025 0.000000 -0.500001
vn -0.866025 0.000000 -0.500000
vn -0.866025 0.000000 -0.500000
vn -0.866025 0.000000 -0.500000
vn -0.866025 0.000000 -0.500000
vn -0.866025 -0.000002 -0.500001
vn -0.866025 -0.000002 -0.500001
vn -0.866025 -0.000002 -0.500001
vn -0.866025 -0.000002 -0.500001
vn -0.166867 0.967269 0.191171
vn -0.166867 0.967269 0.191171
vn -0.166867 0.967269 0.191171
vn -0.166867 0.967269 0.191171
vn -0.101054 0.876362 -0.470933
vn -0.101054 0.876362 -0.470933
vn -0.101054 0.876362 -0.470933
vn -0.101054 0.876362 -0.470933
vn -0.690122 0.712160 0.128683
vn -0.690122 0.712160 0.128683
vn -0.690122 0.712160 0.128683
vn -0.690122 0.712160 0.128683
vn 0.000054 0.998816 -0.048648
vn 0.000054 0.998816 -0.048648
vn 0.000054 0.998816 -0.048648
vn 0.000054 0.998816 -0.048648
vn -0.033530 0.999418 0.006208
vn -0.033530 0.999418 0.006208
vn -0.033530 0.999418 0.006208
vn -0.041625 0.999129 0.002851
vn -0.041625 0.999129 0.002851
vn -0.041625 0.999129 0.002851
vn -0.000002 0.999586 -0.028761
vn -0.000002 0.999586 -0.028761
vn -0.000002 0.999586 -0.028761
vn 0.866001 -0.000003 -0.500042
vn 0.866001 -0.000003 -0.500042
vn 0.866001 -0.000003 -0.500042
vn 0.866001 -0.000003 -0.500041
vn 0.071143 0.977142 0.200329
vn 0.071143 0.977142 0.200329
vn 0.071143 0.977142 0.200329
vn 0.866002 -0.000001 -0.500040
vn 0.866002 -0.000001 -0.500040
vn 0.866002 -0.000001 -0.500040
vn 0.866002 -0.000001 -0.500040
vn -0.049341 0.998317 0.030482
vn -0.049341 0.998317 0.030482
vn -0.049341 0.998317 0.030482
vn -0.015346 0.997260 0.072369
vn -0.015346 0.997260 0.072369
vn -0.015346 0.997260 0.072369
vn 0.866001 0.000000 -0.500043
vn 0.866001 0.000000 -0.500042
vn 0.866001 0.000000 -0.500043
vn 0.866001 0.000000 -0.500043
vn 0.044483 0.998156 0.041301
vn 0.044483 0.998156 0.041301
vn 0.044483 0.998156 0.041301
vn -0.017807 0.997586 -0.067124
vn -0.017807 0.997586 -0.067124
vn -0.017807 0.997586 -0.067124
vn -0.026227 0.999487 -0.018371
vn -0.026227 0.999487 -0.018371
vn -0.026227 0.999487 -0.018371
vn -0.026227 0.999487 -0.018371
vn 0.014808 0.998024 0.061062
vn 0.014808 0.998024 0.061062
vn 0.014808 0.998024 0.061062
vn 0.014808 0.998024 0.061062
vn 0.010283 0.999929 -0.005938
vn 0.010283 0.999929 -0.005938
vn 0.010283 0.999929 -0.005938
vn 0.114498 0.992552 -0.041608
vn 0.114498 0.992552 -0.041608
vn 0.114498 0.992552 -0.041608
vn -0.004294 0.998951 -0.045586
vn -0.004294 0.998951 -0.045586
vn -0.004294 0.998951 -0.045586
vn 0.018886 0.997419 -0.069278
vn 0.018886 0.997419 -0.069278
vn 0.018886 0.997419 -0.069278
vn 0.137872 0.985084 0.102958
vn 0.137872 0.985084 0.102958
vn 0.137872 0.985084 0.102958
vn -0.014695 0.999158 -0.038297
vn -0.014695 0.999158 -0.038297
vn -0.014695 0.999158 -0.038297
vn -0.019486 0.999747 0.011252
vn -0.019486 0.999747 0.011252
vn -0.019486 0.999747 0.011252
vn -0.043963 0.998041 0.044507
vn -0.043963 0.998041 0.044507
vn -0.043963 0.998041 0.044507
vn -0.000005 0.996344 -0.085433
vn -0.000005 0.996344 -0.085433
vn -0.000005 0.996344 -0.085433
vn -0.000063 -0.000002 -1.000000
vn -0.000063 -0.000002 -1.000000
vn -0.000063 -0.000002 -1.000000
vn -0.000063 -0.000002 -1.000000
vn 0.019468 0.996613 -0.079903
vn 0.019468 0.996613 -0.079903
vn 0.019468 0.996613 -0.079903
vn -0.000064 0.000000 -1.000000
vn -0.000064 0.000000 -1.000000
vn -0.000064 0.000000 -1.000000
vn -0.000064 0.000000 -1.000000
vn 0.000003 0.998930 0.046253
vn 0.000003 0.998930 0.046253
vn 0.000003 0.998930 0.046253
vn 0.021818 0.999367 -0.028117
vn 0.021818 0.999367 -0.028117
vn 0.021818 0.999367 -0.028117
vn 0.004169 0.998946 -0.045710
vn 0.004169 0.998946 -0.045710
vn 0.004169 0.998946 -0.045710
vn -0.039716 0.996537 -0.073052
vn -0.039716 0.996537 -0.073052
vn -0.039716 0.996537 -0.073052
vn -0.039716 0.996537 -0.073052
vn -0.089754 0.995818 0.017041
vn -0.089754 0.995818 0.017041
vn -0.089754 0.995818 0.017041
vn 0.026860 0.999519 0.015487
vn 0.026860 0.999519 0.015487
vn 0.026860 0.999519 0.015487
vn 0.865969 0.000005 0.500097
vn 0.865969 0.000005 0.500097
vn 0.865969 0.000005 0.500097
vn 0.865969 0.000005 0.500097
vn 0.051884 0.998425 0.021366
vn 0.051884 0.998425 0.021366
vn 0.051884 0.998425 0.021366
vn 0.029907 0.999404 0.017271
vn 0.029907 0.999403 0.017271
vn 0.029907 0.999403 0.017271
vn -0.011926 0.997012 -0.076318
vn -0.011926 0.997012 -0.076318
vn -0.011926 0.997012 -0.076318
vn 0.021456 0.999693 0.012391
vn 0.021456 0.999693 0.012391
vn 0.021456 0.999693 0.012391
vn 0.014940 0.999419 0.030641
vn 0.014940 0.999419 0.030641
vn 0.014940 0.999419 0.030641
vn -0.042399 0.999051 0.009956
vn -0.042399 0.999051 0.009956
vn -0.042399 0.999051 0.009956
vn -0.042399 0.999051 0.009956
vn -0.033557 0.999418 0.006146
vn -0.033557 0.999418 0.006146
vn -0.033557 0.999418 0.006146
vn -0.052198 0.995553 -0.078418
vn -0.052198 0.995553 -0.078418
vn -0.052198 0.995553 -0.078418
vn 0.000063 -0.000001 1.000000
vn 0.000063 -0.000001 1.000000
vn 0.000063 -0.000001 1.000000
vn 0.000063 -0.000001 1.000000
vn 0.000064 -0.000003 1.000000
vn 0.000064 -0.000003 1.000000
vn 0.000064 -0.000003 1.000000
vn 0.000064 -0.000003 1.000000
vn 0.055571 0.994617 -0.087459
vn 0.055571 0.994617 -0.087459
vn 0.055571 0.994617 -0.087459
vn -0.000002 0.999586 -0.028761
vn -0.000002 0.999586 -0.028761
vn -0.000002 0.999586 -0.028761
vn -0.050325 0.995718 -0.077543
vn -0.050325 0.995718 -0.077543
vn -0.050325 0.995718 -0.077543
vn -0.081913 0.996524 0.015163
vn -0.081912 0.996524 0.015163
vn -0.081912 0.996524 0.015163
vn 0.058185 0.994090 0.091652
vn 0.058185 0.994090 0.091652
vn 0.058185 0.994090 0.091652
vn 0.000001 0.999952 0.009848
vn 0.000001 0.999952 0.009848
vn 0.000001 0.999952 0.009848
vn -0.055407 0.995782 -0.073128
vn -0.055407 0.995782 -0.073128
vn -0.055407 0.995782 -0.073128
vn -0.000348 0.999391 0.034889
vn -0.000348 0.999391 0.034889
vn -0.000348 0.999391 0.034889
vn -0.000348 0.999391 0.034889
vn 0.052944 0.998129 -0.030570
vn 0.052944 0.998129 -0.030570
vn 0.052944 0.998130 -0.030570
vn -0.866002 0.000000 0.500040
vn -0.866002 0.000000 0.500040
vn -0.866002 0.000000 0.500040
vn -0.866002 0.000000 0.500040
vn -0.866002 0.000001 0.500041
vn -0.866002 0.000001 0.500041
vn -0.866002 0.000001 0.500041
vn -0.866002 0.000001 0.500041
vn -0.011364 0.999914 0.006562
vn -0.011364 0.999914 0.006562
vn -0.011364 0.999914 0.006562
vn -0.040112 0.997601 0.056416
vn -0.040112 0.997601 0.056416
vn -0.040112 0.997601 0.056416
vn 0.010598 0.997956 0.063027
vn 0.010598 0.997956 0.063027
vn 0.010598 0.997956 0.063027
vn 0.037811 0.999113 0.018552
vn 0.037811 0.999113 0.018552
vn 0.037811 0.999113 0.018552
vn -0.052459 0.998164 0.030290
vn -0.052459 0.998164 0.030290
vn -0.052459 0.998164 0.030290
vn 0.105327 0.994226 0.020540
vn 0.105327 0.994226 0.020540
vn 0.105327 0.994226 0.020540
vn 0.038506 0.999087 0.018499
vn 0.038506 0.999087 0.018499
vn 0.038506 0.999087 0.018499
vn -0.865966 0.002809 -0.500096
vn -0.865966 0.002809 -0.500096
vn -0.865966 0.002809 -0.500096
vn -0.865777 0.001203 -0.500428
vn -0.865777 0.001203 -0.500428
vn -0.865777 0.001203 -0.500428
vn -0.865519 0.000000 -0.500876
vn -0.865519 0.000000 -0.500876
vn -0.865519 0.000000 -0.500876
vn -0.866001 -0.000004 0.500042
vn -0.866001 -0.000004 0.500042
vn -0.866001 -0.000004 0.500042
vn -0.866001 -0.000004 0.500042
vn 0.000064 0.000000 1.000000
vn 0.000064 0.000000 1.000000
vn 0.000064 0.000000 1.000000
vn 0.000064 0.000000 1.000000
vn 0.865997 0.000043 -0.500049
vn 0.865997 0.000043 -0.500049
vn 0.865997 0.000043 -0.500049
vn 0.865997 0.000043 -0.500049
vn -0.000064 0.000002 -1.000000
vn -0.000064 0.000002 -1.000000
vn -0.000064 0.000002 -1.000000
vn -0.000064 0.000002 -1.000000
vn -0.866113 0.001604 -0.499845
vn -0.866114 0.001604 -0.499845
vn -0.866113 0.001604 -0.499845
vn -0.866113 0.001604 -0.499845
vn -0.865836 0.001701 -0.500325
vn -0.865836 0.001701 -0.500325
vn -0.865836 0.001701 -0.500325
vn -0.866022 0.002555 -0.499999
vn -0.866022 0.002555 -0.499999
vn -0.866022 0.002555 -0.499999
vn -0.000063 0.000000 -1.000000
vn -0.000063 0.000000 -1.000000
vn -0.000063 0.000000 -1.000000
vn -0.000063 0.000003 -1.000000
vn -0.000063 0.000003 -1.000000
vn -0.000063 0.000003 -1.000000
vn -0.000063 0.000003 -1.000000
vn 0.866002 0.000003 -0.500041
vn 0.866002 0.000003 -0.500041
vn 0.866002 0.000003 -0.500041
vn 0.866002 0.000003 -0.500041
vn 0.866001 0.000001 -0.500042
vn 0.866001 0.000001 -0.500042
vn 0.866001 0.000001 -0.500042
vn 0.866002 -0.000001 -0.500040
vn 0.866002 -0.000001 -0.500040
vn 0.866002 -0.000001 -0.500040
vn 0.000047 0.000110 1.000000
vn 0.000047 0.000110 1.000000
vn 0.000047 0.000110 1.000000
vn 0.000047 0.000110 1.000000
vn 0.000064 0.000001 1.000000
vn 0.000064 0.000001 1.000000
vn 0.000064 0.000001 1.000000
vn -0.866002 -0.000007 0.500041
vn -0.866002 -0.000007 0.500041
vn -0.866002 -0.000007 0.500041
vn -0.866002 -0.000007 0.500041
vn -0.866001 -0.000006 0.500042
vn -0.866001 -0.000006 0.500042
vn -0.866001 -0.000006 0.500042
vn 0.865989 0.000261 0.500063
vn 0.865989 0.000261 0.500063
vn 0.865989 0.000261 0.500063
vn 0.865989 0.000261 0.500063
vn 0.865972 -0.000028 0.500093
vn 0.865972 -0.000028 0.500093
vn 0.865972 -0.000028 0.500093
vn 0.865972 -0.000028 0.500093
s off
f 36/72/1 51/102/2 1/1/3 27/60/4
f 8/17/5 23/54/6 24/56/7 4/4/8
f 69/126/9 38/74/10 26/58/11 6/6/12
f 55/108/13 56/109/14 20/44/15
f 10/18/16 13/29/17 14/32/18 7/20/19
f 8/23/20 15/33/21 16/36/22 9/24/23
f 48/92/24 49/95/25 45/84/26
f 9/21/27 16/35/28 10/22/29
f 10/22/30 16/35/31 13/30/32
f 16/35/33 22/47/34 13/30/35
f 13/30/36 22/47/37 42/79/38
f 42/79/39 22/47/40 11/26/41
f 22/47/42 18/39/43 11/26/44
f 11/26/45 18/39/46 19/42/47
f 45/84/48 49/95/49 18/39/50
f 19/42/51 18/39/52 49/95/53
f 40/76/54 75/135/55 74/133/56 41/77/57
f 2/2/58 28/61/59 33/69/60 61/115/61
f 12/28/62 11/25/63 19/41/64 20/43/65
f 14/32/66 13/29/67 42/78/68 43/81/69
f 16/36/70 15/33/71 21/45/72 22/48/73
f 18/40/74 17/37/75 44/82/76 45/85/77
f 20/43/78 19/41/79 49/94/80 47/88/81
f 22/48/82 21/45/83 17/37/84 18/40/85
f 50/99/86 65/121/87 6/59/88 26/98/89
f 29/62/90 30/64/91 7/15/92 3/3/93
f 7/19/94 30/63/95 31/66/96 10/49/97
f 10/50/98 31/65/99 32/68/100 9/51/101
f 9/52/102 32/67/103 23/55/104 8/53/105
f 43/81/106 42/78/107 11/25/108 12/28/109
f 44/82/110 46/87/111 48/93/112 45/85/113
f 49/86/114 48/89/115 46/96/116 47/97/117
f 54/107/118 55/108/119 20/44/120 47/90/121
f 68/124/122 67/123/123 46/91/124
f 68/124/125 46/91/126 44/83/127
f 6/13/128 68/124/129 69/125/130
f 37/73/131 52/104/132 51/102/133 36/72/134
f 20/44/135 56/109/136 57/110/137
f 35/71/138 53/106/139 52/104/140 37/73/141
f 12/27/142 59/112/143 43/80/144
f 20/44/145 57/110/146 12/27/147
f 2/2/148 53/106/149 35/71/150 28/61/151
f 12/27/152 58/111/153 59/112/154
f 66/122/155 55/108/156 54/107/157
f 1/12/158 51/101/159 56/109/160 55/108/161
f 57/110/162 56/109/163 51/101/164 52/103/165
f 58/111/166 52/103/167 53/105/168
f 59/112/169 58/111/170 60/113/171
f 12/27/172 57/110/173 58/111/174
f 58/111/175 57/110/176 52/103/177
f 59/112/178 60/113/179 2/11/180
f 60/113/181 58/111/182 53/105/183
f 2/11/184 60/113/185 53/105/186
f 43/80/187 59/112/188 64/119/189
f 61/114/190 59/112/191 2/11/192
f 61/115/193 33/69/194 34/70/195 62/117/196
f 61/114/197 64/119/198 59/112/199
f 62/117/200 34/70/201 29/62/202 3/3/203
f 3/10/204 63/118/205 62/116/206
f 14/31/207 63/118/208 7/14/209
f 43/80/210 63/118/211 14/31/212
f 62/116/213 63/118/214 64/119/215 61/114/216
f 43/80/217 64/119/218 63/118/219
f 7/14/220 63/118/221 3/10/222
f 1/7/223 65/121/224 50/99/225 27/100/226
f 65/120/227 66/122/228 54/107/229
f 1/12/230 66/122/231 65/120/232
f 1/12/233 55/108/234 66/122/235
f 65/120/236 67/123/237 6/13/238
f 65/120/239 54/107/240 67/123/241
f 46/91/242 67/123/243 54/107/244 47/90/245
f 6/13/246 67/123/247 68/124/248
f 21/46/249 73/131/250 76/136/251
f 5/5/252 25/57/253 39/75/254 70/128/255
f 70/128/256 39/75/257 38/74/258 69/126/259
f 72/130/260 44/83/261 17/38/262
f 69/125/263 68/124/264 70/127/265
f 71/129/266 72/130/267 17/38/268
f 70/127/269 72/130/270 71/129/271
f 70/127/272 68/124/273 72/130/274
f 70/127/275 71/129/276 5/8/277
f 74/132/278 76/136/279 73/131/280
f 4/9/281 73/131/282 15/34/283 8/16/284
f 74/132/285 73/131/286 4/9/287
f 41/77/288 74/133/289 4/4/290 24/56/291
f 5/5/292 75/135/293 40/76/294 25/57/295
f 5/8/296 71/129/297 75/134/298
f 15/34/299 73/131/300 21/46/301
f 75/134/302 71/129/303 76/136/304
f 21/46/305 76/136/306 71/129/307
f 75/134/308 76/136/309 74/132/310
f 72/130/311 68/124/312 44/83/313
f 71/129/314 17/38/315 21/46/316
f 77/139/317 78/140/318 32/160/319
f 32/160/320 78/140/321 23/138/322
f 78/140/323 24/137/324 23/138/325
f 41/141/326 24/137/327 78/140/328 79/142/329
f 39/143/330 25/144/331 80/145/332 81/146/333
f 36/147/334 27/148/335 82/149/336 83/150/337
f 33/151/338 28/152/339 84/153/340 85/154/341
f 30/155/342 29/156/343 86/157/344 77/158/345
f 31/159/346 30/155/347 77/158/348
f 32/160/349 31/159/350 77/158/351
f 34/161/352 33/151/353 85/154/354
f 29/156/355 34/161/356 85/154/357 86/157/358
f 28/152/359 35/162/360 83/163/361 84/153/362
f 37/164/363 36/147/364 83/150/365
f 35/162/366 37/164/367 83/150/368
f 26/165/369 38/166/370 81/146/371 87/167/372
f 38/166/373 39/143/374 81/146/375
f 25/144/376 40/168/377 79/142/378 80/145/379
f 40/168/380 41/141/381 79/142/382
f 50/169/383 26/165/384 87/167/385 88/170/386
f 27/148/387 50/169/388 88/170/389 82/149/390
