# This file uses meters as units for non-parametric coordinates.

v 228.567200 -139.674301 -0.018389
v 116.573105 -112.141647 -200.327301
v -114.270477 -139.674301 -197.905579
v -228.567200 -139.674301 0.010535
v -117.509079 -87.311859 200.313873
v 112.894516 -94.755249 200.470886
v -0.012631 -142.553864 204.018250
v -179.934082 -92.447052 102.461166
v -145.041351 -101.179276 -92.122269
v -2.121563 -121.824493 -207.734375
v 176.661682 -114.438248 -106.898270
v 192.448120 -104.613800 82.735062
v 216.553787 -43.147221 -125.013657
v 144.380341 -43.147163 -250.009155
v 0.016217 -43.147163 -250.000000
v -144.347900 -43.147221 -249.990997
v -216.537933 -43.147278 -124.986343
v -288.727722 -43.147278 0.018179
v -216.553802 -43.147278 125.013657
v -144.379730 -43.147278 250.009155
v -0.015871 -43.147278 250.000000
v 144.359421 -43.147278 249.996323
v 216.537888 -43.147274 124.986176
v 288.728027 -43.147278 -0.023257
v 155.910187 -126.886597 -92.639236
v 105.212555 -126.595230 -180.355835
v 176.795044 -156.933289 -19.241924
v 171.445313 -115.495300 65.876427
v 100.784073 -105.625610 180.503235
v 0.949984 -161.626434 190.608368
v -106.341934 -96.648331 180.309448
v -170.718689 -100.406342 95.981369
v -204.911499 -159.945068 -0.006944
v -136.956711 -160.698853 -80.525284
v -102.444229 -159.802399 -177.439575
v 1.937275 -161.105042 -186.060791
v 134.079742 -365.691528 -79.048538
v 90.782318 -352.702026 -151.667480
v 125.149841 -308.946533 0.457520
v 123.319016 -320.643616 71.160126
v 76.524506 -295.050659 144.478760
v 1.166468 -356.724854 155.707703
v -82.503052 -347.392883 141.654358
v -120.417938 -263.396301 81.236343
v -164.431458 -309.076233 -0.009496
v -106.597748 -316.640930 -63.001976
v -82.206497 -304.135742 -142.390442
v 7.268910 -280.975800 -155.869446
v -0.000472 -503.057251 12.388611
v -36.735535 -473.971863 65.678749
v -67.223892 -470.789490 45.947037
v -66.185951 -473.151550 14.957180
v -51.940804 -473.052673 -19.367790
v -26.158562 -475.899048 -28.772621
v 0.006204 -445.440979 -85.053482
v 56.060791 -437.969360 -85.057068
v 71.858521 -468.064880 -27.510567
v 62.536125 -469.732666 15.755100
v 60.147057 -463.399658 49.143295
v 31.888733 -468.116455 70.891953
v -0.003452 -472.410278 68.122025
v 102.838287 -367.496643 -49.964333
v 61.445351 -366.744080 -104.463120
v 2.223616 -307.863464 -117.258759
v -57.029724 -368.518982 100.360336
v 12.617111 -378.526917 100.870895
v 92.437286 -294.978638 113.596649
v 141.593781 -255.280151 -81.125107
v 94.977875 -245.107574 -161.027679
v 164.897919 -235.332947 -106.516418
v 117.767792 -224.365845 -187.767181
v 104.602737 -328.724670 67.489777
v 104.713058 -323.415833 0.998474
v -130.497589 -321.537476 1.503149
v -86.709442 -312.349854 -59.994316
v -105.659714 -334.256592 79.016724
vt 0.990127 0.167536
vt 0.990694 0.171798
vt 0.990881 0.363712
vt 0.990119 0.363708
vt 0.991060 0.163443
vt 0.991311 0.363664
vt 0.991337 0.142851
vt 0.991740 0.363615
vt 0.991002 0.263957
vt 0.991408 0.363562
vt 0.990835 0.163278
vt 0.991076 0.363508
vt 0.990310 0.273765
vt 0.990314 0.363504
vt 0.989720 0.277488
vt 0.989552 0.363500
vt 0.989310 0.150415
vt 0.989122 0.363549
vt 0.989029 0.265789
vt 0.988692 0.363598
vt 0.989289 0.257700
vt 0.989025 0.363651
vt 0.989507 0.129181
vt 0.989357 0.363704
vt 0.990468 0.075076
vt 0.990624 0.075076
vt 0.990227 0.075076
vt 0.990119 0.147979
vt 0.990636 0.147745
vt 0.989730 0.112873
vt 0.989413 0.177440
vt 0.989142 0.260457
vt 0.989352 0.123584
vt 0.989762 0.270426
vt 0.990301 0.268395
vt 0.990761 0.130038
vt 0.990906 0.122205
vt 0.991221 0.118007
vt 0.990955 0.111804
vt 0.990126 0.079209
vt 0.990629 0.080832
vt 0.990086 0.077355
vt 0.989487 0.075276
vt 0.989788 0.075389
vt 0.989387 0.075788
vt 0.989491 0.075119
vt 0.989300 0.075838
vt 0.989797 0.075170
vt 0.990154 0.078252
vt 0.990672 0.075662
vt 0.990787 0.075422
vt 0.991076 0.075586
vt 0.990846 0.076128
vt 0.990450 0.075076
vt 0.989847 0.075076
vt 0.989957 0.075076
vt 0.990502 0.075076
vt 0.989915 0.075096
vt 0.989710 0.075082
vt 0.990391 0.075076
vt 0.990078 0.075076
vt 0.990254 0.075076
vt 0.990165 0.075076
vt 0.990002 0.075076
vt 0.989856 0.075076
vt 0.990565 0.075394
vt 0.990709 0.075477
vt 0.990695 0.075448
vt 0.990600 0.075100
vt 0.990481 0.075086
vt 0.990143 0.075083
vt 0.990108 0.075084
vt 0.989561 0.075214
vt 0.989852 0.075240
vt 0.990584 0.078258
vt 0.990141 0.075258
vt 0.989224 0.292388
vt 0.989443 0.292373
vt 0.990063 0.292381
vt 0.990630 0.292382
vt 0.990996 0.292380
vt 0.991273 0.292376
vt 0.990938 0.292397
vt 0.990771 0.292380
vt 0.990246 0.292411
vt 0.989655 0.318177
vt 0.989246 0.292377
vt 0.988965 0.292400
vn 0.709992 -0.553213 -0.435737
vn 0.709992 -0.553213 -0.435737
vn 0.709992 -0.553213 -0.435737
vn 0.709992 -0.553213 -0.435737
vn 0.043409 -0.534392 -0.844121
vn 0.043409 -0.534392 -0.844121
vn 0.043409 -0.534392 -0.844121
vn 0.043409 -0.534392 -0.844121
vn -0.000765 -0.474234 -0.880399
vn -0.000765 -0.474234 -0.880399
vn -0.000765 -0.474234 -0.880398
vn -0.000765 -0.474234 -0.880398
vn -0.749890 -0.619865 -0.231154
vn -0.749890 -0.619865 -0.231154
vn -0.749890 -0.619865 -0.231154
vn -0.749890 -0.619865 -0.231154
vn -0.586920 -0.612511 -0.529486
vn -0.586919 -0.612511 -0.529486
vn -0.586919 -0.612511 -0.529486
vn -0.586920 -0.612511 -0.529486
vn -0.694796 -0.535403 0.480210
vn -0.694796 -0.535403 0.480210
vn -0.694796 -0.535403 0.480210
vn -0.694796 -0.535403 0.480210
vn -0.601946 -0.702455 0.379759
vn -0.601946 -0.702455 0.379759
vn -0.601946 -0.702455 0.379759
vn -0.601946 -0.702455 0.379759
vn -0.131017 -0.566637 0.813484
vn -0.131017 -0.566637 0.813485
vn -0.131017 -0.566637 0.813485
vn -0.131017 -0.566637 0.813485
vn 0.113215 -0.547816 0.828903
vn 0.113215 -0.547816 0.828903
vn 0.113215 -0.547816 0.828903
vn 0.113215 -0.547816 0.828903
vn 0.631027 -0.651651 0.420898
vn 0.631027 -0.651651 0.420898
vn 0.631027 -0.651651 0.420898
vn 0.631027 -0.651651 0.420898
vn 0.724321 -0.510237 0.463700
vn 0.724321 -0.510237 0.463701
vn 0.724321 -0.510237 0.463700
vn 0.724321 -0.510237 0.463700
vn 0.744003 -0.492349 -0.451721
vn 0.744003 -0.492349 -0.451721
vn 0.744003 -0.492349 -0.451721
vn 0.744003 -0.492349 -0.451721
vn -0.092394 -0.857099 -0.506798
vn -0.092394 -0.857099 -0.506798
vn -0.092394 -0.857099 -0.506798
vn 0.428608 -0.860804 -0.274429
vn 0.428608 -0.860804 -0.274429
vn 0.428608 -0.860804 -0.274429
vn 0.428608 -0.860804 -0.274429
vn 0.370101 -0.835717 -0.405711
vn 0.370101 -0.835717 -0.405711
vn 0.370101 -0.835717 -0.405711
vn 0.370101 -0.835717 -0.405711
vn 0.127491 -0.890285 0.437193
vn 0.127491 -0.890285 0.437193
vn 0.127491 -0.890285 0.437193
vn 0.127491 -0.890285 0.437193
vn 0.299337 -0.914800 0.271181
vn 0.299337 -0.914800 0.271181
vn 0.299337 -0.914800 0.271181
vn 0.299337 -0.914800 0.271181
vn 0.397852 -0.744989 0.535449
vn 0.397852 -0.744989 0.535449
vn 0.397852 -0.744989 0.535449
vn 0.397852 -0.744989 0.535449
vn -0.435494 -0.757670 0.486087
vn -0.435494 -0.757670 0.486087
vn -0.435494 -0.757670 0.486087
vn -0.435494 -0.757670 0.486087
vn -0.364018 -0.882949 0.296466
vn -0.364018 -0.882949 0.296466
vn -0.364018 -0.882949 0.296466
vn -0.364018 -0.882949 0.296466
vn -0.471980 -0.678994 0.562318
vn -0.471980 -0.678994 0.562318
vn -0.471980 -0.678994 0.562318
vn -0.471981 -0.678994 0.562318
vn -0.661396 -0.358695 -0.658706
vn -0.661396 -0.358695 -0.658706
vn -0.661396 -0.358695 -0.658706
vn -0.661396 -0.358695 -0.658706
vn -0.916464 -0.323752 -0.235115
vn -0.916464 -0.323752 -0.235115
vn -0.916464 -0.323752 -0.235115
vn -0.916464 -0.323752 -0.235115
vn -0.024678 -0.582757 -0.812272
vn -0.024678 -0.582757 -0.812272
vn -0.024678 -0.582757 -0.812272
vn -0.024678 -0.582757 -0.812272
vn 0.168406 -0.618028 -0.767907
vn 0.168406 -0.618028 -0.767907
vn 0.168406 -0.618028 -0.767907
vn 0.168406 -0.618028 -0.767907
vn 0.860870 0.140421 -0.489065
vn 0.860870 0.140421 -0.489065
vn 0.860870 0.140421 -0.489065
vn 0.860870 0.140421 -0.489065
vn 0.797233 -0.499065 0.339638
vn 0.797233 -0.499065 0.339638
vn 0.797233 -0.499065 0.339638
vn 0.960531 -0.261730 0.094218
vn 0.960531 -0.261730 0.094219
vn 0.960531 -0.261730 0.094218
vn 0.960531 -0.261730 0.094219
vn 0.800810 -0.202671 0.563585
vn 0.800810 -0.202671 0.563585
vn 0.800810 -0.202671 0.563585
vn 0.800810 -0.202671 0.563585
vn 0.243845 -0.190639 0.950892
vn 0.243845 -0.190638 0.950892
vn 0.243845 -0.190638 0.950892
vn 0.243845 -0.190638 0.950892
vn -0.189396 -0.169774 0.967112
vn -0.189396 -0.169774 0.967112
vn -0.189396 -0.169774 0.967112
vn -0.189396 -0.169774 0.967112
vn -0.755352 -0.286432 0.589407
vn -0.755352 -0.286432 0.589407
vn -0.755352 -0.286432 0.589407
vn -0.816000 -0.261688 0.515425
vn -0.816000 -0.261688 0.515425
vn -0.816000 -0.261688 0.515425
vn -0.816000 -0.261688 0.515425
vn -0.741408 -0.208784 -0.637749
vn -0.741408 -0.208784 -0.637749
vn -0.741408 -0.208784 -0.637749
vn -0.741408 -0.208784 -0.637749
vn -0.921925 -0.212097 -0.324143
vn -0.921925 -0.212096 -0.324143
vn -0.921925 -0.212097 -0.324143
vn -0.921925 -0.212096 -0.324143
vn -0.082305 -0.246418 -0.965662
vn -0.082305 -0.246418 -0.965662
vn -0.082305 -0.246418 -0.965662
vn -0.082305 -0.246418 -0.965662
vn 0.028578 0.079204 -0.996449
vn 0.028578 0.079204 -0.996449
vn 0.028578 0.079204 -0.996449
vn 0.113956 -0.855180 -0.505649
vn 0.113956 -0.855180 -0.505649
vn 0.113956 -0.855180 -0.505649
vn 0.075906 -0.873729 0.480455
vn 0.075906 -0.873728 0.480455
vn 0.075906 -0.873729 0.480455
vn -0.248981 -0.873583 -0.418164
vn -0.248981 -0.873583 -0.418164
vn -0.248981 -0.873583 -0.418164
vn -0.150096 -0.922933 0.354493
vn -0.150096 -0.922933 0.354493
vn -0.150096 -0.922933 0.354493
vn -0.150096 -0.922933 0.354493
vn -0.411115 -0.894979 -0.173194
vn -0.411115 -0.894979 -0.173194
vn -0.411115 -0.894979 -0.173194
vn -0.287969 -0.910034 0.298181
vn -0.287969 -0.910034 0.298181
vn -0.287969 -0.910034 0.298181
vn 0.466446 -0.882046 0.066504
vn 0.466446 -0.882046 0.066504
vn 0.466446 -0.882046 0.066504
vn 0.383897 -0.869720 0.310179
vn 0.383897 -0.869720 0.310179
vn 0.383897 -0.869720 0.310179
vn 0.146606 -0.859462 -0.489726
vn 0.146606 -0.859462 -0.489726
vn 0.146606 -0.859462 -0.489726
vn 0.452737 -0.869535 0.197327
vn 0.452737 -0.869535 0.197327
vn 0.452737 -0.869535 0.197327
vn -0.409328 -0.910685 0.055703
vn -0.409328 -0.910685 0.055703
vn -0.409328 -0.910685 0.055703
vn -0.302154 -0.751642 0.586292
vn -0.302154 -0.751642 0.586292
vn -0.302154 -0.751642 0.586292
vn -0.789771 -0.339063 -0.511172
vn -0.789771 -0.339063 -0.511172
vn -0.789771 -0.339063 -0.511172
vn -0.789771 -0.339063 -0.511172
vn -0.870942 -0.381559 -0.309635
vn -0.870942 -0.381559 -0.309635
vn -0.870942 -0.381559 -0.309635
vn -0.870942 -0.381559 -0.309635
vn 0.129012 -0.821595 -0.555282
vn 0.129012 -0.821594 -0.555282
vn 0.129012 -0.821594 -0.555282
vn -0.537882 -0.656636 -0.528690
vn -0.537882 -0.656636 -0.528690
vn -0.537882 -0.656636 -0.528690
vn -0.537882 -0.656636 -0.528690
vn 0.067277 -0.986175 -0.151433
vn 0.067277 -0.986176 -0.151433
vn 0.067277 -0.986176 -0.151433
vn 0.067277 -0.986176 -0.151433
vn 0.532120 -0.659748 0.530641
vn 0.532120 -0.659748 0.530641
vn 0.532120 -0.659748 0.530641
vn 0.502574 -0.858808 -0.099343
vn 0.502574 -0.858808 -0.099343
vn 0.502574 -0.858808 -0.099343
vn 0.502574 -0.858808 -0.099343
vn 0.208851 -0.762078 0.612878
vn 0.208851 -0.762078 0.612878
vn 0.208851 -0.762078 0.612878
vn 0.615664 -0.679658 0.398777
vn 0.615664 -0.679658 0.398777
vn 0.615664 -0.679658 0.398777
vn 0.005202 -0.876246 0.481836
vn 0.005202 -0.876246 0.481836
vn 0.005202 -0.876246 0.481836
vn 0.488358 -0.668813 0.560531
vn 0.488358 -0.668813 0.560531
vn 0.488358 -0.668813 0.560531
vn 0.816126 -0.293978 -0.497509
vn 0.816126 -0.293978 -0.497508
vn 0.816126 -0.293978 -0.497508
vn 0.816126 -0.293978 -0.497509
vn 0.000704 -0.239980 -0.970778
vn 0.000704 -0.239980 -0.970778
vn 0.000704 -0.239980 -0.970778
vn 0.000704 -0.239980 -0.970778
vn -0.142519 -0.442228 -0.885507
vn -0.142519 -0.442228 -0.885507
vn -0.142519 -0.442228 -0.885507
vn -0.142519 -0.442228 -0.885507
vn -0.051801 -0.321796 0.945391
vn -0.051801 -0.321796 0.945391
vn -0.051801 -0.321796 0.945391
vn -0.051801 -0.321796 0.945391
vn 0.101072 -0.296085 0.949799
vn 0.101072 -0.296085 0.949799
vn 0.101072 -0.296085 0.949799
vn 0.101072 -0.296085 0.949799
vn 0.871702 -0.196973 0.448707
vn 0.871702 -0.196973 0.448707
vn 0.871702 -0.196973 0.448707
vn 0.654961 -0.676899 0.335907
vn 0.654961 -0.676899 0.335907
vn 0.654961 -0.676899 0.335907
vn 0.975014 -0.215242 0.054936
vn 0.975014 -0.215242 0.054936
vn 0.975014 -0.215242 0.054936
vn 0.975014 -0.215242 0.054936
vn 0.854280 -0.072886 -0.514677
vn 0.854280 -0.072886 -0.514677
vn 0.854280 -0.072886 -0.514677
vn 0.854280 -0.072886 -0.514677
vn 0.012089 -0.171238 -0.985156
vn 0.012089 -0.171238 -0.985156
vn 0.012089 -0.171238 -0.985156
vn 0.012089 -0.171238 -0.985156
vn 0.381601 -0.861487 -0.334993
vn 0.381601 -0.861487 -0.334993
vn 0.381601 -0.861487 -0.334993
vn 0.381601 -0.861487 -0.334993
vn -0.331653 -0.587342 -0.738265
vn -0.331653 -0.587342 -0.738265
vn -0.331653 -0.587342 -0.738265
vn 0.966935 0.109603 -0.230269
vn 0.966935 0.109603 -0.230269
vn 0.966935 0.109603 -0.230269
vn 0.723824 -0.363266 0.586614
vn 0.723824 -0.363266 0.586614
vn 0.723824 -0.363267 0.586614
vn 0.723824 -0.363267 0.586614
vn 0.955170 -0.294832 0.026925
vn 0.955170 -0.294832 0.026925
vn 0.955170 -0.294832 0.026925
vn 0.955170 -0.294832 0.026925
vn 0.948942 -0.252739 0.188763
vn 0.948942 -0.252739 0.188763
vn 0.948942 -0.252739 0.188763
vn 0.948942 -0.252739 0.188763
vn -0.924444 -0.341225 0.170203
vn -0.924444 -0.341225 0.170203
vn -0.924444 -0.341225 0.170203
vn -0.924444 -0.341225 0.170203
vn -0.138542 -0.982322 -0.125899
vn -0.138542 -0.982322 -0.125899
vn -0.138542 -0.982322 -0.125899
vn -0.138542 -0.982322 -0.125899
vn 0.222367 -0.971279 -0.084675
vn 0.222367 -0.971279 -0.084675
vn 0.222367 -0.971279 -0.084675
vn -0.941438 -0.204474 0.268115
vn -0.941438 -0.204474 0.268115
vn -0.941438 -0.204474 0.268115
vn -0.556159 -0.346479 0.755407
vn -0.556159 -0.346479 0.755407
vn -0.556159 -0.346479 0.755407
vn -0.556159 -0.346479 0.755407
vn -0.589508 -0.806285 0.048844
vn -0.589508 -0.806285 0.048844
vn -0.589507 -0.806285 0.048844
vn -0.931449 -0.203445 0.301684
vn -0.931449 -0.203445 0.301684
vn -0.931449 -0.203445 0.301684
vn -0.916174 -0.144719 0.373741
vn -0.916174 -0.144719 0.373741
vn -0.916174 -0.144719 0.373741
vn 0.000000 1.000000 0.000000
vn -0.000000 1.000000 0.000000
vn 0.000000 1.000000 0.000000
vn 0.000000 1.000000 0.000000
vn 0.000000 1.000000 -0.000000
vn -0.000000 1.000000 0.000000
vn 0.000000 1.000000 0.000000
vn -0.000000 1.000000 0.000000
vn 0.000000 1.000000 -0.000000
vn 0.000000 1.000000 -0.000000
vn -0.000000 1.000000 0.000000
vn -0.000000 1.000000 0.000000
vn -0.000000 1.000000 0.000000
vn -0.000000 1.000000 0.000000
vn -0.000000 1.000000 0.000000
vn -0.000000 1.000000 0.000000
vn -0.000000 1.000000 0.000000
vn -0.000000 1.000000 0.000000
vn -0.000000 1.000000 0.000000
vn -0.000000 1.000000 0.000000
vn 0.000000 1.000000 0.000000
vn -0.000000 1.000000 0.000000
vn 0.000000 1.000000 0.000000
vn 0.000000 1.000000 0.000000
vn 0.000000 1.000000 0.000000
vn 0.000000 1.000000 0.000000
vn 0.000000 1.000000 0.000000
vn 0.000000 1.000000 0.000000
vn 0.000000 1.000000 0.000000
vn 0.000000 1.000000 0.000000
s off
f 11/79/1 2/80/2 14/3/3 13/4/4
f 2/80/5 10/81/6 15/6/7 14/3/8
f 10/81/9 3/82/10 16/8/11 15/6/12
f 3/82/13 9/83/14 17/10/15 16/8/16
f 9/83/17 4/84/18 18/12/19 17/10/20
f 4/84/21 8/85/22 19/14/23 18/12/24
f 8/85/25 5/86/26 20/16/27 19/14/28
f 5/86/29 7/87/30 21/18/31 20/16/32
f 7/87/33 6/88/34 22/20/35 21/18/36
f 6/88/37 12/77/38 23/22/39 22/20/40
f 12/77/41 1/78/42 24/24/43 23/22/44
f 1/78/45 11/79/46 13/4/47 24/24/48
f 54/25/49 55/26/50 49/27/51
f 2/2/52 11/1/53 25/28/54 26/29/55
f 11/1/56 1/23/57 27/30/58 25/28/59
f 1/23/60 12/21/61 28/31/62 27/30/63
f 12/21/64 6/19/65 29/32/66 28/31/67
f 6/19/68 7/17/69 30/33/70 29/32/71
f 7/17/72 5/15/73 31/34/74 30/33/75
f 5/15/76 8/13/77 32/35/78 31/34/79
f 8/13/80 4/11/81 33/36/82 32/35/83
f 4/11/84 9/9/85 34/37/86 33/36/87
f 9/9/88 3/7/89 35/38/90 34/37/91
f 3/7/92 10/5/93 36/39/94 35/38/95
f 10/5/96 2/2/97 26/29/98 36/39/99
f 26/29/100 25/28/101 70/40/102 71/41/103
f 70/40/104 27/30/105 68/42/106
f 27/30/107 28/31/108 40/43/109 39/44/110
f 28/31/111 29/32/112 67/45/113 40/43/114
f 29/32/115 30/33/116 42/46/117 41/47/118
f 30/33/119 31/34/120 43/48/121 42/46/122
f 44/49/123 31/34/124 32/35/125
f 32/35/126 33/36/127 45/50/128 44/49/129
f 33/36/130 34/37/131 46/51/132 45/50/133
f 34/37/134 35/38/135 47/52/136 46/51/137
f 35/38/138 36/39/139 48/53/140 47/52/141
f 36/39/142 26/29/143 71/41/144
f 55/26/145 56/54/146 49/27/147
f 49/27/148 60/55/149 61/56/150
f 53/57/151 54/25/152 49/27/153
f 43/48/154 65/58/155 66/59/156 42/46/157
f 52/60/158 53/57/159 49/27/160
f 50/61/161 51/62/162 49/27/163
f 49/27/164 57/63/165 58/64/166
f 49/27/167 59/65/168 60/55/169
f 56/54/170 57/63/171 49/27/172
f 49/27/173 58/64/174 59/65/175
f 51/62/176 52/60/177 49/27/178
f 45/50/179 74/66/180 44/49/181
f 74/66/182 75/67/183 53/57/184 52/60/185
f 47/52/186 54/25/187 53/57/188 75/67/189
f 48/53/190 64/68/191 47/52/192
f 38/69/193 63/70/194 64/68/195 48/53/196
f 38/69/197 37/71/198 62/72/199 63/70/200
f 39/44/201 62/72/202 37/71/203
f 72/73/204 73/74/205 39/44/206 40/43/207
f 67/45/208 72/73/209 40/43/210
f 66/59/211 41/47/212 42/46/213
f 61/56/214 50/61/215 49/27/216
f 73/74/217 62/72/218 39/44/219
f 63/70/220 62/72/221 57/63/222 56/54/223
f 64/68/224 63/70/225 56/54/226 55/26/227
f 47/52/228 64/68/229 55/26/230 54/25/231
f 66/59/232 65/58/233 50/61/234 61/56/235
f 61/56/236 60/55/237 67/45/238 66/59/239
f 67/45/240 29/32/241 41/47/242
f 66/59/243 67/45/244 41/47/245
f 68/42/246 27/30/247 39/44/248 37/71/249
f 69/75/250 68/42/251 37/71/252 38/69/253
f 36/39/254 69/75/255 38/69/256 48/53/257
f 71/41/258 70/40/259 68/42/260 69/75/261
f 36/39/262 71/41/263 69/75/264
f 25/28/265 27/30/266 70/40/267
f 60/55/268 59/65/269 72/73/270 67/45/271
f 59/65/272 58/64/273 73/74/274 72/73/275
f 58/64/276 57/63/277 62/72/278 73/74/279
f 76/76/280 74/66/281 52/60/282 51/62/283
f 46/51/284 75/67/285 74/66/286 45/50/287
f 47/52/288 75/67/289 46/51/290
f 44/49/291 74/66/292 76/76/293
f 65/58/294 76/76/295 51/62/296 50/61/297
f 65/58/298 43/48/299 76/76/300
f 43/48/301 44/49/302 76/76/303
f 43/48/304 31/34/305 44/49/306
f 14/3/307 15/6/308 13/4/309
f 18/12/310 19/14/311 17/10/312
f 20/16/313 21/18/314 19/14/315
f 19/14/316 21/18/317 17/10/318
f 17/10/319 21/18/320 16/8/321
f 16/8/322 21/18/323 15/6/324
f 15/6/325 21/18/326 13/4/327
f 21/18/328 22/20/329 13/4/330
f 22/20/331 23/22/332 13/4/333
f 13/4/334 23/22/335 24/24/336
