# This file uses meters as units for non-parametric coordinates.

v -250.000000 -0.000000 250.000000
v 250.000000 -0.000000 250.000000
v -250.000000 0.000000 -250.000000
v 250.000000 0.000000 -250.000000
v 0.000000 356.022095 0.000000
v -82.020599 239.214752 82.020599
v 85.492668 234.272278 85.492676
v 84.961029 235.028915 -84.961060
v -81.532234 239.911224 -81.532257
v -3.089902 213.912109 99.790985
v 70.502533 255.618286 -1.508236
v -19.919186 218.976486 -96.232285
v -69.325127 257.296417 -0.273933
vt 0.328691 0.194969
vt 0.328691 0.194969
vt 0.328691 0.194969
vt 0.328691 0.194969
vt 0.328691 0.194969
vt 0.328691 0.194969
vt 0.328691 0.194969
vt 0.328691 0.194969
vt 0.124039 0.196772
vt 0.328691 0.194969
vt 0.328691 0.194969
vt 0.328691 0.194969
vt 0.328691 0.194969
vt 0.124039 0.196772
vt 0.124039 0.196772
vt 0.326493 0.194970
vt 0.124039 0.196772
vt 0.328691 0.194969
vt 0.124039 0.196772
vt 0.328691 0.194969
vt 0.124039 0.196772
vt 0.125139 0.194573
vt 0.125139 0.194573
vt 0.125139 0.194573
vt 0.125139 0.194573
vt 0.125139 0.194573
vt 0.125139 0.194573
vt 0.326493 0.194970
vt 0.326493 0.194970
vt 0.326493 0.194970
vt 0.326493 0.194970
vt 0.124039 0.196772
vt 0.326493 0.194970
vn 0.000000 -1.000000 -0.000000
vn 0.000000 -1.000000 -0.000000
vn 0.000000 -1.000000 -0.000000
vn 0.000000 -1.000000 -0.000000
vn 0.000000 -1.000000 -0.000000
vn 0.000000 -1.000000 -0.000000
vn -0.000017 0.574680 0.818378
vn -0.000001 0.574671 0.818385
vn -0.000002 0.574675 0.818382
vn 0.000005 0.574675 0.818381
vn -0.000002 0.574675 0.818382
vn 0.000001 0.574670 0.818385
vn -0.000001 0.574671 0.818385
vn 0.000001 0.574670 0.818385
vn -0.000002 0.574675 0.818382
vn 0.818383 0.574673 0.000000
vn 0.818383 0.574673 -0.000000
vn 0.818383 0.574673 -0.000001
vn 0.818383 0.574673 -0.000001
vn 0.818383 0.574673 -0.000000
vn 0.818382 0.574674 -0.000001
vn 0.000002 0.574670 -0.818385
vn -0.000000 0.574674 -0.818382
vn 0.000000 0.574676 -0.818381
vn -0.000005 0.574670 -0.818385
vn -0.000000 0.574676 -0.818381
vn -0.000000 0.574674 -0.818382
vn -0.000000 0.574676 -0.818381
vn 0.000000 0.574676 -0.818381
vn -0.000000 0.574674 -0.818382
vn -0.818382 0.574675 0.000000
vn -0.818382 0.574675 0.000000
vn -0.818382 0.574675 0.000000
vn -0.818382 0.574675 0.000000
vn -0.818382 0.574675 0.000000
vn -0.818380 0.574677 0.000004
vn -0.000017 0.574680 0.818378
vn 0.000005 0.574675 0.818381
vn -0.000007 0.574667 0.818388
vn 0.818383 0.574673 -0.000001
vn 0.818385 0.574670 -0.000001
vn 0.818389 0.574665 -0.000002
vn 0.818389 0.574665 -0.000002
vn 0.818385 0.574670 -0.000001
vn 0.818382 0.574674 -0.000001
vn -0.000005 0.574670 -0.818385
vn 0.000002 0.574670 -0.818385
vn -0.000002 0.574667 -0.818387
vn -0.818382 0.574675 0.000000
vn -0.818390 0.574663 0.000004
vn -0.818385 0.574670 0.000004
vn -0.818385 0.574670 0.000004
vn -0.818390 0.574663 0.000004
vn -0.818380 0.574677 0.000004
vn -0.000017 0.574680 0.818378
vn -0.000002 0.574675 0.818382
vn 0.000005 0.574675 0.818381
vn 0.818383 0.574673 -0.000001
vn 0.818382 0.574674 -0.000001
vn 0.818385 0.574670 -0.000001
vn -0.000005 0.574670 -0.818385
vn -0.000000 0.574674 -0.818382
vn 0.000002 0.574670 -0.818385
vn -0.818382 0.574675 0.000000
vn -0.818380 0.574677 0.000004
vn -0.818390 0.574663 0.000004
s off
f 1/5/1 3/8/2 2/6/3
f 2/6/4 3/8/5 4/7/6
f 6/10/7 1/1/8 10/18/9
f 7/11/10 10/18/11 2/2/12
f 1/1/13 2/2/14 10/18/15
f 2/2/16 4/4/17 7/11/18
f 7/11/19 4/4/20 8/12/21
f 9/13/22 12/20/23 3/3/24
f 8/12/25 4/4/26 12/20/27
f 4/4/28 3/3/29 12/20/30
f 3/3/31 1/1/32 9/13/33
f 9/13/34 1/1/35 6/10/36
f 6/9/37 7/14/38 5/15/39
f 7/14/40 11/19/41 5/15/42
f 5/15/43 11/19/44 8/32/45
f 8/32/46 9/17/47 5/15/48
f 9/17/49 13/21/50 5/15/51
f 5/15/52 13/21/53 6/9/54
f 6/22/55 10/23/56 7/24/57
f 7/33/58 8/16/59 11/31/60
f 8/25/61 12/26/62 9/27/63
f 9/30/64 6/29/65 13/28/66
