# This file uses meters as units for non-parametric coordinates.

v 288.728027 0.000000 -0.018328
v 144.379883 0.000000 -250.009155
v -144.348145 0.000000 -249.990845
v -288.700195 0.000000 0.015922
v -144.363770 0.000000 250.032043
v 144.348145 0.000000 249.990845
v -180.411377 0.000000 -187.445221
v -252.538086 0.000000 -62.518349
v -241.735107 -7.061005 -81.229553
v -191.214355 -7.061005 -168.733978
v 252.538086 0.000000 62.518196
v 180.411377 0.000000 187.445068
v 191.214355 -7.061005 168.733826
v 241.735107 -7.061005 81.229401
v 95.740234 -1.896966 135.279694
v 98.343018 -7.061005 111.992111
v -20.981689 -7.061005 -41.284332
v -12.545166 0.000000 -65.236168
v -98.413574 -7.061005 -126.335526
v -92.563232 -2.014530 -147.836609
v -193.070557 0.000000 -28.184776
v -165.731445 -7.061005 -49.070854
v -24.312256 0.926782 118.415451
v -30.762451 -7.061005 94.605713
v 158.686035 -7.061005 51.289330
v 160.734619 -1.490988 36.178093
v 59.670410 -7.061005 17.817688
v 76.057861 3.944266 -11.534748
v -241.735107 -20.859699 -81.229553
v -288.700195 -17.329197 0.015922
v -144.363770 -17.329197 250.032043
v 144.347900 -21.825504 249.990845
v 191.215332 -20.859699 168.733826
v 241.735107 -20.859699 81.229401
v 288.728027 -17.329197 -0.018328
v 144.379883 -17.329197 -250.009155
v -144.348145 -17.329197 -249.990845
v -191.214355 -20.859699 -168.733978
v 68.173096 -23.522987 -250.004272
v -60.656982 -12.821321 -249.996185
v 181.559570 -13.878794 -185.619354
v 267.479980 -11.777887 -36.816635
v 225.190186 -23.577538 -110.056992
v 52.435059 -23.861008 249.996643
v -89.041504 -12.074003 250.005646
v -252.538086 0.000000 62.518196
v -241.735107 -7.061005 81.229401
v -180.411377 0.000000 187.445068
v -191.214355 -7.061005 168.733826
v -181.333008 0.000000 6.310711
v -143.407227 -7.061005 16.721277
v -202.936279 -1.699086 41.093254
v -189.529297 -7.061005 59.897804
v -119.618652 -7.061005 123.540039
v -83.727051 -1.021859 137.048645
v -191.214355 -20.859699 168.733826
v -241.735107 -20.859699 81.229324
v -235.368164 3.820782 3.092065
v -76.296631 0.000000 250.022278
v 56.357666 0.000000 250.003357
v -80.876221 -1.550949 180.684204
v -47.339844 1.156014 179.850616
v 76.007080 0.240239 194.408569
v 9.566650 -1.709841 186.697998
v 32.472412 1.410702 217.189636
v 119.364746 -1.082076 191.035461
v -114.192383 3.312287 213.825531
v 224.141113 0.000000 -111.873474
v 267.221924 0.000000 -37.263718
v 71.268799 0.000000 -250.004578
v 118.535645 -2.787590 -163.288727
v 146.766602 4.495945 -60.196648
v 95.036377 -3.789287 -83.441391
v -58.371826 0.000000 -249.996338
v -48.220947 -2.195035 -184.161224
v 24.914795 4.701047 -132.828445
v 41.988525 0.273525 -181.296997
v 179.496582 0.000000 -189.191589
v -114.508301 1.621772 -185.828857
v -216.537842 -43.147278 -124.986343
v -288.728027 -43.147278 0.018209
v -144.379639 -43.147278 250.009155
v -0.015869 -43.147278 250.000000
v 144.359344 -43.147278 249.994431
v 216.537796 -43.147278 124.986191
v 288.728027 -43.147278 -0.021410
v 216.553711 -43.147278 -125.013733
v 144.379883 -43.147278 -250.009155
v 0.015869 -43.147278 -250.000000
v -144.347900 -43.147278 -249.990997
v -216.553711 -43.147278 125.013657
vt 0.896986 0.323488
vt 0.896986 0.323488
vt 0.896986 0.323488
vt 0.896986 0.323488
vt 0.896986 0.323488
vt 0.896986 0.323488
vt 0.896986 0.323488
vt 0.896986 0.323488
vt 0.896986 0.323488
vt 0.896986 0.323488
vt 0.896986 0.323488
vt 0.896986 0.323488
vt 0.896986 0.323488
vt 0.896986 0.323488
vt 0.896986 0.323488
vt 0.896986 0.323488
vt 0.896986 0.323488
vt 0.920096 0.311749
vt 0.920116 0.312215
vt 0.920106 0.312849
vt 0.896986 0.323488
vt 0.896986 0.323488
vt 0.896986 0.323488
vt 0.896986 0.323488
vt 0.920103 0.312871
vt 0.920099 0.312600
vt 0.920092 0.311770
vt 0.917918 0.333666
vt 0.917920 0.333871
vt 0.917917 0.333877
vt 0.917915 0.333672
vt 0.920114 0.311725
vt 0.920125 0.312825
vt 0.920121 0.312817
vt 0.920111 0.311717
vt 0.920123 0.312707
vt 0.896986 0.323488
vt 0.917920 0.333845
vt 0.920120 0.312679
vt 0.920102 0.312383
vt 0.917917 0.333790
vt 0.896986 0.323488
vt 0.920099 0.312431
vt 0.920098 0.311955
vt 0.917916 0.333710
vt 0.896986 0.323488
vt 0.920094 0.311965
vt 0.920115 0.311876
vt 0.896986 0.323488
vt 0.917919 0.333701
vt 0.920112 0.311904
vt 0.920120 0.312329
vt 0.896986 0.323488
vt 0.917919 0.333776
vt 0.920118 0.312289
vt 0.920105 0.312688
vt 0.917917 0.333847
vt 0.896986 0.323488
vt 0.920101 0.312688
vt 0.920103 0.312552
vt 0.917917 0.333822
vt 0.896986 0.323488
vt 0.920100 0.312566
vt 0.920103 0.312585
vt 0.917945 0.333918
vt 0.917948 0.333921
vt 0.920119 0.312598
vt 0.920122 0.312619
vt 0.920114 0.312216
vt 0.917908 0.334578
vt 0.917941 0.334645
vt 0.920107 0.312212
vt 0.920106 0.312209
vt 0.896986 0.323488
vt 0.920107 0.312275
vt 0.896986 0.323488
vt 0.896986 0.323488
vt 0.896986 0.323488
vt 0.920101 0.312028
vt 0.896986 0.323488
vt 0.917945 0.333793
vt 0.920121 0.312045
vt 0.917948 0.333796
vt 0.896986 0.323488
vt 0.896986 0.323488
vt 0.896986 0.323488
vt 0.896986 0.323488
vt 0.896986 0.323488
vt 0.920115 0.312280
vt 0.896986 0.323488
vt 0.917908 0.333543
vt 0.917941 0.333609
vt 0.896986 0.323488
vt 0.896986 0.323488
vt 0.896986 0.323488
vt 0.896986 0.323488
vt 0.896986 0.323488
vt 0.896986 0.323488
vt 0.896986 0.323488
vt 0.896986 0.323488
vt 0.920096 0.312347
vt 0.896986 0.323488
vt 0.920090 0.312259
vt 0.920116 0.311977
vt 0.896986 0.323488
vt 0.920088 0.312104
vt 0.920115 0.312010
vt 0.920093 0.312115
vt 0.917919 0.333721
vt 0.896986 0.323488
vt 0.920118 0.312418
vt 0.920114 0.312432
vt 0.896986 0.323488
vt 0.917944 0.333303
vt 0.917941 0.333701
vt 0.917946 0.334138
vt 0.917901 0.333827
vt 0.917908 0.333540
vt 0.917906 0.333275
vt 0.920117 0.312280
vt 0.920122 0.312331
vt 0.920114 0.312573
vt 0.920119 0.312554
vt 0.920090 0.312532
vt 0.920094 0.312558
vt 0.896986 0.323488
vt 0.896986 0.323488
vt 0.896986 0.323488
vt 0.896986 0.323488
vt 0.896986 0.323488
vt 0.896986 0.323488
vt 0.896986 0.323488
vt 0.896986 0.323488
vt 0.920116 0.312215
vt 0.920115 0.312280
vt 0.920114 0.312216
vt 0.917908 0.334578
vt 0.917908 0.333543
vt 0.917941 0.333609
vt 0.917941 0.334645
vt 0.920107 0.312212
vt 0.920107 0.312275
vt 0.920106 0.312209
vt 0.896986 0.323488
vt 0.896986 0.323488
vt 0.896986 0.323488
vt 0.896986 0.323488
vt 0.896986 0.323488
vt 0.896986 0.323488
vt 0.896986 0.323488
vt 0.896986 0.323488
vt 0.896986 0.323488
vt 0.896986 0.323488
vt 0.896986 0.323488
vt 0.896986 0.323488
vt 0.896986 0.323488
vt 0.896986 0.323488
vt 0.896986 0.323488
vt 0.896986 0.323488
vt 0.896986 0.323488
vt 0.896986 0.323488
vt 0.896986 0.323488
vt 0.896986 0.323488
vt 0.896986 0.323488
vt 0.896986 0.323488
vt 0.896986 0.323488
vt 0.896986 0.323488
vt 0.896986 0.323488
vt 0.896986 0.323488
vt 0.896986 0.323488
vt 0.896986 0.323488
vt 0.896986 0.323488
vt 0.989943 0.923703
vt 0.990296 0.923703
vt 0.990486 0.900177
vt 0.989943 0.900177
vt 0.988856 0.923703
vt 0.988856 0.923703
vt 0.988856 0.900177
vt 0.988856 0.900177
vt 0.989209 0.923703
vt 0.988856 0.923703
vt 0.988856 0.900177
vt 0.989399 0.900177
vt 0.989590 0.923703
vt 0.989943 0.923703
vt 0.989943 0.900177
vt 0.990103 0.923703
vt 0.990486 0.900177
vt 0.991030 0.923703
vt 0.991030 0.923703
vt 0.991030 0.900177
vt 0.991030 0.900177
vt 0.990676 0.923703
vt 0.991030 0.923703
vt 0.991030 0.900177
vt 0.991030 0.923703
vt 0.990750 0.923703
vt 0.990486 0.900177
vt 0.990421 0.923703
vt 0.988856 0.923703
vt 0.989209 0.923703
vt 0.989399 0.900177
vt 0.989590 0.923703
vn 0.866002 0.000004 -0.500041
vn 0.866002 0.000004 -0.500041
vn 0.866002 0.000004 -0.500041
vn 0.866002 0.000004 -0.500041
vn -0.865719 0.000345 -0.500530
vn -0.865719 0.000345 -0.500530
vn -0.865719 0.000345 -0.500530
vn -0.865719 0.000345 -0.500530
vn 0.000073 -0.000683 1.000000
vn 0.000073 -0.000683 1.000000
vn 0.000073 -0.000683 1.000000
vn 0.000073 -0.000683 1.000000
vn 0.865579 0.000502 0.500772
vn 0.865579 0.000502 0.500772
vn 0.865579 0.000502 0.500772
vn 0.865579 0.000502 0.500772
vn 0.026168 0.997962 0.058202
vn 0.026168 0.997962 0.058202
vn 0.026168 0.997962 0.058202
vn -0.101800 0.963418 0.247916
vn -0.101800 0.963418 0.247916
vn -0.101800 0.963418 0.247916
vn -0.101800 0.963418 0.247916
vn 0.039482 0.996877 -0.068385
vn 0.039482 0.996877 -0.068385
vn 0.039482 0.996877 -0.068385
vn 0.114753 0.965490 -0.233797
vn 0.114753 0.965490 -0.233797
vn 0.114753 0.965490 -0.233797
vn 0.114753 0.965490 -0.233797
vn 0.000000 1.000000 0.000000
vn 0.000000 1.000000 0.000000
vn 0.000000 1.000000 0.000000
vn 0.000000 1.000000 0.000000
vn -0.000063 -0.000003 -1.000000
vn -0.000063 -0.000003 -1.000000
vn -0.000063 -0.000003 -1.000000
vn -0.000063 -0.000003 -1.000000
vn 0.135060 0.962092 -0.236936
vn 0.135060 0.962092 -0.236936
vn 0.135060 0.962092 -0.236936
vn 0.135060 0.962092 -0.236936
vn -0.181411 0.953963 0.238841
vn -0.181411 0.953963 0.238841
vn -0.181411 0.953963 0.238841
vn -0.181411 0.953963 0.238841
vn -0.212928 0.958722 0.188451
vn -0.212928 0.958722 0.188451
vn -0.212928 0.958722 0.188451
vn -0.212928 0.958722 0.188451
vn 0.200539 0.977315 -0.068111
vn 0.200539 0.977315 -0.068111
vn 0.200539 0.977315 -0.068111
vn 0.200539 0.977315 -0.068111
vn 0.048324 0.960997 -0.272304
vn 0.048324 0.960997 -0.272304
vn 0.048324 0.960997 -0.272304
vn 0.048324 0.960997 -0.272304
vn -0.108288 0.944082 0.311422
vn -0.108288 0.944082 0.311422
vn -0.108288 0.944082 0.311422
vn -0.108288 0.944082 0.311422
vn -0.107990 0.945356 0.307636
vn -0.107990 0.945356 0.307636
vn -0.107990 0.945356 0.307636
vn -0.107990 0.945356 0.307636
vn 0.866270 0.000263 0.499577
vn 0.866270 0.000263 0.499577
vn 0.866269 0.000263 0.499577
vn 0.866270 0.000263 0.499577
vn 0.866035 0.000062 0.499984
vn 0.866035 0.000062 0.499984
vn 0.866035 0.000062 0.499984
vn 0.866027 0.000031 0.499997
vn 0.866027 0.000031 0.499997
vn 0.866027 0.000031 0.499997
vn 0.866027 0.000031 0.499997
vn 0.866024 0.000000 0.500002
vn 0.866024 0.000000 0.500002
vn 0.866024 0.000000 0.500002
vn -0.866276 0.000285 -0.499566
vn -0.866276 0.000285 -0.499566
vn -0.866276 0.000285 -0.499566
vn -0.866276 0.000285 -0.499566
vn -0.866025 0.000000 -0.500001
vn -0.866025 0.000000 -0.500001
vn -0.866025 0.000000 -0.500001
vn -0.866025 0.000000 -0.500000
vn -0.866025 0.000000 -0.500000
vn -0.866025 0.000000 -0.500000
vn -0.866025 0.000000 -0.500000
vn -0.866024 0.000000 -0.500002
vn -0.866024 0.000000 -0.500002
vn -0.866024 0.000000 -0.500002
vn -0.094356 0.962409 -0.254686
vn -0.094356 0.962409 -0.254686
vn -0.094356 0.962409 -0.254686
vn -0.094356 0.962409 -0.254686
vn 0.019441 0.999392 0.028944
vn 0.019441 0.999392 0.028944
vn 0.019441 0.999392 0.028944
vn 0.150101 0.976965 0.151690
vn 0.150101 0.976965 0.151690
vn 0.150101 0.976965 0.151690
vn 0.150101 0.976965 0.151690
vn 0.000000 1.000000 0.000000
vn 0.000000 1.000000 0.000000
vn 0.000000 1.000000 0.000000
vn 0.000000 1.000000 0.000000
vn 0.117999 0.962897 0.242704
vn 0.117999 0.962897 0.242704
vn 0.117999 0.962897 0.242704
vn 0.117999 0.962897 0.242704
vn -0.119402 0.968040 -0.220548
vn -0.119402 0.968040 -0.220548
vn -0.119402 0.968040 -0.220548
vn -0.119402 0.968040 -0.220548
vn -0.866484 0.000521 0.499205
vn -0.866484 0.000521 0.499205
vn -0.866484 0.000521 0.499205
vn -0.866484 0.000521 0.499204
vn -0.865621 0.000454 0.500699
vn -0.865621 0.000454 0.500699
vn -0.865621 0.000454 0.500699
vn -0.865621 0.000454 0.500699
vn -0.866024 -0.000003 0.500002
vn -0.866024 -0.000003 0.500002
vn -0.866024 -0.000003 0.500002
vn -0.866025 0.000000 0.500000
vn -0.866025 0.000000 0.500000
vn -0.866025 0.000000 0.500000
vn -0.866025 0.000000 0.500000
vn -0.866025 0.000000 0.500001
vn -0.866025 0.000000 0.500001
vn -0.866025 0.000000 0.500001
vn 0.070442 0.993951 0.084258
vn 0.070442 0.993951 0.084258
vn 0.070442 0.993951 0.084258
vn 0.064983 0.993917 0.088912
vn 0.064983 0.993917 0.088912
vn 0.064983 0.993917 0.088912
vn 0.071963 0.997107 -0.024486
vn 0.071963 0.997107 -0.024486
vn 0.071963 0.997107 -0.024486
vn -0.069108 0.996808 -0.039963
vn -0.069108 0.996808 -0.039963
vn -0.069108 0.996808 -0.039963
vn -0.073844 0.996354 0.042724
vn -0.073844 0.996354 0.042724
vn -0.073844 0.996354 0.042724
vn -0.023715 0.997556 -0.065723
vn -0.023715 0.997556 -0.065723
vn -0.023715 0.997556 -0.065723
vn 0.000323 -0.000706 1.000000
vn 0.000323 -0.000706 1.000000
vn 0.000323 -0.000706 1.000000
vn 0.000323 -0.000706 1.000000
vn 0.000103 -0.000156 1.000000
vn 0.000103 -0.000156 1.000000
vn 0.000103 -0.000156 1.000000
vn 0.000103 -0.000156 1.000000
vn -0.018130 0.999812 -0.006931
vn -0.018130 0.999812 -0.006931
vn -0.018130 0.999812 -0.006931
vn -0.080016 0.996643 0.017312
vn -0.080016 0.996643 0.017312
vn -0.080016 0.996643 0.017312
vn 0.115268 0.992887 -0.029822
vn 0.115268 0.992887 -0.029822
vn 0.115268 0.992887 -0.029822
vn -0.080863 0.996581 -0.016951
vn -0.080863 0.996581 -0.016951
vn -0.080863 0.996581 -0.016951
vn -0.019066 0.995973 -0.087606
vn -0.019066 0.995973 -0.087606
vn -0.019066 0.995973 -0.087606
vn 0.000001 0.999991 0.004321
vn 0.000001 0.999991 0.004321
vn 0.000001 0.999991 0.004321
vn -0.018343 0.999776 -0.010577
vn -0.018344 0.999776 -0.010577
vn -0.018343 0.999776 -0.010577
vn 0.048555 0.998716 0.014473
vn 0.048555 0.998716 0.014473
vn 0.048555 0.998716 0.014473
vn 0.046012 0.998312 0.035434
vn 0.046012 0.998312 0.035434
vn 0.046012 0.998312 0.035434
vn -0.035630 0.996530 -0.075220
vn -0.035630 0.996530 -0.075220
vn -0.035630 0.996530 -0.075220
vn -0.024187 0.998731 -0.044171
vn -0.024187 0.998731 -0.044171
vn -0.024187 0.998731 -0.044171
vn 0.000006 0.999077 0.042947
vn 0.000006 0.999077 0.042947
vn 0.000006 0.999077 0.042947
vn 0.035733 0.999218 0.016947
vn 0.035733 0.999218 0.016947
vn 0.035733 0.999218 0.016947
vn 0.028402 0.999242 -0.026639
vn 0.028402 0.999242 -0.026639
vn 0.028402 0.999242 -0.026639
vn 0.028118 0.999147 -0.030254
vn 0.028118 0.999147 -0.030254
vn 0.028118 0.999147 -0.030254
vn -0.064734 0.997206 0.037284
vn -0.064734 0.997206 0.037284
vn -0.064734 0.997206 0.037284
vn 0.000013 0.995840 0.091114
vn 0.000013 0.995841 0.091114
vn 0.000013 0.995840 0.091114
vn -0.038457 0.999096 -0.018143
vn -0.038457 0.999096 -0.018143
vn -0.038457 0.999095 -0.018143
vn 0.146782 0.989166 0.002404
vn 0.146782 0.989166 0.002404
vn 0.146782 0.989166 0.002404
vn 0.000002 0.999484 0.032129
vn 0.000002 0.999484 0.032129
vn 0.000002 0.999484 0.032129
vn 0.866002 0.000013 -0.500040
vn 0.866002 0.000013 -0.500040
vn 0.866002 0.000013 -0.500040
vn 0.866002 0.000013 -0.500040
vn -0.036686 0.999102 0.021183
vn -0.036686 0.999102 0.021183
vn -0.036686 0.999102 0.021183
vn -0.015581 0.999876 -0.002293
vn -0.015581 0.999876 -0.002293
vn -0.015581 0.999876 -0.002293
vn 0.866000 -0.000003 -0.500044
vn 0.866000 -0.000003 -0.500044
vn 0.866000 -0.000003 -0.500044
vn 0.866000 -0.000003 -0.500044
vn 0.000000 1.000000 0.000000
vn 0.000000 1.000000 0.000000
vn 0.000000 1.000000 0.000000
vn -0.000063 -0.000003 -1.000000
vn -0.000063 -0.000003 -1.000000
vn -0.000063 -0.000003 -1.000000
vn -0.000063 -0.000003 -1.000000
vn -0.102480 0.994658 0.012384
vn -0.102480 0.994658 0.012384
vn -0.102480 0.994658 0.012384
vn -0.098610 0.986319 -0.132105
vn -0.098610 0.986319 -0.132105
vn -0.098610 0.986319 -0.132105
vn 0.041885 0.998830 -0.024185
vn 0.041885 0.998830 -0.024185
vn 0.041885 0.998830 -0.024185
vn 0.009207 0.997291 -0.072981
vn 0.009207 0.997291 -0.072981
vn 0.009207 0.997291 -0.072981
vn 0.031712 0.997848 0.057392
vn 0.031712 0.997848 0.057392
vn 0.031712 0.997848 0.057392
vn -0.144823 0.988996 -0.030215
vn -0.144823 0.988996 -0.030215
vn -0.144823 0.988996 -0.030215
vn -0.026862 0.999520 -0.015426
vn -0.026862 0.999520 -0.015426
vn -0.026862 0.999520 -0.015426
vn -0.000064 -0.000000 -1.000000
vn -0.000064 -0.000000 -1.000000
vn -0.000064 -0.000000 -1.000000
vn -0.000064 -0.000000 -1.000000
vn 0.000002 0.999445 0.033323
vn 0.000002 0.999445 0.033323
vn 0.000002 0.999445 0.033323
vn 0.055786 0.996444 0.063148
vn 0.055786 0.996444 0.063148
vn 0.055786 0.996444 0.063148
vn 0.017722 0.994597 -0.102291
vn 0.017722 0.994597 -0.102291
vn 0.017722 0.994597 -0.102291
vn -0.024067 0.994762 -0.099348
vn -0.024067 0.994762 -0.099348
vn -0.024067 0.994762 -0.099348
vn 0.000002 0.999445 0.033323
vn 0.000002 0.999445 0.033323
vn 0.000002 0.999445 0.033323
vn -0.008868 0.999836 -0.015794
vn -0.008868 0.999836 -0.015794
vn -0.008868 0.999836 -0.015794
vn 0.051538 0.993882 0.097687
vn 0.051538 0.993882 0.097687
vn 0.051538 0.993882 0.097687
vn 0.092501 0.994921 0.039705
vn 0.092501 0.994921 0.039705
vn 0.092501 0.994921 0.039705
vn 0.058722 0.996893 -0.052507
vn 0.058722 0.996893 -0.052507
vn 0.058722 0.996893 -0.052507
vn 0.056541 0.995869 -0.071054
vn 0.056541 0.995869 -0.071054
vn 0.056541 0.995869 -0.071054
vn 0.037169 0.999239 0.011862
vn 0.037169 0.999239 0.011862
vn 0.037169 0.999239 0.011862
vn 0.866002 0.000009 -0.500041
vn 0.866002 0.000009 -0.500041
vn 0.866002 0.000009 -0.500041
vn 0.866002 0.000009 -0.500041
vn -0.036686 0.999102 0.021183
vn -0.036686 0.999102 0.021183
vn -0.036686 0.999102 0.021183
vn -0.024256 0.999608 -0.013986
vn -0.024256 0.999608 -0.013986
vn -0.024256 0.999608 -0.013986
vn -0.027165 0.993474 0.110778
vn -0.027165 0.993474 0.110778
vn -0.027165 0.993474 0.110778
vn 0.000000 1.000000 0.000000
vn 0.000000 1.000000 0.000000
vn 0.000000 1.000000 0.000000
vn 0.000000 1.000000 0.000000
vn 0.000000 1.000000 0.000000
vn 0.000000 1.000000 0.000000
vn 0.000000 1.000000 0.000000
vn 0.000000 1.000000 0.000000
vn 0.000000 1.000000 0.000000
vn 0.000000 1.000000 0.000000
vn 0.000000 1.000000 0.000000
vn 0.000000 1.000000 0.000000
vn 0.000000 1.000000 -0.000000
vn 0.000000 1.000000 -0.000000
vn 0.000000 1.000000 -0.000000
vn 0.000000 1.000000 0.000000
vn 0.000000 1.000000 0.000000
vn 0.000000 1.000000 0.000000
vn 0.000000 1.000000 0.000000
vn 0.000000 1.000000 0.000000
vn 0.000000 1.000000 0.000000
vn 0.000000 1.000000 0.000000
vn -0.865869 0.001984 -0.500266
vn -0.865869 0.001984 -0.500266
vn -0.865869 0.001984 -0.500266
vn -0.865869 0.001984 -0.500266
vn 0.000184 -0.000214 1.000000
vn 0.000184 -0.000214 1.000000
vn 0.000184 -0.000214 1.000000
vn 0.000184 -0.000214 1.000000
vn 0.866096 0.001721 0.499875
vn 0.866096 0.001721 0.499875
vn 0.866096 0.001721 0.499875
vn 0.866096 0.001721 0.499875
vn 0.866027 0.002534 0.499991
vn 0.866027 0.002534 0.499991
vn 0.866027 0.002534 0.499992
vn 0.865828 0.001563 0.500339
vn 0.865828 0.001563 0.500339
vn 0.865828 0.001563 0.500339
vn 0.865828 0.001563 0.500339
vn 0.865997 0.000043 -0.500049
vn 0.865997 0.000043 -0.500049
vn 0.865997 0.000043 -0.500049
vn 0.865997 0.000043 -0.500049
vn -0.000064 0.000002 -1.000000
vn -0.000064 0.000002 -1.000000
vn -0.000064 0.000002 -1.000000
vn -0.000064 0.000002 -1.000000
vn -0.866087 0.001313 -0.499891
vn -0.866087 0.001313 -0.499891
vn -0.866087 0.001313 -0.499891
vn -0.866087 0.001313 -0.499891
vn -0.866022 0.002555 -0.499999
vn -0.866022 0.002555 -0.499999
vn -0.866022 0.002555 -0.499999
vn -0.000063 0.000000 -1.000000
vn -0.000063 0.000000 -1.000000
vn -0.000063 0.000000 -1.000000
vn -0.000063 0.000003 -1.000000
vn -0.000063 0.000003 -1.000000
vn -0.000063 0.000003 -1.000000
vn -0.000063 0.000003 -1.000000
vn 0.866002 -0.000005 -0.500041
vn 0.866002 -0.000005 -0.500041
vn 0.866002 -0.000005 -0.500041
vn 0.866002 -0.000005 -0.500041
vn 0.866004 -0.000015 -0.500038
vn 0.866004 -0.000015 -0.500038
vn 0.866004 -0.000015 -0.500038
vn 0.866002 -0.000011 -0.500041
vn 0.866002 -0.000011 -0.500041
vn 0.866002 -0.000011 -0.500041
vn 0.000047 0.000110 1.000000
vn 0.000047 0.000110 1.000000
vn 0.000047 0.000110 1.000000
vn 0.000047 0.000110 1.000000
vn 0.000064 0.000001 1.000000
vn 0.000064 0.000001 1.000000
vn 0.000064 0.000001 1.000000
vn -0.866183 0.002138 0.499722
vn -0.866183 0.002138 0.499722
vn -0.866183 0.002138 0.499722
vn -0.866183 0.002138 0.499722
vn -0.865849 0.002644 0.500299
vn -0.865849 0.002644 0.500299
vn -0.865849 0.002644 0.500299
vn -0.865849 0.002644 0.500299
vn -0.866019 0.003788 0.499996
vn -0.866019 0.003788 0.499996
vn -0.866019 0.003788 0.499996
s off
f 43/97/1 68/157/2 69/159/3 42/96/4
f 8/17/5 29/74/6 30/76/7 4/4/8
f 59/146/9 45/99/10 44/98/11 60/148/12
f 11/22/13 34/84/14 35/85/15 1/7/16
f 69/158/17 72/163/18 26/58/19
f 10/18/20 19/44/21 20/47/22 7/27/23
f 8/16/24 58/144/25 21/49/26
f 8/32/27 21/48/28 22/51/29 9/35/30
f 9/28/31 22/50/32 19/45/33 10/31/34
f 2/2/35 36/87/36 39/93/37 70/161/38
f 16/39/39 15/36/40 12/33/41 13/34/42
f 18/43/43 17/40/44 27/60/45 28/63/46
f 20/47/47 19/44/48 17/40/49 18/43/50
f 22/51/51 21/48/52 50/104/53 51/107/54
f 24/55/55 23/52/56 15/36/57 16/39/58
f 26/59/59 25/56/60 14/20/61 11/25/62
f 28/63/63 27/60/64 25/56/65 26/59/66
f 32/78/67 33/80/68 12/24/69 6/6/70
f 12/26/71 33/79/72 13/64/73
f 13/65/74 33/81/75 34/83/76 14/66/77
f 14/67/78 34/82/79 11/68/80
f 37/88/81 38/90/82 7/15/83 3/3/84
f 7/19/85 38/89/86 10/69/87
f 10/70/88 38/91/89 29/92/90 9/71/91
f 9/72/92 29/75/93 8/73/94
f 54/101/95 55/103/96 23/106/97 24/108/98
f 23/53/99 64/152/100 15/37/101
f 52/111/102 53/112/103 51/120/104 50/121/105
f 49/114/106 54/115/107 53/118/108 47/119/109
f 47/122/110 53/112/111 52/111/112 46/123/113
f 48/124/114 55/103/115 54/101/116 49/125/117
f 48/126/118 56/127/119 31/128/120 5/129/121
f 30/130/122 57/131/123 46/132/124 4/133/125
f 46/134/126 57/135/127 47/136/128
f 47/137/129 57/138/130 56/139/131 49/140/132
f 49/141/133 56/142/134 48/143/135
f 46/100/136 52/110/137 58/144/138
f 58/144/139 52/110/140 50/105/141
f 21/49/142 58/144/143 50/105/144
f 4/9/145 58/144/146 8/16/147
f 46/100/148 58/144/149 4/9/150
f 48/102/151 67/155/152 55/113/153
f 5/5/154 31/77/155 45/99/156 59/146/157
f 60/148/158 44/98/159 32/78/160 6/6/161
f 15/37/162 66/154/163 12/23/164
f 55/113/165 61/149/166 62/150/167
f 67/155/168 59/145/169 61/149/170
f 62/150/171 61/149/172 59/145/173
f 63/151/174 64/152/175 65/153/176
f 6/13/177 63/151/178 60/147/179
f 12/23/180 66/154/181 6/13/182
f 23/53/183 62/150/184 64/152/185
f 59/145/186 64/152/187 62/150/188
f 59/145/189 65/153/190 64/152/191
f 15/37/192 64/152/193 63/151/194
f 60/147/195 65/153/196 59/145/197
f 63/151/198 65/153/199 60/147/200
f 15/37/201 63/151/202 66/154/203
f 6/13/204 66/154/205 63/151/206
f 5/8/207 67/155/208 48/102/209
f 5/8/210 59/145/211 67/155/212
f 55/113/213 62/150/214 23/53/215
f 55/113/216 67/155/217 61/149/218
f 70/160/219 71/162/220 2/11/221
f 41/95/222 78/171/223 68/157/224 43/97/225
f 78/170/226 71/162/227 68/156/228
f 69/158/229 26/58/230 11/21/231
f 42/96/232 69/159/233 1/1/234 35/86/235
f 69/158/236 11/21/237 1/12/238
f 70/161/239 39/93/240 40/94/241 74/166/242
f 75/167/243 18/42/244 76/168/245
f 72/163/246 73/164/247 28/62/248
f 68/156/249 72/163/250 69/158/251
f 68/156/252 71/162/253 72/163/254
f 26/58/255 72/163/256 28/62/257
f 72/163/258 71/162/259 73/164/260
f 70/160/261 75/167/262 77/169/263
f 74/166/264 40/94/265 37/88/266 3/3/267
f 3/10/268 75/167/269 74/165/270
f 79/172/271 20/46/272 75/167/273
f 73/164/274 18/42/275 28/62/276
f 76/168/277 77/169/278 75/167/279
f 74/165/280 75/167/281 70/160/282
f 75/167/283 20/46/284 18/42/285
f 76/168/286 18/42/287 73/164/288
f 71/162/289 76/168/290 73/164/291
f 3/10/292 79/172/293 75/167/294
f 71/162/295 77/169/296 76/168/297
f 70/160/298 77/169/299 71/162/300
f 2/2/301 78/171/302 41/95/303 36/87/304
f 2/11/305 71/162/306 78/170/307
f 7/14/308 79/172/309 3/10/310
f 7/14/311 20/46/312 79/172/313
f 25/57/314 16/38/315 13/29/316 14/30/317
f 19/45/318 22/50/319 51/109/320 17/41/321
f 53/118/322 54/115/323 24/116/324 51/117/325
f 17/41/326 51/109/327 24/54/328
f 17/41/329 24/54/330 27/61/331
f 27/61/332 24/54/333 16/38/334 25/57/335
f 30/173/336 29/174/337 80/175/338 81/176/339
f 45/177/340 31/178/341 82/179/342 83/180/343
f 33/181/344 32/182/345 84/183/346 85/184/347
f 34/185/348 33/181/349 85/184/350
f 35/186/351 34/185/352 85/184/353 86/187/354
f 42/188/355 35/186/356 86/187/357 87/189/358
f 39/190/359 36/191/360 88/192/361 89/193/362
f 38/194/363 37/195/364 90/196/365 80/175/366
f 29/174/367 38/194/368 80/175/369
f 40/197/370 39/190/371 89/193/372
f 37/195/373 40/197/374 89/193/375 90/196/376
f 36/191/377 41/198/378 87/199/379 88/192/380
f 43/200/381 42/188/382 87/189/383
f 41/198/384 43/200/385 87/189/386
f 32/182/387 44/201/388 83/180/389 84/183/390
f 44/201/391 45/177/392 83/180/393
f 31/178/394 56/202/395 91/203/396 82/179/397
f 57/204/398 30/173/399 81/176/400 91/203/401
f 56/202/402 57/204/403 91/203/404
