# This file uses meters as units for non-parametric coordinates.

v -235.029404 40.528961 -14.174294
v -235.029404 40.528961 -154.960602
v -235.029404 0.000000 -14.174294
v -235.029404 0.000000 -154.960602
v 237.524216 0.000000 -14.174294
v 237.524216 0.000000 -154.960602
v 237.524216 40.528961 -14.174294
v 237.524216 40.528961 -154.960602
v -183.706757 107.144501 121.745888
v -183.706757 122.286743 -121.373650
v -186.548416 44.492325 125.042252
v -186.548416 55.202438 -124.670006
v 139.123535 44.492325 102.345825
v 139.123535 55.202438 -101.973572
v 134.782593 149.502655 99.648682
v 134.782593 164.644897 -99.276443
v 155.164398 163.869995 -82.446350
v 155.164398 162.481583 42.695938
v 158.460754 101.217804 -84.143112
v 158.460754 95.397255 44.392693
v 123.937370 81.385742 -84.143112
v 123.937370 75.565193 44.392693
v 127.233727 160.269943 -82.446350
v 127.233727 158.881500 42.695938
v 149.547318 40.528961 236.276810
v -26.833237 40.528961 236.276810
v 149.547318 0.000000 236.276810
v -26.833237 0.000000 236.276810
v 149.547318 0.000000 -236.276810
v -26.833237 0.000000 -236.276810
v 149.547318 40.528961 -236.276810
v -26.833237 40.528961 -236.276810
v 202.707626 51.755737 202.707626
v -202.707626 65.266449 202.707626
v 215.977173 0.000000 215.977173
v -215.977173 0.000000 215.977173
v 215.977173 0.000000 -215.977173
v -215.977173 0.000000 -215.977173
v 202.707626 51.755737 -202.707626
v -202.707626 65.266449 -202.707626
v 166.912933 97.040016 166.912933
v -166.912933 148.659103 166.912933
v 177.839310 36.586716 177.839310
v -177.839310 60.109688 177.839310
v 177.839310 36.586716 -177.839310
v -177.839310 60.109688 -177.839310
v 166.912933 116.935814 -166.912933
v -166.912933 168.554901 -166.912933
v 135.576645 193.618881 135.576645
v -135.576645 167.133881 135.576645
v 144.451691 101.405701 144.451691
v -144.451691 101.405701 144.451691
v 144.451691 101.405701 -144.451691
v -144.451691 101.405701 -144.451691
v 135.576645 209.850891 -135.576645
v -135.576645 183.365891 -135.576645
v 106.569687 255.046875 106.569687
v -106.569687 232.588654 106.569687
v 113.545868 162.854050 113.545868
v -113.545868 164.616074 113.545868
v 113.545868 162.854050 -113.545868
v -113.545868 164.616074 -113.545868
v 106.569687 261.235901 -106.569687
v -106.569687 238.777679 -106.569687
v 71.488037 278.776062 71.235580
v -70.983238 291.906158 71.235580
v 76.151169 231.145279 75.898788
v -75.646423 232.128815 75.898788
v 76.151169 231.145279 -75.898788
v -75.646423 232.128815 -75.898788
v 71.488037 299.413635 -71.235580
v -70.983238 312.543762 -71.235580
v 98.394112 87.735764 183.730972
v -144.725433 102.878006 183.730972
v 101.690475 25.083595 187.027328
v -148.021790 35.793716 187.027328
v 101.690475 25.083595 -186.655106
v -148.021790 35.793716 -186.655106
v 98.394112 103.967789 -183.358780
v -144.725433 119.110001 -183.358780
vt 0.931292 0.322835
vt 0.931292 0.322835
vt 0.931292 0.322835
vt 0.931292 0.322835
vt 0.931292 0.322835
vt 0.931292 0.322835
vt 0.931292 0.322835
vt 0.931292 0.322835
vt 0.931292 0.322835
vt 0.931292 0.322835
vt 0.931292 0.322835
vt 0.931292 0.322835
vt 0.931292 0.322835
vt 0.931292 0.322835
vt 0.931785 0.336593
vt 0.931785 0.336593
vt 0.931785 0.336593
vt 0.931785 0.336593
vt 0.931785 0.336593
vt 0.931785 0.336593
vt 0.931785 0.336593
vt 0.931785 0.336593
vt 0.931785 0.336593
vt 0.931785 0.336593
vt 0.931785 0.336593
vt 0.931785 0.336593
vt 0.931785 0.336593
vt 0.931785 0.336593
vt 0.931785 0.336593
vt 0.931785 0.336593
vt 0.931785 0.336593
vt 0.931785 0.336593
vt 0.931785 0.336593
vt 0.931785 0.336593
vt 0.931785 0.336593
vt 0.931785 0.336593
vt 0.931785 0.336593
vt 0.931785 0.336593
vt 0.931785 0.336593
vt 0.931785 0.336593
vt 0.931292 0.322835
vt 0.931292 0.322835
vt 0.931292 0.322835
vt 0.931292 0.322835
vt 0.931292 0.322835
vt 0.931292 0.322835
vt 0.931292 0.322835
vt 0.931292 0.322835
vt 0.931292 0.322835
vt 0.931292 0.322835
vt 0.931292 0.322835
vt 0.931292 0.322835
vt 0.931292 0.322835
vt 0.931292 0.322835
vt 0.931778 0.334282
vt 0.931778 0.334282
vt 0.931778 0.334282
vt 0.931778 0.334282
vt 0.931778 0.334282
vt 0.931778 0.334282
vt 0.931778 0.334282
vt 0.931778 0.334282
vt 0.931778 0.334282
vt 0.931778 0.334282
vt 0.931778 0.334282
vt 0.931778 0.334282
vt 0.931778 0.334282
vt 0.931778 0.334282
vt 0.931785 0.322881
vt 0.931785 0.322881
vt 0.931785 0.322881
vt 0.931785 0.322881
vt 0.931785 0.322881
vt 0.931785 0.322881
vt 0.931785 0.322881
vt 0.931785 0.322881
vt 0.931785 0.322881
vt 0.931785 0.322881
vt 0.931785 0.322881
vt 0.931785 0.322881
vt 0.931785 0.322881
vt 0.931785 0.322881
vt 0.931785 0.336593
vt 0.931785 0.336593
vt 0.931785 0.336593
vt 0.931785 0.336593
vt 0.931785 0.336593
vt 0.931785 0.336593
vt 0.931785 0.336593
vt 0.931785 0.336593
vt 0.931785 0.336593
vt 0.931785 0.336593
vt 0.931785 0.336593
vt 0.931785 0.336593
vt 0.931785 0.336593
vt 0.931785 0.336593
vt 0.931785 0.322881
vt 0.931785 0.322881
vt 0.931785 0.322881
vt 0.931785 0.322881
vt 0.931785 0.322881
vt 0.931785 0.322881
vt 0.931785 0.322881
vt 0.931785 0.322881
vt 0.931785 0.322881
vt 0.931785 0.322881
vt 0.931785 0.322881
vt 0.931785 0.322881
vt 0.931785 0.322881
vt 0.931785 0.322881
vt 0.931770 0.310882
vt 0.931770 0.310882
vt 0.931770 0.310882
vt 0.931770 0.310882
vt 0.931770 0.310882
vt 0.931770 0.310882
vt 0.931770 0.310882
vt 0.931770 0.310882
vt 0.931770 0.310882
vt 0.931770 0.310882
vt 0.931770 0.310882
vt 0.931770 0.310882
vt 0.931770 0.310882
vt 0.931770 0.310882
vt 0.931785 0.336593
vt 0.931785 0.336593
vt 0.931785 0.336593
vt 0.931785 0.336593
vt 0.931785 0.336593
vt 0.931785 0.336593
vt 0.931785 0.336593
vt 0.931785 0.336593
vt 0.931785 0.336593
vt 0.931785 0.336593
vt 0.931785 0.336593
vt 0.931785 0.336593
vt 0.931785 0.336593
vt 0.931785 0.336593
vn -1.000000 0.000000 0.000000
vn -1.000000 0.000000 0.000000
vn -1.000000 0.000000 0.000000
vn -1.000000 0.000000 0.000000
vn 1.000000 0.000000 0.000000
vn 1.000000 0.000000 0.000000
vn 1.000000 0.000000 0.000000
vn 1.000000 0.000000 0.000000
vn 0.000000 1.000000 0.000000
vn 0.000000 1.000000 0.000000
vn 0.000000 1.000000 0.000000
vn 0.000000 1.000000 0.000000
vn 0.000000 0.000000 -1.000000
vn 0.000000 0.000000 -1.000000
vn 0.000000 0.000000 -1.000000
vn 0.000000 0.000000 -1.000000
vn 0.000000 0.000000 1.000000
vn 0.000000 0.000000 1.000000
vn 0.000000 0.000000 1.000000
vn 0.000000 0.000000 1.000000
vn -0.999039 0.043764 0.002296
vn -0.999039 0.043764 0.002296
vn -0.999039 0.043764 0.002296
vn -0.999039 0.043764 0.002296
vn 0.999178 0.040451 0.002593
vn 0.999178 0.040451 0.002593
vn 0.999178 0.040451 0.002593
vn 0.999178 0.040451 0.002593
vn -0.131533 0.988994 0.067756
vn -0.131533 0.988993 0.067756
vn -0.131533 0.988993 0.067756
vn -0.131533 0.988994 0.067756
vn 0.067076 0.034425 -0.997154
vn 0.067076 0.034425 -0.997154
vn 0.067076 0.034425 -0.997154
vn 0.067076 0.034425 -0.997154
vn 0.066953 0.036242 0.997098
vn 0.066953 0.036242 0.997098
vn 0.066953 0.036242 0.997098
vn 0.066953 0.036242 0.997098
vn 0.998710 0.050751 0.001442
vn 0.998710 0.050751 0.001442
vn 0.998710 0.050751 0.001442
vn 0.998710 0.050751 0.001442
vn -0.127828 0.991735 0.011003
vn -0.127828 0.991735 0.011003
vn -0.127828 0.991735 0.011003
vn -0.127828 0.991735 0.011003
vn -0.008463 0.022557 0.999710
vn -0.008463 0.022557 0.999710
vn -0.008463 0.022557 0.999710
vn -0.008463 0.022557 0.999710
vn -0.008993 0.023968 -0.999672
vn -0.008993 0.023968 -0.999672
vn -0.008993 0.023968 -0.999672
vn -0.008993 0.023968 -0.999672
vn 0.000000 0.000000 1.000000
vn 0.000000 0.000000 1.000000
vn 0.000000 0.000000 1.000000
vn 0.000000 0.000000 1.000000
vn 0.000000 0.000000 -1.000000
vn 0.000000 0.000000 -1.000000
vn 0.000000 0.000000 -1.000000
vn 0.000000 0.000000 -1.000000
vn 0.000000 1.000000 0.000000
vn 0.000000 1.000000 0.000000
vn 0.000000 1.000000 0.000000
vn 0.000000 1.000000 0.000000
vn -1.000000 0.000000 0.000000
vn -1.000000 0.000000 0.000000
vn -1.000000 0.000000 0.000000
vn -1.000000 0.000000 0.000000
vn 1.000000 0.000000 0.000000
vn 1.000000 0.000000 0.000000
vn 1.000000 0.000000 0.000000
vn 1.000000 0.000000 0.000000
vn 0.003568 0.221169 0.975229
vn 0.003568 0.221169 0.975229
vn 0.003568 0.221169 0.975229
vn 0.003568 0.221169 0.975229
vn 0.003568 0.221169 -0.975229
vn 0.003568 0.221169 -0.975229
vn 0.003568 0.221169 -0.975229
vn 0.003568 0.221169 -0.975229
vn 0.033307 0.999445 0.000000
vn 0.033307 0.999445 0.000000
vn 0.033307 0.999445 0.000000
vn 0.033307 0.999445 0.000000
vn -0.979951 0.199237 0.000000
vn -0.979951 0.199237 0.000000
vn -0.979951 0.199237 0.000000
vn -0.979951 0.199237 0.000000
vn 0.968669 0.248355 0.000000
vn 0.968669 0.248355 0.000000
vn 0.968669 0.248355 0.000000
vn 0.968669 0.248355 0.000000
vn 0.015812 0.145090 0.989292
vn 0.015812 0.145090 0.989292
vn 0.015812 0.145090 0.989292
vn 0.015812 0.145090 0.989292
vn 0.012530 0.114972 -0.993290
vn 0.012530 0.114972 -0.993290
vn 0.012530 0.114972 -0.993290
vn 0.012530 0.114972 -0.993290
vn 0.152548 0.986545 0.058797
vn 0.152548 0.986545 0.058797
vn 0.152548 0.986545 0.058797
vn 0.152548 0.986545 0.058797
vn -0.993898 0.110254 0.003181
vn -0.993898 0.110254 0.003181
vn -0.993898 0.110254 0.003181
vn -0.993898 0.110254 0.003181
vn 0.988160 0.153364 0.004425
vn 0.988160 0.153364 0.004425
vn 0.988160 0.153364 0.004425
vn 0.988160 0.153364 0.004425
vn -0.005281 0.111679 0.993730
vn -0.005281 0.111679 0.993730
vn -0.005281 0.111679 0.993730
vn -0.005281 0.111679 0.993730
vn -0.004389 0.092819 -0.995673
vn -0.004389 0.092819 -0.995673
vn -0.004389 0.092819 -0.995673
vn -0.004389 0.092819 -0.995673
vn -0.097041 0.993502 0.059474
vn -0.097041 0.993502 0.059474
vn -0.097041 0.993502 0.059474
vn -0.097041 0.993502 0.059474
vn -0.992849 0.119327 0.003458
vn -0.992849 0.119327 0.003458
vn -0.992849 0.119327 0.003458
vn -0.992849 0.119327 0.003458
vn 0.996107 0.088115 0.002554
vn 0.996107 0.088115 0.002554
vn 0.996107 0.088115 0.002554
vn 0.996107 0.088115 0.002554
vn -0.004080 0.086783 0.996219
vn -0.004080 0.086783 0.996219
vn -0.004080 0.086783 0.996219
vn -0.004080 0.086783 0.996219
vn -0.003789 0.080599 -0.996739
vn -0.003789 0.080599 -0.996739
vn -0.003789 0.080599 -0.996739
vn -0.003789 0.080599 -0.996739
vn -0.104745 0.994080 0.028866
vn -0.104745 0.994080 0.028866
vn -0.104745 0.994080 0.028866
vn -0.104745 0.994080 0.028866
vn -0.995216 0.097694 0.001373
vn -0.995216 0.097694 0.001373
vn -0.995216 0.097694 0.001373
vn -0.995216 0.097694 0.001373
vn 0.997330 0.073017 0.001027
vn 0.997330 0.073017 0.001027
vn 0.997330 0.073017 0.001027
vn 0.997330 0.073017 0.001027
vn 0.004149 0.086505 0.996243
vn 0.004149 0.086505 0.996243
vn 0.004149 0.086505 0.996243
vn 0.004149 0.086505 0.996243
vn 0.003003 0.062603 -0.998034
vn 0.003003 0.062603 -0.998034
vn 0.003003 0.062603 -0.998034
vn 0.003003 0.062603 -0.998034
vn 0.090831 0.985580 0.142766
vn 0.090831 0.985580 0.142766
vn 0.090831 0.985580 0.142766
vn 0.090831 0.985580 0.142766
vn -0.997784 0.066378 0.004655
vn -0.997784 0.066378 0.004655
vn -0.997784 0.066378 0.004655
vn -0.997784 0.066378 0.004655
vn 0.996762 0.080208 0.005625
vn 0.996762 0.080208 0.005625
vn 0.996762 0.080208 0.005625
vn 0.996762 0.080208 0.005625
vn 0.002662 0.050751 0.998708
vn 0.002662 0.050751 0.998708
vn 0.002662 0.050751 0.998708
vn 0.002662 0.050751 0.998708
vn 0.002130 0.040611 -0.999173
vn 0.002130 0.040611 -0.999173
vn 0.002130 0.040611 -0.999173
vn 0.002130 0.040611 -0.999173
vn 0.062102 0.997096 0.044090
vn 0.062102 0.997095 0.044090
vn 0.062102 0.997096 0.044090
vn 0.062102 0.997095 0.044090
vn -0.999040 0.043792 0.000960
vn -0.999040 0.043792 0.000960
vn -0.999040 0.043792 0.000960
vn -0.999040 0.043792 0.000960
vn 0.998916 0.046529 0.001020
vn 0.998916 0.046529 0.001020
vn 0.998916 0.046529 0.001020
vn 0.998916 0.046529 0.001020
s off
f 1/1/1 2/2/2 4/4/3 3/3/4
f 5/5/5 6/6/6 8/8/7 7/7/8
f 7/7/9 8/8/10 2/10/11 1/9/12
f 2/2/13 8/11/14 6/12/15 4/4/16
f 7/13/17 1/1/18 3/3/19 5/14/20
f 9/15/21 10/16/22 12/17/23 11/18/24
f 13/19/25 14/20/26 16/21/27 15/22/28
f 15/22/29 16/21/30 10/23/31 9/24/32
f 10/16/33 16/25/34 14/26/35 12/17/36
f 15/27/37 9/15/38 11/18/39 13/28/40
f 17/29/41 18/30/42 20/31/43 19/32/44
f 23/33/45 24/34/46 18/35/47 17/36/48
f 18/30/49 24/37/50 22/38/51 20/31/52
f 23/39/53 17/29/54 19/32/55 21/40/56
f 25/41/57 26/42/58 28/43/59 27/44/60
f 29/45/61 30/46/62 32/47/63 31/48/64
f 31/48/65 32/47/66 26/49/67 25/50/68
f 26/42/69 32/51/70 30/52/71 28/43/72
f 31/53/73 25/41/74 27/44/75 29/54/76
f 33/55/77 34/56/78 36/57/79 35/58/80
f 37/59/81 38/60/82 40/61/83 39/62/84
f 39/62/85 40/61/86 34/63/87 33/64/88
f 34/56/89 40/65/90 38/66/91 36/57/92
f 39/67/93 33/55/94 35/58/95 37/68/96
f 41/69/97 42/70/98 44/71/99 43/72/100
f 45/73/101 46/74/102 48/75/103 47/76/104
f 47/76/105 48/75/106 42/77/107 41/78/108
f 42/70/109 48/79/110 46/80/111 44/71/112
f 47/81/113 41/69/114 43/72/115 45/82/116
f 49/83/117 50/84/118 52/85/119 51/86/120
f 53/87/121 54/88/122 56/89/123 55/90/124
f 55/90/125 56/89/126 50/91/127 49/92/128
f 50/84/129 56/93/130 54/94/131 52/85/132
f 55/95/133 49/83/134 51/86/135 53/96/136
f 57/97/137 58/98/138 60/99/139 59/100/140
f 61/101/141 62/102/142 64/103/143 63/104/144
f 63/104/145 64/103/146 58/105/147 57/106/148
f 58/98/149 64/107/150 62/108/151 60/99/152
f 63/109/153 57/97/154 59/100/155 61/110/156
f 65/111/157 66/112/158 68/113/159 67/114/160
f 69/115/161 70/116/162 72/117/163 71/118/164
f 71/118/165 72/117/166 66/119/167 65/120/168
f 66/112/169 72/121/170 70/122/171 68/113/172
f 71/123/173 65/111/174 67/114/175 69/124/176
f 73/125/177 74/126/178 76/127/179 75/128/180
f 77/129/181 78/130/182 80/131/183 79/132/184
f 79/132/185 80/131/186 74/133/187 73/134/188
f 74/126/189 80/135/190 78/136/191 76/127/192
f 79/137/193 73/125/194 75/128/195 77/138/196
