# This file uses meters as units for non-parametric coordinates.

v 288.728027 0.000000 -0.018328
v 144.379639 0.000000 -250.009155
v -144.348389 0.000000 -249.990845
v -288.728027 0.000000 0.018209
v -144.379883 0.000000 250.009155
v 144.347900 0.000000 249.990845
v -180.411377 0.000000 -187.445221
v -252.538086 0.000000 -62.518349
v -241.735107 -7.061005 -81.229553
v -191.214355 -7.061005 -168.733978
v 5.075439 -7.061005 -60.656395
v 38.888672 2.608442 -87.332458
v -139.146973 -7.061005 -129.248962
v -132.965332 0.000000 -150.628204
v -207.007568 1.249027 -34.945526
v -179.430664 -7.061005 -55.610886
v -26.070557 0.000000 24.866257
v -1.571045 -7.061005 7.780790
v 78.482666 -7.061005 -18.436165
v 87.239502 -1.263176 -23.727303
v -106.020996 3.643284 -5.480909
v -87.402100 -7.061005 -24.754524
v -241.735107 -20.859699 -81.229553
v -288.728027 -17.329197 0.018209
v -144.379883 -17.329197 250.009155
v 144.347900 -21.825504 249.990845
v 288.728027 -17.329197 -0.018328
v 144.379639 -17.329197 -250.009155
v -144.348389 -17.329197 -249.990845
v -191.214355 -20.859699 -168.733978
v 68.173096 -23.522987 -250.004272
v -60.657227 -12.821321 -249.996185
v 181.559326 -13.878794 -185.619354
v 267.479980 -11.777887 -36.816635
v 225.189941 -23.577538 -110.056992
v 52.434814 -23.861008 249.996643
v -89.041504 -12.074003 250.005646
v -211.462402 -9.843798 133.831482
v -269.943848 -22.321739 32.549839
v -53.530518 -7.061005 -119.077530
v -48.214355 0.000000 -142.897797
v 78.439697 -1.371776 75.671158
v 79.046387 -7.061005 61.559258
v 110.832764 0.000000 67.878342
v 106.478271 0.000000 32.854462
v 104.171875 -7.061005 59.562378
v 96.425781 -7.061005 29.691486
v 199.054932 -14.923267 155.260010
v 265.848145 0.000000 -39.642792
v 223.705566 0.000000 -112.627792
v 182.915283 0.000000 -183.271027
v 180.166748 2.985117 63.598557
v 169.532959 -1.916982 -6.434622
v 211.372559 -3.110282 -58.801041
v 164.991455 3.690426 -75.501480
v 111.211426 1.065909 -127.947998
v 49.614746 5.977068 -180.296631
v 109.488281 -1.351444 -190.355682
v 69.491943 0.000000 -250.004425
v -53.379883 0.000000 -249.996643
v -85.243896 -2.387025 -198.441315
v -8.306641 4.741974 -209.813843
v 201.873047 0.000000 150.379791
v 224.629639 1.423615 28.596535
v 157.448486 1.149879 134.534378
v 66.445801 -2.155128 175.094452
v 46.006836 0.000000 249.997101
v -88.373291 0.000000 250.005646
v -98.692627 1.556251 91.980896
v -17.107178 7.840285 119.724503
v -239.548096 -2.407680 6.579671
v -257.955566 0.000000 53.311996
v -210.539795 0.000000 135.429230
v -166.479004 4.890122 50.591507
v -216.537842 -43.147278 -124.986343
v -288.728027 -43.147278 0.018209
v -216.553711 -43.147278 125.013657
v -144.379639 -43.147278 250.009155
v -0.015869 -43.147278 250.000000
v 288.728027 -43.147278 -0.021410
v 216.553711 -43.147278 -125.013733
v 144.379883 -43.147278 -250.009155
v 0.015869 -43.147278 -250.000000
v -144.347900 -43.147278 -249.990997
v 144.359344 -43.147278 249.994431
v 216.537888 -43.147278 124.986191
vt 0.896992 0.323251
vt 0.896992 0.323251
vt 0.896992 0.323251
vt 0.896992 0.323251
vt 0.896992 0.323251
vt 0.896992 0.323251
vt 0.896992 0.323581
vt 0.896992 0.323251
vt 0.896992 0.323251
vt 0.896992 0.323251
vt 0.896992 0.323251
vt 0.896992 0.323251
vt 0.896992 0.323251
vt 0.896992 0.323251
vt 0.896992 0.323251
vt 0.896992 0.323251
vt 0.896992 0.323251
vt 0.920114 0.312033
vt 0.920134 0.312499
vt 0.920111 0.312054
vt 0.917883 0.333552
vt 0.917880 0.333558
vt 0.920132 0.312009
vt 0.920129 0.312001
vt 0.920120 0.312667
vt 0.917882 0.333676
vt 0.896992 0.323251
vt 0.920117 0.312715
vt 0.920116 0.312239
vt 0.917881 0.333597
vt 0.896992 0.323251
vt 0.920113 0.312249
vt 0.920134 0.312160
vt 0.896992 0.323251
vt 0.917884 0.333587
vt 0.920131 0.312188
vt 0.920138 0.312613
vt 0.896992 0.323251
vt 0.917884 0.333662
vt 0.920135 0.312590
vt 0.920123 0.312904
vt 0.917882 0.333720
vt 0.920120 0.312929
vt 0.896988 0.323287
vt 0.920136 0.312379
vt 0.896992 0.323251
vt 0.917884 0.333623
vt 0.920133 0.312379
vt 0.920133 0.312500
vt 0.917873 0.334465
vt 0.917906 0.334531
vt 0.920126 0.312496
vt 0.920125 0.312493
vt 0.896992 0.323251
vt 0.920125 0.312559
vt 0.896992 0.323251
vt 0.896992 0.323251
vt 0.896992 0.323251
vt 0.896998 0.323119
vt 0.896992 0.323251
vt 0.896992 0.323251
vt 0.896992 0.323251
vt 0.920133 0.312564
vt 0.896992 0.323251
vt 0.917873 0.333429
vt 0.917906 0.333495
vt 0.896992 0.323251
vt 0.896992 0.323251
vt 0.896992 0.323251
vt 0.896992 0.323251
vt 0.896992 0.323251
vt 0.896992 0.323251
vt 0.896992 0.323251
vt 0.896992 0.323251
vt 0.896992 0.323251
vt 0.920118 0.312451
vt 0.917881 0.333636
vt 0.896992 0.323251
vt 0.920115 0.312457
vt 0.920141 0.312860
vt 0.896992 0.323251
vt 0.917885 0.333698
vt 0.920137 0.312784
vt 0.920121 0.312200
vt 0.920138 0.312920
vt 0.920124 0.313043
vt 0.920134 0.312208
vt 0.896985 0.323315
vt 0.896987 0.323305
vt 0.917885 0.333712
vt 0.920138 0.312858
vt 0.920124 0.313011
vt 0.917882 0.333740
vt 0.920133 0.312774
vt 0.920120 0.312646
vt 0.896998 0.322961
vt 0.896996 0.323186
vt 0.896992 0.323456
vt 0.896992 0.323251
vt 0.896992 0.323251
vt 0.896992 0.323251
vt 0.896992 0.323251
vt 0.896992 0.323251
vt 0.896992 0.323251
vt 0.896987 0.323289
vt 0.896990 0.323271
vt 0.896990 0.323270
vt 0.896990 0.323266
vt 0.896992 0.323251
vt 0.896992 0.323251
vt 0.896992 0.323251
vt 0.896992 0.323251
vt 0.896992 0.323251
vt 0.896992 0.323251
vt 0.896992 0.323251
vt 0.896992 0.323251
vt 0.896992 0.323251
vt 0.896992 0.323251
vt 0.896996 0.323303
vt 0.896989 0.323272
vt 0.896989 0.323271
vt 0.896990 0.323267
vt 0.896992 0.323251
vt 0.896992 0.323251
vt 0.896992 0.323251
vt 0.896992 0.323251
vt 0.896992 0.323251
vt 0.896992 0.323251
vt 0.896992 0.323251
vt 0.896992 0.323251
vt 0.896992 0.323251
vt 0.896992 0.323251
vt 0.896992 0.323251
vt 0.896992 0.323251
vt 0.989943 0.923703
vt 0.990296 0.923703
vt 0.990486 0.900177
vt 0.989943 0.900177
vt 0.989801 0.923703
vt 0.989399 0.900177
vt 0.988856 0.923703
vt 0.988856 0.923703
vt 0.988856 0.900177
vt 0.988856 0.900177
vt 0.990103 0.923703
vt 0.989943 0.923703
vt 0.989943 0.900177
vt 0.990486 0.900177
vt 0.991030 0.923703
vt 0.991030 0.923703
vt 0.991030 0.900177
vt 0.991030 0.900177
vt 0.990676 0.923703
vt 0.991030 0.923703
vt 0.991030 0.900177
vt 0.991030 0.923703
vt 0.990750 0.923703
vt 0.990486 0.900177
vt 0.990421 0.923703
vt 0.988856 0.923703
vt 0.988856 0.923703
vt 0.988856 0.900177
vt 0.989361 0.923703
vt 0.989268 0.923703
vt 0.989399 0.900177
vn 0.866000 -0.000002 -0.500044
vn 0.866000 -0.000002 -0.500044
vn 0.866000 -0.000002 -0.500045
vn 0.866000 -0.000002 -0.500045
vn -0.865579 0.000505 -0.500772
vn -0.865579 0.000505 -0.500772
vn -0.865579 0.000505 -0.500772
vn -0.865579 0.000505 -0.500772
vn 0.000063 -0.000001 1.000000
vn 0.000063 -0.000001 1.000000
vn 0.000063 -0.000001 1.000000
vn 0.000063 -0.000001 1.000000
vn 0.010901 0.999842 -0.014074
vn 0.010901 0.999842 -0.014074
vn 0.010901 0.999842 -0.014074
vn -0.193305 0.948195 0.252110
vn -0.193305 0.948195 0.252110
vn -0.193305 0.948195 0.252110
vn -0.193305 0.948195 0.252110
vn 0.117138 0.958483 -0.259980
vn 0.117138 0.958483 -0.259980
vn 0.117138 0.958483 -0.259980
vn 0.117138 0.958483 -0.259980
vn 0.000000 1.000000 0.000000
vn 0.000000 1.000000 0.000000
vn 0.000000 1.000000 0.000000
vn -0.866001 -0.000001 0.500042
vn -0.866001 -0.000001 0.500042
vn -0.866001 -0.000001 0.500042
vn -0.866001 -0.000001 0.500042
vn -0.000064 -0.000002 -1.000000
vn -0.000064 -0.000002 -1.000000
vn -0.000064 -0.000002 -1.000000
vn -0.000064 -0.000002 -1.000000
vn -0.172432 0.956969 0.233404
vn -0.172432 0.956969 0.233404
vn -0.172432 0.956969 0.233404
vn -0.172432 0.956969 0.233404
vn -0.030576 0.956238 0.290987
vn -0.030576 0.956238 0.290987
vn -0.030576 0.956238 0.290987
vn -0.030576 0.956238 0.290987
vn 0.093828 0.936671 -0.337408
vn 0.093828 0.936671 -0.337408
vn 0.093828 0.936671 -0.337408
vn 0.093828 0.936671 -0.337408
vn 0.155946 0.951954 -0.263561
vn 0.155946 0.951954 -0.263561
vn 0.155946 0.951954 -0.263561
vn 0.155946 0.951954 -0.263561
vn -0.540798 0.821198 0.182128
vn -0.540798 0.821198 0.182129
vn -0.540798 0.821198 0.182129
vn -0.540798 0.821199 0.182129
vn 0.134978 0.943972 -0.301160
vn 0.134978 0.943972 -0.301160
vn 0.134978 0.943972 -0.301160
vn 0.134978 0.943972 -0.301160
vn 0.865970 0.000005 0.500096
vn 0.865970 0.000005 0.500097
vn 0.865970 0.000005 0.500096
vn 0.865970 0.000005 0.500096
vn -0.866277 0.000286 -0.499563
vn -0.866277 0.000286 -0.499563
vn -0.866277 0.000286 -0.499563
vn -0.866277 0.000286 -0.499563
vn -0.866025 0.000000 -0.500001
vn -0.866025 0.000000 -0.500001
vn -0.866025 0.000000 -0.500001
vn -0.866025 0.000000 -0.500000
vn -0.866025 0.000000 -0.500000
vn -0.866025 0.000000 -0.500000
vn -0.866025 0.000000 -0.500000
vn -0.866024 0.000000 -0.500002
vn -0.866024 0.000000 -0.500002
vn -0.866024 0.000000 -0.500002
vn -0.166867 0.967269 0.191171
vn -0.166867 0.967269 0.191171
vn -0.166867 0.967269 0.191171
vn -0.166867 0.967269 0.191171
vn -0.101054 0.876362 -0.470933
vn -0.101054 0.876362 -0.470933
vn -0.101054 0.876362 -0.470933
vn -0.101054 0.876362 -0.470933
vn -0.690122 0.712160 0.128683
vn -0.690122 0.712160 0.128683
vn -0.690122 0.712160 0.128683
vn -0.690122 0.712160 0.128683
vn 0.000054 0.998816 -0.048648
vn 0.000054 0.998816 -0.048648
vn 0.000054 0.998816 -0.048648
vn 0.000054 0.998816 -0.048648
vn -0.033530 0.999418 0.006208
vn -0.033530 0.999418 0.006208
vn -0.033530 0.999418 0.006208
vn -0.041625 0.999129 0.002851
vn -0.041625 0.999129 0.002851
vn -0.041625 0.999129 0.002851
vn -0.000002 0.999586 -0.028761
vn -0.000002 0.999586 -0.028761
vn -0.000002 0.999586 -0.028761
vn 0.866001 -0.000003 -0.500042
vn 0.866001 -0.000003 -0.500042
vn 0.866001 -0.000003 -0.500042
vn 0.866001 -0.000003 -0.500041
vn 0.071143 0.977142 0.200329
vn 0.071143 0.977142 0.200329
vn 0.071143 0.977142 0.200329
vn 0.866002 -0.000001 -0.500040
vn 0.866002 -0.000001 -0.500040
vn 0.866002 -0.000001 -0.500040
vn 0.866002 -0.000001 -0.500040
vn -0.049341 0.998317 0.030482
vn -0.049341 0.998317 0.030482
vn -0.049341 0.998317 0.030482
vn -0.015346 0.997260 0.072369
vn -0.015346 0.997260 0.072369
vn -0.015346 0.997260 0.072369
vn 0.866001 0.000000 -0.500043
vn 0.866001 0.000000 -0.500042
vn 0.866001 0.000000 -0.500043
vn 0.866001 0.000000 -0.500043
vn 0.044483 0.998156 0.041301
vn 0.044483 0.998156 0.041301
vn 0.044483 0.998156 0.041301
vn -0.017807 0.997586 -0.067124
vn -0.017807 0.997586 -0.067124
vn -0.017807 0.997586 -0.067124
vn -0.026227 0.999487 -0.018371
vn -0.026227 0.999487 -0.018371
vn -0.026227 0.999487 -0.018371
vn -0.026227 0.999487 -0.018371
vn 0.014808 0.998024 0.061062
vn 0.014808 0.998024 0.061062
vn 0.014808 0.998024 0.061062
vn 0.014808 0.998024 0.061062
vn 0.010283 0.999929 -0.005938
vn 0.010283 0.999929 -0.005938
vn 0.010283 0.999929 -0.005938
vn 0.114498 0.992552 -0.041608
vn 0.114498 0.992552 -0.041608
vn 0.114498 0.992552 -0.041608
vn -0.004294 0.998951 -0.045586
vn -0.004294 0.998951 -0.045586
vn -0.004294 0.998951 -0.045586
vn 0.018886 0.997419 -0.069278
vn 0.018886 0.997419 -0.069278
vn 0.018886 0.997419 -0.069278
vn 0.137872 0.985084 0.102958
vn 0.137872 0.985084 0.102958
vn 0.137872 0.985084 0.102958
vn -0.014695 0.999158 -0.038297
vn -0.014695 0.999158 -0.038297
vn -0.014695 0.999158 -0.038297
vn -0.019486 0.999747 0.011252
vn -0.019486 0.999747 0.011252
vn -0.019486 0.999747 0.011252
vn -0.043963 0.998041 0.044507
vn -0.043963 0.998041 0.044507
vn -0.043963 0.998041 0.044507
vn -0.000005 0.996344 -0.085433
vn -0.000005 0.996344 -0.085433
vn -0.000005 0.996344 -0.085433
vn -0.000063 -0.000002 -1.000000
vn -0.000063 -0.000002 -1.000000
vn -0.000063 -0.000002 -1.000000
vn -0.000063 -0.000002 -1.000000
vn 0.019468 0.996613 -0.079903
vn 0.019468 0.996613 -0.079903
vn 0.019468 0.996613 -0.079903
vn -0.000064 0.000000 -1.000000
vn -0.000064 0.000000 -1.000000
vn -0.000064 0.000000 -1.000000
vn -0.000064 0.000000 -1.000000
vn 0.000003 0.998930 0.046253
vn 0.000003 0.998930 0.046253
vn 0.000003 0.998930 0.046253
vn 0.021818 0.999367 -0.028117
vn 0.021818 0.999367 -0.028117
vn 0.021818 0.999367 -0.028117
vn 0.004169 0.998946 -0.045710
vn 0.004169 0.998946 -0.045710
vn 0.004169 0.998946 -0.045710
vn -0.039716 0.996537 -0.073052
vn -0.039716 0.996537 -0.073052
vn -0.039716 0.996537 -0.073052
vn -0.039716 0.996537 -0.073052
vn -0.089754 0.995818 0.017041
vn -0.089754 0.995818 0.017041
vn -0.089754 0.995818 0.017041
vn 0.026860 0.999519 0.015487
vn 0.026860 0.999519 0.015487
vn 0.026860 0.999519 0.015487
vn 0.865969 0.000005 0.500097
vn 0.865969 0.000005 0.500097
vn 0.865969 0.000005 0.500097
vn 0.865969 0.000005 0.500097
vn 0.051884 0.998425 0.021366
vn 0.051884 0.998425 0.021366
vn 0.051884 0.998425 0.021366
vn 0.029907 0.999404 0.017271
vn 0.029907 0.999403 0.017271
vn 0.029907 0.999403 0.017271
vn -0.011926 0.997012 -0.076318
vn -0.011926 0.997012 -0.076318
vn -0.011926 0.997012 -0.076318
vn 0.021456 0.999693 0.012391
vn 0.021456 0.999693 0.012391
vn 0.021456 0.999693 0.012391
vn 0.014940 0.999419 0.030641
vn 0.014940 0.999419 0.030641
vn 0.014940 0.999419 0.030641
vn -0.042399 0.999051 0.009956
vn -0.042399 0.999051 0.009956
vn -0.042399 0.999051 0.009956
vn -0.042399 0.999051 0.009956
vn -0.033557 0.999418 0.006146
vn -0.033557 0.999418 0.006146
vn -0.033557 0.999418 0.006146
vn -0.052198 0.995553 -0.078418
vn -0.052198 0.995553 -0.078418
vn -0.052198 0.995553 -0.078418
vn 0.000063 -0.000001 1.000000
vn 0.000063 -0.000001 1.000000
vn 0.000063 -0.000001 1.000000
vn 0.000063 -0.000001 1.000000
vn 0.000064 -0.000003 1.000000
vn 0.000064 -0.000003 1.000000
vn 0.000064 -0.000003 1.000000
vn 0.000064 -0.000003 1.000000
vn 0.055571 0.994617 -0.087459
vn 0.055571 0.994617 -0.087459
vn 0.055571 0.994617 -0.087459
vn -0.000002 0.999586 -0.028761
vn -0.000002 0.999586 -0.028761
vn -0.000002 0.999586 -0.028761
vn -0.050325 0.995718 -0.077543
vn -0.050325 0.995718 -0.077543
vn -0.050325 0.995718 -0.077543
vn -0.081913 0.996524 0.015163
vn -0.081912 0.996524 0.015163
vn -0.081912 0.996524 0.015163
vn 0.058185 0.994090 0.091652
vn 0.058185 0.994090 0.091652
vn 0.058185 0.994090 0.091652
vn 0.000001 0.999952 0.009848
vn 0.000001 0.999952 0.009848
vn 0.000001 0.999952 0.009848
vn -0.055407 0.995782 -0.073128
vn -0.055407 0.995782 -0.073128
vn -0.055407 0.995782 -0.073128
vn -0.000348 0.999391 0.034889
vn -0.000348 0.999391 0.034889
vn -0.000348 0.999391 0.034889
vn -0.000348 0.999391 0.034889
vn 0.052944 0.998129 -0.030570
vn 0.052944 0.998129 -0.030570
vn 0.052944 0.998130 -0.030570
vn -0.866002 0.000000 0.500040
vn -0.866002 0.000000 0.500040
vn -0.866002 0.000000 0.500040
vn -0.866002 0.000000 0.500040
vn -0.866002 0.000001 0.500041
vn -0.866002 0.000001 0.500041
vn -0.866002 0.000001 0.500041
vn -0.866002 0.000001 0.500041
vn -0.011364 0.999914 0.006562
vn -0.011364 0.999914 0.006562
vn -0.011364 0.999914 0.006562
vn -0.040112 0.997601 0.056416
vn -0.040112 0.997601 0.056416
vn -0.040112 0.997601 0.056416
vn 0.010598 0.997956 0.063027
vn 0.010598 0.997956 0.063027
vn 0.010598 0.997956 0.063027
vn 0.037811 0.999113 0.018552
vn 0.037811 0.999113 0.018552
vn 0.037811 0.999113 0.018552
vn -0.052459 0.998164 0.030290
vn -0.052459 0.998164 0.030290
vn -0.052459 0.998164 0.030290
vn 0.105327 0.994226 0.020540
vn 0.105327 0.994226 0.020540
vn 0.105327 0.994226 0.020540
vn 0.038506 0.999087 0.018499
vn 0.038506 0.999087 0.018499
vn 0.038506 0.999087 0.018499
vn -0.865825 0.001602 -0.500345
vn -0.865825 0.001602 -0.500345
vn -0.865825 0.001602 -0.500345
vn -0.865825 0.001602 -0.500345
vn -0.866001 -0.000004 0.500042
vn -0.866001 -0.000004 0.500042
vn -0.866001 -0.000004 0.500042
vn -0.866001 -0.000004 0.500042
vn 0.000064 0.000000 1.000000
vn 0.000064 0.000000 1.000000
vn 0.000064 0.000000 1.000000
vn 0.000064 0.000000 1.000000
vn 0.865997 0.000043 -0.500049
vn 0.865997 0.000043 -0.500049
vn 0.865997 0.000043 -0.500049
vn 0.865997 0.000043 -0.500049
vn -0.000064 0.000002 -1.000000
vn -0.000064 0.000002 -1.000000
vn -0.000064 0.000002 -1.000000
vn -0.000064 0.000002 -1.000000
vn -0.866087 0.001309 -0.499891
vn -0.866087 0.001309 -0.499891
vn -0.866087 0.001309 -0.499891
vn -0.866087 0.001309 -0.499891
vn -0.866022 0.002555 -0.499999
vn -0.866022 0.002555 -0.499999
vn -0.866022 0.002555 -0.499999
vn -0.000063 0.000000 -1.000000
vn -0.000063 0.000000 -1.000000
vn -0.000063 0.000000 -1.000000
vn -0.000063 0.000003 -1.000000
vn -0.000063 0.000003 -1.000000
vn -0.000063 0.000003 -1.000000
vn -0.000063 0.000003 -1.000000
vn 0.866002 0.000003 -0.500041
vn 0.866002 0.000003 -0.500041
vn 0.866002 0.000003 -0.500041
vn 0.866002 0.000003 -0.500041
vn 0.866001 0.000001 -0.500042
vn 0.866001 0.000001 -0.500042
vn 0.866001 0.000001 -0.500042
vn 0.866002 -0.000001 -0.500040
vn 0.866002 -0.000001 -0.500040
vn 0.866002 -0.000001 -0.500040
vn 0.000047 0.000110 1.000000
vn 0.000047 0.000110 1.000000
vn 0.000047 0.000110 1.000000
vn 0.000047 0.000110 1.000000
vn 0.000064 0.000001 1.000000
vn 0.000064 0.000001 1.000000
vn 0.000064 0.000001 1.000000
vn -0.866002 -0.000007 0.500041
vn -0.866002 -0.000007 0.500041
vn -0.866002 -0.000007 0.500041
vn -0.866002 -0.000007 0.500041
vn -0.866001 -0.000006 0.500042
vn -0.866001 -0.000006 0.500042
vn -0.866001 -0.000006 0.500042
vn 0.865989 0.000261 0.500063
vn 0.865989 0.000261 0.500063
vn 0.865989 0.000261 0.500063
vn 0.865989 0.000261 0.500063
vn 0.865972 -0.000028 0.500093
vn 0.865972 -0.000028 0.500093
vn 0.865972 -0.000028 0.500093
vn 0.865972 -0.000028 0.500093
vn 0.000000 1.000000 0.000000
vn 0.000000 1.000000 0.000000
vn 0.000000 1.000000 0.000000
vn 0.000000 1.000000 0.000000
vn 0.000000 1.000000 0.000000
vn 0.000000 1.000000 0.000000
vn 0.000000 1.000000 0.000000
vn 0.000000 1.000000 0.000000
vn 0.000000 1.000000 0.000000
vn 0.000000 1.000000 0.000000
vn 0.000000 1.000000 0.000000
vn 0.000000 1.000000 0.000000
vn 0.000000 1.000000 -0.000000
vn 0.000000 1.000000 -0.000000
vn 0.000000 1.000000 -0.000000
vn 0.000000 1.000000 -0.000000
vn 0.000000 1.000000 0.000000
vn 0.000000 1.000000 0.000000
vn 0.000000 1.000000 0.000000
s off
f 34/70/1 49/100/2 1/1/3 27/60/4
f 8/17/5 23/54/6 24/56/7 4/4/8
f 67/124/9 36/72/10 26/58/11 6/6/12
f 53/106/13 54/107/14 20/44/15
f 10/18/16 13/29/17 14/32/18 7/20/19
f 8/23/20 15/33/21 16/36/22 9/24/23
f 47/93/24 43/82/25 46/90/26
f 38/74/27 73/133/28 72/131/29 39/75/30
f 2/2/31 28/61/32 31/67/33 59/113/34
f 12/28/35 11/25/36 19/41/37 20/43/38
f 14/32/39 13/29/40 40/76/41 41/79/42
f 16/36/43 15/33/44 21/45/45 22/48/46
f 18/40/47 17/37/48 42/80/49 43/83/50
f 20/43/51 19/41/52 47/92/53 45/86/54
f 22/48/55 21/45/56 17/37/57 18/40/58
f 48/97/59 63/119/60 6/59/61 26/96/62
f 29/62/63 30/64/64 7/15/65 3/3/66
f 7/19/67 30/63/68 10/49/69
f 10/50/70 30/65/71 23/66/72 9/51/73
f 9/52/74 23/55/75 8/53/76
f 41/79/77 40/76/78 11/25/79 12/28/80
f 42/80/81 44/85/82 46/91/83 43/83/84
f 47/84/85 46/87/86 44/94/87 45/95/88
f 52/105/89 53/106/90 20/44/91 45/88/92
f 66/122/93 65/121/94 44/89/95
f 66/122/96 44/89/97 42/81/98
f 6/13/99 66/122/100 67/123/101
f 35/71/102 50/102/103 49/100/104 34/70/105
f 20/44/106 54/107/107 55/108/108
f 33/69/109 51/104/110 50/102/111 35/71/112
f 12/27/113 57/110/114 41/78/115
f 20/44/116 55/108/117 12/27/118
f 2/2/119 51/104/120 33/69/121 28/61/122
f 12/27/123 56/109/124 57/110/125
f 64/120/126 53/106/127 52/105/128
f 1/12/129 49/99/130 54/107/131 53/106/132
f 55/108/133 54/107/134 49/99/135 50/101/136
f 56/109/137 50/101/138 51/103/139
f 57/110/140 56/109/141 58/111/142
f 12/27/143 55/108/144 56/109/145
f 56/109/146 55/108/147 50/101/148
f 57/110/149 58/111/150 2/11/151
f 58/111/152 56/109/153 51/103/154
f 2/11/155 58/111/156 51/103/157
f 41/78/158 57/110/159 62/117/160
f 59/112/161 57/110/162 2/11/163
f 59/113/164 31/67/165 32/68/166 60/115/167
f 59/112/168 62/117/169 57/110/170
f 60/115/171 32/68/172 29/62/173 3/3/174
f 3/10/175 61/116/176 60/114/177
f 14/31/178 61/116/179 7/14/180
f 41/78/181 61/116/182 14/31/183
f 60/114/184 61/116/185 62/117/186 59/112/187
f 41/78/188 62/117/189 61/116/190
f 7/14/191 61/116/192 3/10/193
f 1/7/194 63/119/195 48/97/196 27/98/197
f 63/118/198 64/120/199 52/105/200
f 1/12/201 64/120/202 63/118/203
f 1/12/204 53/106/205 64/120/206
f 63/118/207 65/121/208 6/13/209
f 63/118/210 52/105/211 65/121/212
f 44/89/213 65/121/214 52/105/215 45/88/216
f 6/13/217 65/121/218 66/122/219
f 21/46/220 71/129/221 74/134/222
f 5/5/223 25/57/224 37/73/225 68/126/226
f 68/126/227 37/73/228 36/72/229 67/124/230
f 70/128/231 42/81/232 17/38/233
f 67/123/234 66/122/235 68/125/236
f 69/127/237 70/128/238 17/38/239
f 68/125/240 70/128/241 69/127/242
f 68/125/243 66/122/244 70/128/245
f 68/125/246 69/127/247 5/8/248
f 72/130/249 74/134/250 71/129/251
f 4/9/252 71/129/253 15/34/254 8/16/255
f 72/130/256 71/129/257 4/9/258
f 39/75/259 72/131/260 4/4/261 24/56/262
f 5/5/263 73/133/264 38/74/265 25/57/266
f 5/8/267 69/127/268 73/132/269
f 15/34/270 71/129/271 21/46/272
f 73/132/273 69/127/274 74/134/275
f 21/46/276 74/134/277 69/127/278
f 73/132/279 74/134/280 72/130/281
f 70/128/282 66/122/283 42/81/284
f 69/127/285 17/38/286 21/46/287
f 24/135/288 23/136/289 75/137/290 76/138/291
f 39/139/292 24/135/293 76/138/294 77/140/295
f 37/141/296 25/142/297 78/143/298 79/144/299
f 34/145/300 27/146/301 80/147/302 81/148/303
f 31/149/304 28/150/305 82/151/306 83/152/307
f 30/153/308 29/154/309 84/155/310 75/137/311
f 23/136/312 30/153/313 75/137/314
f 32/156/315 31/149/316 83/152/317
f 29/154/318 32/156/319 83/152/320 84/155/321
f 28/150/322 33/157/323 81/158/324 82/151/325
f 35/159/326 34/145/327 81/148/328
f 33/157/329 35/159/330 81/148/331
f 26/160/332 36/161/333 79/144/334 85/162/335
f 36/161/336 37/141/337 79/144/338
f 25/142/339 38/163/340 77/140/341 78/143/342
f 38/163/343 39/139/344 77/140/345
f 48/164/346 26/160/347 85/162/348 86/165/349
f 27/146/350 48/164/351 86/165/352 80/147/353
f 16/35/354 13/30/355 10/22/356 9/21/357
f 22/47/358 40/77/359 13/30/360 16/35/361
f 18/39/362 11/26/363 40/77/364 22/47/365
f 19/42/366 11/26/367 18/39/368 43/82/369
f 19/42/370 43/82/371 47/93/372
