# This file uses meters as units for non-parametric coordinates.

v 109.893929 51.529572 168.890991
v 117.014252 51.693089 110.495438
v -35.025505 51.768875 118.537842
v 56.764462 51.789398 185.583237
v 193.646957 51.779938 -39.192608
v 165.753723 51.772861 -53.502621
v 183.058517 51.495323 37.349888
v 74.224220 51.786602 -135.926270
v -14.529505 51.621288 -110.742455
v 157.092316 51.517487 -109.591240
v -5.925450 51.779263 -164.066803
v -52.853836 51.535206 -181.931152
v -116.908241 51.812500 -119.603043
v -135.600586 51.520622 -41.638096
v -117.585640 51.677624 -18.444029
v -79.123398 51.761551 176.301849
v -53.803902 51.533554 172.625839
v -146.114227 51.549793 127.148193
v -144.912369 51.689407 36.311928
v -163.972122 51.771004 46.124695
v -146.461960 51.532154 -4.830142
v 119.615028 -0.000004 185.975922
v 127.463821 -0.000004 121.608902
v -28.458801 -0.000004 134.149948
v 61.052097 -0.000004 204.374969
v 200.261658 -0.000004 40.982853
v 211.933090 -0.000004 -43.387421
v 181.187302 -0.000004 -59.160580
v 171.640198 -0.000004 -120.985847
v 80.297295 -0.000004 -150.013855
v -0.822291 -0.000004 -125.637070
v 8.661899 -0.000004 -184.414566
v -59.776367 -0.000004 -200.723221
v -130.381760 -0.000004 -132.020706
v -167.032501 -0.000004 -30.395090
v -162.573883 -0.000004 139.963867
v -88.732124 -0.000004 194.144775
v -42.036282 -0.000004 185.359802
v -182.258072 -0.000004 50.654861
v -161.249252 -0.000004 39.838440
v 176.239029 -0.000004 47.384384
v 106.575218 -0.000004 157.011154
v 176.238876 -0.000004 163.959503
v 210.471115 -0.000004 94.986748
v 168.152039 23.323763 61.391945
v 114.662193 23.208559 143.003784
v 168.152039 23.323763 149.952438
v 194.297150 23.208559 94.986748
v 118.667297 23.562054 97.185349
v -81.938995 -0.000004 161.342468
v -50.645550 -0.000004 212.681686
v 19.017736 -0.000004 219.630173
v 53.250237 -0.000004 150.657715
v -65.765221 23.323763 161.342468
v -42.558640 23.208559 198.674118
v 10.930813 23.323763 205.622971
v 37.076046 23.208559 150.657715
v -31.908281 23.562054 113.267441
v -126.856110 -0.000004 -89.382500
v -198.777908 -0.000004 -82.671700
v -227.812988 -0.000004 1.384237
v -196.519440 -0.000004 81.330452
v -126.856110 -0.000004 92.151283
v -134.943024 23.323763 -67.570244
v -190.690918 23.208559 -60.859406
v -211.638687 23.323763 1.384237
v -188.432129 23.208559 59.518196
v -134.943024 23.323763 70.338722
v -127.951790 23.562054 7.263599
v 113.003746 -0.000004 -105.881989
v 122.842430 -0.000004 -177.443008
v 47.604321 -0.000004 -224.851715
v -37.367130 -0.000004 -212.580978
v -74.940468 -0.000004 -131.934555
v 93.605141 23.323763 -118.722443
v 99.761902 23.208559 -174.534317
v 43.922157 23.323763 -209.101990
v -17.968763 23.208559 -199.740479
v -51.859673 23.323763 -134.843857
v 25.533899 23.208559 -89.898605
v 32.281609 23.562054 -159.314850
vt 0.895099 0.335273
vt 0.895099 0.335273
vt 0.895099 0.335273
vt 0.895099 0.335273
vt 0.895099 0.335273
vt 0.895099 0.335273
vt 0.895099 0.335273
vt 0.895099 0.335273
vt 0.895099 0.335273
vt 0.895099 0.335273
vt 0.895099 0.335273
vt 0.895099 0.335273
vt 0.895099 0.335273
vt 0.895099 0.335273
vt 0.895099 0.335273
vt 0.895099 0.335273
vt 0.895099 0.335273
vt 0.895099 0.335273
vt 0.895099 0.335273
vt 0.895099 0.335273
vt 0.895099 0.335273
vt 0.895099 0.335273
vt 0.895099 0.335273
vt 0.895099 0.335273
vt 0.895099 0.335273
vt 0.895099 0.335273
vt 0.895099 0.335273
vt 0.895099 0.335273
vt 0.895099 0.335273
vt 0.895099 0.335273
vt 0.895099 0.335273
vt 0.895099 0.335273
vt 0.895099 0.335273
vt 0.895099 0.335273
vt 0.895099 0.335273
vt 0.895099 0.335273
vt 0.895099 0.335273
vt 0.895099 0.335273
vt 0.895099 0.335273
vt 0.895099 0.335273
vt 0.895099 0.335273
vt 0.895099 0.335273
vt 0.895099 0.335273
vt 0.895099 0.335273
vt 0.895099 0.335273
vt 0.895099 0.335273
vt 0.895099 0.335273
vt 0.895099 0.335273
vt 0.895099 0.335273
vt 0.895099 0.335273
vt 0.895099 0.335273
vt 0.895099 0.335273
vt 0.895099 0.335273
vt 0.895099 0.335273
vt 0.895099 0.335273
vt 0.895099 0.335273
vt 0.895099 0.335273
vt 0.895099 0.335273
vt 0.895099 0.335273
vt 0.895099 0.335273
vt 0.895099 0.335273
vt 0.895099 0.335273
vt 0.895099 0.335273
vt 0.895099 0.335273
vt 0.895099 0.335273
vt 0.895099 0.335273
vt 0.895099 0.335273
vt 0.895099 0.335273
vt 0.895099 0.335273
vt 0.895099 0.335273
vt 0.895099 0.335273
vt 0.895099 0.335273
vt 0.895099 0.335273
vt 0.895099 0.335273
vt 0.895099 0.335273
vt 0.895099 0.335273
vt 0.895099 0.335273
vt 0.895099 0.335273
vt 0.895099 0.335273
vt 0.895099 0.335273
vt 0.895099 0.335273
vt 0.895099 0.335273
vt 0.895099 0.335273
vt 0.895099 0.335273
vt 0.895099 0.335273
vt 0.895099 0.335273
vt 0.895099 0.335273
vt 0.895099 0.335273
vt 0.895099 0.335273
vt 0.895099 0.335273
vt 0.895099 0.335273
vt 0.895099 0.335273
vt 0.895099 0.335273
vt 0.895099 0.335273
vt 0.895099 0.335273
vt 0.895099 0.335273
vt 0.895099 0.335273
vt 0.895099 0.335273
vt 0.895099 0.335273
vt 0.895099 0.335273
vt 0.895099 0.335273
vt 0.895099 0.335273
vt 0.895099 0.335273
vt 0.895099 0.335273
vt 0.895099 0.335273
vt 0.895099 0.335273
vt 0.895099 0.335273
vt 0.895099 0.335273
vt 0.895099 0.335273
vt 0.895099 0.335273
vt 0.895099 0.335273
vt 0.895099 0.335273
vt 0.895099 0.335273
vt 0.895099 0.335273
vt 0.895099 0.335273
vt 0.895099 0.335273
vt 0.895099 0.335273
vt 0.895099 0.335273
vt 0.895099 0.335273
vt 0.895099 0.335273
vt 0.895099 0.335273
vt 0.895117 0.336950
vt 0.895117 0.336950
vt 0.895117 0.336950
vt 0.895117 0.336950
vt 0.895117 0.336950
vt 0.895117 0.336950
vt 0.895117 0.336950
vt 0.895117 0.336950
vt 0.895117 0.336950
vt 0.895117 0.336950
vt 0.895117 0.336950
vt 0.895117 0.336950
vt 0.895117 0.336950
vt 0.895117 0.336950
vt 0.895117 0.336950
vt 0.895117 0.336950
vt 0.895117 0.336950
vt 0.895117 0.336950
vt 0.895117 0.336950
vt 0.895117 0.336950
vt 0.895117 0.336950
vt 0.895117 0.336950
vt 0.895117 0.336950
vt 0.895117 0.336950
vt 0.895117 0.336950
vt 0.895117 0.336950
vt 0.895117 0.336950
vt 0.895117 0.336950
vt 0.895117 0.336950
vt 0.895117 0.336950
vt 0.895117 0.336950
vt 0.895117 0.336950
vt 0.895117 0.336950
vt 0.895117 0.336950
vt 0.895117 0.336950
vt 0.895117 0.336950
vt 0.895117 0.336950
vt 0.895117 0.336950
vt 0.895117 0.336950
vt 0.895117 0.336950
vt 0.895117 0.336950
vt 0.895117 0.336950
vt 0.895117 0.336950
vt 0.895117 0.336950
vt 0.895117 0.336950
vt 0.895117 0.336950
vt 0.895117 0.336950
vt 0.895117 0.336950
vt 0.895117 0.336950
vt 0.895117 0.336950
vt 0.895117 0.336950
vt 0.895117 0.336950
vt 0.895117 0.336950
vt 0.895117 0.336950
vt 0.895117 0.336950
vt 0.895117 0.336950
vt 0.895117 0.336950
vt 0.895117 0.336950
vt 0.895117 0.336950
vn 0.001640 0.999999 0.000033
vn 0.001640 0.999999 0.000033
vn 0.001640 0.999999 0.000033
vn 0.001640 0.999999 0.000033
vn 0.003523 0.999991 0.002384
vn 0.003523 0.999991 0.002384
vn 0.003523 0.999991 0.002384
vn 0.003523 0.999991 0.002384
vn 0.000608 1.000000 -0.000509
vn 0.000608 1.000000 -0.000509
vn 0.000608 1.000000 -0.000509
vn 0.000608 1.000000 -0.000509
vn -0.000152 0.999999 -0.001127
vn -0.000152 0.999999 -0.001127
vn -0.000152 0.999999 -0.001127
vn -0.000152 0.999999 -0.001127
vn -0.000070 0.999999 0.001333
vn -0.000070 0.999999 0.001333
vn -0.000070 0.999999 0.001333
vn -0.000070 0.999999 0.001333
vn 0.000083 1.000000 0.000189
vn 0.000083 1.000000 0.000189
vn 0.000083 1.000000 0.000189
vn 0.000083 1.000000 0.000189
vn -0.000840 0.999998 0.001526
vn -0.000840 0.999998 0.001526
vn -0.000840 0.999999 0.001526
vn -0.000840 0.999999 0.001526
vn -0.006720 0.999971 -0.003569
vn -0.006720 0.999971 -0.003569
vn -0.006720 0.999971 -0.003569
vn -0.000351 1.000000 -0.000116
vn -0.000351 1.000000 -0.000116
vn -0.000351 1.000000 -0.000116
vn -0.000351 1.000000 -0.000116
vn 0.000211 1.000000 -0.000793
vn 0.000211 1.000000 -0.000793
vn 0.000211 1.000000 -0.000793
vn 0.000211 1.000000 -0.000793
vn 0.967962 0.221472 0.118324
vn 0.967962 0.221472 0.118324
vn 0.967962 0.221472 0.118324
vn 0.967962 0.221472 0.118324
vn -0.591748 0.197613 0.781527
vn -0.591748 0.197613 0.781527
vn -0.591748 0.197613 0.781527
vn -0.591748 0.197613 0.781527
vn 0.281668 0.348606 0.893945
vn 0.281668 0.348606 0.893945
vn 0.281668 0.348606 0.893945
vn 0.281668 0.348606 0.893945
vn 0.937873 0.321581 0.130310
vn 0.937873 0.321581 0.130310
vn 0.937873 0.321581 0.130310
vn 0.937873 0.321581 0.130310
vn 0.444498 0.227187 -0.866492
vn 0.444498 0.227187 -0.866492
vn 0.444498 0.227187 -0.866492
vn 0.444498 0.227187 -0.866492
vn 0.712128 0.282676 0.642626
vn 0.712128 0.282676 0.642626
vn 0.712128 0.282676 0.642626
vn 0.712128 0.282676 0.642626
vn 0.290846 0.283468 -0.913813
vn 0.290846 0.283468 -0.913813
vn 0.290846 0.283468 -0.913813
vn 0.290846 0.283468 -0.913813
vn -0.273984 0.210596 -0.938393
vn -0.273984 0.210596 -0.938393
vn -0.273984 0.210596 -0.938393
vn -0.273984 0.210596 -0.938393
vn 0.943299 0.297961 -0.146312
vn 0.943299 0.297961 -0.146312
vn 0.943299 0.297961 -0.146312
vn 0.943299 0.297961 -0.146312
vn 0.964982 0.210887 0.156003
vn 0.964982 0.210887 0.156003
vn 0.964982 0.210887 0.156003
vn 0.964982 0.210887 0.156003
vn 0.264413 0.358755 -0.895199
vn 0.264413 0.358755 -0.895199
vn 0.264413 0.358755 -0.895199
vn 0.264413 0.358755 -0.895199
vn -0.657032 0.333796 -0.675936
vn -0.657032 0.333796 -0.675936
vn -0.657032 0.333796 -0.675936
vn -0.657032 0.333796 -0.675936
vn -0.881673 0.386231 -0.271070
vn -0.881673 0.386231 -0.271070
vn -0.881673 0.386231 -0.271070
vn -0.881673 0.386230 -0.271070
vn -0.674040 0.524689 0.519972
vn -0.674040 0.524689 0.519972
vn -0.674040 0.524689 0.519972
vn -0.551771 0.362170 0.751254
vn -0.551771 0.362170 0.751254
vn -0.551771 0.362170 0.751254
vn -0.551771 0.362170 0.751254
vn 0.164391 0.283136 0.944886
vn 0.164391 0.283136 0.944886
vn 0.164391 0.283136 0.944886
vn 0.164391 0.283136 0.944886
vn 0.927117 0.242867 0.285427
vn 0.927117 0.242867 0.285427
vn 0.927118 0.242867 0.285427
vn 0.927118 0.242867 0.285427
vn -0.917392 0.342530 0.202644
vn -0.917392 0.342530 0.202644
vn -0.917392 0.342530 0.202644
vn -0.917392 0.342530 0.202644
vn -0.456002 0.083599 -0.886044
vn -0.456002 0.083599 -0.886044
vn -0.456001 0.083599 -0.886044
vn -0.456001 0.083599 -0.886044
vn -0.364701 0.526557 -0.767939
vn -0.364701 0.526558 -0.767939
vn -0.364701 0.526557 -0.767939
vn -0.943929 0.324334 0.061688
vn -0.943929 0.324334 0.061688
vn -0.943929 0.324334 0.061688
vn -0.943929 0.324334 0.061688
vn -0.096701 0.513363 0.852706
vn -0.096701 0.513363 0.852706
vn -0.096701 0.513363 0.852706
vn -0.096701 0.513363 0.852706
vn 0.770894 0.514827 0.375068
vn 0.770894 0.514827 0.375068
vn 0.770894 0.514827 0.375068
vn 0.770894 0.514827 0.375068
vn 0.689047 0.513268 -0.511635
vn 0.689047 0.513268 -0.511635
vn 0.689047 0.513268 -0.511635
vn 0.689047 0.513268 -0.511635
vn -0.003120 0.999968 0.007442
vn -0.003120 0.999968 0.007442
vn -0.003120 0.999967 0.007442
vn 0.004678 0.999989 0.000129
vn 0.004678 0.999989 0.000129
vn 0.004678 0.999989 0.000129
vn 0.004668 0.999989 -0.000204
vn 0.004668 0.999989 -0.000204
vn 0.004668 0.999989 -0.000204
vn -0.729657 0.515629 0.449141
vn -0.729657 0.515629 0.449141
vn -0.729657 0.515629 0.449141
vn -0.729657 0.515629 0.449141
vn -0.096704 0.513368 0.852703
vn -0.096704 0.513368 0.852703
vn -0.096704 0.513368 0.852703
vn -0.096704 0.513368 0.852703
vn 0.770890 0.514832 0.375069
vn 0.770890 0.514832 0.375069
vn 0.770890 0.514832 0.375069
vn 0.770890 0.514832 0.375069
vn -0.001411 0.999991 0.003963
vn -0.001411 0.999991 0.003963
vn -0.001411 0.999991 0.003963
vn -0.002649 0.999989 0.003809
vn -0.002649 0.999989 0.003809
vn -0.002649 0.999989 0.003809
vn 0.004977 0.999988 0.000271
vn 0.004977 0.999988 0.000271
vn 0.004977 0.999988 0.000271
vn -0.077082 0.681912 -0.727361
vn -0.077082 0.681912 -0.727361
vn -0.077082 0.681912 -0.727361
vn -0.077082 0.681912 -0.727361
vn -0.795074 0.542070 -0.272061
vn -0.795074 0.542070 -0.272061
vn -0.795074 0.542070 -0.272061
vn -0.795074 0.542070 -0.272061
vn -0.777169 0.549212 0.307206
vn -0.777169 0.549212 0.307206
vn -0.777169 0.549212 0.307206
vn -0.777169 0.549212 0.307206
vn -0.127783 0.678338 0.723553
vn -0.127783 0.678338 0.723553
vn -0.127783 0.678338 0.723553
vn -0.127783 0.678338 0.723553
vn -0.002423 0.999993 -0.002958
vn -0.002423 0.999993 -0.002958
vn -0.002423 0.999993 -0.002958
vn -0.002655 0.999993 -0.002744
vn -0.002655 0.999993 -0.002744
vn -0.002655 0.999993 -0.002744
vn -0.003073 0.999990 0.003208
vn -0.003073 0.999990 0.003208
vn -0.003073 0.999990 0.003208
vn -0.002854 0.999990 0.003462
vn -0.002854 0.999990 0.003462
vn -0.002854 0.999990 0.003462
vn 0.725810 0.681912 0.090530
vn 0.725810 0.681912 0.090530
vn 0.725810 0.681912 0.090530
vn 0.725810 0.681912 0.090530
vn 0.445927 0.542067 -0.712259
vn 0.445927 0.542067 -0.712259
vn 0.445927 0.542067 -0.712259
vn 0.445927 0.542067 -0.712259
vn -0.122202 0.549210 -0.826701
vn -0.122202 0.549210 -0.826701
vn -0.122202 0.549210 -0.826701
vn -0.122202 0.549210 -0.826701
vn -0.662563 0.674405 -0.325865
vn -0.662563 0.674405 -0.325865
vn -0.662563 0.674405 -0.325865
vn -0.662563 0.674405 -0.325865
vn 0.004895 0.999987 -0.001524
vn 0.004895 0.999987 -0.001524
vn 0.004895 0.999987 -0.001524
vn 0.004390 0.999983 -0.003759
vn 0.004390 0.999983 -0.003759
vn 0.004390 0.999983 -0.003759
vn -0.002680 0.999982 -0.005412
vn -0.002680 0.999982 -0.005412
vn -0.002680 0.999982 -0.005412
vn -0.003948 0.999985 -0.003837
vn -0.003948 0.999985 -0.003837
vn -0.003948 0.999985 -0.003837
vn -0.001390 0.999987 0.004957
vn -0.001390 0.999987 0.004957
vn -0.001390 0.999987 0.004957
vn 0.000484 0.999987 0.005139
vn 0.000484 0.999987 0.005139
vn 0.000484 0.999987 0.005139
s off
f 1/1/1 2/2/2 3/3/3 4/4/4
f 7/5/5 5/6/6 6/7/7 2/8/8
f 10/9/9 8/10/10 9/11/11 6/12/12
f 13/13/13 9/14/14 11/15/15 12/16/16
f 13/17/17 14/18/18 15/19/19 9/20/20
f 18/21/21 16/22/22 17/23/23 3/24/24
f 20/25/25 18/26/26 3/27/27 19/28/28
f 19/29/29 15/30/30 21/31/31
f 6/32/32 9/33/33 15/34/34 2/35/35
f 19/36/36 3/37/37 2/38/38 15/39/39
f 2/40/40 1/41/41 22/42/42 23/43/43
f 4/44/44 3/45/45 24/46/46 25/47/47
f 1/48/48 4/49/49 25/50/50 22/51/51
f 5/52/52 7/53/53 26/54/54 27/55/55
f 6/56/56 5/57/57 27/58/58 28/59/59
f 7/60/60 2/61/61 23/62/62 26/63/63
f 8/64/64 10/65/65 29/66/66 30/67/67
f 9/68/68 8/69/69 30/70/70 31/71/71
f 10/72/72 6/73/73 28/74/74 29/75/75
f 11/76/76 9/77/77 31/78/78 32/79/79
f 12/80/80 11/81/81 32/82/82 33/83/83
f 13/84/84 12/85/85 33/86/86 34/87/87
f 14/88/88 13/89/89 34/90/90 35/91/91
f 15/92/92 14/93/93 35/94/94
f 16/95/95 18/96/96 36/97/97 37/98/98
f 17/99/99 16/100/100 37/101/101 38/102/102
f 3/103/103 17/104/104 38/105/105 24/106/106
f 18/107/107 20/108/108 39/109/109 36/110/110
f 20/111/111 19/112/112 40/113/113 39/114/114
f 21/115/115 15/116/116 35/117/117
f 19/118/118 21/119/119 35/120/120 40/121/121
f 42/122/122 43/123/123 47/124/124 46/125/125
f 43/123/126 44/126/127 48/127/128 47/124/129
f 44/126/130 41/128/131 45/129/132 48/127/133
f 46/130/134 47/131/135 49/132/136
f 47/131/137 48/133/138 49/132/139
f 48/133/140 45/134/141 49/132/142
f 50/135/143 51/136/144 55/137/145 54/138/146
f 51/136/147 52/139/148 56/140/149 55/137/150
f 52/139/151 53/141/152 57/142/153 56/140/154
f 54/143/155 55/144/156 58/145/157
f 55/144/158 56/146/159 58/145/160
f 56/146/161 57/147/162 58/145/163
f 59/148/164 60/149/165 65/150/166 64/151/167
f 60/149/168 61/152/169 66/153/170 65/150/171
f 61/152/172 62/154/173 67/155/174 66/153/175
f 62/154/176 63/156/177 68/157/178 67/155/179
f 64/158/180 65/159/181 69/160/182
f 65/159/183 66/161/184 69/160/185
f 66/161/186 67/162/187 69/160/188
f 67/162/189 68/163/190 69/160/191
f 70/164/192 71/165/193 76/166/194 75/167/195
f 71/165/196 72/168/197 77/169/198 76/166/199
f 72/168/200 73/170/201 78/171/202 77/169/203
f 73/170/204 74/172/205 79/173/206 78/171/207
f 75/174/208 76/175/209 81/176/210
f 76/175/211 77/177/212 81/176/213
f 77/177/214 78/178/215 81/176/216
f 78/178/217 79/179/218 81/176/219
f 79/179/220 80/180/221 81/176/222
f 80/180/223 75/174/224 81/176/225
