# This file uses meters as units for non-parametric coordinates.

v -144.348389 -0.000004 -250.000916
v -192.496094 -0.000004 166.668640
v 192.474365 -0.000004 166.644226
v 144.379639 -0.000004 -250.019226
v -288.728027 -0.000004 0.008240
v -240.601563 -0.000004 -83.328171
v 144.347900 -0.000004 249.980774
v 288.727783 -0.000004 -0.028381
v 240.611572 -0.000004 -83.358688
v 192.495605 -0.000004 -166.688599
v -192.475098 -0.000004 -166.664246
v -48.105713 -0.000004 -250.007019
v -144.379883 -0.000004 249.999084
v 48.105225 -0.000004 249.986877
v -240.612305 -0.000004 83.338196
v -48.137451 -0.000004 249.992981
v 240.601074 -0.000004 83.308334
v 48.136963 -0.000004 -250.013123
v -144.347900 -43.147278 -249.990997
v -216.537842 -43.147278 -124.986343
v -288.728027 -43.147278 0.018209
v -216.553711 -43.147278 125.013657
v -144.379639 -43.147278 250.009155
v -0.015869 -43.147278 250.000000
v 144.359421 -43.147278 249.996323
v 216.537888 -43.147278 124.986191
v 288.728027 -43.147278 -0.023257
v 216.553711 -43.147278 -125.013733
v 144.379883 -43.147278 -250.009155
v 0.015869 -43.147278 -250.000000
v -48.137451 -13.673493 249.992981
v 48.105225 -21.573635 249.986542
v 144.347900 -10.478088 249.980774
v 192.474365 -21.573635 166.644562
v 240.601074 -26.515488 83.308334
v 288.727783 -21.573635 -0.028381
v 240.611572 -13.673493 -83.358688
v 192.495605 -21.573635 -166.688660
v 144.379639 -10.478088 -250.019226
v 48.136963 -21.573635 -250.013123
v -48.105713 -27.091427 -250.007019
v -144.348389 -21.573635 -250.000916
v -192.475098 -13.673493 -166.664246
v -240.601563 -21.573635 -83.328171
v -288.728027 -10.478088 0.008240
v -240.612305 -21.573635 83.338196
v -192.496094 -27.264591 166.668976
v -144.379883 -21.573635 249.999084
v -0.000244 -0.000004 -0.010063
vt 0.894842 0.322597
vt 0.894842 0.322597
vt 0.894842 0.322597
vt 0.894842 0.322597
vt 0.894842 0.322597
vt 0.894842 0.322597
vt 0.894842 0.322597
vt 0.894842 0.322597
vt 0.894842 0.322597
vt 0.894842 0.322597
vt 0.894842 0.322597
vt 0.894842 0.322597
vt 0.894842 0.322597
vt 0.894842 0.322597
vt 0.894842 0.322597
vt 0.894842 0.322597
vt 0.894842 0.322597
vt 0.894842 0.322597
vt 0.894842 0.322597
vt 0.894842 0.322597
vt 0.894842 0.322597
vt 0.894842 0.322597
vt 0.894842 0.322597
vt 0.894842 0.322597
vt 0.894842 0.322597
vt 0.894842 0.322597
vt 0.894842 0.322597
vt 0.894842 0.322597
vt 0.894842 0.322597
vt 0.894842 0.322597
vt 0.894842 0.322597
vt 0.894842 0.322597
vt 0.894842 0.322597
vt 0.894842 0.322597
vt 0.894842 0.322597
vt 0.894842 0.322597
vt 0.894932 0.321840
vt 0.894932 0.321840
vt 0.894930 0.321840
vt 0.894928 0.321840
vt 0.894928 0.321840
vt 0.894928 0.321840
vt 0.894928 0.321840
vt 0.894928 0.321840
vt 0.894928 0.321840
vt 0.894928 0.321840
vt 0.894928 0.321840
vt 0.894928 0.321840
vt 0.894928 0.321840
vt 0.894928 0.321840
vt 0.894928 0.321840
vt 0.894928 0.321840
vt 0.894932 0.321840
vt 0.894928 0.321840
vt 0.894932 0.321840
vt 0.988856 0.923703
vt 0.988856 0.923703
vt 0.988856 0.900177
vt 0.988856 0.923703
vt 0.988856 0.900177
vt 0.989218 0.923703
vt 0.989399 0.900177
vt 0.989581 0.923703
vt 0.989943 0.923703
vt 0.989943 0.900177
vt 0.990305 0.923703
vt 0.990486 0.900177
vt 0.990667 0.923703
vt 0.991030 0.923703
vt 0.991030 0.900177
vt 0.991030 0.923703
vt 0.991030 0.900177
vt 0.991030 0.923703
vt 0.991030 0.923703
vt 0.991030 0.900177
vt 0.990667 0.923703
vt 0.990486 0.900177
vt 0.990305 0.923703
vt 0.989943 0.923703
vt 0.989943 0.900177
vt 0.989581 0.923703
vt 0.989399 0.900177
vt 0.989218 0.923703
vt 0.988856 0.923703
vt 0.988856 0.900177
vn -0.865970 0.000000 -0.500096
vn -0.865970 0.000000 -0.500096
vn -0.865970 0.000000 -0.500096
vn -0.865970 0.000000 -0.500095
vn -0.866002 0.000000 0.500040
vn -0.866002 0.000000 0.500040
vn -0.866002 0.000000 0.500040
vn -0.866002 0.000000 0.500040
vn 0.000064 0.000000 1.000000
vn 0.000064 0.000000 1.000000
vn 0.000064 0.000000 1.000000
vn 0.000064 0.000000 1.000000
vn 0.865971 0.000005 0.500095
vn 0.865971 0.000005 0.500095
vn 0.865971 0.000005 0.500095
vn 0.865971 0.000005 0.500095
vn 0.866001 0.000000 -0.500042
vn 0.866001 0.000000 -0.500042
vn 0.866001 0.000000 -0.500042
vn 0.866001 0.000000 -0.500042
vn -0.000064 0.000000 -1.000000
vn -0.000064 0.000000 -1.000000
vn -0.000064 0.000000 -1.000000
vn -0.000064 0.000000 -1.000000
vn 0.865970 0.000000 0.500095
vn 0.865970 0.000000 0.500095
vn 0.865970 0.000000 0.500095
vn 0.865970 0.000000 0.500095
vn 0.865969 0.000004 0.500098
vn 0.865969 0.000004 0.500098
vn 0.865969 0.000004 0.500098
vn 0.865969 0.000004 0.500098
vn 0.000062 -0.000010 1.000000
vn 0.000062 -0.000010 1.000000
vn 0.000062 -0.000010 1.000000
vn 0.000062 -0.000010 1.000000
vn 0.000065 -0.000010 1.000000
vn 0.000065 -0.000010 1.000000
vn 0.000065 -0.000010 1.000000
vn 0.000065 -0.000010 1.000000
vn 0.866003 0.000001 -0.500039
vn 0.866003 0.000001 -0.500039
vn 0.866003 0.000001 -0.500039
vn 0.866003 0.000001 -0.500039
vn 0.866001 0.000001 -0.500042
vn 0.866001 0.000001 -0.500042
vn 0.866001 0.000001 -0.500042
vn 0.866001 0.000001 -0.500042
vn -0.000063 0.000000 -1.000000
vn -0.000063 0.000000 -1.000000
vn -0.000063 0.000000 -1.000000
vn -0.000063 0.000000 -1.000000
vn -0.000063 0.000000 -1.000000
vn -0.000063 0.000000 -1.000000
vn -0.000063 0.000000 -1.000000
vn -0.000063 0.000000 -1.000000
vn -0.865971 0.000000 -0.500095
vn -0.865971 0.000000 -0.500095
vn -0.865971 0.000000 -0.500095
vn -0.865971 0.000000 -0.500095
vn -0.865970 0.000000 -0.500096
vn -0.865970 0.000000 -0.500096
vn -0.865970 0.000000 -0.500096
vn -0.865970 0.000000 -0.500096
vn -0.866001 0.000003 0.500042
vn -0.866001 0.000003 0.500042
vn -0.866001 0.000003 0.500042
vn -0.866001 0.000003 0.500042
vn -0.866002 0.000003 0.500041
vn -0.866002 0.000003 0.500041
vn -0.866002 0.000003 0.500041
vn -0.866002 0.000003 0.500041
vn 0.000100 0.000401 1.000000
vn 0.000100 0.000401 1.000000
vn 0.000100 0.000401 1.000000
vn 0.000015 0.000521 1.000000
vn 0.000015 0.000521 1.000000
vn 0.000015 0.000521 1.000000
vn 0.000015 0.000521 1.000000
vn 0.866008 0.000488 0.500031
vn 0.866008 0.000488 0.500031
vn 0.866008 0.000488 0.500031
vn 0.866008 0.000488 0.500031
vn 0.865976 0.000262 0.500086
vn 0.865976 0.000262 0.500086
vn 0.865976 0.000262 0.500086
vn 0.865973 0.000194 0.500091
vn 0.865973 0.000194 0.500091
vn 0.865973 0.000194 0.500091
vn 0.865973 0.000194 0.500091
vn 0.865994 -0.000127 -0.500055
vn 0.865994 -0.000127 -0.500055
vn 0.865994 -0.000127 -0.500055
vn 0.865994 -0.000127 -0.500055
vn 0.866009 -0.000191 -0.500028
vn 0.866009 -0.000191 -0.500028
vn 0.866009 -0.000191 -0.500028
vn 0.865998 -0.000184 -0.500047
vn 0.865998 -0.000184 -0.500047
vn 0.865998 -0.000184 -0.500047
vn 0.865998 -0.000184 -0.500047
vn -0.000045 -0.000387 -1.000000
vn -0.000045 -0.000387 -1.000000
vn -0.000045 -0.000387 -1.000000
vn -0.000045 -0.000387 -1.000000
vn -0.000033 -0.000535 -1.000000
vn -0.000033 -0.000535 -1.000000
vn -0.000033 -0.000535 -1.000000
vn -0.000075 -0.000546 -1.000000
vn -0.000075 -0.000546 -1.000000
vn -0.000075 -0.000546 -1.000000
vn -0.000075 -0.000546 -1.000000
vn -0.865973 -0.000203 -0.500090
vn -0.865973 -0.000203 -0.500090
vn -0.865973 -0.000203 -0.500090
vn -0.865973 -0.000203 -0.500090
vn -0.865961 -0.000211 -0.500111
vn -0.865961 -0.000211 -0.500111
vn -0.865961 -0.000211 -0.500111
vn -0.865974 -0.000199 -0.500089
vn -0.865974 -0.000199 -0.500089
vn -0.865974 -0.000199 -0.500088
vn -0.865974 -0.000199 -0.500089
vn -0.865997 0.000186 0.500049
vn -0.865997 0.000186 0.500049
vn -0.865997 0.000186 0.500049
vn -0.865997 0.000186 0.500049
vn -0.865995 0.000245 0.500053
vn -0.865995 0.000245 0.500053
vn -0.865995 0.000245 0.500053
vn -0.866004 0.000257 0.500037
vn -0.866004 0.000257 0.500037
vn -0.866004 0.000257 0.500037
vn -0.866004 0.000257 0.500037
vn 0.000051 0.000383 1.000000
vn 0.000051 0.000383 1.000000
vn 0.000051 0.000383 1.000000
vn 0.000051 0.000383 1.000000
vn 0.000000 1.000000 0.000000
vn 0.000000 1.000000 0.000000
vn 0.000000 1.000000 0.000000
vn 0.000000 1.000000 0.000000
vn 0.000000 1.000000 0.000000
vn 0.000000 1.000000 0.000000
vn 0.000000 1.000000 0.000000
vn 0.000000 1.000000 0.000000
vn 0.000000 1.000000 0.000000
vn 0.000000 1.000000 0.000000
vn 0.000000 1.000000 0.000000
vn 0.000000 1.000000 0.000000
vn 0.000000 1.000000 0.000000
vn 0.000000 1.000000 0.000000
vn 0.000000 1.000000 0.000000
vn 0.000000 1.000000 0.000000
vn 0.000000 1.000000 0.000000
vn 0.000000 1.000000 0.000000
vn 0.000000 1.000000 0.000000
vn 0.000000 1.000000 0.000000
vn 0.000000 1.000000 0.000000
vn 0.000000 1.000000 0.000000
vn 0.000000 1.000000 0.000000
vn 0.000000 1.000000 0.000000
vn 0.000000 1.000000 0.000000
vn 0.000000 1.000000 0.000000
vn 0.000000 1.000000 0.000000
vn 0.000000 1.000000 0.000000
vn 0.000000 1.000000 0.000000
vn 0.000000 1.000000 0.000000
vn 0.000000 1.000000 0.000000
vn 0.000000 1.000000 0.000000
vn 0.000000 1.000000 0.000000
vn 0.000000 1.000000 0.000000
vn 0.000000 1.000000 0.000000
vn 0.000000 1.000000 0.000000
vn 0.000000 1.000000 0.000000
vn 0.000000 1.000000 0.000000
vn 0.000000 1.000000 0.000000
vn 0.000000 1.000000 0.000000
vn 0.000000 1.000000 0.000000
vn 0.000000 1.000000 0.000000
vn 0.000000 1.000000 0.000000
vn 0.000000 1.000000 0.000000
vn 0.000000 1.000000 0.000000
vn 0.000000 1.000000 0.000000
vn 0.000000 1.000000 0.000000
vn 0.000000 1.000000 0.000000
vn 0.000000 1.000000 0.000000
vn 0.000000 1.000000 0.000000
vn 0.000000 1.000000 0.000000
vn 0.000000 1.000000 0.000000
vn 0.000000 1.000000 0.000000
vn 0.000000 1.000000 0.000000
s off
f 11/1/1 1/2/2 42/3/3 43/4/4
f 15/5/5 5/6/6 45/7/7 46/8/8
f 16/9/9 13/10/10 48/11/11 31/12/12
f 3/13/13 7/14/14 33/15/15 34/16/16
f 9/17/17 8/18/18 36/19/19 37/20/20
f 18/21/21 4/22/22 39/23/23 40/24/24
f 8/18/25 17/25/26 35/26/27 36/19/28
f 17/25/29 3/13/30 34/16/31 35/26/32
f 7/14/33 14/27/34 32/28/35 33/15/36
f 14/27/37 16/9/38 31/12/39 32/28/40
f 4/22/41 10/29/42 38/30/43 39/23/44
f 10/29/45 9/17/46 37/20/47 38/30/48
f 1/2/49 12/31/50 41/32/51 42/3/52
f 12/31/53 18/21/54 40/24/55 41/32/56
f 5/6/57 6/33/58 44/34/59 45/7/60
f 6/33/61 11/1/62 43/4/63 44/34/64
f 13/10/65 2/35/66 47/36/67 48/11/68
f 2/35/69 15/5/70 46/8/71 47/36/72
f 32/56/73 31/57/74 24/58/75
f 33/59/76 32/56/77 24/58/78 25/60/79
f 34/61/80 33/59/81 25/60/82 26/62/83
f 35/63/84 34/61/85 26/62/86
f 36/64/87 35/63/88 26/62/89 27/65/90
f 37/66/91 36/64/92 27/65/93 28/67/94
f 38/68/95 37/66/96 28/67/97
f 39/69/98 38/68/99 28/67/100 29/70/101
f 40/71/102 39/69/103 29/70/104 30/72/105
f 41/73/106 40/71/107 30/72/108
f 42/74/109 41/73/110 30/72/111 19/75/112
f 43/76/113 42/74/114 19/75/115 20/77/116
f 44/78/117 43/76/118 20/77/119
f 45/79/120 44/78/121 20/77/122 21/80/123
f 46/81/124 45/79/125 21/80/126 22/82/127
f 47/83/128 46/81/129 22/82/130
f 48/84/131 47/83/132 22/82/133 23/85/134
f 31/57/135 48/84/136 23/85/137 24/58/138
f 16/37/139 14/38/140 49/39/141
f 14/38/142 7/40/143 49/39/144
f 7/40/145 3/41/146 49/39/147
f 15/42/148 2/43/149 49/39/150
f 5/44/151 15/42/152 49/39/153
f 17/45/154 8/46/155 49/39/156
f 6/47/157 5/44/158 49/39/159
f 8/46/160 9/48/161 49/39/162
f 9/48/163 10/49/164 49/39/165
f 11/50/166 6/47/167 49/39/168
f 1/51/169 11/50/170 49/39/171
f 10/49/172 4/52/173 49/39/174
f 12/53/175 1/51/176 49/39/177
f 13/54/178 16/37/179 49/39/180
f 2/43/181 13/54/182 49/39/183
f 3/41/184 17/45/185 49/39/186
f 4/52/187 18/55/188 49/39/189
f 18/55/190 12/53/191 49/39/192
