# This file uses meters as units for non-parametric coordinates.

v -250.000000 -0.000000 250.000000
v 250.000000 -0.000000 250.000000
v -250.000000 0.000000 -250.000000
v 250.000000 0.000000 -250.000000
v 0.000000 356.022095 -0.000010
v -82.020599 239.214752 82.020592
v 85.492668 234.272278 85.492653
v 84.961029 235.028915 -84.961037
v -81.532234 239.911224 -81.532265
vt 0.328691 0.194969
vt 0.328691 0.194969
vt 0.328691 0.194969
vt 0.328691 0.194969
vt 0.328691 0.194969
vt 0.328691 0.194969
vt 0.328691 0.194969
vt 0.328691 0.194969
vt 0.124039 0.196772
vt 0.328691 0.194969
vt 0.328691 0.194969
vt 0.328691 0.194969
vt 0.328691 0.194969
vt 0.124039 0.196772
vt 0.124039 0.196772
vt 0.124039 0.196772
vt 0.124039 0.196772
vn 0.000000 -1.000000 -0.000000
vn 0.000000 -1.000000 -0.000000
vn 0.000000 -1.000000 -0.000000
vn 0.000000 -1.000000 -0.000000
vn -0.000002 0.574675 0.818382
vn -0.000002 0.574675 0.818382
vn -0.000002 0.574674 0.818382
vn -0.000002 0.574674 0.818382
vn 0.818383 0.574674 -0.000000
vn 0.818383 0.574673 -0.000000
vn 0.818383 0.574673 -0.000000
vn 0.818383 0.574673 -0.000000
vn -0.000000 0.574674 -0.818382
vn -0.000000 0.574674 -0.818382
vn -0.000001 0.574674 -0.818383
vn -0.000001 0.574674 -0.818383
vn -0.818381 0.574676 0.000001
vn -0.818381 0.574676 0.000001
vn -0.818382 0.574675 0.000001
vn -0.818382 0.574675 0.000001
vn -0.000002 0.574674 0.818382
vn -0.000002 0.574674 0.818382
vn -0.000007 0.574667 0.818388
vn 0.818383 0.574673 -0.000000
vn 0.818383 0.574673 -0.000000
vn 0.818386 0.574669 -0.000001
vn -0.000001 0.574674 -0.818383
vn -0.000001 0.574674 -0.818383
vn -0.000002 0.574667 -0.818387
vn -0.818382 0.574675 0.000001
vn -0.818382 0.574675 0.000001
vn -0.818389 0.574665 0.000004
s off
f 1/5/1 3/8/2 4/7/3 2/6/4
f 1/1/5 2/2/6 7/11/7 6/10/8
f 2/2/9 4/4/10 8/12/11 7/11/12
f 4/4/13 3/3/14 9/13/15 8/12/16
f 3/3/17 1/1/18 6/10/19 9/13/20
f 6/9/21 7/14/22 5/15/23
f 7/14/24 8/16/25 5/15/26
f 8/16/27 9/17/28 5/15/29
f 9/17/30 6/9/31 5/15/32
