# This file uses meters as units for non-parametric coordinates.

v -144.292480 0.000000 -250.022736
v 144.379883 0.000000 -250.009155
v 288.728027 0.000000 0.045598
v 144.391846 0.000000 250.061646
v -144.296631 0.000000 250.070801
v -288.616943 0.000000 0.018358
v 252.593262 0.000000 62.550201
v 180.466797 0.000000 187.477112
v 191.269775 -7.061005 168.765869
v 241.790527 -7.061005 81.261368
v -180.355957 0.000000 -187.413025
v -252.482422 0.000000 -62.486305
v -241.679443 -7.061005 -81.197510
v -191.158691 -7.061005 -168.701935
v -164.767822 -1.081607 -15.172186
v -146.104004 -7.061005 -29.139576
v 46.299561 -7.061005 -2.439439
v 62.950439 2.527556 -20.969620
v 158.672119 -7.061005 22.093048
v 174.246582 -1.792834 5.666437
v 120.999512 0.000000 153.143616
v 125.417969 -7.061005 119.024277
v -90.605957 2.817960 80.188217
v -66.494385 -7.061005 73.975830
v -123.705322 -7.061005 -111.749344
v -111.351807 0.000000 -121.082993
v -45.210205 -7.061005 -42.735100
v -27.453369 -3.897598 -72.128525
v 180.466797 -11.986771 187.477112
v 144.391846 -17.329197 250.061646
v -144.296631 -17.329197 250.070801
v -288.616943 -21.825504 0.018358
v -252.482422 -17.329197 -62.486305
v -241.679443 -20.859699 -81.197510
v -191.158691 -20.859699 -168.701935
v -180.355957 -12.252998 -187.413025
v -144.292480 -17.329197 -250.022736
v 144.379883 -17.329197 -250.009155
v 288.728027 -17.329197 0.045598
v 252.593262 -25.621681 62.550201
v 241.790527 -20.859699 81.261368
v 191.269775 -20.859699 168.765869
v 182.479004 -23.522987 -184.009857
v 246.886963 -12.821321 -72.435608
v 70.026855 -13.878794 -250.012665
v -101.800537 -11.777887 -250.020905
v -17.227295 -23.577538 -250.016785
v -242.665527 -23.861008 79.620209
v -171.935059 -12.074003 202.147064
v 72.182129 0.000000 249.995422
v 50.576416 -7.061005 249.995422
v -72.071045 0.000000 249.995422
v -50.465088 -7.061005 249.995422
v 85.256836 0.000000 160.226440
v 57.278076 -7.061005 132.586899
v 65.933105 0.000000 196.333771
v 42.947021 -7.061005 194.118042
v -47.124023 -7.061005 165.394897
v -76.815186 -1.761109 141.050262
v -72.071045 -11.986771 249.995422
v 72.182129 -25.621681 249.995422
v 50.576172 -20.859699 249.995422
v -50.465088 -20.859699 249.995270
v -174.701660 0.000000 197.390442
v -244.668213 0.000000 76.164856
v -127.839355 2.582762 107.952042
v -176.097656 2.883210 92.994156
v -234.160156 3.056054 -6.016436
v -124.542236 0.242625 168.596191
v -114.531250 2.415783 203.961945
v -208.524658 -2.442660 34.778061
v 122.708496 3.668778 198.020172
v 248.623535 0.000000 -69.427299
v 184.416016 0.000000 -180.654144
v 138.763672 2.206768 -120.862350
v 211.899414 -3.073874 -32.436008
v 54.363281 -2.699454 -96.365433
v -17.819824 0.000000 -250.016785
v 70.421631 0.000000 -250.012665
v 24.303467 3.428702 -161.641083
v -132.362793 4.330599 -205.508118
v 92.245605 0.324863 -165.429993
v 216.537888 -43.147278 124.986191
v 144.341568 -43.147278 249.981689
v -144.379639 -43.147278 250.009155
v -216.553711 -43.147278 125.013657
v -288.728027 -43.147278 0.018209
v -216.537842 -43.147278 -124.986343
v -144.347900 -43.147278 -249.990997
v 0.015869 -43.147278 -250.000000
v 144.379883 -43.147278 -250.009155
v 216.553711 -43.147278 -125.013733
v 288.728027 -43.147278 -0.009653
v -0.015869 -43.147278 250.000000
vt 0.896969 0.323300
vt 0.896969 0.323300
vt 0.896969 0.323300
vt 0.896969 0.323300
vt 0.896969 0.323300
vt 0.896969 0.323300
vt 0.896969 0.323300
vt 0.896969 0.323300
vt 0.896969 0.323300
vt 0.896969 0.323300
vt 0.896969 0.323300
vt 0.896969 0.323300
vt 0.896969 0.323300
vt 0.896969 0.323300
vt 0.896969 0.323300
vt 0.896969 0.323300
vt 0.896969 0.323300
vt 0.920094 0.312030
vt 0.920114 0.312497
vt 0.920105 0.313131
vt 0.896969 0.323300
vt 0.896969 0.323300
vt 0.896969 0.323300
vt 0.896969 0.323300
vt 0.920102 0.313153
vt 0.920098 0.312881
vt 0.920091 0.312052
vt 0.917876 0.333095
vt 0.917878 0.333299
vt 0.917875 0.333305
vt 0.917873 0.333101
vt 0.920113 0.312006
vt 0.920123 0.313107
vt 0.920120 0.313099
vt 0.920109 0.311998
vt 0.920122 0.312989
vt 0.896969 0.323300
vt 0.917878 0.333274
vt 0.920119 0.312960
vt 0.920101 0.312665
vt 0.917874 0.333219
vt 0.896969 0.323300
vt 0.920098 0.312713
vt 0.920096 0.312236
vt 0.917874 0.333139
vt 0.896969 0.323300
vt 0.920093 0.312246
vt 0.920114 0.312157
vt 0.896969 0.323300
vt 0.917876 0.333130
vt 0.920111 0.312185
vt 0.920119 0.312611
vt 0.896969 0.323300
vt 0.917877 0.333204
vt 0.920117 0.312571
vt 0.920104 0.312969
vt 0.917875 0.333275
vt 0.896969 0.323300
vt 0.920100 0.312969
vt 0.920102 0.312834
vt 0.917875 0.333250
vt 0.896969 0.323300
vt 0.920099 0.312847
vt 0.920102 0.312866
vt 0.917903 0.333346
vt 0.917906 0.333350
vt 0.920118 0.312880
vt 0.920121 0.312901
vt 0.920113 0.312498
vt 0.917866 0.334007
vt 0.917899 0.334073
vt 0.920106 0.312494
vt 0.920105 0.312491
vt 0.896969 0.323300
vt 0.920105 0.312556
vt 0.896969 0.323300
vt 0.896969 0.323300
vt 0.896969 0.323300
vt 0.920098 0.312313
vt 0.896969 0.323300
vt 0.917903 0.333222
vt 0.920102 0.312307
vt 0.920118 0.312320
vt 0.917906 0.333225
vt 0.896969 0.323300
vt 0.920121 0.312332
vt 0.896969 0.323300
vt 0.896969 0.323300
vt 0.896969 0.323300
vt 0.896969 0.323300
vt 0.920114 0.312562
vt 0.896969 0.323300
vt 0.917866 0.332971
vt 0.920113 0.312562
vt 0.920106 0.312558
vt 0.917899 0.333038
vt 0.896969 0.323300
vt 0.896969 0.323300
vt 0.896969 0.323300
vt 0.896969 0.323300
vt 0.896969 0.323300
vt 0.896969 0.323300
vt 0.896969 0.323300
vt 0.896969 0.323300
vt 0.920095 0.312628
vt 0.896969 0.323300
vt 0.920089 0.312541
vt 0.920115 0.312258
vt 0.896969 0.323300
vt 0.920087 0.312386
vt 0.920114 0.312291
vt 0.920092 0.312397
vt 0.917877 0.333150
vt 0.896969 0.323300
vt 0.920117 0.312700
vt 0.920112 0.312714
vt 0.896969 0.323300
vt 0.917902 0.332732
vt 0.917899 0.333130
vt 0.917904 0.333566
vt 0.917859 0.333255
vt 0.917866 0.332969
vt 0.917864 0.332703
vt 0.920116 0.312562
vt 0.920121 0.312613
vt 0.920113 0.312854
vt 0.920117 0.312835
vt 0.920089 0.312814
vt 0.920093 0.312839
vt 0.896969 0.323300
vt 0.896969 0.323300
vt 0.896969 0.323300
vt 0.896969 0.323300
vt 0.896969 0.323300
vt 0.896969 0.323300
vt 0.896969 0.323300
vt 0.896969 0.323300
vt 0.920114 0.312497
vt 0.920114 0.312562
vt 0.920113 0.312562
vt 0.920113 0.312498
vt 0.917866 0.334007
vt 0.917866 0.332971
vt 0.917899 0.333038
vt 0.917899 0.334073
vt 0.920106 0.312494
vt 0.920106 0.312558
vt 0.920105 0.312556
vt 0.920105 0.312491
vt 0.896969 0.323300
vt 0.896969 0.323300
vt 0.896969 0.323300
vt 0.896969 0.323300
vt 0.896969 0.323300
vt 0.896969 0.323300
vt 0.896969 0.323300
vt 0.896969 0.323300
vt 0.896969 0.323300
vt 0.896969 0.323300
vt 0.896969 0.323300
vt 0.896969 0.323300
vt 0.896969 0.323300
vt 0.896969 0.323300
vt 0.896969 0.323300
vt 0.896969 0.323300
vt 0.896969 0.323300
vt 0.896969 0.323300
vt 0.896969 0.323300
vt 0.896969 0.323300
vt 0.896969 0.323300
vt 0.896969 0.323300
vt 0.896969 0.323300
vt 0.896969 0.323300
vt 0.896969 0.323300
vt 0.989128 0.923703
vt 0.988856 0.923703
vt 0.988855 0.900177
vt 0.989399 0.900177
vt 0.988856 0.923703
vt 0.989064 0.923703
vt 0.989399 0.900177
vt 0.988856 0.900177
vt 0.989943 0.923703
vt 0.990214 0.923703
vt 0.990486 0.900177
vt 0.989943 0.900177
vt 0.990296 0.923703
vt 0.990676 0.923703
vt 0.990757 0.923703
vt 0.991030 0.923703
vt 0.991030 0.900177
vt 0.991030 0.923703
vt 0.991030 0.900177
vt 0.991030 0.923703
vt 0.990743 0.923703
vt 0.990486 0.900177
vt 0.991030 0.900177
vt 0.989942 0.923703
vt 0.989671 0.923703
vt 0.989399 0.900177
vt 0.989943 0.900177
vt 0.989589 0.923703
vt 0.989209 0.923703
vt 0.990258 0.923703
vt 0.991030 0.923703
vt 0.991030 0.900177
vt 0.991030 0.923703
vt 0.989597 0.923703
vt 0.988856 0.923703
vt 0.988856 0.900177
vt 0.988856 0.923703
vt 0.988856 0.900177
vt 0.988856 0.923703
vt 0.988856 0.923703
vn 0.000049 0.000001 -1.000000
vn 0.000049 0.000001 -1.000000
vn 0.000049 0.000001 -1.000000
vn 0.866374 0.000000 0.499395
vn 0.866374 0.000000 0.499395
vn 0.866374 0.000000 0.499395
vn 0.866374 0.000000 0.499395
vn -0.866191 -0.000662 0.499713
vn -0.866191 -0.000662 0.499713
vn -0.866191 -0.000662 0.499713
vn -0.866191 -0.000662 0.499713
vn -0.866530 0.000000 -0.499125
vn -0.866530 0.000000 -0.499125
vn -0.866530 0.000000 -0.499125
vn -0.866530 0.000000 -0.499125
vn 0.027513 0.999495 -0.015882
vn 0.027513 0.999495 -0.015882
vn 0.027513 0.999495 -0.015882
vn -0.164662 0.962806 0.214222
vn -0.164662 0.962806 0.214222
vn -0.164662 0.962806 0.214222
vn -0.164662 0.962806 0.214222
vn 0.000000 1.000000 0.000000
vn 0.000000 1.000000 0.000000
vn 0.000000 1.000000 0.000000
vn 0.145098 0.965490 -0.216277
vn 0.145098 0.965490 -0.216277
vn 0.145098 0.965490 -0.216277
vn 0.145098 0.965490 -0.216277
vn 0.000000 1.000000 -0.000000
vn 0.000000 1.000000 -0.000000
vn 0.000000 1.000000 -0.000000
vn 0.866058 0.000002 -0.499944
vn 0.866058 0.000002 -0.499944
vn 0.866058 0.000002 -0.499944
vn 0.866058 0.000002 -0.499944
vn 0.142833 0.956854 -0.253038
vn 0.142833 0.956854 -0.253038
vn 0.142833 0.956854 -0.253038
vn 0.142833 0.956854 -0.253038
vn -0.121441 0.977426 0.172891
vn -0.121441 0.977425 0.172891
vn -0.121441 0.977426 0.172891
vn -0.121441 0.977425 0.172891
vn -0.060318 0.937463 0.342819
vn -0.060318 0.937463 0.342819
vn -0.060318 0.937463 0.342819
vn -0.060318 0.937463 0.342819
vn -0.041283 0.977315 -0.207727
vn -0.041283 0.977315 -0.207727
vn -0.041283 0.977315 -0.207727
vn -0.041283 0.977315 -0.207727
vn 0.250066 0.944667 -0.212302
vn 0.250066 0.944667 -0.212302
vn 0.250066 0.944667 -0.212302
vn 0.250066 0.944667 -0.212302
vn -0.242863 0.932070 0.268817
vn -0.242863 0.932070 0.268817
vn -0.242863 0.932070 0.268817
vn -0.242863 0.932070 0.268817
vn -0.104935 0.978640 0.176785
vn -0.104935 0.978640 0.176785
vn -0.104935 0.978640 0.176785
vn -0.104935 0.978640 0.176785
vn -0.865741 0.000000 -0.500493
vn -0.865741 0.000000 -0.500493
vn -0.865741 0.000000 -0.500493
vn -0.865741 0.000000 -0.500493
vn -0.866024 0.000000 -0.500002
vn -0.866024 0.000000 -0.500002
vn -0.866024 0.000000 -0.500002
vn -0.866024 0.000000 -0.500002
vn -0.866025 0.000000 -0.500000
vn -0.866025 0.000000 -0.500000
vn -0.866025 0.000000 -0.500000
vn -0.866025 0.000000 -0.500000
vn -0.866028 0.000000 -0.499996
vn -0.866028 0.000000 -0.499996
vn -0.866028 0.000000 -0.499996
vn -0.866028 0.000000 -0.499996
vn 0.865739 0.000000 0.500496
vn 0.865739 0.000000 0.500496
vn 0.865739 0.000000 0.500496
vn 0.865739 0.000000 0.500496
vn 0.866029 0.000000 0.499994
vn 0.866029 0.000000 0.499994
vn 0.866029 0.000000 0.499994
vn 0.866029 0.000000 0.499994
vn 0.866025 0.000000 0.500000
vn 0.866025 0.000000 0.500000
vn 0.866025 0.000000 0.500000
vn 0.866025 0.000000 0.500000
vn 0.866025 0.000000 0.500001
vn 0.866025 0.000000 0.500001
vn 0.866025 0.000000 0.500001
vn 0.866025 0.000000 0.500001
vn 0.281498 0.959013 -0.032462
vn 0.281498 0.959013 -0.032462
vn 0.281498 0.959013 -0.032462
vn 0.281498 0.959013 -0.032462
vn 0.062141 0.997450 0.035111
vn 0.062141 0.997450 0.035111
vn 0.062141 0.997450 0.035111
vn -0.223979 0.971531 -0.077203
vn -0.223979 0.971531 -0.077203
vn -0.223979 0.971531 -0.077203
vn -0.223979 0.971531 -0.077203
vn 0.000000 1.000000 -0.000000
vn 0.000000 1.000000 -0.000000
vn 0.000000 1.000000 -0.000000
vn 0.000000 1.000000 -0.000000
vn -0.303429 0.952078 0.038444
vn -0.303429 0.952078 0.038444
vn -0.303429 0.952078 0.038444
vn -0.303429 0.952078 0.038444
vn 0.238986 0.970966 -0.010567
vn 0.238986 0.970966 -0.010567
vn 0.238986 0.970966 -0.010567
vn 0.238986 0.970966 -0.010567
vn 0.001044 0.000000 0.999999
vn 0.001044 0.000000 0.999999
vn 0.001044 0.000000 1.000000
vn 0.001044 0.000000 0.999999
vn -0.000917 0.000000 1.000000
vn -0.000917 0.000000 1.000000
vn -0.000917 0.000000 1.000000
vn -0.000917 0.000000 1.000000
vn 0.000000 0.000000 1.000000
vn 0.000000 0.000000 1.000000
vn 0.000000 0.000000 1.000000
vn 0.000000 0.000000 1.000000
vn -0.000001 -0.000006 1.000000
vn -0.000001 -0.000006 1.000000
vn -0.000001 -0.000006 1.000000
vn -0.000001 -0.000006 1.000000
vn 0.000002 -0.000006 1.000000
vn 0.000002 -0.000006 1.000000
vn 0.000002 -0.000006 1.000000
vn 0.000002 -0.000006 1.000000
vn 0.077856 0.996774 -0.019503
vn 0.077856 0.996774 -0.019503
vn 0.077856 0.996774 -0.019503
vn 0.050144 0.996273 -0.070186
vn 0.050144 0.996273 -0.070186
vn 0.050144 0.996273 -0.070186
vn -0.866077 -0.000155 0.499910
vn -0.866077 -0.000155 0.499910
vn -0.866077 -0.000155 0.499910
vn -0.866077 -0.000155 0.499910
vn -0.866062 -0.000697 0.499936
vn -0.866062 -0.000697 0.499936
vn -0.866062 -0.000697 0.499936
vn -0.866062 -0.000697 0.499936
vn 0.017021 0.999248 -0.034844
vn 0.017021 0.999248 -0.034844
vn 0.017021 0.999248 -0.034844
vn 0.071018 0.993471 0.089283
vn 0.071018 0.993471 0.089283
vn 0.071018 0.993471 0.089283
vn -0.082488 0.995570 -0.045133
vn -0.082488 0.995570 -0.045133
vn -0.082488 0.995570 -0.045133
vn 0.005592 0.998004 -0.062908
vn 0.005592 0.998004 -0.062908
vn 0.005592 0.998004 -0.062908
vn 0.042459 0.996956 0.065387
vn 0.042459 0.996956 0.065387
vn 0.042459 0.996956 0.065387
vn -0.023286 0.999470 -0.022762
vn -0.023286 0.999470 -0.022762
vn -0.023286 0.999470 -0.022762
vn -0.048908 0.998404 0.028228
vn -0.048908 0.998404 0.028228
vn -0.048908 0.998404 0.028228
vn -0.002343 0.999615 0.027639
vn -0.002343 0.999615 0.027639
vn -0.002343 0.999615 0.027639
vn -0.059817 0.997610 -0.034581
vn -0.059817 0.997610 -0.034581
vn -0.059817 0.997610 -0.034581
vn -0.052648 0.998151 0.030386
vn -0.052648 0.998151 0.030386
vn -0.052648 0.998151 0.030386
vn 0.016776 0.999150 0.037643
vn 0.016776 0.999150 0.037643
vn 0.016776 0.999150 0.037643
vn -0.039399 0.999202 -0.006577
vn -0.039399 0.999202 -0.006577
vn -0.039399 0.999202 -0.006577
vn -0.039399 0.999202 -0.006577
vn 0.000055 0.998628 0.052356
vn 0.000055 0.998628 0.052356
vn 0.000055 0.998628 0.052356
vn 0.127817 0.990371 0.053172
vn 0.127817 0.990372 0.053172
vn 0.127817 0.990372 0.053172
vn -0.022621 0.996651 -0.078578
vn -0.022621 0.996651 -0.078578
vn -0.022621 0.996651 -0.078578
vn 0.048038 0.995374 -0.083204
vn 0.048038 0.995374 -0.083204
vn 0.048038 0.995374 -0.083204
vn -0.063443 0.997408 -0.033953
vn -0.063443 0.997408 -0.033953
vn -0.063443 0.997408 -0.033953
vn -0.016024 0.996596 -0.080864
vn -0.016024 0.996596 -0.080864
vn -0.016024 0.996596 -0.080864
vn -0.067072 0.992929 0.097944
vn -0.067072 0.992929 0.097944
vn -0.067072 0.992929 0.097944
vn 0.070752 0.996660 0.040783
vn 0.070752 0.996660 0.040783
vn 0.070752 0.996660 0.040783
vn -0.032129 0.999311 -0.018574
vn -0.032129 0.999311 -0.018574
vn -0.032129 0.999311 -0.018574
vn 0.866056 0.000002 -0.499947
vn 0.866056 0.000002 -0.499947
vn 0.866056 0.000002 -0.499947
vn 0.866056 0.000002 -0.499947
vn 0.011361 0.999762 0.018627
vn 0.011361 0.999762 0.018627
vn 0.011361 0.999762 0.018627
vn 0.011361 0.999762 0.018627
vn 0.866057 0.000003 -0.499945
vn 0.866057 0.000003 -0.499945
vn 0.866057 0.000003 -0.499945
vn 0.866057 0.000003 -0.499945
vn -0.033941 0.997290 -0.065274
vn -0.033941 0.997290 -0.065274
vn -0.033941 0.997290 -0.065274
vn 0.037874 0.999275 0.003831
vn 0.037874 0.999275 0.003831
vn 0.037874 0.999275 0.003831
vn 0.000889 0.999464 -0.032725
vn 0.000889 0.999464 -0.032725
vn 0.000889 0.999464 -0.032725
vn -0.052828 0.998138 0.030496
vn -0.052828 0.998138 0.030496
vn -0.052828 0.998138 0.030496
vn 0.039632 0.998853 0.026871
vn 0.039632 0.998853 0.026871
vn 0.039632 0.998853 0.026871
vn 0.011540 0.996036 0.088195
vn 0.011540 0.996036 0.088195
vn 0.011540 0.996036 0.088195
vn -0.075394 0.995322 -0.060416
vn -0.075394 0.995322 -0.060416
vn -0.075394 0.995322 -0.060416
vn 0.047021 0.998577 0.025148
vn 0.047021 0.998577 0.025148
vn 0.047021 0.998577 0.025148
vn 0.000047 -0.000001 -1.000000
vn 0.000047 -0.000001 -1.000000
vn 0.000047 -0.000001 -1.000000
vn 0.000047 -0.000001 -1.000000
vn 0.000047 0.000000 -1.000000
vn 0.000047 0.000000 -1.000000
vn 0.000047 0.000000 -1.000000
vn 0.000047 0.000000 -1.000000
vn 0.000002 0.999248 -0.038769
vn 0.000002 0.999248 -0.038769
vn 0.000002 0.999248 -0.038769
vn 0.032614 0.999188 0.023659
vn 0.032614 0.999188 0.023659
vn 0.032614 0.999188 0.023659
vn 0.049459 0.996267 0.070755
vn 0.049459 0.996267 0.070755
vn 0.049459 0.996267 0.070755
vn 0.000002 0.999248 -0.038769
vn 0.000002 0.999248 -0.038769
vn 0.000002 0.999248 -0.038769
vn -0.064530 0.995655 0.067132
vn -0.064530 0.995655 0.067132
vn -0.064530 0.995655 0.067132
vn -0.113616 0.993402 0.015613
vn -0.113616 0.993402 0.015613
vn -0.113616 0.993402 0.015613
vn -0.114260 0.991268 -0.065814
vn -0.114260 0.991268 -0.065814
vn -0.114260 0.991268 -0.065814
vn 0.052537 0.997891 0.038112
vn 0.052537 0.997891 0.038112
vn 0.052537 0.997891 0.038112
vn 0.000005 0.995301 -0.096829
vn 0.000005 0.995301 -0.096829
vn 0.000005 0.995301 -0.096829
vn 0.000046 0.000010 -1.000000
vn 0.000046 0.000010 -1.000000
vn 0.000046 0.000010 -1.000000
vn 0.000046 0.000010 -1.000000
vn -0.053937 0.998444 0.014137
vn -0.053937 0.998444 0.014137
vn -0.053937 0.998444 0.014137
vn -0.023111 0.999569 -0.018085
vn -0.023111 0.999569 -0.018085
vn -0.023111 0.999569 -0.018085
vn 0.866098 -0.001402 0.499872
vn 0.866098 -0.001402 0.499872
vn 0.866098 -0.001402 0.499872
vn 0.866098 -0.001402 0.499872
vn -0.866045 0.002092 0.499962
vn -0.866045 0.002092 0.499962
vn -0.866045 0.002092 0.499962
vn -0.866045 0.002092 0.499962
vn -0.865933 0.004862 -0.500136
vn -0.865933 0.004862 -0.500136
vn -0.865933 0.004862 -0.500136
vn -0.865933 0.004862 -0.500136
vn -0.865285 0.008642 -0.501206
vn -0.865285 0.008642 -0.501206
vn -0.865285 0.008642 -0.501206
vn -0.866012 0.005436 -0.499993
vn -0.866012 0.005436 -0.499993
vn -0.866012 0.005436 -0.499993
vn -0.875647 0.056370 -0.479650
vn -0.875647 0.056370 -0.479650
vn -0.875647 0.056370 -0.479650
vn -0.866119 0.002948 -0.499830
vn -0.866119 0.002948 -0.499830
vn -0.866119 0.002948 -0.499830
vn -0.866119 0.002948 -0.499830
vn -0.000010 -0.000939 -1.000000
vn -0.000010 -0.000939 -1.000000
vn -0.000010 -0.000939 -1.000000
vn -0.000010 -0.000939 -1.000000
vn 0.866025 0.000251 -0.500001
vn 0.866025 0.000251 -0.500001
vn 0.866025 0.000251 -0.500001
vn 0.866025 0.000251 -0.500001
vn 0.865889 -0.000343 0.500236
vn 0.865889 -0.000343 0.500236
vn 0.865889 -0.000343 0.500236
vn 0.865889 -0.000343 0.500236
vn 0.866004 -0.000222 0.500036
vn 0.866005 -0.000222 0.500036
vn 0.866005 -0.000222 0.500036
vn 0.866025 -0.000314 0.500000
vn 0.866025 -0.000314 0.500000
vn 0.866025 -0.000314 0.500000
vn 0.865063 -0.004671 0.501642
vn 0.865063 -0.004671 0.501642
vn 0.865063 -0.004671 0.501642
vn 0.866031 0.000627 -0.499990
vn 0.866031 0.000627 -0.499990
vn 0.866031 0.000627 -0.499990
vn 0.866039 0.000814 -0.499977
vn 0.866039 0.000814 -0.499977
vn 0.866039 0.000814 -0.499977
vn 0.866039 0.000814 -0.499977
vn -0.000029 -0.000193 -1.000000
vn -0.000029 -0.000193 -1.000000
vn -0.000029 -0.000193 -1.000000
vn -0.000029 -0.000193 -1.000000
vn -0.000081 -0.000929 -1.000000
vn -0.000081 -0.000929 -1.000000
vn -0.000081 -0.000929 -1.000000
vn 0.000130 -0.000743 -1.000000
vn 0.000130 -0.000743 -1.000000
vn 0.000130 -0.000743 -1.000000
vn -0.865995 0.004472 0.500033
vn -0.865995 0.004472 0.500033
vn -0.865995 0.004472 0.500033
vn -0.865995 0.004472 0.500033
vn -0.866193 0.003378 0.499698
vn -0.866193 0.003378 0.499698
vn -0.866193 0.003378 0.499698
vn 0.000402 -0.000493 1.000000
vn 0.000402 -0.000493 1.000000
vn 0.000402 -0.000493 1.000000
vn 0.000402 -0.000493 1.000000
vn -0.000165 -0.001464 0.999999
vn -0.000165 -0.001464 0.999999
vn -0.000165 -0.001464 0.999999
vn -0.000165 -0.001464 0.999999
vn 0.000031 0.000137 1.000000
vn 0.000031 0.000137 1.000000
vn 0.000031 0.000137 1.000000
vn -0.000002 0.000209 1.000000
vn -0.000002 0.000209 1.000000
vn -0.000002 0.000209 1.000000
vn 0.001353 0.003241 0.999994
vn 0.001353 0.003241 0.999994
vn 0.001353 0.003241 0.999994
vn 0.000000 1.000000 0.000000
vn 0.000000 1.000000 0.000000
vn 0.000000 1.000000 0.000000
vn 0.000000 1.000000 0.000000
vn 0.000000 1.000000 0.000000
vn 0.000000 1.000000 0.000000
vn 0.000000 1.000000 0.000000
vn 0.000000 1.000000 0.000000
vn 0.000000 1.000000 0.000000
vn 0.000000 1.000000 0.000000
vn 0.000000 1.000000 0.000000
vn 0.000000 1.000000 -0.000000
vn 0.000000 1.000000 -0.000000
vn 0.000000 1.000000 -0.000000
vn 0.000000 1.000000 -0.000000
vn 0.000000 1.000000 0.000000
vn 0.000000 1.000000 0.000000
vn 0.000000 1.000000 0.000000
vn 0.000000 1.000000 0.000000
vn 0.000000 1.000000 0.000000
vn 0.000000 1.000000 0.000000
vn 0.000000 1.000000 0.000000
vn 0.000000 1.000000 0.000000
s off
f 78/168/1 47/101/2 46/100/3
f 8/17/4 4/4/5 30/76/6 29/74/7
f 5/5/8 64/150/9 49/103/10 31/77/11
f 11/22/12 1/7/13 37/87/14 36/85/15
f 2/11/16 75/165/17 74/164/18
f 10/18/19 7/27/20 20/47/21 19/44/22
f 50/104/23 4/9/24 56/114/25
f 8/32/26 9/35/27 22/51/28 21/48/29
f 16/38/30 27/61/31 25/57/32
f 2/2/33 74/163/34 43/97/35 38/89/36
f 16/39/37 13/34/38 12/33/39 15/36/40
f 18/43/41 28/63/42 27/60/43 17/40/44
f 20/47/45 18/43/46 17/40/47 19/44/48
f 22/51/49 55/111/50 54/108/51 21/48/52
f 24/55/53 16/39/54 15/36/55 23/52/56
f 26/59/57 11/25/58 14/20/59 25/56/60
f 28/63/61 26/59/62 25/56/63 27/60/64
f 32/78/65 6/6/66 12/24/67 33/80/68
f 12/26/69 13/64/70 34/82/71 33/79/72
f 13/65/73 14/66/74 35/84/75 34/81/76
f 14/67/77 11/68/78 36/86/79 35/83/80
f 39/90/81 3/3/82 7/15/83 40/92/84
f 7/19/85 10/69/86 41/94/87 40/91/88
f 10/70/89 9/71/90 42/96/91 41/93/92
f 9/72/93 8/73/94 29/75/95 42/95/96
f 58/105/97 24/112/98 23/110/99 59/107/100
f 66/154/101 69/157/102 59/117/103
f 56/115/104 54/125/105 55/124/106 57/116/107
f 58/119/108 57/122/109 55/121/110 24/120/111
f 51/126/112 50/127/113 56/115/114 57/116/115
f 52/128/116 53/129/117 58/105/118 59/107/119
f 52/130/120 5/133/121 31/132/122 60/131/123
f 30/134/124 4/137/125 50/136/126 61/135/127
f 50/138/128 51/141/129 62/140/130 61/139/131
f 51/142/132 53/145/133 63/144/134 62/143/135
f 53/146/136 52/149/137 60/148/138 63/147/139
f 70/158/140 52/106/141 59/117/142
f 12/23/143 68/156/144 15/37/145
f 48/102/146 65/152/147 6/6/148 32/78/149
f 49/103/150 64/150/151 65/152/152 48/102/153
f 67/155/154 66/154/155 15/37/156
f 68/156/157 71/159/158 15/37/159
f 71/159/160 67/155/161 15/37/162
f 69/157/163 70/158/164 59/117/165
f 66/154/166 59/117/167 23/53/168
f 15/37/169 66/154/170 23/53/171
f 64/151/172 67/155/173 65/153/174
f 64/151/175 66/154/176 67/155/177
f 6/13/178 68/156/179 12/23/180
f 65/153/181 68/156/182 6/13/183
f 64/151/184 69/157/185 66/154/186
f 5/8/187 70/158/188 69/157/189 64/151/190
f 5/8/191 52/106/192 70/158/193
f 65/153/194 71/159/195 68/156/196
f 65/153/197 67/155/198 71/159/199
f 21/49/200 72/160/201 8/16/202
f 56/114/203 72/160/204 54/109/205
f 54/109/206 72/160/207 21/49/208
f 56/114/209 4/9/210 72/160/211
f 8/16/212 72/160/213 4/9/214
f 7/14/215 3/10/216 76/166/217
f 44/98/218 73/161/219 3/3/220 39/90/221
f 75/165/222 76/166/223 73/162/224 74/164/225
f 43/97/226 74/163/227 73/161/228 44/98/229
f 18/42/230 77/167/231 28/62/232
f 20/46/233 76/166/234 18/42/235
f 7/14/236 76/166/237 20/46/238
f 76/166/239 3/10/240 73/162/241
f 18/42/242 76/166/243 75/165/244
f 28/62/245 77/167/246 80/172/247
f 18/42/248 75/165/249 77/167/250
f 2/11/251 80/172/252 82/174/253
f 2/2/254 38/89/255 45/99/256 79/170/257
f 79/170/258 45/99/259 47/101/260 78/168/261
f 78/169/262 80/172/263 79/171/264
f 28/62/265 78/169/266 26/58/267
f 77/167/268 82/174/269 80/172/270
f 79/171/271 80/172/272 2/11/273
f 26/58/274 81/173/275 11/21/276
f 28/62/277 80/172/278 78/169/279
f 11/21/280 81/173/281 1/12/282
f 26/58/283 78/169/284 81/173/285
f 1/12/286 81/173/287 78/169/288
f 78/168/289 46/100/290 37/88/291 1/1/292
f 75/165/293 82/174/294 77/167/295
f 2/11/296 82/174/297 75/165/298
f 29/175/299 30/176/300 84/177/301 83/178/302
f 31/179/303 49/180/304 86/181/305 85/182/306
f 32/183/307 33/184/308 88/185/309 87/186/310
f 33/184/311 34/187/312 88/185/313
f 34/187/314 35/188/315 88/185/316
f 35/188/317 36/189/318 88/185/319
f 36/189/320 37/190/321 89/191/322 88/185/323
f 37/190/324 46/192/325 90/193/326 89/191/327
f 38/194/328 43/195/329 92/196/330 91/197/331
f 39/198/332 40/199/333 83/200/334 93/201/335
f 40/199/336 41/202/337 83/200/338
f 41/202/339 42/203/340 83/200/341
f 42/203/342 29/175/343 83/178/344
f 43/195/345 44/204/346 92/196/347
f 44/204/348 39/198/349 93/201/350 92/196/351
f 45/205/352 38/194/353 91/197/354 90/206/355
f 46/192/356 47/207/357 90/193/358
f 47/207/359 45/205/360 90/206/361
f 48/208/362 32/183/363 87/186/364 86/181/365
f 49/180/366 48/208/367 86/181/368
f 60/209/369 31/179/370 85/182/371 94/210/372
f 30/176/373 61/211/374 94/212/375 84/177/376
f 61/211/377 62/213/378 94/212/379
f 62/213/380 63/214/381 94/212/382
f 63/214/383 60/209/384 94/210/385
f 16/38/386 25/57/387 14/30/388 13/29/389
f 55/113/390 17/41/391 27/61/392 24/54/393
f 24/54/394 27/61/395 16/38/396
f 53/118/397 51/123/398 57/122/399 58/119/400
f 22/50/401 19/45/402 17/41/403 55/113/404
f 9/28/405 10/31/406 19/45/407 22/50/408
