# This file uses meters as units for non-parametric coordinates.

v -144.348282 -0.000004 -250.000916
v -192.496033 -0.000004 166.668640
v 192.474396 -0.000004 166.644226
v 144.379547 -0.000004 -250.019226
v -288.728119 -0.000004 0.008240
v -240.601563 -0.000004 -83.328171
v 144.347824 -0.000004 249.980774
v 288.727814 -0.000004 -0.028381
v 240.611618 -0.000004 -83.358688
v 192.495590 -0.000004 -166.688599
v -192.475006 -0.000004 -166.664246
v -48.105713 -0.000004 -250.007019
v -144.380005 -0.000004 249.999084
v 48.105183 -0.000004 249.986877
v -240.612228 -0.000004 83.338196
v -48.137424 -0.000004 249.992981
v 240.601120 -0.000004 83.308334
v 48.136936 -0.000004 -250.013123
v -144.348282 -43.147232 -250.000916
v -144.347992 -43.147278 -249.990997
v -288.728119 -43.147232 0.008240
v -288.728027 -43.147278 0.018211
v -144.380005 -43.147232 249.999084
v -144.379730 -43.147278 250.009155
v 144.347824 -43.147232 249.980774
v 144.348145 -43.147278 249.990845
v 288.727814 -43.147232 -0.028381
v 288.728027 -43.147255 -0.018326
v 144.379547 -43.147232 -250.019226
v 144.379883 -43.147278 -250.009155
v -48.137424 -13.673493 249.992981
v 48.105183 -21.573635 249.986542
v 144.347824 -10.478088 249.980774
v 192.474396 -21.573635 166.644562
v 240.601120 -26.515488 83.308334
v 288.727814 -21.573635 -0.028381
v 240.611618 -13.673493 -83.358688
v 192.495590 -21.573635 -166.688660
v 144.379547 -10.478088 -250.019226
v 48.136936 -21.573635 -250.013123
v -48.105679 -27.091427 -250.007019
v -144.348282 -21.573635 -250.000916
v -192.475006 -13.673493 -166.664246
v -240.601563 -21.573635 -83.328171
v -288.728119 -10.478088 0.008240
v -240.612228 -21.573635 83.338196
v -192.496033 -27.264591 166.668976
v -144.380005 -21.573635 249.999084
v -0.000243 -0.000004 -0.010063
vt 0.894842 0.322597
vt 0.894842 0.322597
vt 0.894842 0.322597
vt 0.894842 0.322597
vt 0.894842 0.322597
vt 0.894842 0.322597
vt 0.894842 0.322597
vt 0.894842 0.322597
vt 0.894842 0.322597
vt 0.894842 0.322597
vt 0.894842 0.322597
vt 0.894842 0.322597
vt 0.894842 0.322597
vt 0.894842 0.322597
vt 0.894842 0.322597
vt 0.894842 0.322597
vt 0.894842 0.322597
vt 0.894842 0.322597
vt 0.894842 0.322597
vt 0.894842 0.322597
vt 0.894842 0.322597
vt 0.894842 0.322597
vt 0.894842 0.322597
vt 0.894842 0.322597
vt 0.894842 0.322597
vt 0.894842 0.322597
vt 0.894842 0.322597
vt 0.894842 0.322597
vt 0.894842 0.322597
vt 0.894842 0.322597
vt 0.894842 0.322597
vt 0.894842 0.322597
vt 0.894842 0.322597
vt 0.894842 0.322597
vt 0.894842 0.322597
vt 0.894842 0.322597
vt 0.989469 0.923948
vt 0.989469 0.923948
vt 0.989469 0.898753
vt 0.989469 0.898753
vt 0.989469 0.923948
vt 0.989469 0.898753
vt 0.989468 0.923948
vt 0.989468 0.898753
vt 0.989467 0.923948
vt 0.989467 0.898753
vt 0.989467 0.923948
vt 0.989467 0.898753
vt 0.989466 0.923948
vt 0.989466 0.898753
vt 0.989466 0.923948
vt 0.989466 0.898753
vt 0.989465 0.923948
vt 0.989465 0.898753
vt 0.989465 0.923948
vt 0.989465 0.898753
vt 0.989465 0.923948
vt 0.989465 0.898753
vt 0.989465 0.923948
vt 0.989465 0.898753
vt 0.989466 0.923948
vt 0.989466 0.898753
vt 0.989466 0.923948
vt 0.989466 0.898753
vt 0.989467 0.923948
vt 0.989467 0.898753
vt 0.989467 0.923948
vt 0.989467 0.898753
vt 0.989468 0.923948
vt 0.989468 0.898753
vt 0.989469 0.923948
vt 0.989469 0.898753
vt 0.894932 0.321840
vt 0.894932 0.321840
vt 0.894930 0.321840
vt 0.894928 0.321840
vt 0.894928 0.321840
vt 0.894928 0.321840
vt 0.894928 0.321840
vt 0.894928 0.321840
vt 0.894928 0.321840
vt 0.894928 0.321840
vt 0.894928 0.321840
vt 0.894928 0.321840
vt 0.894928 0.321840
vt 0.894928 0.321840
vt 0.894928 0.321840
vt 0.894928 0.321840
vt 0.894932 0.321840
vt 0.894928 0.321840
vt 0.894932 0.321840
vn -0.865970 0.000000 -0.500096
vn -0.865970 0.000000 -0.500096
vn -0.865970 0.000000 -0.500096
vn -0.865970 0.000000 -0.500096
vn -0.866001 0.000000 0.500041
vn -0.866001 0.000000 0.500041
vn -0.866002 0.000000 0.500041
vn -0.866001 0.000000 0.500041
vn 0.000064 0.000000 1.000000
vn 0.000064 0.000000 1.000000
vn 0.000064 0.000000 1.000000
vn 0.000064 0.000000 1.000000
vn 0.865970 0.000005 0.500096
vn 0.865970 0.000005 0.500095
vn 0.865970 0.000005 0.500095
vn 0.865970 0.000005 0.500096
vn 0.866001 0.000000 -0.500042
vn 0.866001 0.000000 -0.500042
vn 0.866001 0.000000 -0.500042
vn 0.866001 0.000000 -0.500042
vn -0.000064 0.000000 -1.000000
vn -0.000064 0.000000 -1.000000
vn -0.000064 0.000000 -1.000000
vn -0.000064 0.000000 -1.000000
vn 0.865970 0.000000 0.500095
vn 0.865970 0.000000 0.500095
vn 0.865970 0.000000 0.500095
vn 0.865970 0.000000 0.500095
vn 0.865969 0.000003 0.500098
vn 0.865969 0.000003 0.500098
vn 0.865969 0.000003 0.500098
vn 0.865969 0.000003 0.500098
vn 0.000062 -0.000010 1.000000
vn 0.000062 -0.000010 1.000000
vn 0.000062 -0.000010 1.000000
vn 0.000062 -0.000010 1.000000
vn 0.000065 -0.000010 1.000000
vn 0.000065 -0.000010 1.000000
vn 0.000065 -0.000010 1.000000
vn 0.000065 -0.000010 1.000000
vn 0.866003 0.000001 -0.500040
vn 0.866003 0.000001 -0.500040
vn 0.866003 0.000001 -0.500040
vn 0.866003 0.000001 -0.500040
vn 0.866001 0.000001 -0.500043
vn 0.866001 0.000001 -0.500043
vn 0.866001 0.000001 -0.500043
vn 0.866001 0.000001 -0.500043
vn -0.000063 -0.000000 -1.000000
vn -0.000063 -0.000000 -1.000000
vn -0.000063 -0.000000 -1.000000
vn -0.000063 -0.000000 -1.000000
vn -0.000063 -0.000000 -1.000000
vn -0.000063 -0.000000 -1.000000
vn -0.000063 -0.000000 -1.000000
vn -0.000063 -0.000000 -1.000000
vn -0.865970 0.000000 -0.500096
vn -0.865970 0.000000 -0.500096
vn -0.865970 0.000000 -0.500096
vn -0.865970 0.000000 -0.500096
vn -0.865969 0.000000 -0.500097
vn -0.865969 0.000000 -0.500097
vn -0.865969 0.000000 -0.500097
vn -0.865969 0.000000 -0.500097
vn -0.866002 0.000003 0.500041
vn -0.866002 0.000003 0.500041
vn -0.866002 0.000003 0.500041
vn -0.866002 0.000003 0.500041
vn -0.866002 0.000003 0.500041
vn -0.866002 0.000003 0.500041
vn -0.866002 0.000003 0.500041
vn -0.866002 0.000003 0.500041
vn 0.000073 0.000401 1.000000
vn 0.000073 0.000401 1.000000
vn 0.000073 0.000401 1.000000
vn 0.000073 0.000401 1.000000
vn 0.000129 0.000308 1.000000
vn 0.000129 0.000308 1.000000
vn 0.000129 0.000308 1.000000
vn 0.000129 0.000308 1.000000
vn 0.865951 0.000163 0.500128
vn 0.865951 0.000163 0.500128
vn 0.865951 0.000163 0.500128
vn 0.865951 0.000163 0.500128
vn 0.865971 0.000272 0.500093
vn 0.865971 0.000272 0.500093
vn 0.865971 0.000272 0.500093
vn 0.865971 0.000272 0.500093
vn 0.865991 0.000242 0.500059
vn 0.865991 0.000242 0.500059
vn 0.865991 0.000242 0.500059
vn 0.865991 0.000242 0.500059
vn 0.865967 -0.000222 -0.500102
vn 0.865967 -0.000222 -0.500102
vn 0.865967 -0.000222 -0.500102
vn 0.865967 -0.000222 -0.500102
vn 0.866003 -0.000183 -0.500038
vn 0.866003 -0.000183 -0.500038
vn 0.866003 -0.000183 -0.500038
vn 0.866003 -0.000183 -0.500038
vn 0.866019 -0.000144 -0.500012
vn 0.866019 -0.000144 -0.500012
vn 0.866019 -0.000144 -0.500012
vn 0.866019 -0.000144 -0.500012
vn -0.000132 -0.000308 -1.000000
vn -0.000132 -0.000308 -1.000000
vn -0.000132 -0.000308 -1.000000
vn -0.000132 -0.000308 -1.000000
vn -0.000055 -0.000531 -1.000000
vn -0.000055 -0.000531 -1.000000
vn -0.000055 -0.000531 -1.000000
vn -0.000055 -0.000531 -1.000000
vn 0.000013 -0.000460 -1.000000
vn 0.000013 -0.000460 -1.000000
vn 0.000013 -0.000460 -1.000000
vn 0.000013 -0.000460 -1.000000
vn -0.866007 -0.000242 -0.500032
vn -0.866007 -0.000242 -0.500032
vn -0.866007 -0.000242 -0.500032
vn -0.866007 -0.000242 -0.500032
vn -0.865968 -0.000201 -0.500100
vn -0.865968 -0.000201 -0.500100
vn -0.865968 -0.000201 -0.500100
vn -0.865968 -0.000201 -0.500100
vn -0.865953 -0.000155 -0.500126
vn -0.865953 -0.000155 -0.500126
vn -0.865953 -0.000155 -0.500126
vn -0.865953 -0.000155 -0.500126
vn -0.866018 0.000152 0.500012
vn -0.866018 0.000152 0.500012
vn -0.866018 0.000152 0.500012
vn -0.866018 0.000152 0.500012
vn -0.866000 0.000257 0.500044
vn -0.866000 0.000257 0.500044
vn -0.866000 0.000257 0.500044
vn -0.866000 0.000257 0.500044
vn -0.865983 0.000223 0.500074
vn -0.865983 0.000223 0.500074
vn -0.865983 0.000223 0.500074
vn -0.865983 0.000223 0.500074
vn -0.000080 0.000467 1.000000
vn -0.000080 0.000467 1.000000
vn -0.000080 0.000467 1.000000
vn -0.000080 0.000467 1.000000
vn 0.000000 1.000000 0.000000
vn 0.000000 1.000000 0.000000
vn 0.000000 1.000000 0.000000
vn 0.000000 1.000000 0.000000
vn 0.000000 1.000000 0.000000
vn 0.000000 1.000000 0.000000
vn 0.000000 1.000000 -0.000000
vn 0.000000 1.000000 -0.000000
vn 0.000000 1.000000 -0.000000
vn 0.000000 1.000000 0.000000
vn 0.000000 1.000000 0.000000
vn 0.000000 1.000000 0.000000
vn 0.000000 1.000000 0.000000
vn 0.000000 1.000000 0.000000
vn 0.000000 1.000000 0.000000
vn 0.000000 1.000000 0.000000
vn 0.000000 1.000000 0.000000
vn 0.000000 1.000000 0.000000
vn 0.000000 1.000000 -0.000000
vn 0.000000 1.000000 -0.000000
vn 0.000000 1.000000 -0.000000
vn 0.000000 1.000000 0.000000
vn 0.000000 1.000000 0.000000
vn 0.000000 1.000000 0.000000
vn 0.000000 1.000000 0.000000
vn 0.000000 1.000000 0.000000
vn 0.000000 1.000000 0.000000
vn 0.000000 1.000000 0.000000
vn 0.000000 1.000000 0.000000
vn 0.000000 1.000000 0.000000
vn 0.000000 1.000000 0.000000
vn 0.000000 1.000000 0.000000
vn 0.000000 1.000000 0.000000
vn 0.000000 1.000000 0.000000
vn 0.000000 1.000000 0.000000
vn 0.000000 1.000000 0.000000
vn 0.000000 1.000000 -0.000000
vn 0.000000 1.000000 -0.000000
vn 0.000000 1.000000 -0.000000
vn 0.000000 1.000000 0.000000
vn 0.000000 1.000000 0.000000
vn 0.000000 1.000000 0.000000
vn 0.000000 1.000000 0.000000
vn 0.000000 1.000000 0.000000
vn 0.000000 1.000000 0.000000
vn 0.000000 1.000000 0.000000
vn 0.000000 1.000000 0.000000
vn 0.000000 1.000000 0.000000
vn 0.000000 1.000000 0.000000
vn 0.000000 1.000000 0.000000
vn 0.000000 1.000000 0.000000
vn 0.000000 1.000000 0.000000
vn 0.000000 1.000000 0.000000
vn 0.000000 1.000000 0.000000
s off
f 11/1/1 1/2/2 42/3/3 43/4/4
f 15/5/5 5/6/6 45/7/7 46/8/8
f 16/9/9 13/10/10 48/11/11 31/12/12
f 3/13/13 7/14/14 33/15/15 34/16/16
f 9/17/17 8/18/18 36/19/19 37/20/20
f 18/21/21 4/22/22 39/23/23 40/24/24
f 8/18/25 17/25/26 35/26/27 36/19/28
f 17/25/29 3/13/30 34/16/31 35/26/32
f 7/14/33 14/27/34 32/28/35 33/15/36
f 14/27/37 16/9/38 31/12/39 32/28/40
f 4/22/41 10/29/42 38/30/43 39/23/44
f 10/29/45 9/17/46 37/20/47 38/30/48
f 1/2/49 12/31/50 41/32/51 42/3/52
f 12/31/53 18/21/54 40/24/55 41/32/56
f 5/6/57 6/33/58 44/34/59 45/7/60
f 6/33/61 11/1/62 43/4/63 44/34/64
f 13/10/65 2/35/66 47/36/67 48/11/68
f 2/35/69 15/5/70 46/8/71 47/36/72
f 32/37/73 31/38/74 24/39/75 26/40/76
f 33/41/77 32/37/78 26/40/79 25/42/80
f 34/43/81 33/41/82 25/42/83 26/44/84
f 35/45/85 34/43/86 26/44/87 28/46/88
f 36/47/89 35/45/90 28/46/91 27/48/92
f 37/49/93 36/47/94 27/48/95 28/50/96
f 38/51/97 37/49/98 28/50/99 30/52/100
f 39/53/101 38/51/102 30/52/103 29/54/104
f 40/55/105 39/53/106 29/54/107 30/56/108
f 41/57/109 40/55/110 30/56/111 20/58/112
f 42/59/113 41/57/114 20/58/115 19/60/116
f 43/61/117 42/59/118 19/60/119 20/62/120
f 44/63/121 43/61/122 20/62/123 22/64/124
f 45/65/125 44/63/126 22/64/127 21/66/128
f 46/67/129 45/65/130 21/66/131 22/68/132
f 47/69/133 46/67/134 22/68/135 24/70/136
f 48/71/137 47/69/138 24/70/139 23/72/140
f 31/38/141 48/71/142 23/72/143 24/39/144
f 16/73/145 14/74/146 49/75/147
f 14/74/148 7/76/149 49/75/150
f 7/76/151 3/77/152 49/75/153
f 15/78/154 2/79/155 49/75/156
f 5/80/157 15/78/158 49/75/159
f 17/81/160 8/82/161 49/75/162
f 6/83/163 5/80/164 49/75/165
f 8/82/166 9/84/167 49/75/168
f 9/84/169 10/85/170 49/75/171
f 11/86/172 6/83/173 49/75/174
f 1/87/175 11/86/176 49/75/177
f 10/85/178 4/88/179 49/75/180
f 12/89/181 1/87/182 49/75/183
f 13/90/184 16/73/185 49/75/186
f 2/79/187 13/90/188 49/75/189
f 3/77/190 17/81/191 49/75/192
f 4/88/193 18/91/194 49/75/195
f 18/91/196 12/89/197 49/75/198
