# This file uses meters as units for non-parametric coordinates.

v 46.724628 -23.703300 -80.929588
v -46.724713 -23.703300 -80.929596
v -93.449444 -23.703300 -0.000015
v -46.724713 -23.703300 80.929588
v 46.724628 -23.703300 80.929596
v 93.449238 -23.703300 0.000000
v 46.724628 23.703300 -80.929588
v -46.724713 23.703300 -80.929596
v -93.449444 23.703300 -0.000015
v -46.724713 23.703300 80.929588
v 46.724628 23.703300 80.929596
v 93.449238 23.703300 0.000000
v 34.572040 -23.703300 -59.880558
v -34.572125 -23.703300 -59.880569
v -69.144268 -23.703300 -0.000011
v -34.572125 -23.703300 59.880562
v 34.572040 -23.703300 59.880570
v 69.144062 -23.703300 0.000000
v 34.572040 23.703300 -59.880558
v -34.572125 23.703300 -59.880569
v -69.144268 23.703300 -0.000011
v -34.572125 23.703300 59.880562
v 34.572040 23.703300 59.880570
v 69.144062 23.703300 0.000000
v 28.818866 -12.107493 -49.915466
v -28.818829 -12.107493 -49.915478
v 0.000019 -12.107493 0.000000
v -57.637554 -12.107493 -0.000009
v -28.818829 -12.107493 49.915474
v 28.818866 -12.107493 49.915474
v 57.637470 -12.107493 0.000000
v 28.818866 12.107493 -49.915466
v -28.818829 12.107493 -49.915478
v 0.000019 12.107493 0.000000
v -57.637554 12.107493 -0.000009
v -28.818829 12.107493 49.915474
v 28.818866 12.107493 49.915474
v 57.637470 12.107493 0.000000
vt 0.662118 0.258389
vt 0.662118 0.258389
vt 0.662118 0.258389
vt 0.662118 0.258389
vt 0.662118 0.258389
vt 0.662118 0.258389
vt 0.662118 0.258389
vt 0.662118 0.258389
vt 0.662118 0.258389
vt 0.662118 0.258389
vt 0.662118 0.258389
vt 0.662118 0.258389
vt 0.662118 0.258389
vt 0.662118 0.258389
vt 0.662118 0.258389
vt 0.662118 0.258389
vt 0.662118 0.258389
vt 0.662118 0.258389
vt 0.662118 0.258389
vt 0.662118 0.258389
vt 0.662118 0.258389
vt 0.662118 0.258389
vt 0.662118 0.258389
vt 0.662118 0.258389
vt 0.662118 0.258389
vt 0.662118 0.258389
vt 0.708453 0.254612
vt 0.708453 0.254612
vt 0.708453 0.254612
vt 0.708453 0.254612
vt 0.708453 0.254612
vt 0.708453 0.254612
vt 0.708453 0.254612
vt 0.708453 0.254612
vt 0.708453 0.254612
vt 0.708453 0.254612
vt 0.708453 0.254612
vt 0.708453 0.254612
vt 0.708453 0.254612
vt 0.708453 0.254612
vt 0.708453 0.254612
vt 0.708453 0.254612
vt 0.708453 0.254612
vt 0.708453 0.254612
vt 0.708453 0.254612
vt 0.708453 0.254612
vt 0.708453 0.254612
vt 0.708453 0.254612
vt 0.708453 0.254612
vt 0.708453 0.254612
vt 0.708453 0.254612
vt 0.708453 0.254612
vt 0.708453 0.254612
vt 0.708453 0.254612
vt 0.708453 0.254612
vt 0.708453 0.254612
vt 0.708453 0.254612
vt 0.708453 0.254612
vt 0.708453 0.254612
vt 0.708453 0.254612
vt 0.708453 0.254612
vt 0.708453 0.254612
vt 0.708453 0.254612
vt 0.708453 0.254612
vt 0.708453 0.254612
vt 0.708453 0.254612
vt 0.662118 0.258389
vt 0.708453 0.254612
vt 0.708453 0.254612
vt 0.708453 0.254612
vt 0.708453 0.254612
vt 0.662118 0.258389
vt 0.708453 0.254612
vt 0.708453 0.254612
vt 0.708453 0.254612
vt 0.708453 0.254612
vt 0.662118 0.258389
vt 0.708453 0.254612
vt 0.708453 0.254612
vt 0.708453 0.254612
vt 0.708453 0.254612
vt 0.662118 0.258389
vt 0.708453 0.254612
vt 0.662118 0.258389
vt 0.708453 0.254612
vt 0.662118 0.258389
vt 0.708453 0.254612
vt 0.708453 0.254612
vt 0.708453 0.254612
vt 0.708453 0.254612
vt 0.708453 0.254612
vt 0.708453 0.254612
vt 0.708453 0.254612
vt 0.708453 0.254612
vt 0.708453 0.254612
vt 0.708453 0.254612
vt 0.708453 0.254612
vt 0.708453 0.254612
vt 0.708453 0.254612
vt 0.708453 0.254612
vt 0.708453 0.254612
vt 0.662118 0.258389
vt 0.708453 0.254612
vt 0.708453 0.254612
vt 0.708453 0.254612
vt 0.708453 0.254612
vt 0.662118 0.258389
vt 0.708453 0.254612
vt 0.708453 0.254612
vt 0.708453 0.254612
vt 0.708453 0.254612
vt 0.662118 0.258389
vt 0.708453 0.254612
vt 0.708453 0.254612
vt 0.708453 0.254612
vt 0.708453 0.254612
vt 0.662118 0.258389
vt 0.708453 0.254612
vt 0.662118 0.258389
vt 0.708453 0.254612
vt 0.662118 0.258389
vt 0.708453 0.254612
vn 0.000000 0.000000 -1.000000
vn 0.000000 0.000000 -1.000000
vn 0.000000 0.000000 -1.000000
vn 0.000000 0.000000 -1.000000
vn -0.866025 0.000000 -0.500000
vn -0.866025 0.000000 -0.500000
vn -0.866025 0.000000 -0.500000
vn -0.866025 0.000000 -0.500000
vn -0.866025 0.000000 0.500000
vn -0.866025 0.000000 0.500000
vn -0.866025 0.000000 0.500000
vn -0.866025 0.000000 0.500000
vn -0.000000 0.000000 1.000000
vn -0.000000 0.000000 1.000000
vn -0.000000 0.000000 1.000000
vn -0.000000 0.000000 1.000000
vn 0.866026 0.000000 0.499999
vn 0.866026 0.000000 0.499999
vn 0.866026 0.000000 0.499999
vn 0.866026 0.000000 0.499999
vn 0.866026 0.000000 -0.499999
vn 0.866026 0.000000 -0.499999
vn 0.866026 0.000000 -0.499999
vn 0.866026 0.000000 -0.499999
vn 0.000000 -1.000000 0.000000
vn 0.000000 -1.000000 0.000000
vn 0.000000 -1.000000 0.000000
vn 0.000000 -1.000000 0.000000
vn 0.000000 -1.000000 0.000000
vn 0.000000 -1.000000 0.000000
vn 0.000000 -1.000000 0.000000
vn 0.000000 -1.000000 0.000000
vn 0.000000 -1.000000 0.000000
vn 0.000000 -1.000000 -0.000000
vn 0.000000 -1.000000 0.000000
vn 0.000000 -1.000000 0.000000
vn 0.000000 -1.000000 -0.000000
vn 0.000000 -1.000000 -0.000000
vn 0.000000 -1.000000 0.000000
vn 0.000000 -1.000000 0.000000
vn 0.000000 -1.000000 -0.000000
vn 0.000000 -1.000000 0.000000
vn 0.000000 1.000000 0.000000
vn 0.000000 1.000000 -0.000000
vn 0.000000 1.000000 0.000000
vn 0.000000 1.000000 -0.000000
vn 0.000000 1.000000 -0.000000
vn 0.000000 1.000000 0.000000
vn 0.000000 1.000000 -0.000000
vn 0.000000 1.000000 0.000000
vn 0.000000 1.000000 0.000000
vn 0.000000 1.000000 0.000000
vn 0.000000 1.000000 -0.000000
vn 0.000000 1.000000 0.000000
vn 0.000000 1.000000 -0.000000
vn 0.000000 1.000000 0.000000
vn 0.000000 1.000000 0.000000
vn 0.000000 1.000000 0.000000
vn 0.000000 1.000000 0.000000
vn 0.000000 1.000000 0.000000
vn 0.000000 -1.000000 0.000000
vn 0.000000 -1.000000 0.000000
vn 0.000000 -1.000000 0.000000
vn 0.000000 -1.000000 0.000000
vn 0.000000 -1.000000 0.000000
vn 0.000000 -1.000000 0.000000
vn 0.000000 -1.000000 0.000000
vn 0.000000 -1.000000 0.000000
vn 0.000000 -1.000000 -0.000000
vn 0.000000 -1.000000 -0.000000
vn 0.000000 -1.000000 -0.000000
vn 0.000000 -1.000000 -0.000000
vn 0.000000 -1.000000 -0.000000
vn 0.000000 -1.000000 -0.000000
vn 0.000000 -1.000000 -0.000000
vn 0.000000 -1.000000 -0.000000
vn 0.000000 -1.000000 -0.000000
vn 0.000000 -1.000000 -0.000000
vn 0.000000 -1.000000 -0.000000
vn 0.000000 -1.000000 -0.000000
vn 0.000000 -1.000000 0.000000
vn 0.000000 -1.000000 0.000000
vn 0.000000 -1.000000 0.000000
vn 0.000000 -1.000000 0.000000
vn 0.000000 1.000000 0.000000
vn 0.000000 1.000000 0.000000
vn 0.000000 1.000000 0.000000
vn 0.000000 1.000000 0.000000
vn 0.000000 1.000000 0.000000
vn 0.000000 1.000000 0.000000
vn 0.000000 1.000000 0.000000
vn 0.000000 1.000000 0.000000
vn 0.000000 1.000000 -0.000000
vn 0.000000 1.000000 -0.000000
vn 0.000000 1.000000 -0.000000
vn 0.000000 1.000000 -0.000000
vn 0.000000 1.000000 -0.000000
vn 0.000000 1.000000 -0.000000
vn 0.000000 1.000000 -0.000000
vn 0.000000 1.000000 -0.000000
vn 0.000000 1.000000 0.000000
vn 0.000000 1.000000 0.000000
vn 0.000000 1.000000 0.000000
vn 0.000000 1.000000 0.000000
vn 0.000000 1.000000 0.000000
vn 0.000000 1.000000 0.000000
vn 0.000000 1.000000 0.000000
vn 0.000000 1.000000 0.000000
vn -0.000000 -0.651764 0.758422
vn -0.000000 -0.651764 0.758422
vn -0.000000 -0.651764 0.758422
vn -0.000000 -0.651764 0.758422
vn 0.656820 -0.651753 0.379216
vn 0.656820 -0.651753 0.379216
vn 0.656820 -0.651753 0.379216
vn 0.656820 -0.651753 0.379216
vn 0.656821 -0.651752 -0.379216
vn 0.656821 -0.651752 -0.379216
vn 0.656821 -0.651752 -0.379216
vn 0.656821 -0.651752 -0.379216
vn 0.000000 -0.651764 -0.758422
vn 0.000000 -0.651764 -0.758422
vn 0.000000 -0.651764 -0.758422
vn 0.000000 -0.651764 -0.758422
vn -0.656816 -0.651761 -0.379212
vn -0.656816 -0.651761 -0.379212
vn -0.656816 -0.651761 -0.379212
vn -0.656815 -0.651761 -0.379212
vn -0.656816 -0.651759 0.379212
vn -0.656816 -0.651759 0.379212
vn -0.656816 -0.651759 0.379212
vn -0.656816 -0.651759 0.379212
vn -0.000000 0.651764 0.758422
vn -0.000000 0.651764 0.758422
vn -0.000000 0.651764 0.758422
vn -0.000000 0.651764 0.758422
vn 0.656818 0.651757 0.379214
vn 0.656818 0.651757 0.379214
vn 0.656818 0.651757 0.379215
vn 0.656818 0.651757 0.379215
vn 0.656820 0.651753 -0.379216
vn 0.656820 0.651753 -0.379216
vn 0.656820 0.651753 -0.379216
vn 0.656820 0.651753 -0.379216
vn 0.000000 0.651764 -0.758422
vn 0.000000 0.651764 -0.758422
vn 0.000000 0.651764 -0.758422
vn 0.000000 0.651764 -0.758422
vn -0.656816 0.651759 -0.379212
vn -0.656816 0.651759 -0.379212
vn -0.656816 0.651759 -0.379212
vn -0.656816 0.651759 -0.379212
vn -0.656816 0.651761 0.379212
vn -0.656816 0.651761 0.379212
vn -0.656816 0.651761 0.379212
vn -0.656815 0.651761 0.379212
s off
f 1/7/1 2/8/2 8/15/3 7/14/4
f 2/8/5 3/9/6 9/16/7 8/15/8
f 3/9/9 4/10/10 10/17/11 9/16/12
f 4/10/13 5/11/14 11/18/15 10/17/16
f 5/11/17 6/12/18 12/19/19 11/18/20
f 6/12/21 1/13/22 7/20/23 12/19/24
f 26/114/25 25/92/26 27/94/27
f 28/109/28 26/41/29 27/95/30
f 29/104/31 28/43/32 27/96/33
f 30/99/34 29/44/35 27/97/36
f 31/88/37 30/45/38 27/98/39
f 25/93/40 31/46/41 27/27/42
f 32/56/43 33/80/44 34/62/45
f 33/81/46 35/75/47 34/61/48
f 35/76/49 36/70/50 34/60/51
f 36/71/52 37/65/53 34/59/54
f 37/66/55 38/54/56 34/28/57
f 38/55/58 32/47/59 34/63/60
f 2/2/61 1/1/62 13/121/63 14/119/64
f 3/3/65 2/2/66 14/119/67 15/117/68
f 4/4/69 3/3/70 15/117/71 16/112/72
f 5/5/73 4/4/74 16/112/75 17/107/76
f 6/6/77 5/5/78 17/107/79 18/102/80
f 1/1/81 6/6/82 18/102/83 13/121/84
f 7/25/85 8/24/86 20/84/87 19/86/88
f 8/24/89 9/23/90 21/82/91 20/84/92
f 9/23/93 10/22/94 22/77/95 21/82/96
f 10/22/97 11/21/98 23/72/99 22/77/100
f 11/21/101 12/26/102 24/67/103 23/72/104
f 12/26/105 7/25/106 19/86/107 24/67/108
f 14/29/109 13/122/110 25/91/111 26/115/112
f 15/31/113 14/120/114 26/116/115 28/110/116
f 16/32/117 15/118/118 28/111/119 29/105/120
f 17/33/121 16/113/122 29/106/123 30/100/124
f 18/34/125 17/108/126 30/101/127 31/89/128
f 13/30/129 18/103/130 31/90/131 25/42/132
f 19/35/133 20/85/134 33/79/135 32/57/136
f 20/36/137 21/83/138 35/74/139 33/48/140
f 21/37/141 22/78/142 36/69/143 35/49/144
f 22/38/145 23/73/146 37/64/147 36/50/148
f 23/39/149 24/68/150 38/53/151 37/51/152
f 24/40/153 19/87/154 32/58/155 38/52/156
