# This file uses meters as units for non-parametric coordinates.

v 23.776428 -12.967457 -7.725430
v 20.225441 -12.967457 -14.694641
v 14.694641 -12.967457 -20.225437
v 7.725430 -12.967457 -23.776428
v 0.000000 -12.967457 -25.000015
v -7.725430 -12.967457 -23.776428
v -14.694637 -12.967457 -20.225433
v -20.225433 -12.967457 -14.694633
v -23.776421 -12.967457 -7.725426
v -25.000008 -12.967457 0.000000
v -23.776421 -12.967457 7.725426
v -20.225430 -12.967457 14.694633
v -14.694633 -12.967457 20.225426
v -7.725426 -12.967457 23.776413
v -0.000001 -12.967457 25.000000
v 7.725424 -12.967457 23.776413
v 14.694633 -12.967457 20.225426
v 20.225426 -12.967457 14.694633
v 23.776413 -12.967457 7.725426
v 25.000000 -12.967457 0.000000
v 23.776428 12.967457 -7.725430
v 20.225441 12.967457 -14.694641
v 14.694641 12.967457 -20.225437
v 7.725430 12.967457 -23.776428
v 0.000000 12.967457 -25.000015
v -7.725430 12.967457 -23.776428
v -14.694637 12.967457 -20.225433
v -20.225433 12.967457 -14.694633
v -23.776421 12.967457 -7.725426
v -25.000008 12.967457 0.000000
v -23.776421 12.967457 7.725426
v -20.225430 12.967457 14.694633
v -14.694633 12.967457 20.225426
v -7.725426 12.967457 23.776413
v -0.000001 12.967457 25.000000
v 7.725424 12.967457 23.776413
v 14.694633 12.967457 20.225426
v 20.225426 12.967457 14.694633
v 23.776413 12.967457 7.725426
v 25.000000 12.967457 0.000000
vt 0.712748 0.987661
vt 0.712738 0.987657
vt 0.712738 0.987621
vt 0.712748 0.987624
vt 0.712731 0.987652
vt 0.712731 0.987615
vt 0.712728 0.987646
vt 0.712728 0.987609
vt 0.712729 0.987639
vt 0.712729 0.987603
vt 0.712733 0.987633
vt 0.712733 0.987597
vt 0.712741 0.987629
vt 0.712741 0.987592
vt 0.712752 0.987625
vt 0.712752 0.987589
vt 0.712764 0.987624
vt 0.712764 0.987587
vt 0.712777 0.987624
vt 0.712777 0.987588
vt 0.712788 0.987626
vt 0.712788 0.987590
vt 0.712798 0.987630
vt 0.712798 0.987594
vt 0.712805 0.987635
vt 0.712805 0.987599
vt 0.712808 0.987642
vt 0.712808 0.987605
vt 0.712807 0.987648
vt 0.712807 0.987611
vt 0.712803 0.987654
vt 0.712803 0.987617
vt 0.712795 0.987658
vt 0.712795 0.987622
vt 0.712784 0.987662
vt 0.712784 0.987625
vt 0.712772 0.987663
vt 0.712772 0.987627
vt 0.712760 0.987663
vt 0.712760 0.987627
vn 0.951057 0.000000 -0.309016
vn 0.809017 0.000000 -0.587785
vn 0.809017 0.000000 -0.587785
vn 0.951057 0.000000 -0.309016
vn 0.809017 0.000000 -0.587785
vn 0.587785 0.000000 -0.809017
vn 0.587785 0.000000 -0.809017
vn 0.809017 0.000000 -0.587785
vn 0.587785 0.000000 -0.809017
vn 0.309017 0.000000 -0.951057
vn 0.309017 0.000000 -0.951057
vn 0.587785 0.000000 -0.809017
vn 0.309017 0.000000 -0.951057
vn 0.000000 0.000000 -1.000000
vn 0.000000 0.000000 -1.000000
vn 0.309017 0.000000 -0.951057
vn 0.000000 0.000000 -1.000000
vn -0.309017 0.000000 -0.951056
vn -0.309017 0.000000 -0.951056
vn 0.000000 0.000000 -1.000000
vn -0.309017 0.000000 -0.951056
vn -0.587786 0.000000 -0.809017
vn -0.587786 0.000000 -0.809017
vn -0.309017 0.000000 -0.951056
vn -0.587786 0.000000 -0.809017
vn -0.809017 0.000000 -0.587785
vn -0.809017 0.000000 -0.587785
vn -0.587786 0.000000 -0.809017
vn -0.809017 0.000000 -0.587785
vn -0.951057 0.000000 -0.309017
vn -0.951057 0.000000 -0.309017
vn -0.809017 0.000000 -0.587785
vn -0.951057 0.000000 -0.309017
vn -1.000000 0.000000 0.000000
vn -1.000000 0.000000 0.000000
vn -0.951057 0.000000 -0.309017
vn -1.000000 0.000000 0.000000
vn -0.951057 0.000000 0.309017
vn -0.951057 0.000000 0.309017
vn -1.000000 0.000000 0.000000
vn -0.951057 0.000000 0.309017
vn -0.809017 0.000000 0.587785
vn -0.809017 0.000000 0.587785
vn -0.951057 0.000000 0.309017
vn -0.809017 0.000000 0.587785
vn -0.587785 0.000000 0.809017
vn -0.587785 0.000000 0.809017
vn -0.809017 0.000000 0.587785
vn -0.587785 0.000000 0.809017
vn -0.309017 0.000000 0.951057
vn -0.309017 0.000000 0.951057
vn -0.587785 0.000000 0.809017
vn -0.309017 0.000000 0.951057
vn 0.000000 0.000000 1.000000
vn 0.000000 0.000000 1.000000
vn -0.309017 0.000000 0.951057
vn 0.000000 0.000000 1.000000
vn 0.309017 0.000000 0.951057
vn 0.309017 0.000000 0.951057
vn 0.000000 0.000000 1.000000
vn 0.309017 0.000000 0.951057
vn 0.587785 0.000000 0.809017
vn 0.587785 0.000000 0.809017
vn 0.309017 0.000000 0.951057
vn 0.587785 0.000000 0.809017
vn 0.809017 0.000000 0.587785
vn 0.809017 0.000000 0.587785
vn 0.587785 0.000000 0.809017
vn 0.809017 0.000000 0.587785
vn 0.951057 0.000000 0.309017
vn 0.951057 0.000000 0.309017
vn 0.809017 0.000000 0.587785
vn 0.951057 0.000000 0.309017
vn 1.000000 0.000000 0.000001
vn 1.000000 0.000000 0.000001
vn 0.951057 0.000000 0.309017
vn 1.000000 0.000000 0.000001
vn 0.951057 0.000000 -0.309016
vn 0.951057 0.000000 -0.309016
vn 1.000000 0.000000 0.000001
vn 0.000000 -1.000000 0.000000
vn 0.000000 -1.000000 0.000000
vn 0.000000 -1.000000 0.000000
vn 0.000000 -1.000000 0.000000
vn 0.000000 -1.000000 0.000000
vn 0.000000 -1.000000 0.000000
vn 0.000000 -1.000000 0.000000
vn 0.000000 -1.000000 0.000000
vn 0.000000 -1.000000 0.000000
vn 0.000000 -1.000000 0.000000
vn 0.000000 -1.000000 0.000000
vn 0.000000 -1.000000 0.000000
vn 0.000000 -1.000000 0.000000
vn 0.000000 -1.000000 0.000000
vn 0.000000 -1.000000 0.000000
vn 0.000000 -1.000000 0.000000
vn 0.000000 -1.000000 0.000000
vn 0.000000 -1.000000 0.000000
vn 0.000000 -1.000000 0.000000
vn 0.000000 -1.000000 0.000000
vn 0.000000 1.000000 0.000000
vn 0.000000 1.000000 0.000000
vn 0.000000 1.000000 0.000000
vn 0.000000 1.000000 0.000000
vn 0.000000 1.000000 0.000000
vn 0.000000 1.000000 0.000000
vn 0.000000 1.000000 0.000000
vn 0.000000 1.000000 0.000000
vn 0.000000 1.000000 0.000000
vn 0.000000 1.000000 0.000000
vn 0.000000 1.000000 0.000000
vn 0.000000 1.000000 0.000000
vn 0.000000 1.000000 0.000000
vn 0.000000 1.000000 0.000000
vn 0.000000 1.000000 0.000000
vn 0.000000 1.000000 0.000000
vn 0.000000 1.000000 0.000000
vn 0.000000 1.000000 0.000000
vn 0.000000 1.000000 0.000000
vn 0.000000 1.000000 0.000000
s off
f 1/1/1 2/2/2 22/3/3 21/4/4
f 2/2/5 3/5/6 23/6/7 22/3/8
f 3/5/9 4/7/10 24/8/11 23/6/12
f 4/7/13 5/9/14 25/10/15 24/8/16
f 5/9/17 6/11/18 26/12/19 25/10/20
f 6/11/21 7/13/22 27/14/23 26/12/24
f 7/13/25 8/15/26 28/16/27 27/14/28
f 8/15/29 9/17/30 29/18/31 28/16/32
f 9/17/33 10/19/34 30/20/35 29/18/36
f 10/19/37 11/21/38 31/22/39 30/20/40
f 11/21/41 12/23/42 32/24/43 31/22/44
f 12/23/45 13/25/46 33/26/47 32/24/48
f 13/25/49 14/27/50 34/28/51 33/26/52
f 14/27/53 15/29/54 35/30/55 34/28/56
f 15/29/57 16/31/58 36/32/59 35/30/60
f 16/31/61 17/33/62 37/34/63 36/32/64
f 17/33/65 18/35/66 38/36/67 37/34/68
f 18/35/69 19/37/70 39/38/71 38/36/72
f 19/37/73 20/39/74 40/40/75 39/38/76
f 20/39/77 1/1/78 21/4/79 40/40/80
f 19/37/81 18/35/82 17/33/83 16/31/84 15/29/85 14/27/86 13/25/87 12/23/88 11/21/89 10/19/90 9/17/91 8/15/92 7/13/93 6/11/94 5/9/95 4/7/96 3/5/97 2/2/98 1/1/99 20/39/100
f 40/40/101 21/4/102 22/3/103 23/6/104 24/8/105 25/10/106 26/12/107 27/14/108 28/16/109 29/18/110 30/20/111 31/22/112 32/24/113 33/26/114 34/28/115 35/30/116 36/32/117 37/34/118 38/36/119 39/38/120
