# This file uses meters as units for non-parametric coordinates.

v -82.832336 105.288185 38.462955
v 82.832336 105.288185 38.462955
v -82.832336 252.465820 38.462955
v 82.832336 252.465820 38.462955
v -82.832336 252.465820 -38.462955
v 82.832336 252.465820 -38.462955
v -82.832336 105.288185 -38.462955
v 82.832336 105.288185 -38.462955
v 0.000000 0.000000 -38.462955
v 0.000000 0.000000 38.462955
vt 0.711259 0.993722
vt 0.711259 0.993722
vt 0.711259 0.993722
vt 0.711259 0.993722
vt 0.711259 0.993722
vt 0.711259 0.993722
vt 0.711259 0.993722
vt 0.711259 0.993722
vt 0.711259 0.993722
vt 0.711259 0.993722
vt 0.711259 0.993722
vt 0.711259 0.993722
vt 0.711259 0.993722
vt 0.711259 0.993722
vt 0.711259 0.993722
vt 0.711259 0.993722
vt 0.711259 0.993722
vn 0.000000 1.000000 0.000000
vn 0.000000 1.000000 0.000000
vn 0.000000 1.000000 0.000000
vn 0.000000 1.000000 0.000000
vn -0.785934 -0.618310 0.000000
vn -0.785934 -0.618310 0.000000
vn -0.785934 -0.618310 0.000000
vn -0.785934 -0.618310 0.000000
vn 1.000000 0.000000 0.000000
vn 1.000000 0.000000 0.000000
vn 1.000000 0.000000 0.000000
vn 1.000000 0.000000 0.000000
vn -1.000000 0.000000 0.000000
vn -1.000000 0.000000 0.000000
vn -1.000000 0.000000 0.000000
vn -1.000000 0.000000 0.000000
vn 0.785934 -0.618310 0.000000
vn 0.785934 -0.618310 0.000000
vn 0.785934 -0.618310 0.000000
vn 0.785934 -0.618310 0.000000
vn 0.000000 0.000000 -1.000000
vn 0.000000 0.000000 -1.000000
vn 0.000000 0.000000 -1.000000
vn 0.000000 0.000000 -1.000000
vn 0.000000 0.000000 1.000000
vn 0.000000 0.000000 1.000000
vn 0.000000 0.000000 1.000000
vn 0.000000 0.000000 -1.000000
vn 0.000000 0.000000 -1.000000
vn 0.000000 0.000000 -1.000000
vn 0.000000 0.000000 1.000000
vn 0.000000 0.000000 1.000000
vn 0.000000 0.000000 1.000000
vn 0.000000 0.000000 1.000000
s off
f 3/3/1 4/4/2 6/6/3 5/5/4
f 7/7/5 9/15/6 10/17/7 1/9/8
f 2/2/9 8/11/10 6/12/11 4/4/12
f 7/13/13 1/1/14 3/3/15 5/14/16
f 10/17/17 9/15/18 8/8/19 2/10/20
f 6/6/21 8/8/22 7/7/23 5/5/24
f 2/2/25 1/1/26 10/16/27
f 7/7/28 8/8/29 9/15/30
f 3/3/31 1/1/32 2/2/33 4/4/34
