# This file uses meters as units for non-parametric coordinates.

v -9.944578 -12.967457 23.272659
v 9.944578 -12.967457 23.272659
v -9.944578 12.967457 23.272659
v 9.944578 12.967457 23.272659
v -9.944578 12.967457 -23.272659
v 9.944578 12.967457 -23.272659
v -9.944578 -12.967457 -23.272659
v 9.944578 -12.967457 -23.272659
vt 0.232357 0.279572
vt 0.233388 0.277206
vt 0.233388 0.282732
vt 0.232357 0.285098
vt 0.244552 0.283929
vt 0.243521 0.286295
vt 0.244552 0.278403
vt 0.243521 0.280769
vn 0.000000 0.000000 1.000000
vn 0.000000 0.000000 1.000000
vn 0.000000 0.000000 1.000000
vn 0.000000 0.000000 1.000000
vn 0.000000 1.000000 0.000000
vn 0.000000 1.000000 0.000000
vn 0.000000 1.000000 0.000000
vn 0.000000 1.000000 0.000000
vn 0.000000 0.000000 -1.000000
vn 0.000000 0.000000 -1.000000
vn 0.000000 0.000000 -1.000000
vn 0.000000 0.000000 -1.000000
vn 0.000000 -1.000000 0.000000
vn 0.000000 -1.000000 0.000000
vn 0.000000 -1.000000 0.000000
vn 0.000000 -1.000000 0.000000
vn 1.000000 0.000000 0.000000
vn 1.000000 0.000000 0.000000
vn 1.000000 0.000000 0.000000
vn 1.000000 0.000000 0.000000
vn -1.000000 0.000000 0.000000
vn -1.000000 0.000000 0.000000
vn -1.000000 0.000000 0.000000
vn -1.000000 0.000000 0.000000
s off
f 1/1/1 2/2/2 4/3/3 3/4/4
f 3/4/5 4/3/6 6/5/7 5/6/8
f 5/6/9 6/5/10 8/7/11 7/8/12
f 7/8/13 8/7/14 2/2/15 1/1/16
f 2/2/17 8/7/18 6/5/19 4/3/20
f 7/8/21 1/1/22 3/4/23 5/6/24
