# This file uses meters as units for non-parametric coordinates.

v -58.156364 -57.034222 79.098488
v -4.741803 -57.034222 59.091282
v 55.884777 -57.034222 79.098488
v 49.756134 -57.034222 19.496925
v 91.125458 -57.034222 -29.360672
v 28.939800 -57.034222 -44.569016
v -1.135629 -57.034222 -96.391823
v -38.423462 -57.034222 -44.569016
v -93.397110 -57.034222 -29.360672
v -59.239861 -57.034222 19.496925
v -46.009953 29.731750 62.982178
v -2.909676 29.731750 46.836304
v 46.010082 29.731750 62.982178
v 41.064644 29.731750 14.888550
v 74.445595 29.731750 -24.534058
v 24.268023 29.731750 -36.806274
v 0.000042 29.731750 -78.621460
v -30.087408 29.731750 -36.806274
v -74.445595 29.731750 -24.534058
v -46.884155 29.731750 14.888550
v 0.000012 29.731750 0.000000
v -3.843904 21.171562 53.306030
v -52.370708 21.171562 71.482300
v -53.354961 21.171562 17.333984
v -84.386574 21.171562 -27.052856
v -34.443409 21.171562 -40.869141
v -0.567799 21.171562 -87.947632
v 26.755619 21.171562 -40.869141
v 83.250809 21.171562 -27.052856
v 45.667076 21.171562 17.333984
v 51.234882 21.171562 71.482300
vt 0.741583 0.827359
vt 0.741466 0.827311
vt 0.741465 0.827279
vt 0.741574 0.827323
vt 0.741326 0.827341
vt 0.741334 0.827307
vt 0.741351 0.827225
vt 0.741357 0.827199
vt 0.741266 0.827123
vt 0.741278 0.827103
vt 0.741409 0.827103
vt 0.741412 0.827084
vt 0.741486 0.827006
vt 0.741484 0.826994
vt 0.741561 0.827114
vt 0.741554 0.827094
vt 0.741682 0.827152
vt 0.741667 0.827130
vt 0.741596 0.827242
vt 0.741587 0.827215
vt 0.741561 0.827295
vt 0.741464 0.827256
vt 0.741466 0.827161
vt 0.741348 0.827281
vt 0.741368 0.827184
vt 0.741298 0.827100
vt 0.741417 0.827083
vt 0.741481 0.827003
vt 0.741543 0.827092
vt 0.741643 0.827124
vt 0.741572 0.827199
vn 0.346280 0.159550 0.924464
vn 0.346280 0.159550 0.924464
vn 0.346280 0.159550 0.924464
vn 0.346280 0.159550 0.924464
vn -0.307928 0.185889 0.933073
vn -0.307928 0.185889 0.933073
vn -0.307928 0.185889 0.933073
vn -0.307928 0.185889 0.933073
vn 0.987590 0.119811 -0.101549
vn 0.987590 0.119811 -0.101549
vn 0.987590 0.119811 -0.101549
vn 0.987589 0.119811 -0.101549
vn 0.755731 0.139205 0.639916
vn 0.755731 0.139205 0.639916
vn 0.755731 0.139205 0.639916
vn 0.755731 0.139205 0.639916
vn 0.235254 0.139156 -0.961921
vn 0.235254 0.139156 -0.961921
vn 0.235254 0.139156 -0.961921
vn 0.235254 0.139156 -0.961921
vn 0.858664 0.119813 -0.498339
vn 0.858664 0.119813 -0.498339
vn 0.858664 0.119813 -0.498339
vn 0.858664 0.119813 -0.498339
vn -0.797564 0.185890 -0.573878
vn -0.797564 0.185890 -0.573878
vn -0.797564 0.185890 -0.573878
vn -0.797564 0.185890 -0.573878
vn -0.263222 0.159520 -0.951455
vn -0.263222 0.159520 -0.951455
vn -0.263222 0.159520 -0.951456
vn -0.263222 0.159520 -0.951455
vn -0.802882 0.200744 0.561322
vn -0.802882 0.200744 0.561322
vn -0.802882 0.200744 0.561322
vn -0.802882 0.200744 0.561322
vn -0.979485 0.200730 0.017804
vn -0.979485 0.200730 0.017804
vn -0.979485 0.200730 0.017804
vn -0.979485 0.200730 0.017804
vn 0.000000 1.000000 0.000000
vn 0.000000 1.000000 0.000000
vn 0.000000 1.000000 0.000000
vn 0.000000 1.000000 0.000000
vn 0.000000 1.000000 0.000000
vn 0.000000 1.000000 0.000000
vn 0.000000 1.000000 0.000000
vn 0.000000 1.000000 0.000000
vn 0.000000 1.000000 0.000000
vn 0.000000 1.000000 0.000000
vn 0.000000 1.000000 0.000000
vn 0.000000 1.000000 0.000000
vn 0.000000 1.000000 0.000000
vn 0.000000 1.000000 -0.000000
vn 0.000000 1.000000 0.000000
vn 0.000000 1.000000 -0.000000
vn 0.000000 1.000000 -0.000000
vn 0.000000 1.000000 0.000000
vn 0.000000 1.000000 -0.000000
vn 0.000000 1.000000 0.000000
vn 0.000000 1.000000 0.000000
vn 0.000000 1.000000 0.000000
vn 0.000000 1.000000 0.000000
vn 0.000000 1.000000 0.000000
vn 0.000000 1.000000 0.000000
vn 0.000000 1.000000 0.000000
vn 0.000000 1.000000 0.000000
vn 0.000000 1.000000 0.000000
vn 0.000000 1.000000 0.000000
vn 0.000000 1.000000 0.000000
vn 0.291503 0.556273 0.778194
vn 0.291503 0.556273 0.778194
vn 0.291503 0.556273 0.778194
vn 0.291503 0.556273 0.778194
vn -0.795653 0.605580 0.014463
vn -0.795653 0.605580 0.014463
vn -0.795653 0.605580 0.014463
vn -0.795653 0.605580 0.014463
vn -0.645222 0.616607 0.451092
vn -0.645222 0.616607 0.451092
vn -0.645222 0.616607 0.451092
vn -0.645222 0.616607 0.451092
vn -0.229332 0.510129 -0.828960
vn -0.229332 0.510129 -0.828960
vn -0.229332 0.510129 -0.828960
vn -0.229332 0.510129 -0.828960
vn -0.668028 0.568058 -0.480675
vn -0.668028 0.568058 -0.480675
vn -0.668028 0.568058 -0.480675
vn -0.668028 0.568058 -0.480675
vn 0.776801 0.439693 -0.450833
vn 0.776801 0.439693 -0.450833
vn 0.776801 0.439693 -0.450833
vn 0.776801 0.439693 -0.450833
vn 0.209901 0.468329 -0.858259
vn 0.209901 0.468329 -0.858259
vn 0.209901 0.468329 -0.858259
vn 0.209901 0.468329 -0.858259
vn 0.655873 0.511284 0.555355
vn 0.655873 0.511284 0.555355
vn 0.655873 0.511284 0.555355
vn 0.655873 0.511284 0.555355
vn 0.887738 0.451209 -0.091281
vn 0.887738 0.451209 -0.091281
vn 0.887738 0.451209 -0.091281
vn 0.887738 0.451209 -0.091281
vn -0.250500 0.600941 0.759026
vn -0.250500 0.600941 0.759026
vn -0.250500 0.600941 0.759025
vn -0.250500 0.600941 0.759025
vn 0.000000 -1.000000 -0.000000
vn 0.000000 -1.000000 -0.000000
vn 0.000000 -1.000000 -0.000000
vn 0.000000 -1.000000 -0.000000
vn 0.000000 -1.000000 -0.000000
vn 0.000000 -1.000000 -0.000000
vn 0.000000 -1.000000 -0.000000
vn 0.000000 -1.000000 -0.000000
vn 0.000000 -1.000000 -0.000000
vn 0.000000 -1.000000 -0.000000
s off
f 1/1/1 2/2/2 22/3/3 23/4/4
f 2/2/5 3/5/6 31/6/7 22/3/8
f 3/5/9 4/7/10 30/8/11 31/6/12
f 4/7/13 5/9/14 29/10/15 30/8/16
f 5/9/17 6/11/18 28/12/19 29/10/20
f 6/11/21 7/13/22 27/14/23 28/12/24
f 7/13/25 8/15/26 26/16/27 27/14/28
f 8/15/29 9/17/30 25/18/31 26/16/32
f 9/17/33 10/19/34 24/20/35 25/18/36
f 10/19/37 1/1/38 23/4/39 24/20/40
f 11/21/41 12/22/42 21/23/43
f 12/22/44 13/24/45 21/23/46
f 13/24/47 14/25/48 21/23/49
f 14/25/50 15/26/51 21/23/52
f 15/26/53 16/27/54 21/23/55
f 16/27/56 17/28/57 21/23/58
f 17/28/59 18/29/60 21/23/61
f 18/29/62 19/30/63 21/23/64
f 19/30/65 20/31/66 21/23/67
f 20/31/68 11/21/69 21/23/70
f 23/4/71 22/3/72 12/22/73 11/21/74
f 24/20/75 23/4/76 11/21/77 20/31/78
f 25/18/79 24/20/80 20/31/81 19/30/82
f 26/16/83 25/18/84 19/30/85 18/29/86
f 27/14/87 26/16/88 18/29/89 17/28/90
f 28/12/91 27/14/92 17/28/93 16/27/94
f 29/10/95 28/12/96 16/27/97 15/26/98
f 30/8/99 29/10/100 15/26/101 14/25/102
f 31/6/103 30/8/104 14/25/105 13/24/106
f 22/3/107 31/6/108 13/24/109 12/22/110
f 4/7/111 3/5/112 2/2/113 1/1/114 10/19/115 9/17/116 8/15/117 7/13/118 6/11/119 5/9/120
